<svg width="375" height="240" viewBox="0 0 375 240" fill="none" xmlns="http://www.w3.org/2000/svg">
<g clip-path="url(#clip0_484_6196)">
<rect width="375" height="240" fill="url(#paint0_linear_484_6196)"/>
<rect width="375" height="240" fill="url(#paint1_linear_484_6196)"/>
<g clip-path="url(#clip1_484_6196)">
<path d="M327.142 44.5848C328.669 46.1397 329.988 47.8855 331.067 49.7787C332.153 51.6871 333.118 53.6622 333.956 55.692C334.826 57.719 335.62 59.7904 336.467 61.802C337.275 63.7867 338.207 65.7185 339.258 67.5861C340.378 69.4763 341.611 71.2971 342.951 73.0384C344.284 74.8108 345.678 76.5563 347.005 78.3229C348.332 80.0499 349.551 81.8573 350.654 83.7347C351.73 85.5644 352.564 87.5262 353.134 89.5709C353.665 91.6502 353.925 93.7895 353.906 95.9355C353.886 98.1217 353.731 100.305 353.441 102.472C353.173 104.668 352.826 106.871 352.56 109.054C351.925 113.361 351.925 117.738 352.56 122.046C352.824 124.239 353.179 126.441 353.439 128.626C353.731 130.793 353.886 132.976 353.904 135.163C353.924 137.308 353.664 139.447 353.131 141.525C352.561 143.57 351.728 145.532 350.65 147.361C349.547 149.239 348.328 151.046 347.001 152.773C345.678 154.536 344.282 156.283 342.947 158.058C341.609 159.799 340.376 161.619 339.256 163.508C338.207 165.377 337.275 167.309 336.467 169.294C335.616 171.302 334.82 173.371 333.956 175.404C333.119 177.434 332.154 179.41 331.067 181.317C328.935 185.146 325.777 188.304 321.948 190.436C320.04 191.524 318.065 192.489 316.035 193.325C314.008 194.195 311.936 194.99 309.925 195.836C307.941 196.645 306.009 197.577 304.141 198.627C302.252 199.748 300.432 200.98 298.69 202.319C296.916 203.653 295.17 205.048 293.406 206.373C291.679 207.7 289.872 208.918 287.994 210.022C286.165 211.099 284.203 211.933 282.158 212.502C280.079 213.035 277.939 213.294 275.793 213.273C273.61 213.252 271.43 213.093 269.267 212.799C267.072 212.533 264.865 212.186 262.686 211.919C260.532 211.627 258.362 211.468 256.188 211.443C254.016 211.468 251.847 211.627 249.695 211.919C247.5 212.186 245.299 212.539 243.112 212.801C240.943 213.094 238.757 213.252 236.568 213.273C234.422 213.292 232.283 213.033 230.203 212.502C228.159 211.931 226.197 211.097 224.367 210.022C222.49 208.918 220.682 207.699 218.956 206.373C217.193 205.05 215.443 203.651 213.671 202.319C211.93 200.978 210.109 199.745 208.219 198.625C206.351 197.574 204.419 196.642 202.435 195.834C200.427 194.984 198.357 194.187 196.325 193.323C194.295 192.485 192.32 191.52 190.411 190.434C186.585 188.3 183.429 185.143 181.295 181.317C180.208 179.409 179.243 177.434 178.405 175.404C177.536 173.377 176.741 171.306 175.894 169.294C175.086 167.309 174.154 165.378 173.104 163.51C171.98 161.622 170.744 159.804 169.402 158.065C168.07 156.293 166.675 154.548 165.348 152.781C164.022 151.054 162.803 149.247 161.699 147.369C160.623 145.539 159.789 143.578 159.219 141.533C158.69 139.451 158.433 137.309 158.455 135.161C158.474 132.974 158.629 130.791 158.92 128.624C159.188 126.428 159.535 124.225 159.802 122.042C160.093 119.889 160.252 117.72 160.278 115.548C160.252 113.374 160.093 111.205 159.802 109.05C159.537 106.857 159.182 104.655 158.92 102.468C158.629 100.301 158.474 98.1179 158.455 95.9316C158.436 93.7856 158.695 91.6462 159.227 89.567C159.797 87.5225 160.631 85.5612 161.709 83.7328C162.812 81.8552 164.031 80.0478 165.358 78.321C166.681 76.5582 168.077 74.8108 169.412 73.0365C170.751 71.2942 171.984 69.4735 173.105 67.5841C174.154 65.7164 175.085 63.7853 175.894 61.802C176.745 59.7943 177.541 57.7248 178.405 55.692C179.241 53.6611 180.206 51.6853 181.293 49.7768C183.427 45.9501 186.585 42.7928 190.411 40.6581C192.319 39.572 194.294 38.6083 196.325 37.7728C198.352 36.903 200.423 36.1084 202.435 35.2617C204.419 34.4526 206.351 33.5205 208.219 32.4709C210.108 31.3503 211.928 30.1176 213.669 28.7795C215.443 27.4448 217.179 26.0408 218.954 24.7254C220.681 23.398 222.489 22.1787 224.367 21.0745C226.196 19.9987 228.156 19.165 230.2 18.5942C232.279 18.0625 234.418 17.8032 236.564 17.8227C238.751 17.8412 240.935 17.9971 243.102 18.2895C245.297 18.5556 247.504 18.9028 249.683 19.1689C251.837 19.4609 254.007 19.62 256.181 19.6453C258.353 19.6202 260.522 19.4611 262.674 19.1689C264.869 18.9028 267.07 18.5498 269.257 18.2875C271.424 17.997 273.607 17.8417 275.793 17.8227C277.939 17.804 280.078 18.0634 282.158 18.5942C284.202 19.1645 286.164 19.9983 287.994 21.0744C289.871 22.178 291.679 23.3967 293.406 24.7235C295.169 26.0465 296.918 27.4448 298.69 28.7775C300.432 30.1172 302.253 31.3506 304.143 32.4709C306.01 33.5217 307.942 34.4538 309.927 35.2617C311.934 36.1122 314.004 36.9088 316.037 37.7728C318.067 38.6106 320.042 39.5756 321.95 40.6619C323.842 41.7404 325.588 43.0589 327.142 44.5848Z" fill="#040400"/>
<path d="M327.142 44.5848C328.669 46.1397 329.988 47.8855 331.067 49.7787C332.153 51.6871 333.118 53.6622 333.956 55.692C334.826 57.719 335.62 59.7904 336.467 61.802C337.275 63.7867 338.207 65.7185 339.258 67.5861C340.378 69.4763 341.611 71.2971 342.951 73.0384C344.284 74.8108 345.678 76.5563 347.005 78.3229C348.332 80.0499 349.551 81.8573 350.654 83.7347C351.73 85.5644 352.564 87.5262 353.134 89.5709C353.665 91.6502 353.925 93.7895 353.906 95.9355C353.886 98.1217 353.731 100.305 353.441 102.472C353.173 104.668 352.826 106.871 352.56 109.054C351.925 113.361 351.925 117.738 352.56 122.046C352.824 124.239 353.179 126.441 353.439 128.626C353.731 130.793 353.886 132.976 353.904 135.163C353.924 137.308 353.664 139.447 353.131 141.525C352.561 143.57 351.728 145.532 350.65 147.361C349.547 149.239 348.328 151.046 347.001 152.773C345.678 154.536 344.282 156.283 342.947 158.058C341.609 159.799 340.376 161.619 339.256 163.508C338.207 165.377 337.275 167.309 336.467 169.294C335.616 171.302 334.82 173.371 333.956 175.404C333.119 177.434 332.154 179.41 331.067 181.317C328.935 185.146 325.777 188.304 321.948 190.436C320.04 191.524 318.065 192.489 316.035 193.325C314.008 194.195 311.936 194.99 309.925 195.836C307.941 196.645 306.009 197.577 304.141 198.627C302.252 199.748 300.432 200.98 298.69 202.319C296.916 203.653 295.17 205.048 293.406 206.373C291.679 207.7 289.872 208.918 287.994 210.022C286.165 211.099 284.203 211.933 282.158 212.502C280.079 213.035 277.939 213.294 275.793 213.273C273.61 213.252 271.43 213.093 269.267 212.799C267.072 212.533 264.865 212.186 262.686 211.919C260.532 211.627 258.362 211.468 256.188 211.443C254.016 211.468 251.847 211.627 249.695 211.919C247.5 212.186 245.299 212.539 243.112 212.801C240.943 213.094 238.757 213.252 236.568 213.273C234.422 213.292 232.283 213.033 230.203 212.502C228.159 211.931 226.197 211.097 224.367 210.022C222.49 208.918 220.682 207.699 218.956 206.373C217.193 205.05 215.443 203.651 213.671 202.319C211.93 200.978 210.109 199.745 208.219 198.625C206.351 197.574 204.419 196.642 202.435 195.834C200.427 194.984 198.357 194.187 196.325 193.323C194.295 192.485 192.32 191.52 190.411 190.434C186.585 188.3 183.429 185.143 181.295 181.317C180.208 179.409 179.243 177.434 178.405 175.404C177.536 173.377 176.741 171.306 175.894 169.294C175.086 167.309 174.154 165.378 173.104 163.51C171.98 161.622 170.744 159.804 169.402 158.065C168.07 156.293 166.675 154.548 165.348 152.781C164.022 151.054 162.803 149.247 161.699 147.369C160.623 145.539 159.789 143.578 159.219 141.533C158.69 139.451 158.433 137.309 158.455 135.161C158.474 132.974 158.629 130.791 158.92 128.624C159.188 126.428 159.535 124.225 159.802 122.042C160.093 119.889 160.252 117.72 160.278 115.548C160.252 113.374 160.093 111.205 159.802 109.05C159.537 106.857 159.182 104.655 158.92 102.468C158.629 100.301 158.474 98.1179 158.455 95.9316C158.436 93.7856 158.695 91.6462 159.227 89.567C159.797 87.5225 160.631 85.5612 161.709 83.7328C162.812 81.8552 164.031 80.0478 165.358 78.321C166.681 76.5582 168.077 74.8108 169.412 73.0365C170.751 71.2942 171.984 69.4735 173.105 67.5841C174.154 65.7164 175.085 63.7853 175.894 61.802C176.745 59.7943 177.541 57.7248 178.405 55.692C179.241 53.6611 180.206 51.6853 181.293 49.7768C183.427 45.9501 186.585 42.7928 190.411 40.6581C192.319 39.572 194.294 38.6083 196.325 37.7728C198.352 36.903 200.423 36.1084 202.435 35.2617C204.419 34.4526 206.351 33.5205 208.219 32.4709C210.108 31.3503 211.928 30.1176 213.669 28.7795C215.443 27.4448 217.179 26.0408 218.954 24.7254C220.681 23.398 222.489 22.1787 224.367 21.0744C226.196 19.9987 228.156 19.165 230.2 18.5942C232.279 18.0625 234.418 17.8032 236.564 17.8227C238.751 17.8412 240.935 17.9971 243.102 18.2895C245.297 18.5556 247.504 18.9028 249.683 19.1689C251.837 19.4609 254.007 19.62 256.181 19.6453C258.353 19.6202 260.522 19.4611 262.674 19.1689C264.869 18.9028 267.07 18.5498 269.257 18.2875C271.424 17.997 273.607 17.8417 275.793 17.8227C277.939 17.804 280.078 18.0634 282.158 18.5942C284.202 19.1645 286.164 19.9983 287.994 21.0744C289.871 22.178 291.679 23.3967 293.406 24.7235C295.169 26.0465 296.918 27.4448 298.69 28.7775C300.432 30.1172 302.253 31.3506 304.143 32.4709C306.01 33.5217 307.942 34.4538 309.927 35.2617C311.934 36.1122 314.004 36.9088 316.037 37.7728C318.067 38.6106 320.042 39.5756 321.95 40.6619C323.842 41.7404 325.588 43.0589 327.142 44.5848Z" stroke="#040400" stroke-miterlimit="10"/>
<path d="M263.82 33.7496C263.104 34.2601 262.383 34.7641 261.656 35.2617C260.929 35.7612 260.196 36.2472 259.457 36.7275C258.719 37.2077 257.978 37.6783 257.23 38.1412C256.481 38.604 255.729 39.0554 254.973 39.499C254.595 39.7227 254.209 39.9419 253.814 40.1566C253.419 40.3668 253.016 40.5694 252.597 40.7487C252.181 40.9306 251.754 41.0872 251.318 41.2174C250.874 41.3491 250.42 41.4445 249.961 41.5028C249.494 41.5572 249.024 41.5721 248.555 41.5472C248.076 41.5201 247.6 41.4543 247.131 41.3505C246.646 41.2411 246.169 41.0948 245.706 40.9127C245.223 40.7221 244.754 40.4978 244.302 40.2415C243.312 39.6749 242.408 38.9696 241.617 38.147C240.801 37.2967 240.097 36.346 239.521 35.3176C238.919 34.248 238.445 33.1112 238.109 31.9309C237.755 30.6984 237.542 29.4295 237.474 28.1488C237.411 26.8932 237.461 25.6344 237.625 24.3879C237.781 23.1944 238.017 22.0127 238.331 20.8507C238.63 19.7225 238.983 18.6559 239.351 17.6704C239.719 16.6848 240.092 15.7725 240.448 14.976C240.899 13.9474 241.377 12.9316 241.883 11.9287C242.39 10.9258 242.921 9.9332 243.476 8.95087C244.037 7.96854 244.616 7.00421 245.212 6.05788C245.809 5.11155 246.441 4.17615 247.108 3.25167L246.72 3.47347L246.335 3.69333L245.943 3.91127L245.556 4.12535C245.089 4.37994 244.605 4.63645 244.101 4.87368C243.593 5.11693 243.069 5.32758 242.533 5.50435C241.988 5.68651 241.427 5.81632 240.857 5.89201C240.267 5.97089 239.669 5.97543 239.077 5.90552C238.23 5.80321 237.411 5.54213 236.661 5.13597C235.943 4.74268 235.294 4.23745 234.736 3.63934C234.186 3.05209 233.716 2.39524 233.337 1.6856C232.972 1.00937 232.69 0.2911 232.499 -0.453294C232.317 -1.18292 232.204 -1.92814 232.163 -2.67896C232.123 -3.40933 232.137 -4.14165 232.205 -4.86992C232.273 -5.57669 232.376 -6.27962 232.514 -6.97602C232.649 -7.65877 232.807 -8.32223 232.961 -8.9664C233.73 -11.9185 234.759 -14.7965 236.038 -17.5663C238.615 -23.1385 242.121 -28.232 246.406 -32.6292C248.533 -34.8175 250.85 -36.8131 253.33 -38.5926L253.426 -38.662L253.525 -38.7334L253.623 -38.8009L253.72 -38.8703C254.054 -39.1068 254.463 -39.2156 254.871 -39.177C255.069 -39.1619 255.263 -39.1096 255.442 -39.0227C255.624 -38.9318 255.786 -38.8052 255.918 -38.6504C256.066 -38.4769 256.176 -38.2747 256.242 -38.0564C256.302 -37.8446 256.318 -37.6227 256.289 -37.4045C256.259 -37.192 256.186 -36.9878 256.075 -36.8047C255.96 -36.6104 255.806 -36.4423 255.623 -36.311L255.612 -36.2994C253.226 -34.6262 250.997 -32.7413 248.95 -30.6677C244.837 -26.5065 241.475 -21.6648 239.014 -16.357C237.791 -13.7157 236.809 -10.9698 236.078 -8.15251C235.933 -7.62213 235.806 -7.05896 235.69 -6.48807C235.575 -5.91719 235.48 -5.3328 235.42 -4.74456C235.357 -4.15796 235.338 -3.56741 235.363 -2.97791C235.387 -2.39251 235.469 -1.811 235.609 -1.24211C235.729 -0.784364 235.899 -0.341289 236.117 0.079017C236.344 0.518367 236.625 0.928335 236.952 1.29986C237.274 1.67301 237.655 1.99207 238.078 2.24491C238.504 2.49907 238.978 2.66195 239.471 2.72322C239.852 2.76464 240.237 2.75231 240.614 2.68658C241.011 2.61863 241.4 2.5147 241.777 2.37606C242.17 2.23345 242.554 2.06926 242.929 1.88425C243.307 1.70295 243.673 1.50624 244.03 1.31144C244.97 0.798416 245.9 0.262887 246.821 -0.295138C247.741 -0.853165 248.649 -1.42983 249.542 -2.02515C250.437 -2.61917 251.32 -3.23635 252.186 -3.87088C253.052 -4.5054 253.909 -5.1573 254.748 -5.8304C254.915 -5.96486 255.107 -6.06512 255.313 -6.12549C255.512 -6.18367 255.721 -6.20395 255.928 -6.18527C256.353 -6.14881 256.748 -5.94989 257.031 -5.62981C257.173 -5.46909 257.282 -5.28244 257.353 -5.08015C257.42 -4.88357 257.451 -4.67637 257.444 -4.46876C257.438 -4.26057 257.391 -4.05556 257.307 -3.86509C257.221 -3.66835 257.098 -3.49017 256.944 -3.3405C255.521 -1.948 254.161 -0.480296 252.873 1.0472C251.585 2.5747 250.366 4.17164 249.228 5.81872C248.09 7.46579 247.031 9.17266 246.047 10.9085C245.064 12.6443 244.18 14.4418 243.388 16.2682C242.882 17.4254 242.449 18.5228 242.086 19.5759C241.738 20.5669 241.442 21.5757 241.201 22.5981C240.983 23.5137 240.827 24.4428 240.734 25.3792C240.647 26.2436 240.626 27.1134 240.67 27.981C240.723 28.9914 240.886 29.993 241.154 30.9685C241.411 31.8955 241.773 32.7898 242.234 33.6339C242.67 34.4347 243.207 35.1757 243.833 35.8383C244.431 36.4744 245.12 37.0178 245.878 37.4507C246.178 37.6233 246.491 37.7735 246.813 37.9001C247.12 38.023 247.435 38.1229 247.756 38.199C248.058 38.2729 248.366 38.3225 248.676 38.3475C248.972 38.3671 249.269 38.3593 249.563 38.3244C249.885 38.2842 250.202 38.2138 250.51 38.1142C250.831 38.0129 251.146 37.8918 251.451 37.7516C251.766 37.6108 252.08 37.4507 252.397 37.2771C252.713 37.1036 253.029 36.9223 253.347 36.7352C254.497 36.0589 255.637 35.362 256.769 34.6445C257.9 33.927 259.018 33.1877 260.121 32.4265C261.227 31.6679 262.318 30.8907 263.394 30.0948C264.468 29.2983 265.531 28.4824 266.572 27.6492C266.75 27.5068 266.957 27.4043 267.178 27.3484C267.39 27.295 267.61 27.2845 267.826 27.3175C268.043 27.3523 268.252 27.4296 268.439 27.5451C268.633 27.6709 268.797 27.8358 268.923 28.0292C269.031 28.1982 269.105 28.387 269.139 28.5847C269.174 28.7787 269.172 28.9774 269.135 29.171C269.097 29.3675 269.024 29.5555 268.919 29.7264C268.815 29.9019 268.68 30.0568 268.52 30.1835C268.137 30.4895 267.751 30.7936 267.361 31.0958C266.975 31.3966 266.584 31.6956 266.192 31.9907C265.801 32.2858 265.405 32.5808 265.008 32.874C264.611 33.1672 264.221 33.4642 263.82 33.7496Z" fill="#FC762B" stroke="#070707" stroke-miterlimit="10" stroke-linecap="round"/>
<path d="M294.422 239.273C294.362 239.333 294.297 239.388 294.227 239.437C294.157 239.485 294.083 239.527 294.007 239.565C293.928 239.601 293.845 239.631 293.761 239.653C293.484 239.729 293.192 239.715 292.924 239.615C292.746 239.55 292.583 239.451 292.443 239.324C292.149 239.058 291.964 238.692 291.926 238.298C291.69 235.653 291.215 233.036 290.509 230.477C289.09 225.329 286.795 220.465 283.724 216.097C282.2 213.928 280.483 211.9 278.596 210.039C278.239 209.682 277.855 209.321 277.456 208.968C277.056 208.615 276.638 208.274 276.2 207.96C275.763 207.642 275.304 207.356 274.827 207.103C274.352 206.856 273.853 206.657 273.338 206.509C272.922 206.391 272.493 206.323 272.061 206.305C271.608 206.281 271.154 206.314 270.709 206.403C270.266 206.488 269.84 206.644 269.446 206.864C269.05 207.085 268.705 207.386 268.431 207.748C268.224 208.029 268.057 208.339 267.936 208.667C267.808 209.012 267.711 209.367 267.646 209.728C267.581 210.104 267.535 210.483 267.51 210.864C267.483 211.246 267.467 211.628 267.459 211.998C267.436 212.978 267.43 213.956 267.456 214.941C267.481 215.927 267.517 216.909 267.587 217.896C267.656 218.884 267.733 219.856 267.832 220.841C267.93 221.827 268.065 222.795 268.214 223.765C268.243 223.96 268.235 224.158 268.188 224.349C268.143 224.534 268.064 224.708 267.955 224.864C267.73 225.183 267.392 225.404 267.01 225.482C266.817 225.52 266.619 225.522 266.426 225.487C266.239 225.451 266.062 225.38 265.901 225.279C265.57 225.072 265.332 224.745 265.236 224.367C264.784 222.604 264.244 220.857 263.623 219.136C263.002 217.416 262.296 215.723 261.513 214.068C260.73 212.413 259.87 210.793 258.935 209.221C257.999 207.649 256.996 206.126 255.918 204.662C255.234 203.73 254.561 202.883 253.893 202.116C253.267 201.389 252.604 200.696 251.905 200.039C251.276 199.45 250.611 198.902 249.912 198.397C249.267 197.934 248.587 197.52 247.88 197.159C246.924 196.692 245.907 196.363 244.859 196.183C243.716 195.976 242.549 195.923 241.392 196.025C240.259 196.116 239.154 196.414 238.13 196.906C237.146 197.379 236.316 198.121 235.737 199.045C235.404 199.604 235.18 200.22 235.077 200.862C234.965 201.544 234.92 202.235 234.942 202.926C234.956 203.634 235.017 204.347 235.079 205.038C235.141 205.728 235.208 206.39 235.233 206.993C235.273 207.895 235.325 208.795 235.388 209.694C235.451 210.592 235.526 211.49 235.613 212.388C235.698 213.287 235.798 214.182 235.907 215.076C236.015 215.971 236.146 216.859 236.273 217.757C236.327 218.126 236.25 218.502 236.055 218.82C235.959 218.976 235.835 219.114 235.689 219.225C235.54 219.337 235.37 219.418 235.189 219.462C234.985 219.514 234.773 219.521 234.566 219.483C234.369 219.449 234.182 219.373 234.016 219.262C233.849 219.152 233.706 219.009 233.596 218.841C233.483 218.668 233.409 218.471 233.38 218.266C233.194 217.026 233.027 215.778 232.88 214.523C232.734 213.268 232.612 212.014 232.516 210.76C232.418 209.505 232.342 208.248 232.288 206.988C232.234 205.728 232.204 204.472 232.198 203.221C232.198 202.835 232.196 202.413 232.209 202.002C232.223 201.591 232.254 201.186 232.29 200.764C232.335 200.35 232.406 199.94 232.504 199.535C232.603 199.123 232.735 198.72 232.9 198.33C233.068 197.935 233.272 197.556 233.507 197.198C233.747 196.83 234.016 196.483 234.313 196.16C234.622 195.825 234.956 195.514 235.312 195.23C235.687 194.937 236.082 194.671 236.495 194.434C237.396 193.908 238.367 193.515 239.38 193.265C240.427 192.996 241.503 192.862 242.584 192.866C243.706 192.88 244.823 193.025 245.912 193.298C247.05 193.581 248.152 193.993 249.197 194.527C250.22 195.051 251.194 195.666 252.107 196.365C252.981 197.033 253.808 197.76 254.584 198.54C255.34 199.296 256.024 200.062 256.638 200.802C257.251 201.543 257.795 202.26 258.269 202.905C258.874 203.73 259.459 204.573 260.026 205.433C260.593 206.293 261.134 207.167 261.648 208.054C262.17 208.944 262.669 209.847 263.145 210.762C263.621 211.677 264.073 212.605 264.501 213.545L264.503 213.138L264.514 212.741L264.528 212.342L264.543 211.94C264.555 211.458 264.574 210.957 264.617 210.448C264.658 209.933 264.73 209.422 264.833 208.916C264.939 208.402 265.092 207.898 265.292 207.412C265.5 206.909 265.77 206.434 266.096 205.998C266.564 205.375 267.146 204.845 267.81 204.438C268.45 204.05 269.147 203.765 269.876 203.595C270.592 203.429 271.327 203.357 272.061 203.381C272.764 203.402 273.463 203.508 274.14 203.697C274.801 203.886 275.442 204.139 276.054 204.453C276.649 204.755 277.222 205.1 277.766 205.487C278.295 205.863 278.805 206.266 279.294 206.694C279.776 207.115 280.227 207.543 280.655 207.964C282.673 209.954 284.507 212.121 286.137 214.44C289.413 219.103 291.858 224.296 293.365 229.792C294.116 232.524 294.618 235.317 294.866 238.139C294.877 238.249 294.874 238.359 294.858 238.467C294.843 238.573 294.817 238.676 294.781 238.776C294.745 238.874 294.698 238.969 294.642 239.057C294.576 239.137 294.503 239.209 294.422 239.273Z" fill="url(#paint2_linear_484_6196)" stroke="black" stroke-miterlimit="10" stroke-linecap="round"/>
<path d="M302.102 189.927L303.786 195.703L305.471 201.478L307.155 207.254L308.839 213.03L311.18 209.455L313.522 205.879L315.863 202.303L318.204 198.727L314.179 196.527L310.152 194.328L306.127 192.127L302.102 189.927Z" fill="#F6C34C" stroke="#070707" stroke-miterlimit="10" stroke-linecap="round"/>
<path d="M211.187 95.8139C212.641 97.274 213.501 99.2221 213.6 101.28C213.699 103.339 213.03 105.36 211.723 106.953C210.416 108.546 208.564 109.597 206.526 109.902C204.488 110.207 202.409 109.744 200.693 108.603C198.977 107.462 197.746 105.725 197.238 103.728C196.731 101.731 196.983 99.6162 197.946 97.7945C198.909 95.9727 200.514 94.5736 202.451 93.8684C204.387 93.1632 206.516 93.2022 208.425 93.9778C209.459 94.3987 210.398 95.0231 211.187 95.8139Z" fill="#DBCAF4" stroke="black" stroke-miterlimit="10" stroke-linecap="round"/>
<path d="M291.373 4.21401L289.5 10.9894L287.627 17.7648L285.755 24.5402L283.88 31.3136C285.257 31.7572 286.634 32.1989 288.009 32.6386C289.385 33.0784 290.761 33.5194 292.137 33.9617L296.266 35.2867L300.397 36.6098C299.644 33.9096 298.891 31.2101 298.139 28.5113L295.884 20.4128L293.628 12.3125L291.373 4.21401Z" fill="url(#paint3_linear_484_6196)" stroke="black" stroke-miterlimit="10" stroke-linecap="round"/>
<path d="M200.953 79.2658L200.94 72.1818L200.922 65.0979L200.909 58.0139L200.901 50.9396C203.267 51.3926 205.519 52.3125 207.526 53.6455C209.353 54.8601 210.929 56.4161 212.167 58.228C213.323 59.9063 214.13 61.7998 214.541 63.796C214.932 65.6682 214.872 67.6069 214.363 69.4509C213.978 70.7597 213.365 71.9903 212.552 73.0864C211.706 74.2281 210.691 75.2342 209.542 76.07C208.328 76.9575 206.998 77.6746 205.59 78.2012C204.098 78.7592 202.539 79.1172 200.953 79.2658Z" fill="url(#paint4_linear_484_6196)" stroke="black" stroke-miterlimit="10" stroke-linecap="round"/>
<path d="M171.306 95.378L165.742 94.3114L160.178 93.241L154.613 92.1745L149.049 91.1079C147.835 90.8761 146.679 90.4073 145.647 89.7282C144.615 89.0492 143.727 88.1732 143.033 87.1506C142.34 86.1279 141.855 84.9785 141.606 83.7682C141.357 82.5579 141.349 81.3105 141.583 80.0972C141.815 78.8835 142.284 77.7275 142.963 76.6952C143.642 75.6629 144.518 74.7747 145.541 74.0812C146.563 73.3878 147.713 72.9028 148.923 72.654C150.133 72.4052 151.381 72.3975 152.594 72.6313L158.158 73.6979L163.722 74.7644L169.287 75.831L174.849 76.8995C176.063 77.1313 177.219 77.6004 178.251 78.2799C179.283 78.9593 180.171 79.8358 180.864 80.859C181.557 81.8799 182.041 83.0274 182.289 84.2358C182.536 85.4441 182.543 86.6895 182.309 87.9006C182.077 89.1144 181.608 90.2706 180.929 91.3031C180.25 92.3356 179.374 93.224 178.351 93.9176C177.328 94.6112 176.178 95.0963 174.968 95.3452C173.757 95.5942 172.51 95.602 171.296 95.3683L171.306 95.378Z" fill="url(#paint5_linear_484_6196)" stroke="black" stroke-miterlimit="10" stroke-linecap="round"/>
<path d="M282.943 188.615L281.805 190.023L280.665 191.433L279.525 192.843L278.387 194.251L278.007 192.718L277.627 191.184L277.247 189.647L276.867 188.114L274.725 189.342L272.584 190.569L270.443 191.796L268.304 193.024L269.255 190.905L270.208 188.783L271.159 186.663L272.111 184.542L269.442 184.731L266.773 184.916L264.104 185.105L261.436 185.292L263.592 183.595L265.751 181.9L267.911 180.202L270.067 178.505L268.833 177.599L267.598 176.692L266.36 175.786L265.126 174.879L266.915 174.47L268.703 174.06L270.491 173.653L272.281 173.244L271.261 170.573L270.244 167.901L269.226 165.232L268.208 162.563L270.441 164.376L272.674 166.189L274.908 168.002L277.143 169.817L277.706 167.294L278.271 164.773L278.837 162.252L279.402 159.732L280.358 162.173L281.313 164.617L282.27 167.059L283.228 169.502L284.952 168.542L286.677 167.581L288.399 166.623L290.123 165.662L289.643 167.554L289.159 169.446L288.679 171.338L288.194 173.23L290.868 173.716L293.541 174.202L296.212 174.687L298.885 175.173L296.461 176.293L294.034 177.416L291.612 178.538L289.186 179.661L291.08 181.389L292.976 183.119L294.87 184.847L296.763 186.575L294.229 186.17L291.695 185.765L289.161 185.36L286.626 184.951L287.622 187.875L288.617 190.799L289.614 193.72L290.607 196.642L288.692 194.635L286.775 192.629L284.86 190.621L282.943 188.615Z" fill="url(#paint6_linear_484_6196)" stroke="black" stroke-miterlimit="10" stroke-linecap="round"/>
<path d="M274.858 -4.48617L273.93 -3.85164L273.002 -3.22098L272.075 -2.58643L271.149 -1.95384L271.197 -2.93168L271.245 -3.9095L271.294 -4.88733L271.342 -5.86517L269.853 -5.52186L268.364 -5.17471L266.875 -4.82754L265.388 -4.48231L266.329 -5.57008L267.272 -6.65592L268.215 -7.74562L269.159 -8.83144L267.542 -9.19789L265.926 -9.56434L264.308 -9.92886L262.694 -10.2934L264.275 -10.9144L265.859 -11.5374L267.442 -12.1565L269.024 -12.7775L268.453 -13.5374L267.882 -14.2934L267.311 -15.0533L266.738 -15.8113L267.874 -15.7361L269.008 -15.6589L270.142 -15.5818L271.276 -15.5046L271.149 -17.2713L271.02 -19.036L270.892 -20.8027L270.765 -22.5655L271.766 -21.0939L272.767 -19.6185L273.768 -18.143L274.771 -16.6695L275.556 -18.064L276.339 -19.4603L277.126 -20.8528L277.909 -22.2492L278.04 -20.6291L278.173 -19.0109L278.304 -17.3908L278.435 -15.7708L279.631 -16.0331L280.823 -16.2954L282.017 -16.5557L283.213 -16.818L282.588 -15.7804L281.965 -14.7447L281.342 -13.709L280.717 -12.6714L282.216 -11.9096L283.714 -11.1439L285.213 -10.3782L286.709 -9.61448L285.072 -9.38111L283.435 -9.14775L281.795 -8.91631L280.158 -8.68294L280.974 -7.31938L281.787 -5.95774L282.601 -4.59225L283.417 -3.22868L281.988 -3.92107L280.557 -4.61539L279.126 -5.30585L277.695 -6.00018L277.762 -4.08886L277.834 -2.17757L277.901 -0.266261L277.971 1.64312L277.191 0.111759L276.414 -1.42153L275.635 -2.95289L274.858 -4.48617Z" fill="url(#paint7_linear_484_6196)" stroke="black" stroke-miterlimit="10" stroke-linecap="round"/>
<path d="M310.249 37.9096L310.154 38.1044L310.044 38.3339L309.925 38.6001L309.795 38.899L309.441 39.7438C309.336 40.0061 309.242 40.2549 309.159 40.496C309.076 40.7371 309.007 40.9762 308.949 41.2192C308.89 41.4658 308.846 41.7157 308.818 41.9675C308.783 42.2491 308.76 42.4613 308.737 42.6271C308.713 42.793 308.7 42.9107 308.683 43.0013C308.672 43.0708 308.655 43.1392 308.632 43.2057C308.612 43.2604 308.588 43.3138 308.561 43.3658C308.419 43.6542 308.218 43.9097 307.972 44.1163C307.725 44.3228 307.439 44.4758 307.13 44.5654C306.441 44.7636 305.722 44.829 305.009 44.7583C304.246 44.6948 303.49 44.5743 302.746 44.3977C302.031 44.2337 301.386 44.0563 300.9 43.929C299.628 43.6017 298.334 43.3633 297.028 43.2154C295.797 43.0796 294.556 43.0589 293.321 43.1537C292.095 43.2526 290.883 43.4841 289.706 43.8441C288.446 44.2326 287.23 44.7509 286.077 45.3909C284.895 46.038 283.767 46.779 282.704 47.6069C281.632 48.4444 280.633 49.3709 279.718 50.3765C278.804 51.3822 277.988 52.473 277.282 53.634C276.583 54.7882 276.012 56.0157 275.581 57.2946C274.915 59.3236 274.638 61.46 274.765 63.5917C274.89 65.6779 275.317 67.7348 276.034 69.6978C276.729 71.6162 277.639 73.4499 278.746 75.1637C279.754 76.7427 280.925 78.2115 282.241 79.5456C285.327 82.6314 289.186 84.7703 293.425 86.0703C297.765 87.3564 302.299 87.8637 306.816 87.5688C311.282 87.3159 315.678 86.3463 319.836 84.697C323.828 83.0885 327.329 80.8648 329.908 78.1396C331.194 76.7301 332.387 75.2373 333.477 73.6709C334.693 71.9659 335.888 70.1414 336.947 68.4654C338.006 66.7894 338.92 65.2619 339.576 64.151C340.232 63.0401 340.61 62.3458 340.61 62.3458C340.61 62.3458 340.328 62.1143 339.854 61.7286C339.379 61.3429 338.71 60.8009 337.938 60.1722C337.167 59.5434 336.301 58.8433 335.424 58.1317C334.546 57.42 333.659 56.6987 332.853 56.0468C331.998 55.3582 331.225 54.7314 330.503 54.1528C329.782 53.5742 329.09 53.0168 328.388 52.4537C327.686 51.8905 326.972 51.3196 326.185 50.6909C325.398 50.0621 324.542 49.3755 323.56 48.5906C322.768 47.958 321.893 47.2572 320.933 46.4883C319.975 45.7227 318.941 44.8817 317.821 43.9926C316.7 43.1035 315.51 42.1411 314.247 41.1247C312.984 40.1083 311.653 39.0398 310.249 37.9096Z" fill="#D87D61" stroke="black" stroke-miterlimit="10" stroke-linecap="round"/>
<path d="M284.625 73.7751C283.375 72.9612 282.156 72.0779 280.885 71.0846C279.614 70.0914 278.3 68.9747 276.86 67.6921C275.419 66.4096 273.847 64.9611 272.075 63.2928C270.302 61.6245 268.323 59.7383 266.065 57.584C264.964 56.5348 263.922 55.528 262.937 54.5637C261.959 53.6129 261.025 52.691 260.165 51.8308C259.305 50.9706 258.505 50.1702 257.77 49.4354C257.035 48.7006 256.379 48.0178 255.793 47.4122C255.164 47.0689 254.57 46.7321 254.011 46.4016C253.448 46.0737 252.919 45.7536 252.422 45.445C251.924 45.1364 251.459 44.8375 251.031 44.5559C250.603 44.2743 250.202 44.0043 249.841 43.7516C249.536 43.5433 249.251 43.3428 248.981 43.1499C248.711 42.957 248.452 42.7719 248.206 42.5906C247.959 42.4093 247.727 42.228 247.498 42.0486C247.268 41.8693 247.05 41.686 246.836 41.5028C246.559 41.2637 246.281 41.0206 246.015 40.7815C245.748 40.5423 245.473 40.2858 245.214 40.039C244.956 39.7921 244.695 39.5201 244.443 39.2675C244.19 39.0148 243.924 38.7487 243.683 38.4845C243.49 38.2916 243.214 38.0158 242.925 37.6995C242.61 37.3663 242.324 37.0069 242.071 36.6252C241.835 36.293 241.691 35.9045 241.654 35.4989C241.653 35.3069 241.703 35.1181 241.801 34.9527C241.898 34.7873 242.039 34.6515 242.207 34.5596C242.401 34.4352 242.626 34.3696 242.856 34.3706C243.096 34.3709 243.336 34.414 243.561 34.4979C243.795 34.5824 244.018 34.693 244.227 34.8277C244.416 34.9501 244.592 35.0924 244.751 35.252C245.322 35.765 245.837 36.1836 246.298 36.5249C246.692 36.8204 247.105 37.0909 247.533 37.335C247.837 37.507 248.155 37.6516 248.485 37.767C248.713 37.8473 248.95 37.8979 249.191 37.9174L249.257 37.9174L249.324 37.9116L249.394 37.9001L249.465 37.8827C249.589 37.8472 249.707 37.796 249.818 37.7304C249.927 37.6635 250.027 37.5838 250.117 37.4931C250.207 37.4024 250.286 37.3014 250.352 37.1923C250.418 37.0801 250.471 36.9611 250.51 36.8374L250.526 36.7872L250.539 36.7352L250.553 36.6831L250.566 36.631C250.637 36.3092 250.649 35.9773 250.601 35.6513C250.552 35.3305 250.462 35.0174 250.333 34.7197C250.205 34.4203 250.055 34.1309 249.884 33.8537C249.718 33.5799 249.538 33.3156 249.372 33.0688C249.207 32.8219 248.991 32.5365 248.813 32.3127C248.636 32.089 248.462 31.8923 248.323 31.738C248.184 31.5837 248.047 31.4622 247.959 31.3735C247.87 31.2848 247.816 31.2308 247.806 31.2211C247.405 30.8508 246.972 30.4458 246.506 30.0061C246.04 29.5663 245.536 29.0861 244.998 28.5711C244.46 28.0562 243.883 27.5065 243.274 26.9202C242.665 26.3339 242.015 25.7109 241.332 25.0513C241.077 24.8569 240.845 24.635 240.639 24.3898C240.451 24.1671 240.291 23.9215 240.163 23.6588C240.046 23.4193 239.968 23.1628 239.932 22.8989C239.897 22.6539 239.91 22.4045 239.968 22.1641L240.02 22.0002C240.044 21.9357 240.071 21.8726 240.101 21.8112C240.137 21.7415 240.176 21.6739 240.219 21.6087C240.27 21.532 240.326 21.4592 240.387 21.3907C240.387 21.3907 240.35 21.3541 240.292 21.2962C240.221 21.2084 240.154 21.1163 240.094 21.0204C240.012 20.8932 239.943 20.759 239.885 20.6193C239.824 20.466 239.784 20.3051 239.766 20.141C239.763 20.1192 239.761 20.0973 239.762 20.0754L239.764 19.95C239.768 19.8999 239.772 19.842 239.781 19.7784C239.793 19.7113 239.809 19.6449 239.829 19.5797C239.896 19.3768 240.007 19.1915 240.155 19.0378C240.29 18.8956 240.446 18.774 240.616 18.6771C240.754 18.5979 240.899 18.5308 241.048 18.4765C241.17 18.4322 241.261 18.4071 241.291 18.3994C241.322 18.3917 241.284 18.3685 241.276 18.3184C241.268 18.2682 241.257 18.1949 241.249 18.1139C241.241 18.0329 241.232 17.9423 241.228 17.8497C241.223 17.7635 241.226 17.6771 241.235 17.5913C241.253 17.4563 241.295 17.3256 241.359 17.2055C241.415 17.0979 241.485 16.9975 241.565 16.9066C241.625 16.8376 241.689 16.7731 241.758 16.7137L241.856 16.6385C242.128 16.461 242.453 16.3858 242.774 16.4264C243.115 16.471 243.446 16.5755 243.75 16.7349C244.073 16.9019 244.387 17.0867 244.69 17.2885C244.987 17.4813 245.262 17.6684 245.504 17.8015C245.513 17.6645 245.541 17.5294 245.588 17.4003C245.68 17.1249 245.87 16.8933 246.123 16.7504C246.42 16.5845 246.861 16.5131 247.521 16.6751C248.181 16.8372 249.05 17.2364 250.206 18.0059C250.366 18.112 250.516 18.2123 250.649 18.2991C250.782 18.3859 250.904 18.4649 251.004 18.5267C251.104 18.5884 251.183 18.6404 251.239 18.6771C251.295 18.7137 251.322 18.7292 251.322 18.7292C251.897 19.2036 252.489 19.707 253.093 20.2374C253.697 20.7678 254.314 21.3309 254.933 21.9153C255.552 22.4997 256.188 23.1246 256.827 23.7746C257.465 24.4245 258.105 25.1034 258.75 25.817C259.394 26.5306 260.032 27.2616 260.626 27.9713C261.22 28.6811 261.781 29.385 262.316 30.0774C262.85 30.7698 263.351 31.4448 263.828 32.1102C264.304 32.7756 264.752 33.4198 265.17 34.0505C267.681 35.6667 270.192 37.2842 272.703 38.903L280.246 43.7458L287.789 48.5887C290.271 50.1805 292.764 51.7813 295.269 53.3911L311.902 56.4692L323.946 58.6968L331.271 60.0508L333.742 60.5079C333.742 60.5079 334.054 60.5811 334.588 60.7451C335.123 60.909 335.852 61.1289 336.691 61.4317C337.53 61.7345 338.469 62.1067 339.404 62.5484C340.339 62.9812 341.235 63.4909 342.085 64.072L342.12 64.1067L342.164 64.1511C342.18 64.1665 342.195 64.1819 342.224 64.1916C342.253 64.2012 342.261 64.2282 342.28 64.2475C343.075 64.8286 343.802 65.4976 344.448 66.2418C345.053 66.9391 345.593 67.6899 346.062 68.4848C346.48 69.194 346.842 69.935 347.144 70.7008C347.393 71.3252 347.587 71.9698 347.725 72.6276C347.953 73.8475 347.94 75.1003 347.686 76.3152C347.423 77.5698 346.983 78.7808 346.38 79.9121C345.774 81.0615 345.038 82.1376 344.187 83.1195C343.392 84.05 342.493 84.8861 341.507 85.6113C340.031 86.6767 338.326 87.3803 336.529 87.6653C334.652 87.999 332.504 87.9797 330.021 87.6962C327.141 87.3229 324.284 86.7845 321.466 86.0838C318.21 85.3162 314.525 84.3423 310.32 83.2236C307.155 82.3731 304.38 81.6383 301.896 80.9362C299.412 80.2342 297.261 79.5572 295.251 78.8668C293.358 78.2194 291.502 77.468 289.691 76.616C287.94 75.7837 286.248 74.8346 284.625 73.7751Z" fill="#F2B3C1" stroke="black" stroke-miterlimit="10" stroke-linecap="round"/>
<path d="M289.373 116.028L300.397 118.377L311.425 120.723L322.451 123.074L333.476 125.423C333.476 125.423 334.307 123.311 335.57 119.899C336.833 116.487 338.531 111.777 340.261 106.584C341.991 101.39 343.753 95.7078 345.152 90.3597C346.55 85.0115 347.582 79.995 347.85 76.1242C347.885 75.7038 347.906 75.1888 347.906 74.6102C347.904 73.9746 347.866 73.3396 347.79 72.7085C347.701 71.9742 347.554 71.248 347.35 70.5369C347.121 69.7375 346.813 68.9629 346.43 68.2244C346.035 67.4572 345.559 66.7344 345.011 66.0682C344.509 65.4609 343.955 64.8982 343.356 64.3864C342.797 63.9097 342.209 63.4666 341.597 63.0594C341.013 62.6641 340.425 62.3034 339.881 61.9755C338.018 60.8491 336.032 59.9399 333.962 59.2658C332.183 58.6888 330.358 58.2712 328.505 58.0179C327.043 57.8182 325.57 57.7144 324.095 57.7074C322.86 57.6997 321.896 57.7614 321.3 57.8019C320.005 57.8917 318.716 58.0572 317.441 58.2976C316.262 58.5194 315.2 58.7836 314.274 59.0536C313.348 59.3236 312.561 59.6091 311.917 59.8444C311.273 60.0797 310.791 60.2995 310.476 60.4403L310.069 60.6313C309.809 60.7566 309.442 60.9341 309.007 61.1616C308.571 61.3892 308.067 61.6612 307.531 61.9698C306.995 62.2784 306.438 62.6236 305.888 62.9958C304.23 64.1532 302.726 65.5153 301.41 67.0499C299.826 68.8744 298.402 70.8322 297.155 72.9014C295.744 75.2276 294.503 77.6524 293.44 80.157C291.215 85.382 289.711 90.8855 288.97 96.516C288.648 98.9767 288.47 101.454 288.436 103.936C288.407 106.279 288.501 108.472 288.675 110.497C288.848 112.522 289.087 114.389 289.373 116.028Z" fill="#ECE7E1" stroke="black" stroke-miterlimit="10" stroke-linecap="round"/>
<path d="M334.189 47.8248C334.567 46.0413 334.653 44.2085 334.444 42.3975C334.242 40.5262 333.75 38.6977 332.986 36.978C332.254 35.2983 331.201 33.7777 329.886 32.5015C328.58 31.2423 326.967 30.3461 325.207 29.9017C323.499 29.4811 321.717 29.4626 320 29.8477C318.269 30.2412 316.635 30.9813 315.198 32.0232C313.675 33.124 312.362 34.4901 311.323 36.0561C310.203 37.7383 309.384 39.602 308.901 41.5643C308.862 41.7148 308.822 41.871 308.795 42.0137L308.704 42.4631C308.675 42.6154 308.648 42.762 308.631 42.9221L308.565 43.3734L307.884 43.6029L307.201 43.8305L306.519 44.0697L305.836 44.2972L307.128 45.5894C307.344 45.8054 307.558 46.0195 307.774 46.2355L308.42 46.8816C308.457 46.9183 308.465 47.0572 308.457 47.2539C308.449 47.4506 308.426 47.6975 308.39 47.9578C308.353 48.2182 308.33 48.4689 308.305 48.6792C308.281 48.8222 308.265 48.9664 308.258 49.1112C308.269 49.4789 308.296 49.8454 308.339 50.2105C308.382 50.5754 308.443 50.9378 308.523 51.2963C308.601 51.6555 308.698 52.0102 308.814 52.359C308.929 52.7082 309.063 53.0507 309.215 53.3851C309.601 54.2298 310.11 55.0129 310.725 55.7091C311.339 56.4024 312.038 57.0148 312.806 57.5317C313.576 58.0563 314.401 58.4936 315.267 58.8355C316.131 59.1768 317.028 59.4275 317.944 59.5838C319.779 59.8908 321.658 59.7961 323.452 59.3061C325.204 58.8236 326.849 58.012 328.297 56.9146C329.761 55.8115 331.022 54.4619 332.023 52.9261C333.048 51.3708 333.782 49.6423 334.189 47.8248Z" fill="#F2B3C1" stroke="black" stroke-miterlimit="10" stroke-linecap="round"/>
<path d="M314.386 43.5007C314.358 43.6012 314.31 43.6949 314.245 43.7765C314.183 43.8569 314.106 43.9239 314.017 43.9733C313.929 44.0246 313.831 44.0577 313.729 44.0706C313.627 44.0836 313.524 44.076 313.425 44.0485C313.326 44.0217 313.233 43.9755 313.151 43.9126C313.07 43.8498 313.002 43.7714 312.951 43.682C312.899 43.5944 312.865 43.4974 312.85 43.3966C312.838 43.2927 312.845 43.1873 312.872 43.0861C312.899 42.9853 312.947 42.891 313.011 42.8084C313.074 42.7298 313.151 42.6632 313.238 42.6116C313.327 42.5604 313.424 42.527 313.526 42.5133C313.629 42.4997 313.735 42.5069 313.836 42.5344C313.937 42.5618 314.031 42.6091 314.114 42.6733C314.193 42.736 314.26 42.8133 314.31 42.9009C314.362 42.9892 314.395 43.0869 314.409 43.1883C314.423 43.2929 314.415 43.3994 314.386 43.5007Z" fill="#040400"/>
<path d="M310.849 49.6687C310.877 49.6398 310.945 49.5491 311.055 49.4353C311.194 49.2926 311.346 49.1635 311.51 49.0496C311.723 48.8969 311.955 48.7737 312.201 48.6832C312.494 48.5755 312.803 48.5182 313.115 48.5134C313.359 48.5121 313.602 48.5426 313.838 48.6041C314.033 48.6527 314.223 48.7218 314.403 48.8104C314.546 48.8832 314.683 48.9664 314.814 49.0592C314.893 49.1153 314.969 49.1758 315.041 49.2405" stroke="black" stroke-miterlimit="10" stroke-linecap="round"/>
<path d="M313.217 38.8413L314.33 39.2984L315.443 39.7555L316.554 40.2145L317.666 40.6716" stroke="black" stroke-miterlimit="10" stroke-linecap="round"/>
<path d="M321.616 48.1972C321.533 48.5054 321.388 48.7934 321.19 49.0438C321 49.2865 320.765 49.4901 320.498 49.6437C320.23 49.7945 319.936 49.8933 319.632 49.9349C319.316 49.9775 318.994 49.9565 318.687 49.8732C318.384 49.7916 318.1 49.6508 317.851 49.4588C317.603 49.2668 317.395 49.0274 317.24 48.7545C317.087 48.4883 316.988 48.1948 316.947 47.8905C316.905 47.5737 316.927 47.2518 317.011 46.9435C317.094 46.6353 317.239 46.3472 317.437 46.0968C317.727 45.7279 318.12 45.4523 318.566 45.3042C319.011 45.1561 319.491 45.142 319.944 45.2637C320.253 45.3475 320.542 45.4931 320.793 45.6918C321.035 45.8811 321.238 46.1164 321.389 46.3842C321.542 46.6505 321.641 46.9439 321.682 47.2482C321.723 47.5658 321.701 47.8884 321.616 48.1972Z" fill="#FF6406" stroke="#070707" stroke-miterlimit="10" stroke-linecap="round"/>
<path d="M332.993 51.1807C333.078 50.9994 333.165 50.8123 333.25 50.6156C333.335 50.4189 333.418 50.2163 333.501 50.0061C333.584 49.7959 333.665 49.576 333.742 49.3523C333.819 49.1286 333.896 48.8933 333.967 48.6522C334.1 48.2035 334.212 47.7657 334.305 47.3388C334.397 46.9119 334.472 46.5017 334.529 46.1083C334.586 45.7148 334.625 45.3368 334.654 44.98C334.683 44.6232 334.698 44.2799 334.706 43.9636C334.886 43.972 335.065 43.99 335.242 44.0176C335.48 44.0536 335.715 44.1091 335.944 44.1835C336.203 44.27 336.451 44.3879 336.681 44.5345C336.932 44.6919 337.154 44.8908 337.339 45.1227C337.673 45.5652 337.872 46.0951 337.912 46.6483C337.96 47.2409 337.889 47.8372 337.701 48.4015C337.517 48.9856 337.227 49.5309 336.845 50.01C336.479 50.4754 336.007 50.8458 335.468 51.09C335.236 51.1896 334.993 51.2615 334.745 51.3041C334.52 51.3424 334.292 51.3585 334.064 51.3523C333.862 51.3472 333.661 51.3279 333.462 51.2945C333.304 51.2649 333.147 51.2269 332.993 51.1807Z" fill="#F2B3C1" stroke="black" stroke-miterlimit="10" stroke-linecap="round"/>
<path d="M289.373 116.028C284.342 115.757 279.73 115.482 275.539 115.205C271.347 114.927 267.551 114.637 264.15 114.335C260.761 114.031 257.754 113.725 255.131 113.417C252.508 113.108 250.26 112.779 248.385 112.429C247.612 112.288 246.713 112.111 245.71 111.953C244.707 111.795 243.6 111.648 242.41 111.573C241.147 111.491 239.879 111.504 238.618 111.612C237.212 111.735 235.821 111.994 234.464 112.383C233.93 112.531 233.202 112.773 232.41 113.029C231.617 113.286 230.736 113.592 229.931 113.872C229.127 114.152 228.389 114.408 227.852 114.597L226.977 114.906L212.824 119.635L198.674 124.343L184.515 129.043L170.365 133.751L173.129 142.918L175.89 152.086L178.654 161.253L181.416 170.422L197.129 164.148L212.84 157.872L228.552 151.598L244.256 145.334C251.588 147.672 258.453 149.841 264.74 151.809C271.027 153.776 276.732 155.543 281.751 157.074C286.769 158.605 291.099 159.907 294.625 160.941C298.15 161.975 300.85 162.758 302.681 163.242C302.927 163.307 303.253 163.39 303.653 163.477C304.052 163.564 304.522 163.653 305.057 163.724C305.591 163.795 306.185 163.857 306.829 163.88C307.524 163.911 308.22 163.9 308.914 163.847C310.529 163.725 312.122 163.392 313.651 162.856C314.985 162.39 316.271 161.795 317.489 161.078C318.467 160.504 319.404 159.864 320.293 159.161C321.04 158.572 321.593 158.069 321.929 157.761C322.528 157.203 323.055 156.661 323.531 156.123C324.008 155.585 324.436 155.057 324.818 154.547C325.2 154.038 325.539 153.544 325.846 153.076C326.152 152.607 326.428 152.169 326.681 151.759C327.184 150.95 327.616 150.171 328 149.421C328.384 148.671 328.708 147.942 329.011 147.253C329.314 146.565 329.562 145.876 329.792 145.23C330.021 144.584 330.233 143.951 330.438 143.342C330.802 142.241 331.109 141.193 331.369 140.192C331.63 139.191 331.844 138.237 332.025 137.326C332.207 136.416 332.357 135.552 332.486 134.725C332.615 133.897 332.727 133.11 332.826 132.364C332.924 131.618 333.009 130.981 333.082 130.337C333.155 129.693 333.215 129.074 333.267 128.493C333.319 127.913 333.358 127.365 333.393 126.856C333.427 126.346 333.454 125.876 333.476 125.446L322.451 123.097C318.769 122.305 315.093 121.513 311.425 120.722C307.757 119.932 304.082 119.149 300.401 118.373C296.718 117.597 293.042 116.815 289.373 116.028Z" fill="#84A1E5" stroke="#070707" stroke-miterlimit="10" stroke-linecap="round"/>
<path d="M228.576 122.298C229.755 123.806 231.054 125.216 232.46 126.514C234.026 127.953 235.76 129.198 237.623 130.223C239.385 131.198 241.263 131.946 243.212 132.449C245.055 132.924 246.955 133.136 248.857 133.079C250.682 133.027 252.485 132.676 254.196 132.042C254.973 131.749 255.724 131.392 256.441 130.973C257.113 130.578 257.754 130.132 258.358 129.639C258.929 129.171 259.467 128.664 259.968 128.121C260.443 127.608 260.887 127.068 261.297 126.503C262.424 127.534 263.648 128.455 264.952 129.251C266.087 129.948 267.272 130.559 268.499 131.078C269.493 131.492 270.511 131.849 271.546 132.146C272.439 132.41 273.16 132.561 273.666 132.657C275.397 132.984 277.156 133.135 278.918 133.106C280.695 133.079 282.465 132.881 284.204 132.514C285.965 132.146 287.688 131.613 289.35 130.921C291.034 130.221 292.649 129.365 294.173 128.362C295.393 127.558 296.551 126.665 297.639 125.691C298.639 124.795 299.577 123.832 300.445 122.807C301.241 121.868 301.979 120.881 302.656 119.853C302.848 119.56 303.028 119.268 303.205 118.979L300.395 118.379L300.171 118.333C299.465 119.407 298.683 120.43 297.832 121.394C295.206 124.387 291.93 126.74 288.254 128.271C286.765 128.893 285.22 129.373 283.641 129.706C282.079 130.035 280.489 130.212 278.892 130.235C277.318 130.262 275.744 130.128 274.196 129.835C273.726 129.751 273.056 129.598 272.237 129.361C271.277 129.08 270.336 128.741 269.417 128.347C268.28 127.856 267.183 127.276 266.138 126.611C264.953 125.858 263.847 124.986 262.838 124.009L262.856 123.972L262.883 123.945L262.91 123.918L262.927 123.882C263.189 123.373 263.413 122.89 263.604 122.433C263.795 121.976 263.961 121.552 264.098 121.168C264.235 120.784 264.341 120.443 264.426 120.157C264.51 119.872 264.563 119.635 264.609 119.48C264.927 118.185 265.105 116.86 265.141 115.527C265.158 115.158 265.149 114.805 265.137 114.443L264.15 114.335C263.488 114.279 262.848 114.221 262.217 114.161C262.246 114.576 262.252 115.002 262.24 115.423C262.213 116.551 262.062 117.673 261.791 118.769C261.762 118.883 261.724 119.037 261.67 119.226C261.616 119.415 261.55 119.635 261.467 119.884C261.384 120.132 261.29 120.408 261.174 120.705C261.058 121.002 260.937 121.328 260.778 121.656C260.636 121.463 260.493 121.263 260.356 121.06C260.219 120.858 260.08 120.649 259.945 120.437C259.81 120.225 259.681 120.007 259.554 119.787C259.426 119.567 259.301 119.338 259.182 119.106C258.925 118.618 258.692 118.123 258.47 117.623C258.248 117.124 258.065 116.605 257.895 116.084C257.725 115.563 257.579 115.035 257.459 114.491C257.396 114.215 257.338 113.941 257.284 113.664C256.541 113.581 255.822 113.498 255.131 113.417L254.302 113.313C254.397 113.932 254.512 114.545 254.655 115.151C254.798 115.756 254.973 116.375 255.156 116.964C255.34 117.552 255.571 118.15 255.816 118.73C256.061 119.311 256.329 119.88 256.622 120.439C256.815 120.809 257.018 121.17 257.226 121.517C257.434 121.864 257.648 122.206 257.862 122.539C258.076 122.873 258.312 123.185 258.543 123.494C258.775 123.803 259.012 124.098 259.251 124.387C258.909 124.893 258.536 125.376 258.134 125.835C257.713 126.324 257.256 126.781 256.767 127.203C256.251 127.648 255.698 128.049 255.114 128.401C254.494 128.776 253.841 129.092 253.162 129.346C251.701 129.888 250.159 130.181 248.601 130.212C246.963 130.245 245.328 130.046 243.746 129.619C242.058 129.168 240.433 128.507 238.909 127.652C237.287 126.745 235.775 125.652 234.406 124.395C233.095 123.185 231.884 121.872 230.786 120.466C229.686 119.059 228.669 117.589 227.739 116.065C227.499 115.677 227.265 115.286 227.035 114.894L226.959 114.919L224.252 115.822C224.597 116.418 224.948 117.016 225.314 117.606C226.312 119.23 227.401 120.797 228.576 122.298Z" fill="#C6FCDB" stroke="black" stroke-miterlimit="10" stroke-linecap="round"/>
<path d="M227.856 147.087C227.438 145.983 226.952 144.905 226.4 143.861C225.834 142.789 225.18 141.765 224.446 140.8C223.666 139.778 222.779 138.841 221.8 138.007C220.871 137.214 219.856 136.528 218.772 135.963C217.733 135.413 216.629 134.995 215.486 134.717C214.382 134.454 213.247 134.343 212.113 134.387C211.095 134.431 210.086 134.595 209.108 134.877C208.07 135.178 207.067 135.588 206.116 136.102C205.061 136.671 204.056 137.33 203.113 138.071C202.044 138.911 201.032 139.821 200.084 140.796C199.244 141.651 198.462 142.521 197.736 143.406C197.011 144.289 196.342 145.186 195.738 146.094C195.144 146.98 194.597 147.898 194.101 148.842C193.626 149.746 193.204 150.677 192.838 151.629C192.745 151.436 192.649 151.244 192.548 151.051C192.448 150.862 192.344 150.669 192.234 150.482C192.124 150.295 192.012 150.11 191.891 149.926C191.769 149.743 191.648 149.564 191.518 149.384C191.088 148.794 190.596 148.252 190.051 147.766C189.539 147.31 188.977 146.913 188.375 146.584C187.8 146.27 187.188 146.031 186.554 145.87C185.94 145.714 185.307 145.646 184.674 145.668C183.852 145.697 183.042 145.874 182.284 146.191C181.482 146.528 180.739 146.99 180.081 147.56C179.334 148.208 178.667 148.944 178.097 149.753C177.428 150.696 176.845 151.697 176.355 152.744L176.191 153.105L177.509 157.477L177.63 157.14C178.026 156.07 178.47 155.017 178.961 153.98C179.231 153.406 179.532 152.847 179.863 152.306C180.238 151.686 180.667 151.1 181.146 150.557C181.619 150.009 182.174 149.538 182.791 149.159C183.39 148.79 184.072 148.579 184.774 148.545C185.228 148.528 185.681 148.59 186.114 148.729C186.541 148.869 186.949 149.062 187.327 149.305C187.7 149.547 188.048 149.824 188.367 150.133C188.667 150.421 188.942 150.735 189.189 151.07C189.485 151.482 189.753 151.915 189.989 152.364C190.227 152.825 190.442 153.297 190.633 153.78C190.828 154.264 191.005 154.758 191.173 155.257C191.341 155.757 191.501 156.26 191.659 156.758L192.116 158.206L192.575 159.653L193.044 161.113L193.501 162.561L193.744 161.061L193.983 159.56L194.224 158.061L194.463 156.561C194.658 155.37 194.964 154.2 195.378 153.066C195.815 151.862 196.351 150.696 196.978 149.579C197.653 148.384 198.411 147.239 199.248 146.152C200.145 144.983 201.113 143.871 202.147 142.821C202.967 141.979 203.839 141.189 204.759 140.457C205.555 139.818 206.404 139.248 207.297 138.752C208.087 138.311 208.921 137.956 209.787 137.693C210.585 137.453 211.409 137.312 212.242 137.274C213.139 137.242 214.037 137.336 214.907 137.556C215.823 137.789 216.707 138.133 217.54 138.58C218.419 139.05 219.244 139.616 219.999 140.268C220.793 140.949 221.513 141.711 222.149 142.542C222.808 143.409 223.393 144.33 223.897 145.296C224.392 146.245 224.831 147.224 225.21 148.225C225.586 149.215 225.906 150.206 226.182 151.165C226.304 151.588 226.417 152.004 226.522 152.414L228.522 151.614L229.218 151.338C229.125 150.987 229.029 150.636 228.929 150.277C228.63 149.242 228.273 148.16 227.856 147.087Z" fill="#C6FCDB" stroke="black" stroke-miterlimit="10" stroke-linecap="round"/>
<path d="M322.141 138.767C319.226 138.275 316.254 138.222 313.323 138.609C310.513 138.972 307.809 139.912 305.381 141.371C304.153 142.125 303.034 143.043 302.054 144.1C301.104 145.131 300.302 146.289 299.67 147.541C299.029 148.818 298.562 150.176 298.283 151.577C297.992 153.058 297.885 154.57 297.965 156.077C298.059 157.852 298.388 159.607 298.941 161.296C299.051 161.637 299.174 161.977 299.306 162.312C300.644 162.69 301.772 162.997 302.677 163.23C302.742 163.25 302.818 163.267 302.897 163.288C302.402 162.363 301.991 161.396 301.666 160.399C301.195 158.952 300.916 157.45 300.839 155.93C300.769 154.684 300.853 153.434 301.09 152.208C301.317 151.053 301.697 149.934 302.22 148.879C302.735 147.848 303.392 146.893 304.172 146.044C304.968 145.176 305.881 144.424 306.885 143.809C309.045 142.521 311.455 141.709 313.954 141.427C316.605 141.12 319.286 141.203 321.913 141.672C324.611 142.135 327.245 142.913 329.761 143.992C329.886 144.044 330.006 144.102 330.129 144.156L330.407 143.33C330.629 142.661 330.828 142.011 331.009 141.379C330.932 141.344 330.856 141.307 330.777 141.274C328.01 140.093 325.11 139.251 322.141 138.767Z" fill="#C6FCDB" stroke="black" stroke-miterlimit="10" stroke-linecap="round"/>
<path d="M283.12 143.269C282.626 143.232 282.132 143.341 281.7 143.584C281.268 143.827 280.918 144.191 280.692 144.632C280.537 144.93 280.445 145.257 280.422 145.593C280.385 146.086 280.495 146.58 280.737 147.011C280.979 147.443 281.343 147.794 281.783 148.02C282.223 148.246 282.72 148.338 283.212 148.283C283.704 148.229 284.169 148.031 284.549 147.714C284.807 147.498 285.018 147.232 285.172 146.933C285.327 146.634 285.419 146.306 285.444 145.971C285.493 145.306 285.277 144.649 284.844 144.143C284.41 143.638 283.794 143.324 283.13 143.27L283.12 143.269Z" fill="#C6FCDB" stroke="black" stroke-miterlimit="10" stroke-linecap="round"/>
<path d="M289.373 116.028L280.462 115.419L271.548 114.809L262.632 114.206L253.72 113.594C252.856 113.537 251.99 113.526 251.126 113.561C249.036 113.63 246.959 113.899 244.921 114.366C242.282 114.949 239.755 115.961 237.442 117.359C234.798 118.972 232.601 121.222 231.052 123.903L223.008 139.481L214.963 155.059L206.919 170.632L198.874 186.21L207.821 190.806L216.761 195.395L225.708 199.991L234.653 204.585L240.364 191.321L246.072 178.056L251.781 164.791L257.49 151.525L269.353 154.605L281.213 157.685L293.076 160.765L304.937 163.847C306.305 164.008 307.688 164.003 309.055 163.83C312.338 163.461 315.496 162.356 318.293 160.598C321.707 158.457 325.198 154.985 327.987 149.388C330.775 143.791 332.858 136.073 333.466 125.432L322.442 123.083L311.425 120.723L300.401 118.373L289.373 116.028Z" fill="#84A1E5" stroke="#070707" stroke-miterlimit="10" stroke-linecap="round"/>
<path d="M303.201 118.983C303.618 118.3 303.996 117.625 304.334 116.967C304.704 116.25 305.026 115.554 305.311 114.886C305.597 114.219 305.84 113.586 306.05 112.991C306.26 112.395 306.436 111.833 306.578 111.347C306.721 110.861 306.837 110.398 306.928 110.015C306.974 109.827 306.981 109.632 306.949 109.442C306.885 109.072 306.68 108.742 306.378 108.52C306.22 108.404 306.041 108.321 305.851 108.275C305.664 108.231 305.469 108.225 305.279 108.258C305.095 108.288 304.919 108.355 304.762 108.454C304.606 108.551 304.469 108.677 304.361 108.825C304.243 108.981 304.16 109.161 304.116 109.351C303.88 110.325 303.588 111.285 303.24 112.225C302.695 113.707 302.032 115.143 301.259 116.52C300.926 117.112 300.559 117.718 300.154 118.331L300.378 118.377L303.201 118.983Z" fill="#C6FCDB" stroke="black" stroke-miterlimit="10" stroke-linecap="round"/>
<path d="M232.464 126.518C234.03 127.957 235.764 129.202 237.627 130.227C239.387 131.2 241.264 131.947 243.212 132.449C245.055 132.924 246.955 133.136 248.857 133.079C250.682 133.027 252.485 132.676 254.196 132.042C254.973 131.749 255.724 131.391 256.441 130.973C257.113 130.578 257.754 130.132 258.358 129.639C258.929 129.171 259.467 128.663 259.969 128.121C260.443 127.608 260.887 127.068 261.297 126.503C262.424 127.534 263.648 128.455 264.952 129.251C266.087 129.948 267.272 130.559 268.499 131.077C269.493 131.492 270.511 131.849 271.546 132.146C272.439 132.41 273.161 132.561 273.666 132.657C275.397 132.984 277.156 133.135 278.918 133.106C280.695 133.079 282.465 132.881 284.204 132.514C285.966 132.146 287.688 131.613 289.35 130.921C291.034 130.221 292.649 129.365 294.173 128.362C295.393 127.558 296.551 126.665 297.639 125.691C298.639 124.795 299.577 123.832 300.445 122.807C301.241 121.868 301.979 120.881 302.656 119.853C302.848 119.56 303.028 119.268 303.205 118.979L300.395 118.379L300.171 118.333C299.465 119.407 298.683 120.43 297.832 121.394C295.206 124.387 291.93 126.739 288.254 128.271C286.765 128.893 285.22 129.373 283.641 129.706C282.079 130.035 280.489 130.212 278.893 130.235C277.318 130.262 275.744 130.128 274.196 129.835C273.726 129.751 273.056 129.598 272.237 129.361C271.277 129.08 270.336 128.741 269.417 128.346C268.28 127.856 267.183 127.276 266.138 126.611C264.953 125.858 263.847 124.986 262.838 124.009L262.856 123.972L262.883 123.945L262.91 123.918L262.927 123.882C263.189 123.372 263.413 122.89 263.604 122.433C263.795 121.976 263.961 121.552 264.098 121.168C264.235 120.784 264.341 120.443 264.426 120.157C264.511 119.872 264.563 119.635 264.609 119.48C264.927 118.185 265.105 116.86 265.141 115.527C265.141 115.141 265.153 114.767 265.124 114.387L262.642 114.219L262.227 114.19C262.254 114.603 262.258 115.023 262.248 115.438C262.221 116.566 262.07 117.688 261.799 118.784C261.77 118.898 261.731 119.052 261.677 119.241C261.623 119.43 261.558 119.65 261.475 119.899C261.392 120.148 261.297 120.424 261.182 120.721C261.066 121.018 260.944 121.344 260.786 121.671C260.644 121.479 260.501 121.278 260.364 121.075C260.227 120.873 260.088 120.665 259.953 120.452C259.818 120.24 259.689 120.022 259.562 119.803C259.434 119.583 259.309 119.353 259.189 119.122C258.933 118.634 258.699 118.138 258.478 117.639C258.256 117.139 258.073 116.62 257.903 116.1C257.733 115.579 257.587 115.05 257.467 114.506C257.417 114.29 257.373 114.072 257.328 113.855L254.366 113.654C254.449 114.161 254.545 114.667 254.663 115.166C254.813 115.787 254.98 116.391 255.164 116.979C255.369 117.569 255.579 118.165 255.824 118.746C256.069 119.326 256.337 119.895 256.63 120.454C256.823 120.825 257.025 121.185 257.234 121.533C257.442 121.88 257.656 122.221 257.87 122.555C258.084 122.888 258.32 123.201 258.551 123.509C258.782 123.818 259.02 124.113 259.259 124.402C258.917 124.908 258.544 125.392 258.142 125.851C257.721 126.34 257.264 126.797 256.775 127.218C256.259 127.664 255.706 128.064 255.122 128.416C254.502 128.791 253.849 129.107 253.17 129.361C251.709 129.903 250.167 130.196 248.609 130.227C246.971 130.261 245.336 130.061 243.754 129.635C242.066 129.183 240.441 128.522 238.917 127.668C237.294 126.761 235.783 125.667 234.414 124.41C233.638 123.698 232.898 122.946 232.198 122.159C231.781 122.721 231.397 123.307 231.046 123.913L230.632 124.713C231.216 125.324 231.827 125.936 232.464 126.518Z" fill="#C6FCDB" stroke="black" stroke-miterlimit="10" stroke-linecap="round"/>
<path d="M330.795 141.276C328.022 140.093 325.116 139.25 322.141 138.767C319.226 138.275 316.254 138.222 313.323 138.609C310.513 138.972 307.809 139.912 305.381 141.371C304.153 142.125 303.034 143.043 302.054 144.1C301.104 145.131 300.302 146.289 299.67 147.541C299.028 148.818 298.562 150.176 298.283 151.577C297.991 153.058 297.885 154.57 297.965 156.077C298.059 157.852 298.387 159.607 298.941 161.296C299.061 161.662 299.192 162.025 299.332 162.386L302.91 163.313C302.41 162.381 301.993 161.406 301.666 160.399C301.195 158.952 300.916 157.45 300.839 155.93C300.769 154.684 300.853 153.434 301.089 152.208C301.317 151.053 301.697 149.934 302.22 148.879C302.735 147.848 303.392 146.893 304.171 146.044C304.968 145.176 305.881 144.424 306.885 143.809C309.045 142.521 311.455 141.709 313.954 141.427C316.605 141.12 319.286 141.203 321.913 141.672C324.611 142.135 327.245 142.913 329.761 143.992C329.886 144.044 330.01 144.102 330.133 144.156C330.434 143.269 330.723 142.339 330.991 141.369C330.937 141.342 330.86 141.315 330.795 141.276Z" fill="#C6FCDB" stroke="black" stroke-miterlimit="10" stroke-linecap="round"/>
<path d="M239.968 182.035C239.174 181.929 238.373 181.89 237.573 181.919C236.77 181.949 235.972 182.044 235.185 182.204C234.394 182.364 233.618 182.589 232.865 182.878C233.212 181.833 233.502 180.771 233.733 179.695C233.969 178.599 234.15 177.492 234.273 176.378C234.394 175.27 234.456 174.156 234.458 173.041C234.461 171.951 234.402 170.862 234.281 169.778C234.116 168.26 233.807 166.76 233.359 165.3C232.942 163.944 232.38 162.637 231.683 161.402C231.019 160.231 230.216 159.144 229.291 158.166C227.417 156.16 225.012 154.727 222.356 154.034C220.871 153.636 219.346 153.406 217.81 153.346C217.156 153.317 216.493 153.325 215.829 153.352L214.95 155.057L214.089 156.719C215.23 156.562 216.383 156.502 217.534 156.542C218.821 156.583 220.1 156.766 221.347 157.088C223.302 157.574 225.095 158.568 226.543 159.969C227.279 160.674 227.93 161.463 228.481 162.32C229.149 163.364 229.688 164.485 230.088 165.659C230.58 167.116 230.91 168.623 231.071 170.152C231.207 171.365 231.256 172.586 231.218 173.805C231.187 175.044 231.076 176.28 230.886 177.504C230.692 178.725 230.418 179.932 230.066 181.117C229.728 182.26 229.305 183.377 228.803 184.459C228.708 184.663 228.646 184.881 228.62 185.105C228.595 185.321 228.606 185.539 228.653 185.751C228.698 185.963 228.777 186.167 228.888 186.353C229.057 186.642 229.295 186.885 229.58 187.061C229.865 187.236 230.189 187.339 230.524 187.36C230.742 187.373 230.96 187.351 231.172 187.294C231.388 187.235 231.594 187.141 231.781 187.017C232.48 186.552 233.23 186.168 234.016 185.873C234.8 185.576 235.614 185.365 236.443 185.244C237.265 185.122 238.099 185.091 238.929 185.15C239.749 185.205 240.56 185.36 241.343 185.609C241.776 185.746 242.199 185.912 242.61 186.104L243.876 183.165C243.369 182.93 242.849 182.727 242.317 182.556C241.551 182.314 240.765 182.14 239.968 182.035Z" fill="#C6FCDB" stroke="black" stroke-miterlimit="10" stroke-linecap="round"/>
<path d="M285.444 145.971C285.493 145.306 285.277 144.649 284.844 144.143C284.41 143.638 283.794 143.324 283.13 143.27C282.636 143.234 282.142 143.343 281.71 143.586C281.278 143.829 280.927 144.193 280.702 144.634C280.547 144.932 280.455 145.259 280.432 145.595C280.395 146.088 280.505 146.581 280.747 147.013C280.989 147.445 281.353 147.796 281.793 148.022C282.233 148.248 282.73 148.34 283.222 148.285C283.714 148.231 284.179 148.033 284.559 147.716C284.816 147.499 285.028 147.234 285.182 146.935C285.333 146.634 285.422 146.306 285.444 145.971Z" fill="#C6FCDB" stroke="black" stroke-miterlimit="10" stroke-linecap="round"/>
<path d="M198.874 186.191L206.394 190.043L213.906 193.902L221.422 197.761L228.934 201.62L225.604 208.095L222.284 214.558L218.963 221.019L215.642 227.484C215.461 227.836 215.18 228.128 214.834 228.322C214.488 228.516 214.093 228.604 213.698 228.575C213.429 228.554 213.166 228.48 212.926 228.355L202.379 222.938L191.827 217.52L181.279 212.103L170.729 206.683C170.368 206.498 170.06 206.225 169.833 205.888C169.606 205.551 169.469 205.163 169.433 204.758C169.41 204.485 169.435 204.21 169.508 203.946C169.766 202.974 170.147 202.039 170.641 201.163C171.237 200.094 172.043 199.157 173.011 198.407C174.203 197.516 175.599 196.939 177.073 196.729C178.749 196.477 180.801 196.558 183.275 197.177C183.77 197.301 184.27 197.402 184.776 197.478C185.279 197.552 185.785 197.6 186.294 197.622C186.801 197.643 187.309 197.636 187.815 197.601C188.323 197.565 188.828 197.498 189.327 197.4C189.88 197.295 190.424 197.149 190.955 196.965C191.504 196.776 192.033 196.534 192.535 196.241C193.046 195.944 193.516 195.582 193.933 195.163C194.373 194.726 194.745 194.225 195.034 193.676L195.997 191.803L196.957 189.933L197.92 188.06L198.874 186.191Z" fill="#DBCAF4" stroke="black" stroke-miterlimit="10" stroke-linecap="round"/>
<path d="M216.051 198.901C215.787 199.415 215.657 199.987 215.671 200.565C215.686 201.125 215.836 201.672 216.109 202.16C215.832 202.193 215.56 202.257 215.299 202.353C215.038 202.45 214.789 202.579 214.558 202.735C214.323 202.893 214.108 203.08 213.92 203.292C213.529 203.732 213.256 204.262 213.125 204.835C213.066 205.113 213.041 205.398 213.05 205.682C213.057 205.96 213.097 206.237 213.171 206.506C213.244 206.773 213.348 207.032 213.482 207.275C212.927 207.338 212.397 207.536 211.937 207.852C211.702 208.009 211.489 208.196 211.303 208.409C210.796 208.971 210.488 209.685 210.429 210.44C210.395 210.885 210.449 211.331 210.587 211.755C210.724 212.188 210.946 212.589 211.239 212.935C211.533 213.282 211.892 213.566 212.296 213.773L214.352 214.83L216.408 215.883L218.464 216.94L220.52 217.997L221.173 216.722L221.827 215.447L222.481 214.172L223.135 212.897L223.264 212.641L223.393 212.384L223.524 212.13L223.654 211.873L224.176 210.853L224.701 209.834L225.224 208.814L225.748 207.796L225.879 207.541L226.009 207.285L226.14 207.03L226.269 206.774L226.923 205.499L227.577 204.224L228.228 202.947L228.882 201.672L226.824 200.617L224.77 199.562L222.714 198.505L220.703 197.408C220.292 197.195 219.842 197.067 219.38 197.034C218.936 197.001 218.49 197.054 218.066 197.19C217.634 197.329 217.233 197.552 216.887 197.846C216.541 198.14 216.256 198.499 216.049 198.903L216.051 198.901Z" fill="#ECE7E1" stroke="black" stroke-miterlimit="10" stroke-linecap="round"/>
<path d="M216.109 202.164L218.51 203.396L220.913 204.631L223.312 205.865L225.715 207.1" stroke="black" stroke-miterlimit="10" stroke-linecap="round"/>
<path d="M213.478 207.283L215.879 208.515L218.282 209.749L220.684 210.986L223.085 212.218" stroke="black" stroke-miterlimit="10" stroke-linecap="round"/>
<path d="M185.239 203.067L185.138 201.674L185.04 200.28L184.942 198.886L184.841 197.493" stroke="black" stroke-miterlimit="10" stroke-linecap="round"/>
<path d="M191.287 202.615L191.052 201.254L190.816 199.892L190.581 198.531L190.346 197.169" stroke="black" stroke-miterlimit="10" stroke-linecap="round"/>
<path d="M189.827 193.954C190.172 193.609 190.498 193.24 190.82 192.864C191.142 192.488 191.455 192.106 191.748 191.709C192.041 191.312 192.324 190.905 192.583 190.488C192.84 190.07 193.074 189.638 193.283 189.194C193.46 188.797 193.602 188.385 193.707 187.964C193.848 187.436 193.94 186.897 193.983 186.353C194.032 185.841 193.987 185.325 193.852 184.829C193.798 184.62 193.7 184.425 193.562 184.259C193.425 184.092 193.253 183.958 193.057 183.865C192.753 183.737 192.423 183.685 192.094 183.713C191.766 183.742 191.449 183.849 191.171 184.027C190.512 184.443 189.939 184.982 189.484 185.614C188.974 186.286 188.513 186.993 188.105 187.73C187.709 188.426 187.385 189.059 187.154 189.479C186.818 190.081 186.511 190.7 186.23 191.329C185.948 191.958 185.694 192.602 185.458 193.258C185.223 193.913 185.021 194.571 184.835 195.235C184.65 195.898 184.49 196.571 184.359 197.254C184.516 196.485 184.6 195.703 184.608 194.918C184.617 194.14 184.571 193.362 184.471 192.59C184.378 191.815 184.24 191.044 184.085 190.276C183.931 189.508 183.748 188.747 183.568 187.989C183.489 187.64 183.397 187.288 183.293 186.941C183.188 186.594 183.078 186.245 182.949 185.904C182.821 185.564 182.676 185.23 182.513 184.905C182.35 184.582 182.166 184.269 181.964 183.969C181.758 183.676 181.528 183.399 181.277 183.144C180.99 182.845 180.67 182.58 180.324 182.353C180.004 182.135 179.639 181.992 179.256 181.933C179.073 181.905 178.886 181.914 178.706 181.961C178.527 182.008 178.359 182.091 178.212 182.205C177.985 182.396 177.819 182.65 177.736 182.935C177.634 183.265 177.575 183.607 177.561 183.952C177.545 184.309 177.551 184.666 177.578 185.022C177.601 185.362 177.64 185.674 177.669 185.919C177.705 186.268 177.777 186.629 177.854 186.98C177.931 187.331 178.025 187.676 178.128 188.025C178.23 188.374 178.355 188.708 178.486 189.04C178.617 189.371 178.764 189.703 178.914 190.027C179.211 190.656 179.539 191.273 179.9 191.873C180.261 192.473 180.646 193.055 181.063 193.622C181.48 194.189 181.923 194.733 182.386 195.258C182.849 195.782 183.337 196.282 183.842 196.76C184.062 196.984 184.324 197.162 184.612 197.287C184.832 197.378 185.074 197.404 185.308 197.362C185.558 197.31 185.798 197.216 186.018 197.084C186.267 196.947 186.535 196.768 186.836 196.567C187.136 196.367 187.377 196.187 187.638 195.985C187.898 195.782 188.153 195.57 188.4 195.35C188.647 195.13 188.89 194.907 189.129 194.675C189.368 194.444 189.599 194.193 189.827 193.954Z" stroke="black" stroke-miterlimit="10" stroke-linecap="round"/>
<path d="M170.344 133.76L172.745 141.859L175.142 149.957L177.539 158.056L179.939 166.156L172.97 168.218L166.004 170.282L159.036 172.343L152.069 174.407C151.811 174.484 151.539 174.509 151.271 174.48C150.749 174.421 150.27 174.161 149.936 173.755C149.766 173.546 149.639 173.304 149.562 173.045L146.195 161.674L142.829 150.304L139.466 138.929L136.098 127.558C136.02 127.295 135.988 127.02 136.004 126.746C136.018 126.479 136.076 126.216 136.175 125.969C136.379 125.463 136.753 125.044 137.232 124.784C138.112 124.303 139.049 123.933 140.021 123.685C141.206 123.382 142.44 123.319 143.649 123.502C145.114 123.747 146.494 124.357 147.662 125.274C149.016 126.312 150.363 127.851 151.624 130.069C151.875 130.513 152.149 130.945 152.442 131.361C152.735 131.778 153.051 132.175 153.385 132.559C153.72 132.941 154.076 133.303 154.451 133.645C154.828 133.987 155.225 134.306 155.641 134.599C156.099 134.925 156.58 135.218 157.08 135.475C157.594 135.74 158.133 135.954 158.689 136.115C159.257 136.278 159.843 136.368 160.434 136.383C161.056 136.395 161.675 136.313 162.272 136.138L164.289 135.541L166.307 134.943L168.322 134.347L170.344 133.76Z" fill="#DBCAF4" stroke="black" stroke-miterlimit="10" stroke-linecap="round"/>
<path d="M173.019 154.962C172.736 155.044 172.466 155.162 172.214 155.315C171.73 155.606 171.325 156.011 171.034 156.495C170.891 156.734 170.777 156.989 170.695 157.255C170.48 157.076 170.244 156.923 169.993 156.8C169.486 156.551 168.925 156.431 168.361 156.449C168.068 156.46 167.778 156.508 167.497 156.592C166.949 156.754 166.449 157.05 166.043 157.452C165.849 157.648 165.678 157.866 165.535 158.102C165.392 158.339 165.278 158.593 165.196 158.858C164.98 158.68 164.744 158.528 164.492 158.405C164.242 158.283 163.977 158.193 163.705 158.135C163.428 158.077 163.145 158.053 162.862 158.063C162.571 158.075 162.282 158.123 162.002 158.206C161.124 158.467 160.385 159.065 159.947 159.87C159.51 160.675 159.41 161.62 159.668 162.499L160.334 164.707L160.988 166.924L161.653 169.132L162.317 171.338L163.694 170.933L165.069 170.526L166.444 170.119L167.821 169.71L168.101 169.628L168.38 169.545L168.673 169.452L168.953 169.369L170.05 169.043L171.148 168.717L172.245 168.391L173.343 168.065L173.62 167.984L173.9 167.901L174.176 167.818L174.454 167.737L175.834 167.329L177.212 166.92L178.591 166.513L179.971 166.104L179.306 163.896L178.643 161.689L177.987 159.471L177.321 157.263C177.192 156.82 176.974 156.408 176.681 156.052C176.11 155.355 175.289 154.909 174.394 154.81C173.93 154.766 173.462 154.818 173.019 154.962Z" fill="#ECE7E1" stroke="black" stroke-miterlimit="10" stroke-linecap="round"/>
<path d="M170.698 157.255L171.466 159.843L172.232 162.434L172.997 165.024L173.765 167.612" stroke="black" stroke-miterlimit="10" stroke-linecap="round"/>
<path d="M165.179 158.891L165.946 161.479L166.714 164.067L167.48 166.657L168.247 169.246" stroke="black" stroke-miterlimit="10" stroke-linecap="round"/>
<path d="M148.721 135.556L149.663 134.522L150.602 133.487L151.541 132.455L152.48 131.419" stroke="black" stroke-miterlimit="10" stroke-linecap="round"/>
<path d="M153.227 139.618L154.046 138.509L154.868 137.402L155.688 136.293L156.507 135.184" stroke="black" stroke-miterlimit="10" stroke-linecap="round"/>
<path d="M158.484 132.582C158.97 132.582 159.462 132.572 159.956 132.545C160.449 132.518 160.943 132.48 161.431 132.42C161.919 132.36 162.411 132.281 162.891 132.175C163.372 132.072 163.846 131.943 164.313 131.787C164.722 131.641 165.117 131.46 165.495 131.245C165.973 130.983 166.427 130.677 166.849 130.331C167.254 130.015 167.596 129.627 167.859 129.186C167.974 129.003 168.047 128.797 168.073 128.583C168.099 128.369 168.078 128.152 168.01 127.947C167.893 127.639 167.703 127.363 167.455 127.145C167.208 126.926 166.911 126.772 166.59 126.694C165.834 126.503 165.048 126.46 164.276 126.566C163.438 126.665 162.608 126.821 161.792 127.033C161.018 127.228 160.334 127.431 159.865 127.552C159.2 127.728 158.54 127.932 157.892 128.163C157.244 128.395 156.6 128.653 155.963 128.935C155.327 129.216 154.716 129.523 154.106 129.851C153.497 130.179 152.903 130.522 152.309 130.877C152.973 130.461 153.596 129.982 154.17 129.448C154.739 128.916 155.27 128.345 155.759 127.739C156.255 127.135 156.718 126.503 157.161 125.859C157.605 125.214 158.037 124.559 158.461 123.907C158.658 123.606 158.849 123.299 159.03 122.983C159.211 122.667 159.385 122.347 159.543 122.019C159.7 121.69 159.84 121.354 159.963 121.012C160.086 120.671 160.185 120.321 160.26 119.967C160.331 119.616 160.372 119.26 160.384 118.902C160.403 118.487 160.375 118.071 160.301 117.662C160.237 117.28 160.089 116.917 159.867 116.599C159.76 116.45 159.623 116.325 159.466 116.23C159.309 116.135 159.134 116.073 158.953 116.048C158.656 116.016 158.356 116.071 158.091 116.208C157.782 116.361 157.494 116.555 157.236 116.784C156.969 117.021 156.717 117.273 156.48 117.54C156.251 117.793 156.052 118.034 155.894 118.227C155.666 118.505 155.454 118.794 155.254 119.091C155.053 119.388 154.872 119.697 154.696 120.011C154.521 120.325 154.365 120.647 154.212 120.973C154.06 121.299 153.933 121.639 153.796 121.965C153.544 122.615 153.325 123.278 153.14 123.951C152.953 124.624 152.8 125.309 152.679 126.001C152.557 126.694 152.469 127.388 152.411 128.086C152.353 128.784 152.326 129.483 152.33 130.177C152.32 130.491 152.372 130.804 152.48 131.099C152.567 131.319 152.715 131.509 152.906 131.648C153.121 131.792 153.357 131.898 153.607 131.963C153.879 132.046 154.191 132.115 154.538 132.189C154.885 132.262 155.182 132.316 155.514 132.37C155.846 132.424 156.17 132.455 156.5 132.484C156.829 132.513 157.161 132.532 157.493 132.543C157.825 132.555 158.154 132.58 158.484 132.582Z" stroke="black" stroke-miterlimit="10" stroke-linecap="round"/>
<path d="M319.263 70.7007C319.263 70.7007 319.62 70.3825 320.253 69.8656C320.885 69.3487 321.798 68.6332 322.912 67.8386C324.027 67.044 325.35 66.1722 326.791 65.3332C328.28 64.4609 329.833 63.7021 331.437 63.0632C333.479 62.251 335.705 62.0142 337.873 62.3785C339.919 62.7288 341.843 63.5914 343.466 64.8858C345.088 66.1637 346.354 67.8365 347.144 69.7441C347.969 71.7669 348.21 73.9807 347.84 76.1337C347.505 78.1041 346.862 80.0093 345.933 81.7789C345.005 83.5374 343.881 85.1859 342.585 86.6932C341.274 88.2208 339.864 89.6595 338.363 90.9999C336.874 92.3499 335.329 93.6209 333.827 94.834L329.223 98.5467L324.619 102.259L320.017 105.974L315.423 109.677C314.557 110.377 313.687 111.147 312.808 111.937C311.929 112.728 311.037 113.538 310.127 114.321C309.217 115.104 308.287 115.853 307.321 116.53C306.385 117.195 305.388 117.771 304.343 118.25C302.469 119.072 300.415 119.4 298.378 119.201C296.293 118.99 294.256 118.442 292.347 117.579C290.376 116.705 288.49 115.653 286.711 114.435C285.058 113.312 283.464 112.105 281.936 110.817L275.793 105.831L269.662 100.834L263.519 95.8485L257.388 90.8514C257.085 90.8147 256.773 90.7684 256.458 90.7163C256.144 90.6643 255.816 90.6064 255.482 90.5351C255.149 90.4637 254.819 90.3923 254.483 90.3075C254.148 90.2226 253.797 90.1339 253.444 90.0394C252.807 89.8581 252.195 89.6594 251.606 89.4434C251.012 89.2351 250.451 88.9979 249.909 88.7568C249.367 88.5157 248.854 88.2689 248.348 88.0027C247.843 87.7366 247.376 87.4743 246.925 87.2004C246.242 86.7915 245.559 86.3865 244.871 85.9911C244.182 85.5957 243.492 85.2023 242.796 84.8185C242.099 84.4347 241.399 84.0586 240.695 83.6902C239.991 83.3219 239.284 82.9612 238.57 82.6102C238.254 82.4559 237.964 82.3055 237.704 82.1608C237.444 82.0162 237.212 81.8811 237.01 81.7519C236.834 81.6407 236.666 81.5197 236.504 81.3893C236.39 81.3001 236.287 81.1971 236.198 81.0827C236.106 80.9571 236.027 80.8227 235.962 80.6815C235.912 80.5717 235.873 80.4574 235.845 80.3401C235.825 80.2628 235.811 80.1842 235.802 80.1048L235.797 80.0142C235.8 79.9235 235.81 79.8332 235.827 79.7442C235.846 79.6636 235.87 79.5844 235.899 79.507C235.926 79.4405 235.956 79.3755 235.989 79.3122C236.018 79.2582 236.049 79.2061 236.084 79.1559C236.121 79.0461 236.175 78.9427 236.244 78.8493C236.415 78.6143 236.647 78.4303 236.915 78.317C237.377 78.131 237.88 78.0711 238.373 78.1434C239.251 78.2626 240.103 78.5224 240.898 78.9129C240.898 78.9129 241.255 79.0769 241.785 79.2717C242.414 79.5054 243.063 79.6841 243.723 79.8059C244.425 79.9255 245.125 79.9467 245.633 79.721C246.14 79.4954 246.468 79.0364 246.429 78.2032C246.42 78.006 246.391 77.8102 246.342 77.6188C246.294 77.4288 246.229 77.2435 246.148 77.0653C246.066 76.8851 245.969 76.7121 245.858 76.5484C245.746 76.3854 245.622 76.2313 245.486 76.0874L243.692 74.1858L241.899 72.288L240.107 70.3883L238.312 68.4885C238.279 68.4557 238.24 68.4172 238.198 68.3747C238.155 68.3323 238.111 68.2879 238.063 68.2397C238.014 68.1915 237.962 68.1394 237.906 68.0835C237.851 68.0276 237.793 67.9697 237.733 67.9099C237.527 67.6843 237.336 67.474 237.166 67.2735C237.007 67.0924 236.858 66.9017 236.722 66.7026C236.602 66.5327 236.504 66.3488 236.429 66.1548C236.358 65.976 236.32 65.7859 236.315 65.5936C236.312 65.5137 236.316 65.4337 236.327 65.3544C236.344 65.23 236.374 65.1078 236.418 64.9899C236.475 64.826 236.551 64.6694 236.645 64.5232C236.769 64.3305 236.914 64.1515 237.075 63.9889C236.699 63.7027 236.358 63.3732 236.059 63.0073C235.796 62.6853 235.579 62.3291 235.413 61.9484C235.267 61.623 235.179 61.2743 235.154 60.9185C235.132 60.6005 235.186 60.2817 235.312 59.9889C235.343 59.9204 235.379 59.8541 235.419 59.7903C235.465 59.7107 235.519 59.6352 235.579 59.5646C235.657 59.4731 235.742 59.388 235.833 59.31C235.946 59.216 236.066 59.1308 236.192 59.0554C236.105 58.8817 236.048 58.6946 236.024 58.5019C236.005 58.3124 236.016 58.1212 236.055 57.9349C236.134 57.5577 236.338 57.2181 236.634 56.9705C236.786 56.8452 236.959 56.7478 237.145 56.6832C237.511 56.5483 237.912 56.5415 238.283 56.6639C238.471 56.7261 238.647 56.8201 238.803 56.9416L239.235 57.3736L239.667 57.8057L240.097 58.2357L240.529 58.6678C240.584 58.5706 240.651 58.4806 240.728 58.3997C240.903 58.2071 241.12 58.0574 241.363 57.9619C241.722 57.8339 242.112 57.8198 242.479 57.9214C243.093 58.094 243.661 58.3988 244.144 58.8143C244.477 59.0786 244.811 59.3428 245.141 59.607C245.471 59.8713 245.806 60.1374 246.14 60.4016C246.474 60.6659 246.809 60.9282 247.145 61.1866C247.48 61.445 247.82 61.7035 248.159 61.9581L251.706 64.475L255.17 67.0555L258.636 69.6341L262.1 72.2147C262.645 72.6216 263.195 73.017 263.754 73.4027C264.314 73.7885 264.877 74.1665 265.448 74.5329C266.019 74.8994 266.599 75.2562 267.182 75.6033C267.764 75.9505 268.354 76.2861 268.956 76.6063L275.77 80.3344L282.584 84.0625L289.398 87.7906L296.212 91.5187L301.977 86.3132L307.743 81.1058L313.508 75.9004L319.263 70.7007Z" fill="#F2B3C1" stroke="black" stroke-miterlimit="10" stroke-linecap="round"/>
<path d="M240.61 58.6062C241.228 59.1848 241.847 59.7615 242.466 60.342C243.085 60.9225 243.702 61.4973 244.321 62.0778C244.94 62.6583 245.557 63.2331 246.177 63.8136C246.796 64.3941 247.413 64.9689 248.034 65.5475" stroke="black" stroke-miterlimit="10" stroke-linecap="round"/>
<path d="M236.242 59.0132C237.061 59.7551 237.881 60.497 238.703 61.2389C239.525 61.9808 240.345 62.7227 241.164 63.4645L243.623 65.6921C244.446 66.4327 245.266 67.1746 246.084 67.9178" stroke="black" stroke-miterlimit="10" stroke-linecap="round"/>
<path d="M237.33 64.1201C237.912 64.6486 238.493 65.1764 239.071 65.7036C239.65 66.2307 240.231 66.7585 240.813 67.287C241.394 67.8135 241.976 68.342 242.555 68.8704C243.133 69.3989 243.718 69.9254 244.296 70.4539" stroke="black" stroke-miterlimit="10" stroke-linecap="round"/>
<path d="M316.891 30.9973C316.727 32.6292 316.791 34.2761 317.082 35.8903C317.351 37.4103 317.839 38.8836 318.528 40.2645C319.189 41.5789 320.054 42.7805 321.09 43.8248C322.099 44.8445 323.282 45.6771 324.583 46.2839C325.568 46.7411 326.613 47.0598 327.686 47.2308C328.618 47.3794 329.564 47.4279 330.507 47.3755C331.276 47.3343 332.04 47.2343 332.793 47.0765C333.431 46.9435 333.946 46.7872 334.282 46.6831L334.334 46.2453L334.388 45.8557L334.43 45.5124L334.467 45.2173L334.527 44.7216L334.581 44.2472L334.617 43.8981L334.633 43.7592L334.754 43.7805L335.036 43.8345C335.142 43.8557 335.254 43.8788 335.356 43.9L335.576 43.9463C335.816 44.0029 336.046 44.0932 336.261 44.2144C336.454 44.3246 336.638 44.4525 336.808 44.5963C336.934 44.7097 337.054 44.8294 337.167 44.955C337.26 45.0476 337.319 45.1074 337.319 45.1305C337.584 45.4714 337.77 45.8666 337.863 46.2877C337.945 46.6585 337.971 47.0394 337.94 47.4179C337.918 47.7175 337.869 48.0144 337.794 48.3051C337.757 48.4489 337.712 48.5905 337.659 48.7294C337.561 48.9798 337.437 49.2196 337.29 49.4449C337.162 49.6413 337.016 49.8265 336.857 49.9985C336.723 50.1421 336.581 50.2767 336.43 50.4016C336.297 50.5115 336.176 50.5983 336.081 50.6619C335.987 50.7256 335.911 50.7661 335.807 50.8239C335.689 50.8875 335.567 50.9448 335.443 50.9956C335.295 51.0559 335.145 51.1087 334.992 51.1537C334.817 51.2025 334.639 51.2399 334.459 51.2656C334.308 51.2874 334.156 51.3003 334.004 51.3042C333.87 51.3058 333.736 51.3007 333.603 51.2887C333.478 51.2791 333.36 51.2656 333.256 51.2502C333.152 51.2347 333.055 51.2116 332.974 51.1923C332.856 51.4372 332.718 51.7073 332.573 51.9792C332.428 52.2511 332.249 52.5501 332.054 52.8529C331.859 53.1557 331.647 53.4681 331.408 53.7883C331.169 54.1084 330.901 54.4382 330.621 54.7565C330.291 55.1326 329.96 55.472 329.63 55.7825C329.3 56.093 328.976 56.3746 328.66 56.6254C328.343 56.8761 328.037 57.1017 327.747 57.2985C327.458 57.4952 327.186 57.6707 326.934 57.8192C327.371 57.8603 327.832 57.9131 328.318 57.9773C328.802 58.0448 329.308 58.1259 329.832 58.2261C330.357 58.3264 330.903 58.4402 331.462 58.5791C332.021 58.718 332.602 58.878 333.194 59.0613C333.973 59.3043 334.708 59.5685 335.404 59.8481C336.1 60.1278 336.754 60.4267 337.366 60.7103C337.977 60.9938 338.548 61.3101 339.073 61.6071C339.597 61.9041 340.085 62.1992 340.517 62.4769C340.868 61.8906 341.258 61.1847 341.647 60.3708C342.088 59.4709 342.476 58.5454 342.806 57.5993C343.182 56.5043 343.479 55.3842 343.697 54.2473C343.947 52.9613 344.09 51.657 344.126 50.3476C344.141 49.8075 344.166 48.9223 344.106 47.8094C344.04 46.4918 343.866 45.1818 343.588 43.8923C343.246 42.3035 342.717 40.7607 342.012 39.2963C341.199 37.614 340.126 36.0707 338.831 34.7235C338.693 34.5846 338.446 34.3377 338.11 34.0253C337.775 33.7128 337.323 33.3348 336.783 32.926C335.435 31.9109 333.962 31.0741 332.399 30.436C332.037 30.2895 331.449 30.0638 330.683 29.8382C329.759 29.5654 328.818 29.3572 327.865 29.2152C326.657 29.0391 325.434 28.979 324.214 29.0358C322.79 29.0966 321.379 29.3317 320.012 29.7359C319.672 29.8362 319.352 29.9404 319.047 30.0484C318.743 30.1564 318.463 30.2702 318.21 30.3685C317.958 30.4669 317.705 30.5884 317.493 30.7003C317.281 30.8121 317.061 30.897 316.891 30.9973Z" fill="#D87D61" stroke="black" stroke-miterlimit="10" stroke-linecap="round"/>
<path d="M240.34 21.3406C240.877 21.599 241.43 21.8832 241.999 22.193C242.564 22.5036 243.145 22.8372 243.735 23.1998C244.325 23.5624 244.917 23.9462 245.53 24.3744C246.144 24.8025 246.747 25.2442 247.363 25.7283C247.588 25.907 247.81 26.0864 248.028 26.2664C248.24 26.44 248.45 26.6155 248.657 26.7948C248.863 26.9742 249.07 27.1536 249.272 27.3368C249.475 27.52 249.664 27.6936 249.853 27.871" stroke="black" stroke-miterlimit="10" stroke-linecap="round"/>
<path d="M241.251 18.3433C241.853 18.6596 242.472 19.0048 243.1 19.3751C243.729 19.7454 244.375 20.1446 245.027 20.5689C245.679 20.9932 246.343 21.4523 247.008 21.9402C247.673 22.4282 248.346 22.9431 249.021 23.4947C249.264 23.6953 249.504 23.892 249.737 24.0907C249.97 24.2893 250.2 24.4918 250.424 24.6886C250.647 24.8853 250.869 25.0878 251.085 25.2845C251.301 25.4812 251.511 25.6799 251.716 25.8766" stroke="black" stroke-miterlimit="10" stroke-linecap="round"/>
<path d="M245.806 17.9229C246.258 18.225 246.713 18.5407 247.174 18.8698C247.627 19.1881 248.096 19.5371 248.572 19.8824C249.048 20.2276 249.509 20.6075 249.982 20.9914C250.454 21.3752 250.931 21.7744 251.409 22.1871C251.585 22.3395 251.758 22.4938 251.932 22.6481C252.105 22.8024 252.275 22.9528 252.443 23.1052C252.611 23.2575 252.776 23.4118 252.94 23.5642C253.104 23.7166 253.255 23.8786 253.424 24.0213" stroke="black" stroke-miterlimit="10" stroke-linecap="round"/>
<path d="M300.297 93.6788L299.273 93.1407L298.249 92.6026L297.226 92.0664L296.202 91.5283" stroke="black" stroke-miterlimit="10" stroke-linecap="round"/>
<path d="M169.512 203.942C169.44 204.206 169.416 204.48 169.439 204.752C169.485 205.289 169.71 205.795 170.079 206.187C170.269 206.39 170.492 206.558 170.739 206.685L181.289 212.104L191.827 217.52L202.375 222.942L212.923 228.359C213.163 228.483 213.425 228.558 213.694 228.579C214.09 228.609 214.485 228.521 214.831 228.327C215.177 228.133 215.458 227.841 215.638 227.488L215.821 227.135L216.003 226.78L216.184 226.425L216.365 226.07L204.797 220.126L193.231 214.176L181.659 208.232L170.089 202.286C170.025 202.434 169.966 202.579 169.91 202.723C169.854 202.868 169.805 203.005 169.757 203.146C169.709 203.287 169.655 203.429 169.624 203.553L169.512 203.942Z" fill="#F6991A" stroke="black" stroke-miterlimit="10" stroke-linecap="round"/>
<path d="M137.228 124.788C136.749 125.048 136.375 125.467 136.171 125.972C136.072 126.22 136.014 126.483 136 126.75C135.984 127.024 136.016 127.298 136.094 127.562L139.466 138.929L142.833 150.301L146.199 161.67L149.562 173.045C149.639 173.304 149.766 173.546 149.936 173.755C150.27 174.161 150.749 174.421 151.271 174.48C151.539 174.509 151.811 174.484 152.069 174.407L152.453 174.293L152.837 174.179L153.221 174.066L153.607 173.954C152.368 169.792 151.134 165.635 149.904 161.483L146.201 149.012L142.488 136.551C141.25 132.389 140.015 128.232 138.785 124.08C138.638 124.134 138.503 124.185 138.357 124.25L137.95 124.43L137.572 124.611L137.228 124.788Z" fill="#F6991A" stroke="black" stroke-miterlimit="10" stroke-linecap="round"/>
</g>
</g>
<defs>
<linearGradient id="paint0_linear_484_6196" x1="0" y1="0" x2="145.034" y2="338.524" gradientUnits="userSpaceOnUse">
<stop stop-color="#A5C3FF"/>
<stop offset="1" stop-color="#DBCAF4"/>
</linearGradient>
<linearGradient id="paint1_linear_484_6196" x1="0" y1="0" x2="145.034" y2="338.524" gradientUnits="userSpaceOnUse">
<stop stop-color="#FFD0A5"/>
<stop offset="1" stop-color="#D0F4CA"/>
</linearGradient>
<linearGradient id="paint2_linear_484_6196" x1="248.41" y1="233.667" x2="277.388" y2="204.689" gradientUnits="userSpaceOnUse">
<stop offset="0.2" stop-color="#FEC2D9"/>
<stop offset="0.54" stop-color="#E3DEDA"/>
<stop offset="0.86" stop-color="#C6FCDB"/>
</linearGradient>
<linearGradient id="paint3_linear_484_6196" x1="293.354" y1="38.496" x2="284.65" y2="6.01538" gradientUnits="userSpaceOnUse">
<stop offset="0.35" stop-color="#FEC2D9"/>
<stop offset="0.67" stop-color="#E3DEDA"/>
<stop offset="0.97" stop-color="#C6FCDB"/>
</linearGradient>
<linearGradient id="paint4_linear_484_6196" x1="207.839" y1="79.2658" x2="207.841" y2="50.9319" gradientUnits="userSpaceOnUse">
<stop offset="0.22" stop-color="#A4C2FF"/>
<stop offset="0.46" stop-color="#B5DEED"/>
<stop offset="0.68" stop-color="#C6FCDB"/>
</linearGradient>
<linearGradient id="paint5_linear_484_6196" x1="141.946" y1="78.643" x2="181.952" y2="89.3644" gradientUnits="userSpaceOnUse">
<stop offset="0.15" stop-color="#FEC2D9"/>
<stop offset="0.23" stop-color="#FDBCBD"/>
<stop offset="0.41" stop-color="#FAAC74"/>
<stop offset="0.6" stop-color="#F6991A"/>
<stop offset="1" stop-color="#F6C34C"/>
</linearGradient>
<linearGradient id="paint6_linear_484_6196" x1="264.495" y1="173.871" x2="297.778" y2="182.787" gradientUnits="userSpaceOnUse">
<stop offset="0.12" stop-color="#FEC2D9"/>
<stop offset="0.71" stop-color="#A4C2FF"/>
</linearGradient>
<linearGradient id="paint7_linear_484_6196" x1="263.716" y1="-14.1121" x2="286.297" y2="-8.06384" gradientUnits="userSpaceOnUse">
<stop offset="0.12" stop-color="#FEC2D9"/>
<stop offset="0.71" stop-color="#A4C2FF"/>
</linearGradient>
<clipPath id="clip0_484_6196">
<rect width="375" height="240" fill="white"/>
</clipPath>
<clipPath id="clip1_484_6196">
<rect width="272.754" height="272.754" fill="white" transform="translate(61 119.866) rotate(-45)"/>
</clipPath>
</defs>
</svg>
