<svg width="375" height="240" viewBox="0 0 375 240" fill="none" xmlns="http://www.w3.org/2000/svg">
<g clip-path="url(#clip0_484_6962)">
<rect width="375" height="240" fill="url(#paint0_linear_484_6962)"/>
<path d="M335.57 182.289H179.06V86.5097C179.06 65.7548 187.304 45.85 201.98 31.1739C216.656 16.4978 236.56 8.25257 257.315 8.25195C267.592 8.25195 277.768 10.2762 287.263 14.209C296.757 18.1419 305.384 23.9063 312.651 31.1732C319.917 38.4402 325.682 47.0673 329.614 56.5619C333.547 66.0566 335.571 76.2328 335.57 86.5097V182.289Z" fill="url(#paint1_linear_484_6962)" stroke="black" stroke-width="0.5" stroke-miterlimit="10" stroke-linecap="round"/>
<path d="M183.433 185.183L207.318 143.159L231.203 101.123C232.478 99.1104 233.921 97.2086 235.516 95.4382C237.126 93.6544 238.891 92.017 240.791 90.5452C244.789 87.4439 250.111 84.4872 256.281 83.886C262.45 83.2849 269.466 85.0837 276.85 91.4912C278.556 92.9757 280.143 94.5923 281.596 96.3259C283.038 98.0486 284.35 99.8757 285.522 101.792L308.356 143.499L331.19 185.206H183.433V185.183Z" fill="#DBCAF4" stroke="black" stroke-width="0.5" stroke-miterlimit="10" stroke-linecap="round"/>
<path d="M183.433 185.183C193.946 176.041 204.461 166.903 214.977 157.768C225.493 148.633 236.002 139.492 246.504 130.344C254.519 123.354 264.328 112.098 275.133 103.169C285.937 94.2406 297.734 87.6467 309.738 89.9977C317.147 91.4493 322.378 95.4732 325.815 99.2874C327.999 101.679 329.811 104.386 331.19 107.317L331.206 130.85L331.223 154.383L331.225 169.775L331.209 185.183H183.433Z" fill="#84A1E5" stroke="#070707" stroke-width="0.5" stroke-miterlimit="10" stroke-linecap="round"/>
<path d="M331.225 185.183C320.717 176.043 310.204 166.905 299.688 157.768C289.172 148.631 278.663 139.49 268.161 130.344C260.16 123.354 250.339 112.086 239.532 103.157C228.726 94.2289 216.931 87.635 204.927 89.986C197.518 91.4376 192.287 95.4615 188.85 99.2757C186.664 101.666 184.852 104.373 183.475 107.305L183.459 130.838L183.44 154.371L183.459 169.782L183.475 185.19H331.225V185.183Z" fill="#84A1E5" stroke="#070707" stroke-width="0.5" stroke-miterlimit="10" stroke-linecap="round"/>
<path d="M219.665 81.1087C220.03 81.6493 220.457 82.1458 220.937 82.5882C221.277 82.9013 221.643 83.1843 222.032 83.434C222.565 83.7745 223.14 84.0454 223.742 84.2402C224.507 84.5005 225.324 84.5724 226.123 84.4499C226.444 84.395 226.742 84.2485 226.981 84.0282C227.209 83.8184 227.366 83.5421 227.428 83.2383C227.482 82.9589 227.45 82.6699 227.337 82.4088C227.228 82.1468 227.053 81.9174 226.829 81.7424C226.583 81.5658 226.3 81.4464 226.002 81.3929C225.706 81.3277 225.401 81.2857 225.114 81.1925C224.491 80.9895 223.908 80.6797 223.39 80.2768C222.871 79.8753 222.425 79.3874 222.071 78.8346L221.838 78.4641L221.605 78.0913L220.638 79.6012L219.665 81.1087Z" fill="#040400" stroke="#040400" stroke-width="0.5" stroke-miterlimit="10"/>
<path d="M206.323 83.8838C206.215 84.368 206.15 84.8608 206.13 85.3564C206.065 86.9059 206.445 88.4416 207.222 89.7834C207.499 90.2616 207.823 90.7111 208.189 91.1254C208.582 91.6319 209.146 91.9768 209.776 92.0947C209.997 92.1468 210.227 92.1456 210.447 92.0913C210.668 92.037 210.872 91.9312 211.044 91.7825C211.159 91.6513 211.245 91.497 211.296 91.3298C211.347 91.1627 211.362 90.9865 211.339 90.8132C211.302 90.4548 211.185 90.1092 210.997 89.802C210.906 89.6607 210.801 89.5295 210.682 89.4106C210.566 89.2917 210.449 89.1776 210.324 89.0564C210.173 88.8996 210.035 88.7322 209.909 88.5554C209.782 88.3785 209.67 88.1923 209.571 87.9986C209.15 87.1466 208.998 86.1873 209.133 85.2468C209.199 84.7132 209.338 84.1912 209.545 83.6951L207.935 83.7883L206.323 83.8838Z" fill="#040400" stroke="#040400" stroke-width="0.5" stroke-miterlimit="10"/>
<path d="M215.559 117.075H214.601C214.601 115.343 214.26 113.628 213.597 112.028C212.935 110.428 211.963 108.975 210.739 107.75C209.514 106.526 208.06 105.555 206.46 104.892C204.86 104.23 203.145 103.889 201.413 103.889C200.233 103.885 199.057 104.042 197.918 104.355C197.937 104.152 197.951 103.947 197.96 103.742C197.97 103.537 197.974 103.332 197.974 103.123C197.974 99.7885 196.71 96.5786 194.438 94.1385C192.166 91.6985 189.055 90.2095 185.729 89.9713C182.404 89.733 179.111 90.763 176.515 92.8542C173.918 94.9454 172.21 97.9424 171.734 101.242C171.529 101.224 171.319 101.207 171.109 101.198C170.9 101.189 170.69 101.182 170.478 101.182C166.981 101.182 163.627 102.572 161.154 105.045C158.681 107.518 157.291 110.872 157.29 114.369C157.291 114.829 157.315 115.287 157.362 115.744C157.409 116.192 157.478 116.636 157.57 117.077C155.518 117.151 153.576 118.018 152.151 119.495C150.726 120.973 149.931 122.946 149.932 124.999C149.932 127.1 150.767 129.115 152.252 130.601C153.738 132.086 155.753 132.921 157.854 132.921H215.559C217.66 132.921 219.675 132.086 221.161 130.601C222.646 129.115 223.481 127.1 223.481 124.999C223.481 122.898 222.646 120.883 221.161 119.397C219.675 117.912 217.66 117.077 215.559 117.077V117.075Z" fill="#EAF0FA" stroke="black" stroke-width="0.5" stroke-miterlimit="10" stroke-linecap="round"/>
<path d="M331.197 194.503H257.315H183.433V173.906V153.306H257.315H331.197V173.906V194.503Z" fill="#EAF0FA" stroke="black" stroke-width="0.5" stroke-miterlimit="10" stroke-linecap="round"/>
<path d="M318.254 19.8089C318.242 19.273 318.219 18.7347 318.172 18.2012C318.13 17.6698 318.061 17.141 317.965 16.6168C317.766 15.5338 317.462 14.4726 317.059 13.448C316.659 12.4214 316.139 11.4461 315.509 10.5425C314.311 8.73236 312.767 7.1765 310.966 5.96401C309.167 4.74788 307.139 3.91072 305.006 3.50353C304.519 3.41188 304.029 3.34276 303.533 3.29616C303.038 3.24956 302.542 3.22704 302.046 3.22859C299.906 3.2298 297.787 3.66013 295.816 4.49414C293.845 5.32816 292.06 6.54894 290.569 8.08431C287.508 11.219 285.8 15.4301 285.813 19.8112C285.813 20.2989 285.834 20.7805 285.874 21.2558C285.916 21.7218 285.974 22.2018 286.053 22.6538H285.121C283.258 22.653 281.47 23.3912 280.149 24.7065C279.494 25.3513 278.977 26.123 278.631 26.9744C278.284 27.8257 278.115 28.7388 278.134 29.6578C278.171 31.4533 278.91 33.1629 280.193 34.4199C281.475 35.6769 283.2 36.3813 284.996 36.3822H307.885C310.213 36.3598 312.465 35.5501 314.274 34.0848C316.109 32.6476 317.371 30.6026 317.832 28.318C318.012 27.347 318.132 26.3657 318.191 25.3799C318.254 24.3966 318.27 23.4064 318.263 22.4208V21.116C318.268 20.6896 318.263 20.2492 318.254 19.8089Z" fill="#EAF0FA" stroke="black" stroke-width="0.5" stroke-miterlimit="10" stroke-linecap="round"/>
<path d="M360.723 113.226C360.704 112.443 360.669 111.66 360.604 110.896C360.539 110.131 360.443 109.348 360.303 108.589C360.011 107.013 359.569 105.469 358.982 103.978C358.4 102.484 357.643 101.065 356.727 99.7489C354.983 97.1071 352.735 94.8354 350.112 93.0641C347.494 91.2947 344.544 90.0762 341.44 89.4829C340.728 89.3493 340.013 89.2499 339.294 89.1847C338.576 89.1171 337.854 89.0845 337.132 89.0845C334.015 89.0856 330.931 89.7118 328.061 90.9261C325.191 92.1403 322.594 93.9179 320.423 96.1537C315.968 100.716 313.483 106.845 313.503 113.221C313.503 113.929 313.533 114.628 313.594 115.318C313.655 116.008 313.742 116.692 313.855 117.371H312.504C309.791 117.37 307.189 118.444 305.267 120.358C304.313 121.298 303.561 122.424 303.056 123.665C302.552 124.906 302.306 126.237 302.333 127.576C302.387 130.19 303.463 132.678 305.33 134.508C307.197 136.337 309.708 137.362 312.322 137.362H345.641C349.029 137.329 352.307 136.151 354.94 134.019C357.552 131.922 359.479 128.993 360.119 125.631C360.381 124.218 360.554 122.791 360.639 121.357C360.73 119.922 360.753 118.482 360.746 117.049C360.746 116.42 360.746 115.784 360.746 115.148C360.746 114.512 360.737 113.866 360.723 113.226Z" fill="#EAF0FA" stroke="black" stroke-width="0.5" stroke-miterlimit="10" stroke-linecap="round"/>
<path d="M183.433 225.772H179.06H174.687V168.908V112.047H179.06H183.433V168.908V225.772Z" fill="#F6991A" stroke="black" stroke-width="0.5" stroke-miterlimit="10" stroke-linecap="round"/>
<path d="M184.074 107.044C184.073 108.203 183.671 109.327 182.935 110.223C182.199 111.119 181.175 111.732 180.038 111.958C178.901 112.183 177.721 112.008 176.698 111.461C175.676 110.914 174.875 110.03 174.431 108.958C173.988 107.887 173.93 106.695 174.266 105.586C174.603 104.476 175.314 103.518 176.278 102.874C177.242 102.23 178.4 101.94 179.554 102.054C180.708 102.168 181.786 102.678 182.606 103.498C183.072 103.963 183.442 104.516 183.694 105.124C183.946 105.733 184.075 106.385 184.074 107.044Z" fill="#F6991A" stroke="black" stroke-width="0.5" stroke-miterlimit="10" stroke-linecap="round"/>
<path d="M339.944 225.772H335.571H331.197V168.908V112.047H335.571H339.944V168.908V225.772Z" fill="#F6991A" stroke="black" stroke-width="0.5" stroke-miterlimit="10" stroke-linecap="round"/>
<path d="M340.585 107.044C340.584 108.203 340.182 109.327 339.446 110.223C338.71 111.119 337.686 111.732 336.549 111.958C335.412 112.183 334.231 112.008 333.209 111.461C332.187 110.914 331.385 110.03 330.942 108.958C330.499 107.887 330.44 106.695 330.777 105.586C331.114 104.476 331.825 103.518 332.789 102.874C333.753 102.23 334.911 101.94 336.064 102.054C337.218 102.168 338.297 102.678 339.117 103.498C339.583 103.963 339.953 104.516 340.205 105.124C340.457 105.733 340.586 106.385 340.585 107.044Z" fill="#F6991A" stroke="black" stroke-width="0.5" stroke-miterlimit="10" stroke-linecap="round"/>
<path d="M253.694 154.709C254.162 147.156 255.199 139.649 256.798 132.252C258.114 126.152 259.804 120.139 261.858 114.246C259.2 113.992 256.527 113.747 253.866 113.666C251.215 113.559 248.56 113.691 245.933 114.06C244.507 114.24 243.129 114.687 241.869 115.378C240.623 116.099 239.586 117.132 238.859 118.375C238.15 119.606 237.592 120.918 237.198 122.282C236.771 123.659 236.443 125.078 236.107 126.402C235.748 127.821 235.429 129.249 235.133 130.682C234.837 132.115 234.562 133.555 234.294 134.992C233.625 138.565 233.094 142.156 232.701 145.766C232.308 149.376 232.041 152.997 231.902 156.629C231.72 161.366 231.75 166.104 231.992 170.842C232.235 175.579 232.677 180.298 233.32 184.997C233.805 188.538 234.403 192.063 235.115 195.572C235.826 199.081 236.641 202.563 237.559 206.018C237.947 207.458 238.771 208.742 239.917 209.697C241.056 210.659 242.47 211.235 243.957 211.344C246.783 211.54 249.621 211.605 252.466 211.605C255.311 211.605 258.161 211.533 261.008 211.461C258.392 203.463 256.436 195.265 255.157 186.949C253.516 176.286 253.025 165.477 253.694 154.709Z" fill="#EAF0FA" stroke="black" stroke-width="0.5" stroke-miterlimit="10" stroke-linecap="round"/>
<path d="M331.225 176.42H331.209H331.192V176.478L331.209 176.45L331.225 176.42Z" fill="#84A1E5" stroke="#070707" stroke-width="0.5" stroke-miterlimit="10" stroke-linecap="round"/>
<path d="M299.537 182.289L309.591 188.813L319.645 195.337L325.419 185.894L331.199 176.478V176.401L321.413 170.043L311.627 163.686L305.595 172.983L299.537 182.289Z" fill="#F2B3C1" stroke="black" stroke-width="0.5" stroke-miterlimit="10" stroke-linecap="round"/>
<path d="M292.235 151.081L286.177 160.373L280.119 169.663L289.842 175.982L299.537 182.289L305.595 172.983L311.653 163.684L301.937 157.372L292.235 151.081Z" fill="#FC762B" stroke="#070707" stroke-width="0.5" stroke-miterlimit="10" stroke-linecap="round"/>
<path d="M311.639 163.684L321.425 170.04L331.211 176.399V148.877L327.656 146.703L324.1 144.531L317.916 154.045L311.639 163.684Z" fill="#FC762B" stroke="#070707" stroke-width="0.5" stroke-miterlimit="10" stroke-linecap="round"/>
<path d="M331.199 148.877V137.693C331.173 137.404 331.082 137.124 330.934 136.875C330.789 136.595 330.614 136.325 330.5 136.125C330.43 135.999 330.353 135.873 330.267 135.747C330.181 135.621 330.111 135.5 330.034 135.379L327.075 139.932L324.081 144.536L327.637 146.708L331.199 148.877Z" fill="#F2B3C1" stroke="black" stroke-width="0.5" stroke-miterlimit="10" stroke-linecap="round"/>
<path d="M304.374 132.478L294.211 126.264L284.047 120.052L278.194 129.095L272.344 138.138L282.295 144.604L292.235 151.081L298.305 141.787L304.374 132.478Z" fill="#FC762B" stroke="#070707" stroke-width="0.5" stroke-miterlimit="10" stroke-linecap="round"/>
<path d="M267.353 189.174L277.094 195.507L286.836 201.838L293.153 192.122L299.537 182.289L289.816 175.97L280.1 169.651C277.977 172.913 275.852 176.167 273.727 179.414L267.353 189.174Z" fill="#F2B3C1" stroke="black" stroke-width="0.5" stroke-miterlimit="10" stroke-linecap="round"/>
<path d="M272.343 138.138L266.313 147.458L260.286 156.778L270.193 163.218L280.1 169.658L286.158 160.368L292.216 151.076L282.295 144.604L272.343 138.138Z" fill="#F2B3C1" stroke="black" stroke-width="0.5" stroke-miterlimit="10" stroke-linecap="round"/>
<path d="M311.639 163.684L317.904 154.045L324.088 144.531L314.232 138.499L304.374 132.474L298.316 141.77L292.235 151.081L301.937 157.372L311.639 163.684Z" fill="#F2B3C1" stroke="black" stroke-width="0.5" stroke-miterlimit="10" stroke-linecap="round"/>
<path d="M324.088 144.531L327.082 139.927L330.041 135.374C329.646 134.777 329.212 134.206 328.741 133.667C328.275 133.126 327.772 132.611 327.257 132.119C324.918 129.943 322.289 128.101 319.444 126.646C316.601 125.193 313.665 123.927 310.656 122.858C309.609 124.461 308.562 126.065 307.515 127.669L304.374 132.478L314.232 138.499L324.088 144.531Z" fill="#FC762B" stroke="#070707" stroke-width="0.5" stroke-miterlimit="10" stroke-linecap="round"/>
<path d="M253.843 152.584C253.815 152.936 253.79 153.283 253.764 153.642C253.738 154 253.715 154.341 253.694 154.709C253.559 156.883 253.472 159.025 253.433 161.133C253.394 163.24 253.398 165.311 253.445 167.344C254.583 165.583 255.724 163.821 256.865 162.058C258.007 160.294 259.147 158.532 260.286 156.771L257.063 154.674L253.843 152.584Z" fill="#F2B3C1" stroke="black" stroke-width="0.5" stroke-miterlimit="10" stroke-linecap="round"/>
<path d="M267.353 189.174L262.907 195.985C261.425 198.257 259.942 200.531 258.459 202.807C258.871 204.36 259.291 205.864 259.72 207.318C260.148 208.772 260.579 210.156 261.013 211.472C262.62 211.43 264.226 211.388 265.829 211.356C267.432 211.323 269.033 211.3 270.631 211.297H280.697L283.749 206.6L286.836 201.852L277.094 195.521L267.353 189.174Z" fill="#FC762B" stroke="#070707" stroke-width="0.5" stroke-miterlimit="10" stroke-linecap="round"/>
<path d="M280.697 211.283H291.026H301.357L294.097 206.558L286.836 201.838L283.749 206.586L280.697 211.283Z" fill="#F2B3C1" stroke="black" stroke-width="0.5" stroke-miterlimit="10" stroke-linecap="round"/>
<path d="M299.537 182.289L293.146 192.122L286.829 201.838L294.089 206.558L301.35 211.277H309.917L314.782 203.32L319.652 195.351L309.598 188.827L299.537 182.289Z" fill="#FC762B" stroke="#070707" stroke-width="0.5" stroke-miterlimit="10" stroke-linecap="round"/>
<path d="M319.652 195.351L325.426 199.105L331.199 202.856V176.478L325.426 185.919L319.652 195.351Z" fill="#FC762B" stroke="#070707" stroke-width="0.5" stroke-miterlimit="10" stroke-linecap="round"/>
<path d="M309.924 211.274H331.2V202.865L325.426 199.114L319.652 195.351L314.789 203.308L309.924 211.274Z" fill="#F2B3C1" stroke="black" stroke-width="0.5" stroke-miterlimit="10" stroke-linecap="round"/>
<path d="M280.1 169.651L270.193 163.211L260.286 156.771C259.146 158.535 258.005 160.298 256.865 162.058C255.725 163.817 254.585 165.58 253.445 167.344C253.496 169.674 253.599 171.955 253.752 174.185C253.906 176.416 254.102 178.59 254.34 180.709C256.514 182.121 258.683 183.532 260.845 184.94L267.353 189.169L273.727 179.409C275.852 176.158 277.977 172.905 280.1 169.651Z" fill="#FC762B" stroke="#070707" stroke-width="0.5" stroke-miterlimit="10" stroke-linecap="round"/>
<path d="M286.256 116.625C284.62 116.366 282.982 116.133 281.34 115.926C279.698 115.719 278.057 115.54 276.417 115.388L280.228 117.718L284.04 120.048L285.149 118.333L286.256 116.625Z" fill="#FC762B" stroke="#070707" stroke-width="0.5" stroke-miterlimit="10" stroke-linecap="round"/>
<path d="M284.047 120.052L280.235 117.722L276.424 115.392C275.238 115.278 274.054 115.18 272.87 115.092C271.687 115.003 270.505 114.929 269.326 114.859C268.094 114.794 266.852 114.698 265.598 114.591C264.345 114.484 263.103 114.358 261.849 114.239C261.111 116.359 260.377 118.619 259.666 121.01C258.956 123.401 258.268 125.924 257.627 128.573L264.981 133.352L272.334 138.131L278.185 129.088L284.047 120.052Z" fill="#F2B3C1" stroke="black" stroke-width="0.5" stroke-miterlimit="10" stroke-linecap="round"/>
<path d="M254.335 180.714C254.801 184.829 255.4 188.741 256.101 192.427C256.802 196.113 257.606 199.575 258.454 202.795C259.936 200.526 261.419 198.256 262.902 195.985L267.348 189.174L260.84 184.945C258.678 183.535 256.51 182.124 254.335 180.714Z" fill="#F2B3C1" stroke="black" stroke-width="0.5" stroke-miterlimit="10" stroke-linecap="round"/>
<path d="M217.905 120.619C219.309 118.489 221.347 116.854 223.73 115.945C227.121 114.665 232.058 114.572 238.857 118.375C238.857 118.375 237.382 121.045 235.762 127.641C234.143 134.237 232.379 144.755 231.801 160.455L222.563 158.33L213.327 156.207C212.37 155.988 211.438 155.67 210.547 155.259C209.657 154.848 208.818 154.335 208.047 153.73C206.845 152.793 205.83 151.639 205.055 150.326C204.312 149.066 203.854 147.658 203.711 146.202C203.636 145.421 203.657 144.634 203.774 143.858C203.946 142.745 204.296 141.667 204.811 140.666C205.017 140.266 205.244 139.877 205.491 139.501L211.109 130.971L216.724 122.441C216.921 122.141 217.118 121.839 217.314 121.534L217.905 120.619Z" fill="#F6991A" stroke="black" stroke-width="0.5" stroke-miterlimit="10" stroke-linecap="round"/>
<path d="M304.374 132.478L307.515 127.669C308.562 126.063 309.609 124.459 310.656 122.858L310.339 122.741L310.025 122.625C306.188 121.237 302.283 120.049 298.323 119.065C294.362 118.072 290.32 117.266 286.263 116.625L285.156 118.338L284.047 120.052L294.211 126.264L304.374 132.478Z" fill="#F2B3C1" stroke="black" stroke-width="0.5" stroke-miterlimit="10" stroke-linecap="round"/>
<path d="M272.344 138.138L264.99 133.359L257.637 128.58C256.775 132.143 255.994 135.936 255.347 139.941C254.699 143.946 254.182 148.166 253.844 152.584L257.064 154.681L260.286 156.778L266.314 147.458L272.344 138.138Z" fill="#FC762B" stroke="#070707" stroke-width="0.5" stroke-miterlimit="10" stroke-linecap="round"/>
<path d="M189.176 159.975C188.445 159.975 187.72 159.831 187.044 159.551C186.368 159.271 185.754 158.861 185.237 158.344C184.719 157.826 184.309 157.212 184.029 156.536C183.749 155.86 183.605 155.135 183.605 154.404V127.937C183.605 126.459 184.192 125.042 185.237 123.997C186.282 122.952 187.699 122.364 189.176 122.364C190.654 122.364 192.072 122.952 193.117 123.997C194.162 125.042 194.749 126.459 194.75 127.937V154.404C194.749 155.881 194.162 157.298 193.117 158.343C192.071 159.388 190.654 159.975 189.176 159.975Z" fill="#84A1E5" stroke="#070707" stroke-width="0.5" stroke-miterlimit="10" stroke-linecap="round"/>
<path d="M215.316 158.232C214.678 158.817 213.93 159.271 213.116 159.568C212.302 159.864 211.437 159.997 210.571 159.959C209.706 159.921 208.856 159.713 208.071 159.346C207.286 158.979 206.581 158.461 205.996 157.822L197.744 148.814L189.493 139.806C188.907 139.168 188.453 138.42 188.156 137.606C187.86 136.792 187.727 135.927 187.765 135.062C187.802 134.196 188.011 133.346 188.377 132.561C188.744 131.776 189.261 131.071 189.901 130.486C191.19 129.307 192.894 128.688 194.64 128.765C196.385 128.842 198.029 129.608 199.209 130.896L207.462 139.904L215.713 148.912C216.298 149.55 216.752 150.298 217.049 151.112C217.346 151.926 217.479 152.791 217.441 153.656C217.403 154.522 217.195 155.372 216.828 156.157C216.462 156.942 215.944 157.647 215.305 158.232H215.316Z" fill="#DBCAF4" stroke="black" stroke-width="0.5" stroke-miterlimit="10" stroke-linecap="round"/>
<path d="M218.859 128.109C218.744 127.909 218.626 127.706 218.481 127.499C218.337 127.292 218.199 127.08 218.041 126.868C217.589 126.261 217.084 125.695 216.533 125.176C216.076 124.744 215.588 124.345 215.075 123.981C215.236 123.756 215.426 123.553 215.639 123.377C215.912 123.148 216.24 122.993 216.592 122.928C217.374 122.795 218.223 123.179 218.873 123.813C219.523 124.447 219.949 125.337 219.884 126.211C219.845 126.648 219.695 127.068 219.448 127.431C219.281 127.681 219.083 127.909 218.859 128.109Z" fill="#D87D61" stroke="black" stroke-width="0.5" stroke-miterlimit="10" stroke-linecap="round"/>
<path d="M215.993 124.691C218.151 126.553 219.58 129.12 220.023 131.935C220.392 134.54 219.758 137.127 218.034 139.079C216.309 141.032 213.819 141.994 211.19 141.94C208.348 141.817 205.634 140.722 203.501 138.839C201.368 136.956 199.946 134.398 199.471 131.593C199.102 128.99 199.736 126.402 201.46 124.449C203.185 122.496 205.675 121.546 208.304 121.59C211.153 121.68 213.878 122.779 215.993 124.691Z" fill="#D87D61" stroke="black" stroke-width="0.5" stroke-miterlimit="10" stroke-linecap="round"/>
<path d="M219.713 154.164C219.769 153.984 219.795 153.698 219.443 153.134C219.091 152.57 218.367 151.768 216.922 150.554C216.223 149.97 215.559 149.459 215.039 149.075C214.52 148.69 214.147 148.434 214.035 148.357C213.45 147.959 212.768 147.558 212.155 147.09C211.534 146.658 211.027 146.082 210.678 145.412C210.518 145.083 210.451 144.716 210.484 144.352C210.518 143.99 210.684 143.653 210.95 143.406C210.764 143.33 210.596 143.217 210.457 143.073C210.317 142.929 210.209 142.758 210.139 142.57C210.071 142.394 210.04 142.206 210.049 142.018C210.058 141.83 210.108 141.646 210.194 141.478C210.279 141.31 210.4 141.163 210.548 141.045C210.695 140.928 210.866 140.843 211.048 140.796C211.233 140.745 211.426 140.732 211.616 140.757C211.806 140.781 211.989 140.844 212.155 140.941C212.057 140.883 212.101 140.668 212.183 140.454C212.245 140.289 212.327 140.133 212.428 139.988C212.57 139.854 212.738 139.751 212.922 139.685C213.106 139.619 213.302 139.592 213.497 139.606C213.889 139.622 214.28 139.675 214.662 139.764C215.152 139.862 215.631 140.011 216.09 140.209C216.551 140.408 216.996 140.641 217.421 140.908L217.626 141.029C217.735 141.092 217.882 141.169 218.057 141.262L218.092 141.279H218.115C218.054 141.248 218.19 141.064 218.348 140.883C218.464 140.744 218.593 140.618 218.735 140.505C218.954 140.408 219.196 140.374 219.434 140.407C219.674 140.438 219.909 140.5 220.133 140.591C220.694 140.823 221.229 141.112 221.731 141.453C222.237 141.791 222.724 142.152 223.208 142.518C224.606 143.557 225.983 144.804 227.486 145.741C228.989 146.677 230.623 147.311 232.535 147.12C232.442 148.271 232.368 149.315 232.302 150.228C232.237 151.142 232.193 151.927 232.156 152.558C232.034 154.639 231.937 156.78 231.869 158.4C231.801 160.019 231.764 161.123 231.764 161.123C231.764 161.123 230.748 161.06 229.569 160.981C228.39 160.902 227.046 160.813 226.391 160.748C223.724 160.473 221.11 159.82 218.628 158.807C215.971 157.717 213.586 156.198 212.495 154.289C212.33 153.996 212.245 153.664 212.25 153.327C212.247 153.16 212.278 152.994 212.343 152.839C212.407 152.685 212.502 152.546 212.623 152.43C213.206 151.903 214.124 152.169 215.012 152.64C215.771 153.082 216.504 153.568 217.206 154.096C217.535 154.326 217.889 154.517 218.262 154.665C218.663 154.809 219.073 154.844 219.38 154.595C219.473 154.525 219.553 154.44 219.618 154.343C219.657 154.287 219.689 154.227 219.713 154.164Z" fill="#D87D61" stroke="black" stroke-width="0.5" stroke-miterlimit="10" stroke-linecap="round"/>
<path d="M212.039 140.873C212.689 141.248 213.35 141.638 214.021 142.038C214.692 142.439 215.375 142.875 216.062 143.322C216.965 143.906 217.831 144.492 218.66 145.079C219.492 145.664 220.291 146.244 221.051 146.822" stroke="black" stroke-width="0.5" stroke-miterlimit="10" stroke-linecap="round"/>
<path d="M210.96 143.406C211.542 143.681 212.146 143.982 212.768 144.317C213.39 144.653 214.031 145.016 214.681 145.412C215.629 145.992 216.503 146.577 217.305 147.169C218.106 147.761 218.842 148.334 219.506 148.902" stroke="black" stroke-width="0.5" stroke-miterlimit="10" stroke-linecap="round"/>
<path d="M217.593 140.978C217.931 141.174 218.292 141.388 218.644 141.621C218.996 141.854 219.373 142.113 219.749 142.39C220.326 142.819 220.851 143.25 221.328 143.676C221.806 144.103 222.23 144.517 222.612 144.918" stroke="black" stroke-width="0.5" stroke-miterlimit="10" stroke-linecap="round"/>
<path d="M210.65 129.528C210.753 129.619 210.822 129.742 210.844 129.877C210.867 130.012 210.842 130.151 210.774 130.27C210.706 130.388 210.598 130.48 210.47 130.528C210.342 130.577 210.201 130.579 210.071 130.535C209.941 130.491 209.831 130.404 209.758 130.287C209.686 130.171 209.656 130.033 209.674 129.897C209.692 129.761 209.757 129.636 209.857 129.542C209.957 129.449 210.086 129.393 210.223 129.384C210.379 129.374 210.532 129.426 210.65 129.528Z" fill="#040400"/>
<path d="M206.104 134.96C206.205 135.05 206.271 135.172 206.292 135.305C206.313 135.439 206.288 135.575 206.219 135.692C206.151 135.809 206.045 135.898 205.918 135.945C205.791 135.992 205.652 135.994 205.524 135.95C205.397 135.906 205.288 135.819 205.217 135.704C205.146 135.589 205.117 135.453 205.135 135.319C205.153 135.185 205.217 135.061 205.316 134.969C205.415 134.877 205.542 134.822 205.677 134.813C205.754 134.808 205.832 134.819 205.905 134.844C205.978 134.869 206.046 134.908 206.104 134.96Z" fill="#040400"/>
<path d="M209.252 135.016L208.509 135.095L207.765 135.172C207.756 135.173 207.746 135.172 207.737 135.168C207.729 135.163 207.721 135.157 207.716 135.148C207.711 135.141 207.708 135.131 207.708 135.122C207.708 135.112 207.711 135.103 207.716 135.095L208.04 134.48L208.362 133.865L207.059 132.714L205.757 131.565" stroke="black" stroke-width="0.5" stroke-miterlimit="10" stroke-linecap="round"/>
<path d="M206.57 128.629L208.159 127.774L209.746 126.919" stroke="black" stroke-width="0.5" stroke-miterlimit="10" stroke-linecap="round"/>
<path d="M202.413 135.381L203.145 133.734L203.879 132.084" stroke="black" stroke-width="0.5" stroke-miterlimit="10" stroke-linecap="round"/>
<path d="M211.519 136.609L212.609 135.172L213.699 133.734" stroke="black" stroke-width="0.5" stroke-miterlimit="10" stroke-linecap="round"/>
<path d="M214.56 129.212C214.829 129.449 215.007 129.772 215.064 130.126C215.122 130.48 215.055 130.842 214.874 131.152C214.694 131.462 214.412 131.7 214.076 131.825C213.74 131.951 213.371 131.956 213.032 131.839C212.693 131.723 212.405 131.493 212.216 131.187C212.028 130.882 211.951 130.521 211.999 130.166C212.047 129.811 212.217 129.483 212.48 129.239C212.742 128.995 213.081 128.849 213.439 128.827C213.642 128.814 213.845 128.841 214.038 128.907C214.23 128.973 214.407 129.077 214.56 129.212Z" fill="#FF6406" stroke="#070707" stroke-width="0.5" stroke-miterlimit="10" stroke-linecap="round"/>
<path d="M208.62 137.15C208.888 137.387 209.066 137.709 209.123 138.063C209.18 138.416 209.113 138.778 208.933 139.088C208.753 139.397 208.472 139.634 208.136 139.759C207.801 139.884 207.432 139.889 207.094 139.773C206.755 139.657 206.468 139.427 206.28 139.122C206.092 138.818 206.015 138.458 206.063 138.103C206.111 137.748 206.28 137.421 206.542 137.177C206.804 136.933 207.142 136.788 207.499 136.765C207.702 136.753 207.906 136.78 208.098 136.846C208.29 136.912 208.468 137.015 208.62 137.15Z" fill="#FF6406" stroke="#070707" stroke-width="0.5" stroke-miterlimit="10" stroke-linecap="round"/>
<path d="M193.368 130.971C193.37 131.662 193.537 132.343 193.855 132.956C194.007 133.242 194.217 133.492 194.473 133.69C195.311 134.331 196.488 134.254 197.641 133.851C198.756 133.444 199.788 132.838 200.687 132.064C201.388 131.449 201.973 130.713 202.416 129.892C202.724 129.327 202.969 128.729 203.145 128.11C203.503 128.347 203.927 128.467 204.356 128.452C204.999 128.396 205.722 127.886 206.029 126.071C206.395 126.227 206.804 126.246 207.183 126.124C207.788 125.917 208.457 125.241 208.704 123.366C209.335 123.837 210.034 124.208 210.778 124.466C212.001 124.883 213.593 125.036 215.074 123.981C215.378 123.56 215.797 123.236 216.281 123.049C217.046 122.779 218.129 122.904 219.408 124.48C219.226 123.928 219.009 123.389 218.76 122.865C218.473 122.259 218.141 121.675 217.768 121.117C216.621 119.421 215.123 117.991 213.376 116.923C212.214 116.206 210.969 115.633 209.669 115.218C208.781 115.029 207.874 114.941 206.966 114.957C205.159 114.983 203.386 115.453 201.804 116.325C200.221 117.197 198.877 118.445 197.891 119.959C197.222 120.935 196.693 121.999 196.318 123.121C196.075 123.716 195.799 124.297 195.491 124.862C194.98 125.794 194.281 126.835 193.52 127.306C193.082 127.534 192.724 127.891 192.494 128.329C192.28 128.729 192.213 129.191 192.303 129.636C192.388 130.001 192.578 130.333 192.851 130.591C193.005 130.741 193.179 130.869 193.368 130.971Z" fill="#040400" stroke="#040400" stroke-width="0.5" stroke-miterlimit="10"/>
<path d="M229.509 133.415L231.75 134.969L233.994 136.526" stroke="black" stroke-width="0.5" stroke-miterlimit="10" stroke-linecap="round"/>
<path d="M353.113 39.4228H352.151C352.571 37.1166 352.334 34.7386 351.466 32.561C350.614 30.4127 349.157 28.5577 347.272 27.2206C345.017 25.6545 342.286 24.9236 339.55 25.1539C338.178 25.2393 336.827 25.5323 335.543 26.023C335.561 25.818 335.575 25.6129 335.585 25.4079C335.585 25.2005 335.601 24.9931 335.601 24.7834C335.612 23.0766 335.263 21.3866 334.578 19.8231C333.894 18.2596 332.888 16.8576 331.626 15.7081C329.028 13.3732 325.65 12.097 322.157 12.1315C318.967 12.1309 315.884 13.2802 313.473 15.3686C311.062 17.4571 309.484 20.3447 309.03 23.5019C308.822 23.481 308.613 23.467 308.401 23.4577C308.188 23.4484 307.979 23.4414 307.767 23.4414C304.249 23.4414 300.876 24.8386 298.388 27.3257C295.9 29.8128 294.503 33.1861 294.502 36.7037C294.503 37.1652 294.527 37.6264 294.574 38.0854C294.62 38.5362 294.69 38.9842 294.784 39.4275C292.696 39.4989 290.719 40.3881 289.281 41.9034C287.842 43.4187 287.057 45.4387 287.094 47.5278C287.131 49.6169 287.987 51.6077 289.478 53.0712C290.97 54.5346 292.977 55.3533 295.066 55.3507H353.113C354.171 55.3688 355.221 55.1761 356.203 54.784C357.186 54.3918 358.08 53.808 358.834 53.0666C359.588 52.3251 360.187 51.441 360.596 50.4656C361.005 49.4902 361.216 48.4432 361.216 47.3856C361.216 46.328 361.005 45.281 360.596 44.3056C360.187 43.3302 359.588 42.4461 358.834 41.7046C358.08 40.9632 357.186 40.3794 356.203 39.9872C355.221 39.5951 354.171 39.4024 353.113 39.4205V39.4228Z" fill="#EAF0FA" stroke="black" stroke-width="0.5" stroke-miterlimit="10" stroke-linecap="round"/>
<path d="M224.217 68.8948C225.026 67.9733 225.47 66.7888 225.468 65.5629C225.469 64.5882 225.188 63.6341 224.659 62.8151C224.131 61.9961 223.377 61.347 222.489 60.9455C221.601 60.5441 220.616 60.4075 219.652 60.552C218.688 60.6965 217.786 61.1161 217.055 61.7604C216.434 60.9443 215.629 60.2864 214.706 59.8405C213.717 59.3614 212.632 59.1144 211.533 59.1182C209.874 59.1046 208.263 59.6763 206.985 60.7328C206.39 61.2187 205.898 61.8183 205.538 62.4964C205.178 63.1745 204.957 63.9176 204.888 64.6822C204.084 64.2216 203.174 63.9805 202.248 63.9832C201.292 63.982 200.353 64.2389 199.531 64.7268C198.709 65.2146 198.034 65.9154 197.577 66.7551C197.12 67.5948 196.898 68.5422 196.935 69.4975C196.972 70.4528 197.266 71.3804 197.786 72.1825C196.581 72.492 195.531 73.2305 194.832 74.2592C194.133 75.288 193.834 76.5364 193.99 77.7702C194.146 79.004 194.747 80.1385 195.68 80.9608C196.613 81.783 197.814 82.2366 199.058 82.2364C199.233 82.2365 199.408 82.2272 199.582 82.2085C199.755 82.1921 199.925 82.1642 200.092 82.1316C200.371 83.0943 200.917 83.9585 201.666 84.6243C202.415 85.2902 203.337 85.7305 204.326 85.8945C205.315 86.0585 206.33 85.9394 207.254 85.551C208.178 85.1627 208.973 84.5208 209.548 83.6997C210.384 84.7378 211.569 85.4374 212.882 85.6685C214.376 85.9349 215.915 85.7775 217.324 85.2142C218.733 84.6508 219.956 83.704 220.855 82.4811C221.647 81.4075 222.021 80.0824 221.908 78.7531C222.05 78.7787 222.192 78.7973 222.339 78.8113C222.486 78.8253 222.633 78.83 222.782 78.83C224 78.8307 225.178 78.3925 226.099 77.5955C227.02 76.7986 227.623 75.6963 227.798 74.4908C227.973 73.2852 227.707 72.0571 227.05 71.0315C226.393 70.0059 225.388 69.2515 224.22 68.9065L224.217 68.8948Z" fill="#EAF0FA" stroke="black" stroke-width="0.5" stroke-miterlimit="10" stroke-linecap="round"/>
<path d="M203.138 77.821C203.073 77.5922 202.978 77.3729 202.856 77.1686C202.688 76.8814 202.476 76.6227 202.227 76.4021C202.008 76.2067 201.762 76.0435 201.498 75.9174C201.314 75.8311 201.123 75.7617 200.927 75.71C201.069 75.5757 201.188 75.4181 201.279 75.244C201.376 75.049 201.443 74.8399 201.477 74.6243C201.546 74.2207 201.483 73.8055 201.297 73.4406C201.227 73.2829 201.118 73.1453 200.981 73.0404C200.844 72.9355 200.683 72.8667 200.512 72.8403C200.342 72.8139 200.167 72.8307 200.005 72.8891C199.842 72.9476 199.697 73.0459 199.582 73.175C199.295 73.4656 199.109 73.8417 199.053 74.2468C199.015 74.4865 199.019 74.7311 199.067 74.9691C199.11 75.1818 199.195 75.3838 199.317 75.5633C198.848 75.6044 198.388 75.7135 197.951 75.8871C197.048 76.2376 196.279 76.8638 195.752 77.6766C195.273 78.4004 195.094 79.2814 195.251 80.1347C194.553 80.5785 194.003 81.2201 193.671 81.9778C193.534 82.2703 193.459 82.588 193.452 82.9109C193.444 83.2338 193.504 83.5548 193.627 83.8534C193.902 84.3618 194.367 84.7411 194.92 84.9089C195.22 85.0205 195.533 85.0925 195.852 85.1233C196.536 85.1581 197.211 84.9529 197.76 84.5431C198.561 83.955 199.316 83.3053 200.016 82.5999C200.876 81.8343 201.676 81.0031 202.409 80.1138C203.007 79.3169 203.334 78.555 203.138 77.821Z" fill="#040400" stroke="#040400" stroke-width="0.5" stroke-miterlimit="10"/>
<path d="M258.697 70.6751C258.774 71.3232 258.925 71.9603 259.146 72.5741C259.304 73.0086 259.499 73.4288 259.729 73.8299C260.047 74.3763 260.433 74.8805 260.878 75.3305C261.438 75.9135 262.13 76.3538 262.895 76.6143C263.205 76.7122 263.537 76.7186 263.851 76.6329C264.15 76.5522 264.415 76.3794 264.61 76.139C264.786 75.915 264.891 75.6443 264.913 75.3607C264.936 75.077 264.885 74.7922 264.766 74.5336C264.631 74.2605 264.436 74.0216 264.196 73.8346C263.963 73.6389 263.709 73.4618 263.497 73.2474C262.569 72.3049 261.997 71.0696 261.88 69.7524L261.84 69.3144L261.803 68.874L260.249 69.7687L258.697 70.6751Z" fill="#040400" stroke="#040400" stroke-width="0.5" stroke-miterlimit="10"/>
<path d="M245.577 66.9983C245.257 67.3779 244.973 67.7858 244.727 68.2169C243.961 69.5623 243.592 71.0974 243.664 72.6439C243.688 73.1939 243.766 73.7402 243.897 74.2749C244.011 74.9058 244.353 75.4726 244.859 75.8663C245.032 76.0143 245.237 76.1192 245.457 76.1722C245.678 76.2253 245.909 76.2251 246.129 76.1715C246.29 76.1072 246.436 76.0094 246.557 75.8844C246.677 75.7595 246.77 75.6103 246.828 75.4469C246.957 75.1188 247.011 74.7662 246.987 74.4147C246.974 74.2467 246.941 74.0809 246.889 73.9207C246.84 73.7623 246.782 73.6062 246.735 73.4431C246.675 73.2343 246.628 73.0218 246.595 72.807C246.565 72.5916 246.551 72.3744 246.551 72.1569C246.566 71.2027 246.871 70.2757 247.425 69.4984C247.73 69.0554 248.094 68.6557 248.506 68.3101L247.052 67.667L245.577 66.9983Z" fill="#040400" stroke="#040400" stroke-width="0.5" stroke-miterlimit="10"/>
<path d="M268.362 61.9259C269.267 61.569 270.05 60.9589 270.617 60.1686C271.185 59.3784 271.513 58.4414 271.562 57.4696C271.611 56.4979 271.38 55.5326 270.895 54.6891C270.41 53.8456 269.692 53.1596 268.828 52.7131C267.738 52.1454 266.479 51.9946 265.286 52.2891C265.111 51.2755 264.699 50.3176 264.084 49.4931C263.425 48.6142 262.575 47.897 261.598 47.3961C260.131 46.6195 258.438 46.3859 256.816 46.7367C256.066 46.8947 255.354 47.2007 254.723 47.6367C254.091 48.0728 253.553 48.6302 253.14 49.2764C252.894 48.8951 252.6 48.5467 252.266 48.2395C251.663 47.6879 250.942 47.2826 250.157 47.0552C249.372 46.8277 248.546 46.7842 247.742 46.928C246.938 47.0718 246.177 47.399 245.52 47.8843C244.863 48.3696 244.327 48.9998 243.953 49.7261C243.481 50.6334 243.283 51.6583 243.384 52.6758C242.127 52.3814 240.805 52.574 239.684 53.2149C238.563 53.8558 237.727 54.8974 237.343 56.1302C236.959 57.363 237.056 58.6954 237.615 59.8593C238.174 61.0233 239.153 61.9323 240.355 62.4036C240.515 62.4678 240.678 62.523 240.844 62.569C240.647 63.5524 240.732 64.5717 241.09 65.5086C241.448 66.4456 242.064 67.2619 242.867 67.863C243.67 68.4641 244.627 68.8253 245.627 68.9049C246.627 68.9844 247.629 68.779 248.517 68.3125C248.781 69.6197 249.512 70.7864 250.572 71.5954C251.776 72.5196 253.214 73.0881 254.724 73.2364C256.234 73.3846 257.756 73.1067 259.116 72.4342C260.316 71.8461 261.259 70.8403 261.77 69.6056C261.884 69.6918 262.003 69.7757 262.127 69.8526C262.25 69.9295 262.378 70.0064 262.509 70.074C263.591 70.6376 264.84 70.792 266.026 70.5088C267.213 70.2255 268.258 69.5236 268.969 68.5321C269.68 67.5405 270.009 66.3257 269.896 65.1109C269.783 63.8961 269.236 62.7627 268.355 61.919L268.362 61.9259Z" fill="#EAF0FA" stroke="black" stroke-width="0.5" stroke-miterlimit="10" stroke-linecap="round"/>
<path d="M245.539 60.1505C245.587 59.9168 245.603 59.6778 245.588 59.4398C245.571 59.108 245.502 58.7809 245.383 58.4705C245.279 58.1966 245.135 57.9392 244.957 57.7063C244.835 57.5444 244.697 57.3946 244.547 57.2589C244.736 57.2033 244.915 57.1167 245.076 57.0026C245.255 56.8728 245.412 56.7156 245.542 56.5366C245.789 56.2099 245.924 55.8118 245.926 55.4019C245.936 55.2298 245.903 55.0579 245.83 54.9019C245.757 54.7459 245.645 54.6108 245.506 54.509C245.367 54.4072 245.205 54.342 245.034 54.3193C244.863 54.2966 244.689 54.3171 244.528 54.3791C244.139 54.5003 243.8 54.7458 243.563 55.0781C243.419 55.2731 243.311 55.4925 243.244 55.7258C243.183 55.9336 243.165 56.1515 243.191 56.3666C242.978 56.2794 242.759 56.207 242.536 56.1499C242.306 56.0932 242.072 56.0519 241.837 56.0264C240.873 55.9214 239.901 56.1236 239.06 56.6042C238.303 57.0269 237.739 57.7256 237.485 58.5544C236.661 58.6288 235.878 58.945 235.234 59.4631C234.978 59.6599 234.765 59.9077 234.61 60.1909C234.455 60.474 234.36 60.7864 234.332 61.1081C234.337 61.6853 234.57 62.2372 234.98 62.6436C235.198 62.8829 235.446 63.0928 235.718 63.268C236.31 63.613 237.002 63.7415 237.678 63.6315C238.66 63.4772 239.629 63.2474 240.576 62.9441C241.691 62.6594 242.781 62.2886 243.838 61.8351C244.733 61.4203 245.374 60.8914 245.539 60.1505Z" fill="#040400" stroke="#040400" stroke-width="0.5" stroke-miterlimit="10"/>
<path d="M300.649 85.9623C300.547 86.6071 300.52 87.2614 300.567 87.9125C300.6 88.3731 300.673 88.83 300.786 89.2778C300.944 89.8905 301.179 90.4807 301.485 91.0347C301.865 91.7483 302.412 92.3598 303.079 92.8171C303.35 92.9967 303.667 93.0939 303.992 93.0967C304.302 93.0992 304.605 93.0047 304.859 92.8264C305.089 92.6596 305.264 92.4274 305.36 92.1601C305.459 91.8939 305.489 91.6068 305.446 91.3259C305.388 91.0284 305.263 90.748 305.08 90.5058C304.91 90.2541 304.717 90.0141 304.572 89.7532C303.936 88.594 303.722 87.2503 303.964 85.9506L304.046 85.5172L304.127 85.0862L302.389 85.5242L300.649 85.9623Z" fill="#040400" stroke="#040400" stroke-width="0.5" stroke-miterlimit="10"/>
<path d="M289.022 78.8511C288.611 79.1268 288.226 79.4387 287.871 79.7831C287.365 80.282 286.927 80.8443 286.566 81.456C285.863 82.6523 285.475 84.0069 285.436 85.3937C285.374 86.0314 285.55 86.6695 285.93 87.1855C286.055 87.3748 286.223 87.5317 286.421 87.6431C286.619 87.7545 286.84 87.8173 287.067 87.8262C287.241 87.8092 287.409 87.7553 287.561 87.6681C287.712 87.5809 287.843 87.4625 287.945 87.3206C288.16 87.0403 288.309 86.7154 288.381 86.37C288.413 86.205 288.425 86.0369 288.418 85.869C288.418 85.7013 288.402 85.5358 288.402 85.3658C288.399 85.1484 288.412 84.9311 288.442 84.7157C288.47 84.5006 288.514 84.2879 288.574 84.0796C288.846 83.1616 289.391 82.3485 290.138 81.7496C290.551 81.4045 291.009 81.1183 291.501 80.8991L290.261 79.8646L289.022 78.8511Z" fill="#040400" stroke="#040400" stroke-width="0.5" stroke-miterlimit="10"/>
<path d="M312.327 80.1674C313.606 80.0387 314.788 79.4284 315.634 78.4602C316.48 77.492 316.926 76.2384 316.882 74.9534C316.838 73.6685 316.307 72.4485 315.396 71.5406C314.486 70.6328 313.264 70.1051 311.979 70.0645C312.086 69.0444 311.95 68.0136 311.581 67.0565C311.187 66.0293 310.564 65.1057 309.759 64.356C308.557 63.2112 306.989 62.5272 305.332 62.4244C304.566 62.3718 303.798 62.4727 303.071 62.7212C302.345 62.9696 301.676 63.3607 301.103 63.8714C300.972 63.4369 300.784 63.0217 300.544 62.6365C300.115 61.943 299.533 61.3576 298.842 60.9254C298.15 60.4933 297.369 60.2261 296.558 60.1446C295.747 60.063 294.928 60.1693 294.165 60.4551C293.401 60.741 292.714 61.1988 292.156 61.793C291.454 62.538 290.984 63.4716 290.804 64.4795C289.714 63.8839 288.444 63.7062 287.232 63.9795C286.02 64.2528 284.95 64.9585 284.221 65.9644C283.491 66.9703 283.154 68.2075 283.271 69.4443C283.389 70.681 283.953 71.8326 284.858 72.6834C284.985 72.8038 285.118 72.9173 285.257 73.0236C285.396 73.1285 285.536 73.224 285.683 73.3149C285.228 74.2079 285.034 75.2116 285.125 76.2099C285.216 77.2082 285.588 78.1604 286.197 78.9565C286.806 79.7526 287.628 80.3601 288.568 80.7088C289.508 81.0574 290.527 81.1331 291.508 80.927C291.407 82.2561 291.792 83.5767 292.591 84.6433C293.499 85.8595 294.729 86.7972 296.143 87.3503C297.556 87.9033 299.096 88.0496 300.588 87.7725C301.902 87.5307 303.084 86.8183 303.911 85.7687C303.997 85.8852 304.09 86.0017 304.186 86.1066C304.281 86.2114 304.386 86.3209 304.495 86.4234C305.384 87.2546 306.543 87.7381 307.759 87.7857C308.974 87.8333 310.167 87.4418 311.118 86.6827C312.069 85.9236 312.715 84.8475 312.939 83.6513C313.162 82.455 312.947 81.2184 312.334 80.1674H312.327Z" fill="#EAF0FA" stroke="black" stroke-width="0.5" stroke-miterlimit="10" stroke-linecap="round"/>
<path d="M290.844 72.2618C290.951 72.0495 291.03 71.8238 291.077 71.5907C291.151 71.2662 291.174 70.932 291.145 70.6005C291.103 70.104 290.943 69.6248 290.679 69.2025C290.877 69.201 291.073 69.1656 291.259 69.0976C291.464 69.0236 291.656 68.9175 291.827 68.7831C292.154 68.5365 292.392 68.1907 292.505 67.7975C292.563 67.6345 292.578 67.4597 292.551 67.2892C292.523 67.1186 292.452 66.9579 292.346 66.8216C292.24 66.6854 292.101 66.5781 291.942 66.5096C291.784 66.4411 291.61 66.4137 291.438 66.4298C291.029 66.4453 290.636 66.5933 290.318 66.8515C290.126 66.9995 289.962 67.1811 289.835 67.3874C289.716 67.57 289.637 67.7756 289.602 67.9909C289.421 67.8487 289.229 67.7194 289.029 67.6041C288.822 67.4846 288.606 67.381 288.384 67.2942C287.486 66.9307 286.495 66.8605 285.555 67.0938C284.712 67.2951 283.979 67.8143 283.509 68.5431C282.696 68.3909 281.857 68.4825 281.095 68.8064C280.796 68.9264 280.524 69.1074 280.298 69.3381C280.071 69.5687 279.896 69.8439 279.781 70.1461C279.629 70.7022 279.703 71.2961 279.986 71.7981C280.132 72.0878 280.314 72.3573 280.529 72.5996C281.003 73.0922 281.635 73.4037 282.314 73.4803C283.302 73.6002 284.297 73.6423 285.292 73.6062C286.443 73.638 287.594 73.5788 288.736 73.4291C289.723 73.259 290.485 72.9281 290.844 72.2618Z" fill="#040400" stroke="#040400" stroke-width="0.5" stroke-miterlimit="10"/>
<path d="M226.794 34.3924C226.794 34.1594 226.219 33.9637 225.266 33.8052C224.007 33.6193 222.738 33.5158 221.466 33.4953C221.447 32.2278 221.314 30.9646 221.07 29.7207C220.86 28.7724 220.587 28.1946 220.289 28.1946C219.991 28.1946 219.716 28.7724 219.506 29.7207C219.262 30.9646 219.129 32.2278 219.11 33.4953C217.838 33.5158 216.568 33.6193 215.31 33.8052C214.357 33.9637 213.784 34.1687 213.784 34.3924C213.784 34.6161 214.357 34.8211 215.31 34.9772C216.569 35.162 217.838 35.2631 219.11 35.2801C219.129 36.5476 219.262 37.8109 219.506 39.0547C219.716 40.0053 219.988 40.5809 220.289 40.5809C220.59 40.5809 220.86 40.0053 221.07 39.0547C221.314 37.8109 221.447 36.5476 221.466 35.2801C222.738 35.2608 224.007 35.1573 225.266 34.9702C226.219 34.8141 226.794 34.6161 226.794 34.3924Z" fill="url(#paint2_linear_484_6962)" stroke="black" stroke-width="0.5" stroke-miterlimit="10" stroke-linecap="round"/>
<path d="M214.872 43.9337C213.856 44.1504 213.222 44.3857 212.787 44.8214C212.351 45.2571 212.113 45.8932 211.897 46.9184C211.891 46.949 211.874 46.9766 211.85 46.9962C211.825 47.0158 211.795 47.0262 211.764 47.0256C211.733 47.0266 211.702 47.0162 211.678 46.9965C211.654 46.9768 211.638 46.949 211.633 46.9184C211.417 45.9049 211.167 45.2711 210.743 44.8214C210.319 44.3717 209.674 44.1504 208.646 43.9337C208.616 43.9272 208.589 43.9105 208.569 43.8863C208.55 43.8621 208.539 43.832 208.539 43.8009C208.539 43.7837 208.542 43.7667 208.548 43.7508C208.554 43.7348 208.564 43.7202 208.576 43.7079C208.588 43.6956 208.602 43.6857 208.617 43.6789C208.633 43.672 208.65 43.6684 208.667 43.6681C209.683 43.4514 210.317 43.2137 210.764 42.778C211.212 42.3423 211.438 41.7062 211.654 40.6926C211.66 40.6622 211.676 40.6347 211.7 40.6151C211.724 40.5955 211.754 40.585 211.785 40.5855C211.816 40.5853 211.846 40.5959 211.87 40.6154C211.894 40.635 211.911 40.6622 211.918 40.6926C212.134 41.7062 212.372 42.3423 212.808 42.778C213.243 43.2137 213.877 43.4514 214.893 43.6681C214.923 43.6736 214.95 43.6899 214.97 43.7138C214.989 43.7378 214.999 43.7678 214.998 43.7985C214.998 43.833 214.986 43.8663 214.962 43.8915C214.939 43.9168 214.906 43.9319 214.872 43.9337Z" fill="url(#paint3_linear_484_6962)" stroke="black" stroke-width="0.5" stroke-miterlimit="10" stroke-linecap="round"/>
<path d="M326.864 76.1458C326.407 76.1459 325.964 75.9876 325.61 75.6978C325.257 75.4079 325.015 75.0046 324.925 74.5563C324.836 74.1081 324.905 73.6427 325.12 73.2395C325.335 72.8363 325.684 72.5202 326.106 72.345C326.528 72.1698 326.998 72.1464 327.435 72.2787C327.873 72.4111 328.251 72.691 328.505 73.0708C328.759 73.4506 328.874 73.9068 328.83 74.3617C328.785 74.8166 328.584 75.2421 328.262 75.5656C328.079 75.7501 327.861 75.8963 327.621 75.9959C327.381 76.0955 327.123 76.1465 326.864 76.1458ZM326.864 73.2752C326.627 73.2764 326.4 73.3711 326.232 73.5386C326.065 73.7062 325.97 73.933 325.969 74.1699C325.969 74.4072 326.063 74.6348 326.231 74.8026C326.399 74.9704 326.626 75.0647 326.864 75.0647C327.101 75.0647 327.329 74.9704 327.496 74.8026C327.664 74.6348 327.758 74.4072 327.758 74.1699C327.757 73.933 327.662 73.7062 327.495 73.5386C327.327 73.3711 327.101 73.2764 326.864 73.2752Z" fill="url(#paint4_linear_484_6962)" stroke="black" stroke-width="0.5" stroke-miterlimit="10" stroke-linecap="round"/>
<path d="M230.569 32.2159C230.103 32.2169 229.651 32.0563 229.291 31.7614C228.93 31.4665 228.683 31.0556 228.591 30.5987C228.499 30.1419 228.569 29.6674 228.788 29.2562C229.007 28.845 229.362 28.5225 229.793 28.3437C230.223 28.165 230.702 28.141 231.148 28.2759C231.594 28.4109 231.979 28.6963 232.238 29.0836C232.497 29.4709 232.614 29.936 232.568 30.3998C232.523 30.8635 232.318 31.297 231.988 31.6264C231.802 31.8131 231.581 31.9613 231.337 32.0624C231.094 32.1636 230.833 32.2157 230.569 32.2159ZM230.569 29.2941C230.358 29.2936 230.154 29.3662 229.991 29.4995C229.827 29.6329 229.716 29.8187 229.674 30.0254C229.632 30.232 229.664 30.4467 229.763 30.6328C229.862 30.819 230.022 30.965 230.217 31.0461C230.411 31.1272 230.628 31.1383 230.83 31.0775C231.032 31.0167 231.206 30.8878 231.324 30.7127C231.441 30.5377 231.494 30.3273 231.474 30.1175C231.454 29.9077 231.361 29.7114 231.212 29.5621C231.042 29.3911 230.811 29.2947 230.569 29.2941Z" fill="url(#paint5_linear_484_6962)" stroke="black" stroke-width="0.5" stroke-miterlimit="10" stroke-linecap="round"/>
<path d="M326.714 66.7211C325.717 66.9355 325.095 67.1685 324.666 67.5949C324.237 68.0213 324.004 68.648 323.792 69.6453C323.786 69.6753 323.77 69.7022 323.746 69.7214C323.722 69.7405 323.692 69.7507 323.662 69.7501C323.631 69.7506 323.602 69.7404 323.578 69.7212C323.555 69.702 323.539 69.6751 323.534 69.6453C323.319 68.648 323.089 68.0143 322.66 67.5949C322.231 67.1755 321.607 66.9355 320.612 66.7211C320.582 66.7154 320.555 66.6995 320.536 66.6761C320.516 66.6527 320.506 66.6233 320.506 66.593C320.506 66.5626 320.516 66.5332 320.536 66.5098C320.555 66.4864 320.582 66.4705 320.612 66.4648C321.607 66.2505 322.231 66.0175 322.66 65.5911C323.089 65.1647 323.319 64.5379 323.534 63.5407C323.539 63.5109 323.555 63.484 323.578 63.4648C323.602 63.4456 323.631 63.4353 323.662 63.4358C323.692 63.4352 323.722 63.4454 323.746 63.4646C323.77 63.4837 323.786 63.5107 323.792 63.5407C324.004 64.5379 324.237 65.1717 324.666 65.5911C325.095 66.0105 325.717 66.2505 326.714 66.4648C326.744 66.4705 326.771 66.4864 326.79 66.5098C326.809 66.5332 326.82 66.5626 326.82 66.593C326.82 66.6233 326.809 66.6527 326.79 66.6761C326.771 66.6995 326.744 66.7154 326.714 66.7211Z" fill="url(#paint6_linear_484_6962)" stroke="black" stroke-width="0.5" stroke-miterlimit="10" stroke-linecap="round"/>
</g>
<defs>
<linearGradient id="paint0_linear_484_6962" x1="0" y1="0" x2="145.034" y2="338.524" gradientUnits="userSpaceOnUse">
<stop stop-color="#FFA756"/>
<stop offset="1" stop-color="#FFDAAF"/>
</linearGradient>
<linearGradient id="paint1_linear_484_6962" x1="212.469" y1="201.579" x2="312.641" y2="28.0756" gradientUnits="userSpaceOnUse">
<stop offset="0.38" stop-color="#A4C2FF"/>
<stop offset="0.56" stop-color="#B5DEED"/>
<stop offset="0.73" stop-color="#C6FCDB"/>
</linearGradient>
<linearGradient id="paint2_linear_484_6962" x1="213.784" y1="34.3924" x2="226.794" y2="34.3924" gradientUnits="userSpaceOnUse">
<stop offset="0.16" stop-color="#FEC2D9"/>
<stop offset="0.8" stop-color="#A4C2FF"/>
</linearGradient>
<linearGradient id="paint3_linear_484_6962" x1="208.551" y1="43.8009" x2="214.977" y2="43.8009" gradientUnits="userSpaceOnUse">
<stop offset="0.16" stop-color="#FEC2D9"/>
<stop offset="0.8" stop-color="#A4C2FF"/>
</linearGradient>
<linearGradient id="paint4_linear_484_6962" x1="324.89" y1="74.1699" x2="328.837" y2="74.1699" gradientUnits="userSpaceOnUse">
<stop offset="0.16" stop-color="#FEC2D9"/>
<stop offset="0.8" stop-color="#A4C2FF"/>
</linearGradient>
<linearGradient id="paint5_linear_484_6962" x1="228.558" y1="30.2051" x2="232.578" y2="30.2051" gradientUnits="userSpaceOnUse">
<stop offset="0.16" stop-color="#FEC2D9"/>
<stop offset="0.8" stop-color="#A4C2FF"/>
</linearGradient>
<linearGradient id="paint6_linear_484_6962" x1="320.507" y1="66.593" x2="326.819" y2="66.593" gradientUnits="userSpaceOnUse">
<stop offset="0.16" stop-color="#FEC2D9"/>
<stop offset="0.8" stop-color="#A4C2FF"/>
</linearGradient>
<clipPath id="clip0_484_6962">
<rect width="375" height="240" fill="white"/>
</clipPath>
</defs>
</svg>
