<svg width="375" height="240" viewBox="0 0 375 240" fill="none" xmlns="http://www.w3.org/2000/svg">
<g clip-path="url(#clip0_484_6957)">
<rect width="375" height="240" fill="url(#paint0_linear_484_6957)"/>
<path d="M355.97 82.2952L350.138 91.9231L344.299 101.551L347.376 106.275L350.456 110.998C350.938 110.001 351.449 108.829 351.977 107.465C352.505 106.101 353.037 104.588 353.532 102.91C354.156 100.79 354.655 98.6337 355.023 96.4539C355.339 94.5934 355.505 93.0438 355.631 91.8749C355.763 90.6193 355.872 89.1757 355.951 87.5731C356.031 85.9704 356.04 84.1967 355.97 82.2952Z" fill="url(#paint1_linear_484_6957)" stroke="black" stroke-width="0.5" stroke-miterlimit="10" stroke-linecap="round"/>
<path d="M330.697 209.172H295.961V191.844C295.964 191.065 296.276 190.318 296.828 189.768C297.381 189.218 298.129 188.91 298.909 188.911H330.697V209.177V209.172Z" fill="#F6991A" stroke="black" stroke-width="0.5" stroke-miterlimit="10" stroke-linecap="round"/>
<path d="M316.396 199.033C316.396 199.62 316.193 200.19 315.821 200.644C315.449 201.098 314.931 201.409 314.355 201.524C313.779 201.639 313.181 201.551 312.663 201.274C312.145 200.998 311.739 200.55 311.514 200.008C311.289 199.465 311.259 198.861 311.43 198.299C311.6 197.737 311.96 197.252 312.448 196.926C312.937 196.599 313.523 196.453 314.108 196.51C314.692 196.568 315.238 196.827 315.653 197.242C315.889 197.477 316.076 197.756 316.203 198.064C316.33 198.371 316.396 198.7 316.396 199.033Z" fill="#F6991A" stroke="black" stroke-width="0.5" stroke-miterlimit="10" stroke-linecap="round"/>
<path d="M261.498 209.172H226.852V188.911H258.79C259.144 188.911 259.495 188.981 259.823 189.117C260.15 189.252 260.448 189.451 260.698 189.702C260.949 189.952 261.148 190.25 261.283 190.577C261.419 190.905 261.489 191.256 261.489 191.61V209.177L261.498 209.172Z" fill="#F6991A" stroke="black" stroke-width="0.5" stroke-miterlimit="10" stroke-linecap="round"/>
<path d="M246.224 199.033C246.225 199.62 246.021 200.19 245.649 200.644C245.277 201.098 244.759 201.409 244.183 201.524C243.607 201.639 243.009 201.551 242.491 201.274C241.973 200.998 241.567 200.55 241.342 200.008C241.117 199.465 241.087 198.861 241.258 198.299C241.428 197.737 241.788 197.252 242.277 196.926C242.765 196.599 243.351 196.453 243.936 196.51C244.52 196.568 245.067 196.827 245.482 197.242C245.717 197.477 245.904 197.756 246.031 198.064C246.159 198.371 246.224 198.7 246.224 199.033Z" fill="#F6991A" stroke="black" stroke-width="0.5" stroke-miterlimit="10" stroke-linecap="round"/>
<path d="M221.733 79.8684C221.729 79.8582 221.723 79.8485 221.716 79.8395C221.7 79.8155 221.679 79.7957 221.654 79.7816C221.314 79.6551 220.967 79.5489 220.615 79.4635C220.133 79.3334 219.651 79.2225 219.579 79.1912C219.609 78.902 219.633 78.6104 219.651 78.3164C219.668 78.0223 219.678 77.7235 219.678 77.4247C219.678 73.6868 218.424 70.3031 216.4 67.8521C214.376 65.4012 211.58 63.8877 208.49 63.8877C205.401 63.8877 202.603 65.4036 200.578 67.8521C198.554 70.3007 197.301 73.6868 197.301 77.4247C197.301 81.1626 198.554 84.5486 200.578 86.9972C202.603 89.4457 205.398 90.964 208.49 90.964C210.919 90.9401 213.254 90.024 215.05 88.3902C216.988 86.6338 218.382 84.359 219.068 81.835C219.27 81.6904 219.892 81.3144 220.483 80.9408C221.073 80.5673 221.627 80.1962 221.7 80.0612C221.725 80.0187 221.739 79.9707 221.741 79.9214C221.741 79.9035 221.739 79.8856 221.733 79.8684Z" fill="#F2B3C1" stroke="black" stroke-width="0.5" stroke-miterlimit="10" stroke-linecap="round"/>
<path d="M221.109 71.7199H217.174C217.692 76.2989 217.075 80.4127 215.817 83.6108C214.559 86.8089 212.665 89.0839 210.621 89.9732C208.857 90.7373 206.946 91.0987 205.025 91.0312C203.104 90.9654 201.225 90.4548 199.535 89.5394C195.091 87.1149 192.857 82.5745 192.546 77.781C192.235 72.9875 193.823 67.9458 197.041 64.5139C198.312 63.1628 199.832 62.0703 201.518 61.2966C203.202 60.5178 205.022 60.0796 206.876 60.0073C210.252 59.8989 213.547 61.0509 216.121 63.2391C218.705 65.4122 220.465 68.4055 221.109 71.7199Z" fill="#040400" stroke="#040400" stroke-width="0.5" stroke-miterlimit="10"/>
<path d="M177.741 51.4712C176.623 52.7195 176.621 54.7512 177.519 57.0141C178.418 59.2771 180.219 61.81 182.706 64.0345C185.193 66.2589 187.897 67.7772 190.259 68.411C192.621 69.0449 194.64 68.8231 195.756 67.5748C196.872 66.3264 196.874 64.2948 195.975 62.0197C195.076 59.7447 193.276 57.2238 190.789 54.9994C188.302 52.775 185.598 51.2687 183.236 50.6301C180.874 49.9914 178.857 50.2228 177.741 51.4712Z" fill="#040400" stroke="#040400" stroke-width="0.5" stroke-miterlimit="10"/>
<path d="M334.473 209.114H332.557H330.641V158.396V107.675H332.557H334.473V158.396V209.114Z" fill="#F6991A" stroke="black" stroke-width="0.5" stroke-miterlimit="10" stroke-linecap="round"/>
<path d="M226.852 209.114H224.936H223.021V158.396V107.675H224.936H226.852V158.396V209.114Z" fill="#F6991A" stroke="black" stroke-width="0.5" stroke-miterlimit="10" stroke-linecap="round"/>
<path d="M335.702 92.7253C335.702 114.186 329.323 133.616 319.011 147.673C308.698 161.731 294.453 170.436 278.718 170.436C262.983 170.436 248.737 161.736 238.425 147.673C228.113 133.611 221.733 114.174 221.733 92.7253C221.733 71.2763 228.113 51.8349 238.425 37.7773C248.737 23.7198 262.983 15.0149 278.718 15.0149C294.453 15.0149 308.701 23.7126 319.011 37.7773C329.321 51.8421 335.702 71.2643 335.702 92.7253Z" fill="#F6991A" stroke="black" stroke-width="0.5" stroke-miterlimit="10" stroke-linecap="round"/>
<path d="M331.777 92.7255C331.777 112.709 325.838 130.803 316.237 143.895C306.635 156.986 293.371 165.091 278.718 165.091C264.065 165.091 250.801 156.991 241.199 143.895C231.598 130.799 225.659 112.709 225.659 92.7255C225.659 72.7417 231.598 54.6475 241.199 41.5563C250.801 28.4652 264.065 20.3628 278.718 20.3628C293.371 20.3628 306.635 28.4628 316.237 41.5563C325.838 54.6499 331.777 72.749 331.777 92.7255Z" fill="url(#paint2_linear_484_6957)" stroke="black" stroke-width="0.5" stroke-miterlimit="10" stroke-linecap="round"/>
<path d="M302.56 56.3416C303.676 57.59 303.678 59.6216 302.779 61.8967C301.88 64.1717 300.08 66.6926 297.593 68.917C295.106 71.1414 292.402 72.6477 290.04 73.2863C287.678 73.925 285.659 73.6984 284.543 72.45C283.427 71.2017 283.425 69.17 284.323 66.895C285.222 64.62 287.023 62.0991 289.51 59.8747C291.997 57.6502 294.701 56.144 297.063 55.5029C299.425 54.8619 301.444 55.0932 302.56 56.3416Z" fill="#040400" stroke="#040400" stroke-width="0.5" stroke-miterlimit="10"/>
<path d="M251.678 154.875C254.037 156.545 256.233 157.981 257.968 159.07C259.703 160.16 260.983 160.907 261.508 161.196C263.489 162.288 266.861 163.577 271.083 164.353C275.932 165.254 280.902 165.285 285.762 164.445C288.829 163.9 291.822 162.998 294.679 161.758C296.554 160.936 298.375 159.996 300.131 158.943C301.725 158.033 303.269 157.037 304.756 155.959C305.851 155.136 306.885 154.233 307.848 153.258C307.833 153.142 307.296 152.674 306.761 152.207C306.226 151.739 305.688 151.274 305.671 151.156H251.687L251.673 153.014L251.678 154.875Z" fill="#84A1E5" stroke="#070707" stroke-width="0.5" stroke-miterlimit="10" stroke-linecap="round"/>
<path d="M260.052 160.345C259.838 160.22 259.616 160.085 259.392 159.943C259.168 159.801 258.939 159.654 258.708 159.495L258.281 159.198L257.876 158.899V151.161H260.052C260.052 152.694 260.052 154.225 260.052 155.754C260.052 157.284 260.052 158.814 260.052 160.345Z" fill="#DBCAF4" stroke="black" stroke-width="0.5" stroke-miterlimit="10" stroke-linecap="round"/>
<path d="M298.42 159.931L297.938 160.191C297.776 160.278 297.612 160.365 297.456 160.449C297.299 160.533 297.085 160.642 296.901 160.733L296.357 161.003V156.082V151.161H298.403C298.403 152.623 298.403 154.085 298.403 155.547C298.403 157.009 298.408 158.47 298.42 159.931Z" fill="#DBCAF4" stroke="black" stroke-width="0.5" stroke-miterlimit="10" stroke-linecap="round"/>
<path d="M286.206 164.37C285.941 164.43 285.668 164.483 285.384 164.532C285.1 164.58 284.808 164.618 284.504 164.65L284.302 164.671L284.102 164.688V151.161H286.208V164.37H286.206Z" fill="#DBCAF4" stroke="black" stroke-width="0.5" stroke-miterlimit="10" stroke-linecap="round"/>
<path d="M273.247 164.679C272.958 164.657 272.657 164.626 272.348 164.582C272.04 164.539 271.722 164.481 271.384 164.409L271.177 164.36L270.975 164.31V151.161H273.192C273.192 153.41 273.2 155.66 273.216 157.909L273.247 164.679Z" fill="#DBCAF4" stroke="black" stroke-width="0.5" stroke-miterlimit="10" stroke-linecap="round"/>
<path d="M321.826 115.016C321.173 114.148 320.351 113.073 319.37 111.844C318.389 110.615 317.247 109.232 315.96 107.747C313.918 105.392 312.222 103.433 310.506 101.681C308.804 99.9138 306.949 98.3008 304.963 96.861C303.76 95.9787 302.513 95.1574 301.227 94.4004C299.332 93.2923 297.339 92.359 295.275 91.612C292.578 90.6346 289.771 89.9927 286.917 89.7009C284.667 89.4903 282.406 89.4155 280.147 89.4767C277.657 89.478 275.17 89.6389 272.7 89.9587C269.085 90.4463 265.54 91.3605 262.14 92.682C259.765 93.6153 257.475 94.7489 255.293 96.0705C251.226 98.5072 247.515 101.495 244.267 104.949C242.657 106.658 241.167 108.476 239.809 110.391C238.764 111.87 237.799 113.403 236.917 114.984L244.388 122.354L251.859 129.724L251.779 140.443C251.752 144.015 251.726 147.587 251.702 151.161H305.686C305.856 147.843 306.026 144.524 306.197 141.203C306.367 137.882 306.537 134.561 306.708 131.242L314.278 123.13C316.79 120.426 319.306 117.721 321.826 115.016Z" fill="#ECE7E1" stroke="black" stroke-width="0.5" stroke-miterlimit="10" stroke-linecap="round"/>
<path d="M349.854 209.114V211.03V212.946H277.735H205.615V211.03V209.114H277.735H349.854Z" fill="#F6991A" stroke="black" stroke-width="0.5" stroke-miterlimit="10" stroke-linecap="round"/>
<path d="M283.731 81.8516C283.731 85.4666 282.477 88.7418 280.453 91.1108C278.429 93.4798 275.633 94.9451 272.543 94.9451C269.454 94.9451 266.656 93.475 264.631 91.1108C262.607 88.7466 261.356 85.4666 261.356 81.8516C261.356 78.2366 262.607 74.9614 264.631 72.5924C266.656 70.2233 269.451 68.7581 272.543 68.7581C275.635 68.7581 278.429 70.2233 280.453 72.5924C282.477 74.9614 283.731 78.2366 283.731 81.8516Z" fill="#F2B3C1" stroke="black" stroke-width="0.5" stroke-miterlimit="10" stroke-linecap="round"/>
<path d="M274.498 82.495C274.498 82.6759 274.426 82.8492 274.298 82.977C274.235 83.0406 274.16 83.091 274.077 83.1254C273.994 83.1598 273.906 83.1775 273.816 83.1775C273.726 83.1775 273.638 83.1598 273.555 83.1254C273.472 83.091 273.397 83.0406 273.334 82.977C273.27 82.914 273.22 82.839 273.185 82.7562C273.15 82.6735 273.133 82.5847 273.133 82.495C273.133 82.4053 273.15 82.3166 273.185 82.2338C273.22 82.1511 273.27 82.076 273.334 82.013C273.429 81.9182 273.55 81.8538 273.682 81.8278C273.814 81.8018 273.951 81.8155 274.075 81.867C274.199 81.9186 274.305 82.0058 274.379 82.1176C274.454 82.2293 274.493 82.3607 274.493 82.495H274.498Z" fill="#020202"/>
<path d="M266.318 82.712C266.319 82.8698 266.264 83.0228 266.164 83.1448C266.064 83.2669 265.925 83.3505 265.77 83.3814C265.615 83.4123 265.455 83.3886 265.315 83.3143C265.176 83.24 265.067 83.1197 265.006 82.974C264.946 82.8282 264.938 82.666 264.984 82.515C265.029 82.364 265.126 82.2334 265.257 82.1457C265.388 82.0579 265.546 82.0184 265.703 82.0338C265.86 82.0491 266.007 82.1185 266.118 82.23C266.182 82.293 266.233 82.3681 266.267 82.4509C266.301 82.5337 266.319 82.6224 266.318 82.712Z" fill="#020202"/>
<path d="M268.673 85.4837L268.037 84.9004L267.403 84.3172C267.394 84.3099 267.388 84.3005 267.385 84.2898C267.381 84.2792 267.381 84.2678 267.384 84.257C267.386 84.2457 267.391 84.2353 267.399 84.2268C267.406 84.2183 267.416 84.2121 267.427 84.2088L268.205 84.0184L268.986 83.828V79.8081" stroke="black" stroke-width="0.5" stroke-miterlimit="10" stroke-linecap="round"/>
<path d="M271.963 88.0278C271.816 88.385 271.575 88.6957 271.266 88.9267C270.959 89.1544 270.596 89.2928 270.215 89.3268C269.802 89.3632 269.388 89.2733 269.027 89.0689C268.661 88.8641 268.365 88.5555 268.174 88.1821" stroke="black" stroke-width="0.5" stroke-miterlimit="10" stroke-linecap="round"/>
<path d="M271.931 78.1716L273.953 78.6825L275.978 79.1911" stroke="black" stroke-width="0.5" stroke-miterlimit="10" stroke-linecap="round"/>
<path d="M184.668 155.99C184.668 157.661 184.668 159.332 184.668 161.001C184.668 162.67 184.66 164.342 184.644 166.016C183.67 167.304 182.812 168.675 182.079 170.113C181.109 172.033 180.38 174.065 179.91 176.165C179.005 180.305 179.105 184.603 180.202 188.697C180.844 191.153 181.798 193.518 183.041 195.731L183.077 204.335L183.116 212.936H243.72L238.647 184.467L233.574 155.99H184.668Z" fill="#84A1E5" stroke="#070707" stroke-width="0.5" stroke-miterlimit="10" stroke-linecap="round"/>
<path d="M267.466 78.251L265.612 79.2704L263.761 80.2898" stroke="black" stroke-width="0.5" stroke-miterlimit="10" stroke-linecap="round"/>
<path d="M259.19 76.5906H265.634L267.181 74.3348L268.728 72.0791C268.78 72.8133 268.829 73.5468 268.875 74.2794C268.926 75.0024 268.974 75.7471 269.025 76.4797L273.662 76.5352L278.301 76.5906C278.355 77.3796 278.603 78.143 279.024 78.8126C279.704 79.861 281.029 80.7864 283.603 80.2923C283.676 80.8614 283.714 81.4345 283.716 82.0083C283.727 84.1461 283.249 86.2581 282.318 88.1827C281.875 89.1047 281.339 89.9792 280.718 90.7927C281.394 90.3379 282.028 89.8241 282.612 89.2575C283.359 88.5352 284.016 87.7261 284.569 86.8475C284.929 86.241 285.242 85.6078 285.504 84.9533C286.131 83.4497 286.525 81.8593 286.671 80.2369C286.671 80.0923 286.693 79.9405 286.7 79.8248C286.707 79.7091 286.714 79.6272 286.714 79.6272C286.729 79.3669 286.743 79.0922 286.753 78.8078C286.763 78.5234 286.77 78.2222 286.772 77.9137C286.792 76.2808 286.482 74.6607 285.861 73.1504C285.24 71.6401 284.32 70.2708 283.157 69.1244C280.906 66.8711 277.8 65.3889 274.39 64.9479L274.3 64.9358H274.209C273.217 64.8437 272.219 64.8542 271.23 64.9672C269.88 65.1234 268.563 65.4867 267.323 66.0444C264.58 67.3126 262.323 69.4371 260.891 72.0983C260.104 73.5031 259.531 75.0171 259.19 76.5906Z" fill="#040400" stroke="#040400" stroke-width="0.5" stroke-miterlimit="10"/>
<path d="M301.835 27.5737L300.261 34.6061L298.687 41.6361L303.507 37.1583L308.327 32.6805L305.074 30.1259L301.835 27.5737Z" fill="#040400"/>
<path d="M237.075 47.8779C238.854 49.7192 240.632 51.5596 242.409 53.3992L247.742 58.923L240.575 56.995L233.407 55.067C233.648 54.5199 233.909 53.9632 234.176 53.3968C234.444 52.8305 234.728 52.2593 235.022 51.6785C235.363 51.0085 235.704 50.3578 236.046 49.7264C236.389 49.0829 236.733 48.4708 237.075 47.8779Z" fill="#040400"/>
<path d="M321.826 115.016L314.277 123.13L306.72 131.242L312.077 136.73L317.437 142.217C318.767 140.227 320.112 138.029 321.416 135.616C322.799 133.061 324.046 130.435 325.151 127.748C325.58 126.704 325.978 125.673 326.356 124.66C326.735 123.648 327.079 122.655 327.381 121.682L324.592 118.349L321.826 115.016Z" fill="#F2B3C1" stroke="black" stroke-width="0.5" stroke-miterlimit="10" stroke-linecap="round"/>
<path d="M321.322 49.5889L315.008 64.7719L308.693 79.9525L313.882 81.8539L319.071 83.7554L314.887 92.8194L310.703 101.881" stroke="black" stroke-width="0.5" stroke-miterlimit="10" stroke-linecap="round"/>
<path d="M226.725 78.2317L229.205 86.0377L231.684 93.8413L236.422 93.2845L241.161 92.7254L241.517 100.201L241.871 107.675" stroke="black" stroke-width="0.5" stroke-miterlimit="10" stroke-linecap="round"/>
<path d="M206.16 87.9562C199.897 87.932 193.694 89.1705 187.921 91.5977C181.691 94.2318 175.813 98.43 171.796 104.612C169.272 108.509 167.749 112.786 166.785 116.553C166.069 119.472 165.553 122.437 165.243 125.427C165.089 126.748 165.002 127.965 164.942 129.042C164.881 130.119 164.869 131.078 164.869 131.866H180.069L182.368 143.916L184.668 155.966H233.574L233.704 150.664C233.747 148.897 233.791 147.13 233.836 145.362C233.342 144.748 232.846 144.116 232.347 143.475C231.848 142.834 231.352 142.174 230.85 141.504C230.108 140.508 229.394 139.521 228.708 138.544C228.022 137.568 227.361 136.604 226.724 135.652L237.673 125.88L248.622 116.129C247.969 115.105 247.154 113.854 246.183 112.43C245.212 111.005 244.089 109.41 242.809 107.694C241.821 106.361 240.722 104.927 239.702 103.636C238.683 102.344 237.743 101.202 237.071 100.445C234.586 97.6564 231.424 95.4175 227.99 93.6438C224.581 91.9189 220.995 90.5694 217.294 89.6191C216.253 89.3443 214.735 88.9418 212.845 88.602C210.639 88.2016 208.402 87.9856 206.16 87.9562Z" fill="#ECE7E1" stroke="black" stroke-width="0.5" stroke-miterlimit="10" stroke-linecap="round"/>
<path d="M226.725 135.682L223.247 131.64L219.769 127.598" stroke="black" stroke-width="0.5" stroke-miterlimit="10" stroke-linecap="round"/>
<path d="M164.869 131.874L164.192 141.755L163.517 151.636C163.489 151.821 163.452 152.067 163.414 152.359C163.375 152.65 163.339 153.002 163.305 153.385C163.18 154.868 163.023 156.759 163.219 158.548C163.414 160.336 163.966 162.066 165.26 163.223C165.698 163.605 166.184 163.929 166.706 164.187C167.018 164.344 167.34 164.482 167.67 164.599C168.549 164.897 169.473 165.038 170.4 165.016H184.571L184.619 160.502L184.668 155.991L182.368 143.941L180.069 131.891H164.869V131.874Z" fill="#F2B3C1" stroke="black" stroke-width="0.5" stroke-miterlimit="10" stroke-linecap="round"/>
<path d="M226.725 135.681C228.959 139.014 231.508 142.497 234.306 145.986C237.104 149.476 240.156 152.975 243.392 156.349C243.633 156.59 244.031 157.072 244.585 157.651C245.262 158.37 245.975 159.054 246.723 159.699C247.914 160.748 249.175 161.714 250.497 162.591C252.15 163.666 254.09 164.652 255.992 164.941C258.303 165.295 260.419 164.599 262.872 162.982C265.326 161.365 268.116 158.829 271.777 155.499C272.777 154.588 273.756 153.66 275.419 151.922C277.082 150.185 279.434 147.637 283.184 143.487L283.627 143.005L284.063 142.523C285.155 141.318 286.84 139.45 288.946 137.175C291.052 134.9 293.576 132.213 296.345 129.353C296.345 129.353 296.844 128.837 298.094 127.241C299.345 125.646 301.345 122.964 304.36 118.633C304.434 118.528 304.498 118.417 304.551 118.3C304.643 118.103 304.701 117.891 304.722 117.674C304.749 117.346 304.701 117.016 304.582 116.71C304.463 116.387 304.247 116.11 303.963 115.917C303.682 115.742 303.355 115.658 303.025 115.676C302.646 115.695 302.279 115.818 301.965 116.032C301.5 116.348 301.077 116.722 300.707 117.146C300.107 117.831 299.544 118.547 299.02 119.291C299.008 119.31 298.984 119.341 298.952 119.382L298.837 119.532C298.631 119.8 298.411 120.057 298.176 120.301C297.973 120.517 297.727 120.688 297.453 120.804C297.005 120.96 296.517 120.954 296.072 120.787C295.829 120.706 295.597 120.592 295.383 120.45C295.132 120.276 294.915 120.056 294.744 119.802C294.632 119.64 294.542 119.463 294.477 119.276C294.438 119.158 294.409 119.035 294.383 118.917C294.356 118.799 294.34 118.676 294.325 118.551C294.124 116.823 294.095 115.079 294.238 113.345C294.465 110.316 295.198 107.347 296.407 104.561C296.525 104.289 296.648 104.021 296.786 103.756C296.923 103.491 297.056 103.231 297.195 102.968C297.405 102.581 297.547 102.161 297.615 101.727C297.668 101.448 297.648 101.161 297.558 100.893C297.467 100.624 297.309 100.384 297.099 100.194C296.946 100.054 296.767 99.9453 296.571 99.8758C296.376 99.8062 296.169 99.7767 295.962 99.7891C295.558 99.8158 295.176 99.978 294.877 100.249C294.642 100.47 294.444 100.726 294.289 101.009C294.134 101.293 293.995 101.587 293.874 101.888C294.124 101.229 294.335 100.556 294.508 99.8734C294.681 99.1946 294.736 98.491 294.67 97.7936C294.655 97.6582 294.622 97.5254 294.573 97.3983C294.525 97.2723 294.454 97.1563 294.364 97.0561C294.231 96.9201 294.07 96.8134 293.894 96.7428C293.717 96.6723 293.527 96.6394 293.337 96.6464C292.955 96.6491 292.584 96.7685 292.272 96.9886C292.12 97.1006 291.983 97.23 291.862 97.3742C291.74 97.5177 291.628 97.67 291.527 97.8297C291.438 97.9671 291.24 98.2708 291.074 98.5817C290.908 98.8925 290.78 99.2058 290.833 99.3649C290.754 99.1375 290.628 98.9296 290.462 98.7552C290.194 98.4853 289.768 98.29 289.129 98.5817C288.854 98.6974 288.613 98.8836 288.433 99.1215C288.009 99.5914 287.43 100.461 286.818 102.062C286.684 101.918 286.514 101.813 286.326 101.756C286.138 101.7 285.939 101.695 285.748 101.741C285.078 101.9 284.14 102.705 283.063 105.243C282.822 105.773 282.581 106.344 282.357 106.954C282.133 107.564 281.918 108.212 281.723 108.901C281.435 109.931 281.212 110.977 281.056 112.034C280.918 112.965 280.83 113.902 280.793 114.842C280.763 115.738 280.601 116.625 280.311 117.474C280.021 118.322 279.601 119.119 279.065 119.838V119.852C278.052 121.213 276.936 122.494 275.725 123.682C274.52 124.87 273.175 126.06 271.488 127.538C269.868 128.945 268.355 130.237 267.003 131.394C265.651 132.551 264.415 133.587 263.349 134.479C260.901 131.426 258.451 128.368 255.999 125.306L248.622 116.129L237.673 125.904L226.725 135.681Z" fill="#F2B3C1" stroke="black" stroke-width="0.5" stroke-miterlimit="10" stroke-linecap="round"/>
<path d="M286.816 102.062C286.816 102.062 286.379 103.33 285.852 105.236C285.209 107.532 284.715 109.866 284.372 112.225" stroke="black" stroke-width="0.5" stroke-miterlimit="10" stroke-linecap="round"/>
<path d="M290.831 99.365C290.831 99.365 290.122 101.199 289.363 103.722C288.604 106.246 287.796 109.458 287.594 112.22" stroke="black" stroke-width="0.5" stroke-miterlimit="10" stroke-linecap="round"/>
<path d="M294.118 101.206C294.118 101.206 293.318 103.101 292.506 105.477C291.693 107.853 290.874 110.707 290.831 112.627" stroke="black" stroke-width="0.5" stroke-miterlimit="10" stroke-linecap="round"/>
<path d="M263.32 134.479L261.747 135.817L260.175 137.157" stroke="black" stroke-width="0.5" stroke-miterlimit="10" stroke-linecap="round"/>
<path d="M195.248 212.965L195.202 210.343L195.156 207.721C195.115 205.507 194.909 203.299 194.539 201.115C194.162 198.882 193.625 196.678 192.934 194.522C191.023 188.542 190.779 182.45 191.36 176.35C191.941 170.25 193.346 164.146 194.734 158.143C194.828 157.74 194.903 157.4 194.975 157.063C195.048 156.726 195.127 156.386 195.216 155.99H197.419C197.33 156.388 197.231 156.846 197.135 157.306C197.038 157.767 196.937 158.227 196.843 158.627C195.491 164.488 194.122 170.45 193.536 176.379C192.951 182.308 193.173 188.176 194.982 193.871C195.708 196.128 196.272 198.434 196.669 200.771C197.056 203.059 197.272 205.372 197.313 207.692L197.359 210.314L197.405 212.936L196.32 212.956L195.248 212.965Z" fill="#DBCAF4" stroke="black" stroke-width="0.5" stroke-miterlimit="10" stroke-linecap="round"/>
<path d="M215.99 212.965L215.949 210.343L215.904 207.721C215.863 205.507 215.656 203.299 215.287 201.115C214.909 198.882 214.373 196.678 213.682 194.522C211.77 188.542 211.529 182.45 212.11 176.35C212.691 170.25 214.094 164.146 215.484 158.143C215.576 157.743 215.651 157.403 215.725 157.063C215.8 156.723 215.877 156.386 215.966 155.99H218.171C218.08 156.388 217.983 156.846 217.885 157.306C217.786 157.767 217.687 158.227 217.595 158.629C216.248 164.488 214.877 170.438 214.299 176.369C213.72 182.3 213.935 188.166 215.745 193.861C216.471 196.118 217.035 198.424 217.432 200.761C217.818 203.049 218.034 205.363 218.077 207.683L218.123 210.305L218.169 212.927L217.085 212.946L215.99 212.965Z" fill="#DBCAF4" stroke="black" stroke-width="0.5" stroke-miterlimit="10" stroke-linecap="round"/>
<path d="M227.182 212.965L227.137 210.343L227.091 207.721C227.05 205.507 226.844 203.299 226.474 201.115C226.096 198.882 225.559 196.678 224.866 194.522C222.955 188.542 222.714 182.45 223.295 176.35C223.876 170.25 225.279 164.146 226.669 158.143C226.761 157.74 226.847 157.403 226.932 157.065C227.016 156.728 227.103 156.391 227.194 155.993H229.363C229.272 156.391 229.176 156.848 229.077 157.309C228.978 157.769 228.879 158.227 228.788 158.627C227.44 164.488 226.069 170.451 225.491 176.369C224.912 182.288 225.127 188.166 226.937 193.861C227.664 196.118 228.228 198.424 228.624 200.761C229.01 203.049 229.226 205.363 229.27 207.683L229.315 210.305L229.361 212.927L228.277 212.946L227.182 212.965Z" fill="#DBCAF4" stroke="black" stroke-width="0.5" stroke-miterlimit="10" stroke-linecap="round"/>
<path d="M204.437 174.01C203.673 175.794 203.095 177.651 202.711 179.553C201.725 184.399 202.086 189.423 203.755 194.078C204.261 195.496 204.883 196.871 205.615 198.187V212.888" stroke="black" stroke-width="0.5" stroke-miterlimit="10" stroke-linecap="round"/>
<path d="M179.566 128.488L179.91 130.669L180.255 132.847" stroke="black" stroke-width="0.5" stroke-miterlimit="10" stroke-linecap="round"/>
<path d="M341.069 114.743L342.231 121.737L343.39 128.731L346.632 124.877L349.873 121.021L345.472 117.884L341.069 114.743Z" fill="url(#paint3_linear_484_6957)" stroke="black" stroke-width="0.5" stroke-miterlimit="10" stroke-linecap="round"/>
<path d="M323.655 131.221L314.186 137.318L304.719 143.415L305.418 149.011L306.117 154.605C306.978 153.916 307.963 153.079 309.031 152.094C310.099 151.108 311.246 149.973 312.427 148.681C313.916 147.048 315.308 145.329 316.594 143.531C317.693 141.996 318.522 140.678 319.151 139.675C319.821 138.603 320.558 137.359 321.32 135.949C322.081 134.539 322.876 132.958 323.655 131.221Z" fill="#040400"/>
<path d="M324.816 9.98764L322.888 19.7987L320.96 29.6123L328.634 23.1968L336.307 16.779C336.102 15.9194 335.778 15.0928 335.343 14.3232C334.553 12.8968 333.392 11.7101 331.983 10.8882C330.575 10.0662 328.971 9.63934 327.34 9.65265C326.487 9.64937 325.638 9.76207 324.816 9.98764Z" fill="url(#paint4_linear_484_6957)" stroke="black" stroke-width="0.5" stroke-miterlimit="10" stroke-linecap="round"/>
<path d="M215.694 27.8989L222.413 35.3699L229.135 42.865L228.019 32.5478L226.903 22.2282C225.769 21.5563 224.48 21.1908 223.163 21.1678C221.855 21.1459 220.565 21.4719 219.425 22.1125C218.047 22.9 216.964 24.1161 216.34 25.5757C216.01 26.3134 215.792 27.0965 215.694 27.8989Z" fill="url(#paint5_linear_484_6957)" stroke="black" stroke-width="0.5" stroke-miterlimit="10" stroke-linecap="round"/>
<path d="M232.981 26.0266L235.815 29.4175L238.652 32.8084L239.792 29.9742L240.932 27.1376L236.955 26.5833L232.981 26.0266Z" fill="url(#paint6_linear_484_6957)" stroke="black" stroke-width="0.5" stroke-miterlimit="10" stroke-linecap="round"/>
<path d="M252.099 171.61L254.121 174.916L256.143 178.225C256.603 177.93 256.999 177.545 257.307 177.093C257.615 176.641 257.828 176.132 257.934 175.596C258.043 175.106 258.052 174.599 257.961 174.106C257.869 173.612 257.679 173.143 257.401 172.725C257.123 172.307 256.764 171.95 256.344 171.674C255.925 171.399 255.454 171.211 254.96 171.123C253.979 170.927 252.96 171.101 252.099 171.61Z" fill="#FF6406" stroke="#070707" stroke-width="0.5" stroke-miterlimit="10" stroke-linecap="round"/>
<path d="M253.133 170.974C252.672 170.236 251.987 169.665 251.179 169.342C250.403 168.986 249.519 168.949 248.716 169.238C248.572 169.296 248.434 169.368 248.306 169.455C248.143 169.564 248.002 169.702 247.889 169.863C247.465 170.475 247.535 171.325 247.872 172.111C248.192 172.882 248.755 173.527 249.475 173.948C249.492 173.956 249.505 173.969 249.514 173.985C249.523 174.002 249.526 174.021 249.523 174.039C249.52 174.057 249.511 174.074 249.499 174.088C249.486 174.101 249.469 174.11 249.451 174.114C249.026 174.199 248.639 174.413 248.34 174.726C248.034 175.036 247.829 175.432 247.754 175.861C247.679 176.349 247.763 176.848 247.995 177.283C248.222 177.724 248.577 178.087 249.015 178.322C249.415 178.53 249.862 178.631 250.314 178.616C250.767 178.606 251.211 178.488 251.61 178.273C251.625 178.263 251.642 178.257 251.661 178.257C251.679 178.257 251.697 178.263 251.711 178.273C251.726 178.285 251.736 178.301 251.741 178.319C251.745 178.336 251.744 178.355 251.738 178.372C251.583 178.784 251.465 179.209 251.386 179.642C251.312 180.078 251.309 180.522 251.376 180.958C251.476 181.632 251.829 182.243 252.362 182.667C252.64 182.883 252.97 183.022 253.318 183.069C253.667 183.117 254.022 183.072 254.348 182.939C254.517 182.877 254.679 182.796 254.83 182.698C254.982 182.597 255.123 182.479 255.252 182.349C255.909 181.642 256.365 180.773 256.572 179.83C256.815 178.888 256.79 177.896 256.5 176.967C256.308 176.411 255.97 175.917 255.522 175.536C255.3 175.377 255.056 175.251 254.799 175.162C254.552 175.082 254.329 174.941 254.15 174.752C254.002 174.556 253.914 174.321 253.897 174.075C253.868 173.82 253.863 173.511 253.801 173.087C253.762 172.827 253.709 172.568 253.642 172.314C253.533 171.846 253.362 171.396 253.133 170.974Z" fill="#ECE7E1" stroke="black" stroke-width="0.5" stroke-miterlimit="10" stroke-linecap="round"/>
<path d="M257.315 172.608C257.691 172.486 258.08 172.405 258.474 172.367C259.07 172.303 259.673 172.345 260.255 172.489C260.516 172.559 260.771 172.651 261.016 172.764C261.603 173.028 262.146 173.382 262.624 173.813C263.937 175.005 264.465 176.791 264.66 178.329C264.784 179.338 264.794 180.359 264.689 181.37" stroke="black" stroke-width="0.5" stroke-miterlimit="10" stroke-linecap="round"/>
<path d="M283.145 86.6669C283.232 86.3222 283.316 85.9439 283.386 85.5583C283.456 85.1727 283.526 84.7485 283.576 84.3099C283.661 83.586 283.702 82.8577 283.699 82.1289C283.699 81.4541 283.654 80.8395 283.596 80.2924C283.962 80.2805 284.329 80.2918 284.695 80.3262C285.061 80.3612 285.412 80.4917 285.712 80.7045C286.599 81.348 286.811 82.4325 286.601 83.4833C286.391 84.534 285.76 85.5486 284.965 86.062C284.648 86.2671 284.303 86.4239 283.94 86.5271C283.681 86.6004 283.414 86.6473 283.145 86.6669Z" fill="#F2B3C1" stroke="black" stroke-width="0.5" stroke-miterlimit="10" stroke-linecap="round"/>
<path d="M277.766 85.6425C277.767 86.0574 277.623 86.4598 277.361 86.7809C277.098 87.102 276.732 87.322 276.325 87.4035C275.918 87.4849 275.496 87.4228 275.129 87.2275C274.763 87.0323 274.476 86.7162 274.317 86.333C274.158 85.9497 274.137 85.5232 274.257 85.126C274.377 84.7289 274.631 84.3857 274.976 84.155C275.321 83.9243 275.735 83.8203 276.148 83.8609C276.561 83.9014 276.947 84.0839 277.241 84.3773C277.408 84.5429 277.54 84.74 277.63 84.9572C277.72 85.1744 277.767 85.4073 277.766 85.6425Z" fill="#FF6406" stroke="#070707" stroke-width="0.5" stroke-miterlimit="10" stroke-linecap="round"/>
<path d="M266.769 85.8329C266.77 86.2479 266.627 86.6502 266.364 86.9713C266.101 87.2924 265.735 87.5125 265.328 87.5939C264.921 87.6754 264.499 87.6132 264.133 87.418C263.766 87.2228 263.479 86.9066 263.32 86.5234C263.161 86.1402 263.14 85.7136 263.26 85.3165C263.38 84.9193 263.634 84.5761 263.979 84.3454C264.324 84.1147 264.738 84.0108 265.151 84.0513C265.564 84.0918 265.95 84.2743 266.244 84.5677C266.41 84.7336 266.542 84.9308 266.633 85.1479C266.723 85.365 266.769 85.5978 266.769 85.8329Z" fill="#FF6406" stroke="#070707" stroke-width="0.5" stroke-miterlimit="10" stroke-linecap="round"/>
<path d="M251.47 178.348C251.766 178.187 252.049 178.001 252.314 177.794C252.682 177.505 253.014 177.174 253.304 176.808C253.543 176.507 253.754 176.184 253.933 175.844C254.067 175.582 254.181 175.31 254.276 175.032" fill="#F2B3C1"/>
<path d="M251.47 178.348C251.766 178.187 252.049 178.001 252.314 177.794C252.682 177.505 253.014 177.174 253.304 176.808C253.543 176.507 253.754 176.184 253.933 175.844C254.067 175.582 254.181 175.31 254.276 175.032" stroke="black" stroke-width="0.5" stroke-miterlimit="10" stroke-linecap="round"/>
<path d="M249.171 174.188C249.617 174.051 250.071 173.945 250.531 173.87C251.101 173.777 251.678 173.734 252.256 173.743C252.56 173.743 252.847 173.767 253.119 173.793C253.391 173.82 253.647 173.858 253.883 173.902" fill="#F2B3C1"/>
<path d="M249.171 174.188C249.617 174.051 250.071 173.945 250.531 173.87C251.101 173.777 251.678 173.734 252.256 173.743C252.56 173.743 252.847 173.767 253.119 173.793C253.391 173.82 253.647 173.858 253.883 173.902" stroke="black" stroke-width="0.5" stroke-miterlimit="10" stroke-linecap="round"/>
<path d="M282.742 158.581L280.516 162.223L278.289 165.864C277.782 165.54 277.347 165.116 277.008 164.619C276.669 164.122 276.434 163.562 276.317 162.972C276.197 162.433 276.187 161.875 276.287 161.332C276.388 160.789 276.598 160.271 276.903 159.811C277.209 159.351 277.605 158.958 278.066 158.654C278.528 158.351 279.046 158.144 279.59 158.046C280.671 157.831 281.793 158.022 282.742 158.581Z" fill="#FF6406" stroke="#070707" stroke-width="0.5" stroke-miterlimit="10" stroke-linecap="round"/>
<path d="M281.598 157.882C282.106 157.069 282.861 156.439 283.752 156.085C284.649 155.716 285.637 155.624 286.464 155.969C286.621 156.035 286.772 156.116 286.914 156.21C287.093 156.331 287.249 156.484 287.372 156.661C287.84 157.333 287.763 158.273 287.392 159.136C287.04 159.985 286.419 160.695 285.625 161.158C285.607 161.168 285.593 161.183 285.584 161.201C285.576 161.219 285.573 161.239 285.576 161.259C285.579 161.279 285.588 161.298 285.602 161.312C285.616 161.327 285.634 161.337 285.654 161.341C286.121 161.434 286.548 161.67 286.876 162.016C287.213 162.356 287.439 162.792 287.522 163.264C287.602 163.802 287.506 164.351 287.249 164.83C286.997 165.316 286.605 165.714 286.124 165.975C285.683 166.204 285.191 166.315 284.695 166.298C284.196 166.285 283.707 166.156 283.266 165.922C283.248 165.913 283.228 165.91 283.208 165.912C283.188 165.915 283.17 165.923 283.155 165.937C283.14 165.95 283.129 165.967 283.125 165.987C283.12 166.006 283.121 166.026 283.128 166.045C283.297 166.498 283.426 166.965 283.514 167.441C283.599 167.912 283.609 168.395 283.543 168.87C283.433 169.611 283.045 170.283 282.458 170.749C282.153 170.987 281.79 171.14 281.406 171.193C281.022 171.246 280.631 171.197 280.272 171.051C280.084 170.98 279.904 170.887 279.737 170.774C279.57 170.663 279.415 170.534 279.275 170.39C278.554 169.611 278.054 168.654 277.829 167.616C277.561 166.579 277.589 165.487 277.908 164.464C278.016 164.16 278.161 163.871 278.342 163.604C278.524 163.336 278.74 163.093 278.986 162.881C279.227 162.707 279.493 162.569 279.774 162.471C280.049 162.383 280.297 162.227 280.497 162.018C280.661 161.803 280.758 161.544 280.776 161.273C280.81 160.991 280.815 160.652 280.882 160.186C280.926 159.899 280.984 159.614 281.058 159.333C281.175 158.829 281.357 158.341 281.598 157.882Z" fill="#ECE7E1" stroke="black" stroke-width="0.5" stroke-miterlimit="10" stroke-linecap="round"/>
<path d="M276.995 159.68C276.58 159.544 276.152 159.452 275.717 159.406C275.061 159.336 274.397 159.381 273.756 159.54C273.654 159.567 273.529 159.606 273.385 159.656C273.22 159.712 273.059 159.777 272.903 159.851C271.77 160.396 270.89 161.649 270.295 162.767C269.936 163.442 269.632 164.145 269.386 164.869C268.904 166.419 268.311 168.648 267.699 171.443C267.087 174.239 266.47 177.599 265.892 181.411" stroke="black" stroke-width="0.5" stroke-miterlimit="10" stroke-linecap="round"/>
<path d="M283.429 166.002C283.104 165.824 282.793 165.619 282.502 165.39C281.756 164.805 281.148 164.065 280.718 163.221C280.57 162.933 280.444 162.635 280.34 162.329" fill="#F2B3C1"/>
<path d="M283.429 166.002C283.104 165.824 282.793 165.619 282.502 165.39C281.756 164.805 281.148 164.065 280.718 163.221C280.57 162.933 280.444 162.635 280.34 162.329" stroke="black" stroke-width="0.5" stroke-miterlimit="10" stroke-linecap="round"/>
<path d="M285.962 161.423C284.862 161.084 283.715 160.922 282.564 160.941C282.229 160.941 281.914 160.965 281.615 160.996C281.316 161.027 281.034 161.068 280.774 161.117" fill="#F2B3C1"/>
<path d="M285.962 161.423C284.862 161.084 283.715 160.922 282.564 160.941C282.229 160.941 281.914 160.965 281.615 160.996C281.316 161.027 281.034 161.068 280.774 161.117" stroke="black" stroke-width="0.5" stroke-miterlimit="10" stroke-linecap="round"/>
<path d="M269.712 192.09C270.872 191.461 271.854 190.549 272.568 189.439C273.274 188.336 273.65 187.054 273.652 185.744C273.644 184.753 273.428 183.775 273.017 182.873C272.607 181.972 272.011 181.166 271.269 180.51C269.677 179.113 267.631 178.343 265.514 178.343C263.396 178.343 261.35 179.113 259.758 180.51C259.016 181.166 258.42 181.972 258.01 182.873C257.599 183.775 257.383 184.753 257.375 185.744C257.377 187.054 257.754 188.336 258.459 189.439C259.173 190.549 260.156 191.46 261.315 192.09C260.367 192.679 259.574 193.487 259.002 194.447C258.43 195.403 258.127 196.497 258.125 197.611V208.993H272.898V197.611C272.896 196.499 272.594 195.409 272.025 194.454C271.454 193.492 270.661 192.681 269.712 192.09Z" fill="#DBCAF4" stroke="black" stroke-width="0.5" stroke-miterlimit="10" stroke-linecap="round"/>
<path d="M273.992 174.909C273.992 175.421 273.815 175.917 273.49 176.313C273.165 176.708 272.714 176.979 272.212 177.079C271.71 177.179 271.189 177.102 270.737 176.861C270.286 176.62 269.932 176.23 269.736 175.757C269.54 175.284 269.514 174.758 269.662 174.268C269.811 173.778 270.124 173.355 270.55 173.07C270.976 172.786 271.487 172.658 271.996 172.708C272.505 172.758 272.982 172.983 273.344 173.345C273.549 173.55 273.713 173.794 273.824 174.062C273.935 174.331 273.992 174.618 273.992 174.909Z" fill="#F6C34C" stroke="#070707" stroke-width="0.5" stroke-miterlimit="10" stroke-linecap="round"/>
<path d="M261.739 165.411C261.74 165.923 261.562 166.419 261.238 166.815C260.913 167.21 260.461 167.481 259.959 167.581C259.457 167.681 258.936 167.604 258.485 167.363C258.033 167.122 257.679 166.732 257.483 166.259C257.287 165.786 257.261 165.26 257.41 164.77C257.558 164.28 257.872 163.857 258.298 163.572C258.723 163.288 259.234 163.16 259.743 163.21C260.253 163.26 260.729 163.485 261.091 163.847C261.297 164.052 261.46 164.296 261.571 164.564C261.682 164.833 261.74 165.12 261.739 165.411Z" fill="#F6C34C" stroke="#070707" stroke-width="0.5" stroke-miterlimit="10" stroke-linecap="round"/>
<path d="M310.053 209.042H301.42H292.788V196.228V183.414H301.42H310.053V196.228V209.042Z" fill="#ECE7E1" stroke="black" stroke-width="0.5" stroke-miterlimit="10" stroke-linecap="round"/>
<path d="M292.788 183.414H310.053C309.513 185.497 308.268 187.329 306.529 188.598C304.949 189.778 303.01 190.378 301.039 190.299C299.068 190.219 297.184 189.463 295.704 188.159C294.27 186.912 293.252 185.256 292.788 183.414Z" fill="#DBCAF4" stroke="black" stroke-width="0.5" stroke-miterlimit="10" stroke-linecap="round"/>
<path d="M301.107 186.564V184.117V181.669" stroke="black" stroke-width="0.5" stroke-miterlimit="10" stroke-linecap="round"/>
<path d="M295.73 209.042H288.377H281.024V202.417V195.792H288.377H295.73V202.417V209.042Z" fill="#ECE7E1" stroke="black" stroke-width="0.5" stroke-miterlimit="10" stroke-linecap="round"/>
<path d="M281.26 195.792H295.342C294.677 197.12 293.662 198.24 292.407 199.033C291.178 199.816 289.75 200.232 288.293 200.232C286.835 200.232 285.408 199.816 284.179 199.033C282.931 198.237 281.922 197.117 281.26 195.792Z" fill="#DBCAF4" stroke="black" stroke-width="0.5" stroke-miterlimit="10" stroke-linecap="round"/>
<path d="M288.03 197.281V195.199V193.114" stroke="black" stroke-width="0.5" stroke-miterlimit="10" stroke-linecap="round"/>
</g>
<defs>
<linearGradient id="paint0_linear_484_6957" x1="0" y1="0" x2="145.034" y2="338.524" gradientUnits="userSpaceOnUse">
<stop stop-color="#FFA756"/>
<stop offset="1" stop-color="#FFDAAF"/>
</linearGradient>
<linearGradient id="paint1_linear_484_6957" x1="344.66" y1="105.202" x2="361.774" y2="88.0912" gradientUnits="userSpaceOnUse">
<stop offset="0.05" stop-color="#A4C2FF"/>
<stop offset="0.4" stop-color="#B5DEED"/>
<stop offset="0.73" stop-color="#C6FCDB"/>
</linearGradient>
<linearGradient id="paint2_linear_484_6957" x1="233.849" y1="47.8561" x2="323.587" y2="137.595" gradientUnits="userSpaceOnUse">
<stop stop-color="#FEC2D9"/>
<stop offset="0.5" stop-color="#DBCAF4"/>
<stop offset="0.97" stop-color="#C6FCDB"/>
</linearGradient>
<linearGradient id="paint3_linear_484_6957" x1="341.378" y1="115.78" x2="348.83" y2="128.685" gradientUnits="userSpaceOnUse">
<stop stop-color="#C6FCDB"/>
<stop offset="0.64" stop-color="#FEC2D9"/>
</linearGradient>
<linearGradient id="paint4_linear_484_6957" x1="331.993" y1="10.901" x2="321.134" y2="29.7135" gradientUnits="userSpaceOnUse">
<stop offset="0.13" stop-color="#FEC2D9"/>
<stop offset="0.75" stop-color="#DBCAF4"/>
</linearGradient>
<linearGradient id="paint5_linear_484_6957" x1="222.413" y1="21.1678" x2="222.413" y2="42.865" gradientUnits="userSpaceOnUse">
<stop offset="0.2" stop-color="#FEC2D9"/>
<stop offset="0.6" stop-color="#E3DEDA"/>
<stop offset="0.97" stop-color="#C6FCDB"/>
</linearGradient>
<linearGradient id="paint6_linear_484_6957" x1="232.981" y1="29.4175" x2="240.932" y2="29.4175" gradientUnits="userSpaceOnUse">
<stop offset="0.05" stop-color="#A4C2FF"/>
<stop offset="0.4" stop-color="#B5DEED"/>
<stop offset="0.73" stop-color="#C6FCDB"/>
</linearGradient>
<clipPath id="clip0_484_6957">
<rect width="375" height="240" fill="white"/>
</clipPath>
</defs>
</svg>
