<svg width="375" height="240" viewBox="0 0 375 240" fill="none" xmlns="http://www.w3.org/2000/svg">
<g clip-path="url(#clip0_484_6961)">
<rect width="375" height="240" fill="url(#paint0_linear_484_6961)"/>
<path d="M265.749 -71.4919C275.133 -71.4919 284.133 -67.7646 290.769 -61.1298C297.405 -54.4949 301.134 -45.4959 301.136 -36.112V57.52H230.363V-36.112C230.365 -45.4959 234.094 -54.4949 240.73 -61.1298C247.366 -67.7646 256.365 -71.4919 265.749 -71.4919Z" fill="url(#paint1_linear_484_6961)" stroke="black" stroke-width="0.5" stroke-miterlimit="10" stroke-linecap="round"/>
<path d="M265.749 -61.1246C268.892 -61.1254 272.004 -60.5071 274.907 -59.3048C277.811 -58.1026 280.449 -56.3401 282.671 -54.1179C284.893 -51.8958 286.656 -49.2576 287.858 -46.3541C289.06 -43.4506 289.679 -40.3387 289.678 -37.1961V57.52H241.818V-37.1961C241.818 -40.3387 242.437 -43.4505 243.64 -46.3539C244.842 -49.2572 246.605 -51.8952 248.827 -54.1172C251.05 -56.3392 253.688 -58.1017 256.591 -59.3041C259.495 -60.5064 262.607 -61.125 265.749 -61.1246Z" fill="url(#paint2_linear_484_6961)" stroke="black" stroke-width="0.5" stroke-miterlimit="10" stroke-linecap="round"/>
<path d="M265.749 -48.8878C267.289 -48.8882 268.813 -48.5853 270.236 -47.9963C271.658 -47.4074 272.951 -46.5439 274.039 -45.4553C275.128 -44.3667 275.991 -43.0742 276.58 -41.6518C277.169 -40.2294 277.472 -38.7049 277.472 -37.1653V57.52H254.027V-37.1653C254.028 -40.2741 255.263 -43.2553 257.461 -45.4535C259.659 -47.6517 262.641 -48.887 265.749 -48.8878Z" fill="url(#paint3_linear_484_6961)" stroke="black" stroke-width="0.5" stroke-miterlimit="10" stroke-linecap="round"/>
<path d="M185.556 223.492C193.026 195.829 200.494 168.169 207.96 140.511C215.426 112.852 222.893 85.1887 230.363 57.52H301.136L324.79 140.332L348.445 223.147L267 223.326L185.556 223.492Z" fill="url(#paint4_linear_484_6961)" stroke="black" stroke-width="0.5" stroke-miterlimit="10" stroke-linecap="round"/>
<path d="M305.987 37.8726L294.665 39.4403L283.342 41.0111C281.262 41.298 279.152 40.7471 277.477 39.4795C275.802 38.2118 274.699 36.3311 274.41 34.2505C274.268 33.2191 274.331 32.1698 274.595 31.1626C274.859 30.1553 275.318 29.21 275.948 28.3805C276.577 27.551 277.363 26.8536 278.262 26.3282C279.161 25.8029 280.155 25.4598 281.186 25.3185L292.509 23.7508L303.828 22.18C305.908 21.8931 308.018 22.444 309.693 23.7117C311.368 24.9794 312.471 26.8601 312.76 28.9406C313.046 31.0214 312.496 33.131 311.228 34.8058C309.96 36.4807 308.079 37.5837 305.999 37.8726H305.987Z" fill="#040400" stroke="#040400" stroke-width="0.5" stroke-miterlimit="10"/>
<path d="M276.48 86.084L268.035 141.73L259.586 197.377H326.007L319.086 167.852L312.165 138.327C312.165 138.327 315.328 132.343 316.477 122.822C317.626 113.302 316.739 100.24 308.657 86.084" fill="#F6C34C"/>
<path d="M276.48 86.084L268.035 141.73L259.586 197.377H326.007L319.086 167.852L312.165 138.327C312.165 138.327 315.328 132.343 316.477 122.822C317.626 113.302 316.739 100.24 308.657 86.084" stroke="#070707" stroke-width="0.5" stroke-miterlimit="10" stroke-linecap="round"/>
<path d="M305.226 104.644C303.623 106.248 302.678 108.393 302.576 110.659C302.474 112.924 303.223 115.146 304.676 116.887C306.129 118.628 308.18 119.763 310.427 120.069C312.674 120.376 314.954 119.83 316.819 118.541C317.051 113.234 316.545 107.92 315.313 102.753C313.637 102.015 311.777 101.801 309.977 102.139C308.177 102.476 306.521 103.349 305.226 104.644Z" fill="#DBCAF4" stroke="black" stroke-width="0.5" stroke-miterlimit="10" stroke-linecap="round"/>
<path d="M282.887 96.0724C285.296 96.0724 287.607 95.1152 289.311 93.4112C291.015 91.7072 291.973 89.3962 291.973 86.9864C291.973 86.685 291.957 86.3838 291.926 86.084H276.48L275.535 92.3241C275.813 92.7106 276.122 93.0742 276.459 93.4113C277.302 94.2568 278.304 94.9271 279.407 95.3838C280.51 95.8405 281.693 96.0745 282.887 96.0724Z" fill="#DBCAF4" stroke="black" stroke-width="0.5" stroke-miterlimit="10" stroke-linecap="round"/>
<path d="M277.999 128.098C279.216 126.881 280.063 125.342 280.439 123.662C280.816 121.982 280.708 120.229 280.127 118.608C279.546 116.987 278.516 115.564 277.158 114.506C275.8 113.448 274.168 112.797 272.455 112.63L269.732 130.571C271.207 130.877 272.734 130.812 274.178 130.382C275.621 129.952 276.935 129.17 278.002 128.107L277.999 128.098Z" fill="#DBCAF4" stroke="black" stroke-width="0.5" stroke-miterlimit="10" stroke-linecap="round"/>
<path d="M290.784 143.452C288.681 143.452 286.644 144.181 285.019 145.514C283.395 146.848 282.282 148.704 281.872 150.766C281.462 152.827 281.78 154.967 282.771 156.821C283.762 158.675 285.365 160.128 287.307 160.932C289.249 161.737 291.41 161.843 293.421 161.233C295.433 160.622 297.171 159.334 298.339 157.586C299.506 155.838 300.032 153.739 299.826 151.647C299.62 149.555 298.695 147.599 297.208 146.113C296.366 145.268 295.364 144.598 294.261 144.142C293.159 143.685 291.977 143.451 290.784 143.452Z" fill="#DBCAF4" stroke="black" stroke-width="0.5" stroke-miterlimit="10" stroke-linecap="round"/>
<path d="M314.826 171.172C313.421 172.577 312.514 174.403 312.245 176.372C311.977 178.342 312.361 180.344 313.34 182.074C314.319 183.804 315.837 185.165 317.663 185.949C319.49 186.733 321.522 186.897 323.45 186.415L319.302 168.723C317.606 169.095 316.053 169.945 314.826 171.172Z" fill="#DBCAF4" stroke="black" stroke-width="0.5" stroke-miterlimit="10" stroke-linecap="round"/>
<path d="M287.085 188.398C285.659 186.965 283.796 186.048 281.79 185.793C279.785 185.537 277.751 185.958 276.012 186.989C274.272 188.019 272.926 189.6 272.187 191.481C271.447 193.363 271.356 195.437 271.928 197.377H289.37C289.612 196.547 289.735 195.687 289.736 194.823C289.739 193.63 289.506 192.449 289.051 191.346C288.596 190.244 287.928 189.242 287.085 188.398Z" fill="#DBCAF4" stroke="black" stroke-width="0.5" stroke-miterlimit="10" stroke-linecap="round"/>
<path d="M276.48 86.0838H308.651L309.489 84.6609L310.323 83.2379H323.497C324.268 83.2364 325.035 83.1328 325.779 82.9299C326.817 82.6484 327.786 82.1557 328.625 81.4827C329.464 80.8096 330.155 79.9707 330.654 79.0183C331.424 77.5953 331.945 75.6919 331.945 73.1478C331.948 69.5421 331.439 65.9543 330.436 62.491C329.435 59.0265 327.941 55.7239 326.001 52.6843C322.456 47.1403 318.162 41.9043 313.065 38.1375C307.967 34.3706 302.088 32.0237 295.355 32.2393C291.213 32.3735 287.106 33.0422 283.136 34.229C279.933 35.1899 277.728 36.2371 276.872 36.7453C272.68 39.2373 269.097 42.6328 266.384 46.6845C264.771 49.0594 263.461 51.6264 262.485 54.326C264.815 59.6194 267.149 64.9129 269.486 70.2064C271.822 75.4999 274.154 80.7924 276.48 86.0838Z" fill="#ECE7E1" stroke="black" stroke-width="0.5" stroke-miterlimit="10" stroke-linecap="round"/>
<path d="M297.985 22.4295C297.373 19.69 295.809 17.2563 293.571 15.5611C291.486 14.0211 288.951 13.3743 286.444 13.9626C283.937 14.5509 281.96 16.2664 280.774 18.5826C279.525 21.0957 279.209 23.9711 279.884 26.6953C279.933 26.9109 279.989 27.1203 280.05 27.3298C280.112 27.5392 280.18 27.7456 280.247 27.9458L279.53 28.6819L278.812 29.4149L280.044 29.8153L281.276 30.2188C282.321 32.02 283.86 33.4843 285.711 34.4384C287.465 35.3403 289.48 35.5955 291.403 35.1591C293.904 34.5709 295.888 32.8522 297.073 30.5391C298.329 28.0295 298.652 25.1553 297.985 22.4295Z" fill="#F2B3C1" stroke="black" stroke-width="0.5" stroke-miterlimit="10" stroke-linecap="round"/>
<path d="M283.992 26.1256C284.022 26.27 283.995 26.4203 283.915 26.5445C283.833 26.6685 283.706 26.7558 283.561 26.7878C283.489 26.8031 283.414 26.8038 283.342 26.7901C283.27 26.7763 283.201 26.7483 283.139 26.7078C283.077 26.6683 283.025 26.6169 282.983 26.5566C282.942 26.4963 282.913 26.4283 282.899 26.3566C282.884 26.2848 282.883 26.2108 282.896 26.1386C282.91 26.0665 282.937 25.9977 282.977 25.9362C283.017 25.8747 283.069 25.8217 283.13 25.7802C283.19 25.7388 283.258 25.7096 283.33 25.6944C283.402 25.6793 283.476 25.6784 283.548 25.6919C283.62 25.7053 283.689 25.7328 283.75 25.7729C283.812 25.8129 283.865 25.8647 283.906 25.9252C283.948 25.9857 283.977 26.0538 283.992 26.1256Z" fill="#040400"/>
<path d="M286.327 28.9314C286.306 29.1434 286.253 29.351 286.17 29.5474C286.014 29.9254 285.748 30.2475 285.406 30.4714C285.136 30.6458 284.827 30.7515 284.507 30.7794C284.325 30.8027 284.14 30.8027 283.958 30.7794" stroke="black" stroke-width="0.5" stroke-miterlimit="10" stroke-linecap="round"/>
<path d="M281.735 23.5445L283.444 23.4028L285.157 23.2581" stroke="black" stroke-width="0.5" stroke-miterlimit="10" stroke-linecap="round"/>
<path d="M289.613 25.9716C289.66 26.1903 289.664 26.4161 289.623 26.636C289.582 26.8559 289.498 27.0656 289.376 27.2529C289.254 27.4409 289.096 27.6029 288.911 27.7297C288.726 27.8566 288.518 27.9457 288.298 27.992C288.079 28.0384 287.853 28.041 287.632 27.9998C287.412 27.9586 287.202 27.8743 287.014 27.7519C286.731 27.5676 286.51 27.3037 286.377 26.9935C286.245 26.6834 286.207 26.3409 286.269 26.0093C286.331 25.6777 286.49 25.372 286.725 25.1306C286.961 24.8893 287.263 24.7232 287.593 24.6534C288.036 24.5609 288.498 24.6473 288.877 24.8936C289.065 25.0153 289.227 25.1733 289.354 25.3584C289.48 25.5435 289.568 25.752 289.613 25.9716Z" fill="#FF6406" stroke="#070707" stroke-width="0.5" stroke-miterlimit="10" stroke-linecap="round"/>
<path d="M321.763 203.25H263.797C263.211 203.25 262.63 203.135 262.088 202.91C261.547 202.686 261.055 202.357 260.64 201.942C260.226 201.527 259.897 201.035 259.673 200.493C259.449 199.951 259.334 199.371 259.334 198.784C259.334 198.198 259.449 197.617 259.673 197.076C259.897 196.534 260.226 196.042 260.64 195.628C261.055 195.213 261.547 194.884 262.089 194.66C262.63 194.436 263.211 194.321 263.797 194.321H321.763C322.349 194.321 322.929 194.436 323.471 194.66C324.013 194.884 324.505 195.213 324.919 195.628C325.334 196.042 325.662 196.534 325.887 197.076C326.111 197.617 326.226 198.198 326.225 198.784C326.226 199.371 326.111 199.951 325.887 200.493C325.662 201.035 325.334 201.527 324.919 201.942C324.505 202.357 324.013 202.686 323.471 202.91C322.929 203.135 322.349 203.25 321.763 203.25Z" fill="#FC762B" stroke="#070707" stroke-width="0.5" stroke-miterlimit="10" stroke-linecap="round"/>
<path d="M281.593 17.2428C283.253 19.5343 284.855 21.022 286.324 21.9798C287.512 22.7786 288.857 23.3123 290.27 23.5445C291.742 23.7724 293.698 23.7077 295.284 23.5876C296.87 23.4675 298.09 23.2796 298.09 23.2796C298.09 23.2796 298.04 23.0363 297.97 22.7098C297.899 22.3833 297.809 21.9799 297.726 21.6595C297.665 21.4255 297.582 21.1483 297.474 20.8341C297.366 20.5199 297.227 20.175 297.055 19.8023C297.229 19.695 297.418 19.6131 297.615 19.559C297.984 19.4542 298.374 19.4542 298.743 19.559C299.066 19.6488 299.362 19.8146 299.608 20.0425C299.749 20.1687 299.871 20.3138 299.972 20.4737C299.048 16.7993 296.171 14.4308 292.848 13.5776C289.524 12.7244 285.739 13.3836 282.964 15.7644C282.676 16.0095 282.406 16.274 282.154 16.556C281.926 16.8055 281.741 17.0426 281.593 17.2428Z" fill="#040400" stroke="#040400" stroke-width="0.5" stroke-miterlimit="10"/>
<path d="M318.488 194.321L319.622 208.748L320.752 223.169H312.892C312.711 221.045 312.53 218.922 312.35 216.799C312.169 214.676 311.988 212.553 311.808 210.43C304.54 216.554 295.759 220.612 286.385 222.18C282.724 222.8 279.01 223.06 275.297 222.956C278.067 221.417 280.668 219.591 283.056 217.508C286.558 214.457 289.536 210.853 291.871 206.838C293.119 204.685 294.174 202.424 295.022 200.084C295.703 198.207 296.252 196.284 296.666 194.331H318.51L318.488 194.321Z" fill="#84A1E5" stroke="#070707" stroke-width="0.5" stroke-miterlimit="10" stroke-linecap="round"/>
<path d="M302.7 47.2021C302.617 47.4169 302.554 47.6384 302.509 47.8643C302.463 48.0913 302.441 48.3226 302.445 48.5542C302.449 48.7515 302.48 48.9474 302.537 49.1363C302.593 49.3226 302.69 49.4941 302.82 49.6384C303.011 49.8396 303.264 49.9718 303.538 50.0141C303.816 50.0608 304.101 50.0353 304.367 49.9402C304.995 49.6843 305.514 49.2155 305.833 48.6158C306.16 48.019 306.45 47.4018 306.698 46.7678L307.687 44.5133C308.016 43.7617 308.349 43.0133 308.691 42.2679C309.026 41.3778 309.423 40.5122 309.88 39.6777C310.434 38.7752 311.155 38.1377 312.063 38.6089C312.239 38.7054 312.383 38.8496 312.479 39.0247C312.552 39.1456 312.607 39.2763 312.642 39.4128C312.77 39.1173 312.932 38.8382 313.126 38.5812C313.434 38.1715 313.89 37.7773 314.45 37.8389C314.736 37.8721 315 38.0039 315.199 38.2116C315.398 38.4188 315.521 38.6866 315.55 38.9723C315.563 39.1507 315.552 39.33 315.516 39.5052C315.469 39.741 315.395 39.9705 315.294 40.1889C315.334 40.0935 315.495 40.1335 315.658 40.1889C315.788 40.2488 315.915 40.3167 316.037 40.3922C316.191 40.4891 316.322 40.6184 316.422 40.7711C316.521 40.9229 316.59 41.0923 316.625 41.27C316.66 41.4683 316.666 41.6706 316.643 41.8706C316.621 42.0717 316.582 42.2706 316.526 42.4651C316.431 42.8162 316.326 43.1611 316.218 43.5092C316.111 43.8572 316.012 44.2053 315.91 44.5595C316.048 44.658 316.177 44.7682 316.295 44.889C316.451 45.0504 316.587 45.2304 316.699 45.4249C316.996 45.9859 317.109 46.6258 317.022 47.2545C316.959 47.768 316.836 48.2724 316.656 48.7575C315.735 51.3919 314.601 53.9475 313.268 56.399C312.762 57.3448 312.206 58.263 311.601 59.1494C310.773 60.3075 309.797 61.6134 308.657 63.0487C307.517 64.484 306.218 66.0147 304.748 67.6256L296.306 60.8465L292.484 57.7665C292.484 57.7665 292.582 57.3291 292.699 56.8425C292.817 56.3559 292.949 55.8015 293.007 55.5766C293.214 54.8621 293.408 54.166 293.623 53.4761C293.847 52.7778 294.119 52.0964 294.44 51.4371C295.21 49.9265 296.13 48.4965 297.184 47.1682C298.216 45.8284 299.34 44.5471 300.412 43.2505C300.883 42.6152 301.404 42.0189 301.97 41.4671C302.586 40.9343 303.295 40.6047 304.126 40.8943C304.329 40.9634 304.512 41.0817 304.658 41.2387C304.804 41.3956 304.909 41.5862 304.964 41.7936C305.07 42.2155 305.054 42.6587 304.918 43.0718C304.837 43.3208 304.734 43.5621 304.61 43.7925C304.49 44.0266 304.36 44.2545 304.231 44.4794C303.985 44.9137 303.692 45.351 303.415 45.8038C303.133 46.2464 302.894 46.7146 302.7 47.2021Z" fill="#F2B3C1" stroke="black" stroke-width="0.5" stroke-miterlimit="10" stroke-linecap="round"/>
<path d="M304.761 67.647L298.164 62.2909L291.563 56.9317L285.711 61.9182L279.859 66.9017C280.075 66.7199 278.627 65.0691 277.023 63.3935C275.418 61.718 273.718 60.0055 273.422 59.7314C266.144 52.6751 257.098 49.2379 247.769 48.8467C238.439 48.4555 228.87 51.1167 220.554 56.2603L221.872 48.6311L223.193 41.0019L214.474 40.4167L205.758 39.8315C203.836 49.0315 202.591 54.788 201.701 58.715C200.811 62.642 200.281 64.7364 199.792 66.6091C199.773 66.6768 199.721 66.877 199.65 67.1758C199.579 67.4745 199.487 67.8719 199.391 68.3308C198.837 71.0011 198.356 73.3111 198.258 75.3717C198.159 77.4322 198.443 79.2309 199.416 80.8849C200.141 82.0978 201.095 83.1585 202.225 84.008C203.347 84.865 204.613 85.5139 205.964 85.9237C207.506 86.361 209.135 86.3897 210.692 86.0069C212.232 85.6773 213.725 85.0829 215.284 84.5901C215.9 84.3899 216.291 84.2667 217.348 83.9094C218.404 83.5521 220.141 82.9669 223.477 81.8304L225.574 81.1159L227.151 80.583C227.562 83.6076 227.966 86.6311 228.365 89.6536C228.763 92.6761 229.168 95.6986 229.578 98.7211L248.702 98.6688L267.829 98.6133C268.2 96.5292 268.574 94.443 268.95 92.3548C269.326 90.2665 269.702 88.1762 270.08 86.0839C271.175 87.1299 272.448 87.9726 273.838 88.5725C274.662 88.9247 275.53 89.162 276.419 89.2779C278.883 89.5859 281.214 88.8651 283.269 87.7656C285.323 86.666 287.106 85.203 288.505 84.0696C289.087 83.5983 289.577 83.1456 289.962 82.8037C290.347 82.4618 290.624 82.1661 290.781 82.006C293.331 79.4311 295.965 76.7392 298.395 74.2413C300.825 71.7434 303.036 69.4427 304.761 67.647Z" fill="#84A1E5" stroke="#070707" stroke-width="0.5" stroke-miterlimit="10" stroke-linecap="round"/>
<path d="M312.643 39.4219C312.335 40.4013 312.027 41.4208 311.635 42.4711C311.244 43.5214 310.828 44.6055 310.351 45.7174C310.074 46.358 309.794 46.9792 309.51 47.5808C309.227 48.1814 308.937 48.7635 308.651 49.3272" stroke="black" stroke-width="0.5" stroke-miterlimit="10" stroke-linecap="round"/>
<path d="M315.294 40.198C314.986 41.122 314.65 42.0737 314.272 43.0593C313.893 44.0449 313.471 45.0644 313.006 46.1054C312.657 46.8857 312.303 47.6362 311.946 48.3569C311.589 49.0746 311.229 49.7676 310.868 50.4298" stroke="black" stroke-width="0.5" stroke-miterlimit="10" stroke-linecap="round"/>
<path d="M315.92 44.584C315.92 44.584 315.396 45.9577 314.752 47.5192C314.109 49.0808 313.348 50.8333 312.871 51.5848" stroke="black" stroke-width="0.5" stroke-miterlimit="10" stroke-linecap="round"/>
<path d="M279.342 66.0054L280.158 67.0926C280.432 67.453 280.703 67.8164 280.977 68.1799" stroke="black" stroke-width="0.5" stroke-miterlimit="10" stroke-linecap="round"/>
<path d="M260.917 77.4075C261.638 78.1631 262.386 78.9259 263.162 79.6959C263.938 80.4659 264.74 81.2431 265.568 82.0275C266.332 82.7513 267.089 83.4473 267.841 84.1249C268.592 84.8025 269.335 85.4524 270.071 86.0838" stroke="black" stroke-width="0.5" stroke-miterlimit="10" stroke-linecap="round"/>
<path d="M214.948 59.6268C215.564 59.288 216.18 58.9369 216.796 58.5735C217.412 58.21 218.041 57.8322 218.681 57.44C218.989 57.249 219.297 57.055 219.605 56.864L220.492 56.2881" stroke="black" stroke-width="0.5" stroke-miterlimit="10" stroke-linecap="round"/>
<path d="M303.036 194.321L304.083 208.739L305.134 223.159H298.154L297.393 216.855L296.633 210.55C294.639 212.021 292.561 213.373 290.408 214.6C284.337 218.047 277.733 220.457 270.869 221.73C267.919 222.279 264.934 222.618 261.937 222.744C263.378 221.817 264.761 220.8 266.076 219.701C267.651 218.38 269.121 216.938 270.471 215.389C273.562 211.838 276.005 207.773 277.688 203.377C278.847 200.372 279.674 197.25 280.152 194.066L291.606 194.186L303.036 194.321Z" fill="#84A1E5" stroke="#070707" stroke-width="0.5" stroke-miterlimit="10" stroke-linecap="round"/>
<path d="M242.052 45.0645C241.293 42.5589 241.315 39.8815 242.116 37.3891C242.936 34.8574 244.58 32.6675 247.149 31.7558C249.561 30.8996 252.148 31.2661 254.381 32.5535C256.783 33.9843 258.598 36.2221 259.503 38.8675C259.577 39.0739 259.645 39.2833 259.706 39.4835C259.768 39.6837 259.823 39.8993 259.873 40.0995L260.871 40.3274L261.869 40.5554L261.043 41.5594L260.224 42.582C260.313 44.4172 259.886 46.2407 258.992 47.8457C258.145 49.3839 256.845 50.6238 255.268 51.397C253.482 52.228 251.459 52.4015 249.558 51.8867C248.419 51.5992 247.332 51.1391 246.333 50.5222C244.329 49.24 242.82 47.3158 242.052 45.0645Z" fill="#F2B3C1" stroke="black" stroke-width="0.5" stroke-miterlimit="10" stroke-linecap="round"/>
<path d="M243.13 47.3559C242.982 47.1126 242.822 46.8446 242.69 46.5582C242.557 46.2717 242.4 45.9637 242.265 45.6342C242.029 45.0633 241.836 44.4754 241.689 43.8755C241.567 43.3793 241.474 42.8764 241.412 42.3694C241.116 42.4112 240.827 42.492 240.552 42.6096C240.177 42.7666 239.856 43.03 239.628 43.3673C239.212 44.0203 239.256 44.9073 239.601 45.7143C239.758 46.1122 239.996 46.473 240.301 46.7737C240.605 47.0743 240.969 47.3083 241.368 47.4606C241.696 47.5618 242.042 47.5912 242.382 47.5469C242.638 47.5138 242.889 47.4497 243.13 47.3559Z" fill="#F2B3C1" stroke="black" stroke-width="0.5" stroke-miterlimit="10" stroke-linecap="round"/>
<path d="M255.758 40.6169C255.811 40.7538 255.916 40.8644 256.05 40.9249C256.151 40.9696 256.262 40.9836 256.37 40.9651C256.479 40.9467 256.579 40.8966 256.659 40.8213C256.739 40.7459 256.795 40.6486 256.82 40.5415C256.845 40.4345 256.837 40.3225 256.799 40.2196C256.745 40.0825 256.64 39.9719 256.506 39.9116C256.369 39.856 256.215 39.856 256.078 39.9116C256.009 39.9399 255.946 39.9818 255.893 40.0347C255.84 40.0875 255.798 40.1504 255.77 40.2196C255.717 40.346 255.713 40.4875 255.758 40.6169Z" fill="#040400"/>
<path d="M256.269 37.2566L254.748 38.042L253.229 38.8243" stroke="black" stroke-width="0.5" stroke-miterlimit="10" stroke-linecap="round"/>
<path d="M290.691 208.659C291.214 207.982 291.694 207.273 292.13 206.537C292.567 205.801 292.929 205.023 293.211 204.214C293.456 203.398 293.566 202.547 293.537 201.695C293.497 200.74 293.229 199.847 292.499 199.637C291.323 199.274 290.343 200.253 289.582 201.485C288.943 202.629 288.395 203.822 287.944 205.052C287.484 206.159 287.118 207.303 286.847 208.471C286.579 209.64 286.389 210.825 286.278 212.019C286.384 210.663 286.265 209.299 285.926 207.981C285.585 206.665 285.174 205.369 284.694 204.097C284.487 203.502 284.241 202.92 283.958 202.357C283.676 201.793 283.327 201.265 282.92 200.783C282.478 200.279 281.945 199.861 281.35 199.551C280.709 199.243 280.028 199.142 279.523 199.631C279.172 199.973 279.095 200.58 279.129 201.205C279.173 201.775 279.268 202.34 279.412 202.893C279.563 203.499 279.769 204.09 280.028 204.658C280.282 205.227 280.575 205.779 280.903 206.309C281.541 207.343 282.279 208.313 283.105 209.204C283.93 210.097 284.834 210.913 285.806 211.643C286.339 212.047 286.73 212.133 287.128 212.019C287.588 211.822 288.006 211.538 288.36 211.184C288.797 210.812 289.209 210.411 289.592 209.983C289.98 209.561 290.343 209.115 290.691 208.659Z" stroke="black" stroke-width="0.5" stroke-miterlimit="10" stroke-linecap="round"/>
<path d="M249.644 43.5829C249.73 43.8087 249.871 44.0098 250.053 44.1683C250.235 44.3269 250.454 44.4381 250.689 44.492C250.925 44.546 251.17 44.541 251.403 44.4776C251.636 44.4142 251.85 44.2942 252.026 44.1284C252.201 43.9626 252.333 43.756 252.41 43.5269C252.487 43.2978 252.506 43.0534 252.466 42.8152C252.426 42.577 252.327 42.3523 252.179 42.1612C252.032 41.9701 251.839 41.8184 251.618 41.7195C251.263 41.5606 250.859 41.5484 250.494 41.6856C250.131 41.8256 249.838 42.1037 249.678 42.4591C249.519 42.8145 249.507 43.2185 249.644 43.5829Z" fill="#FF6406" stroke="#070707" stroke-width="0.5" stroke-miterlimit="10" stroke-linecap="round"/>
<path d="M212.817 206.728C213.341 206.051 213.822 205.342 214.258 204.605C214.696 203.87 215.057 203.092 215.336 202.283C215.583 201.467 215.694 200.616 215.666 199.764C215.626 198.809 215.358 197.916 214.628 197.706C213.451 197.343 212.472 198.322 211.711 199.554C211.072 200.699 210.524 201.891 210.069 203.121C209.613 204.229 209.247 205.372 208.976 206.54C208.707 207.708 208.516 208.894 208.406 210.088C208.512 208.733 208.392 207.369 208.052 206.053C207.711 204.737 207.3 203.441 206.82 202.169C206.612 201.573 206.366 200.991 206.084 200.426C205.801 199.862 205.452 199.334 205.046 198.852C204.602 198.348 204.068 197.93 203.472 197.62C202.835 197.312 202.154 197.21 201.646 197.7C201.295 198.042 201.218 198.649 201.254 199.274C201.299 199.844 201.393 200.409 201.538 200.962C201.687 201.568 201.894 202.159 202.154 202.727C202.408 203.296 202.7 203.848 203.029 204.378C203.666 205.413 204.403 206.382 205.231 207.273C206.056 208.166 206.96 208.984 207.932 209.715C208.465 210.116 208.856 210.202 209.253 210.088C209.714 209.893 210.133 209.609 210.485 209.253C210.923 208.882 211.334 208.482 211.717 208.055C212.105 207.63 212.484 207.183 212.817 206.728Z" stroke="black" stroke-width="0.5" stroke-miterlimit="10" stroke-linecap="round"/>
<path d="M254.988 44.3467C255.135 44.4228 255.289 44.4866 255.447 44.5377C255.605 44.5917 255.772 44.6178 255.94 44.6147C256.139 44.5991 256.333 44.5491 256.515 44.4669C256.698 44.386 256.891 44.3321 257.088 44.3067C257.311 44.2804 257.535 44.3358 257.72 44.4628C257.905 44.5897 258.037 44.7794 258.092 44.9966C258.154 45.2128 258.146 45.4429 258.069 45.6542C257.992 45.8654 257.85 46.047 257.664 46.1732C256.979 46.5771 256.187 46.761 255.394 46.6999C254.56 46.6413 253.79 46.3087 253.509 45.5695C253.429 45.3778 253.416 45.1648 253.472 44.9647C253.528 44.7647 253.65 44.5893 253.817 44.4669C253.982 44.3407 254.179 44.2627 254.386 44.2415C254.592 44.2203 254.801 44.2567 254.988 44.3467Z" fill="#ECE7E1" stroke="black" stroke-width="0.5" stroke-miterlimit="10" stroke-linecap="round"/>
<path d="M241.411 42.3694C242.842 42.5717 244.301 42.4323 245.668 41.9628C247.861 41.1805 250.174 39.237 250.67 34.5985C252.167 35.4194 253.906 35.6835 255.579 35.3439C257.064 35.0143 258.287 34.1735 258.909 33.0154C259.378 32.1 259.55 31.0611 259.401 30.0432C259.28 28.9798 258.744 28.0071 257.911 27.3359C257.419 26.9816 256.857 26.7356 256.263 26.614C255.669 26.4925 255.056 26.4981 254.464 26.6306C253.093 26.9153 251.882 27.7115 251.076 28.8574C248.398 28.644 245.71 29.1401 243.284 30.2958C241.128 31.3768 239.554 32.9908 238.839 34.9373C238.627 35.5241 238.491 36.136 238.436 36.7576C238.356 37.7358 238.44 38.7204 238.682 39.6713L239.16 41.5193L239.634 43.3673C239.769 43.182 239.927 43.0153 240.105 42.8714C240.472 42.5619 240.932 42.385 241.411 42.3694Z" fill="#040400" stroke="#040400" stroke-width="0.5" stroke-miterlimit="10"/>
<path d="M229.116 96.4266C226.147 113.584 223.179 130.741 220.212 147.897C217.245 165.052 214.278 182.209 211.311 199.366H243.746C244.227 190.876 244.706 182.383 245.184 173.889C245.663 165.394 246.142 156.9 246.623 148.408L247.547 173.889L248.471 199.366H282.314L275.282 147.81L268.251 96.2542L248.689 96.3404L229.116 96.4266Z" fill="#D87D61" stroke="black" stroke-width="0.5" stroke-miterlimit="10" stroke-linecap="round"/>
<path d="M235.02 96.4019H234.177L227.373 149.831L221.065 199.366H222.747L229.027 150.043L235.861 96.3958L235.02 96.4019Z" fill="#F2B3C1" stroke="black" stroke-width="0.5" stroke-miterlimit="10" stroke-linecap="round"/>
<path d="M241.883 96.3711L236.757 150.139L232.063 199.366H233.736L238.418 150.299L243.561 96.3618H242.72L241.883 96.3711Z" fill="#F2B3C1" stroke="black" stroke-width="0.5" stroke-miterlimit="10" stroke-linecap="round"/>
<path d="M252.832 96.3281H251.997H251.16L254.754 150.659L257.973 199.366H259.645L256.42 150.536L252.832 96.3281Z" fill="#F2B3C1" stroke="black" stroke-width="0.5" stroke-miterlimit="10" stroke-linecap="round"/>
<path d="M266.514 150.376L261.487 96.2849H259.812L264.844 150.536L269.381 199.373H271.057L266.514 150.376Z" fill="#F2B3C1" stroke="black" stroke-width="0.5" stroke-miterlimit="10" stroke-linecap="round"/>
<path d="M244.088 200.589C244.088 202.169 242.24 203.598 239.246 204.633C236.252 205.668 232.119 206.306 227.542 206.306C222.965 206.306 218.857 205.668 215.872 204.633C212.888 203.598 211.03 202.169 211.03 200.589C211.03 199.009 212.878 197.583 215.872 196.548C218.866 195.513 222.99 194.888 227.554 194.888C232.119 194.888 236.252 195.529 239.258 196.563C242.265 197.598 244.088 199.012 244.088 200.589Z" fill="#F2B3C1" stroke="black" stroke-width="0.5" stroke-miterlimit="10" stroke-linecap="round"/>
<path d="M282.729 200.589C282.729 202.169 280.801 203.598 277.678 204.633C274.555 205.668 270.246 206.306 265.481 206.306C260.717 206.306 256.408 205.668 253.285 204.633C250.161 203.598 248.233 202.169 248.233 200.589C248.233 199.009 250.165 197.583 253.285 196.548C256.405 195.513 260.72 194.873 265.481 194.873C270.243 194.873 274.558 195.513 277.678 196.548C280.798 197.583 282.729 199.012 282.729 200.589Z" fill="#F2B3C1" stroke="black" stroke-width="0.5" stroke-miterlimit="10" stroke-linecap="round"/>
<path d="M217.046 196.197L215.364 203.167C214.805 205.489 214.246 207.813 213.685 210.137C213.685 210.137 209.989 209.724 206.441 211.147C202.893 212.57 199.554 215.823 200.281 223.159H239.181C239.405 223.16 239.626 223.115 239.831 223.027C240.031 222.944 240.212 222.822 240.364 222.67C240.546 222.483 240.681 222.254 240.755 222.004C240.805 221.836 240.838 221.662 240.854 221.487C240.909 220.92 240.971 218.219 241.033 214.012C241.094 209.804 241.143 204.097 241.187 197.509C240.648 197.266 239.985 196.986 239.215 196.702C238.445 196.419 237.564 196.132 236.588 195.874C235.017 195.456 233.414 195.171 231.796 195.024C230.348 194.885 229.024 194.863 227.816 194.845C227.031 194.845 226.073 194.82 224.94 194.873C223.627 194.936 222.319 195.075 221.022 195.288C220.209 195.424 219.466 195.578 218.801 195.735C218.136 195.892 217.541 196.052 217.046 196.197Z" fill="#ECE7E1" stroke="black" stroke-width="0.5" stroke-miterlimit="10" stroke-linecap="round"/>
<path d="M252.604 196.853C252.546 198.769 252.487 200.685 252.425 202.6L252.25 208.345C252.178 210.603 252.108 212.855 252.04 215.099C251.972 217.343 251.903 219.596 251.831 221.857C251.823 221.973 251.823 222.091 251.831 222.208C251.839 222.412 251.893 222.613 251.991 222.793C252.073 222.914 252.193 223.005 252.333 223.052C252.576 223.136 252.833 223.173 253.09 223.159H291.282C291.394 221.056 291.006 218.955 290.149 217.03C288.735 213.95 285.621 210.793 278.833 210.587C278.422 208.197 278.012 205.806 277.601 203.414L276.369 196.243C275.698 196.068 274.94 195.886 274.102 195.714C273.264 195.541 272.35 195.378 271.361 195.242C270.372 195.107 269.285 194.984 268.044 194.907C266.803 194.83 265.432 194.799 263.954 194.848C263.119 194.873 261.989 194.913 260.621 195.057C259.013 195.227 257.418 195.504 255.847 195.889C255.173 196.055 254.557 196.225 253.999 196.391C253.442 196.557 253.001 196.715 252.604 196.853Z" fill="#ECE7E1" stroke="black" stroke-width="0.5" stroke-miterlimit="10" stroke-linecap="round"/>
<path d="M212.69 214.138L213.186 212.139L213.685 210.137" stroke="black" stroke-width="0.5" stroke-miterlimit="10" stroke-linecap="round"/>
<path d="M291.098 220.042L271.487 219.987L251.88 219.931C251.88 220.319 251.88 220.708 251.865 221.096V222.26C251.864 222.377 251.886 222.494 251.93 222.603C251.974 222.711 252.039 222.811 252.121 222.894C252.204 222.978 252.302 223.044 252.41 223.09C252.518 223.135 252.634 223.159 252.752 223.159H291.298C291.313 222.925 291.323 222.676 291.323 222.414C291.323 222.152 291.323 221.869 291.298 221.579C291.273 221.29 291.252 221.022 291.218 220.766C291.184 220.51 291.141 220.267 291.098 220.042Z" fill="#DBCAF4" stroke="black" stroke-width="0.5" stroke-miterlimit="10" stroke-linecap="round"/>
<path d="M200.216 220.061L220.544 220.045H240.872L240.835 220.892L240.801 221.739C240.779 221.881 240.736 222.019 240.675 222.149C240.565 222.377 240.404 222.576 240.204 222.731C240.015 222.888 239.795 223.002 239.557 223.064C239.42 223.099 239.279 223.116 239.138 223.116C232.957 223.135 226.332 223.138 219.707 223.138C213.081 223.138 206.463 223.138 200.278 223.159C200.25 222.938 200.229 222.703 200.21 222.46C200.192 222.217 200.179 221.964 200.173 221.702C200.167 221.441 200.173 221.12 200.173 220.846C200.173 220.572 200.198 220.31 200.216 220.061Z" fill="#DBCAF4" stroke="black" stroke-width="0.5" stroke-miterlimit="10" stroke-linecap="round"/>
<path d="M278.874 210.744L279.209 212.515L279.542 214.289" stroke="black" stroke-width="0.5" stroke-miterlimit="10" stroke-linecap="round"/>
<path d="M220.988 6.39197C220.367 6.39324 219.765 6.17908 219.284 5.78603C218.804 5.39298 218.474 4.84537 218.352 4.23658C218.23 3.62778 218.323 2.99551 218.615 2.44756C218.907 1.89961 219.38 1.46993 219.954 1.23178C220.527 0.993635 221.165 0.961765 221.76 1.14161C222.354 1.32146 222.867 1.70189 223.212 2.21803C223.558 2.73416 223.713 3.35404 223.652 3.97197C223.591 4.58989 223.318 5.1676 222.879 5.60657C222.631 5.85574 222.337 6.05342 222.012 6.18822C221.687 6.32301 221.339 6.39226 220.988 6.39197ZM220.988 2.50501C220.667 2.50582 220.359 2.63404 220.132 2.86153C219.905 3.08902 219.778 3.39722 219.778 3.71853C219.776 3.91867 219.825 4.11597 219.918 4.29287C220.012 4.46977 220.148 4.62077 220.314 4.73242C220.48 4.84406 220.671 4.91289 220.87 4.93277C221.07 4.95266 221.271 4.92297 221.456 4.84636C221.64 4.76976 221.804 4.64861 221.93 4.49371C222.057 4.33881 222.143 4.15497 222.182 3.95856C222.22 3.76215 222.21 3.55928 222.151 3.36801C222.092 3.17673 221.987 3.003 221.844 2.86229C221.732 2.74978 221.598 2.66077 221.451 2.60048C221.304 2.54019 221.147 2.50983 220.988 2.51117V2.50501Z" fill="url(#paint5_linear_484_6961)" stroke="black" stroke-width="0.5" stroke-miterlimit="10" stroke-linecap="round"/>
<path d="M312.165 138.327L307.979 147L303.791 155.677" stroke="black" stroke-width="0.5" stroke-miterlimit="10" stroke-linecap="round"/>
<path d="M223.2 40.9743C223.277 40.3983 223.387 39.6745 223.557 38.8367C223.726 37.999 223.954 37.0473 224.265 36.0185C224.697 34.4981 225.211 33.0021 225.805 31.5371C226.477 29.9123 227.366 28.3861 228.448 27.0003C229.212 26.027 230.031 25.18 230.604 24.4193C231.177 23.6585 231.494 22.9778 231.254 22.3464C231.179 22.1497 231.06 21.9727 230.906 21.829C230.773 21.7085 230.626 21.6051 230.468 21.521C230.363 21.4682 230.253 21.4269 230.139 21.3978C229.917 21.3435 229.688 21.3259 229.461 21.3454C228.69 21.4476 227.952 21.7258 227.305 22.1585C226.953 22.3769 226.617 22.6209 226.301 22.8885C225.499 23.6049 224.762 24.3925 224.102 25.2416C223.591 25.8792 223.292 26.2919 223.178 26.2241C223.15 26.2087 223.144 26.1749 223.153 26.0825C223.163 25.9901 223.178 25.8484 223.2 25.6081C223.2 25.5681 223.2 25.6081 223.2 25.4603C223.2 25.3125 223.2 25.0106 223.249 24.2837C223.278 23.6246 223.31 22.9665 223.347 22.3095C223.381 21.6503 223.424 20.9912 223.471 20.3321C223.508 19.827 223.535 19.442 223.575 19.1278C223.604 18.8562 223.671 18.5898 223.772 18.3363C223.905 18.0336 224.08 17.7515 224.293 17.4985C224.518 17.2416 224.761 17.0008 225.02 16.7778C225.851 16.0468 226.735 15.3786 227.666 14.7789C228.282 14.3569 228.617 14.0643 228.688 13.5469C228.724 13.2292 228.667 12.9079 228.522 12.6229C228.389 12.3429 228.182 12.1044 227.924 11.9329C227.499 11.668 226.985 11.6865 226.384 11.8683C225.709 12.1117 225.056 12.4147 224.435 12.7738C223.534 13.2278 222.675 13.7585 221.866 14.36C220.978 15.0393 220.252 15.9071 219.741 16.901C219.47 17.4257 219.258 17.9782 219.106 18.5488C218.997 18.9643 218.918 19.3874 218.872 19.8146C218.702 19.6055 218.5 19.4237 218.275 19.2756C217.84 18.9779 217.32 18.8297 216.793 18.8537C216.353 18.8776 215.928 19.0191 215.561 19.2633C215.189 19.5105 214.89 19.8516 214.693 20.252C214.474 20.0801 214.231 19.942 213.972 19.8424C213.488 19.642 212.952 19.6055 212.445 19.7384C211.938 19.8713 211.489 20.1663 211.166 20.5785C210.828 21.0016 210.621 21.5145 210.572 22.0538C210.394 22.0525 210.217 22.0659 210.042 22.0939C209.813 22.1332 209.59 22.2037 209.38 22.3033C208.727 22.6574 208.22 23.2314 207.95 23.9234C207.69 24.5328 207.521 25.1773 207.448 25.8361C207.165 28.1666 206.883 30.4981 206.601 32.8307C206.32 35.1633 206.038 37.4949 205.754 39.8254L214.474 40.4106L223.2 40.9743Z" fill="#F2B3C1" stroke="black" stroke-width="0.5" stroke-miterlimit="10" stroke-linecap="round"/>
<path d="M218.755 25.7714L218.82 22.7776L218.881 19.7808" fill="#F2B3C1"/>
<path d="M218.755 25.7714L218.82 22.7776L218.881 19.7808" stroke="black" stroke-width="0.5" stroke-miterlimit="10" stroke-linecap="round"/>
<path d="M298.317 24.9489C298.317 24.6625 298.29 24.3576 298.256 24.0249C298.222 23.6923 298.176 23.3658 298.111 23.0147C298 22.4041 297.842 21.8028 297.64 21.216C297.473 20.7305 297.278 20.2554 297.055 19.793C297.328 19.6683 297.617 19.5803 297.914 19.5312C298.317 19.4571 298.733 19.5043 299.109 19.6667C299.814 19.9901 300.264 20.7725 300.409 21.6318C300.491 22.0535 300.485 22.4877 300.391 22.907C300.298 23.3263 300.118 23.7216 299.864 24.0681C299.642 24.3291 299.367 24.5392 299.057 24.6841C298.822 24.8026 298.574 24.8916 298.317 24.9489Z" fill="#F2B3C1" stroke="black" stroke-width="0.5" stroke-miterlimit="10" stroke-linecap="round"/>
<path d="M310.323 83.2381C310.594 82.3479 310.853 81.4178 311.096 80.4661C311.34 79.5143 311.568 78.4949 311.774 77.4569C312.226 75.1977 312.551 72.9149 312.747 70.6193C312.935 68.4633 312.994 66.449 312.975 64.5979" stroke="#070707" stroke-width="0.5" stroke-miterlimit="10" stroke-linecap="round"/>
<path d="M214.702 20.2305L214.572 23.1164C214.529 24.0774 214.483 25.0384 214.44 26.0024" fill="#F2B3C1"/>
<path d="M214.702 20.2305L214.572 23.1164C214.529 24.0774 214.483 25.0384 214.44 26.0024" stroke="black" stroke-width="0.5" stroke-miterlimit="10" stroke-linecap="round"/>
<path d="M210.58 22.0322C210.55 22.7129 210.516 23.3905 210.482 24.0712C210.448 24.7519 210.414 25.4295 210.383 26.1071" fill="#F2B3C1"/>
<path d="M210.58 22.0322C210.55 22.7129 210.516 23.3905 210.482 24.0712C210.448 24.7519 210.414 25.4295 210.383 26.1071" stroke="black" stroke-width="0.5" stroke-miterlimit="10" stroke-linecap="round"/>
<path d="M246.626 148.408V135.438V122.468" fill="#F6991A"/>
<path d="M246.626 148.408V135.438V122.468" stroke="#070707" stroke-width="0.5" stroke-miterlimit="10" stroke-linecap="round"/>
<path d="M234.475 195.396V207.47C234.417 208.629 234.619 209.787 235.067 210.858C235.797 212.459 237.401 213.861 240.894 213.072" stroke="black" stroke-width="0.5" stroke-miterlimit="10" stroke-linecap="round"/>
<path d="M258.764 195.396V207.47C258.823 208.629 258.622 209.786 258.176 210.858C257.443 212.459 255.838 213.861 252.345 213.072" stroke="black" stroke-width="0.5" stroke-miterlimit="10" stroke-linecap="round"/>
<path d="M235.723 220.036V221.582V223.128" stroke="black" stroke-width="0.5" stroke-miterlimit="10" stroke-linecap="round"/>
<path d="M232.409 220.036V221.582V223.128" stroke="black" stroke-width="0.5" stroke-miterlimit="10" stroke-linecap="round"/>
<path d="M260.166 220.036V221.582V223.128" stroke="black" stroke-width="0.5" stroke-miterlimit="10" stroke-linecap="round"/>
<path d="M256.848 220.036V221.582V223.128" stroke="black" stroke-width="0.5" stroke-miterlimit="10" stroke-linecap="round"/>
<path d="M288.157 59.833L294.81 65.4509L301.462 71.0719" fill="#FC762B"/>
<path d="M288.157 59.833L294.81 65.4509L301.462 71.0719" stroke="#070707" stroke-width="0.5" stroke-miterlimit="10" stroke-linecap="round"/>
<path d="M205.129 43.509L213.815 44.0727L222.5 44.6363" fill="#FC762B"/>
<path d="M205.129 43.509L213.815 44.0727L222.5 44.6363" stroke="#070707" stroke-width="0.5" stroke-miterlimit="10" stroke-linecap="round"/>
</g>
<defs>
<linearGradient id="paint0_linear_484_6961" x1="0" y1="0" x2="145.034" y2="338.524" gradientUnits="userSpaceOnUse">
<stop stop-color="#C7FDDC"/>
<stop offset="0.991385" stop-color="#ABC3FD"/>
</linearGradient>
<linearGradient id="paint1_linear_484_6961" x1="265.749" y1="57.5292" x2="265.749" y2="-71.4919" gradientUnits="userSpaceOnUse">
<stop offset="0.1" stop-color="#A4C2FF"/>
<stop offset="0.39" stop-color="#B5DEED"/>
<stop offset="0.65" stop-color="#C6FCDB"/>
</linearGradient>
<linearGradient id="paint2_linear_484_6961" x1="265.749" y1="-61.1246" x2="265.749" y2="57.5293" gradientUnits="userSpaceOnUse">
<stop stop-color="#FEC2D9"/>
<stop offset="0.47" stop-color="#DBCAF4"/>
<stop offset="0.81" stop-color="#C6FCDB"/>
</linearGradient>
<linearGradient id="paint3_linear_484_6961" x1="265.749" y1="-48.8878" x2="265.749" y2="57.5293" gradientUnits="userSpaceOnUse">
<stop offset="0.13" stop-color="#DBCAF4"/>
<stop offset="0.56" stop-color="#C6FCDB"/>
<stop offset="1" stop-color="#FEC2D9"/>
</linearGradient>
<linearGradient id="paint4_linear_484_6961" x1="267" y1="223.492" x2="267" y2="57.5293" gradientUnits="userSpaceOnUse">
<stop offset="0.02" stop-color="#A4C2FF"/>
<stop offset="0.88" stop-color="#FEC2D9"/>
</linearGradient>
<linearGradient id="paint5_linear_484_6961" x1="220.988" y1="1.04817" x2="220.988" y2="6.39813" gradientUnits="userSpaceOnUse">
<stop offset="0.16" stop-color="#FEC2D9"/>
<stop offset="0.8" stop-color="#A4C2FF"/>
</linearGradient>
<clipPath id="clip0_484_6961">
<rect width="375" height="240" fill="white"/>
</clipPath>
</defs>
</svg>
