<svg width="375" height="240" viewBox="0 0 375 240" fill="none" xmlns="http://www.w3.org/2000/svg">
<g clip-path="url(#clip0_484_6956)">
<rect width="375" height="240" fill="url(#paint0_linear_484_6956)"/>
<path d="M338.878 128.814C338.878 128.37 338.878 127.925 338.878 127.481C338.878 127.036 338.818 126.594 338.765 126.166C338.605 124.936 338.356 123.72 338.021 122.526C337.7 121.332 337.319 120.159 336.93 118.981C335.767 115.493 334.514 112.038 333.169 108.616C331.824 105.193 330.373 101.816 328.816 98.4824C327.62 100.87 326.481 103.285 325.397 105.725C324.314 108.166 323.279 110.628 322.294 113.11C321.355 115.493 320.329 117.955 319.532 120.474C318.735 122.994 318.162 125.564 318.128 128.165C318.104 129.416 318.243 130.665 318.541 131.881C318.834 133.096 319.332 134.252 320.014 135.3C321.042 136.823 322.472 138.032 324.145 138.792C325.811 139.572 327.657 139.885 329.487 139.7C331.312 139.487 333.048 138.792 334.515 137.685C335.995 136.593 337.165 135.133 337.908 133.451C338.221 132.724 338.457 131.967 338.613 131.192C338.77 130.408 338.859 129.613 338.878 128.814Z" fill="url(#paint1_linear_484_6956)" stroke="black" stroke-width="0.5" stroke-miterlimit="10" stroke-linecap="round"/>
<path d="M321.586 198.246C321.586 201.505 315.143 204.453 304.725 206.589C294.308 208.724 279.916 210.042 264.021 210.042C248.125 210.042 233.734 208.727 223.316 206.589C212.899 204.45 206.455 201.505 206.455 198.246C206.455 194.988 212.899 192.039 223.316 189.907C233.734 187.774 248.125 186.451 264.021 186.451C279.916 186.451 294.308 187.766 304.725 189.907C315.143 192.047 321.586 194.99 321.586 198.246Z" fill="#040400" stroke="#040400" stroke-width="0.5" stroke-miterlimit="10"/>
<path d="M252.856 31.0545C252.87 25.7677 250.797 20.689 247.089 16.9209C243.936 13.6973 239.761 11.6685 235.279 11.1812C230.796 10.6938 226.283 11.7781 222.511 14.2488C219.415 16.2846 216.946 19.141 215.379 22.4991C214.854 22.366 214.322 22.265 213.785 22.1967C213.237 22.127 212.686 22.0919 212.133 22.0915C210.308 22.0978 208.503 22.4772 206.83 23.2062C205.157 23.9353 203.65 24.9986 202.402 26.331C199.837 29.0823 198.398 32.6965 198.371 36.4581C198.344 40.2197 199.73 43.8544 202.255 46.6425C203.456 47.964 204.909 49.0328 206.527 49.7865C208.146 50.5401 209.899 50.9636 211.684 51.032L223.408 50.982L235.135 50.932C239.988 50.4361 244.48 48.1422 247.728 44.5017C251.04 40.8072 252.867 36.0167 252.856 31.0545Z" fill="#EAF0FA" stroke="black" stroke-width="0.5" stroke-miterlimit="10" stroke-linecap="round"/>
<path d="M246.302 82.0894H244.603C244.601 78.4825 243.766 74.9248 242.164 71.6933C240.561 68.4617 238.235 65.6435 235.366 63.4577C232.497 61.272 229.162 59.7778 225.621 59.0915C222.08 58.4051 218.428 58.545 214.95 59.5003C214.982 59.14 215.008 58.7771 215.026 58.4142C215.045 58.0512 215.053 57.6804 215.053 57.3122C215.048 51.3917 212.802 45.6925 208.766 41.3606C204.731 37.0287 199.204 34.3854 193.299 33.9623C187.394 33.5392 181.547 35.3675 176.935 39.0797C172.323 42.792 169.287 48.1127 168.439 53.9721C168.07 53.9353 167.7 53.909 167.329 53.8906C166.958 53.8721 166.582 53.8643 166.206 53.8643C162.924 53.8661 159.679 54.5571 156.681 55.8926C153.683 57.2281 150.999 59.1782 148.803 61.6168C146.606 64.0554 144.947 66.928 143.931 70.0487C142.915 73.1695 142.566 76.4688 142.907 79.7329C142.987 80.5279 143.11 81.318 143.275 82.0999C139.633 82.2294 136.183 83.767 133.652 86.3891C131.122 89.0112 129.707 92.5131 129.707 96.1573C129.706 98.0048 130.07 99.8343 130.777 101.541C131.484 103.248 132.52 104.799 133.826 106.106C135.133 107.412 136.684 108.448 138.39 109.155C140.097 109.862 141.927 110.225 143.774 110.225H246.302C250.033 110.224 253.611 108.742 256.249 106.104C258.887 103.466 260.37 99.8881 260.37 96.1573C260.371 94.3098 260.007 92.4803 259.3 90.7733C258.593 89.0664 257.557 87.5154 256.251 86.209C254.944 84.9026 253.393 83.8664 251.686 83.1596C249.979 82.4527 248.15 82.0891 246.302 82.0894Z" fill="#EAF0FA" stroke="black" stroke-width="0.5" stroke-miterlimit="10" stroke-linecap="round"/>
<path d="M338.957 53.0649H337.232C337.23 49.3881 336.38 45.7614 334.747 42.4672C333.114 39.173 330.742 36.3002 327.817 34.0727C324.892 31.8452 321.492 30.323 317.882 29.6248C314.273 28.9265 310.55 29.0711 307.005 30.0471C307.04 29.6789 307.066 29.3107 307.084 28.9399C307.103 28.5691 307.111 28.193 307.111 27.8169C307.115 21.7783 304.83 15.9626 300.717 11.5414C296.604 7.12007 290.968 4.42171 284.945 3.98987C278.922 3.55803 272.959 5.42479 268.258 9.2141C263.556 13.0034 260.465 18.4337 259.608 24.411C259.231 24.3769 258.855 24.3506 258.477 24.3321C258.098 24.3137 257.717 24.3032 257.333 24.3032C251.001 24.3032 244.929 26.8183 240.452 31.2953C235.975 35.7723 233.46 41.8443 233.46 48.1757C233.46 49.8228 233.629 51.4656 233.965 53.078C230.253 53.2089 226.737 54.7755 224.157 57.4478C221.578 60.1201 220.136 63.6894 220.136 67.4037C220.137 71.2056 221.648 74.8517 224.336 77.5401C227.025 80.2285 230.671 81.7391 234.473 81.7398H338.957C342.759 81.7398 346.406 80.2294 349.094 77.5408C351.783 74.8523 353.293 71.2058 353.293 67.4037C353.294 65.5208 352.923 63.6563 352.203 61.9166C351.483 60.177 350.427 58.5963 349.095 57.2648C347.764 55.9333 346.184 54.877 344.444 54.1564C342.705 53.4358 340.84 53.0649 338.957 53.0649Z" fill="#EAF0FA" stroke="black" stroke-width="0.5" stroke-miterlimit="10" stroke-linecap="round"/>
<path d="M302.798 143.905C302.669 141.643 302.482 138.848 302.198 135.618C301.914 132.388 301.527 128.719 301.004 124.706C300.378 119.914 299.897 116.29 299.331 113.434C298.766 110.578 298.116 108.437 297.154 106.627C295.113 102.777 292.038 99.4081 288.475 96.7913C284.991 94.2108 281.002 92.3951 276.768 91.4629C273.852 90.8527 270.393 90.8186 265.696 91.1999C260.999 91.5813 255.063 92.4202 247.189 93.5275L245.787 93.7273L244.39 93.9298C240.204 94.5532 236.195 95.137 232.477 96.3652C228.758 97.5934 225.32 99.4765 222.301 102.669C220.767 104.285 219.395 106.047 218.204 107.929C216.873 109.999 215.476 112.542 213.701 116.024C212.165 119.044 210.613 122.573 209.448 125.348C208.283 128.122 207.497 130.145 207.497 130.148L213.041 131.255L229.255 134.498L225.694 145.509L222.135 156.524L259.368 157.631L296.601 158.733C296.652 157.32 296.706 155.901 296.762 154.478C296.818 153.054 296.877 151.628 296.94 150.199C296.988 149.082 297.037 147.968 297.088 146.856C297.139 145.744 297.192 144.636 297.248 143.532L300.023 143.716L302.798 143.905Z" fill="#F6C34C" stroke="#070707" stroke-width="0.5" stroke-miterlimit="10" stroke-linecap="round"/>
<path d="M207.491 130.142L218.372 132.317L229.249 134.492L228.613 136.596L227.974 138.7L247.173 141.27L266.372 143.842V169.295L240.251 166.665L214.13 164.035C212.148 163.838 210.233 163.217 208.513 162.214C206.793 161.212 205.309 159.85 204.162 158.223C203.009 156.605 202.224 154.754 201.86 152.801C201.497 150.848 201.564 148.838 202.058 146.914C202.079 146.823 202.103 146.735 202.129 146.651C202.153 146.559 202.176 146.464 202.202 146.372L204.832 138.256L207.491 130.142Z" fill="#F2B3C1" stroke="black" stroke-width="0.5" stroke-miterlimit="10" stroke-linecap="round"/>
<path d="M206.521 176.336L218.816 178.703L231.109 181.07L237.337 156.545L243.562 132.017C242.728 130.765 241.732 129.627 240.601 128.635C237.66 125.971 233.808 124.541 229.841 124.64C227.473 124.666 225.139 125.21 223.003 126.234C220.502 127.459 218.328 129.262 216.662 131.494C215.211 133.424 214.114 135.597 213.422 137.911C211.555 144.176 210.356 150.591 209.359 157.034C208.362 163.478 207.573 169.95 206.521 176.336Z" fill="#F2B3C1" stroke="black" stroke-width="0.5" stroke-miterlimit="10" stroke-linecap="round"/>
<path d="M261.083 80.5483L248.154 80.9744L235.225 81.411C234.468 83.1674 233.987 85.0305 233.799 86.934C233.601 88.9729 233.713 91.0301 234.131 93.0356C235.112 97.7985 237.65 101.767 240.969 104.345C244.288 106.922 248.359 108.084 252.428 107.238C256.496 106.391 259.792 103.708 261.804 100.037C263.816 96.3652 264.583 91.7153 263.602 86.955C263.364 85.8004 263.028 84.668 262.598 83.5702C262.18 82.5218 261.673 81.5108 261.083 80.5483Z" fill="#F2B3C1" stroke="black" stroke-width="0.5" stroke-miterlimit="10" stroke-linecap="round"/>
<path d="M206.889 174.734L220.278 176.856L233.67 178.984L231.548 192.021L229.426 205.055C220.015 203.582 210.594 202.137 201.161 200.718C191.728 199.3 182.307 197.852 172.899 196.376C172.89 196.374 172.881 196.37 172.874 196.364C172.867 196.358 172.861 196.351 172.857 196.342C172.852 196.328 172.852 196.312 172.857 196.297C173.041 195.623 173.286 194.966 173.588 194.335C173.965 193.529 174.452 192.78 175.035 192.108C177.993 188.749 182.53 188.689 187.311 188.76C192.093 188.831 197.124 188.986 201.072 186.061C202.439 185.031 203.578 183.729 204.417 182.237C205.469 180.428 206.371 178.008 206.889 174.734Z" fill="#DBCAF4" stroke="black" stroke-width="0.5" stroke-miterlimit="10" stroke-linecap="round"/>
<path d="M191.619 189.128C191.58 189.171 191.545 189.218 191.514 189.267C191.481 189.32 191.454 189.377 191.433 189.436C191.301 189.963 191.315 190.517 191.475 191.037C191.564 191.414 191.73 191.769 191.963 192.079C192.195 192.389 192.489 192.648 192.827 192.839C193.147 193 193.498 193.09 193.856 193.103C194.215 193.115 194.571 193.049 194.902 192.91C195.265 192.766 195.594 192.547 195.866 192.266C196.138 191.985 196.347 191.65 196.48 191.282C196.762 191.732 197.179 192.082 197.672 192.281C198.164 192.48 198.707 192.519 199.223 192.391C199.739 192.263 200.201 191.976 200.544 191.57C200.887 191.164 201.093 190.66 201.132 190.13C201.614 190.356 202.149 190.447 202.679 190.393C203.223 190.342 203.742 190.134 204.171 189.796C204.601 189.457 204.924 189.001 205.101 188.484C205.287 187.946 205.313 187.366 205.174 186.814C205.77 187.025 206.42 187.025 207.015 186.814C207.594 186.606 208.079 186.197 208.38 185.662C208.639 185.191 208.741 184.65 208.672 184.118C208.605 183.57 208.373 183.055 208.007 182.642C208.244 182.603 208.476 182.534 208.696 182.437C209.043 182.289 209.354 182.066 209.606 181.785C209.911 181.438 210.123 181.02 210.222 180.569C210.321 180.118 210.304 179.649 210.173 179.207C210.042 178.764 209.8 178.362 209.471 178.039C209.142 177.715 208.736 177.48 208.291 177.356C207.639 177.169 206.942 177.213 206.318 177.48C206.218 177.869 206.09 178.327 205.913 178.839C205.718 179.409 205.492 179.969 205.237 180.515C204.816 181.47 204.315 182.388 203.741 183.26C202.579 185.015 200.944 186.404 199.025 187.268C198.4 187.554 197.756 187.797 197.098 187.994C196.613 188.14 196.12 188.257 195.622 188.344C195.125 188.436 194.625 188.505 194.123 188.562C193.889 188.589 193.652 188.61 193.416 188.633C193.179 188.657 192.945 188.681 192.708 188.712C192.51 188.732 192.313 188.77 192.122 188.825C191.931 188.88 191.757 188.985 191.619 189.128Z" fill="#FC762B" stroke="#070707" stroke-width="0.5" stroke-miterlimit="10" stroke-linecap="round"/>
<path d="M172.975 196.342C172.927 196.335 172.879 196.346 172.839 196.373C172.819 196.388 172.803 196.406 172.791 196.427C172.779 196.448 172.771 196.471 172.768 196.494L172.594 197.444L172.42 198.393C172.384 198.608 172.393 198.828 172.446 199.04C172.499 199.251 172.595 199.449 172.728 199.622C172.999 199.975 173.396 200.21 173.835 200.279L191.504 202.972L209.172 205.665C209.347 205.693 209.526 205.685 209.697 205.642C209.869 205.599 210.031 205.522 210.172 205.415C210.313 205.308 210.431 205.174 210.519 205.021C210.607 204.867 210.664 204.697 210.684 204.521C210.691 204.465 210.714 204.412 210.751 204.369C210.788 204.326 210.837 204.296 210.892 204.282C210.947 204.267 211.006 204.27 211.059 204.288C211.113 204.307 211.16 204.341 211.195 204.387C211.29 204.682 211.424 204.963 211.592 205.223C211.832 205.601 212.171 205.905 212.573 206.102C212.637 206.132 212.703 206.16 212.77 206.183C212.834 206.206 212.899 206.226 212.965 206.241L215.771 206.67L218.577 207.099C218.719 207.12 218.865 207.113 219.004 207.077C219.144 207.042 219.275 206.978 219.39 206.891C219.504 206.804 219.599 206.695 219.671 206.571C219.743 206.447 219.789 206.31 219.808 206.168C219.815 206.111 219.838 206.058 219.876 206.016C219.913 205.973 219.963 205.942 220.018 205.928C220.072 205.913 220.13 205.916 220.184 205.934C220.238 205.953 220.284 205.988 220.318 206.033C221.036 206.994 222.102 207.634 223.287 207.817L225.404 208.08L227.508 208.343C227.698 208.372 227.891 208.363 228.077 208.317C228.264 208.272 228.439 208.19 228.593 208.076C228.748 207.962 228.878 207.82 228.977 207.655C229.076 207.491 229.142 207.309 229.171 207.12L229.347 205.962L229.523 204.803L201.261 200.55L172.975 196.342Z" fill="#84A1E5" stroke="#070707" stroke-width="0.5" stroke-miterlimit="10" stroke-linecap="round"/>
<path d="M215.437 202.67C215.75 200.273 216.604 197.978 217.935 195.961C220.123 192.694 224.197 189.607 231.724 190.322" stroke="#070707" stroke-width="0.5" stroke-miterlimit="10" stroke-linecap="round"/>
<path d="M249.571 93.8957C249.657 94.0839 249.666 94.2983 249.595 94.4927C249.539 94.6347 249.443 94.7572 249.318 94.8455C249.193 94.9339 249.046 94.9841 248.893 94.9903C248.741 94.9964 248.59 94.9581 248.458 94.8801C248.327 94.802 248.221 94.6875 248.154 94.5506C248.1 94.3688 248.113 94.1738 248.192 94.0011C248.27 93.8284 248.407 93.6896 248.579 93.6101C248.752 93.5306 248.946 93.5157 249.129 93.5681C249.311 93.6206 249.468 93.7369 249.571 93.8957Z" fill="#020202"/>
<path d="M241.71 98.1826C241.796 98.3708 241.805 98.5852 241.734 98.7796C241.699 98.8761 241.645 98.9647 241.576 99.0401C241.506 99.1155 241.422 99.1763 241.329 99.2188C241.189 99.2772 241.036 99.294 240.886 99.2673C240.737 99.2406 240.599 99.1716 240.488 99.0684C240.377 98.9652 240.298 98.8323 240.261 98.6855C240.223 98.5387 240.229 98.3842 240.277 98.2405C240.35 98.0476 240.496 97.8912 240.684 97.8047C240.871 97.7181 241.085 97.7084 241.279 97.7776C241.47 97.8516 241.625 97.9968 241.71 98.1826Z" fill="#020202"/>
<path d="M245.085 100.134L244.13 99.821L243.186 99.5185C243.174 99.5144 243.163 99.5072 243.155 99.4977C243.146 99.4882 243.14 99.4766 243.138 99.4642C243.135 99.4517 243.136 99.4388 243.139 99.4266C243.143 99.4145 243.15 99.4036 243.16 99.3949L243.88 98.8189L244.603 98.2456L243.636 96.1416L242.668 94.0376" stroke="black" stroke-width="0.5" stroke-miterlimit="10" stroke-linecap="round"/>
<path d="M247.486 102.509C247.467 102.066 247.569 101.626 247.78 101.236C247.999 100.834 248.33 100.504 248.732 100.286C249.134 100.068 249.591 99.9714 250.047 100.008C250.528 100.05 250.985 100.233 251.362 100.534" stroke="black" stroke-width="0.5" stroke-miterlimit="10" stroke-linecap="round"/>
<path d="M245.632 91.568L247.93 90.8948L250.232 90.2241" stroke="black" stroke-width="0.5" stroke-miterlimit="10" stroke-linecap="round"/>
<path d="M240.745 93.8325L238.904 95.4105L237.063 96.9885" stroke="black" stroke-width="0.5" stroke-miterlimit="10" stroke-linecap="round"/>
<path d="M263.868 93.5696C263.942 93.0646 264.005 92.5176 264.042 91.9048C264.079 91.292 264.087 90.6555 264.058 89.9691C263.986 88.2521 263.682 86.5526 263.156 84.9169C263.742 84.6936 264.371 84.6038 264.997 84.6539C265.31 84.683 265.614 84.7723 265.893 84.9169C266.906 85.456 267.492 86.7579 267.592 88.1649C267.692 89.572 267.303 91.1263 266.367 92.1757C265.995 92.5844 265.549 92.9183 265.052 93.1593C264.674 93.3412 264.277 93.4789 263.868 93.5696Z" fill="#F2B3C1" stroke="black" stroke-width="0.5" stroke-miterlimit="10" stroke-linecap="round"/>
<path d="M255.878 94.6005C256.067 95.0076 256.108 95.4674 255.995 95.9015C255.883 96.3357 255.623 96.7173 255.26 96.9814C254.898 97.2455 254.455 97.3756 254.007 97.3497C253.559 97.3238 253.134 97.1433 252.805 96.8392C252.475 96.535 252.261 96.1259 252.199 95.6817C252.138 95.2374 252.232 94.7855 252.466 94.4029C252.7 94.0203 253.06 93.7308 253.483 93.5836C253.907 93.4365 254.369 93.4408 254.789 93.5959C255.028 93.6835 255.247 93.8174 255.434 93.9898C255.621 94.1622 255.772 94.3697 255.878 94.6005Z" fill="#FF6406" stroke="#070707" stroke-width="0.5" stroke-miterlimit="10" stroke-linecap="round"/>
<path d="M244.432 102.38C244.621 102.787 244.662 103.247 244.55 103.681C244.437 104.115 244.177 104.497 243.815 104.761C243.452 105.025 243.009 105.155 242.561 105.129C242.114 105.103 241.689 104.923 241.359 104.619C241.029 104.315 240.815 103.905 240.754 103.461C240.692 103.017 240.786 102.565 241.02 102.182C241.254 101.8 241.614 101.51 242.037 101.363C242.461 101.216 242.923 101.22 243.344 101.375C243.582 101.463 243.801 101.597 243.988 101.769C244.175 101.942 244.326 102.149 244.432 102.38Z" fill="#FF6406" stroke="#070707" stroke-width="0.5" stroke-miterlimit="10" stroke-linecap="round"/>
<path d="M245.306 72.7636C243.061 73.2307 240.977 74.2729 239.257 75.7881C237.513 77.3407 236.136 79.2613 235.225 81.4111L248.154 80.9824L261.083 80.5563C259.431 77.7816 257.039 75.5221 254.174 74.0313C251.448 72.6114 248.32 72.1642 245.306 72.7636Z" fill="#84A1E5" stroke="#070707" stroke-width="0.5" stroke-miterlimit="10" stroke-linecap="round"/>
<path d="M234.638 95.0133C235.49 94.5896 236.241 93.9877 236.84 93.2486C237.918 91.9599 238.944 89.8691 238.786 86.6447C241.137 88.1167 243.76 89.1005 246.5 89.5377C251.063 90.2714 257.038 89.5745 262.693 83.849C262.611 83.6149 262.522 83.3677 262.416 83.1126C262.311 82.8575 262.195 82.5866 262.067 82.3236C261.901 81.9791 261.73 81.6608 261.556 81.3636C261.383 81.0665 261.212 80.7956 261.03 80.5483L248.12 80.977L235.225 81.411C234.656 82.6207 234.257 83.9031 234.039 85.2218C233.458 88.487 233.663 91.8435 234.638 95.0133Z" fill="#040400" stroke="#040400" stroke-width="0.5" stroke-miterlimit="10"/>
<path d="M235.225 81.411H230.386C229.276 81.411 228.005 81.2926 226.838 81.4451C225.67 81.5977 224.605 82.0159 223.905 83.0942C223.548 83.6096 223.34 84.214 223.306 84.8402C223.271 85.4665 223.41 86.0901 223.708 86.642C224.319 87.7456 225.339 88.5646 226.548 88.9222C226.654 88.9538 226.746 88.9801 226.859 89.0038C226.972 89.0274 227.103 89.0537 227.282 89.0879C228.889 89.3746 230.504 89.5403 231.714 89.6323C232.924 89.7244 233.734 89.7454 233.734 89.7454C233.686 88.7554 233.707 87.7634 233.794 86.7761C233.939 85.093 234.31 83.0021 235.225 81.411Z" fill="#84A1E5" stroke="#070707" stroke-width="0.5" stroke-miterlimit="10" stroke-linecap="round"/>
<path d="M231.106 181.064L244.411 183.757L257.714 186.451L263.458 159.072L269.202 131.694C266.672 129.719 263.069 128.275 259.376 127.631C255.684 126.986 251.904 127.126 249.017 128.322C245.841 129.662 243.146 131.932 241.287 134.834C240.288 136.346 239.514 137.994 238.988 139.729L235.043 160.395L231.106 181.064Z" fill="#F2B3C1" stroke="black" stroke-width="0.5" stroke-miterlimit="10" stroke-linecap="round"/>
<path d="M296.601 158.733C296.796 158.733 296.722 161.61 296.601 164.616C296.48 167.622 296.27 170.76 296.214 171.281C295.975 173.556 295.641 175.828 295.178 178.071C294.722 180.316 294.118 182.528 293.371 184.694C290.499 192.939 284.79 198.477 277.778 201.547C270.767 204.616 262.45 205.21 254.371 203.567C255.83 196.094 257.289 188.622 258.747 181.151C260.206 173.68 261.659 166.207 263.105 158.733H296.601Z" fill="#84A1E5" stroke="#070707" stroke-width="0.5" stroke-miterlimit="10" stroke-linecap="round"/>
<path d="M290.418 179.223V167.591H296.441C296.454 167.328 296.467 167.078 296.48 166.815C296.493 166.552 296.509 166.289 296.522 166.013H290.418V158.733H288.84V166.007H277.205V158.733H275.627V166.007H263.994V158.733H263.105C262.993 159.322 262.878 159.911 262.761 160.5C262.643 161.089 262.529 161.679 262.416 162.268V166.007H261.688C261.635 166.27 261.585 166.533 261.533 166.796C261.48 167.059 261.43 167.322 261.377 167.585H262.416V179.218H259.121L258.968 180.007L258.813 180.796H262.429V192.426H256.53L256.375 193.215L256.223 194.004H262.416V204.453C262.679 204.453 262.942 204.453 263.205 204.453C263.468 204.453 263.731 204.453 263.994 204.453V194.009H275.627V202.391C275.89 202.296 276.153 202.199 276.416 202.096C276.679 201.994 276.942 201.891 277.205 201.783V194.009H288.069C288.49 193.517 288.898 193.004 289.29 192.476C289.682 191.947 290.055 191.398 290.413 190.832V180.801H294.531C294.6 180.538 294.665 180.275 294.728 180.012C294.794 179.749 294.855 179.486 294.915 179.223H290.418ZM275.632 192.431H263.994V180.801H275.627V192.431H275.632ZM275.632 179.223H263.994V167.591H275.627V179.223H275.632ZM288.84 192.431H277.205V180.801H288.84V192.431ZM288.84 179.223H277.205V167.591H288.84V179.223Z" fill="#FC762B" stroke="#070707" stroke-width="0.5" stroke-miterlimit="10" stroke-linecap="round"/>
<path d="M267.274 140.807L282.265 142.164L297.256 143.529C296.748 146.117 295.533 151.656 293.098 156.942C290.662 162.228 286.999 167.275 281.615 168.861C280.213 169.244 278.766 169.444 277.313 169.455C275.587 169.513 273.468 169.455 270.643 169.395C268.815 169.35 267.632 169.242 265.359 168.998C263.087 168.753 259.718 168.377 253.524 167.801L249.858 167.454C248.638 167.338 247.415 167.223 246.194 167.117C244.393 166.962 242.481 166.633 240.572 166.415C238.662 166.197 236.747 166.086 234.943 166.373C233.558 166.608 232.223 167.08 230.998 167.77C229.774 168.451 228.648 169.297 227.653 170.284C227.343 170.594 227.057 170.926 226.796 171.278C226.537 171.632 226.296 171.999 226.075 172.377C225.729 172.986 225.252 173.51 224.678 173.911C224.214 174.244 223.647 174.403 223.077 174.36C222.912 174.342 222.751 174.304 222.595 174.247C222.325 174.149 222.079 173.992 221.877 173.787C221.671 173.556 221.512 173.286 221.41 172.993C221.307 172.7 221.265 172.39 221.283 172.08C221.312 171.293 221.545 170.527 221.959 169.858C222.461 169.045 222.901 168.28 223.274 167.599C223.647 166.918 223.971 166.284 224.231 165.773C224.694 164.919 225.07 164.02 225.354 163.091C225.504 162.641 225.49 162.153 225.315 161.713C225.222 161.488 225.092 161.281 224.931 161.1C224.782 160.936 224.613 160.79 224.429 160.666C224.02 160.384 223.543 160.22 223.048 160.19C221.756 160.116 220.552 160.769 219.5 161.715C218.477 162.682 217.593 163.785 216.87 164.992C216.5 165.591 216.186 166.222 215.931 166.878C215.674 167.534 215.466 168.208 215.308 168.895C215.138 169.709 214.82 170.486 214.371 171.186C214.051 171.72 213.552 172.121 212.962 172.32C212.626 172.408 212.276 172.431 211.931 172.388C211.783 172.371 211.636 172.339 211.494 172.293C211.122 172.16 210.79 171.932 210.532 171.633C210.372 171.455 210.236 171.256 210.129 171.041C209.801 171.593 209.29 172.013 208.685 172.227C208.114 172.436 207.485 172.424 206.921 172.196C206.465 172.004 206.079 171.677 205.813 171.26C205.537 170.826 205.388 170.322 205.385 169.808C205.084 169.827 204.781 169.801 204.488 169.732C204.285 169.684 204.09 169.61 203.907 169.511C203.177 169.079 202.649 168.375 202.437 167.554C202.146 166.526 202.116 165.441 202.347 164.398C202.133 164.182 201.941 163.944 201.776 163.688C201.534 163.315 201.356 162.903 201.25 162.47C201.072 161.695 201.123 160.884 201.398 160.137C201.544 159.727 201.746 159.339 201.997 158.983C203.035 157.382 204.2 155.867 205.479 154.451C208.534 151.069 212.23 148.325 216.352 146.38C219.727 144.792 223.333 143.749 227.035 143.29C228.945 143.051 230.87 142.957 232.795 143.008L249.595 143.437L266.395 143.866L266.837 142.338L267.274 140.807Z" fill="#F2B3C1" stroke="black" stroke-width="0.5" stroke-miterlimit="10" stroke-linecap="round"/>
<path d="M283.614 168.303L284.556 172.788L285.495 177.269" stroke="#070707" stroke-width="0.5" stroke-miterlimit="10" stroke-linecap="round"/>
<path d="M209.511 154.993C208.224 156.064 207.046 157.259 205.995 158.562C204.74 160.12 203.699 161.838 202.899 163.672C202.768 163.972 202.636 164.272 202.534 164.566C202.431 164.861 202.316 165.155 202.218 165.447" stroke="#070707" stroke-width="0.5" stroke-miterlimit="10" stroke-linecap="round"/>
<path d="M213.096 156.524C209.316 160.132 206.646 164.744 205.401 169.819" stroke="#070707" stroke-width="0.5" stroke-miterlimit="10" stroke-linecap="round"/>
<path d="M216.712 157.965C215.457 159.392 214.303 160.907 213.262 162.497C211.563 165.098 209.919 168.369 210.132 171.052" stroke="#070707" stroke-width="0.5" stroke-miterlimit="10" stroke-linecap="round"/>
<path d="M335.793 85.9137C335.775 85.1247 335.738 84.3199 335.672 83.5283C335.61 82.7398 335.507 81.9551 335.365 81.177C335.068 79.5727 334.618 78.0006 334.021 76.4825C333.428 74.9605 332.656 73.5144 331.722 72.1745C329.946 69.4893 327.656 67.1823 324.984 65.3865C322.318 63.582 319.312 62.3407 316.15 61.7387C315.428 61.6019 314.7 61.4994 313.967 61.431C313.233 61.3626 312.499 61.3311 311.763 61.3311C308.59 61.3315 305.448 61.9684 302.525 63.2039C299.602 64.4393 296.956 66.2484 294.744 68.5241C290.207 73.1707 287.675 79.4137 287.696 85.9084C287.696 86.629 287.727 87.3444 287.785 88.0492C287.843 88.7541 287.935 89.451 288.048 90.1532H286.673C283.912 90.1542 281.265 91.2483 279.309 93.1961C278.339 94.1529 277.574 95.297 277.06 96.559C276.546 97.8209 276.295 99.1742 276.321 100.536C276.375 103.199 277.47 105.734 279.372 107.597C281.274 109.461 283.831 110.505 286.494 110.504H320.429C323.879 110.471 327.216 109.272 329.897 107.101C332.617 104.969 334.488 101.938 335.173 98.5508C335.437 97.1113 335.613 95.6567 335.699 94.1955C335.791 92.7359 335.814 91.2683 335.807 89.8087C335.807 89.167 335.807 88.52 335.807 87.8704C335.807 87.2208 335.807 86.5659 335.793 85.9137Z" fill="#EAF0FA" stroke="black" stroke-width="0.5" stroke-miterlimit="10" stroke-linecap="round"/>
<path d="M224.494 114.959C224.476 114.144 224.442 113.329 224.373 112.519C224.305 111.709 224.205 110.906 224.058 110.117C223.755 108.477 223.295 106.868 222.685 105.315C222.078 103.759 221.289 102.28 220.334 100.91C218.517 98.1656 216.176 95.807 213.446 93.9693C210.721 92.1252 207.649 90.8563 204.417 90.2399C203.677 90.1014 202.933 89.9971 202.184 89.927C201.435 89.8568 200.685 89.8218 199.933 89.8218C196.687 89.8235 193.475 90.4761 190.487 91.741C187.498 93.0059 184.793 94.8573 182.533 97.1858C177.892 101.936 175.303 108.319 175.324 114.959C175.324 115.698 175.355 116.427 175.416 117.15C175.476 117.873 175.569 118.583 175.679 119.288H174.277C171.452 119.287 168.741 120.405 166.74 122.4C165.747 123.377 164.965 124.547 164.439 125.837C163.914 127.127 163.657 128.51 163.684 129.903C163.74 132.625 164.86 135.216 166.805 137.122C168.749 139.027 171.363 140.095 174.085 140.097H208.785C212.315 140.062 215.728 138.835 218.472 136.615C221.253 134.436 223.164 131.336 223.863 127.873C224.136 126.401 224.317 124.914 224.405 123.42C224.5 121.929 224.523 120.43 224.515 118.936C224.515 118.278 224.515 117.621 224.515 116.955C224.515 116.29 224.51 115.625 224.494 114.959Z" fill="#EAF0FA" stroke="black" stroke-width="0.5" stroke-miterlimit="10" stroke-linecap="round"/>
<path d="M154.05 145.036C154.05 144.681 154.05 144.323 154.05 143.968C154.05 143.613 154.003 143.256 153.958 142.903C153.831 141.921 153.635 140.949 153.371 139.994C153.108 139.037 152.809 138.09 152.496 137.149C151.563 134.352 150.557 131.581 149.479 128.835C148.401 126.09 147.238 123.382 145.992 120.711C145.034 122.626 144.118 124.562 143.243 126.518C142.368 128.475 141.535 130.447 140.745 132.433C139.99 134.345 139.167 136.318 138.53 138.337C137.853 140.326 137.474 142.403 137.405 144.502C137.385 145.506 137.495 146.509 137.733 147.485C137.971 148.455 138.371 149.378 138.917 150.215C139.741 151.436 140.887 152.405 142.228 153.015C143.565 153.642 145.046 153.894 146.515 153.744C147.978 153.573 149.37 153.016 150.547 152.129C151.732 151.255 152.67 150.086 153.266 148.739C153.517 148.157 153.707 147.551 153.832 146.93C153.958 146.306 154.031 145.672 154.05 145.036Z" fill="url(#paint2_linear_484_6956)" stroke="black" stroke-width="0.5" stroke-miterlimit="10" stroke-linecap="round"/>
<path d="M201.466 76.6981C201.466 76.5351 201.466 76.3694 201.466 76.2063C201.466 76.0433 201.442 75.8776 201.424 75.7171C201.368 75.2644 201.28 74.8162 201.161 74.3758C201.043 73.934 200.898 73.5 200.756 73.0608C200.328 71.7721 199.865 70.4966 199.367 69.2342C198.869 67.9718 198.335 66.7243 197.763 65.4917C197.321 66.3684 196.899 67.2599 196.498 68.1664C196.096 69.0729 195.71 69.9811 195.338 70.8911C194.991 71.7695 194.612 72.6795 194.318 73.6079C194.004 74.5239 193.827 75.4809 193.792 76.4483C193.782 76.9106 193.833 77.3722 193.944 77.8211C194.052 78.2684 194.236 78.6937 194.489 79.0783C194.868 79.6411 195.396 80.088 196.014 80.3696C196.629 80.6577 197.311 80.7732 197.987 80.7036C198.661 80.6254 199.302 80.3685 199.843 79.9593C200.39 79.557 200.822 79.0183 201.095 78.3971C201.211 78.129 201.299 77.8496 201.358 77.5634C201.417 77.2784 201.454 76.989 201.466 76.6981Z" fill="url(#paint3_linear_484_6956)" stroke="black" stroke-width="0.5" stroke-miterlimit="10" stroke-linecap="round"/>
<path d="M317.425 161.926C317.425 161.729 317.425 161.531 317.425 161.334C317.425 161.137 317.396 160.94 317.373 160.745C317.303 160.202 317.195 159.664 317.049 159.135C316.907 158.609 316.736 158.083 316.563 157.557C316.051 156.008 315.495 154.474 314.895 152.958C314.296 151.441 313.651 149.947 312.962 148.476C312.436 149.528 311.93 150.599 311.442 151.69C310.955 152.78 310.495 153.872 310.064 154.964C309.648 156.016 309.193 157.113 308.838 158.231C308.464 159.334 308.255 160.486 308.218 161.65C308.207 162.205 308.268 162.759 308.399 163.299C308.529 163.836 308.75 164.347 309.054 164.808C309.512 165.486 310.149 166.024 310.895 166.36C311.634 166.704 312.451 166.843 313.262 166.762C314.071 166.666 314.841 166.358 315.492 165.868C316.15 165.384 316.668 164.735 316.997 163.988C317.135 163.666 317.24 163.331 317.31 162.988C317.378 162.638 317.417 162.283 317.425 161.926Z" fill="url(#paint4_linear_484_6956)" stroke="black" stroke-width="0.5" stroke-miterlimit="10" stroke-linecap="round"/>
<path d="M231.506 179.026L244.848 181.427L258.193 183.829C257.393 188.161 256.594 192.491 255.797 196.818C254.999 201.145 254.2 205.474 253.401 209.805C244.027 208.134 234.639 206.492 225.236 204.879C215.833 203.266 206.439 201.623 197.053 199.95C197.045 199.95 197.038 199.947 197.032 199.943C197.025 199.939 197.02 199.933 197.016 199.927C197.011 199.912 197.011 199.896 197.016 199.882C197.215 199.212 197.473 198.561 197.787 197.936C198.181 197.138 198.685 196.399 199.283 195.74C202.313 192.444 206.842 192.489 211.623 192.66C216.404 192.831 221.43 193.091 225.436 190.251C226.833 189.246 228.005 187.961 228.876 186.477C229.96 184.691 230.909 182.29 231.506 179.026Z" fill="#DBCAF4" stroke="black" stroke-width="0.5" stroke-miterlimit="10" stroke-linecap="round"/>
<path d="M215.929 193.097C215.888 193.139 215.852 193.184 215.821 193.233C215.788 193.287 215.759 193.343 215.734 193.402C215.589 193.926 215.589 194.479 215.734 195.003C215.815 195.384 215.973 195.744 216.199 196.061C216.426 196.378 216.715 196.645 217.049 196.844C217.366 197.012 217.716 197.109 218.074 197.128C218.432 197.148 218.791 197.09 219.124 196.957C219.489 196.82 219.82 196.607 220.097 196.332C220.374 196.058 220.589 195.728 220.728 195.364C221.001 195.82 221.41 196.178 221.899 196.388C222.387 196.598 222.929 196.648 223.447 196.531C223.966 196.415 224.434 196.137 224.786 195.739C225.137 195.34 225.354 194.841 225.404 194.312C225.88 194.552 226.412 194.657 226.943 194.617C227.489 194.577 228.011 194.381 228.448 194.051C228.884 193.722 229.217 193.274 229.405 192.76C229.601 192.225 229.639 191.645 229.513 191.09C230.105 191.311 230.755 191.32 231.354 191.116C231.905 190.94 232.378 190.578 232.694 190.092C233.009 189.607 233.147 189.028 233.084 188.452C233.027 187.903 232.805 187.384 232.448 186.963C232.686 186.927 232.919 186.862 233.142 186.771C233.491 186.63 233.805 186.413 234.062 186.138C234.458 185.701 234.701 185.147 234.754 184.56C234.823 183.933 234.67 183.302 234.322 182.776C233.973 182.25 233.452 181.863 232.847 181.682C232.198 181.482 231.5 181.512 230.87 181.767C230.764 182.151 230.622 182.608 230.436 183.116C230.23 183.683 229.993 184.238 229.726 184.778C229.285 185.724 228.765 186.631 228.171 187.489C227.367 188.639 226.358 189.63 225.194 190.414C224.62 190.792 224.013 191.12 223.382 191.392C222.751 191.665 222.101 191.893 221.438 192.076C220.951 192.211 220.457 192.318 219.958 192.397C219.461 192.476 218.956 192.534 218.453 192.581L217.746 192.639C217.509 192.657 217.273 192.676 217.036 192.702C216.837 192.718 216.64 192.753 216.447 192.805C216.251 192.854 216.072 192.955 215.929 193.097Z" fill="#FC762B" stroke="#070707" stroke-width="0.5" stroke-miterlimit="10" stroke-linecap="round"/>
<path d="M197.137 199.908C197.114 199.904 197.089 199.904 197.066 199.909C197.042 199.914 197.02 199.923 197 199.937C196.961 199.966 196.934 200.008 196.924 200.056L196.732 201.002L196.537 201.947C196.497 202.161 196.501 202.382 196.55 202.594C196.599 202.807 196.691 203.007 196.822 203.183C197.085 203.542 197.477 203.786 197.916 203.864L215.537 206.925L233.144 209.989C233.317 210.017 233.493 210.011 233.663 209.971C233.834 209.931 233.994 209.857 234.136 209.755C234.278 209.651 234.398 209.519 234.488 209.368C234.579 209.217 234.638 209.049 234.662 208.874C234.67 208.818 234.695 208.765 234.733 208.723C234.772 208.681 234.822 208.652 234.878 208.64C234.932 208.623 234.991 208.625 235.045 208.645C235.098 208.665 235.144 208.702 235.175 208.75C235.265 209.048 235.393 209.333 235.556 209.597C235.79 209.978 236.122 210.288 236.519 210.494C236.582 210.525 236.647 210.553 236.713 210.578C236.777 210.604 236.842 210.625 236.908 210.641L239.704 211.128L242.499 211.614C242.641 211.64 242.787 211.636 242.927 211.604C243.067 211.572 243.2 211.512 243.316 211.428C243.433 211.343 243.531 211.236 243.606 211.113C243.68 210.989 243.729 210.852 243.749 210.71C243.755 210.651 243.78 210.595 243.819 210.551C243.858 210.507 243.91 210.476 243.968 210.462C244.026 210.449 244.086 210.453 244.141 210.475C244.196 210.498 244.243 210.536 244.275 210.586C244.618 211.071 245.054 211.483 245.558 211.799C246.061 212.115 246.621 212.331 247.207 212.432L249.311 212.732L251.415 213.032C251.796 213.098 252.187 213.01 252.503 212.787C252.819 212.565 253.034 212.226 253.101 211.846L253.303 210.689L253.503 209.534L225.323 204.721L197.137 199.908Z" fill="#84A1E5" stroke="#070707" stroke-width="0.5" stroke-miterlimit="10" stroke-linecap="round"/>
<path d="M239.457 207.125C239.817 204.735 240.716 202.459 242.087 200.468C244.343 197.249 248.48 194.248 255.991 195.122" stroke="#070707" stroke-width="0.5" stroke-miterlimit="10" stroke-linecap="round"/>
<path d="M297.256 143.537L282.265 142.164L267.274 140.799C267.782 138.539 268.291 136.279 268.799 134.019L270.322 127.241" stroke="#070707" stroke-width="0.5" stroke-miterlimit="10" stroke-linecap="round"/>
<path d="M177.486 174.879C177.486 174.681 177.486 174.484 177.486 174.287C177.486 174.09 177.459 173.892 177.436 173.698C177.365 173.154 177.256 172.616 177.11 172.088C176.968 171.562 176.799 171.036 176.626 170.51C176.1 168.964 175.555 167.428 174.958 165.913C174.361 164.398 173.717 162.896 173.028 161.418C172.502 162.47 171.992 163.549 171.508 164.629C171.024 165.71 170.566 166.804 170.132 167.906C169.714 168.958 169.259 170.055 168.907 171.17C168.532 172.273 168.322 173.425 168.283 174.589C168.272 175.145 168.334 175.699 168.467 176.238C168.597 176.776 168.818 177.287 169.12 177.751C169.579 178.427 170.216 178.963 170.961 179.3C171.698 179.646 172.517 179.785 173.328 179.702C174.138 179.609 174.908 179.3 175.558 178.808C176.215 178.324 176.735 177.676 177.065 176.93C177.203 176.607 177.308 176.272 177.378 175.928C177.443 175.582 177.479 175.231 177.486 174.879Z" fill="url(#paint5_linear_484_6956)" stroke="black" stroke-width="0.5" stroke-miterlimit="10" stroke-linecap="round"/>
<path d="M190.617 184.602C190.078 183.907 189.584 183.179 189.137 182.421C188.688 181.665 188.316 180.866 188.027 180.036C187.775 179.197 187.661 178.323 187.69 177.448C187.732 176.467 188.006 175.565 188.758 175.344C189.347 175.163 190.231 175.823 191.109 176.893C192.08 178.11 192.866 179.464 193.439 180.912C194.017 182.465 194.397 184.085 194.57 185.732C194.728 187.092 194.728 188.031 194.762 188.028C194.796 188.026 194.762 187.96 194.762 187.894C194.762 187.829 194.762 187.76 194.762 187.76C194.705 186.564 194.825 185.365 195.12 184.204C195.416 183.04 195.798 181.899 196.264 180.791C196.624 179.912 197.248 178.334 198.105 177.043C198.962 175.752 200.062 174.755 201.374 175.034C201.673 175.103 201.937 175.278 202.118 175.525C202.309 175.776 202.434 176.071 202.481 176.383C202.626 177.327 202.413 178.39 202.047 179.413C201.688 180.383 201.232 181.314 200.685 182.193C200.028 183.255 199.27 184.251 198.421 185.167C197.571 186.08 196.642 186.916 195.643 187.663C195.094 188.076 194.683 188.165 194.286 188.047C193.889 187.929 193.497 187.605 193.013 187.192C192.562 186.809 192.138 186.396 191.743 185.956C191.349 185.53 190.975 185.07 190.617 184.602Z" stroke="black" stroke-width="0.5" stroke-miterlimit="10" stroke-linecap="round"/>
<path d="M215.092 188.841C214.553 188.146 214.059 187.418 213.611 186.661C213.163 185.905 212.791 185.106 212.502 184.275C212.248 183.437 212.135 182.563 212.165 181.688C212.207 180.707 212.481 179.805 213.23 179.584C213.822 179.402 214.706 180.062 215.584 181.133C216.555 182.351 217.34 183.706 217.914 185.154C218.492 186.706 218.871 188.325 219.042 189.972C219.2 191.332 219.203 192.271 219.237 192.268C219.271 192.265 219.237 192.2 219.237 192.134C219.237 192.068 219.237 192 219.237 192C219.195 191.115 219.284 190.229 219.5 189.37C219.703 188.497 219.989 187.639 220.257 186.827C220.626 185.625 221.056 184.444 221.546 183.287C222.03 182.125 222.738 181.071 223.629 180.183C223.976 179.851 224.376 179.579 224.813 179.378C225.01 179.256 225.234 179.187 225.466 179.176C225.697 179.165 225.928 179.214 226.135 179.318C226.342 179.421 226.519 179.576 226.65 179.768C226.78 179.959 226.859 180.181 226.88 180.412C226.964 180.853 226.971 181.305 226.898 181.748C226.541 183.812 225.716 185.767 224.486 187.463C223.265 189.165 221.787 190.668 220.105 191.918C219.555 192.331 219.145 192.421 218.745 192.302C218.345 192.184 217.956 191.86 217.472 191.448C217.024 191.064 216.6 190.652 216.205 190.214C215.821 189.767 215.463 189.312 215.092 188.841Z" stroke="black" stroke-width="0.5" stroke-miterlimit="10" stroke-linecap="round"/>
<path d="M268.765 134.19L285.524 135.394L302.282 136.602" fill="#84A1E5"/>
<path d="M268.765 134.19L285.524 135.394L302.282 136.602" stroke="#070707" stroke-width="0.5" stroke-miterlimit="10" stroke-linecap="round"/>
</g>
<defs>
<linearGradient id="paint0_linear_484_6956" x1="0" y1="0" x2="145.034" y2="338.524" gradientUnits="userSpaceOnUse">
<stop stop-color="#C7FDDC"/>
<stop offset="0.991385" stop-color="#ABC3FD"/>
</linearGradient>
<linearGradient id="paint1_linear_484_6956" x1="328.503" y1="139.737" x2="328.503" y2="98.4824" gradientUnits="userSpaceOnUse">
<stop offset="0.18" stop-color="#A4C2FF"/>
<stop offset="0.44" stop-color="#B5DEED"/>
<stop offset="0.68" stop-color="#C6FCDB"/>
</linearGradient>
<linearGradient id="paint2_linear_484_6956" x1="145.729" y1="153.797" x2="145.729" y2="120.711" gradientUnits="userSpaceOnUse">
<stop offset="0.08" stop-color="#A4C2FF"/>
<stop offset="0.35" stop-color="#B5DEED"/>
<stop offset="0.6" stop-color="#C6FCDB"/>
<stop offset="0.95" stop-color="#FEC2D9"/>
</linearGradient>
<linearGradient id="paint3_linear_484_6956" x1="197.634" y1="80.7325" x2="197.634" y2="65.497" gradientUnits="userSpaceOnUse">
<stop offset="0.18" stop-color="#A4C2FF"/>
<stop offset="0.44" stop-color="#B5DEED"/>
<stop offset="0.68" stop-color="#C6FCDB"/>
</linearGradient>
<linearGradient id="paint4_linear_484_6956" x1="312.823" y1="166.77" x2="312.823" y2="148.468" gradientUnits="userSpaceOnUse">
<stop offset="0.08" stop-color="#A4C2FF"/>
<stop offset="0.35" stop-color="#B5DEED"/>
<stop offset="0.6" stop-color="#C6FCDB"/>
<stop offset="0.95" stop-color="#FEC2D9"/>
</linearGradient>
<linearGradient id="paint5_linear_484_6956" x1="172.883" y1="179.726" x2="172.883" y2="161.423" gradientUnits="userSpaceOnUse">
<stop offset="0.18" stop-color="#A4C2FF"/>
<stop offset="0.44" stop-color="#B5DEED"/>
<stop offset="0.68" stop-color="#C6FCDB"/>
</linearGradient>
<clipPath id="clip0_484_6956">
<rect width="375" height="240" fill="white"/>
</clipPath>
</defs>
</svg>
