<svg width="375" height="240" viewBox="0 0 375 240" fill="none" xmlns="http://www.w3.org/2000/svg">
<g clip-path="url(#clip0_484_5089)">
<rect width="375" height="240" fill="url(#paint0_linear_484_5089)"/>
<path d="M166.65 128.514L163.307 132.766L159.965 137.019L158.762 132.462L157.556 127.902L151.212 131.659L144.867 135.416L147.619 129.051L150.368 122.686L139.726 123.592L129.083 124.498L138.132 119.115L147.18 113.733L143.446 111.083L139.713 108.437L145.041 107.138L150.368 105.835L147.206 97.9217L144.04 90.0049L150.798 95.3137L157.556 100.619L158.878 89.5953L160.196 78.5713L163.42 89.2945L166.643 100.014L171.753 97.0737L176.862 94.1361L175.506 99.7969L174.149 105.461L182.158 106.789L190.167 108.117L182.973 111.57L175.775 115.026L181.513 120.094L187.251 125.163L179.662 124.069L172.07 122.971L175.175 131.64L178.283 140.312L172.465 134.411L166.65 128.514Z" fill="#FC762B" stroke="#070707" stroke-width="0.5" stroke-miterlimit="10" stroke-linecap="round"/>
<path d="M317.646 267.63L313.416 268.078L309.182 268.526L311.1 265.355L313.015 262.181L307.421 260.667L301.827 259.154L306.93 257.218L312.033 255.285L307.289 251.173L302.545 247.061L308.948 247.826L315.35 248.59L314.801 245.042L314.256 241.493L317.906 243.778L321.556 246.066L324.299 239.954L327.041 233.842L327.737 240.549L328.436 247.253L333.562 244.011L338.688 240.77L336.218 246.402L333.751 252.034L338.207 253.298L342.665 254.565L338.723 256.901L334.778 259.237L338.412 264.469L342.043 269.698L336.154 267.541L330.262 265.384L330.537 271.384L330.813 277.387L327.279 272.517L323.744 267.646L320.543 274.139L317.345 280.629L317.496 274.13L317.646 267.63Z" fill="#FC762B" stroke="#070707" stroke-width="0.5" stroke-miterlimit="10" stroke-linecap="round"/>
<path d="M306.475 62.264L312.094 73.912L317.711 85.5632L319.869 72.6L322.028 59.6336L331.224 61.8288L340.436 64.024L335.657 55.752L330.903 47.4832L353.035 42.84L375.167 38.184L352.544 35.48L329.902 32.7792L338.534 21.8416L347.162 10.904L334.29 16.024L321.418 21.144L319.305 12.52L317.191 3.89601L312.883 9.93761L308.576 15.9824L299.822 1.3328L291.069 -13.3136L292.541 3.912L294.017 21.1408L283.666 16.6864L273.315 12.2352L279.41 22.504L285.504 32.776L278.088 34.7248L270.676 36.6768L277.594 42.0848L284.513 47.4896L276.898 57.3296L269.319 67.16L282.377 63.0992L295.431 59.0352V76.12L300.958 69.1856L306.475 62.264Z" fill="#FC762B" stroke="#070707" stroke-width="0.5" stroke-miterlimit="10" stroke-linecap="round"/>
<path d="M266.41 129.176L245.978 127.413L225.546 125.65C224.423 128.066 223.05 131.09 221.527 134.674C220.003 138.258 218.319 142.354 216.613 146.888C212.64 157.35 209.284 168.035 206.561 178.888C204.251 187.928 202.503 195.886 199.899 204.414C197.497 212.258 194.574 219.932 191.149 227.387C186.546 237.384 181.152 247 175.018 256.142L188.958 257.899C193.602 258.486 198.249 259.068 202.898 259.646L217.88 261.512C222.643 262.11 227.06 262.667 230.777 263.15C234.052 228.91 236.621 203.531 238.508 186.706C240.394 169.88 241.59 161.627 242.129 161.669C242.668 161.71 242.475 170.04 241.609 186.923C240.743 203.806 239.197 229.25 237.026 263.512C244.342 263.301 254.606 261.563 264.867 259.829C275.128 258.094 285.395 256.354 292.705 256.142C287.487 247.622 283.16 238.589 279.795 229.186C277.362 222.343 275.537 215.301 274.342 208.139C273.059 200.373 272.716 193.739 272.26 185.205C271.805 176.67 271.218 166.286 269.425 151.029C268.879 146.366 268.321 142.136 267.821 138.453C267.321 134.77 266.801 131.64 266.41 129.176Z" fill="#DBCAF4" stroke="black" stroke-width="0.5" stroke-miterlimit="10" stroke-linecap="round"/>
<path d="M206.452 1.28156C207.473 -2.2135 208.985 -5.54682 210.942 -8.61923C214.044 -13.3616 218.874 -17.6944 225.793 -16.0496C225.793 -16.0496 228.702 -18.2512 232.176 -18.648C235.65 -19.0448 239.678 -17.6304 241.927 -10.3984C242.42 -9.00788 243.075 -7.67946 243.877 -6.44003C245.24 -4.33764 247.363 -1.96003 250.391 -0.916834C250.891 -0.747105 251.405 -0.626007 251.928 -0.555235C252.452 -0.483757 252.98 -0.447409 253.509 -0.446434C256.004 -0.443411 258.397 0.53948 260.171 2.28957C261.775 3.88956 262.67 5.95677 262.516 7.87357C262.362 9.79037 261.133 11.7136 259.25 13.0576C258.216 13.7825 257.048 14.2969 255.814 14.5714C254.581 14.846 253.304 14.8752 252.059 14.6576C252.101 15.8419 251.845 17.0178 251.315 18.0784C250.414 19.9984 248.457 22.3792 244.236 24.1392L245.282 25.8512L246.327 27.5632C246.327 27.5632 252.354 28.2864 255.86 36.5424C259.366 44.7984 260.351 60.5872 250.25 90.728L217.469 98.1872L184.689 105.646C180.814 102.476 177.235 98.9607 173.998 95.144C169.346 89.6598 165.442 83.5857 162.387 77.08C158.524 68.8514 156.041 60.0465 155.035 51.016C154.038 41.9472 154.596 32.7312 157.024 24.0752C158.592 18.4263 161.097 13.079 164.433 8.25436C167.74 3.44515 171.997 -0.63942 176.943 -3.74883C182.129 -6.94883 187.585 -8.04323 192.701 -7.16003C197.817 -6.27683 202.619 -3.41604 206.452 1.28156Z" fill="url(#paint1_linear_484_5089)" stroke="black" stroke-width="0.5" stroke-miterlimit="10" stroke-linecap="round"/>
<path d="M218.262 22.8048C219.665 22.654 221.083 22.6808 222.48 22.8848C224.7 23.2213 226.842 23.954 228.802 25.048C230.829 26.1904 232.574 27.7488 233.452 29.6944C233.579 29.9719 233.678 30.2613 233.748 30.5584C233.816 30.8529 233.842 31.1558 233.825 31.4576C233.807 31.7625 233.734 32.0617 233.61 32.3408C233.484 32.6169 233.3 32.8625 233.071 33.0608C232.355 33.656 231.323 33.3968 229.943 32.984C228.564 32.5712 226.842 32.0048 224.754 31.992C224.028 31.9895 223.303 32.0527 222.589 32.1808C222.067 32.2752 221.551 32.4035 221.046 32.5648C220.613 32.0534 220.222 31.5088 219.875 30.936C218.413 28.4928 217.846 25.6187 218.271 22.8048H218.262Z" fill="#DBCAF4" stroke="black" stroke-width="0.5" stroke-miterlimit="10" stroke-linecap="round"/>
<path d="M198.282 155.528C198.468 155.282 198.734 154.949 199.081 154.568C199.485 154.118 199.913 153.691 200.364 153.288C202.685 151.231 205.56 149.896 208.633 149.448C211.199 149.055 213.303 149.339 214.179 149.637C214.498 149.746 214.805 149.886 215.096 150.056C215.387 150.224 215.652 150.432 215.885 150.674C216.134 150.946 216.325 151.266 216.446 151.615C216.552 151.896 216.607 152.194 216.607 152.495C216.568 153.509 215.259 154.095 213.466 154.808C211.673 155.522 209.393 156.299 207.414 157.72C206.386 158.464 205.469 159.35 204.691 160.351C203.564 161.819 202.666 163.449 202.029 165.186C201.579 164.782 201.15 164.354 200.745 163.906C199.956 163.097 199.306 162.164 198.821 161.144C198.393 160.088 198.153 158.965 198.112 157.826C198.084 157.056 198.141 156.285 198.282 155.528Z" fill="#DBCAF4" stroke="black" stroke-width="0.5" stroke-miterlimit="10" stroke-linecap="round"/>
<path d="M187.912 43.4543C187.912 43.4543 187.335 51.4063 190.825 62.2351C194.314 73.0639 201.868 86.7727 218.127 98.2895" stroke="black" stroke-width="0.5" stroke-miterlimit="10" stroke-linecap="round"/>
<path d="M248.521 76.2383C244.746 75.8894 240.945 75.9119 237.173 76.3055C233.399 76.6969 229.723 77.743 226.309 79.3967C223.828 80.6867 221.548 82.3307 219.542 84.2767C217.492 86.1967 215.599 88.2927 213.717 90.3151L213.935 89.8575C214.047 89.6271 214.159 89.3903 214.172 89.3679C214.291 89.1183 214.544 88.6127 215.035 87.6623C215.526 86.7119 216.257 85.3167 217.325 83.2847L207.574 78.3119L197.82 73.3423L190.488 87.7903L183.156 102.238C181.347 105.439 180.583 109.122 180.971 112.776C181.346 116.381 182.862 119.774 185.298 122.462C186.274 123.504 187.379 124.417 188.586 125.179C190.089 126.145 191.722 126.894 193.436 127.403C194.187 127.609 194.951 127.766 195.723 127.873C197.514 128.145 199.333 128.193 201.137 128.017C204.566 127.659 208.633 125.665 212.809 122.277C216.985 118.888 221.264 114.097 225.116 108.149C225.187 111.067 225.258 113.984 225.331 116.901C225.404 119.817 225.475 122.733 225.546 125.649L245.978 127.413L266.41 129.176C267.312 126.281 268.212 123.386 269.11 120.491C270.008 117.596 270.909 114.701 271.811 111.806C278.088 119.608 284.285 125.957 289.863 130.603C295.441 135.249 300.4 138.2 304.197 139.192C308.001 140.212 312.025 140.065 315.744 138.769C318.302 137.881 320.591 136.357 322.395 134.341C324.199 132.326 325.459 129.885 326.057 127.249C326.384 125.812 326.521 124.338 326.464 122.865C326.389 121.344 326.087 119.841 325.569 118.408C325.081 117 324.456 115.63 323.843 114.187L317.13 98.4111L310.417 82.6351L300.265 87.2623L290.116 91.8895L291.72 95.5503C292.512 97.3839 293.308 99.2175 293.324 99.2175C293.455 99.5375 292.641 98.5967 291.271 97.0927C289.901 95.5887 287.967 93.5119 285.86 91.5119C281.905 87.8093 277.374 84.7724 272.443 82.5199C268.97 80.9365 265.377 79.629 261.698 78.6095C260.893 78.3759 259.254 77.9183 256.986 77.4575C254.192 76.8816 251.365 76.4745 248.521 76.2383Z" fill="#F6C34C" stroke="#070707" stroke-width="0.5" stroke-miterlimit="10" stroke-linecap="round"/>
<path d="M243.636 76.2383C243.636 76.2383 245.109 81.5791 246.671 87.4095C248.233 93.2399 249.878 99.5695 250.25 101.544L256.344 90.1807L262.439 78.8175C261.156 78.3791 259.719 77.9375 258.118 77.5375C256.388 77.1125 254.635 76.7835 252.868 76.5519C251.212 76.3355 249.546 76.2042 247.877 76.1583C246.347 76.1199 244.919 76.1615 243.636 76.2383Z" fill="#F6991A" stroke="black" stroke-width="0.5" stroke-miterlimit="10" stroke-linecap="round"/>
<path d="M280.163 77.2656C280.163 79.2747 279.464 81.2215 278.186 82.7743C276.908 84.327 275.13 85.3897 273.155 85.7812C271.179 86.1728 269.129 85.8689 267.353 84.9215C265.577 83.9741 264.186 82.4417 263.415 80.5854C262.645 78.7291 262.543 76.6637 263.128 74.7412C263.713 72.8186 264.948 71.1577 266.622 70.0416C268.297 68.9254 270.307 68.423 272.311 68.62C274.316 68.8169 276.189 69.701 277.613 71.1216C278.423 71.9276 279.065 72.8853 279.503 73.9397C279.941 74.9941 280.165 76.1244 280.163 77.2656Z" fill="#ECE7E1" stroke="black" stroke-width="0.5" stroke-miterlimit="10" stroke-linecap="round"/>
<path d="M265.544 69.5377C265.018 73.1398 263.228 76.4387 260.492 78.8465C257.926 81.0289 254.718 82.1201 251.415 81.6049C248.111 81.0897 245.384 79.0449 243.624 76.1969C241.802 73.0526 241.117 69.38 241.682 65.7924C242.248 62.2048 244.03 58.9194 246.732 56.4849C249.298 54.3025 252.505 53.2113 255.812 53.7265C259.119 54.2417 261.842 56.2865 263.603 59.1345C265.465 62.2634 266.152 65.9501 265.544 69.5377Z" fill="#F2B3C1" stroke="black" stroke-width="0.5" stroke-miterlimit="10" stroke-linecap="round"/>
<path d="M264.001 74.3407C264.212 73.9183 264.431 73.4383 264.642 72.9071C265.18 71.527 265.525 70.08 265.669 68.6063C265.739 67.9175 265.765 67.2249 265.746 66.5327C266.301 66.4969 266.858 66.5843 267.375 66.7887C267.644 66.8972 267.891 67.0545 268.103 67.2527C268.851 67.9567 269.065 69.1247 268.867 70.3183C268.659 71.5529 268.038 72.6808 267.106 73.5183C266.584 73.9612 265.946 74.2455 265.268 74.3375C264.848 74.4021 264.421 74.4032 264.001 74.3407Z" fill="#F2B3C1" stroke="black" stroke-width="0.5" stroke-miterlimit="10" stroke-linecap="round"/>
<path d="M241.638 70.616C241.58 70.1872 241.532 69.7168 241.503 69.208C241.476 68.6644 241.476 68.1197 241.503 67.576C241.571 66.1141 241.835 64.6678 242.286 63.2752C241.833 63.0489 241.336 62.9244 240.83 62.9104C240.571 62.906 240.314 62.9561 240.076 63.0576C239.184 63.4448 238.604 64.6 238.472 65.8864C238.341 67.1728 238.636 68.5936 239.502 69.5184C239.817 69.8519 240.197 70.1185 240.618 70.3024C240.944 70.4479 241.287 70.5532 241.638 70.616Z" fill="#F2B3C1" stroke="black" stroke-width="0.5" stroke-miterlimit="10" stroke-linecap="round"/>
<path d="M257.146 66.7793C257.146 66.9583 257.083 67.1316 256.969 67.2697C256.855 67.4078 256.696 67.5021 256.52 67.5367C256.344 67.5712 256.161 67.5438 256.003 67.4592C255.845 67.3745 255.721 67.2378 255.653 67.0723C255.584 66.9068 255.575 66.7228 255.628 66.5515C255.68 66.3802 255.79 66.2323 255.939 66.1328C256.088 66.0334 256.267 65.9886 256.446 66.0062C256.625 66.0237 256.792 66.1024 256.919 66.2289C256.991 66.3012 257.048 66.387 257.087 66.4815C257.126 66.5759 257.147 66.6771 257.146 66.7793Z" fill="#020202"/>
<path d="M249.079 66.2449C249.079 66.4239 249.016 66.5972 248.902 66.7353C248.788 66.8734 248.629 66.9677 248.453 67.0023C248.277 67.0368 248.094 67.0094 247.936 66.9248C247.778 66.8401 247.654 66.7034 247.586 66.5379C247.517 66.3724 247.508 66.1884 247.561 66.0171C247.613 65.8458 247.723 65.6978 247.872 65.5984C248.021 65.499 248.201 65.4542 248.379 65.4717C248.558 65.4892 248.725 65.5679 248.852 65.6945C248.924 65.7668 248.981 65.8526 249.021 65.947C249.06 66.0415 249.08 66.1427 249.079 66.2449Z" fill="#020202"/>
<path d="M251.302 69.4961L250.574 68.8241L249.843 68.1553C249.834 68.1465 249.828 68.1359 249.824 68.1243C249.82 68.1126 249.819 68.1002 249.82 68.0881C249.823 68.0749 249.829 68.0628 249.838 68.0531C249.847 68.0434 249.859 68.0367 249.872 68.0337L250.767 67.8129L251.662 67.5953L251.742 65.9953L251.819 64.3953" stroke="black" stroke-width="0.5" stroke-miterlimit="10" stroke-linecap="round"/>
<path d="M254.587 63.3201C254.832 63.5547 255.09 63.7759 255.36 63.9825C255.688 64.2345 256.033 64.4633 256.393 64.6673C256.694 64.8394 257.006 64.9933 257.326 65.1281C257.618 65.2529 257.897 65.3521 258.144 65.4321" stroke="black" stroke-width="0.5" stroke-miterlimit="10" stroke-linecap="round"/>
<path d="M250.218 63C249.933 63.1728 249.615 63.3488 249.256 63.5216C248.897 63.6944 248.518 63.8672 248.101 64.0272C247.684 64.1872 247.347 64.2928 246.998 64.392C246.648 64.4912 246.318 64.5712 246.016 64.632" stroke="black" stroke-width="0.5" stroke-miterlimit="10" stroke-linecap="round"/>
<path d="M207.978 34.1775C207.978 34.1775 211.715 39.9375 216.501 43.2623C221.286 46.5871 227.114 47.4703 231.297 37.7231C228.728 37.6905 226.222 36.9213 224.078 35.5074C221.935 34.0936 220.244 32.0945 219.208 29.7487C218.89 29.0259 218.638 28.2763 218.454 27.5087C218.274 26.7541 218.161 25.9853 218.114 25.2111C218.009 23.5452 218.338 21.8806 219.069 20.379C219.8 18.8774 220.907 17.5898 222.284 16.6415C223.638 15.6823 225.227 15.105 226.883 14.9704C228.538 14.8358 230.199 15.1489 231.692 15.8767L231.89 15.9759L232.093 16.0783C234.618 17.4682 236.582 19.688 237.651 22.3599C238.831 25.2522 239.102 28.4334 238.431 31.4831L240.355 29.7967L242.28 28.1135L244.846 28.9903L247.412 29.8671L246.866 28.6991L246.315 27.5343" stroke="black" stroke-width="0.5" stroke-miterlimit="10" stroke-linecap="round"/>
<path d="M254.972 73.0895H251.357C251.317 73.0904 251.277 73.0832 251.24 73.0684C251.203 73.0536 251.17 73.0315 251.142 73.0034C251.113 72.9753 251.091 72.9418 251.076 72.9049C251.062 72.868 251.054 72.8285 251.055 72.7887C251.055 72.2294 251.278 71.6931 251.674 71.2976C252.071 70.9021 252.608 70.6799 253.169 70.6799C253.73 70.6799 254.267 70.9021 254.664 71.2976C255.06 71.6931 255.283 72.2294 255.283 72.7887C255.281 72.8689 255.249 72.9454 255.193 73.0031C255.164 73.0321 255.13 73.0547 255.091 73.0695C255.053 73.0844 255.013 73.0912 254.972 73.0895Z" fill="#ECE7E1" stroke="black" stroke-width="0.5" stroke-miterlimit="10" stroke-linecap="round"/>
<path d="M249.07 72.8239C248.934 72.4044 248.775 71.9931 248.592 71.5919C248.438 71.2495 248.287 70.9519 248.133 70.5647C247.979 70.1837 247.845 69.7949 247.732 69.3999C247.659 69.1567 247.617 69.0479 247.527 69.0447C247.437 69.0415 247.341 69.2175 247.235 69.5535C247.129 69.8895 246.991 70.3887 246.735 71.0255C246.558 71.4639 246.321 71.9087 246.129 72.3663C245.921 72.8094 245.812 73.2918 245.808 73.7807C245.816 73.9967 245.868 74.2087 245.96 74.4043C246.052 74.6 246.182 74.7753 246.343 74.9199C246.664 75.2165 247.084 75.3831 247.521 75.3871C247.791 75.3916 248.059 75.3291 248.3 75.2051C248.541 75.0812 248.747 74.8996 248.9 74.6767C249.052 74.454 249.154 74.201 249.198 73.9353C249.242 73.6695 249.228 73.3973 249.156 73.1375C249.156 73.0831 249.128 73.0319 249.112 72.9775L249.07 72.8239Z" fill="#84A1E5" stroke="#070707" stroke-width="0.5" stroke-miterlimit="10" stroke-linecap="round"/>
<path d="M214.493 88.8464L211.164 95.1376L207.834 101.432" stroke="black" stroke-width="0.5" stroke-miterlimit="10" stroke-linecap="round"/>
<path d="M293.953 99.2175L297.118 107.048L300.284 114.875" stroke="black" stroke-width="0.5" stroke-miterlimit="10" stroke-linecap="round"/>
<path d="M250.25 101.544C250.68 103.942 250.958 106.365 251.084 108.798C251.24 111.787 251.161 114.782 250.85 117.758C250.651 119.643 250.372 121.416 250.042 123.067C249.711 124.718 249.326 126.251 248.922 127.653" stroke="black" stroke-width="0.5" stroke-miterlimit="10" stroke-linecap="round"/>
<path d="M284.032 72.8015C285.016 73.0511 286.068 73.0735 286.755 72.3951C287.441 71.7167 287.759 70.3343 287.284 67.7839C286.575 63.9783 284.72 60.4788 281.966 57.7519C281.139 56.9303 280.248 56.1759 279.301 55.4959C278.262 54.7461 277.146 54.1089 275.971 53.5951C275.524 53.404 275.063 53.2457 274.592 53.1215C274.124 52.9935 273.649 52.8879 273.174 52.8015C272.629 52.686 272.141 52.3838 271.795 51.9471C271.636 51.7704 271.516 51.5627 271.441 51.3372C271.367 51.1117 271.34 50.8733 271.363 50.637C271.386 50.4006 271.457 50.1716 271.573 49.9642C271.689 49.7568 271.846 49.5755 272.036 49.4319C272.44 49.0936 272.943 48.8939 273.469 48.8623C273.939 48.84 274.409 48.8464 274.877 48.8815C275.834 48.9318 276.777 49.1282 277.674 49.4639C278.028 49.1598 278.418 48.9007 278.836 48.6927C279.425 48.3953 280.074 48.2314 280.734 48.2127C281.15 48.2021 281.564 48.2561 281.963 48.3727C282.417 48.5117 282.863 48.674 283.3 48.8591C283.784 49.0536 284.256 49.2747 284.715 49.5215C285.323 49.8483 285.907 50.2172 286.463 50.6255C286.775 50.5215 287.098 50.4507 287.425 50.4143C287.853 50.3619 288.287 50.3836 288.708 50.4783C289.136 50.5732 289.544 50.741 289.914 50.9743C290.244 51.1843 290.55 51.4301 290.825 51.7071C291.403 52.2799 291.97 52.8655 292.522 53.4575C293.074 54.0495 293.619 54.6479 294.145 55.2495C296.723 58.2003 299.081 61.3351 301.202 64.6287C303.326 67.9235 305.22 71.3598 306.872 74.9135C307.584 76.4431 308.239 77.8639 308.832 79.1567C309.426 80.4495 309.958 81.6207 310.436 82.6511C307.2 84.1007 303.742 85.6911 300.284 87.2783C296.826 88.8655 293.372 90.4559 290.136 91.9055C289.023 90.0911 287.778 88.1999 286.389 86.2639C285 84.3279 283.467 82.3407 281.774 80.3375C280.963 79.3775 280.155 78.457 279.349 77.5759C278.543 76.6949 277.743 75.8522 276.95 75.0479C275.989 74.0782 275.302 72.8728 274.958 71.5535C274.714 70.4719 274.861 69.5439 275.333 68.9743C275.603 68.6543 275.965 68.4233 276.369 68.3119C276.775 68.1968 277.205 68.1968 277.61 68.3119C278.094 68.4617 278.551 68.6898 278.961 68.9871C279.6 69.4493 280.173 69.9962 280.664 70.6127C281.098 71.1424 281.609 71.604 282.181 71.9823C282.748 72.3561 283.373 72.633 284.032 72.8015Z" fill="#F2B3C1" stroke="black" stroke-width="0.5" stroke-miterlimit="10" stroke-linecap="round"/>
<path d="M289.045 90.9775L293.032 100.174L297.019 109.371L303.007 101.33L308.999 93.2847L299.02 92.1327L289.045 90.9775Z" fill="#ECE7E1" stroke="black" stroke-width="0.5" stroke-miterlimit="10" stroke-linecap="round"/>
<path d="M277.674 49.448C277.915 49.528 278.197 49.6304 278.518 49.768C278.839 49.9056 279.185 50.0432 279.564 50.2224C279.564 50.2224 280.032 50.4432 280.741 50.8624C281.652 51.3932 282.523 51.9889 283.349 52.6448C284.988 54.0254 286.47 55.5814 287.768 57.2848C288.965 58.808 289.796 60.072 289.978 60.3536" stroke="black" stroke-width="0.5" stroke-miterlimit="10" stroke-linecap="round"/>
<path d="M286.117 50.3633C286.328 50.5553 286.575 50.7825 286.845 51.0385C287.114 51.2945 287.412 51.5793 287.727 51.8961C287.913 52.0785 288.282 52.4497 288.772 52.9681C289.263 53.4865 289.876 54.1553 290.546 54.9361C290.966 55.4257 291.422 55.9761 291.903 56.5809C292.384 57.1857 292.891 57.8609 293.41 58.5649" stroke="black" stroke-width="0.5" stroke-miterlimit="10" stroke-linecap="round"/>
<path d="M224.673 64.8272C223.676 65.0288 222.627 64.9968 221.976 64.2864C221.325 63.576 221.071 62.1808 221.674 59.656C222.572 55.8912 224.598 52.4888 227.483 49.9025C228.349 49.121 229.277 48.4105 230.258 47.7776C231.334 47.0804 232.481 46.498 233.68 46.04C234.136 45.8737 234.604 45.739 235.079 45.6369C235.553 45.5313 236.041 45.4513 236.516 45.3713C237.066 45.2821 237.568 45.005 237.937 44.5873C238.27 44.2243 238.446 43.7448 238.427 43.2528C238.381 42.7939 238.163 42.3692 237.818 42.0625C237.43 41.7046 236.938 41.4802 236.413 41.4225C235.946 41.377 235.477 41.3599 235.008 41.3713C234.05 41.375 233.098 41.525 232.185 41.8161C231.849 41.4945 231.473 41.217 231.066 40.9904C230.491 40.6644 229.852 40.4668 229.193 40.4113C228.778 40.3819 228.362 40.4164 227.958 40.5136C227.497 40.6285 227.043 40.7684 226.598 40.9328C226.105 41.1027 225.622 41.2992 225.151 41.5217C224.528 41.8189 223.925 42.1589 223.349 42.5392C223.045 42.4203 222.73 42.3334 222.409 42.28C221.984 42.2095 221.551 42.2095 221.126 42.28C220.696 42.3557 220.281 42.504 219.901 42.7184C219.554 42.9091 219.231 43.14 218.938 43.4065C218.335 43.9473 217.739 44.5041 217.155 45.0673C216.571 45.6305 216.004 46.2032 215.449 46.776C212.722 49.5951 210.205 52.609 207.917 55.7936C205.629 58.9785 203.565 62.3177 201.74 65.7872C200.951 67.2784 200.226 68.6672 199.572 69.928C198.917 71.1888 198.324 72.3312 197.807 73.3392C199.437 74.1926 201.077 75.0459 202.728 75.8992C204.379 76.7526 206.041 77.6059 207.715 78.4592C209.326 79.2806 210.929 80.0923 212.527 80.8944C214.124 81.6966 215.718 82.4912 217.309 83.2784C218.504 81.1913 219.924 79.2406 221.543 77.4608C223.147 75.6656 224.876 73.9888 226.614 72.3408C227.628 71.3808 230.011 69.512 231.813 67.4576C233.616 65.4032 234.841 63.1568 233.545 61.4288C233.292 61.0958 232.943 60.8471 232.545 60.7152C232.145 60.5816 231.716 60.5627 231.307 60.6608C230.814 60.7844 230.346 60.9888 229.921 61.2656C229.261 61.6971 228.663 62.2148 228.141 62.8049C227.679 63.3075 227.145 63.7389 226.556 64.0849C225.974 64.434 225.338 64.6849 224.673 64.8272Z" fill="#F2B3C1" stroke="black" stroke-width="0.5" stroke-miterlimit="10" stroke-linecap="round"/>
<path d="M292.888 86.7153C292.891 88.7258 292.196 90.6755 290.921 92.2321C289.645 93.7887 287.868 94.856 285.892 95.2521C283.917 95.6482 281.864 95.3487 280.085 94.4045C278.306 93.4603 276.91 91.9299 276.135 90.074C275.359 88.2181 275.253 86.1515 275.834 84.2263C276.415 82.301 277.647 80.6362 279.32 79.5155C280.993 78.3948 283.004 77.8875 285.01 78.08C287.016 78.2725 288.893 79.1529 290.322 80.5713C291.135 81.3752 291.781 82.3322 292.221 83.3868C292.662 84.4415 292.888 85.5728 292.888 86.7153Z" fill="#ECE7E1" stroke="black" stroke-width="0.5" stroke-miterlimit="10" stroke-linecap="round"/>
<path d="M232.185 41.8191C231.942 41.8863 231.653 41.9759 231.329 42.0847C231.005 42.1935 230.646 42.3279 230.261 42.4879C230.261 42.4879 229.78 42.6863 229.052 43.0639C228.115 43.5483 227.214 44.1002 226.357 44.7151C224.653 46.0118 223.096 47.4916 221.716 49.1279C220.433 50.5903 219.551 51.8127 219.355 52.0847" stroke="black" stroke-width="0.5" stroke-miterlimit="10" stroke-linecap="round"/>
<path d="M223.708 42.312C223.487 42.4944 223.23 42.7088 222.948 42.952C222.666 43.1952 222.354 43.464 222.024 43.7648C221.828 43.9376 221.444 44.2896 220.927 44.7824C220.411 45.2752 219.766 45.9152 219.057 46.664C218.611 47.1312 218.127 47.656 217.617 48.2352C217.107 48.8144 216.568 49.4512 216.013 50.1552" stroke="black" stroke-width="0.5" stroke-miterlimit="10" stroke-linecap="round"/>
<path d="M387.83 182.654C385.905 178.734 382.736 176.184 379.846 174.562C377.841 173.441 375.696 172.588 373.467 172.027C376.551 169.793 378.834 166.628 379.978 163C381.02 159.802 381.023 156.357 379.987 153.157C378.95 149.958 376.926 147.166 374.204 145.182C371.68 143.324 368.705 142.171 365.586 141.842C367.342 139.019 368.169 135.72 367.953 132.405C367.777 129.375 366.672 126.473 364.785 124.093C362.899 121.712 360.324 119.969 357.41 119.099C354.652 118.263 351.718 118.191 348.923 118.891C349.673 116.693 349.971 114.366 349.798 112.05C349.646 109.736 348.978 107.485 347.845 105.461C344.82 100.181 338.899 96.7408 332.558 95.5664C326.217 94.392 319.455 95.4768 314.75 99.2464C312.425 101.136 310.663 103.623 309.653 106.44C308.636 109.253 308.226 112.248 308.45 115.23L305.942 116.12L303.437 117.006L305.265 118.462L307.097 119.922C306.609 120.336 306.214 120.849 305.939 121.426C305.519 122.344 305.419 123.595 306.696 124.92C307.699 124.324 308.767 123.842 309.878 123.483C311.319 123.017 312.827 122.79 314.343 122.811C315.973 122.841 317.592 123.093 319.154 123.56C321.197 124.2 323.275 125.384 324.17 127.576C324.193 127.627 324.212 127.678 324.231 127.726C324.251 127.774 324.267 127.829 324.283 127.877C324.757 129.25 324.337 130.734 323.683 131.986C323.157 132.982 322.477 133.89 321.669 134.677C320.273 135.957 317.864 136.338 314.987 135.781C312.11 135.224 308.761 133.733 305.483 131.266C305.329 132.054 305.248 132.856 305.243 133.659C305.24 134.256 305.284 134.852 305.374 135.442C305.48 136.12 305.609 136.75 305.727 137.272C305.846 137.794 305.961 138.21 306.048 138.466C306.135 138.722 306.195 138.93 306.263 139.128C306.33 139.326 306.394 139.502 306.449 139.65C305.936 139.541 305.32 139.397 304.63 139.202C303.941 139.006 303.171 138.766 302.353 138.459C300.935 137.928 299.564 137.28 298.254 136.523C297.064 135.842 296.024 135.138 295.027 134.459C293.423 133.368 291.874 132.178 290.722 131.259C289.571 130.341 288.817 129.698 288.817 129.698C288.817 129.698 287.602 130.52 285.792 131.8C283.983 133.08 281.603 134.763 279.233 136.485C278.271 137.176 277.414 137.813 276.638 138.389C275.862 138.965 275.182 139.47 274.608 139.899L268.241 137.339L261.874 134.779C261.463 134.555 261.01 134.417 260.544 134.372C260.078 134.327 259.607 134.376 259.161 134.517C258.755 134.635 258.379 134.839 258.06 135.115C257.74 135.391 257.485 135.733 257.31 136.117C257.058 136.738 257.031 137.427 257.233 138.066C257.448 138.763 257.878 139.376 258.461 139.816L263.956 143.464L269.453 147.109L269.421 147.176C269.409 147.197 269.399 147.218 269.389 147.24C266.903 146.834 265.457 147.803 264.629 148.872C264.125 149.534 263.772 150.299 263.597 151.112C260.456 150.619 258.949 151.662 258.227 152.83C257.788 153.574 257.559 154.422 257.566 155.285C255.719 156.146 255.074 157.739 254.888 159.125C254.778 159.977 254.81 160.842 254.981 161.685C255.836 164.541 256.554 167.434 257.133 170.363C257.713 173.292 258.141 176.242 258.416 179.211L259.058 185.893L259.699 192.574C259.741 193.214 259.792 193.826 259.85 194.45C259.908 195.074 259.972 195.704 260.039 196.334C260.893 203.96 262.955 211.374 266.689 217.662C270.422 223.95 275.817 229.09 283.336 232.165C288.878 234.38 294.829 235.396 300.794 235.147C306.795 234.917 312.712 233.654 318.281 231.413C322.414 229.742 326.36 227.643 330.053 225.15C333.747 222.66 337.229 219.871 340.465 216.811C341.161 216.171 344.682 212.136 347.903 208.206C351.123 204.277 354.032 200.443 353.503 200.174L365.483 206.254L377.45 212.315C382.967 208.504 386.675 203.355 388.443 198.04C390.21 192.725 390.069 187.189 387.83 182.654Z" fill="url(#paint2_linear_484_5089)" stroke="black" stroke-width="0.5" stroke-miterlimit="10" stroke-linecap="round"/>
<path d="M323.369 132.514C323.452 132.36 320.453 130.222 320.161 130.043C317.544 128.427 313.884 127.221 310.859 128.411C310.635 128.496 310.42 128.603 310.218 128.731C310.013 128.864 309.827 129.024 309.666 129.208C309.504 129.396 309.378 129.613 309.297 129.848C309.212 130.077 309.18 130.322 309.204 130.565C309.317 131.682 310.317 132.382 311.45 132.955C312.582 133.528 313.887 133.982 314.59 134.603C314.856 134.845 315.103 135.107 315.327 135.387C315.485 135.589 315.603 135.768 315.687 135.896C316.223 136.009 316.771 136.062 317.319 136.053C318.372 136.056 319.412 135.824 320.363 135.374C321.635 134.75 322.684 133.752 323.369 132.514Z" fill="#DBCAF4" stroke="black" stroke-width="0.5" stroke-miterlimit="10" stroke-linecap="round"/>
<path d="M316.989 117.601C316.989 117.763 316.958 117.922 316.896 118.071C316.835 118.22 316.744 118.355 316.63 118.469C316.516 118.583 316.38 118.673 316.231 118.735C316.082 118.796 315.922 118.827 315.76 118.827C315.599 118.828 315.439 118.797 315.29 118.735C315.14 118.674 315.005 118.583 314.891 118.469C314.662 118.239 314.532 117.928 314.532 117.603C314.532 117.279 314.662 116.967 314.891 116.737C315.063 116.566 315.282 116.449 315.52 116.402C315.758 116.354 316.005 116.378 316.229 116.471C316.454 116.563 316.646 116.72 316.781 116.921C316.916 117.122 316.989 117.359 316.989 117.601Z" fill="#040400"/>
<path d="M314.846 113.768L318.769 112.241L322.692 110.715" stroke="black" stroke-width="0.5" stroke-miterlimit="10" stroke-linecap="round"/>
<path d="M323.664 181.112C321.861 188.062 318.381 193.339 314.455 196.664C310.529 199.989 306.167 201.352 302.587 200.478C301.557 200.223 300.58 199.79 299.7 199.198C298.853 198.633 298.078 197.966 297.394 197.211C296.238 195.941 295.312 194.479 294.658 192.891C293.995 191.298 293.597 189.608 293.481 187.886L292.593 175.166L291.707 162.443C291.582 160.674 291.46 158.904 291.354 157.134C291.249 155.365 291.165 153.592 291.111 151.819C291.094 151.097 290.987 150.38 290.79 149.685C290.3 148.011 289.251 146.556 287.817 145.56C287.364 145.24 286.879 144.967 286.37 144.747C284.375 143.982 282.377 143.147 280.378 142.283C278.38 141.419 276.375 140.574 274.39 139.8" stroke="black" stroke-width="0.5" stroke-miterlimit="10" stroke-linecap="round"/>
<path d="M281.636 153.816L275.583 150.658L269.531 147.499C269.124 147.278 268.675 147.145 268.214 147.109C267.752 147.073 267.288 147.135 266.852 147.291C266.42 147.443 266.025 147.687 265.697 148.007C265.368 148.326 265.113 148.713 264.95 149.141C264.736 149.715 264.697 150.34 264.838 150.936C264.978 151.535 265.272 152.086 265.691 152.536C266.387 153.275 267.125 153.974 267.901 154.629C268.671 155.298 269.454 155.95 270.198 156.632C271.66 157.973 273.341 159.374 274.416 160.997C275.49 162.619 275.955 164.469 274.987 166.702C274.922 166.85 274.852 166.994 274.778 167.134C274.704 167.275 274.624 167.416 274.544 167.554C274.031 168.466 273.619 169.432 273.315 170.434C272.751 172.244 272.509 174.14 272.6 176.034C272.701 178.106 273.182 180.142 274.021 182.04C274.533 183.207 275.179 184.311 275.946 185.33" stroke="black" stroke-width="0.5" stroke-miterlimit="10" stroke-linecap="round"/>
<path d="M257.509 172.37C257.565 172.832 257.718 173.278 257.959 173.677C258.2 174.077 258.523 174.421 258.907 174.686C259.248 174.935 259.64 175.105 260.055 175.184C260.47 175.264 260.897 175.251 261.306 175.147C262.023 174.925 262.623 174.43 262.974 173.768C263.372 173.043 263.486 172.197 263.295 171.394C263.393 171.855 263.586 172.291 263.862 172.674C264.139 173.057 264.492 173.378 264.899 173.618C265.228 173.829 265.601 173.963 265.99 174.01C266.379 174.058 266.774 174.016 267.144 173.89C267.464 173.74 267.75 173.526 267.982 173.26C268.214 172.995 268.389 172.684 268.495 172.347C268.771 171.538 268.737 170.656 268.398 169.87C268.599 170.289 268.858 170.676 269.168 171.022C269.717 171.69 270.505 172.118 271.365 172.216C271.671 172.238 271.978 172.215 272.276 172.146C272.509 172.092 272.735 172.012 272.95 171.909" stroke="black" stroke-width="0.5" stroke-miterlimit="10" stroke-linecap="round"/>
<path d="M274.076 168.466L272.504 162.885L270.935 157.304" stroke="black" stroke-width="0.5" stroke-miterlimit="10" stroke-linecap="round"/>
<path d="M263.597 151.115C263.469 151.982 263.413 152.857 263.43 153.733C263.429 155.685 263.764 157.622 264.421 159.461L266.4 164.664L268.382 169.88" stroke="black" stroke-width="0.5" stroke-miterlimit="10" stroke-linecap="round"/>
<path d="M257.567 155.288C257.567 155.55 257.567 155.87 257.599 156.248C257.631 156.626 257.653 157.029 257.711 157.477C257.831 158.469 258.032 159.449 258.311 160.408C258.574 161.314 258.891 162.171 259.244 163.051C259.953 164.834 260.723 166.514 261.448 167.986C262.173 169.458 262.856 170.728 263.395 171.694" stroke="black" stroke-width="0.5" stroke-miterlimit="10" stroke-linecap="round"/>
<path d="M305.243 133.778C305.243 133.778 305.205 138.174 307.639 142.098C310.074 146.021 314.984 149.458 324.883 147.538" stroke="black" stroke-width="0.5" stroke-miterlimit="10" stroke-linecap="round"/>
<path d="M211.324 136.616C210.335 133.787 208.71 131.221 206.574 129.115C203.016 125.595 197.086 122.574 187.611 124.491C185.428 124.986 183.359 125.891 181.516 127.16C178.418 129.285 175.217 132.987 174.806 139.32C174.806 139.32 169.883 136.44 164.69 136.094C159.497 135.749 154.025 137.925 152.934 148.034C150.255 146.949 147.33 146.616 144.474 147.071C141.619 147.526 138.943 148.752 136.736 150.616C134.506 152.457 132.834 154.881 131.906 157.616C130.978 160.351 130.831 163.29 131.482 166.104C132.955 172.728 137.734 176.763 143.273 178.011C146.188 178.65 149.218 178.54 152.079 177.692C154.94 176.844 157.539 175.286 159.632 173.163C152.646 179.582 147.834 187.816 145.076 196.754C142.347 205.758 141.581 215.241 142.831 224.565C143.658 230.492 145.847 236.148 149.226 241.093C152.697 246.139 157.441 250.315 163.282 252.398C168.824 254.376 174.659 254.229 179.938 252.984C184.725 251.86 189.248 249.822 193.259 246.984C195.671 245.23 198.391 242.667 200.941 240.085C203.491 237.502 205.836 234.898 207.494 233.045C208.854 231.541 209.354 230.933 209.9 230.267C210.445 229.602 211.032 228.882 212.568 227.157C212.568 227.157 215.68 223.662 219.644 219.08C223.609 214.498 228.423 208.84 231.833 204.482C232.187 204.042 232.503 203.572 232.776 203.077C233.543 201.698 233.867 200.117 233.703 198.549C233.644 197.973 233.531 197.404 233.363 196.85C234.334 195.834 234.988 194.559 235.245 193.179C235.441 191.973 235.213 190.866 234.604 190.091C234.4 189.841 234.157 189.625 233.885 189.451C233.368 189.129 232.787 188.92 232.182 188.837C232.41 187.891 232.419 186.906 232.208 185.957C231.849 184.517 230.742 183.077 227.762 183C227.951 182.105 227.925 181.179 227.685 180.296C227.275 179.016 226.12 177.88 223.137 178.456L226.935 173.4L230.758 168.338C231.384 167.622 231.764 166.725 231.842 165.778C231.888 165.419 231.858 165.055 231.754 164.709C231.65 164.363 231.475 164.042 231.239 163.768C230.729 163.253 229.818 163.022 228.843 163.189C227.713 163.395 226.709 164.035 226.046 164.971L218.99 173.003L211.933 181.032C212.28 179.615 212.627 178.197 212.976 176.776C213.324 175.355 213.672 173.938 214.018 172.523C215.681 170.736 217.085 168.725 218.188 166.549C219.875 163.118 220.754 158.805 217.546 155.266C216.081 159.403 213.611 162.414 210.952 164.197C208.293 165.979 205.438 166.533 203.209 165.746C202.579 165.524 201.99 165.2 201.467 164.786C200.966 164.386 200.514 163.927 200.123 163.419C199.192 162.22 198.561 160.815 198.285 159.323C198.007 157.824 198.055 156.283 198.426 154.805C198.661 153.848 198.994 152.919 199.421 152.03C199.919 150.996 200.546 150.028 201.288 149.15C203.248 146.864 205.894 145.269 208.835 144.6C210.355 144.221 211.924 144.069 213.489 144.149L212.992 142.626C212.825 142.12 212.671 141.611 212.495 141.102L214.653 139.918L216.809 138.734L214.066 137.672L211.324 136.616Z" fill="url(#paint3_linear_484_5089)" stroke="black" stroke-width="0.5" stroke-miterlimit="10" stroke-linecap="round"/>
<path d="M184.961 169.022C184.417 170.562 183.645 172.012 182.671 173.323C180.921 175.824 178.385 177.671 175.465 178.572C172.545 179.474 169.407 179.379 166.547 178.302C163.784 177.296 161.377 175.505 159.622 173.15" stroke="black" stroke-width="0.5" stroke-miterlimit="10" stroke-linecap="round"/>
<path d="M211.936 181.054C203.408 191.541 192.371 201.102 183.463 208.04C174.556 214.978 167.785 219.298 167.785 219.298" stroke="black" stroke-width="0.5" stroke-miterlimit="10" stroke-linecap="round"/>
<path d="M214.021 172.546C212.756 173.585 211.379 174.481 209.916 175.218C208.83 175.759 207.695 176.195 206.525 176.52C203.82 177.246 201.021 177.561 198.221 177.454C196.05 177.387 194.667 177.134 194.648 177.253C194.629 177.371 195.472 177.589 198.051 178.114C200.63 178.638 204.954 179.442 211.901 180.674L212.96 176.613L214.021 172.546Z" fill="#040400" stroke="#040400" stroke-width="0.5" stroke-miterlimit="10"/>
<path d="M223.111 178.475C221.774 179.912 219.651 182.085 217.524 184.258C215.397 186.43 213.274 188.603 211.936 190.04" stroke="black" stroke-width="0.5" stroke-miterlimit="10" stroke-linecap="round"/>
<path d="M227.737 183.019L222.04 188.984L216.34 194.946" stroke="black" stroke-width="0.5" stroke-miterlimit="10" stroke-linecap="round"/>
<path d="M232.157 188.84L226.617 194.382L221.078 199.925" stroke="black" stroke-width="0.5" stroke-miterlimit="10" stroke-linecap="round"/>
<path d="M233.347 196.85L230.886 199.333L228.423 201.813" stroke="black" stroke-width="0.5" stroke-miterlimit="10" stroke-linecap="round"/>
<path d="M199.87 142.264C199.87 142.589 199.74 142.901 199.51 143.131C199.28 143.36 198.967 143.49 198.641 143.49C198.316 143.49 198.003 143.36 197.773 143.131C197.542 142.901 197.413 142.589 197.413 142.264C197.413 141.939 197.542 141.627 197.773 141.397C198.003 141.167 198.316 141.038 198.641 141.038C198.967 141.038 199.28 141.167 199.51 141.397C199.74 141.627 199.87 141.939 199.87 142.264Z" fill="#040400"/>
<path d="M201.23 137.602L197.022 137.455L192.813 137.307" stroke="black" stroke-width="0.5" stroke-miterlimit="10" stroke-linecap="round"/>
<path d="M240.131 14.824C240.13 15.1067 240.031 15.3804 239.851 15.5986C239.671 15.8168 239.421 15.966 239.143 16.0208C238.865 16.0755 238.576 16.0325 238.326 15.899C238.077 15.7654 237.881 15.5497 237.773 15.2884C237.665 15.0272 237.651 14.7366 237.733 14.4661C237.815 14.1956 237.989 13.962 238.225 13.805C238.46 13.648 238.743 13.5773 239.025 13.605C239.307 13.6327 239.571 13.757 239.771 13.9568C239.885 14.0706 239.976 14.2058 240.038 14.3546C240.099 14.5034 240.131 14.663 240.131 14.824Z" fill="#040400"/>
<path d="M245.279 13.5599L243.646 9.68474L242.013 5.81274" stroke="black" stroke-width="0.5" stroke-miterlimit="10" stroke-linecap="round"/>
<path d="M252.678 56.5999C252.71 56.5463 252.758 56.5033 252.814 56.4761C252.87 56.4489 252.933 56.4388 252.995 56.447C253.058 56.4551 253.116 56.4812 253.163 56.5221C253.211 56.5629 253.245 56.6167 253.262 56.6767C253.72 58.1948 254.411 59.6327 255.312 60.9391C256.63 62.8832 258.498 64.3924 260.678 65.2751C261.539 65.6175 262.438 65.856 263.356 65.9855C264.139 66.0935 264.931 66.1278 265.72 66.0879C265.59 63.1104 264.545 60.2448 262.727 57.8799C261.042 55.6341 258.54 54.1386 255.759 53.7155C252.979 53.2923 250.144 53.9754 247.864 55.6175C245.39 57.3554 243.517 59.8147 242.501 62.6575C242.716 62.7023 242.921 62.7375 243.12 62.7599C243.319 62.7823 243.505 62.7983 243.684 62.8047C245.975 62.8847 247.947 61.7743 249.487 60.4207C250.725 59.3031 251.8 58.0168 252.678 56.5999Z" fill="#ECE7E1" stroke="black" stroke-width="0.5" stroke-miterlimit="10" stroke-linecap="round"/>
<path d="M262.134 70.6159C262.135 71.1846 261.938 71.736 261.577 72.1761C261.216 72.6162 260.713 72.9177 260.154 73.0293C259.595 73.1409 259.014 73.0556 258.511 72.788C258.008 72.5204 257.614 72.087 257.396 71.5617C257.177 71.0365 257.148 70.4518 257.313 69.9075C257.478 69.3632 257.827 68.8928 258.301 68.5767C258.775 68.2605 259.344 68.118 259.911 68.1736C260.479 68.2292 261.009 68.4794 261.412 68.8815C261.641 69.1091 261.822 69.3794 261.946 69.677C262.07 69.9746 262.134 70.2937 262.134 70.6159Z" fill="#FF6406" stroke="#070707" stroke-width="0.5" stroke-miterlimit="10" stroke-linecap="round"/>
<path d="M247.03 88.7633C247.851 87.6369 248.67 86.5094 249.487 85.3809L251.941 81.9985C251.972 81.9547 252.013 81.9194 252.061 81.8957C252.109 81.8721 252.163 81.8608 252.216 81.8631C252.27 81.8653 252.322 81.8809 252.368 81.9085C252.414 81.9361 252.452 81.9747 252.479 82.0209L254.664 85.6401L256.848 89.2625" stroke="black" stroke-width="0.5" stroke-miterlimit="10" stroke-linecap="round"/>
</g>
<defs>
<linearGradient id="paint0_linear_484_5089" x1="0" y1="0" x2="145.034" y2="338.524" gradientUnits="userSpaceOnUse">
<stop stop-color="#A5C3FF"/>
<stop offset="1" stop-color="#DBCAF4"/>
</linearGradient>
<linearGradient id="paint1_linear_484_5089" x1="177.238" y1="101.326" x2="243.604" y2="-13.8932" gradientUnits="userSpaceOnUse">
<stop offset="0.14" stop-color="#A4C2FF"/>
<stop offset="0.45" stop-color="#B5DEED"/>
<stop offset="0.73" stop-color="#C6FCDB"/>
</linearGradient>
<linearGradient id="paint2_linear_484_5089" x1="259.654" y1="205.458" x2="373.807" y2="139.395" gradientUnits="userSpaceOnUse">
<stop offset="0.25" stop-color="#A4C2FF"/>
<stop offset="0.5" stop-color="#B5DEED"/>
<stop offset="0.73" stop-color="#C6FCDB"/>
</linearGradient>
<linearGradient id="paint3_linear_484_5089" x1="145.968" y1="242.888" x2="210.567" y2="130.734" gradientUnits="userSpaceOnUse">
<stop offset="0.22" stop-color="#A4C2FF"/>
<stop offset="0.48" stop-color="#B5DEED"/>
<stop offset="0.73" stop-color="#C6FCDB"/>
</linearGradient>
<clipPath id="clip0_484_5089">
<rect width="375" height="240" fill="white"/>
</clipPath>
</defs>
</svg>
