<svg width="375" height="240" viewBox="0 0 375 240" fill="none" xmlns="http://www.w3.org/2000/svg">
<g clip-path="url(#clip0_484_6959)">
<rect width="375" height="240" fill="url(#paint0_linear_484_6959)"/>
<path d="M352.211 213.701L291.379 213.495L230.55 213.289C208.989 193.449 193.003 178.753 182.403 169.006L166.598 154.468C166.598 154.468 166.643 144.174 166.727 124.175C166.811 104.177 166.938 95.6086 167.102 56.7966H262.522L327.644 174.641C332.743 183.388 337.542 191.17 341.736 197.757C345.929 204.344 349.528 209.735 352.211 213.701Z" fill="url(#paint1_linear_484_6959)" stroke="black" stroke-miterlimit="10" stroke-linecap="round"/>
<path d="M263.025 208.106H214.812H166.598V190.932V173.76H214.812H263.025V190.932V208.106Z" fill="#F6991A" stroke="#070707" stroke-miterlimit="10" stroke-linecap="round"/>
<path d="M259.444 198.027H214.812H170.177V190.059V182.088H214.812H259.444V190.059V198.027Z" fill="#F6991A" stroke="#070707" stroke-miterlimit="10" stroke-linecap="round"/>
<path d="M170.177 185.164H214.812H259.444" fill="#D87D61"/>
<path d="M170.177 185.164H214.812H259.444" stroke="black" stroke-miterlimit="10" stroke-linecap="round"/>
<path d="M170.177 188.387H214.812H259.444" fill="#D87D61"/>
<path d="M170.177 188.387H214.812H259.444" stroke="black" stroke-miterlimit="10" stroke-linecap="round"/>
<path d="M170.177 191.614H214.812H259.444" fill="#D87D61"/>
<path d="M170.177 191.614H214.812H259.444" stroke="black" stroke-miterlimit="10" stroke-linecap="round"/>
<path d="M170.177 194.838H214.812H259.444" fill="#D87D61"/>
<path d="M170.177 194.838H214.812H259.444" stroke="black" stroke-miterlimit="10" stroke-linecap="round"/>
<path d="M169.787 215.124H168.193H166.598V211.615V208.106H168.193H169.787V211.615V215.124Z" fill="#F6991A" stroke="#070707" stroke-miterlimit="10" stroke-linecap="round"/>
<path d="M263.026 215.124H261.431H259.836V211.615V208.106H261.431H263.026V211.615V215.124Z" fill="#F6991A" stroke="#070707" stroke-miterlimit="10" stroke-linecap="round"/>
<path d="M214.812 12.1702C202.486 12.1702 191.329 18.0602 183.251 27.5834C175.174 37.1066 170.177 50.2605 170.177 64.7834V149.719H259.457V64.7859C259.457 50.2555 254.462 37.1016 246.385 27.5858C238.307 18.0701 227.137 12.1702 214.812 12.1702Z" fill="#040400"/>
<path d="M200.801 153.377C200.856 153.377 200.911 153.372 200.965 153.363C201.02 153.353 201.074 153.338 201.126 153.318C201.18 153.298 201.231 153.273 201.28 153.244C201.331 153.213 201.378 153.179 201.423 153.14C201.52 153.054 201.597 152.948 201.649 152.829C201.7 152.711 201.73 152.585 201.737 152.457C201.743 152.325 201.726 152.192 201.686 152.066C201.644 151.94 201.579 151.823 201.495 151.722C200.386 150.356 199.398 148.891 198.545 147.344C196.826 144.231 195.642 140.838 195.045 137.312C194.747 135.559 194.603 133.782 194.615 132.003C194.615 131.665 194.626 131.313 194.649 130.957C194.668 130.597 194.706 130.238 194.761 129.883C194.816 129.525 194.896 129.172 195.001 128.826C195.104 128.483 195.242 128.152 195.412 127.838C195.55 127.585 195.716 127.35 195.906 127.136C196.105 126.913 196.329 126.716 196.574 126.549C196.818 126.38 197.086 126.252 197.369 126.17C197.653 126.087 197.95 126.066 198.242 126.107C198.468 126.14 198.689 126.206 198.897 126.303C199.115 126.406 199.323 126.529 199.519 126.671C199.722 126.818 199.918 126.976 200.105 127.144C200.295 127.312 200.476 127.486 200.651 127.658C201.112 128.112 201.565 128.576 202.009 129.051C202.454 129.527 202.886 130.012 203.31 130.507C203.734 131.002 204.145 131.506 204.549 132.021C204.952 132.535 205.34 133.056 205.72 133.586C205.873 133.793 206.096 133.933 206.344 133.977C206.466 134 206.592 134 206.713 133.977C206.899 133.937 207.069 133.843 207.204 133.706C207.339 133.57 207.433 133.396 207.474 133.206C207.533 132.952 207.492 132.684 207.362 132.459C206.757 131.408 206.201 130.326 205.694 129.214C205.187 128.101 204.732 126.967 204.33 125.812C203.928 124.658 203.578 123.482 203.285 122.291C202.993 121.099 202.755 119.904 202.574 118.699C202.46 117.934 202.384 117.214 202.332 116.533C202.287 115.892 202.274 115.249 202.292 114.607C202.31 114.03 202.365 113.455 202.456 112.885C202.539 112.36 202.661 111.842 202.821 111.336C203.045 110.661 203.362 110.022 203.763 109.44C204.194 108.801 204.706 108.224 205.285 107.723C205.846 107.229 206.491 106.846 207.187 106.594C207.86 106.352 208.585 106.31 209.28 106.473C209.691 106.582 210.078 106.769 210.421 107.026C210.787 107.297 211.127 107.603 211.435 107.942C211.755 108.284 212.057 108.65 212.346 109.006C212.635 109.362 212.917 109.708 213.176 110.008C213.574 110.454 213.965 110.904 214.349 111.359C214.73 111.817 215.11 112.277 215.491 112.744C215.871 113.212 216.233 113.681 216.594 114.157C216.956 114.632 217.311 115.115 217.659 115.6C217.804 115.802 218.014 115.944 218.251 116.001C218.366 116.031 218.486 116.037 218.603 116.019C218.723 116.002 218.838 115.961 218.942 115.896C219.059 115.824 219.161 115.726 219.238 115.61C219.313 115.5 219.364 115.374 219.389 115.242C219.414 115.113 219.414 114.98 219.389 114.851C219.359 114.716 219.303 114.588 219.223 114.476C218.736 113.799 218.238 113.13 217.728 112.47C217.218 111.811 216.696 111.158 216.16 110.514C215.628 109.873 215.084 109.241 214.528 108.619C213.973 107.997 213.412 107.386 212.847 106.788C212.656 106.592 212.476 106.396 212.276 106.215C212.076 106.033 211.88 105.845 211.667 105.671C211.455 105.497 211.234 105.336 211.003 105.189C210.767 105.043 210.52 104.915 210.265 104.808C210.006 104.701 209.738 104.617 209.464 104.558C209.184 104.497 208.898 104.461 208.612 104.448C208.316 104.437 208.02 104.448 207.725 104.481C207.418 104.518 207.113 104.576 206.812 104.655C206.155 104.834 205.526 105.109 204.944 105.471C204.343 105.844 203.791 106.294 203.301 106.811C202.79 107.349 202.343 107.948 201.969 108.593C201.575 109.267 201.256 109.984 201.018 110.731C200.788 111.465 200.624 112.217 200.525 112.981C200.431 113.712 200.384 114.45 200.386 115.188C200.386 115.902 200.424 116.59 200.483 117.232C200.542 117.873 200.62 118.47 200.7 119.002C200.8 119.682 200.919 120.358 201.056 121.033C201.193 121.707 201.346 122.379 201.514 123.048C201.683 123.717 201.87 124.38 202.074 125.039C202.278 125.698 202.497 126.35 202.732 126.995L202.542 126.8C202.479 126.735 202.416 126.671 202.351 126.604L202.161 126.408C202.098 126.344 202.034 126.281 201.971 126.213C201.743 125.988 201.505 125.761 201.25 125.54C200.995 125.315 200.726 125.106 200.445 124.916C200.159 124.722 199.856 124.556 199.54 124.421C199.212 124.281 198.869 124.184 198.518 124.131C198.015 124.057 197.502 124.082 197.008 124.204C196.537 124.326 196.087 124.524 195.676 124.791C195.269 125.05 194.897 125.365 194.571 125.726C194.255 126.068 193.982 126.449 193.757 126.86C193.539 127.263 193.36 127.686 193.22 128.124C193.084 128.549 192.98 128.985 192.908 129.427C192.837 129.856 192.787 130.289 192.76 130.724C192.731 131.148 192.722 131.567 192.718 131.968C192.705 133.869 192.858 135.768 193.177 137.641C193.816 141.403 195.083 145.023 196.92 148.341C197.833 149.991 198.889 151.553 200.074 153.009C200.121 153.066 200.173 153.117 200.23 153.161C200.343 153.248 200.473 153.308 200.611 153.337C200.673 153.357 200.737 153.37 200.801 153.377Z" fill="url(#paint2_linear_484_6959)" stroke="black" stroke-miterlimit="10" stroke-linecap="round"/>
<path d="M261.27 106.41C261.352 106.36 261.429 106.303 261.5 106.239C261.573 106.175 261.639 106.104 261.699 106.028C261.759 105.95 261.813 105.867 261.86 105.78C261.907 105.69 261.947 105.597 261.979 105.5C262.046 105.289 262.067 105.067 262.038 104.848C262.01 104.632 261.942 104.423 261.837 104.233C261.73 104.044 261.589 103.876 261.423 103.737C261.253 103.591 261.056 103.48 260.843 103.409C257.994 102.456 255.237 101.248 252.604 99.8009C247.309 96.8932 242.555 93.0945 238.55 88.5714C236.558 86.3226 234.773 83.899 233.216 81.3298C232.918 80.8338 232.621 80.3254 232.338 79.7947C232.055 79.264 231.787 78.711 231.552 78.1455C231.317 77.5816 231.123 77.0014 230.971 76.4095C230.822 75.8216 230.732 75.22 230.704 74.614C230.685 74.1254 230.722 73.6363 230.813 73.1558C230.907 72.6509 231.063 72.1595 231.276 71.6926C231.485 71.2272 231.767 70.7985 232.112 70.4228C232.46 70.045 232.882 69.7435 233.352 69.5374C233.718 69.3821 234.104 69.2794 234.498 69.2324C234.909 69.1849 235.324 69.1733 235.738 69.1977C236.168 69.2231 236.597 69.272 237.023 69.344C237.452 69.4134 237.876 69.4978 238.285 69.592C239.371 69.8218 240.452 70.0772 241.529 70.3583C242.605 70.6394 243.68 70.9419 244.753 71.266C245.816 71.5967 246.872 71.9455 247.922 72.3126C248.969 72.6846 250.01 73.0789 251.04 73.498C251.343 73.6199 251.676 73.6527 251.998 73.5926C252.32 73.5324 252.618 73.3817 252.857 73.1582C253.019 73.0061 253.151 72.8242 253.244 72.6226C253.338 72.4207 253.391 72.2025 253.4 71.9802C253.421 71.5474 253.277 71.1228 252.996 70.7923C252.853 70.6217 252.678 70.481 252.48 70.3782C250.662 69.4176 248.883 68.3694 247.143 67.2335C245.404 66.0977 243.725 64.88 242.107 63.5805C240.486 62.2859 238.933 60.9178 237.447 59.4761C235.96 58.0344 234.55 56.529 233.216 54.96C232.369 53.968 231.611 53.0041 230.942 52.0683C230.306 51.1903 229.717 50.2797 229.176 49.3403C228.692 48.4949 228.263 47.6194 227.891 46.719C227.55 45.889 227.272 45.0342 227.06 44.1621C226.792 42.9852 226.693 41.7759 226.768 40.571C226.844 39.2607 227.094 37.9663 227.512 36.7221C227.907 35.5003 228.524 34.3619 229.332 33.3642C230.109 32.4061 231.141 31.6866 232.308 31.2884C233.012 31.0703 233.751 30.9862 234.486 31.0404C235.266 31.0962 236.039 31.2283 236.794 31.4347C237.568 31.6356 238.339 31.8886 239.081 32.1366C239.822 32.3846 240.537 32.6326 241.196 32.8186C242.177 33.098 243.154 33.3906 244.128 33.6965C245.102 34.0023 246.07 34.3198 247.034 34.6488C247.998 34.9795 248.959 35.3217 249.916 35.6755C250.873 36.0293 251.825 36.3972 252.771 36.7791C252.968 36.857 253.178 36.9006 253.391 36.9081C253.598 36.9134 253.804 36.8832 254.001 36.8188C254.195 36.7533 254.375 36.6533 254.534 36.5237C254.697 36.3872 254.831 36.2183 254.926 36.0277C255.036 35.8162 255.099 35.5837 255.112 35.3457C255.124 35.1195 255.09 34.8931 255.01 34.681C254.93 34.4692 254.808 34.2753 254.653 34.1106C254.491 33.9425 254.294 33.8107 254.078 33.7238C252.755 33.193 251.426 32.6855 250.09 32.201C248.754 31.7166 247.405 31.2553 246.042 30.8172C244.685 30.3807 243.321 29.9674 241.95 29.5772C240.58 29.187 239.204 28.8241 237.824 28.4885C237.385 28.3794 236.936 28.2727 236.479 28.1809C236.023 28.0892 235.564 28.0074 235.101 27.9528C234.633 27.894 234.161 27.865 233.689 27.866C233.211 27.8672 232.733 27.9079 232.261 27.9875C231.782 28.07 231.312 28.1945 230.855 28.3595C230.388 28.5284 229.935 28.7349 229.501 28.977C229.052 29.2295 228.624 29.5155 228.219 29.8326C227.795 30.1635 227.396 30.5249 227.026 30.9139C226.211 31.7685 225.522 32.7356 224.982 33.7858C224.426 34.8697 224.009 36.0196 223.742 37.2082C223.464 38.4483 223.33 39.7167 223.345 40.9877C223.362 42.314 223.529 43.6343 223.841 44.9234C224.151 46.1872 224.573 47.4206 225.104 48.6087C225.613 49.745 226.197 50.8461 226.852 51.9046C227.484 52.9338 228.152 53.8886 228.806 54.7566C229.461 55.6246 230.106 56.4108 230.694 57.1027C231.446 57.9856 232.22 58.8503 233.017 59.6968C233.814 60.5433 234.635 61.37 235.48 62.1768C236.323 62.9836 237.187 63.7681 238.072 64.5303C238.956 65.2925 239.859 66.0324 240.78 66.7499L240.331 66.6458L239.882 66.5416L239.431 66.4424C239.282 66.4102 239.131 66.3754 238.979 66.3457C238.446 66.2316 237.888 66.12 237.32 66.0332C236.745 65.9445 236.166 65.8906 235.584 65.872C234.99 65.8537 234.396 65.891 233.808 65.9836C233.2 66.0812 232.606 66.2545 232.04 66.4994C231.23 66.8543 230.495 67.3591 229.873 67.9874C229.278 68.59 228.784 69.2831 228.407 70.0409C228.037 70.7864 227.765 71.5766 227.599 72.3919C227.439 73.1716 227.373 73.9675 227.403 74.7628C227.437 75.5402 227.546 76.3126 227.728 77.0692C227.905 77.8045 228.136 78.5257 228.419 79.2268C228.695 79.9076 229.006 80.5739 229.349 81.2232C229.687 81.8606 230.039 82.4632 230.391 83.051C232.057 85.7919 233.966 88.3774 236.095 90.7762C240.363 95.5957 245.429 99.6436 251.072 102.742C253.883 104.282 256.827 105.565 259.868 106.576C259.991 106.62 260.118 106.648 260.248 106.658C260.368 106.672 260.49 106.672 260.61 106.658C260.727 106.643 260.843 106.616 260.955 106.576C261.065 106.532 261.171 106.476 261.27 106.41Z" fill="url(#paint3_linear_484_6959)" stroke="black" stroke-miterlimit="10" stroke-linecap="round"/>
<path d="M214.812 7.41602C201.497 7.41602 189.444 13.7797 180.719 24.0742C171.995 34.3687 166.598 48.5617 166.598 64.2502V154.469H263.025V64.2502C263.025 48.5543 257.629 34.3439 248.89 24.0568C240.15 13.7698 228.124 7.41602 214.812 7.41602ZM258.725 55.3222H219.789L233.96 42.5353L248.096 29.741C250.836 33.3742 253.107 37.3388 254.854 41.5408C256.7 45.9601 258 50.5881 258.725 55.3222ZM245.542 26.6261L231.185 39.6039L216.826 52.5942V12.2223C222.298 12.5172 227.646 13.9658 232.519 16.473C237.451 19.0217 241.867 22.4645 245.542 26.6261ZM212.806 12.2223V52.242L198.531 39.346L184.258 26.45C187.925 22.3402 192.319 18.9427 197.219 16.4283C202.06 13.9515 207.368 12.5186 212.798 12.2223H212.806ZM210.204 55.3222H170.898C171.628 50.5425 172.942 45.8706 174.812 41.4119C176.584 37.1756 178.889 33.1828 181.672 29.5302L195.939 42.4262L210.204 55.3222ZM259.444 149.714H170.177V64.7859C170.177 63.8683 170.197 62.9589 170.236 62.0579C170.276 61.1568 170.335 60.2574 170.412 59.3596H259.209C259.288 60.2524 259.345 61.1527 259.385 62.0579C259.425 62.9631 259.444 63.8732 259.444 64.7859V149.719V149.714Z" fill="#F6991A" stroke="#070707" stroke-miterlimit="10" stroke-linecap="round"/>
<path d="M245.445 135.674C245.445 135.389 244.716 135.131 243.505 134.93C241.909 134.693 240.298 134.562 238.684 134.536C238.662 132.929 238.496 131.327 238.188 129.749C237.923 128.542 237.576 127.812 237.196 127.812C236.817 127.812 236.47 128.542 236.204 129.749C235.896 131.327 235.73 132.929 235.708 134.536C234.091 134.561 232.477 134.693 230.877 134.93C229.667 135.131 228.94 135.389 228.94 135.674C228.94 135.959 229.667 136.215 230.877 136.418C232.473 136.653 234.083 136.783 235.696 136.807C235.718 138.415 235.884 140.016 236.192 141.594C236.457 142.802 236.805 143.531 237.184 143.531C237.563 143.531 237.911 142.802 238.176 141.594C238.484 140.016 238.65 138.415 238.672 136.807C240.29 136.784 241.905 136.654 243.505 136.418C244.716 136.212 245.445 135.954 245.445 135.674Z" fill="url(#paint4_linear_484_6959)" stroke="black" stroke-miterlimit="10" stroke-linecap="round"/>
<path d="M237.31 128.114C236.026 128.389 235.22 128.689 234.667 129.242C234.114 129.795 233.814 130.601 233.538 131.888C233.53 131.927 233.509 131.961 233.479 131.986C233.448 132.01 233.41 132.024 233.371 132.024C233.332 132.024 233.294 132.01 233.263 131.986C233.233 131.961 233.212 131.927 233.203 131.888C232.928 130.601 232.628 129.795 232.075 129.242C231.522 128.689 230.719 128.389 229.431 128.114C229.392 128.107 229.357 128.087 229.332 128.056C229.307 128.026 229.294 127.987 229.295 127.947C229.294 127.908 229.308 127.87 229.333 127.839C229.358 127.809 229.393 127.788 229.431 127.781C230.719 127.506 231.522 127.206 232.075 126.653C232.628 126.1 232.928 125.294 233.203 124.007C233.212 123.968 233.233 123.934 233.263 123.909C233.294 123.885 233.332 123.871 233.371 123.871C233.41 123.871 233.448 123.885 233.479 123.909C233.509 123.934 233.53 123.968 233.538 124.007C233.814 125.294 234.114 126.1 234.667 126.653C235.22 127.206 236.026 127.506 237.31 127.781C237.349 127.788 237.384 127.809 237.409 127.839C237.434 127.87 237.447 127.908 237.447 127.947C237.448 127.987 237.435 128.026 237.41 128.056C237.385 128.087 237.349 128.107 237.31 128.114Z" fill="url(#paint5_linear_484_6959)" stroke="black" stroke-miterlimit="10" stroke-linecap="round"/>
<path d="M212.511 70.1103C211.238 70.3831 210.44 70.6807 209.894 71.2287C209.349 71.7768 209.049 72.5729 208.776 73.8451C208.769 73.8832 208.748 73.9176 208.718 73.9421C208.689 73.9666 208.651 73.9797 208.612 73.9791C208.573 73.9798 208.535 73.9668 208.505 73.9423C208.474 73.9178 208.454 73.8834 208.446 73.8451C208.173 72.5729 207.878 71.7743 207.33 71.2287C206.782 70.6831 205.986 70.3831 204.714 70.1103C204.675 70.1032 204.641 70.0829 204.617 70.0529C204.592 70.023 204.579 69.9853 204.58 69.9466C204.579 69.9076 204.592 69.8695 204.616 69.8391C204.641 69.8088 204.675 69.788 204.714 69.7804C205.986 69.5076 206.782 69.2125 207.33 68.6644C207.878 68.1163 208.173 67.3203 208.446 66.048C208.454 66.0097 208.474 65.9753 208.505 65.9508C208.535 65.9264 208.573 65.9134 208.612 65.9141C208.651 65.9134 208.689 65.9265 208.718 65.9511C208.748 65.9756 208.769 66.0099 208.776 66.048C209.049 67.3203 209.346 68.1163 209.894 68.6644C210.442 69.2125 211.238 69.5076 212.511 69.7804C212.549 69.788 212.583 69.8088 212.608 69.8391C212.632 69.8695 212.645 69.9076 212.645 69.9466C212.645 69.9853 212.632 70.023 212.608 70.0529C212.583 70.0829 212.549 70.1032 212.511 70.1103Z" fill="url(#paint6_linear_484_6959)" stroke="black" stroke-miterlimit="10" stroke-linecap="round"/>
<path d="M250.231 132.909C249.641 132.908 249.07 132.703 248.614 132.328C248.159 131.954 247.847 131.432 247.733 130.854C247.619 130.275 247.708 129.675 247.987 129.155C248.266 128.635 248.716 128.228 249.262 128.003C249.807 127.778 250.413 127.749 250.977 127.921C251.542 128.093 252.029 128.455 252.356 128.946C252.683 129.437 252.829 130.026 252.771 130.613C252.712 131.2 252.452 131.748 252.034 132.165C251.797 132.402 251.516 132.589 251.207 132.717C250.897 132.845 250.566 132.91 250.231 132.909ZM250.231 129.204C249.964 129.204 249.705 129.296 249.498 129.466C249.291 129.635 249.15 129.871 249.098 130.134C249.045 130.396 249.086 130.668 249.211 130.904C249.337 131.139 249.541 131.324 249.788 131.427C250.035 131.529 250.31 131.543 250.565 131.466C250.821 131.388 251.042 131.225 251.191 131.003C251.34 130.781 251.407 130.514 251.381 130.248C251.355 129.982 251.238 129.733 251.049 129.544C250.832 129.327 250.538 129.204 250.231 129.204Z" fill="url(#paint7_linear_484_6959)" stroke="black" stroke-miterlimit="10" stroke-linecap="round"/>
<path d="M182.637 111.221C182.053 111.223 181.487 111.022 181.036 110.653C180.584 110.283 180.274 109.769 180.159 109.197C180.043 108.625 180.13 108.031 180.404 107.516C180.677 107.001 181.121 106.596 181.66 106.371C182.198 106.147 182.798 106.116 183.357 106.284C183.915 106.452 184.399 106.808 184.724 107.292C185.05 107.776 185.197 108.358 185.142 108.939C185.086 109.52 184.831 110.064 184.42 110.477C184.186 110.713 183.909 110.9 183.603 111.028C183.297 111.155 182.968 111.221 182.637 111.221ZM182.637 107.556C182.372 107.556 182.116 107.648 181.911 107.815C181.707 107.983 181.567 108.217 181.515 108.476C181.464 108.736 181.504 109.005 181.629 109.238C181.753 109.471 181.955 109.654 182.199 109.755C182.444 109.857 182.716 109.87 182.969 109.793C183.222 109.716 183.44 109.554 183.587 109.334C183.734 109.114 183.8 108.85 183.775 108.587C183.749 108.324 183.632 108.078 183.445 107.891C183.23 107.677 182.94 107.556 182.637 107.556Z" fill="url(#paint8_linear_484_6959)" stroke="black" stroke-miterlimit="10" stroke-linecap="round"/>
<path d="M186.47 90.5158L185.183 89.933L183.899 89.3477L182.612 88.7624L181.327 88.1796L182.354 87.5497L183.38 86.9222L184.407 86.2948L185.434 85.6674L184.05 84.2612L182.666 82.855L181.282 81.4489L179.896 80.0427L181.657 80.3279L183.415 80.6131L185.173 80.8983L186.934 81.1835L186.183 79.1425L185.434 77.099L184.682 75.0579L183.931 73.0144L185.662 74.3338L187.391 75.6506L189.119 76.9675L190.848 78.2869L191.222 77.1262L191.597 75.9656L191.971 74.805L192.346 73.6468L193.055 74.9538L193.762 76.2607L194.471 77.5677L195.18 78.8771L196.886 77.5057L198.59 76.1342L200.294 74.7628L202 73.3914L201.197 75.5242L200.393 77.6594L199.592 79.7947L198.789 81.93L200.75 81.8258L202.712 81.7217L204.671 81.6175L206.633 81.5134L205.08 82.7881L203.525 84.0628L201.97 85.335L200.418 86.6098L201.512 87.7481L202.605 88.8864L203.702 90.0247L204.795 91.1606L203.31 91.1928L201.824 91.2275L200.339 91.2598L198.853 91.292L199.116 93.4818L199.379 95.6717L199.642 97.8615L199.905 100.051L198.531 98.4022L197.157 96.753L195.783 95.1013L194.411 93.4521L193.591 95.3046L192.772 97.1572L191.951 99.0073L191.133 100.86L190.843 98.794L190.555 96.7282L190.267 94.6648L189.977 92.599L188.085 94.0076L186.19 95.4162L184.296 96.8224L182.403 98.231L183.42 96.3016L184.437 94.3722L185.454 92.4452L186.47 90.5158Z" fill="url(#paint9_linear_484_6959)" stroke="black" stroke-miterlimit="10" stroke-linecap="round"/>
<path d="M300.613 161.093L278.766 161.048L256.92 161.011C251.799 165.328 245.978 169.748 240.614 174.571C235.25 179.395 230.337 184.628 227.036 190.56C225.018 194.216 224.25 198.431 224.849 202.563C225.408 206.705 227.431 210.51 230.553 213.289C233.142 215.561 236.202 216.826 239.436 217.505C242.67 218.185 246.08 218.249 249.371 218.143C261.748 217.746 271.805 217.604 281.859 217.565C291.913 217.525 301.974 217.584 314.359 217.584H315.783C315.849 217.581 315.912 217.552 315.958 217.503C316.004 217.455 316.03 217.391 316.031 217.324V187.19H297.379C297.485 187.09 297.641 186.942 297.827 186.756C298.013 186.57 298.234 186.339 298.465 186.074C301.18 182.961 302.16 179.035 302.448 175.816C302.634 173.809 302.579 171.786 302.282 169.792L302.177 169.239C302.073 168.699 301.865 167.625 301.451 165.465C301.451 165.408 301.235 164.344 301.032 163.277C300.828 162.211 300.622 161.15 300.613 161.093Z" fill="#DBCAF4" stroke="black" stroke-miterlimit="10" stroke-linecap="round"/>
<path d="M307.673 206.752H306.845V192.938H316.048V191.056H306.847V187.19H304.972V191.056H290.697V177.242H302.274C302.324 176.918 302.363 176.6 302.398 176.288C302.433 175.975 302.46 175.668 302.482 175.368H290.697V161.524C290.698 161.445 290.688 161.365 290.668 161.289C290.646 161.214 290.616 161.143 290.578 161.075H288.944C288.906 161.143 288.877 161.216 288.857 161.291C288.835 161.368 288.824 161.447 288.825 161.527V175.38H275.011V161.524C275.011 161.44 274.999 161.356 274.974 161.276C274.951 161.198 274.919 161.123 274.877 161.053H273.273C273.23 161.124 273.196 161.201 273.174 161.281C273.149 161.361 273.136 161.445 273.136 161.529V175.382H259.323V161.023H257.448V175.38H243.689V171.891L242.749 172.704L241.814 173.52V175.385H239.733C239.403 175.696 239.072 176.007 238.741 176.317C238.409 176.63 238.079 176.942 237.749 177.26H241.824V191.056H228.008V188.923C227.842 189.194 227.676 189.464 227.512 189.737C227.348 190.009 227.192 190.282 227.041 190.56C226.824 190.944 226.625 191.335 226.443 191.733C226.257 192.13 226.088 192.532 225.932 192.938H226.133V206.752H225.974C226.234 207.406 226.532 208.045 226.867 208.664C227.207 209.288 227.586 209.891 228 210.469V208.619H241.814V217.877C242.127 217.914 242.437 217.949 242.749 217.979C243.061 218.009 243.376 218.033 243.689 218.056V208.632H257.448V217.909L258.39 217.885L259.323 217.862V208.627H273.144V217.622H274.084H275.019V208.627H288.832V217.555H290.705V208.627H304.977V217.555H306.852V208.627H316.048V206.752H307.673ZM241.814 206.752H228.008V192.938H241.821V206.752H241.814ZM257.438 206.752H243.689V192.938H257.448V206.752H257.438ZM257.438 191.066H243.689V177.252H257.448V191.056L257.438 191.066ZM273.144 206.752H259.33V192.938H273.144V206.752ZM273.144 191.056H259.33V177.242H273.144V191.056ZM288.832 206.742H275.019V192.928H288.832V206.742ZM288.832 191.056H275.019V177.242H288.832V191.056ZM304.977 206.742H290.697V192.928H304.97V206.742H304.977Z" fill="#84A1E5" stroke="#070707" stroke-miterlimit="10" stroke-linecap="round"/>
<path d="M353.387 218.192C353.444 217.239 353.313 216.284 353 215.382C352.799 214.793 352.531 214.229 352.201 213.701L351.661 212.88L351.11 212.067L343.807 200.735L336.503 189.402C336.31 189.103 336.088 188.823 335.841 188.566C335.592 188.312 335.314 188.088 335.013 187.899C334.315 187.47 333.519 187.225 332.701 187.19L342.966 203.24L353.231 219.293C353.268 219.112 353.3 218.931 353.327 218.745C353.355 218.559 353.372 218.381 353.387 218.192Z" fill="#C6FCDB" stroke="black" stroke-miterlimit="10" stroke-linecap="round"/>
<path d="M332.701 187.197H332.592H316.048V215.052H320.145L324.244 215.04C324.244 215.04 326.079 215.796 328.651 216.95C331.223 218.103 334.536 219.648 337.485 221.228C337.78 221.386 338.115 221.557 338.564 221.786C339.013 222.014 339.576 222.282 340.327 222.671C341.924 223.472 342.901 223.931 343.586 224.211C344.076 224.424 344.589 224.584 345.113 224.687C346.004 224.882 346.924 224.895 347.819 224.724C348.714 224.554 349.565 224.204 350.321 223.695C351.818 222.667 352.859 221.101 353.228 219.323L342.963 203.27L332.701 187.197Z" fill="#ECE7E1" stroke="black" stroke-miterlimit="10" stroke-linecap="round"/>
<path d="M305.478 128.032C304.843 126.726 304.156 125.463 303.415 124.245C302.686 123.042 301.894 121.879 301.041 120.76C297.77 116.465 293.507 113.526 288.753 111.728C283.999 109.93 278.756 109.28 273.523 109.561C257.024 110.456 249.661 119.647 246.429 128.624C243.198 137.602 244.091 146.356 244.091 146.356L238.975 140.811L233.861 135.256L226.145 141.9L218.428 148.544L225.91 159.59L233.39 170.646C234.279 171.961 235.301 173.182 236.44 174.289C237.577 175.395 238.833 176.373 240.185 177.203C241.317 177.893 242.513 178.475 243.756 178.939C245.162 179.465 246.624 179.827 248.113 180.017C249.345 180.195 250.59 180.261 251.833 180.216C253.671 180.147 255.476 179.712 257.143 178.936C260.007 177.565 262.282 175.112 263.817 171.992C265.352 168.872 266.155 165.098 266.076 161.08H300.612C300.612 161.08 301.029 163.255 301.448 165.43L302.281 169.78C302.281 169.713 303.078 169.11 303.928 168.495C304.779 167.88 305.664 167.255 305.833 167.114C307.325 165.837 308.491 164.221 309.233 162.402C309.984 160.586 310.46 158.669 310.647 156.713C311.118 151.871 310.912 146.987 310.034 142.202C309.169 137.293 307.636 132.525 305.478 128.032Z" fill="#ECE7E1" stroke="black" stroke-miterlimit="10" stroke-linecap="round"/>
<path d="M277.05 111.847C279.976 109.382 281.732 105.561 282.337 101.838C282.965 97.9692 282.295 93.9715 279.857 91.0748C279.756 90.9533 279.651 90.8268 279.542 90.7202C279.433 90.6135 279.326 90.492 279.215 90.3829C277.36 88.575 274.88 87.6152 272.325 87.4689C269.759 87.3044 267.211 87.9951 265.079 89.4331C263.826 90.3408 262.798 91.5223 262.071 92.8877C261.336 94.2496 260.754 95.6884 260.335 97.1781C260.241 97.4902 260.165 97.8074 260.106 98.1279C260.044 98.4454 259.997 98.7678 259.948 99.0951C259.93 99.2043 259.908 99.6035 259.861 99.9879C259.814 100.372 259.742 100.732 259.628 100.784L259.008 101.032L258.4 101.28L257.793 101.528L257.185 101.776C257.49 102.024 257.765 102.257 258.006 102.451C258.246 102.644 258.45 102.808 258.614 102.947C258.777 103.085 258.926 103.18 259.08 103.304C259.234 103.424 259.373 103.561 259.496 103.713C259.609 103.863 259.685 104.037 259.72 104.221C259.759 104.4 259.777 104.588 259.806 104.774C260.999 112.353 270.421 117.112 276.742 112.123C276.849 112.013 276.951 111.944 277.05 111.847Z" fill="#F2B3C1" stroke="black" stroke-miterlimit="10" stroke-linecap="round"/>
<path d="M264.442 99.177C264.421 99.2705 264.383 99.359 264.328 99.4374C264.221 99.5882 264.06 99.6928 263.879 99.7301C263.785 99.7483 263.689 99.7474 263.595 99.7274C263.502 99.7074 263.414 99.6686 263.336 99.6135C263.185 99.5071 263.081 99.3462 263.046 99.1646C263.025 99.0716 263.025 98.975 263.046 98.8819C263.066 98.7927 263.104 98.7084 263.157 98.6339C263.209 98.5577 263.276 98.4928 263.353 98.443C263.429 98.3935 263.513 98.359 263.601 98.3413C263.694 98.3215 263.791 98.3215 263.884 98.3413C263.973 98.3624 264.057 98.4003 264.132 98.4529C264.207 98.5054 264.271 98.572 264.32 98.6488C264.37 98.7246 264.405 98.8086 264.424 98.8968C264.448 98.9882 264.454 99.0834 264.442 99.177Z" fill="#040400"/>
<path d="M265.468 103.358C265.44 103.448 265.407 103.535 265.369 103.621C265.294 103.786 265.205 103.945 265.104 104.095C264.969 104.291 264.809 104.468 264.627 104.623C264.242 104.954 263.764 105.158 263.259 105.208C263.072 105.227 262.884 105.227 262.698 105.208C262.553 105.19 262.41 105.163 262.269 105.126C262.185 105.103 262.102 105.074 262.021 105.042" stroke="black" stroke-miterlimit="10" stroke-linecap="round"/>
<path d="M263.112 95.9529L264.144 96.31L265.178 96.6671L266.212 97.0242L267.246 97.3814" stroke="black" stroke-miterlimit="10" stroke-linecap="round"/>
<path d="M271.973 103.249C271.9 103.599 271.741 103.925 271.511 104.198C271.281 104.472 270.987 104.685 270.656 104.817C270.324 104.95 269.965 104.999 269.609 104.96C269.254 104.921 268.914 104.795 268.62 104.593C268.325 104.391 268.084 104.119 267.92 103.802C267.755 103.485 267.671 103.132 267.675 102.775C267.68 102.418 267.772 102.067 267.944 101.754C268.116 101.441 268.363 101.175 268.663 100.98C268.898 100.828 269.159 100.722 269.434 100.667C269.786 100.599 270.149 100.619 270.492 100.725C270.834 100.832 271.145 101.021 271.397 101.277C271.648 101.532 271.832 101.846 271.933 102.19C272.034 102.535 272.048 102.898 271.973 103.249Z" fill="#FF6406" stroke="#070707" stroke-miterlimit="10" stroke-linecap="round"/>
<path d="M281.273 106.074C281.43 105.523 281.583 104.936 281.722 104.316C281.861 103.696 281.993 103.041 282.104 102.356C282.194 101.808 282.265 101.278 282.325 100.767C282.384 100.256 282.427 99.7598 282.459 99.2787C282.624 99.2766 282.79 99.2832 282.955 99.2986C283.172 99.32 283.388 99.3582 283.6 99.4126C283.777 99.466 283.95 99.5349 284.116 99.6185C284.414 99.7602 284.686 99.9523 284.919 100.186C285.387 100.701 285.646 101.371 285.646 102.066C285.664 102.721 285.551 103.373 285.311 103.983C285.204 104.263 285.068 104.532 284.907 104.784C284.671 105.145 284.363 105.451 284.001 105.685C283.488 106.008 282.893 106.18 282.285 106.181C281.945 106.192 281.604 106.156 281.273 106.074Z" fill="#F2B3C1" stroke="black" stroke-miterlimit="10" stroke-linecap="round"/>
<path d="M260.61 95.9901C260.841 96.1811 260.61 95.9901 260.253 95.7148C259.896 95.4395 259.445 95.0477 259.229 94.8419C258.654 94.2224 258.277 93.445 258.147 92.6098C258.017 91.7746 258.14 90.9196 258.5 90.1547C258.91 89.3774 259.569 88.7601 260.372 88.4013C260.796 88.2007 261.247 88.0621 261.711 87.9896C261.571 87.5194 261.498 87.0319 261.493 86.5413C261.467 85.66 261.717 84.7927 262.21 84.0613C262.635 83.4576 263.219 82.9843 263.899 82.6948C264.387 82.4906 264.897 82.3441 265.419 82.2583C266.592 82.0351 267.673 82.3179 268.712 82.7717C269.751 83.2255 270.748 83.853 271.753 84.3143C273.046 84.8948 274.395 85.3442 275.778 85.6559C277.137 85.9808 278.521 86.2189 279.942 86.4743C281.148 86.6739 282.324 87.0238 283.443 87.5159C284.565 88.0048 285.551 88.7599 286.315 89.7157C287.058 90.6726 287.533 91.8103 287.689 93.0116C287.836 94.2101 287.775 95.425 287.508 96.6027C287.39 97.1703 287.242 97.7315 287.067 98.2841C286.89 98.838 286.691 99.3827 286.472 99.9184C286.39 100.117 286.167 100.474 285.976 100.831C285.785 101.188 285.604 101.553 285.623 101.764C285.607 101.61 285.58 101.459 285.542 101.31C285.482 101.103 285.399 100.904 285.294 100.717C285.162 100.484 284.994 100.273 284.798 100.092C284.669 99.9738 284.529 99.8676 284.381 99.7746C284.04 99.5525 283.658 99.4007 283.257 99.3282C282.996 99.2804 282.729 99.2638 282.464 99.2786C282.464 99.2786 282.385 100.271 282.231 101.486C282.103 102.69 281.876 103.881 281.551 105.047C281.551 105.047 280.711 104.851 279.996 103.69C279.282 102.53 278.692 100.407 279.195 96.5555C276.393 97.3963 273.739 97.3516 271.624 96.6994C269.508 96.0471 267.904 94.7799 267.224 93.1803C267.003 92.6539 266.874 92.0936 266.842 91.5236C266.788 90.3857 266.99 89.25 267.433 88.2004C266.991 88.3569 266.562 88.5451 266.148 88.7634C265.652 89.027 265.181 89.334 264.739 89.681C264.478 89.884 264.23 90.1026 263.995 90.3357C263.546 90.7756 263.136 91.2545 262.77 91.7667C262.5 92.1464 262.251 92.5413 262.026 92.9496C261.82 93.3291 261.642 93.6936 261.463 94.0656C261.285 94.4376 261.061 94.9361 260.895 95.3056C260.729 95.6751 260.61 95.9901 260.61 95.9901Z" fill="#D87D61" stroke="black" stroke-miterlimit="10" stroke-linecap="round"/>
<path d="M244.091 146.356L246.762 149.03L249.435 151.706" stroke="black" stroke-miterlimit="10" stroke-linecap="round"/>
<path d="M299.095 141.456C299.36 142.927 299.606 144.464 299.816 146.059C300.027 147.654 300.203 149.313 300.34 151.019C300.484 152.817 300.573 154.56 300.612 156.227C300.652 157.893 300.652 159.525 300.612 161.075" stroke="black" stroke-miterlimit="10" stroke-linecap="round"/>
<path d="M266.2 141.937C266.18 145.131 266.16 148.324 266.138 151.515C266.117 154.706 266.095 157.898 266.074 161.093" stroke="black" stroke-miterlimit="10" stroke-linecap="round"/>
<path d="M233.861 135.256C232.938 133.885 232.068 132.528 231.292 131.117C230.504 129.698 229.84 128.214 229.308 126.68C228.601 124.627 227.934 122.551 227.229 120.48C226.525 118.409 225.791 116.368 224.945 114.364C224.432 113.144 223.862 111.651 223.135 110.268C222.408 108.884 221.528 107.609 220.39 106.818C220.213 106.689 220.022 106.584 219.819 106.503C219.615 106.424 219.394 106.398 219.177 106.426C219.042 106.449 218.911 106.495 218.79 106.56C218.691 106.613 218.598 106.678 218.515 106.753L218.066 106.061L217.617 105.372C216.184 103.257 215.167 102.917 214.505 103.108C214.292 103.188 214.097 103.31 213.932 103.466C213.767 103.622 213.634 103.81 213.542 104.018C213.406 103.754 213.234 103.509 213.031 103.291C212.673 102.896 212.198 102.626 211.675 102.52C211.482 102.481 211.284 102.462 211.087 102.465C210.809 102.462 210.537 102.549 210.313 102.713C209.991 102.961 209.817 103.443 209.837 104.025C209.876 104.73 210.095 105.413 210.472 106.009C210.131 106.013 209.794 106.084 209.48 106.218C209.219 106.329 208.995 106.51 208.83 106.741C208.456 107.287 208.525 108.04 208.731 108.794C208.937 109.548 209.274 110.302 209.443 110.843C209.721 111.736 209.974 112.636 210.234 113.536C210.494 114.436 210.757 115.329 211.057 116.217C211.337 117.044 211.596 117.87 211.834 118.697C212.082 119.533 212.285 120.378 212.473 121.227C212.646 121.855 212.775 122.495 212.86 123.141C212.917 123.818 212.823 124.47 212.332 124.907C212.189 125.035 212.02 125.13 211.836 125.185C211.724 125.22 211.608 125.244 211.491 125.257C210.879 125.319 210.286 125.063 209.636 124.513C208.812 123.743 208.07 122.89 207.424 121.966C207.042 121.452 206.521 120.584 205.896 119.905C205.272 119.225 204.545 118.737 203.754 118.985C203.213 119.153 203.01 119.6 202.948 120.111C202.918 120.609 202.954 121.109 203.054 121.599C203.186 122.364 203.401 123.113 203.697 123.831C203.979 124.542 204.312 125.237 204.637 125.949C205.061 126.886 208.446 132.59 211.754 138.034C215.063 143.477 218.301 148.66 218.43 148.549L226.148 141.905L233.861 135.256Z" fill="#F2B3C1" stroke="black" stroke-miterlimit="10" stroke-linecap="round"/>
<path d="M210.462 106.014C210.99 107.078 211.523 108.219 212.047 109.434C212.57 110.65 213.081 111.944 213.569 113.313C214.028 114.59 214.427 115.828 214.777 117.033C215.127 118.238 215.429 119.372 215.687 120.465" stroke="black" stroke-miterlimit="10" stroke-linecap="round"/>
<path d="M213.532 104.033C214.219 105.389 214.909 106.848 215.578 108.405C216.248 109.962 216.898 111.629 217.51 113.39C217.877 114.451 218.212 115.493 218.515 116.507C218.817 117.521 219.087 118.508 219.33 119.468" stroke="black" stroke-miterlimit="10" stroke-linecap="round"/>
<path d="M218.505 106.768C219.021 108.104 219.527 109.476 220.025 110.883C220.523 112.29 221.006 113.731 221.476 115.205C221.664 115.791 221.845 116.373 222.024 116.954C222.203 117.534 222.374 118.109 222.54 118.69" stroke="black" stroke-miterlimit="10" stroke-linecap="round"/>
<path d="M324.574 215.112L325.613 211.945L326.65 208.776C326.75 208.453 326.915 208.154 327.133 207.896C327.352 207.638 327.62 207.427 327.922 207.275C328.482 206.984 329.134 206.925 329.738 207.11C330.341 207.296 330.847 207.712 331.146 208.267C331.438 208.796 331.53 209.412 331.407 210.003C331.403 210.007 331.401 210.012 331.401 210.017C331.401 210.022 331.403 210.027 331.407 210.03C331.411 210.034 331.416 210.035 331.421 210.035C331.427 210.035 331.432 210.034 331.436 210.03C331.731 209.482 332.21 209.056 332.788 208.825C333.339 208.597 333.952 208.572 334.52 208.753C335.087 208.935 335.572 209.312 335.888 209.817C336.205 210.311 336.35 210.896 336.3 211.481C336.299 211.49 336.301 211.499 336.306 211.507C336.311 211.515 336.318 211.521 336.327 211.523C336.336 211.526 336.345 211.526 336.353 211.522C336.362 211.519 336.369 211.514 336.374 211.506C336.674 211.052 337.13 210.723 337.656 210.581C338.121 210.47 338.608 210.497 339.058 210.66C339.508 210.823 339.9 211.113 340.186 211.496C340.428 211.823 340.586 212.205 340.645 212.607C340.677 212.823 340.677 213.043 340.645 213.259C340.611 213.477 340.551 213.689 340.466 213.892L338.978 217.557L337.478 221.223C336.114 220.538 334.728 219.857 333.321 219.179C331.914 218.501 330.487 217.827 329.041 217.155C328.29 216.805 327.546 216.462 326.809 216.126C326.071 215.791 325.326 215.453 324.574 215.112Z" fill="#F6991A" stroke="#070707" stroke-miterlimit="10" stroke-linecap="round"/>
<path d="M331.459 210.028L330.157 213.436L328.852 216.846" fill="#ECE7E1"/>
<path d="M331.459 210.028L330.157 213.436L328.852 216.846" stroke="black" stroke-miterlimit="10" stroke-linecap="round"/>
<path d="M336.32 211.575L334.854 215.256L333.388 218.936" fill="#ECE7E1"/>
<path d="M336.32 211.575L334.854 215.256L333.388 218.936" stroke="black" stroke-miterlimit="10" stroke-linecap="round"/>
<path d="M316.048 192.465H325.273C325.649 192.514 326.031 192.472 326.387 192.343C326.744 192.213 327.063 192 327.319 191.721C327.838 191.178 328.122 190.452 328.108 189.702C328.069 188.995 327.759 188.331 327.243 187.847C326.986 187.595 326.675 187.407 326.333 187.295C325.992 187.183 325.629 187.151 325.273 187.202" stroke="black" stroke-miterlimit="10" stroke-linecap="round"/>
<path d="M284.743 178.346C284.743 178.346 284.247 181.57 282.085 185.739C279.245 191.203 274.841 195.698 269.437 198.65" stroke="black" stroke-miterlimit="10" stroke-linecap="round"/>
<path d="M297.378 187.19H289.328H281.278" stroke="black" stroke-miterlimit="10" stroke-linecap="round"/>
<path d="M237.553 139.269L229.724 146.466L221.892 153.665" stroke="black" stroke-miterlimit="10" stroke-linecap="round"/>
<path d="M335.062 190.756L335.967 190.406L336.872 190.057" fill="#F2B3C1"/>
<path d="M335.062 190.756L335.967 190.406L336.872 190.057" stroke="black" stroke-miterlimit="10" stroke-linecap="round"/>
<path d="M336.632 193.149L337.376 192.819L338.12 192.487" fill="#F2B3C1"/>
<path d="M336.632 193.149L337.376 192.819L338.12 192.487" stroke="black" stroke-miterlimit="10" stroke-linecap="round"/>
<path d="M203.878 173.76H185.238H166.598V171.685V169.611H185.238H203.878V171.685V173.76Z" fill="#DBCAF4" stroke="black" stroke-miterlimit="10" stroke-linecap="round"/>
<path d="M199.525 169.611H186.227H172.93V167.536V165.462H186.227H199.525V167.536V169.611Z" fill="#F6C34C" stroke="#070707" stroke-miterlimit="10" stroke-linecap="round"/>
</g>
<defs>
<linearGradient id="paint0_linear_484_6959" x1="0" y1="0" x2="145.034" y2="338.524" gradientUnits="userSpaceOnUse">
<stop stop-color="#A5C3FF"/>
<stop offset="1" stop-color="#DBCAF4"/>
</linearGradient>
<linearGradient id="paint1_linear_484_6959" x1="166.598" y1="124.684" x2="352.211" y2="124.684" gradientUnits="userSpaceOnUse">
<stop offset="0.11" stop-color="#FEC2D9"/>
<stop offset="0.38" stop-color="#DBCAF4"/>
<stop offset="0.65" stop-color="#A4C2FF"/>
<stop offset="0.97" stop-color="#C6FCDB"/>
</linearGradient>
<linearGradient id="paint2_linear_484_6959" x1="192.712" y1="128.912" x2="219.423" y2="128.912" gradientUnits="userSpaceOnUse">
<stop offset="0.18" stop-color="#FEC2D9"/>
<stop offset="0.51" stop-color="#E3DEDA"/>
<stop offset="0.82" stop-color="#C6FCDB"/>
</linearGradient>
<linearGradient id="paint3_linear_484_6959" x1="261.706" y1="38.1084" x2="231.056" y2="91.1953" gradientUnits="userSpaceOnUse">
<stop offset="0.22" stop-color="#FEC2D9"/>
<stop offset="0.68" stop-color="#F6991A"/>
<stop offset="1" stop-color="#FC762B"/>
</linearGradient>
<linearGradient id="paint4_linear_484_6959" x1="237.191" y1="143.531" x2="237.191" y2="127.81" gradientUnits="userSpaceOnUse">
<stop offset="0.11" stop-color="#FEC2D9"/>
<stop offset="0.57" stop-color="#A4C2FF"/>
<stop offset="0.97" stop-color="#C6FCDB"/>
</linearGradient>
<linearGradient id="paint5_linear_484_6959" x1="229.295" y1="127.947" x2="237.447" y2="127.947" gradientUnits="userSpaceOnUse">
<stop offset="0.18" stop-color="#FEC2D9"/>
<stop offset="0.86" stop-color="#F6991A"/>
</linearGradient>
<linearGradient id="paint6_linear_484_6959" x1="206.854" y1="72.992" x2="210.37" y2="66.9011" gradientUnits="userSpaceOnUse">
<stop offset="0.11" stop-color="#FEC2D9"/>
<stop offset="0.38" stop-color="#DBCAF4"/>
<stop offset="0.65" stop-color="#A4C2FF"/>
<stop offset="0.97" stop-color="#C6FCDB"/>
</linearGradient>
<linearGradient id="paint7_linear_484_6959" x1="247.682" y1="130.359" x2="252.781" y2="130.359" gradientUnits="userSpaceOnUse">
<stop offset="0.37" stop-color="#A4C2FF"/>
<stop offset="0.62" stop-color="#B5DEED"/>
<stop offset="0.86" stop-color="#C6FCDB"/>
</linearGradient>
<linearGradient id="paint8_linear_484_6959" x1="180.114" y1="108.699" x2="185.159" y2="108.699" gradientUnits="userSpaceOnUse">
<stop offset="0.37" stop-color="#A4C2FF"/>
<stop offset="0.62" stop-color="#B5DEED"/>
<stop offset="0.86" stop-color="#C6FCDB"/>
</linearGradient>
<linearGradient id="paint9_linear_484_6959" x1="179.896" y1="86.9371" x2="206.633" y2="86.9371" gradientUnits="userSpaceOnUse">
<stop offset="0.14" stop-color="#A4C2FF"/>
<stop offset="0.89" stop-color="#FEC2D9"/>
</linearGradient>
<clipPath id="clip0_484_6959">
<rect width="375" height="240" fill="white"/>
</clipPath>
</defs>
</svg>
