<svg viewBox="0 0 375 240" fill="none" xmlns="http://www.w3.org/2000/svg">
<g clip-path="url(#clip0_484_6958)">
<rect width="375" height="240" fill="url(#paint0_linear_484_6958)"/>
<path d="M209.829 70.016C209.829 72.9057 208.827 75.706 206.993 77.9397C205.16 80.1735 202.609 81.7024 199.775 82.2662C196.941 82.8299 193.999 82.3935 191.45 81.0312C188.902 79.669 186.905 77.4653 185.799 74.7956C184.693 72.1259 184.547 69.1553 185.386 66.3901C186.225 63.6248 187.997 61.236 190.399 59.6306C192.802 58.0252 195.687 57.3025 198.563 57.5858C201.439 57.8691 204.127 59.1407 206.17 61.184C207.332 62.3424 208.254 63.719 208.881 65.2347C209.509 66.7505 209.831 68.3754 209.829 70.016Z" fill="#ECE7E1" stroke="black" stroke-width="0.5" stroke-miterlimit="10" stroke-linecap="round"/>
<path d="M204.676 59.9167C202.8 59.3261 200.811 59.1901 198.872 59.5199C196.929 59.8214 195.109 60.6593 193.616 61.9391C192.206 63.2208 191.253 64.9292 190.905 66.8031C190.527 68.6752 190.678 70.6157 191.341 72.4069C191.685 73.334 192.207 74.1852 192.877 74.9132C193.544 75.6433 194.373 76.2063 195.298 76.5567C196.741 77.0445 198.306 77.03 199.74 76.5155C201.173 76.001 202.39 75.0167 203.193 73.7228C203.541 73.0737 203.753 72.3605 203.816 71.6267C203.879 70.893 203.792 70.1541 203.559 69.4553C203.101 68.0626 202.072 66.9183 200.487 66.6649C199.872 66.5479 199.235 66.6206 198.662 66.8734C198.089 67.1262 197.606 67.5472 197.277 68.0805C196.948 68.6144 196.758 69.2227 196.727 69.8492C196.695 70.4757 196.822 71.1001 197.095 71.6645" stroke="#070707" stroke-width="0.5" stroke-miterlimit="10" stroke-linecap="round"/>
<path d="M183.425 75.4048C184.369 74.9748 185.562 74.4705 186.978 73.9636C188.577 73.3928 190.207 72.9116 191.86 72.5223C194.388 71.942 196.962 71.5873 199.553 71.4624C204.609 71.1927 209.678 71.654 214.603 72.8321C216.29 73.2349 217.956 73.7219 219.595 74.2913C221.739 75.0369 223.834 75.9176 225.867 76.9281C224.292 79.2357 222.869 81.6438 221.607 84.137C217.88 91.5012 215.628 99.5226 214.977 107.75C214.705 111.21 214.713 114.686 215 118.144C215 118.144 211.536 119.107 207.043 121.984C201.111 125.775 196.25 131.023 192.925 137.229C192.925 137.229 194.914 129.068 194.717 117.261C194.52 105.454 192.147 89.9841 183.425 75.4048Z" fill="#F6C34C" stroke="#070707" stroke-width="0.5" stroke-miterlimit="10" stroke-linecap="round"/>
<path d="M329.235 113.498C329.089 107.103 328.094 100.756 326.278 94.6227C323.598 85.5679 318.467 75.0335 308.64 66.8774C305.381 64.1732 301.798 61.8873 297.972 60.0729C294.971 58.6498 291.843 57.5091 288.631 56.6656C276.281 53.5347 263.814 54.1542 252.727 57.9712C241.639 61.7881 231.939 68.8076 225.127 78.4767C218.108 88.4351 215.609 99.1385 214.969 107.883C214.529 113.79 214.863 119.728 215.962 125.547L272.6 119.524L329.235 113.498Z" fill="#ECE7E1" stroke="black" stroke-width="0.5" stroke-miterlimit="10" stroke-linecap="round"/>
<path d="M276.607 119.099L302.921 116.298L329.235 113.498C329.089 107.103 328.095 100.756 326.278 94.6227C323.598 85.568 318.468 75.0336 308.64 66.8775C305.382 64.1733 301.798 61.8874 297.972 60.073C294.971 58.6499 291.844 57.5092 288.631 56.6656C286.571 56.1434 284.509 55.7244 282.446 55.4087C280.383 55.0929 278.328 54.8788 276.282 54.7661C272.089 62.2913 269.433 70.5745 268.468 79.1347C267.224 90.2682 268.622 104.003 276.607 119.099Z" fill="#F6991A" stroke="#070707" stroke-width="0.5" stroke-miterlimit="10" stroke-linecap="round"/>
<path d="M286.521 56.1689C287.362 59.5566 287.682 63.0529 287.468 66.5369C287.133 72.4249 285.164 79.7568 278.693 85.4553C279.815 87.752 280.385 90.2795 280.357 92.8358C280.331 97.1648 278.588 102.761 271.722 107.848" stroke="#070707" stroke-width="0.5" stroke-miterlimit="10" stroke-linecap="round"/>
<path d="M245.825 60.8538C241.731 62.8769 237.898 65.3896 234.41 68.3366C230.898 71.3091 227.779 74.7166 225.127 78.4768C218.108 88.4352 215.609 99.1386 214.969 107.884C214.529 113.79 214.863 119.728 215.962 125.548L233.061 123.73L250.156 121.91C254.508 109.642 254.142 96.215 252.33 84.9331C250.988 76.7059 248.808 68.6375 245.825 60.8538Z" fill="#F6991A" stroke="#070707" stroke-width="0.5" stroke-miterlimit="10" stroke-linecap="round"/>
<path d="M236.376 66.7468C235.948 69.7086 235.904 72.7133 236.246 75.6863C236.773 80.1023 238.381 85.1327 242.574 88.3199C243.152 88.758 243.763 89.1509 244.402 89.495C245.158 89.9037 245.949 90.2463 246.765 90.519C245.908 92.1198 245.289 93.8368 244.926 95.6159C244.34 98.4678 244.289 102.139 246.296 105.643C247.179 107.173 248.353 108.514 249.752 109.591C250.685 110.313 251.699 110.925 252.773 111.414" stroke="#070707" stroke-width="0.5" stroke-miterlimit="10" stroke-linecap="round"/>
<path d="M213.502 164.547L219.902 175.119L226.302 185.692C222.846 188.262 219.394 190.841 215.944 193.428C212.495 196.016 209.03 198.576 205.548 201.108C202.638 203.228 199.696 205.297 196.529 206.74C193.363 208.184 189.973 208.98 186.164 208.568C184.445 208.366 182.755 207.964 181.128 207.37C179.613 206.842 178.165 206.137 176.815 205.268C176.651 205.158 176.482 205.041 176.357 204.951L176.142 204.8C172.535 202.457 169.884 198.904 168.664 194.78C167.527 191.03 167.522 187.075 167.983 183.539C168.33 180.891 168.969 178.288 169.888 175.78C170.804 173.269 171.98 170.861 173.395 168.594L183.752 151.954L194.108 135.314C194.927 133.996 195.804 132.716 196.739 131.474C197.676 130.238 198.674 129.051 199.729 127.915C203.516 123.826 208.294 120.784 213.602 119.083C218.679 117.407 224.18 116.779 230.004 116.508C238.388 116.129 248.019 117.035 256.48 120.207C264.94 123.379 272.224 128.819 275.928 137.503C276.399 138.612 276.882 139.715 277.377 140.813C277.872 141.91 278.373 143.005 278.88 144.097L290.008 168.092L301.136 192.087C301.998 193.94 302.509 195.936 302.644 197.975C302.862 201.239 302.043 204.488 300.304 207.258C299.697 208.211 298.991 209.099 298.2 209.907C295.405 212.797 291.652 214.569 287.645 214.891C283.628 215.228 279.621 214.14 276.325 211.819C269.881 207.278 262.178 200.043 256.088 193.935C249.998 187.827 245.515 182.866 245.515 182.866L253.28 173.394L261.044 163.922C261.056 163.908 261.064 163.89 261.066 163.871C261.069 163.853 261.065 163.834 261.057 163.817C261.049 163.801 261.037 163.787 261.021 163.777C261.006 163.768 260.988 163.763 260.97 163.763L237.231 164.16L213.502 164.547Z" fill="#84A1E5" stroke="#070707" stroke-width="0.5" stroke-miterlimit="10" stroke-linecap="round"/>
<path d="M288.011 178.342C288.011 180.277 287.341 182.153 286.113 183.648C284.886 185.144 283.178 186.168 281.28 186.546C279.382 186.923 277.412 186.631 275.706 185.719C273.999 184.807 272.662 183.332 271.921 181.544C271.18 179.756 271.083 177.767 271.644 175.916C272.206 174.064 273.392 172.464 275.001 171.389C276.61 170.314 278.541 169.83 280.467 170.02C282.393 170.209 284.193 171.061 285.561 172.429C286.339 173.205 286.956 174.126 287.376 175.141C287.797 176.156 288.013 177.244 288.011 178.342Z" fill="#DBCAF4" stroke="black" stroke-width="0.5" stroke-miterlimit="10" stroke-linecap="round"/>
<path d="M256.167 149.01C256.167 150.945 255.496 152.82 254.268 154.315C253.04 155.811 251.332 156.834 249.434 157.211C247.537 157.588 245.567 157.296 243.86 156.384C242.154 155.471 240.817 153.996 240.077 152.208C239.337 150.42 239.239 148.431 239.801 146.58C240.362 144.728 241.549 143.129 243.158 142.054C244.766 140.979 246.698 140.495 248.624 140.685C250.549 140.874 252.349 141.726 253.718 143.094C254.495 143.87 255.112 144.792 255.533 145.808C255.953 146.823 256.169 147.911 256.167 149.01Z" fill="#DBCAF4" stroke="black" stroke-width="0.5" stroke-miterlimit="10" stroke-linecap="round"/>
<path d="M191.535 186.706C191.535 188.641 190.865 190.516 189.637 192.012C188.41 193.508 186.702 194.532 184.804 194.909C182.906 195.287 180.936 194.995 179.23 194.083C177.523 193.171 176.186 191.695 175.445 189.908C174.704 188.12 174.607 186.131 175.168 184.279C175.73 182.428 176.916 180.828 178.525 179.753C180.134 178.678 182.065 178.194 183.991 178.383C185.917 178.573 187.717 179.424 189.085 180.792C189.863 181.568 190.479 182.49 190.9 183.505C191.32 184.52 191.536 185.608 191.535 186.706Z" fill="#DBCAF4" stroke="black" stroke-width="0.5" stroke-miterlimit="10" stroke-linecap="round"/>
<path d="M281.304 206.889C281.306 205.02 280.681 203.205 279.53 201.733C278.38 200.261 276.769 199.216 274.955 198.767C273.142 198.317 271.229 198.488 269.524 199.252C267.819 200.016 266.419 201.329 265.547 202.982C267.378 204.639 269.226 206.251 271.039 207.746C272.851 209.242 274.623 210.619 276.322 211.812C276.676 212.061 277.036 212.294 277.403 212.511C277.77 212.727 278.142 212.931 278.519 213.122C279.397 212.339 280.099 211.379 280.579 210.304C281.06 209.23 281.307 208.066 281.304 206.889Z" fill="#DBCAF4" stroke="black" stroke-width="0.5" stroke-miterlimit="10" stroke-linecap="round"/>
<path d="M209.829 132.808C211.49 132.808 213.114 132.313 214.493 131.387C215.872 130.46 216.944 129.143 217.571 127.605C218.198 126.066 218.352 124.376 218.014 122.749C217.676 121.122 216.861 119.633 215.673 118.472C213.122 119.151 210.654 120.11 208.313 121.329C205.888 122.609 203.638 124.196 201.619 126.052C201.99 127.956 203.013 129.673 204.51 130.906C206.008 132.14 207.888 132.815 209.829 132.815V132.808Z" fill="#DBCAF4" stroke="black" stroke-width="0.5" stroke-miterlimit="10" stroke-linecap="round"/>
<path d="M262.831 132.808C264.284 132.81 265.712 132.433 266.974 131.715C268.236 130.996 269.29 129.961 270.03 128.712C268.07 126.726 265.865 124.997 263.469 123.569C261.03 122.115 258.453 120.908 255.776 119.964C255.359 120.621 255.034 121.331 254.811 122.076C254.439 123.325 254.363 124.643 254.591 125.926C254.819 127.209 255.343 128.421 256.122 129.465C256.901 130.51 257.913 131.358 259.078 131.941C260.243 132.525 261.528 132.829 262.831 132.828V132.808Z" fill="#DBCAF4" stroke="black" stroke-width="0.5" stroke-miterlimit="10" stroke-linecap="round"/>
<path d="M211.16 185.692C209.411 185.691 207.705 186.238 206.284 187.257C204.862 188.277 203.796 189.716 203.235 191.373C202.674 193.03 202.647 194.821 203.158 196.494C203.668 198.167 204.691 199.637 206.081 200.699C208.247 199.118 210.404 197.529 212.553 195.93C214.701 194.33 216.848 192.729 218.994 191.124C218.397 189.529 217.327 188.153 215.927 187.183C214.527 186.212 212.864 185.692 211.16 185.692Z" fill="#DBCAF4" stroke="black" stroke-width="0.5" stroke-miterlimit="10" stroke-linecap="round"/>
<path d="M192.346 139.786C190.411 147.978 184.359 149.158 178.791 148.301C173.223 147.443 168.152 144.54 168.152 144.54C163.977 150.083 159.261 151.898 155.59 152.328C151.919 152.758 149.292 151.8 149.292 151.8C138.092 123.182 146.292 103.567 157.29 91.1078C168.288 78.6483 182.073 73.344 182.073 73.344C182.073 73.344 186.991 80.0179 190.734 91.6608C194.476 103.304 197.044 119.91 192.346 139.786Z" fill="#DBCAF4" stroke="black" stroke-width="0.5" stroke-miterlimit="10" stroke-linecap="round"/>
<path d="M182.114 129.183C182.163 130.049 181.96 130.912 181.531 131.666C181.124 132.367 180.54 132.95 179.837 133.354C179.134 133.758 178.338 133.971 177.527 133.97C176.659 133.965 175.811 133.709 175.085 133.235H175.064C174.338 133.709 173.491 133.964 172.625 133.97C171.813 133.97 171.016 133.758 170.313 133.354C169.61 132.949 169.026 132.367 168.618 131.666C168.189 130.912 167.988 130.049 168.037 129.183C167.262 128.792 166.617 128.186 166.178 127.437C165.773 126.734 165.559 125.936 165.559 125.124C165.559 124.312 165.773 123.514 166.178 122.811C166.617 122.063 167.262 121.457 168.037 121.068C167.988 120.202 168.19 119.341 168.618 118.587C169.026 117.886 169.611 117.305 170.314 116.901C171.017 116.497 171.814 116.284 172.625 116.283C173.492 116.289 174.339 116.545 175.064 117.02H175.08C175.806 116.545 176.654 116.289 177.522 116.283C178.332 116.283 179.129 116.496 179.831 116.9C180.534 117.305 181.118 117.886 181.526 118.587C181.955 119.34 182.158 120.202 182.109 121.068C182.883 121.459 183.528 122.064 183.968 122.811C184.372 123.515 184.585 124.312 184.585 125.124C184.585 125.936 184.372 126.733 183.968 127.437C183.53 128.184 182.886 128.79 182.114 129.183Z" fill="#FF6406" stroke="#070707" stroke-width="0.5" stroke-miterlimit="10" stroke-linecap="round"/>
<path d="M177.711 125.125C177.71 125.734 177.497 126.323 177.11 126.793C176.723 127.263 176.185 127.584 175.588 127.702C174.99 127.819 174.371 127.726 173.834 127.438C173.298 127.15 172.878 126.685 172.646 126.122C172.414 125.559 172.385 124.933 172.562 124.351C172.74 123.769 173.114 123.266 173.621 122.929C174.128 122.592 174.736 122.44 175.342 122.501C175.947 122.562 176.513 122.83 176.943 123.261C177.188 123.506 177.381 123.797 177.513 124.117C177.645 124.436 177.712 124.779 177.711 125.125Z" fill="#ECE7E1" stroke="black" stroke-width="0.5" stroke-miterlimit="10" stroke-linecap="round"/>
<path d="M188.519 90.3706C187.848 90.3558 187.209 90.0852 186.73 89.6143C186.252 89.1433 185.972 88.5076 185.948 87.837C185.923 87.1664 186.155 86.5117 186.597 86.0066C187.039 85.5016 187.657 85.1845 188.325 85.12C187.813 83.9117 187.319 82.7879 186.83 81.7562C186.341 80.7245 185.87 79.7773 185.419 78.9402C185.126 78.9811 184.838 79.0505 184.559 79.1476C184.285 79.2367 184.021 79.3507 183.768 79.488C183.064 79.8923 182.48 80.4763 182.076 81.1802C181.646 81.9345 181.444 82.7967 181.492 83.6634C180.719 84.0563 180.074 84.6621 179.634 85.4093C179.228 86.1126 179.014 86.9103 179.014 87.7223C179.014 88.5342 179.228 89.3319 179.634 90.0352C180.074 90.7825 180.719 91.3883 181.492 91.7811C181.444 92.6478 181.646 93.51 182.076 94.2643C182.483 94.9657 183.067 95.5478 183.769 95.9522C184.472 96.3566 185.269 96.5691 186.08 96.5683C186.947 96.5629 187.795 96.3078 188.522 95.8336H188.537C189.061 96.1751 189.65 96.4038 190.267 96.5052C190.884 96.6065 191.516 96.5784 192.121 96.4224C191.814 95.2278 191.492 94.0817 191.156 92.9844C190.821 91.8784 190.473 90.816 190.119 89.7946C189.662 90.1503 189.099 90.3423 188.519 90.3399V90.3706Z" fill="#FF6406" stroke="#070707" stroke-width="0.5" stroke-miterlimit="10" stroke-linecap="round"/>
<path d="M185.885 87.739C185.885 88.0848 185.953 88.4272 186.086 88.7467C186.218 89.0661 186.412 89.3564 186.657 89.6008C186.902 89.8452 187.192 90.039 187.512 90.1711C187.831 90.3032 188.174 90.371 188.519 90.3707C189.099 90.3731 189.662 90.1811 190.119 89.8254C189.828 88.9806 189.528 88.1639 189.229 87.3806C188.929 86.5972 188.627 85.8446 188.325 85.115C187.662 85.1629 187.042 85.4602 186.589 85.9471C186.136 86.4339 185.885 87.0742 185.885 87.739Z" fill="#ECE7E1" stroke="black" stroke-width="0.5" stroke-miterlimit="10" stroke-linecap="round"/>
<path d="M149.464 103.35C149.417 104.211 149.619 105.068 150.045 105.818C150.449 106.517 151.029 107.097 151.727 107.502C152.426 107.906 153.219 108.12 154.026 108.122C154.888 108.117 155.73 107.863 156.45 107.389H156.468C157.188 107.863 158.03 108.117 158.892 108.122C159.511 108.128 160.124 108.007 160.693 107.767C161.263 107.527 161.778 107.173 162.205 106.726C162.633 106.279 162.964 105.75 163.179 105.17C163.394 104.59 163.488 103.972 163.454 103.355C164.223 102.965 164.864 102.363 165.3 101.619C165.706 100.919 165.92 100.124 165.92 99.3151C165.92 98.506 165.706 97.7111 165.3 97.0111C164.864 96.2675 164.223 95.665 163.454 95.2755C163.5 94.4146 163.3 93.5584 162.876 92.8076C162.522 92.1962 162.032 91.6744 161.444 91.2825C160.857 90.8905 160.187 90.6389 159.486 90.5471C158.866 90.4652 158.236 90.5167 157.638 90.6982C155.995 92.522 154.469 94.4484 153.071 96.4659C151.593 98.5966 150.275 100.833 149.126 103.158C149.18 103.194 149.236 103.227 149.292 103.258L149.464 103.352V103.35ZM156.46 96.6937C157.065 96.6943 157.65 96.9045 158.117 97.2883C158.584 97.6721 158.904 98.2059 159.021 98.7987C159.139 99.3916 159.048 100.007 158.763 100.54C158.477 101.073 158.017 101.491 157.458 101.722C156.9 101.954 156.278 101.984 155.7 101.809C155.121 101.634 154.622 101.263 154.285 100.761C153.949 100.259 153.798 99.6555 153.856 99.0539C153.915 98.4523 154.18 97.8897 154.607 97.4617C154.851 97.2178 155.142 97.0248 155.461 96.8939C155.781 96.7629 156.123 96.6966 156.468 96.6988L156.46 96.6937Z" fill="#FF6406" stroke="#070707" stroke-width="0.5" stroke-miterlimit="10" stroke-linecap="round"/>
<path d="M156.468 101.934C157.074 101.934 157.661 101.724 158.129 101.339C158.597 100.955 158.918 100.42 159.036 99.8259C159.154 99.2318 159.063 98.615 158.777 98.0807C158.492 97.5464 158.03 97.1277 157.47 96.8958C156.91 96.6639 156.288 96.6332 155.708 96.8089C155.128 96.9846 154.627 97.3559 154.29 97.8595C153.954 98.3631 153.802 98.9679 153.861 99.5708C153.92 100.174 154.187 100.737 154.615 101.166C154.858 101.41 155.147 101.603 155.465 101.735C155.783 101.867 156.124 101.935 156.468 101.934Z" fill="#ECE7E1" stroke="black" stroke-width="0.5" stroke-miterlimit="10" stroke-linecap="round"/>
<path d="M305.88 164.05L302.296 179.003L298.712 193.958L314.884 199.91L331.053 205.86C332.758 206.573 334.543 207.075 336.37 207.358C338.965 207.769 341.618 207.628 344.155 206.945C347.309 206.05 350.181 204.363 352.5 202.046C354.983 199.57 356.911 196.595 358.158 193.318C358.837 191.567 359.328 189.749 359.622 187.894C359.914 186.037 360.029 184.156 359.965 182.277C359.74 175.475 359.223 169.278 358.575 163.768C357.927 158.259 357.144 153.444 356.391 149.407C353.98 136.52 351.225 128.315 348.783 123.039C346.341 117.763 344.214 115.397 343.056 114.202C334.327 105.16 322.681 101.194 312.774 99.5329C306.213 98.4308 299.54 98.1436 292.909 98.6778C288.857 99.0646 284.846 99.803 280.923 100.885C275.296 102.429 269.886 104.675 264.82 107.571C259.82 110.44 255.196 113.92 251.055 117.932C253.385 118.651 255.665 119.522 257.88 120.54C259.546 121.306 261.17 122.16 262.744 123.1C264.125 123.919 265.458 124.816 266.735 125.788C267.718 126.556 268.374 127.13 268.747 127.468C269.285 127.954 269.94 128.581 270.652 129.354C271.453 130.226 272.199 131.146 272.887 132.109C274.177 133.92 275.256 135.874 276.102 137.93C276.58 139.1 276.988 140.297 277.323 141.514C279.766 149.962 283.516 157.937 287.591 165.778C291.667 173.619 296.073 181.335 299.818 189.302C300.828 185.097 301.838 180.89 302.847 176.681C303.855 172.472 304.866 168.262 305.88 164.05Z" fill="#C6FCDB" stroke="black" stroke-width="0.5" stroke-miterlimit="10" stroke-linecap="round"/>
<path d="M220.45 146.33C220.45 146.33 221.592 145.615 224.201 146.045C226.809 146.476 230.885 148.047 236.745 152.617" stroke="black" stroke-width="0.5" stroke-miterlimit="10" stroke-linecap="round"/>
<path d="M239.466 149.819C239.466 149.819 237.267 148.255 234.325 146.596C231.384 144.937 227.7 143.183 224.733 142.807" stroke="black" stroke-width="0.5" stroke-miterlimit="10" stroke-linecap="round"/>
<path d="M241.368 147.382C240.621 146.857 239.832 146.322 238.967 145.784C238.101 145.247 237.203 144.709 236.238 144.179C235.337 143.682 234.458 143.229 233.601 142.817C232.749 142.408 231.919 142.034 231.125 141.698" stroke="black" stroke-width="0.5" stroke-miterlimit="10" stroke-linecap="round"/>
<path d="M222.424 117.143C220.693 117.399 219.889 118.879 219.687 120.625C219.508 122.357 219.807 124.105 220.55 125.681C221.202 126.908 222.251 127.879 223.525 128.435C224.32 128.797 225.165 129.038 226.031 129.152C227.59 129.344 229.171 129.077 230.58 128.384C232.07 127.646 233.352 126.545 234.307 125.184C234.751 126.004 235.314 126.753 235.979 127.406C237.257 128.71 238.93 129.554 240.738 129.807C241.7 129.914 242.673 129.875 243.623 129.69C245.405 129.391 247.01 128.433 248.119 127.007C249.074 125.723 249.589 124.165 249.585 122.565C249.586 120.889 249.088 119.25 248.154 117.857C248.154 117.857 244.826 117.235 239.962 116.833C235.098 116.431 228.642 116.247 222.424 117.143Z" fill="#ECE7E1" stroke="black" stroke-width="0.5" stroke-miterlimit="10" stroke-linecap="round"/>
<path d="M198.975 151.844L196.363 150.523L193.752 149.199L187.301 157.084L180.847 164.966L182.347 165.944L183.847 166.925L191.929 166.571L200.009 166.221L200.587 162.286L201.176 158.351L200.083 155.097L198.975 151.844Z" fill="#F2B3C1" stroke="black" stroke-width="0.5" stroke-miterlimit="10" stroke-linecap="round"/>
<path d="M188.424 146.504C188.245 146.634 188.007 146.801 187.718 146.982C187.387 147.188 187.045 147.377 186.694 147.548C184.39 148.662 181.953 148.805 179.718 148.546C177.483 148.288 175.445 147.625 173.92 147.131C173.21 146.9 172.345 146.591 171.36 146.168C170.252 145.692 169.175 145.148 168.134 144.54C167.712 145.08 167.212 145.674 166.629 146.289C164.673 148.345 162.356 150.025 159.793 151.245L170.318 158.105L180.842 164.966L187.296 157.084L193.747 149.199L191.084 147.853L188.424 146.504Z" fill="#F6C34C" stroke="#070707" stroke-width="0.5" stroke-miterlimit="10" stroke-linecap="round"/>
<path d="M269.336 105.293C272.623 113.86 275.909 122.422 279.195 130.977C282.48 139.533 285.766 148.095 289.053 156.664C289.202 157.039 289.473 157.353 289.821 157.557C290.169 157.761 290.576 157.843 290.976 157.79C291.376 157.737 291.746 157.551 292.029 157.264C292.312 156.976 292.491 156.602 292.537 156.201L295.906 127.273L299.278 98.345C296.272 98.3553 293.271 98.5597 290.292 98.9568C286.642 99.4405 283.037 100.219 279.512 101.284C277.574 101.873 275.756 102.52 274.062 103.199C272.367 103.877 270.785 104.576 269.336 105.293Z" fill="#ECE7E1" stroke="black" stroke-width="0.5" stroke-miterlimit="10" stroke-linecap="round"/>
<path d="M247.991 114.724L255.438 117.179L262.885 119.631L257.038 124.856L251.188 130.079L249.591 122.401L247.991 114.724Z" fill="#040400" stroke="#040400" stroke-width="0.5" stroke-miterlimit="10"/>
<path d="M261.185 163.753L255.842 158.218L250.499 152.686C249.223 151.363 247.884 150.105 246.483 148.91C245.083 147.723 243.62 146.612 242.1 145.582C240.241 144.32 238.176 143.086 236.233 142.303C234.289 141.519 232.472 141.181 231.113 141.711C230.671 141.547 230.214 141.431 229.748 141.366C228.38 141.168 226.985 141.425 225.777 142.098C225.406 142.303 225.056 142.545 224.733 142.82C223.789 142.84 222.874 143.154 222.117 143.718C221.579 144.127 221.142 144.652 220.837 145.254C220.662 145.599 220.531 145.965 220.448 146.342C219.38 146.948 218.381 147.669 217.47 148.493C217.076 148.849 216.72 149.202 216.4 149.548C216.08 149.893 215.796 150.229 215.545 150.546C215.182 150.895 214.921 151.338 214.793 151.826C214.678 152.225 214.724 152.653 214.921 153.019C215.067 153.261 215.281 153.455 215.535 153.58C215.691 153.648 215.856 153.698 216.024 153.728C216.336 153.802 216.661 153.802 216.974 153.728C217.452 153.595 217.9 153.368 218.289 153.06C219.093 152.449 219.941 151.899 220.826 151.416C221.456 151.087 222.15 150.901 222.859 150.871H223.008H223.153C223.921 150.882 224.679 151.047 225.381 151.357C226.095 151.664 226.785 152.024 227.444 152.435C229.777 153.837 231.996 155.419 234.082 157.166C236.412 159.189 238.232 161.418 237.679 163.146C237.618 163.334 237.532 163.512 237.423 163.676C237.292 163.865 237.138 164.037 236.965 164.188C236.965 164.188 236.529 164.767 235.472 164.764C234.415 164.762 232.736 164.175 230.247 161.846C230.063 161.674 229.886 161.5 229.71 161.334C229.533 161.167 229.359 160.978 229.198 160.796C228.651 160.209 228.012 159.714 227.306 159.332C226.461 158.907 225.491 158.753 224.674 159.506C224.404 159.649 224.178 159.865 224.022 160.128C223.865 160.391 223.785 160.692 223.788 160.998C223.76 162.104 224.569 163.937 227.905 166.833C228.652 167.483 229.398 168.136 230.142 168.791C230.885 169.446 231.625 170.107 232.354 170.778L238.944 176.817L245.53 182.853L253.361 173.302L261.185 163.753Z" fill="#D87D61" stroke="black" stroke-width="0.5" stroke-miterlimit="10" stroke-linecap="round"/>
<path d="M291.8 157.46C291.693 157.545 291.576 157.615 291.452 157.67C291.248 157.764 291.028 157.817 290.804 157.827C290.458 157.841 290.115 157.752 289.819 157.571C288.769 150.403 287.721 143.228 286.675 136.046C285.629 128.864 284.58 121.689 283.529 114.519L284.415 114.383L285.298 114.245C286.39 121.452 287.477 128.655 288.559 135.854C289.641 143.053 290.722 150.255 291.8 157.46Z" fill="#F6991A" stroke="#070707" stroke-width="0.5" stroke-miterlimit="10" stroke-linecap="round"/>
<path d="M295.358 131.858C295.236 132.761 295.113 133.664 294.992 134.566L294.616 137.275C293.916 133.094 293.217 128.912 292.517 124.731C291.817 120.55 291.116 116.368 290.415 112.187L291.25 111.634L292.087 111.083C292.629 114.545 293.174 118.007 293.72 121.469C294.266 124.932 294.812 128.395 295.358 131.858Z" fill="#F6991A" stroke="#070707" stroke-width="0.5" stroke-miterlimit="10" stroke-linecap="round"/>
<path d="M283.117 141.826C282.564 140.29 282.012 138.748 281.46 137.201L279.804 132.572C279.164 129.265 278.525 125.956 277.887 122.647C277.248 119.338 276.61 116.028 275.972 112.719C276.125 112.799 276.289 112.881 276.458 112.96C276.627 113.039 276.801 113.116 276.97 113.195C277.113 113.257 277.257 113.313 277.395 113.367L277.807 113.521C278.688 118.239 279.57 122.957 280.454 127.672L283.117 141.826Z" fill="#F6991A" stroke="#070707" stroke-width="0.5" stroke-miterlimit="10" stroke-linecap="round"/>
<path d="M198.974 173.353C199.339 170.853 199.705 168.352 200.07 165.852C200.435 163.352 200.8 160.852 201.163 158.351C200.8 157.266 200.435 156.181 200.07 155.098L198.974 151.844L183.555 145.469L168.152 139.092L184.328 135.222L200.508 131.348C202.53 130.865 204.545 130.355 206.56 129.835C208.574 129.316 210.581 128.781 212.593 128.253C214.719 127.685 216.955 127.673 219.086 128.22C221.702 128.909 224.582 130.614 227.173 134.264L233.317 142.042L239.461 149.819L219.216 161.595L198.974 173.353Z" fill="#ECE7E1" stroke="black" stroke-width="0.5" stroke-miterlimit="10" stroke-linecap="round"/>
<path d="M189.863 147.983C190.6 147.822 191.289 147.491 191.875 147.016C192.938 146.197 194.108 144.712 194.54 142.006" stroke="black" stroke-width="0.5" stroke-miterlimit="10" stroke-linecap="round"/>
<path d="M227.16 134.272C224.569 130.619 221.687 128.916 219.073 128.225C216.942 127.68 214.706 127.692 212.581 128.261C210.569 128.788 208.559 129.321 206.544 129.843C204.53 130.365 202.517 130.867 200.495 131.356L199 131.712L197.505 132.07C197.831 135.331 198.929 138.467 200.707 141.22C202.394 143.833 204.771 145.929 207.576 147.274C209.576 148.21 211.744 148.733 213.95 148.81C215.428 148.864 216.907 148.742 218.356 148.449C218.947 149.734 219.537 151.02 220.128 152.307L221.902 156.168C222.095 156.653 222.313 157.128 222.554 157.591C222.83 158.124 223.141 158.637 223.486 159.127C224.854 161.165 226.961 162.59 229.362 163.103C231.715 163.626 234.18 163.201 236.222 161.92C236.868 161.509 237.459 161.018 237.981 160.458C238.491 159.907 238.932 159.296 239.294 158.638C240.172 157.038 240.544 155.21 240.362 153.395C240.181 151.575 239.481 149.844 238.345 148.411L232.754 141.348L227.16 134.272Z" fill="#040400" stroke="#040400" stroke-width="0.5" stroke-miterlimit="10"/>
<path d="M194.54 142.006C195.738 141.897 196.944 142.084 198.053 142.549C198.977 142.968 199.612 143.598 199.829 144.341C199.881 144.531 199.909 144.727 199.914 144.924C199.931 145.283 199.842 145.639 199.658 145.948C199.253 146.586 198.365 146.939 197.17 146.972C195.686 146.956 194.22 146.647 192.856 146.063C193.027 145.844 193.187 145.616 193.335 145.38C193.509 145.102 193.667 144.814 193.808 144.517C194.184 143.724 194.432 142.876 194.543 142.006H194.54Z" fill="#FC762B" stroke="#070707" stroke-width="0.5" stroke-miterlimit="10" stroke-linecap="round"/>
<path d="M205.326 137.644C205.326 137.935 205.224 138.217 205.039 138.442C204.855 138.668 204.597 138.822 204.311 138.878C204.026 138.935 203.729 138.891 203.472 138.754C203.215 138.616 203.014 138.394 202.902 138.125C202.791 137.855 202.776 137.556 202.861 137.277C202.946 136.998 203.124 136.757 203.367 136.596C203.609 136.434 203.9 136.361 204.19 136.39C204.48 136.418 204.751 136.547 204.957 136.753C205.074 136.87 205.167 137.008 205.23 137.161C205.294 137.314 205.326 137.478 205.326 137.644Z" fill="#ECE7E1" stroke="black" stroke-width="0.5" stroke-miterlimit="10" stroke-linecap="round"/>
<path d="M199.773 154.219C201.081 154.345 202.502 154.434 204.025 154.475C205.548 154.516 207.174 154.475 208.889 154.35C210.95 154.207 213.001 153.951 215.033 153.582C216.917 153.234 218.617 152.814 220.153 152.386L221.024 154.286L221.896 156.183C219.786 156.989 217.614 157.623 215.402 158.077C212.623 158.646 209.79 158.916 206.954 158.881C205.899 158.866 204.885 158.81 203.918 158.722C202.95 158.635 202.031 158.515 201.158 158.374L200.469 156.288L199.773 154.219Z" fill="#DBCAF4" stroke="black" stroke-width="0.5" stroke-miterlimit="10" stroke-linecap="round"/>
<path d="M248.052 116.109C248.214 115.804 248.372 115.487 248.526 115.151C248.679 114.816 248.83 114.465 248.974 114.097C249.381 113.049 249.697 111.968 249.918 110.866C250.102 109.948 250.22 109.018 250.272 108.083C250.682 108.11 251.087 108.189 251.478 108.319C251.984 108.482 252.439 108.774 252.798 109.166C253.582 110.047 253.771 111.429 253.477 112.75C253.182 114.071 252.404 115.31 251.255 115.912C250.673 116.208 250.025 116.35 249.373 116.326C248.925 116.31 248.482 116.237 248.052 116.109Z" fill="#D87D61" stroke="black" stroke-width="0.5" stroke-miterlimit="10" stroke-linecap="round"/>
<path d="M221.92 108.879L214.081 109.087L206.242 109.294L210.343 115.978L214.442 122.662L218.179 115.771L221.92 108.879Z" fill="#040400" stroke="#040400" stroke-width="0.5" stroke-miterlimit="10"/>
<path d="M213.636 164.864L219.644 160L225.655 155.136C227.109 154.008 228.613 152.953 230.168 151.972C231.724 150.992 233.332 150.096 234.984 149.289C237.001 148.303 239.223 147.379 241.258 146.88C243.293 146.381 245.142 146.307 246.411 147.026C247.313 146.826 248.247 146.824 249.15 147.022C250.052 147.219 250.9 147.61 251.636 148.168C251.974 148.424 252.287 148.713 252.568 149.03C252.92 149.089 253.263 149.188 253.592 149.325C254.174 149.566 254.697 149.93 255.125 150.391C255.554 150.852 255.879 151.4 256.078 151.997C256.203 152.363 256.28 152.744 256.308 153.129L258.315 155.333L260.322 157.54C260.781 157.95 261.081 158.508 261.17 159.117C261.213 159.361 261.205 159.612 261.147 159.853C261.088 160.094 260.98 160.32 260.829 160.517C260.632 160.719 260.391 160.874 260.125 160.969C259.859 161.064 259.574 161.097 259.293 161.065C258.943 161.038 258.602 160.94 258.291 160.777C257.981 160.614 257.706 160.388 257.486 160.115C257.035 159.639 256.531 159.216 255.983 158.856C255.11 158.276 254.133 157.873 253.106 157.668L252.96 157.64L252.817 157.617C252.092 157.501 251.355 157.494 250.628 157.594C249.9 157.695 249.189 157.893 248.513 158.182C246.005 159.237 243.584 160.487 241.271 161.92C238.67 163.569 236.548 165.504 236.85 167.296C236.883 167.49 236.944 167.679 237.029 167.857C237.13 168.066 237.257 168.261 237.408 168.438C237.408 168.438 237.756 169.073 238.803 169.206C239.85 169.339 241.594 169.014 244.392 167.063C244.596 166.92 244.799 166.774 244.998 166.623C245.198 166.472 245.395 166.321 245.59 166.164C246.216 165.663 246.919 165.264 247.671 164.984C248.569 164.685 249.55 164.672 250.254 165.535C250.501 165.715 250.694 165.96 250.811 166.243C250.928 166.526 250.965 166.835 250.917 167.137C250.784 168.236 249.724 169.935 246.01 172.326C245.175 172.861 244.344 173.4 243.516 173.944C242.687 174.487 241.862 175.035 241.043 175.596L233.663 180.654L226.28 185.692C224.172 182.221 222.064 178.749 219.956 175.278L213.636 164.864Z" fill="#D87D61" stroke="black" stroke-width="0.5" stroke-miterlimit="10" stroke-linecap="round"/>
<path d="M250.036 110.208C249.268 114.796 246.997 118.684 243.93 121.262C240.864 123.84 237.018 125.102 233.089 124.462C229.159 123.822 225.921 121.365 223.86 117.934C221.799 114.504 220.888 110.08 221.656 105.493C222.424 100.905 224.695 97.0164 227.761 94.4359C230.828 91.8554 234.673 90.5959 238.603 91.2359C242.533 91.8759 245.771 94.336 247.832 97.7664C249.893 101.197 250.799 105.615 250.036 110.208Z" fill="#D87D61" stroke="black" stroke-width="0.5" stroke-miterlimit="10" stroke-linecap="round"/>
<path d="M239.794 106.88C239.755 107.108 239.628 107.311 239.44 107.446C239.324 107.529 239.188 107.582 239.046 107.601C238.904 107.619 238.759 107.603 238.625 107.552C238.491 107.501 238.371 107.418 238.276 107.31C238.182 107.203 238.115 107.073 238.083 106.933C238.05 106.794 238.053 106.648 238.09 106.509C238.127 106.371 238.198 106.244 238.296 106.139C238.394 106.034 238.516 105.955 238.652 105.909C238.788 105.863 238.933 105.851 239.074 105.874C239.188 105.892 239.296 105.933 239.394 105.994C239.491 106.055 239.576 106.134 239.643 106.227C239.71 106.321 239.757 106.427 239.783 106.539C239.809 106.651 239.813 106.767 239.794 106.88Z" fill="#040400"/>
<path d="M229.366 105.431C229.343 105.572 229.284 105.706 229.196 105.819C229.109 105.933 228.994 106.023 228.864 106.082C228.733 106.14 228.59 106.166 228.447 106.156C228.304 106.147 228.165 106.102 228.043 106.026C227.922 105.95 227.821 105.845 227.749 105.721C227.678 105.597 227.638 105.457 227.633 105.313C227.629 105.17 227.659 105.028 227.723 104.899C227.786 104.771 227.88 104.66 227.997 104.576C228.137 104.475 228.305 104.418 228.478 104.413C228.651 104.407 228.821 104.453 228.968 104.545C229.115 104.636 229.231 104.77 229.302 104.927C229.373 105.085 229.395 105.26 229.366 105.431Z" fill="#040400"/>
<path d="M231.776 109.44L231.092 108.564L230.411 107.689C230.402 107.678 230.396 107.665 230.394 107.651C230.391 107.637 230.393 107.623 230.398 107.609C230.404 107.596 230.412 107.584 230.424 107.575C230.435 107.566 230.448 107.56 230.462 107.558L231.486 107.481L232.51 107.402L232.933 104.855L233.358 102.295" stroke="black" stroke-width="0.5" stroke-miterlimit="10" stroke-linecap="round"/>
<path d="M235.48 112.133C235.218 112.587 234.836 112.96 234.376 113.211C233.893 113.475 233.351 113.614 232.799 113.615C232.197 113.619 231.604 113.461 231.082 113.16C230.58 112.874 230.172 112.447 229.909 111.933" stroke="black" stroke-width="0.5" stroke-miterlimit="10" stroke-linecap="round"/>
<path d="M237.815 101.65L240.273 102.723L242.73 103.798" stroke="black" stroke-width="0.5" stroke-miterlimit="10" stroke-linecap="round"/>
<path d="M256.303 153.109C256.303 153.109 255.279 152.238 252.632 152.292C249.985 152.346 245.72 153.316 239.276 157.007" stroke="black" stroke-width="0.5" stroke-miterlimit="10" stroke-linecap="round"/>
<path d="M231.149 101.181L228.504 101.821L225.862 102.459" stroke="black" stroke-width="0.5" stroke-miterlimit="10" stroke-linecap="round"/>
<path d="M236.983 153.851C236.983 153.851 239.384 152.617 242.53 151.393C245.677 150.17 249.576 148.961 252.568 149.01" stroke="black" stroke-width="0.5" stroke-miterlimit="10" stroke-linecap="round"/>
<path d="M243.278 111.557C243.191 112.083 242.924 112.563 242.523 112.915C242.123 113.266 241.612 113.468 241.079 113.485C240.547 113.503 240.024 113.335 239.601 113.01C239.178 112.685 238.881 112.224 238.76 111.705C238.639 111.186 238.702 110.641 238.938 110.162C239.174 109.684 239.569 109.303 240.055 109.083C240.54 108.863 241.087 108.819 241.602 108.957C242.117 109.096 242.568 109.408 242.878 109.842C243.233 110.338 243.377 110.955 243.278 111.557Z" fill="#FF6406" stroke="#070707" stroke-width="0.5" stroke-miterlimit="10" stroke-linecap="round"/>
<path d="M229.287 109.486C229.2 110.012 228.933 110.491 228.532 110.842C228.131 111.194 227.621 111.395 227.088 111.412C226.556 111.429 226.033 111.261 225.611 110.936C225.188 110.611 224.891 110.15 224.77 109.631C224.65 109.112 224.713 108.567 224.949 108.089C225.185 107.611 225.579 107.23 226.065 107.01C226.551 106.79 227.097 106.746 227.612 106.884C228.127 107.022 228.578 107.335 228.888 107.768C229.064 108.014 229.19 108.293 229.259 108.587C229.327 108.882 229.337 109.188 229.287 109.486Z" fill="#FF6406" stroke="#070707" stroke-width="0.5" stroke-miterlimit="10" stroke-linecap="round"/>
<path d="M223.484 99.8836C225.442 100.249 227.443 100.314 229.421 100.078C232.792 99.6941 236.97 98.3424 240.198 94.482C240.822 96.5344 241.642 98.5217 242.648 100.416C244.302 103.529 246.821 106.929 250.28 108.083C250.691 108.113 251.095 108.199 251.483 108.339C251.87 108.461 252.228 108.659 252.536 108.923C252.845 109.187 253.096 109.511 253.275 109.875C253.275 109.875 255.223 105.633 254.757 100.659C254.291 95.6852 251.411 89.9559 241.755 86.9965C238.735 86.2078 235.565 86.1955 232.539 86.9607C227.616 88.2407 222.071 92.1575 219.58 102.628C219.85 102.507 220.134 102.421 220.425 102.372C221.062 102.246 221.723 102.31 222.324 102.556L222.913 101.228L223.484 99.8836Z" fill="#040400" stroke="#040400" stroke-width="0.5" stroke-miterlimit="10"/>
<path d="M228.273 112.428C228.287 112.366 228.296 112.304 228.302 112.241C228.302 112.177 228.314 112.113 228.317 112.051C228.324 111.874 228.318 111.697 228.299 111.521C228.281 111.345 228.256 111.171 228.227 110.997C228.158 110.549 228.076 110.101 227.984 109.658C227.892 109.215 227.79 108.769 227.677 108.332C227.667 108.294 227.646 108.261 227.618 108.234C227.59 108.208 227.554 108.191 227.516 108.184C227.478 108.177 227.439 108.181 227.403 108.195C227.367 108.21 227.336 108.234 227.313 108.265C227.137 108.521 226.963 108.777 226.801 109.033C226.64 109.289 226.469 109.558 226.31 109.822C226.121 110.136 225.918 110.459 225.747 110.797C225.57 111.126 225.442 111.48 225.368 111.847C225.337 112.023 225.327 112.203 225.34 112.382C225.354 112.558 225.398 112.731 225.468 112.894C225.58 113.134 225.757 113.338 225.98 113.482C226.196 113.633 226.449 113.72 226.711 113.736C226.974 113.751 227.235 113.693 227.467 113.569C227.806 113.399 228.067 113.106 228.197 112.75C228.231 112.645 228.257 112.537 228.273 112.428Z" fill="#84A1E5" stroke="#070707" stroke-width="0.5" stroke-miterlimit="10" stroke-linecap="round"/>
<path d="M235.462 151.168C236.276 150.756 237.144 150.341 238.068 149.932C238.992 149.522 239.968 149.117 240.997 148.731C241.959 148.367 242.896 148.045 243.8 147.761C244.704 147.477 245.576 147.223 246.411 146.993" stroke="black" stroke-width="0.5" stroke-miterlimit="10" stroke-linecap="round"/>
<path d="M261.185 163.753L271.169 172.145L281.153 180.536" stroke="black" stroke-width="0.5" stroke-miterlimit="10" stroke-linecap="round"/>
<path d="M299.511 93.6934C299.767 99.1718 298.172 104.228 295.366 107.971C292.56 111.713 288.554 114.143 284.01 114.371C279.466 114.598 275.244 112.596 272.088 109.158C268.931 105.72 266.855 100.854 266.592 95.3753C266.328 89.8969 267.933 84.8435 270.736 81.1008C273.539 77.3581 277.548 74.9261 282.092 74.7008C286.636 74.4755 290.858 76.4774 294.009 79.9155C297.161 83.3536 299.247 88.215 299.511 93.6934Z" fill="#D87D61" stroke="black" stroke-width="0.5" stroke-miterlimit="10" stroke-linecap="round"/>
<path d="M284.376 92.7436C284.39 92.9481 284.343 93.1522 284.24 93.3294C284.137 93.5066 283.983 93.6488 283.798 93.7376C283.613 93.8264 283.406 93.8577 283.204 93.8275C283.001 93.7972 282.812 93.7068 282.661 93.568C282.459 93.3833 282.338 93.1269 282.323 92.8537C282.309 92.6486 282.358 92.4441 282.462 92.2669C282.566 92.0897 282.721 91.9479 282.907 91.8601C283.093 91.7723 283.301 91.7424 283.504 91.7745C283.707 91.8065 283.896 91.8989 284.046 92.0396C284.244 92.2218 284.363 92.4747 284.376 92.7436Z" fill="#040400"/>
<path d="M273.463 95.0784C273.478 95.3507 273.386 95.6181 273.207 95.8234C273.116 95.9242 273.006 96.0062 272.883 96.0646C272.761 96.1229 272.628 96.1566 272.492 96.1636C272.357 96.1706 272.221 96.1508 272.093 96.1054C271.965 96.06 271.847 95.9898 271.746 95.8989C271.646 95.8079 271.564 95.698 271.505 95.5754C271.447 95.4528 271.413 95.3199 271.406 95.1843C271.399 95.0487 271.419 94.913 271.464 94.785C271.51 94.657 271.58 94.5393 271.671 94.4384C271.856 94.2366 272.112 94.1152 272.385 94.1005C272.52 94.0929 272.656 94.1123 272.784 94.1574C272.912 94.2026 273.029 94.2727 273.13 94.3637C273.23 94.4547 273.312 94.5647 273.369 94.6874C273.427 94.8101 273.46 94.943 273.465 95.0784H273.463Z" fill="#040400"/>
<path d="M277.766 98.6879L276.617 98.0582L275.467 97.4079C275.453 97.3996 275.441 97.3877 275.432 97.3733C275.424 97.359 275.419 97.3427 275.419 97.326C275.418 97.309 275.422 97.2922 275.43 97.2773C275.438 97.2624 275.45 97.25 275.465 97.2415L276.542 96.6758L277.62 96.11L276.888 93.1506L276.156 90.1938" stroke="black" stroke-width="0.5" stroke-miterlimit="10" stroke-linecap="round"/>
<path d="M282.878 100.503C282.756 101.109 282.468 101.669 282.046 102.121C281.604 102.597 281.049 102.955 280.433 103.163C279.759 103.391 279.037 103.436 278.339 103.293C277.67 103.162 277.055 102.836 276.57 102.356" stroke="black" stroke-width="0.5" stroke-miterlimit="10" stroke-linecap="round"/>
<path d="M280.946 87.2679L284.066 86.7533L287.187 86.2388" stroke="black" stroke-width="0.5" stroke-miterlimit="10" stroke-linecap="round"/>
<path d="M274.136 88.4634L271.095 89.4874L268.053 90.5114" stroke="black" stroke-width="0.5" stroke-miterlimit="10" stroke-linecap="round"/>
<path d="M299.278 98.3296C299.357 97.8176 299.424 97.2595 299.472 96.6707C299.521 96.0819 299.546 95.4624 299.544 94.8096C299.543 93.6758 299.457 92.5438 299.288 91.4227C299.15 90.4974 298.958 89.581 298.712 88.6784C299.244 88.5433 299.791 88.4796 300.34 88.4889C301.087 88.4882 301.818 88.7092 302.439 89.1238C303.599 89.9405 304.152 91.4918 304.126 93.0816C304.101 94.6713 303.499 96.3021 302.334 97.2774C301.852 97.6784 301.287 97.9693 300.681 98.1299C300.223 98.2542 299.752 98.3213 299.278 98.3296Z" fill="#D87D61" stroke="black" stroke-width="0.5" stroke-miterlimit="10" stroke-linecap="round"/>
<path d="M289.901 97.3183C289.931 97.9453 289.743 98.5635 289.369 99.0675C288.995 99.5716 288.458 99.9303 287.849 100.083C287.24 100.235 286.597 100.171 286.029 99.903C285.462 99.6344 285.005 99.1775 284.737 98.61C284.469 98.0424 284.405 97.3995 284.558 96.7906C284.711 96.1817 285.07 95.6445 285.574 95.2706C286.078 94.8966 286.696 94.7091 287.323 94.7398C287.95 94.7706 288.547 95.0178 289.012 95.4393C289.277 95.6784 289.492 95.9675 289.644 96.29C289.797 96.6125 289.884 96.962 289.901 97.3183Z" fill="#FF6406" stroke="#070707" stroke-width="0.5" stroke-miterlimit="10" stroke-linecap="round"/>
<path d="M274.627 100.948C274.658 101.576 274.47 102.195 274.096 102.7C273.721 103.204 273.184 103.564 272.574 103.716C271.964 103.869 271.321 103.805 270.753 103.537C270.185 103.268 269.727 102.81 269.459 102.242C269.19 101.674 269.127 101.03 269.28 100.421C269.433 99.8114 269.792 99.2736 270.297 98.8994C270.802 98.5252 271.421 98.3376 272.048 98.3685C272.676 98.3995 273.273 98.6472 273.739 99.0693C274.004 99.3083 274.219 99.5975 274.371 99.92C274.524 100.242 274.611 100.592 274.627 100.948Z" fill="#FF6406" stroke="#070707" stroke-width="0.5" stroke-miterlimit="10" stroke-linecap="round"/>
<path d="M268.389 103.552C268.209 103.096 268.033 102.615 267.877 102.111C267.72 101.606 267.549 101.087 267.4 100.526C267.08 99.3404 266.835 98.1357 266.668 96.919C266.528 95.8797 266.442 94.8338 266.412 93.7855C265.943 93.7384 265.47 93.753 265.004 93.8291C264.4 93.9261 263.833 94.1804 263.358 94.5663C262.309 95.4444 262.078 97.0163 262.408 98.5983C262.739 100.18 263.63 101.778 264.82 102.694C265.418 103.148 266.124 103.437 266.868 103.534C267.372 103.606 267.883 103.612 268.389 103.552Z" fill="#D87D61" stroke="black" stroke-width="0.5" stroke-miterlimit="10" stroke-linecap="round"/>
<path d="M274.83 80.4814C274.826 82.0503 274.278 83.5693 273.28 84.7796C272.281 85.9898 270.894 86.8164 269.354 87.1186C267.815 87.4207 266.218 87.1797 264.836 86.4365C263.455 85.6934 262.373 84.4941 261.777 83.0431C261.18 81.592 261.105 79.979 261.564 78.4788C262.024 76.9786 262.989 75.6841 264.296 74.8158C265.602 73.9475 267.17 73.5592 268.731 73.717C270.292 73.8749 271.75 74.5691 272.856 75.6814C273.485 76.3122 273.983 77.0609 274.322 77.8846C274.66 78.7083 274.833 79.5907 274.83 80.4814Z" fill="#040400" stroke="#040400" stroke-width="0.5" stroke-miterlimit="10"/>
<path d="M287.108 75.8809C287.107 78.0954 286.339 80.2413 284.934 81.953C283.529 83.6647 281.574 84.8364 279.402 85.2682C277.231 85.7001 274.976 85.3656 273.023 84.3215C271.07 83.2775 269.54 81.5886 268.692 79.5427C267.845 77.4967 267.733 75.2202 268.376 73.1011C269.019 70.982 270.377 69.1514 272.218 67.9212C274.06 66.691 276.271 66.1373 278.474 66.3545C280.678 66.5717 282.739 67.5463 284.304 69.1122C285.195 69.9999 285.901 71.0549 286.382 72.2165C286.863 73.3782 287.11 74.6235 287.108 75.8809Z" fill="#040400" stroke="#040400" stroke-width="0.5" stroke-miterlimit="10"/>
<path d="M302.498 75.881C302.501 78.096 301.736 80.2435 300.334 81.9576C298.931 83.6718 296.977 84.8466 294.806 85.2819C292.634 85.7172 290.378 85.3861 288.423 84.3449C286.468 83.3037 284.935 81.617 284.084 79.572C283.233 77.5269 283.118 75.2502 283.757 73.1296C284.397 71.009 285.752 69.1758 287.592 67.9422C289.431 66.7086 291.642 66.151 293.846 66.3644C296.051 66.5778 298.113 67.5489 299.682 69.1124C300.575 69.9991 301.284 71.0536 301.767 72.2153C302.25 73.377 302.499 74.6228 302.498 75.881Z" fill="#040400" stroke="#040400" stroke-width="0.5" stroke-miterlimit="10"/>
<path d="M207.34 64.064C206.265 69.0176 207.005 73.8765 209.073 77.7268C211.142 81.577 214.539 84.4186 218.773 85.3376C223.007 86.2567 227.275 85.0816 230.754 82.4372C234.233 79.7927 236.926 75.6813 238.001 70.7277C239.077 65.7741 238.339 60.9127 236.268 57.0624C234.197 53.2122 230.805 50.3706 226.571 49.4515C222.337 48.5325 218.069 49.7075 214.59 52.352C211.111 54.9965 208.418 59.1079 207.34 64.064Z" fill="#F2B3C1" stroke="black" stroke-width="0.5" stroke-miterlimit="10" stroke-linecap="round"/>
<path d="M291.71 84.2318C291.876 85.8302 292.299 87.3913 292.962 88.8551C294.017 91.0542 295.929 93.0382 299.362 92.1601C299.362 92.1601 299.298 91.6045 299.186 90.8929C299.074 90.1456 298.916 89.406 298.712 88.6785C298.712 88.6785 298.968 88.6196 299.344 88.571C299.825 88.5071 300.312 88.4908 300.796 88.5223C300.972 87.7179 301.088 86.9016 301.144 86.0801C301.297 84.1252 301.18 82.1585 300.796 80.2356L296.254 82.2324L291.71 84.2318Z" fill="#040400" stroke="#040400" stroke-width="0.5" stroke-miterlimit="10"/>
<path d="M305.88 163.753L302.593 177.247L299.308 190.74C295.511 189.773 291.822 188.421 288.3 186.703C285.766 185.462 283.334 184.023 281.025 182.4C279.453 181.302 277.965 180.09 276.57 178.775C274.399 176.729 272.491 174.421 270.89 171.904C270.214 170.796 269.626 169.637 269.131 168.438C268.337 166.5 267.72 164.15 268.419 162.511C268.496 162.318 268.595 162.134 268.714 161.964C268.887 161.707 269.125 161.501 269.402 161.364C269.868 161.17 270.389 161.148 270.869 161.303C271.256 161.408 271.621 161.581 271.947 161.815C272.757 162.451 273.476 163.194 274.085 164.024C274.712 164.849 275.275 165.729 275.825 166.569C276.24 167.244 276.732 167.867 277.292 168.428C277.909 169.001 278.629 169.367 279.374 169.047C279.515 168.983 279.638 168.887 279.735 168.765C279.833 168.644 279.91 168.506 279.962 168.358C280.474 166.899 279.962 164.915 279.315 163.295C278.915 162.302 278.438 161.341 277.889 160.422C276.962 159.016 275.918 157.69 274.768 156.46C273.447 155 271.781 153.303 269.569 151.058C268.732 150.258 267.956 149.397 267.247 148.483C266.65 147.643 266.325 146.839 266.576 146.112C266.693 145.792 266.897 145.511 267.165 145.3C267.41 145.103 267.682 144.94 267.971 144.817C267.408 144.311 267.045 143.619 266.947 142.868C266.901 142.567 266.921 142.259 267.006 141.966C267.091 141.672 267.238 141.401 267.439 141.171C267.789 140.832 268.252 140.635 268.739 140.618C269.017 140.597 269.295 140.612 269.569 140.662C269.292 140.111 269.172 139.495 269.221 138.88C269.237 138.431 269.403 138 269.693 137.657C269.982 137.313 270.378 137.076 270.818 136.983C271.039 136.929 271.264 136.899 271.491 136.893C271.707 136.889 271.921 136.917 272.129 136.975C272.408 137.059 272.683 137.159 272.951 137.275C273.258 137.403 273.616 137.556 274.016 137.741C274.415 137.925 274.855 138.143 275.331 138.394C275.503 138.217 275.685 138.005 275.877 137.8C276.056 137.6 276.258 137.421 276.478 137.267C277.41 136.663 278.58 136.919 279.694 137.457C280.71 138 281.677 138.631 282.584 139.343C283.957 140.341 285.242 141.454 286.424 142.671C287.111 143.375 287.761 144.115 288.369 144.888C291.869 149.335 293.868 152.056 295.381 154.012C296.617 155.687 297.986 157.258 299.477 158.71C300.184 159.393 301.064 160.195 302.132 161.057C303.331 162.024 304.582 162.924 305.88 163.753Z" fill="#D87D61" stroke="black" stroke-width="0.5" stroke-miterlimit="10" stroke-linecap="round"/>
<path d="M267.972 144.819C268.996 145.485 270.066 146.232 271.177 147.077C272.288 147.922 273.43 148.869 274.589 149.893C276.084 151.238 277.504 152.665 278.841 154.166C280.08 155.561 281.145 156.905 282.062 158.152" stroke="black" stroke-width="0.5" stroke-miterlimit="10" stroke-linecap="round"/>
<path d="M269.566 140.672C270.716 141.381 271.947 142.208 273.23 143.155C274.512 144.102 275.849 145.188 277.198 146.409C278.758 147.82 280.232 149.324 281.611 150.912C282.891 152.376 283.956 153.782 284.862 155.064" stroke="black" stroke-width="0.5" stroke-miterlimit="10" stroke-linecap="round"/>
<path d="M275.332 138.401C276.55 139.364 277.838 140.449 279.172 141.691C280.505 142.933 281.854 144.3 283.211 145.825C284.148 146.878 285.003 147.917 285.799 148.931C286.596 149.944 287.31 150.935 287.968 151.89" stroke="black" stroke-width="0.5" stroke-miterlimit="10" stroke-linecap="round"/>
<path d="M335.694 172.145L320.787 167.949L305.883 163.753" stroke="black" stroke-width="0.5" stroke-miterlimit="10" stroke-linecap="round"/>
<path d="M206.852 68.3264C206.852 67.8425 206.88 67.328 206.926 66.7904C206.972 66.2528 207.041 65.6768 207.141 65.0829C207.313 64.0495 207.562 63.0303 207.886 62.0339C208.153 61.2102 208.469 60.4032 208.833 59.6173C208.368 59.4143 207.878 59.2731 207.376 59.1974C206.696 59.0826 205.997 59.1717 205.367 59.4534C204.184 60.0217 203.447 61.3529 203.229 62.807C203.012 64.2611 203.314 65.8381 204.217 66.903C204.598 67.3398 205.069 67.6892 205.597 67.927C205.998 68.1097 206.419 68.2437 206.852 68.3264Z" fill="#F2B3C1" stroke="black" stroke-width="0.5" stroke-miterlimit="10" stroke-linecap="round"/>
<path d="M316.401 149.33L318.677 158.561L320.953 167.79" stroke="black" stroke-width="0.5" stroke-miterlimit="10" stroke-linecap="round"/>
<path d="M209.33 58.5121C210.809 59.3697 212.462 59.8825 214.166 60.0122C217.046 60.2503 220.853 59.4567 224.555 55.3197C224.829 57.0339 225.442 58.6762 226.359 60.1505C227.275 61.6248 228.476 62.9015 229.892 63.906C232.521 65.7492 235.698 66.466 238.53 65.7133C240.649 65.1501 242.539 63.778 243.942 61.8887C245.417 59.8634 246.276 57.4554 246.417 54.9537C246.394 52.2021 245.497 49.5291 243.857 47.3197C242.354 45.2694 240.172 43.8182 237.7 43.2237C235.469 42.7562 233.147 43.0257 231.083 43.9917C229.958 44.4902 228.909 45.1433 227.965 45.9322C226.475 45.1013 224.869 44.4973 223.2 44.1402C220.538 43.5617 217.056 43.4541 213.501 45.1796C210.812 46.4947 208.582 48.5894 207.101 51.1905C205.583 53.8476 204.862 56.8849 205.022 59.9405C205.206 59.8641 205.395 59.8016 205.588 59.7537C206.264 59.5802 206.975 59.5864 207.648 59.7716C207.939 59.8512 208.22 59.9601 208.488 60.0967C208.541 59.9789 208.597 59.8586 208.657 59.7357C208.716 59.6154 208.78 59.4797 208.847 59.3645C208.913 59.2493 209.008 59.0625 209.087 58.9191C209.167 58.7757 209.248 58.6426 209.33 58.5121Z" fill="#ECE7E1" stroke="black" stroke-width="0.5" stroke-miterlimit="10" stroke-linecap="round"/>
<path d="M235.083 77.9008C235.321 77.5117 235.559 77.1021 235.792 76.6669C236.025 76.2317 236.255 75.776 236.478 75.2973C236.959 74.2674 237.371 73.207 237.712 72.1229C238.002 71.1979 238.241 70.2578 238.429 69.3069C238.877 69.3342 239.319 69.4203 239.745 69.5629C240.295 69.743 240.79 70.0622 241.181 70.4896C242.033 71.4547 242.01 72.9242 241.46 74.3168C240.91 75.7094 239.832 77.0278 238.575 77.696C237.941 78.0166 237.236 78.1708 236.527 78.144C236.037 78.1236 235.552 78.0419 235.083 77.9008Z" fill="#F2B3C1" stroke="black" stroke-width="0.5" stroke-miterlimit="10" stroke-linecap="round"/>
<path d="M319.824 115.543C319.985 114.924 320.08 114.263 320.193 113.628C320.273 113.047 320.4 112.474 320.572 111.913C320.887 111.004 321.253 109.896 321.816 109C322.379 108.104 323.137 107.425 324.232 107.377C324.232 107.377 324.696 107.359 325.108 108.009C325.52 108.659 325.876 109.98 325.669 112.663C325.529 114.436 325.193 116.189 324.668 117.888C324.141 119.59 323.435 121.231 322.561 122.783L320.285 126.848L318.007 130.908C317.771 131.329 317.589 131.778 317.464 132.245C317.34 132.711 317.283 133.193 317.295 133.676C317.278 134.344 317.493 134.997 317.904 135.524C318.344 136.036 319.079 136.338 320.264 136.23C319.745 136.948 319.306 137.721 318.956 138.534C318.444 139.784 318.188 141.233 319.284 142.024C319.743 142.388 320.32 142.57 320.904 142.536C321.887 142.474 323.208 141.783 324.573 139.262C324.573 139.262 325.239 140.542 326.38 141C327.522 141.458 329.132 141.071 331.027 137.736C331.273 138.085 331.617 138.354 332.015 138.509C332.414 138.664 332.849 138.698 333.267 138.606C334.713 138.276 336.815 136.41 339.434 130.271C339.799 129.417 340.174 128.564 340.56 127.711C340.946 126.857 341.337 126.012 341.733 125.174C343.013 122.46 344.871 117.668 345.148 112.494C345.424 107.32 344.108 101.765 339.004 97.5233C337.891 96.5914 336.639 95.839 335.294 95.2935C333.953 94.7502 332.527 94.446 331.08 94.395C328.769 94.3122 326.484 94.9152 324.514 96.1281C322.21 97.5361 319.906 99.9681 317.917 104.003C317.171 105.548 316.532 107.144 316.005 108.777C315.155 111.427 314.517 114.606 315.367 116.713C315.566 117.212 315.938 117.624 316.414 117.873C316.648 117.997 316.904 118.073 317.168 118.097C317.432 118.121 317.698 118.092 317.95 118.011L318.032 117.983L318.114 117.952C318.576 117.76 318.966 117.428 319.23 117.002C319.503 116.55 319.703 116.057 319.824 115.543Z" fill="#F2B3C1" stroke="black" stroke-width="0.5" stroke-miterlimit="10" stroke-linecap="round"/>
<path d="M328.841 119.887C328.12 121.613 327.318 123.394 326.434 125.23C325.546 127.063 324.568 128.945 323.493 130.862C322.96 131.813 322.424 132.735 321.885 133.63C321.345 134.523 320.805 135.393 320.265 136.233" stroke="black" stroke-width="0.5" stroke-miterlimit="10" stroke-linecap="round"/>
<path d="M333.223 122.135C333.223 122.135 331.731 125.44 329.895 129.231C328.06 133.023 325.912 137.308 324.568 139.261" stroke="black" stroke-width="0.5" stroke-miterlimit="10" stroke-linecap="round"/>
<path d="M337.34 124.239L334.183 130.987L331.027 137.736" stroke="black" stroke-width="0.5" stroke-miterlimit="10" stroke-linecap="round"/>
<path d="M275.449 51.5483C275.705 56.6119 274.169 61.2763 271.504 64.7425C268.839 68.2087 265.017 70.4487 260.691 70.6638C256.364 70.8788 252.343 69.0203 249.345 65.8408C246.347 62.6612 244.363 58.1608 244.112 53.1022C243.861 48.0436 245.392 43.3742 248.057 39.9054C250.722 36.4366 254.544 34.1992 258.871 33.9841C263.197 33.7691 267.216 35.6276 270.216 38.8072C273.217 41.9867 275.198 46.482 275.449 51.5483Z" fill="#F2B3C1" stroke="black" stroke-width="0.5" stroke-miterlimit="10" stroke-linecap="round"/>
<path d="M261.466 52.2778C261.477 52.4971 261.411 52.7132 261.28 52.8894C261.148 53.0655 260.96 53.1908 260.747 53.2439C260.534 53.297 260.309 53.2746 260.111 53.1807C259.913 53.0867 259.753 52.9268 259.659 52.7283C259.565 52.5298 259.543 52.305 259.596 52.092C259.649 51.879 259.775 51.691 259.951 51.56C260.127 51.4291 260.344 51.3632 260.563 51.3736C260.782 51.3841 260.991 51.4702 261.154 51.6173C261.247 51.7014 261.322 51.8031 261.376 51.9164C261.43 52.0297 261.46 52.1526 261.466 52.2778Z" fill="#040400"/>
<path d="M251.265 55.4521C251.27 55.5777 251.249 55.703 251.206 55.8207C251.162 55.9385 251.095 56.0464 251.009 56.1382C250.904 56.2544 250.772 56.343 250.624 56.3959C250.477 56.4489 250.319 56.4646 250.164 56.4418C250.008 56.4189 249.862 56.3582 249.736 56.2649C249.61 56.1716 249.509 56.0487 249.442 55.9071C249.375 55.7655 249.344 55.6095 249.351 55.453C249.359 55.2965 249.405 55.1443 249.486 55.0099C249.566 54.8755 249.679 54.7631 249.813 54.6826C249.948 54.6021 250.1 54.556 250.256 54.5484C250.381 54.5419 250.506 54.5601 250.624 54.602C250.742 54.6439 250.851 54.7088 250.943 54.7927C251.036 54.8767 251.111 54.9782 251.165 55.0913C251.218 55.2045 251.249 55.3271 251.255 55.4521H251.265Z" fill="#040400"/>
<path d="M256.011 57.9841L254.949 57.403L253.889 56.8219C253.875 56.8142 253.863 56.8031 253.855 56.7897C253.846 56.7763 253.841 56.7609 253.84 56.7451C253.841 56.7296 253.845 56.7145 253.852 56.7011C253.86 56.6877 253.871 56.6764 253.884 56.6683L254.88 56.1563L255.878 55.6443L255.192 52.882L254.516 50.1479" stroke="black" stroke-width="0.5" stroke-miterlimit="10" stroke-linecap="round"/>
<path d="M261.111 58.6958C261.051 59.2646 260.834 59.8054 260.483 60.2574C260.117 60.7341 259.638 61.1116 259.088 61.3556C258.488 61.6238 257.827 61.7272 257.173 61.6552C256.547 61.5903 255.953 61.3429 255.466 60.9435" stroke="black" stroke-width="0.5" stroke-miterlimit="10" stroke-linecap="round"/>
<path d="M257.611 48.7449L260.514 48.3993L263.417 48.0486" stroke="black" stroke-width="0.5" stroke-miterlimit="10" stroke-linecap="round"/>
<path d="M252.023 50.1938L249.363 51.502L246.701 52.8102" stroke="black" stroke-width="0.5" stroke-miterlimit="10" stroke-linecap="round"/>
<path d="M275.234 55.8335C275.308 55.3548 275.37 54.8428 275.413 54.2975C275.457 53.7522 275.482 53.1788 275.482 52.5746C275.482 50.6603 275.224 48.7547 274.714 46.9094C275.206 46.7837 275.712 46.7243 276.22 46.7327C276.911 46.7324 277.586 46.9373 278.16 47.3215C279.233 48.0742 279.745 49.5078 279.722 50.9772C279.699 52.4466 279.141 53.9545 278.073 54.8556C277.625 55.2276 277.1 55.4975 276.537 55.6466C276.112 55.7617 275.674 55.8245 275.234 55.8335Z" fill="#F2B3C1" stroke="black" stroke-width="0.5" stroke-miterlimit="10" stroke-linecap="round"/>
<path d="M267.867 55.1501C267.896 55.7305 267.723 56.303 267.377 56.7699C267.031 57.2369 266.534 57.5695 265.97 57.711C265.407 57.8525 264.811 57.7942 264.286 57.546C263.76 57.2979 263.337 56.8751 263.089 56.3499C262.84 55.8247 262.781 55.2295 262.922 54.6658C263.063 54.1021 263.395 53.6047 263.862 53.2585C264.329 52.9122 264.901 52.7385 265.481 52.7669C266.062 52.7954 266.614 53.0242 267.045 53.4144C267.29 53.6352 267.488 53.9023 267.629 54.2002C267.77 54.4981 267.851 54.8209 267.867 55.1501Z" fill="#FF6406" stroke="#070707" stroke-width="0.5" stroke-miterlimit="10" stroke-linecap="round"/>
<path d="M252.821 60.4519C252.85 61.0323 252.677 61.6047 252.331 62.0717C251.985 62.5387 251.488 62.8713 250.925 63.0128C250.361 63.1543 249.766 63.096 249.24 62.8478C248.715 62.5996 248.292 62.1769 248.043 61.6517C247.795 61.1265 247.736 60.5313 247.877 59.9676C248.018 59.4038 248.35 58.9065 248.817 58.5602C249.283 58.214 249.856 58.0402 250.436 58.0687C251.016 58.0971 251.569 58.326 252 58.7162C252.244 58.937 252.443 59.204 252.584 59.5019C252.725 59.7998 252.806 60.1227 252.821 60.4519Z" fill="#FF6406" stroke="#070707" stroke-width="0.5" stroke-miterlimit="10" stroke-linecap="round"/>
<path d="M245.815 60.6567C245.644 60.2351 245.479 59.7914 245.318 59.3255C245.159 58.8596 245.006 58.3706 244.865 57.8612C244.305 55.8289 243.991 53.7371 243.928 51.6301C243.482 51.5858 243.032 51.5996 242.589 51.6711C242.016 51.7583 241.475 51.9929 241.02 52.352C240.019 53.161 239.801 54.6151 240.116 56.0794C240.431 57.5437 241.278 59.0183 242.42 59.8708C242.995 60.288 243.666 60.5523 244.371 60.6388C244.85 60.7046 245.335 60.7106 245.815 60.6567Z" fill="#F2B3C1" stroke="black" stroke-width="0.5" stroke-miterlimit="10" stroke-linecap="round"/>
<path d="M243.928 51.6301C243.928 51.6301 246.45 51.4944 249.506 49.7869C252.563 48.0794 256.162 44.8 258.292 38.5101C259.296 40.5172 260.645 42.3318 262.278 43.8707C264.948 46.3565 268.975 48.4582 274.4 46.9171C274.513 46.8864 274.633 46.8582 274.761 46.8352C274.889 46.8122 275.017 46.7891 275.168 46.7712C275.366 46.7478 275.565 46.7349 275.764 46.7328C275.949 46.7328 276.12 46.7328 276.276 46.7482C276.378 44.8871 276.233 43.0209 275.844 41.1981C275.275 38.5562 274.052 35.4662 271.448 32.9523C268.12 29.7242 263.448 28.2803 258.81 28.5184C254.171 28.7565 249.55 30.6765 246.296 34.176C243.101 37.6141 242.049 41.7613 241.824 45.1661C241.675 47.3524 241.839 49.5489 242.31 51.689C242.409 51.6621 242.509 51.6408 242.61 51.625C242.725 51.6043 242.841 51.5898 242.958 51.5814C243.135 51.5688 243.313 51.5688 243.49 51.5814C243.637 51.5893 243.783 51.6056 243.928 51.6301Z" fill="#040400" stroke="#040400" stroke-width="0.5" stroke-miterlimit="10"/>
<path d="M274.73 20.0012C274.73 22.535 273.852 24.9903 272.244 26.9489C270.637 28.9075 268.4 30.2482 265.915 30.7425C263.43 31.2368 260.85 30.8542 258.616 29.6598C256.381 28.4654 254.63 26.5332 253.66 24.1923C252.691 21.8514 252.563 19.2468 253.298 16.8222C254.034 14.3975 255.587 12.3029 257.694 10.8953C259.801 9.48761 262.33 8.85397 264.852 9.10231C267.373 9.35066 269.731 10.4656 271.522 12.2572C272.541 13.273 273.349 14.4801 273.899 15.8091C274.45 17.1381 274.732 18.5628 274.73 20.0012Z" fill="#040400" stroke="#040400" stroke-width="0.5" stroke-miterlimit="10"/>
<path d="M218.376 67.072C218.324 67.3191 218.371 67.5769 218.508 67.7893C218.644 68.0017 218.859 68.1515 219.106 68.2061C219.291 68.2464 219.483 68.2311 219.659 68.162C219.835 68.0929 219.986 67.9732 220.094 67.818C220.202 67.6628 220.261 67.4791 220.265 67.2902C220.268 67.1012 220.215 66.9155 220.113 66.7566C220.011 66.5977 219.864 66.4727 219.69 66.3974C219.517 66.3221 219.325 66.3 219.139 66.3337C218.953 66.3675 218.782 66.4557 218.646 66.5871C218.51 66.7185 218.416 66.8873 218.376 67.072Z" fill="#040400"/>
<path d="M230.001 70.3694C229.948 70.6162 229.995 70.874 230.132 71.0862C230.269 71.2983 230.484 71.4475 230.731 71.5009C230.853 71.528 230.979 71.5306 231.102 71.5087C231.225 71.4867 231.343 71.4406 231.448 71.3731C231.553 71.3055 231.644 71.2177 231.715 71.1149C231.786 71.012 231.836 70.8961 231.862 70.7738C231.89 70.6512 231.894 70.5242 231.872 70.4003C231.85 70.2764 231.805 70.158 231.737 70.0519C231.669 69.9458 231.582 69.8542 231.478 69.7822C231.375 69.7103 231.259 69.6595 231.136 69.6328C231.013 69.6061 230.886 69.604 230.762 69.6266C230.639 69.6493 230.521 69.6962 230.415 69.7646C230.31 69.8331 230.219 69.9218 230.148 70.0256C230.077 70.1294 230.027 70.2462 230.001 70.3694Z" fill="#040400"/>
<path d="M224.546 72.2252L225.627 71.6799L226.71 71.1372C226.723 71.1299 226.735 71.1193 226.743 71.1063C226.752 71.0933 226.757 71.0784 226.758 71.0629C226.76 71.0468 226.757 71.0306 226.749 71.0161C226.742 71.0017 226.731 70.9895 226.717 70.981L225.752 70.4255L224.774 69.87L225.542 67.1589L226.31 64.4504" stroke="black" stroke-width="0.5" stroke-miterlimit="10" stroke-linecap="round"/>
<path d="M219.231 75.136C219.364 75.6921 219.65 76.2002 220.056 76.6029C220.484 77.0296 221.012 77.3421 221.592 77.5117C222.222 77.6995 222.891 77.7171 223.53 77.5629C224.142 77.4168 224.699 77.0957 225.132 76.6387" stroke="black" stroke-width="0.5" stroke-miterlimit="10" stroke-linecap="round"/>
<path d="M223.192 61.1969L220.269 61.0535L217.348 60.9102" stroke="black" stroke-width="0.5" stroke-miterlimit="10" stroke-linecap="round"/>
<path d="M230.826 64.1511L233.493 65.449L236.158 66.747" stroke="black" stroke-width="0.5" stroke-miterlimit="10" stroke-linecap="round"/>
<path d="M213.134 70.9914C213.01 71.5598 213.087 72.1535 213.352 72.6713C213.617 73.189 214.054 73.5989 214.587 73.8309C215.121 74.0629 215.718 74.1028 216.278 73.9437C216.837 73.7846 217.324 73.4365 217.656 72.9585C217.987 72.4806 218.143 71.9024 218.096 71.3226C218.049 70.7428 217.802 70.1973 217.398 69.7789C216.994 69.3606 216.457 69.0954 215.879 69.0284C215.302 68.9615 214.718 69.097 214.229 69.4119C213.669 69.7724 213.275 70.3405 213.134 70.9914Z" fill="#FF6406" stroke="#070707" stroke-width="0.5" stroke-miterlimit="10" stroke-linecap="round"/>
<path d="M228.025 75.3203C227.902 75.8874 227.98 76.4796 228.245 76.996C228.509 77.5124 228.945 77.9211 229.477 78.1523C230.01 78.3836 230.606 78.4232 231.164 78.2643C231.722 78.1055 232.208 77.7581 232.538 77.2813C232.869 76.8044 233.024 76.2277 232.978 75.6493C232.931 75.0708 232.685 74.5265 232.282 74.1089C231.879 73.6914 231.344 73.4265 230.767 73.3594C230.191 73.2922 229.609 73.427 229.121 73.7407C228.843 73.9189 228.604 74.1502 228.415 74.4213C228.227 74.6923 228.095 74.9978 228.025 75.3203Z" fill="#FF6406" stroke="#070707" stroke-width="0.5" stroke-miterlimit="10" stroke-linecap="round"/>
<path d="M234.126 68.2035L232.626 67.7811L231.128 67.3587C230.704 67.2396 230.26 67.2049 229.823 67.2563C229.384 67.308 228.96 67.4463 228.576 67.6634C228.303 67.815 228.053 68.0047 227.833 68.2266C227.619 68.4474 227.436 68.6963 227.288 68.9664L225.752 68.4928L224.216 68.0218C224.298 67.2343 224.1 66.4432 223.656 65.7876C223.212 65.132 222.551 64.654 221.789 64.4378L219.864 63.8925L217.944 63.3498C217.093 63.1297 216.19 63.2517 215.428 63.6896C214.666 64.1274 214.106 64.8464 213.867 65.6924C213.629 66.5384 213.731 67.4441 214.153 68.2154C214.574 68.9867 215.281 69.5623 216.121 69.8189L218.041 70.3616L219.959 70.9018C220.096 70.9402 220.235 70.9701 220.376 70.9914C220.809 71.056 221.251 71.0351 221.677 70.9299C221.969 70.8575 222.251 70.7464 222.514 70.5997C222.814 70.4318 223.086 70.2185 223.32 69.9674C223.553 69.719 223.746 69.4368 223.894 69.1302L225.399 69.5936L226.902 70.0544C226.839 70.4255 226.839 70.8046 226.902 71.1757C226.968 71.5484 227.096 71.9074 227.28 72.2381C227.497 72.6226 227.786 72.961 228.133 73.2339C228.478 73.508 228.875 73.71 229.3 73.8278L230.8 74.2502L232.301 74.6726C232.437 74.7123 232.575 74.7422 232.715 74.7622C232.852 74.783 232.989 74.7949 233.127 74.7981C233.946 74.8177 234.743 74.5381 235.369 74.0119C235.996 73.4856 236.409 72.7488 236.532 71.9397C236.654 71.1305 236.477 70.3045 236.033 69.6167C235.59 68.9288 234.911 68.4264 234.123 68.2035H234.126ZM221.948 69.5936C221.694 69.7306 221.416 69.8175 221.129 69.8496C220.84 69.8827 220.548 69.8592 220.269 69.7805L218.351 69.248L216.431 68.7078C215.868 68.549 215.39 68.1727 215.104 67.6619C214.818 67.1511 214.747 66.5475 214.905 65.984C215.064 65.4205 215.441 64.9431 215.951 64.657C216.462 64.3709 217.066 64.2994 217.629 64.4582L219.549 64.9984L221.467 65.5386C221.747 65.6163 222.008 65.7485 222.237 65.9276C222.466 66.1066 222.657 66.329 222.799 66.582C222.942 66.835 223.034 67.1136 223.068 67.402C223.103 67.6903 223.081 67.9827 223.003 68.2624C222.925 68.542 222.792 68.8031 222.611 69.0304C222.43 69.2605 222.204 69.452 221.948 69.5936ZM235.339 72.0384C235.182 72.6032 234.806 73.0823 234.295 73.3703C233.785 73.6583 233.18 73.7317 232.615 73.5744L231.128 73.1418L229.628 72.7194C229.349 72.6418 229.088 72.5096 228.86 72.3303C228.632 72.151 228.443 71.9282 228.302 71.6749C228.159 71.4225 228.067 71.1439 228.033 70.8557C228 70.5672 228.023 70.275 228.102 69.9955C228.18 69.7162 228.312 69.4551 228.491 69.2275C228.672 68.9998 228.896 68.8094 229.149 68.6669C229.66 68.3812 230.263 68.3094 230.826 68.4672L232.326 68.8896L233.826 69.312C234.106 69.3901 234.368 69.5225 234.597 69.7018C234.826 69.8811 235.017 70.1037 235.159 70.3569C235.302 70.6101 235.393 70.8889 235.428 71.1774C235.463 71.466 235.441 71.7585 235.362 72.0384H235.339Z" fill="#84A1E5" stroke="#070707" stroke-width="0.5" stroke-miterlimit="10" stroke-linecap="round"/>
<path d="M194.589 161.695C194.343 161.396 194.062 161.128 193.752 160.896C193.295 160.542 192.773 160.281 192.216 160.128C191.184 159.875 190.096 159.995 189.144 160.468C188.539 160.755 187.981 161.133 187.49 161.59L187.36 161.713L187.227 161.835L180.878 167.552L174.521 173.274L174.296 173.466L174.068 173.655C173.589 174.06 173.196 174.558 172.912 175.117C172.628 175.677 172.459 176.288 172.414 176.914C172.358 177.523 172.429 178.138 172.624 178.718C172.819 179.298 173.134 179.831 173.547 180.282C173.961 180.734 174.465 181.093 175.026 181.338C175.587 181.583 176.193 181.707 176.805 181.704C177.433 181.717 178.058 181.604 178.641 181.372C179.225 181.14 179.757 180.793 180.205 180.352L180.414 180.139L180.627 179.932L186.907 174.159L193.184 168.384C193.717 167.882 194.182 167.311 194.566 166.687C195.155 165.722 195.636 164.442 195.285 163.103C195.226 162.881 195.147 162.665 195.05 162.458C194.924 162.188 194.77 161.932 194.589 161.695Z" fill="#ECE7E1" stroke="black" stroke-width="0.5" stroke-miterlimit="10" stroke-linecap="round"/>
<path d="M221.428 110.817C221.39 110.474 221.359 110.121 221.339 109.752C221.318 109.384 221.308 109.002 221.31 108.608C221.315 107.483 221.418 106.361 221.618 105.254C221.783 104.331 222.013 103.42 222.306 102.528C221.916 102.401 221.511 102.325 221.101 102.303C220.571 102.27 220.042 102.375 219.565 102.607C218.51 103.14 217.826 104.353 217.619 105.679C217.412 107.005 217.68 108.449 218.528 109.435C218.96 109.924 219.51 110.295 220.125 110.513C220.545 110.668 220.983 110.77 221.428 110.817Z" fill="#D87D61" stroke="black" stroke-width="0.5" stroke-miterlimit="10" stroke-linecap="round"/>
<path d="M206.9 168.663L203.588 165.532L200.275 162.399C199.324 161.68 198.205 161.216 197.024 161.052C195.124 160.814 192.672 161.446 190.493 164.936L186.121 172.452L181.746 179.968C181.186 181.002 181.036 182.208 181.326 183.347C181.461 183.919 181.709 184.458 182.057 184.931C182.405 185.405 182.844 185.804 183.349 186.104C183.854 186.404 184.415 186.599 184.997 186.678C185.579 186.757 186.171 186.718 186.738 186.563C187.346 186.41 187.918 186.136 188.418 185.758C188.919 185.38 189.338 184.905 189.651 184.361L192.49 180.009L195.329 175.657L201.115 172.15L206.9 168.663Z" fill="#ECE7E1" stroke="black" stroke-width="0.5" stroke-miterlimit="10" stroke-linecap="round"/>
<path d="M171.915 139.105C171.915 139.709 171.706 140.293 171.323 140.76C170.941 141.226 170.408 141.546 169.817 141.664C169.225 141.782 168.611 141.691 168.079 141.407C167.546 141.123 167.129 140.664 166.897 140.106C166.666 139.549 166.635 138.929 166.809 138.352C166.983 137.774 167.353 137.275 167.854 136.939C168.355 136.603 168.957 136.451 169.557 136.509C170.158 136.567 170.72 136.831 171.147 137.257C171.391 137.499 171.585 137.787 171.717 138.104C171.848 138.421 171.916 138.762 171.915 139.105Z" fill="#040400" stroke="#040400" stroke-width="0.5" stroke-miterlimit="10"/>
<path d="M194.973 176.223L196.322 174.039L197.674 171.855" stroke="black" stroke-width="0.5" stroke-miterlimit="10" stroke-linecap="round"/>
<path d="M307.974 136.901C307.974 136.645 307.316 136.412 306.226 136.23C304.784 136.017 303.331 135.898 301.874 135.875C301.853 134.423 301.702 132.977 301.421 131.553C301.183 130.465 300.87 129.807 300.527 129.807C300.184 129.807 299.869 130.465 299.631 131.553C299.352 132.977 299.2 134.424 299.178 135.875C297.721 135.898 296.268 136.017 294.826 136.23C293.736 136.412 293.078 136.645 293.078 136.901C293.078 137.157 293.736 137.39 294.826 137.572C296.268 137.785 297.721 137.904 299.178 137.928C299.2 139.379 299.352 140.825 299.631 142.249C299.869 143.337 300.184 143.995 300.527 143.995C300.87 143.995 301.183 143.337 301.421 142.249C301.702 140.825 301.853 139.379 301.874 137.928C303.331 137.904 304.784 137.785 306.226 137.572C307.316 137.39 307.974 137.157 307.974 136.901Z" fill="url(#paint1_linear_484_6958)" stroke="black" stroke-width="0.5" stroke-miterlimit="10" stroke-linecap="round"/>
<path d="M168.152 65.3005C168.152 64.9882 167.348 64.7015 166.017 64.4813C164.259 64.2201 162.485 64.0756 160.708 64.0487C160.68 62.2779 160.495 60.513 160.155 58.7751C159.863 57.4464 159.481 56.6426 159.064 56.6426C158.647 56.6426 158.263 57.4464 157.971 58.7751C157.631 60.513 157.445 62.2779 157.418 64.0487C155.641 64.0756 153.867 64.2201 152.109 64.4813C150.777 64.7015 149.974 64.9933 149.974 65.3005C149.974 65.6077 150.777 65.897 152.109 66.1197C153.861 66.3778 155.629 66.5214 157.4 66.5498C157.427 68.3206 157.612 70.0854 157.953 71.8234C158.245 73.152 158.626 73.9559 159.046 73.9559C159.466 73.9559 159.845 73.152 160.137 71.8234C160.478 70.0854 160.663 68.3206 160.69 66.5498C162.467 66.5222 164.241 66.3785 165.999 66.1197C167.336 65.897 168.152 65.6103 168.152 65.3005Z" fill="url(#paint2_linear_484_6958)" stroke="black" stroke-width="0.5" stroke-miterlimit="10" stroke-linecap="round"/>
<path d="M313.985 45.5527C311.525 46.0647 310.012 46.5972 308.985 47.6212C307.959 48.6452 307.426 50.1607 306.917 52.6208C306.907 52.6757 306.878 52.7253 306.835 52.7611C306.792 52.7968 306.738 52.8163 306.682 52.8163C306.627 52.8163 306.573 52.7968 306.53 52.7611C306.487 52.7253 306.458 52.6757 306.448 52.6208C305.936 50.1607 305.404 48.6452 304.38 47.6212C303.356 46.5972 301.843 46.0596 299.38 45.5527C299.325 45.5427 299.276 45.5138 299.24 45.471C299.204 45.4282 299.185 45.3742 299.185 45.3184C299.185 45.2627 299.204 45.2087 299.24 45.1659C299.276 45.1231 299.325 45.0942 299.38 45.0842C301.843 44.5722 303.356 44.0397 304.38 43.0157C305.404 41.9917 305.941 40.4762 306.448 38.016C306.458 37.9612 306.487 37.9116 306.53 37.8758C306.573 37.8401 306.627 37.8206 306.682 37.8206C306.738 37.8206 306.792 37.8401 306.835 37.8758C306.878 37.9116 306.907 37.9612 306.917 38.016C307.429 40.4762 307.961 41.9892 308.985 43.0157C310.009 44.0423 311.525 44.5773 313.985 45.0842C314.04 45.0942 314.089 45.1231 314.125 45.1659C314.161 45.2087 314.18 45.2627 314.18 45.3184C314.18 45.3742 314.161 45.4282 314.125 45.471C314.089 45.5138 314.04 45.5427 313.985 45.5527Z" fill="url(#paint3_linear_484_6958)" stroke="black" stroke-width="0.5" stroke-miterlimit="10" stroke-linecap="round"/>
<path d="M153.143 79.5956C151.724 79.9002 150.839 80.2304 150.229 80.8397C149.62 81.449 149.29 82.3348 148.985 83.753C148.977 83.7951 148.954 83.833 148.92 83.8602C148.887 83.8873 148.845 83.9022 148.802 83.9022C148.759 83.9022 148.717 83.8873 148.684 83.8602C148.651 83.833 148.628 83.7951 148.619 83.753C148.314 82.3348 147.984 81.449 147.375 80.8397C146.766 80.2304 145.88 79.9002 144.462 79.5956C144.42 79.5869 144.382 79.5639 144.355 79.5306C144.327 79.4972 144.312 79.4555 144.312 79.4125C144.312 79.3695 144.327 79.3278 144.355 79.2945C144.382 79.2611 144.42 79.2382 144.462 79.2295C145.88 78.9248 146.766 78.5946 147.375 77.9853C147.984 77.376 148.314 76.4903 148.619 75.072C148.628 75.0299 148.651 74.992 148.684 74.9649C148.717 74.9377 148.759 74.9229 148.802 74.9229C148.845 74.9229 148.887 74.9377 148.92 74.9649C148.954 74.992 148.977 75.0299 148.985 75.072C149.29 76.4903 149.62 77.376 150.229 77.9853C150.839 78.5946 151.724 78.9248 153.143 79.2295C153.185 79.2382 153.223 79.2611 153.25 79.2945C153.277 79.3278 153.292 79.3695 153.292 79.4125C153.292 79.4555 153.277 79.4972 153.25 79.5306C153.223 79.5639 153.185 79.5869 153.143 79.5956Z" fill="url(#paint4_linear_484_6958)" stroke="black" stroke-width="0.5" stroke-miterlimit="10" stroke-linecap="round"/>
<path d="M307.974 151.816C307.322 151.817 306.69 151.591 306.186 151.178C305.681 150.765 305.336 150.19 305.208 149.551C305.081 148.912 305.179 148.248 305.486 147.673C305.793 147.098 306.29 146.647 306.892 146.398C307.494 146.148 308.165 146.116 308.788 146.305C309.412 146.495 309.951 146.895 310.312 147.437C310.674 147.979 310.837 148.63 310.772 149.279C310.707 149.927 310.42 150.534 309.958 150.994C309.431 151.519 308.718 151.814 307.974 151.816ZM307.974 147.738C307.678 147.737 307.39 147.839 307.161 148.027C306.931 148.215 306.774 148.476 306.716 148.767C306.658 149.058 306.703 149.36 306.842 149.621C306.982 149.883 307.208 150.087 307.482 150.201C307.756 150.314 308.061 150.328 308.345 150.242C308.628 150.155 308.873 149.973 309.037 149.726C309.201 149.479 309.275 149.183 309.245 148.888C309.215 148.593 309.083 148.317 308.873 148.109C308.755 147.991 308.615 147.897 308.46 147.833C308.306 147.77 308.141 147.737 307.974 147.738Z" fill="url(#paint5_linear_484_6958)" stroke="black" stroke-width="0.5" stroke-miterlimit="10" stroke-linecap="round"/>
<path d="M194.172 144.043C194.369 144.125 194.576 144.207 194.799 144.284C195.022 144.361 195.252 144.438 195.495 144.509C195.844 144.609 196.179 144.691 196.496 144.765C196.814 144.84 197.118 144.881 197.4 144.916" fill="#ECE7E1"/>
<path d="M194.172 144.043C194.369 144.125 194.576 144.207 194.799 144.284C195.022 144.361 195.252 144.438 195.495 144.509C195.844 144.609 196.179 144.691 196.496 144.765C196.814 144.84 197.118 144.881 197.4 144.916" stroke="black" stroke-width="0.5" stroke-miterlimit="10" stroke-linecap="round"/>
<path d="M279 130.45C280.671 125.542 282.046 121.513 283.001 118.712L284.494 114.332L286.286 116.6C287.822 118.543 290.638 122.107 295.758 128.589L297.521 113.459L299.283 98.3296C299.131 100.011 298.746 101.664 298.138 103.24C297.049 106.171 295.156 108.736 292.678 110.643C291.487 111.558 290.183 112.313 288.797 112.891C286.434 113.891 283.851 114.256 281.304 113.951C277.374 113.464 274.466 111.468 272.5 109.509C271.242 108.267 270.173 106.846 269.328 105.293C270.731 108.974 272.137 112.654 273.547 116.332C274.957 120.009 276.374 123.686 277.799 127.36C277.953 127.754 278.175 128.328 278.396 128.896C278.616 129.464 278.839 130.053 279 130.45Z" fill="#DBCAF4" stroke="black" stroke-width="0.5" stroke-miterlimit="10" stroke-linecap="round"/>
<path d="M311.103 165.225L307.718 180.536L304.334 195.848" fill="#DBCAF4"/>
<path d="M311.103 165.225L307.718 180.536L304.334 195.848" stroke="black" stroke-width="0.5" stroke-miterlimit="10" stroke-linecap="round"/>
<path d="M224.498 55.2755C224.564 55.2115 224.631 55.1424 224.7 55.0682C224.769 54.9939 224.833 54.9197 224.902 54.8378C225.061 54.6447 225.208 54.4421 225.342 54.2311C225.457 54.0501 225.561 53.8629 225.655 53.6704" stroke="#070707" stroke-width="0.5" stroke-miterlimit="10" stroke-linecap="round"/>
<path d="M159.776 131.164C159.556 130.563 159.389 129.91 159.225 129.29C159.088 128.719 158.906 128.159 158.68 127.616C158.283 126.74 157.812 125.67 157.167 124.833C156.522 123.996 155.703 123.389 154.607 123.446C154.607 123.446 154.144 123.469 153.796 124.157C153.447 124.846 153.217 126.205 153.675 128.842C153.983 130.599 154.483 132.316 155.168 133.962C155.854 135.606 156.712 137.173 157.728 138.637L160.377 142.477L163.027 146.317C163.304 146.713 163.529 147.143 163.695 147.597C163.863 148.049 163.965 148.523 163.997 149.005C164.077 149.669 163.925 150.34 163.567 150.904C163.173 151.444 162.474 151.823 161.284 151.831C161.869 152.496 162.379 153.224 162.804 154.002C163.437 155.197 163.828 156.616 162.804 157.507C162.382 157.911 161.825 158.147 161.24 158.167C160.257 158.198 158.877 157.635 157.28 155.254C157.28 155.254 156.737 156.595 155.644 157.153C154.551 157.711 152.91 157.484 150.711 154.337C150.498 154.708 150.181 155.008 149.799 155.2C149.417 155.392 148.987 155.467 148.563 155.415C147.091 155.223 144.823 153.564 141.636 147.699C141.194 146.88 140.74 146.067 140.274 145.26C139.81 144.453 139.339 143.647 138.868 142.845C137.348 140.262 135.028 135.677 134.273 130.557C133.518 125.437 134.296 119.777 138.971 115.072C139.991 114.043 141.165 113.179 142.452 112.512C143.735 111.844 145.126 111.406 146.561 111.219C148.856 110.915 151.19 111.297 153.268 112.317C155.698 113.5 158.229 115.704 160.58 119.534C161.469 121.002 162.256 122.53 162.935 124.106C164.03 126.666 164.965 129.769 164.317 131.953C164.166 132.468 163.836 132.912 163.385 133.205C163.165 133.35 162.918 133.449 162.659 133.498C162.399 133.547 162.133 133.544 161.875 133.489L161.79 133.468L161.706 133.443C161.229 133.295 160.81 133.001 160.508 132.603C160.187 132.166 159.94 131.68 159.776 131.164Z" fill="#F2B3C1" stroke="black" stroke-width="0.5" stroke-miterlimit="10" stroke-linecap="round"/>
<path d="M151.208 136.338C152.088 137.987 153.053 139.689 154.108 141.43C155.163 143.171 156.317 144.95 157.567 146.757C158.189 147.651 158.811 148.518 159.43 149.358C160.05 150.198 160.672 151.012 161.289 151.8" stroke="black" stroke-width="0.5" stroke-miterlimit="10" stroke-linecap="round"/>
<path d="M147.058 138.988C147.058 138.988 148.85 142.136 151.033 145.741C153.217 149.345 155.767 153.403 157.285 155.213" stroke="black" stroke-width="0.5" stroke-miterlimit="10" stroke-linecap="round"/>
<path d="M143.159 141.471L146.937 147.891L150.716 154.312" stroke="black" stroke-width="0.5" stroke-miterlimit="10" stroke-linecap="round"/>
<path d="M178.21 78.3667C179.188 80.2355 180.148 82.2246 181.065 84.3341C181.981 86.4435 182.857 88.6861 183.663 91.0259C186.336 98.8356 187.947 106.969 188.453 115.208C188.847 121.608 188.627 128.031 187.795 134.39" stroke="black" stroke-width="0.5" stroke-miterlimit="10" stroke-linecap="round"/>
<path d="M201.619 71.3906C201.44 71.7633 201.303 72.1549 201.212 72.558C201.072 73.1673 201.042 73.7968 201.125 74.4165C201.268 75.4428 201.709 76.4047 202.392 77.1839C202.756 77.611 203.179 77.9842 203.649 78.2924C203.512 78.7553 203.443 79.2356 203.444 79.7183C203.432 80.5883 203.673 81.443 204.137 82.179C204.6 82.915 205.268 83.5009 206.058 83.8655C206.813 84.2184 207.646 84.3692 208.477 84.3033C208.478 84.8095 208.56 85.3123 208.718 85.7932C209.017 86.7836 209.66 87.635 210.53 88.1945C211.194 88.6146 211.957 88.8513 212.742 88.8806C213.528 88.9098 214.306 88.7305 215 88.3609C215.126 88.8226 215.29 89.2731 215.491 89.7074C215.761 90.288 216.096 90.836 216.49 91.3407C216.718 91.6332 216.966 91.9095 217.232 92.1676C217.455 92.3855 217.69 92.5907 217.936 92.782" fill="#F6C34C"/>
<path d="M201.619 71.3906C201.44 71.7633 201.303 72.1549 201.212 72.558C201.072 73.1673 201.042 73.7968 201.125 74.4165C201.268 75.4428 201.709 76.4047 202.392 77.1839C202.756 77.611 203.179 77.9842 203.649 78.2924C203.512 78.7553 203.443 79.2356 203.444 79.7183C203.432 80.5883 203.673 81.443 204.137 82.179C204.6 82.915 205.268 83.5009 206.058 83.8655C206.813 84.2184 207.646 84.3692 208.477 84.3033C208.478 84.8095 208.56 85.3123 208.718 85.7932C209.017 86.7836 209.66 87.635 210.53 88.1945C211.194 88.6146 211.957 88.8513 212.742 88.8806C213.528 88.9098 214.306 88.7305 215 88.3609C215.126 88.8226 215.29 89.2731 215.491 89.7074C215.761 90.288 216.096 90.836 216.49 91.3407C216.718 91.6332 216.966 91.9095 217.232 92.1676C217.455 92.3855 217.69 92.5907 217.936 92.782" stroke="#070707" stroke-width="0.5" stroke-miterlimit="10" stroke-linecap="round"/>
<path d="M174.629 160.914L179.859 154.539L185.087 148.165" fill="#F6C34C"/>
<path d="M174.629 160.914L179.859 154.539L185.087 148.165" stroke="#070707" stroke-width="0.5" stroke-miterlimit="10" stroke-linecap="round"/>
<path d="M218.873 78.8813C219.054 79.2401 219.317 79.5507 219.641 79.7876C220.176 80.1793 221.018 80.4506 222.245 79.9642" stroke="black" stroke-width="0.5" stroke-miterlimit="10" stroke-linecap="round"/>
<path d="M279.1 110.989C279.404 110.418 279.829 109.921 280.346 109.532C280.878 109.131 281.499 108.864 282.156 108.754C282.813 108.644 283.487 108.695 284.12 108.902C284.77 109.11 285.369 109.454 285.876 109.911" stroke="black" stroke-width="0.5" stroke-miterlimit="10" stroke-linecap="round"/>
<path d="M186.264 181.407C185.967 181.739 185.709 182.105 185.496 182.497C185.165 183.099 184.946 183.755 184.851 184.435C184.797 184.829 184.786 185.227 184.818 185.623C184.842 185.926 184.89 186.226 184.961 186.522" stroke="black" stroke-width="0.5" stroke-miterlimit="10" stroke-linecap="round"/>
<path d="M183.353 180.365C183.028 180.741 182.76 181.163 182.557 181.617C182.072 182.654 181.905 183.812 182.078 184.945" stroke="black" stroke-width="0.5" stroke-miterlimit="10" stroke-linecap="round"/>
<path d="M174.417 181.015C174.458 180.768 174.517 180.524 174.596 180.285C174.688 179.995 174.807 179.713 174.949 179.443C175.282 178.808 175.739 178.247 176.293 177.792C176.655 177.491 177.052 177.234 177.473 177.024" stroke="black" stroke-width="0.5" stroke-miterlimit="10" stroke-linecap="round"/>
<path d="M172.688 178.877C172.766 178.553 172.872 178.236 173.003 177.93C173.185 177.505 173.415 177.102 173.689 176.73C173.999 176.31 174.363 175.933 174.772 175.608C175.057 175.382 175.361 175.181 175.681 175.009" stroke="black" stroke-width="0.5" stroke-miterlimit="10" stroke-linecap="round"/>
</g>
<defs>
<linearGradient id="paint0_linear_484_6958" x1="0" y1="0" x2="145.034" y2="338.524" gradientUnits="userSpaceOnUse">
<stop stop-color="#FFD0A5"/>
<stop offset="1" stop-color="#D0F4CA"/>
</linearGradient>
<linearGradient id="paint1_linear_484_6958" x1="300.527" y1="129.807" x2="300.527" y2="143.995" gradientUnits="userSpaceOnUse">
<stop offset="0.26" stop-color="#FEC2D9"/>
<stop offset="0.75" stop-color="#A4C2FF"/>
</linearGradient>
<linearGradient id="paint2_linear_484_6958" x1="159.051" y1="56.6426" x2="159.051" y2="73.9559" gradientUnits="userSpaceOnUse">
<stop offset="0.31" stop-color="#FEC2D9"/>
<stop offset="0.75" stop-color="#A4C2FF"/>
</linearGradient>
<linearGradient id="paint3_linear_484_6958" x1="306.684" y1="37.824" x2="306.684" y2="52.8128" gradientUnits="userSpaceOnUse">
<stop offset="0.31" stop-color="#FEC2D9"/>
<stop offset="0.88" stop-color="#A4C2FF"/>
</linearGradient>
<linearGradient id="paint4_linear_484_6958" x1="148.801" y1="74.9236" x2="148.801" y2="83.9015" gradientUnits="userSpaceOnUse">
<stop offset="0.31" stop-color="#FEC2D9"/>
<stop offset="0.75" stop-color="#A4C2FF"/>
</linearGradient>
<linearGradient id="paint5_linear_484_6958" x1="307.974" y1="146.202" x2="307.974" y2="151.816" gradientUnits="userSpaceOnUse">
<stop offset="0.22" stop-color="#FEC2D9"/>
<stop offset="0.75" stop-color="#A4C2FF"/>
</linearGradient>
<clipPath id="clip0_484_6958">
<rect width="375" height="240" fill="white"/>
</clipPath>
</defs>
</svg>
