<svg width="1480" height="945" viewBox="0 0 1480 945" fill="none" xmlns="http://www.w3.org/2000/svg">
<rect width="1440" height="890" transform="translate(20)" fill="#F3F5FB"/>
<rect width="1480" height="945" fill="#F3F5FB"/>
<circle cx="114.5" cy="598.5" r="29.5" stroke="#DBCAF4" stroke-width="10"/>
<circle cx="22" cy="240" r="18.5" stroke="#F2B3C1" stroke-width="7"/>
<path fill-rule="evenodd" clip-rule="evenodd" d="M693.711 97.5017C688.792 94.6614 682.501 96.347 679.661 101.267L667.804 121.804L639.844 105.661C639.024 105.188 637.975 105.468 637.502 106.288C634.661 111.208 636.347 117.499 641.267 120.339L661.804 132.196L645.661 160.156C645.188 160.976 645.468 162.025 646.288 162.498C651.208 165.338 657.499 163.653 660.339 158.733L672.196 138.196L700.156 154.339C700.976 154.812 702.025 154.531 702.498 153.711C705.338 148.792 703.653 142.501 698.733 139.661L678.196 127.804L694.339 99.8435C694.812 99.0235 694.531 97.9751 693.711 97.5017Z" fill="#BDECE6"/>
</svg>
