<svg width="640" height="640" viewBox="0 0 640 640" fill="none" xmlns="http://www.w3.org/2000/svg">
<circle cx="320" cy="332" r="220" fill="url(#paint0_linear_484_2125)"/>
<path d="M240.304 253.28C240.304 258.698 238.425 263.949 234.988 268.137C231.551 272.325 226.768 275.192 221.454 276.249C216.14 277.306 210.623 276.488 205.845 273.934C201.067 271.379 197.322 267.248 195.248 262.242C193.175 257.236 192.901 251.666 194.474 246.481C196.047 241.297 199.369 236.817 203.874 233.807C208.379 230.797 213.789 229.442 219.181 229.973C224.573 230.505 229.614 232.889 233.445 236.72C235.624 238.892 237.351 241.473 238.528 244.315C239.705 247.157 240.309 250.204 240.304 253.28Z" fill="#ECE7E1" stroke="black" stroke-miterlimit="10" stroke-linecap="round"/>
<path d="M230.642 234.344C227.125 233.237 223.395 232.982 219.76 233.6C216.117 234.165 212.704 235.736 209.905 238.136C207.26 240.539 205.475 243.742 204.822 247.256C204.113 250.766 204.396 254.405 205.638 257.763C206.285 259.501 207.263 261.097 208.518 262.462C209.769 263.831 211.325 264.887 213.059 265.544C215.764 266.459 218.699 266.431 221.387 265.467C224.074 264.502 226.356 262.657 227.862 260.23C228.514 259.013 228.912 257.676 229.03 256.3C229.148 254.925 228.984 253.539 228.549 252.229C227.689 249.618 225.76 247.472 222.789 246.997C221.635 246.777 220.441 246.914 219.366 247.388C218.291 247.862 217.386 248.651 216.769 249.651C216.152 250.652 215.797 251.793 215.737 252.967C215.678 254.142 215.915 255.313 216.429 256.371" stroke="#070707" stroke-miterlimit="10" stroke-linecap="round"/>
<path d="M190.797 263.384C192.568 262.578 194.805 261.632 197.459 260.682C200.458 259.611 203.514 258.709 206.613 257.979C211.353 256.891 216.18 256.226 221.037 255.992C230.518 255.486 240.022 256.351 249.256 258.56C252.42 259.315 255.544 260.228 258.616 261.296C262.637 262.694 266.564 264.345 270.376 266.24C267.422 270.567 264.754 275.082 262.389 279.757C255.401 293.565 251.177 308.605 249.957 324.032C249.447 330.519 249.462 337.036 250 343.52C250 343.52 243.506 345.325 235.082 350.72C223.958 357.827 214.844 367.669 208.61 379.304C208.61 379.304 212.339 364.002 211.97 341.864C211.6 319.726 207.15 290.72 190.797 263.384Z" fill="#F6C34C" stroke="#070707" stroke-miterlimit="10" stroke-linecap="round"/>
<path d="M464.191 334.808C463.917 322.818 462.053 310.917 458.647 299.418C453.621 282.44 444.002 262.688 425.575 247.395C419.466 242.325 412.746 238.039 405.573 234.637C399.945 231.969 394.082 229.83 388.058 228.248C364.903 222.378 341.527 223.539 320.738 230.696C299.949 237.853 281.762 251.014 268.989 269.144C255.827 287.816 251.143 307.885 249.943 324.282C249.117 335.356 249.744 346.49 251.805 357.402L358 346.107L464.191 334.808Z" fill="#ECE7E1" stroke="black" stroke-miterlimit="10" stroke-linecap="round"/>
<path d="M365.512 345.31L414.851 340.059L464.19 334.808C463.917 322.818 462.052 310.917 458.646 299.418C453.621 282.44 444.002 262.688 425.574 247.395C419.465 242.325 412.746 238.039 405.573 234.637C399.945 231.969 394.082 229.83 388.058 228.248C384.195 227.269 380.33 226.483 376.461 225.891C372.592 225.299 368.739 224.898 364.902 224.686C357.041 238.796 352.061 254.327 350.253 270.378C347.92 291.253 350.541 317.005 365.512 345.31Z" fill="#F6991A" stroke="#070707" stroke-miterlimit="10" stroke-linecap="round"/>
<path d="M384.102 227.317C385.68 233.669 386.279 240.224 385.878 246.757C385.25 257.797 381.558 271.544 369.424 282.229C371.529 286.535 372.598 291.274 372.544 296.067C372.496 304.184 369.227 314.677 356.354 324.214" stroke="#070707" stroke-miterlimit="10" stroke-linecap="round"/>
<path d="M307.797 236.101C300.121 239.894 292.934 244.606 286.394 250.131C279.809 255.705 273.96 262.094 268.989 269.144C255.827 287.816 251.143 307.885 249.943 324.282C249.117 335.356 249.744 346.49 251.805 357.402L283.864 353.994L315.919 350.581C324.079 327.579 323.392 302.403 319.994 281.25C317.478 265.824 313.391 250.695 307.797 236.101Z" fill="#F6991A" stroke="#070707" stroke-miterlimit="10" stroke-linecap="round"/>
<path d="M290.08 247.15C289.277 252.704 289.195 258.338 289.835 263.912C290.824 272.192 293.838 281.624 301.701 287.6C302.785 288.421 303.931 289.158 305.128 289.803C306.547 290.57 308.029 291.212 309.558 291.723C307.952 294.725 306.791 297.944 306.112 301.28C305.013 306.627 304.917 313.51 308.68 320.082C310.335 322.949 312.537 325.463 315.16 327.483C316.91 328.837 318.81 329.984 320.824 330.901" stroke="#070707" stroke-miterlimit="10" stroke-linecap="round"/>
<path d="M247.192 430.525L259.192 450.349L271.192 470.173C264.712 474.992 258.238 479.827 251.771 484.678C245.304 489.53 238.806 494.33 232.278 499.078C226.821 503.053 221.305 506.931 215.368 509.638C209.43 512.346 203.075 513.838 195.933 513.066C192.709 512.686 189.54 511.932 186.491 510.819C183.649 509.829 180.934 508.507 178.403 506.878C178.096 506.672 177.779 506.451 177.544 506.283L177.141 506C170.379 501.607 165.407 494.945 163.12 487.213C160.989 480.181 160.979 472.765 161.843 466.136C162.494 461.17 163.692 456.291 165.414 451.587C167.133 446.88 169.337 442.365 171.99 438.114L191.411 406.914L210.827 375.714C212.363 373.243 214.008 370.843 215.761 368.514C217.517 366.197 219.388 363.97 221.368 361.842C228.467 354.174 237.427 348.47 247.379 345.282C256.897 342.138 267.213 340.962 278.133 340.453C293.853 339.742 311.91 341.442 327.774 347.389C343.638 353.336 357.294 363.536 364.24 379.818C365.123 381.898 366.029 383.966 366.957 386.024C367.885 388.082 368.824 390.134 369.774 392.182L390.64 437.173L411.505 482.163C413.121 485.637 414.079 489.38 414.333 493.203C414.742 499.322 413.207 505.414 409.945 510.608C408.806 512.396 407.484 514.061 406 515.576C400.759 520.995 393.723 524.317 386.209 524.922C378.677 525.552 371.164 523.513 364.984 519.162C352.902 510.646 338.459 497.082 327.04 485.629C315.621 474.176 307.216 464.874 307.216 464.874L321.774 447.114L336.333 429.354C336.356 429.327 336.37 429.294 336.375 429.259C336.379 429.224 336.373 429.188 336.357 429.157C336.342 429.126 336.319 429.1 336.29 429.082C336.261 429.065 336.227 429.055 336.193 429.056L291.683 429.8L247.192 430.525Z" fill="#84A1E5" stroke="#070707" stroke-miterlimit="10" stroke-linecap="round"/>
<path d="M386.896 456.392C386.896 460.02 385.638 463.536 383.337 466.341C381.036 469.145 377.833 471.065 374.275 471.773C370.716 472.481 367.023 471.934 363.823 470.224C360.623 468.514 358.115 465.747 356.727 462.395C355.338 459.043 355.155 455.314 356.208 451.842C357.261 448.37 359.485 445.371 362.501 443.355C365.518 441.339 369.14 440.432 372.751 440.787C376.361 441.142 379.737 442.739 382.302 445.304C383.761 446.759 384.917 448.487 385.706 450.39C386.494 452.293 386.898 454.332 386.896 456.392Z" fill="#DBCAF4" stroke="black" stroke-miterlimit="10" stroke-linecap="round"/>
<path d="M327.189 401.394C327.188 405.021 325.929 408.537 323.627 411.341C321.325 414.145 318.122 416.064 314.564 416.771C311.006 417.478 307.313 416.93 304.113 415.219C300.914 413.508 298.407 410.742 297.019 407.39C295.631 404.038 295.448 400.309 296.501 396.837C297.554 393.365 299.779 390.367 302.795 388.351C305.812 386.336 309.434 385.428 313.044 385.784C316.654 386.139 320.03 387.736 322.595 390.301C324.054 391.756 325.21 393.485 325.999 395.389C326.787 397.293 327.191 399.333 327.189 401.394Z" fill="#DBCAF4" stroke="black" stroke-miterlimit="10" stroke-linecap="round"/>
<path d="M206.003 472.074C206.004 475.702 204.746 479.217 202.444 482.022C200.143 484.827 196.94 486.747 193.382 487.455C189.824 488.163 186.13 487.615 182.93 485.905C179.731 484.195 177.223 481.428 175.834 478.077C174.446 474.725 174.262 470.995 175.315 467.523C176.368 464.052 178.592 461.052 181.609 459.036C184.625 457.021 188.247 456.113 191.858 456.469C195.469 456.824 198.844 458.42 201.41 460.986C202.867 462.44 204.024 464.169 204.812 466.072C205.6 467.974 206.005 470.014 206.003 472.074Z" fill="#DBCAF4" stroke="black" stroke-miterlimit="10" stroke-linecap="round"/>
<path d="M374.32 509.917C374.323 506.413 373.152 503.01 370.994 500.249C368.836 497.489 365.816 495.531 362.416 494.688C359.015 493.845 355.43 494.165 352.233 495.598C349.035 497.03 346.41 499.493 344.776 502.592C348.208 505.698 351.673 508.722 355.072 511.525C358.47 514.328 361.792 516.91 364.979 519.147C365.641 519.614 366.317 520.051 367.005 520.458C367.693 520.864 368.39 521.246 369.097 521.605C370.744 520.136 372.061 518.335 372.961 516.32C373.861 514.306 374.324 512.123 374.32 509.917Z" fill="#DBCAF4" stroke="black" stroke-miterlimit="10" stroke-linecap="round"/>
<path d="M240.304 371.014C243.419 371.015 246.464 370.088 249.05 368.35C251.635 366.612 253.644 364.144 254.82 361.259C255.996 358.374 256.286 355.204 255.652 352.154C255.019 349.104 253.49 346.312 251.262 344.134C246.48 345.409 241.852 347.205 237.462 349.491C232.915 351.892 228.696 354.868 224.91 358.347C225.607 361.918 227.524 365.136 230.332 367.449C233.14 369.763 236.665 371.028 240.304 371.029V371.014Z" fill="#DBCAF4" stroke="black" stroke-miterlimit="10" stroke-linecap="round"/>
<path d="M339.683 371.014C342.407 371.018 345.084 370.312 347.451 368.965C349.818 367.618 351.793 365.677 353.181 363.334C349.506 359.61 345.372 356.37 340.878 353.691C336.306 350.966 331.474 348.702 326.454 346.933C325.673 348.164 325.064 349.496 324.645 350.893C323.947 353.234 323.806 355.706 324.233 358.111C324.66 360.517 325.643 362.789 327.104 364.748C328.564 366.706 330.462 368.296 332.646 369.39C334.831 370.485 337.24 371.054 339.683 371.053V371.014Z" fill="#DBCAF4" stroke="black" stroke-miterlimit="10" stroke-linecap="round"/>
<path d="M242.8 470.173C239.52 470.171 236.323 471.197 233.657 473.108C230.991 475.019 228.992 477.717 227.94 480.824C226.889 483.931 226.838 487.289 227.796 490.426C228.753 493.563 230.67 496.32 233.277 498.31C237.338 495.347 241.383 492.366 245.411 489.368C249.44 486.37 253.466 483.366 257.488 480.358C256.369 477.366 254.363 474.788 251.738 472.967C249.113 471.147 245.995 470.172 242.8 470.173Z" fill="#DBCAF4" stroke="black" stroke-miterlimit="10" stroke-linecap="round"/>
<path d="M207.525 384.099C203.896 399.459 192.549 401.672 182.109 400.064C171.669 398.456 162.16 393.013 162.16 393.013C154.331 403.405 145.49 406.808 138.606 407.614C131.723 408.421 126.798 406.626 126.798 406.626C105.798 352.966 121.173 316.189 141.794 292.827C162.414 269.466 188.262 259.52 188.262 259.52C188.262 259.52 197.483 272.034 204.501 293.864C211.518 315.694 216.333 346.832 207.525 384.099Z" fill="#DBCAF4" stroke="black" stroke-miterlimit="10" stroke-linecap="round"/>
<path d="M188.339 364.218C188.43 365.843 188.05 367.459 187.245 368.874C186.482 370.189 185.387 371.28 184.069 372.038C182.752 372.797 181.258 373.195 179.738 373.194C178.111 373.183 176.521 372.705 175.158 371.816H175.12C173.759 372.705 172.171 373.183 170.546 373.194C169.025 373.194 167.53 372.796 166.212 372.038C164.894 371.28 163.798 370.188 163.034 368.874C162.23 367.459 161.851 365.842 161.944 364.218C160.491 363.485 159.281 362.348 158.459 360.944C157.698 359.625 157.298 358.13 157.298 356.607C157.298 355.085 157.698 353.589 158.459 352.27C159.281 350.867 160.491 349.732 161.944 349.002C161.852 347.379 162.23 345.763 163.034 344.35C163.799 343.037 164.896 341.947 166.214 341.189C167.532 340.431 169.025 340.032 170.546 340.03C172.171 340.042 173.76 340.522 175.12 341.413H175.149C176.511 340.522 178.101 340.042 179.728 340.03C181.248 340.031 182.741 340.43 184.058 341.188C185.376 341.946 186.471 343.037 187.235 344.35C188.04 345.763 188.42 347.378 188.33 349.002C189.78 349.735 190.99 350.87 191.814 352.27C192.572 353.59 192.971 355.085 192.971 356.607C192.971 358.129 192.572 359.624 191.814 360.944C190.992 362.345 189.786 363.481 188.339 364.218Z" fill="#FF6406" stroke="#070707" stroke-miterlimit="10" stroke-linecap="round"/>
<path d="M180.083 356.61C180.081 357.751 179.683 358.856 178.957 359.737C178.231 360.618 177.222 361.22 176.102 361.441C174.982 361.661 173.82 361.486 172.814 360.946C171.809 360.406 171.021 359.534 170.587 358.479C170.152 357.424 170.096 356.25 170.429 355.158C170.763 354.067 171.464 353.124 172.414 352.492C173.364 351.859 174.504 351.576 175.64 351.689C176.776 351.803 177.837 352.307 178.643 353.115C179.102 353.574 179.465 354.119 179.712 354.719C179.959 355.318 180.085 355.961 180.083 356.61Z" fill="#ECE7E1" stroke="black" stroke-miterlimit="10" stroke-linecap="round"/>
<path d="M200.349 291.445C199.091 291.417 197.891 290.91 196.995 290.027C196.099 289.144 195.574 287.952 195.527 286.694C195.48 285.437 195.916 284.209 196.744 283.262C197.573 282.315 198.732 281.721 199.984 281.6C199.024 279.334 198.098 277.227 197.181 275.293C196.264 273.358 195.381 271.582 194.536 270.013C193.987 270.089 193.447 270.22 192.923 270.402C192.411 270.569 191.914 270.783 191.44 271.04C190.12 271.798 189.025 272.893 188.267 274.213C187.462 275.627 187.082 277.244 187.173 278.869C185.723 279.605 184.514 280.741 183.688 282.142C182.927 283.461 182.527 284.957 182.527 286.479C182.527 288.002 182.927 289.497 183.688 290.816C184.514 292.217 185.723 293.353 187.173 294.09C187.082 295.715 187.462 297.331 188.267 298.746C189.03 300.061 190.125 301.152 191.443 301.91C192.76 302.669 194.254 303.067 195.775 303.066C197.402 303.055 198.991 302.577 200.354 301.688H200.383C201.365 302.328 202.469 302.757 203.626 302.947C204.783 303.137 205.967 303.084 207.103 302.792C206.527 300.552 205.923 298.403 205.293 296.346C204.664 294.272 204.011 292.28 203.349 290.365C202.492 291.032 201.435 291.392 200.349 291.387V291.445Z" fill="#FF6406" stroke="#070707" stroke-miterlimit="10" stroke-linecap="round"/>
<path d="M195.41 286.51C195.41 287.159 195.537 287.801 195.786 288.4C196.034 288.999 196.398 289.543 196.857 290.001C197.315 290.459 197.86 290.823 198.459 291.07C199.058 291.318 199.7 291.445 200.349 291.445C201.435 291.449 202.491 291.089 203.349 290.422C202.802 288.838 202.24 287.307 201.678 285.838C201.117 284.37 200.55 282.958 199.984 281.59C198.741 281.68 197.578 282.238 196.729 283.15C195.88 284.063 195.409 285.264 195.41 286.51Z" fill="#ECE7E1" stroke="black" stroke-miterlimit="10" stroke-linecap="round"/>
<path d="M127.12 315.781C127.032 317.396 127.41 319.002 128.21 320.408C128.966 321.719 130.054 322.808 131.364 323.566C132.674 324.324 134.16 324.725 135.674 324.728C137.29 324.719 138.868 324.243 140.219 323.355H140.253C141.603 324.243 143.182 324.719 144.798 324.728C145.958 324.74 147.107 324.513 148.175 324.063C149.244 323.613 150.209 322.949 151.01 322.111C151.812 321.274 152.433 320.281 152.836 319.193C153.239 318.106 153.414 316.948 153.352 315.79C154.794 315.06 155.995 313.93 156.813 312.536C157.574 311.224 157.975 309.733 157.975 308.216C157.975 306.699 157.574 305.209 156.813 303.896C155.995 302.502 154.794 301.372 153.352 300.642C153.438 299.027 153.062 297.422 152.267 296.014C151.604 294.868 150.685 293.89 149.583 293.155C148.481 292.42 147.225 291.948 145.912 291.776C144.75 291.622 143.568 291.719 142.446 292.059C139.365 295.479 136.505 299.091 133.883 302.874C131.113 306.869 128.641 311.063 126.486 315.421C126.587 315.488 126.693 315.55 126.798 315.608L127.12 315.786V315.781ZM140.238 303.301C141.372 303.302 142.47 303.696 143.345 304.416C144.221 305.135 144.82 306.136 145.04 307.248C145.261 308.359 145.089 309.513 144.555 310.513C144.02 311.512 143.156 312.295 142.109 312.729C141.062 313.163 139.897 313.221 138.812 312.892C137.728 312.564 136.791 311.869 136.16 310.927C135.53 309.986 135.245 308.854 135.355 307.726C135.465 306.598 135.963 305.543 136.763 304.741C137.221 304.284 137.766 303.922 138.365 303.676C138.964 303.431 139.605 303.306 140.253 303.31L140.238 303.301Z" fill="#FF6406" stroke="#070707" stroke-miterlimit="10" stroke-linecap="round"/>
<path d="M140.253 313.126C141.389 313.126 142.489 312.732 143.367 312.011C144.245 311.291 144.846 310.288 145.068 309.174C145.289 308.06 145.118 306.903 144.582 305.901C144.047 304.9 143.181 304.115 142.131 303.68C141.082 303.245 139.914 303.187 138.827 303.517C137.74 303.846 136.801 304.542 136.17 305.487C135.538 306.431 135.254 307.565 135.365 308.695C135.476 309.826 135.975 310.883 136.778 311.686C137.233 312.144 137.775 312.506 138.372 312.754C138.968 313.001 139.607 313.127 140.253 313.126Z" fill="#ECE7E1" stroke="black" stroke-miterlimit="10" stroke-linecap="round"/>
<path d="M420.4 429.594L413.68 457.63L406.96 485.672L437.281 496.832L467.598 507.987C470.795 509.324 474.143 510.266 477.568 510.795C482.434 511.567 487.407 511.303 492.165 510.022C498.078 508.343 503.465 505.181 507.813 500.835C512.467 496.193 516.083 490.616 518.421 484.472C519.694 481.189 520.614 477.779 521.166 474.301C521.714 470.819 521.93 467.292 521.809 463.77C521.387 451.016 520.417 439.395 519.203 429.066C517.989 418.736 516.52 409.707 515.109 402.138C510.587 377.974 505.422 362.59 500.843 352.698C496.264 342.805 492.275 338.37 490.105 336.128C473.737 319.174 451.902 311.739 433.326 308.624C421.024 306.558 408.513 306.019 396.078 307.021C388.481 307.746 380.962 309.131 373.605 311.158C363.054 314.054 352.91 318.266 343.413 323.696C334.037 329.075 325.367 335.601 317.603 343.122C321.971 344.471 326.246 346.104 330.4 348.013C333.524 349.448 336.568 351.051 339.52 352.813C342.109 354.348 344.607 356.031 347.003 357.853C348.846 359.293 350.075 360.368 350.776 361.002C351.784 361.914 353.013 363.09 354.347 364.539C355.849 366.173 357.248 367.898 358.537 369.704C360.957 373.101 362.979 376.763 364.566 380.619C365.462 382.812 366.226 385.056 366.856 387.339C371.435 403.179 378.467 418.131 386.109 432.834C393.75 447.536 402.011 462.003 409.033 476.941C410.928 469.056 412.821 461.168 414.712 453.277C416.603 445.386 418.499 437.491 420.4 429.594Z" fill="#C6FCDB" stroke="black" stroke-miterlimit="10" stroke-linecap="round"/>
<path d="M260.219 396.368C260.219 396.368 262.36 395.029 267.251 395.835C272.142 396.642 279.784 399.589 290.771 408.157" stroke="black" stroke-miterlimit="10" stroke-linecap="round"/>
<path d="M295.874 402.91C295.874 402.91 291.75 399.978 286.235 396.867C280.72 393.757 273.813 390.469 268.25 389.763" stroke="black" stroke-miterlimit="10" stroke-linecap="round"/>
<path d="M299.44 398.341C298.039 397.357 296.56 396.354 294.938 395.346C293.315 394.338 291.631 393.33 289.821 392.336C288.131 391.405 286.483 390.554 284.877 389.782C283.279 389.014 281.723 388.314 280.235 387.685" stroke="black" stroke-miterlimit="10" stroke-linecap="round"/>
<path d="M263.92 341.643C260.675 342.123 259.168 344.898 258.789 348.171C258.453 351.42 259.012 354.698 260.406 357.651C261.63 359.953 263.595 361.773 265.984 362.816C267.475 363.494 269.059 363.947 270.683 364.16C273.606 364.52 276.57 364.02 279.213 362.72C282.007 361.336 284.41 359.273 286.201 356.72C287.033 358.257 288.089 359.662 289.336 360.886C291.732 363.331 294.869 364.914 298.259 365.389C300.063 365.59 301.887 365.515 303.669 365.168C307.01 364.608 310.019 362.813 312.097 360.138C313.889 357.732 314.854 354.81 314.848 351.81C314.849 348.666 313.915 345.593 312.165 342.982C312.165 342.982 305.925 341.816 296.805 341.062C287.685 340.309 275.579 339.963 263.92 341.643Z" fill="#ECE7E1" stroke="black" stroke-miterlimit="10" stroke-linecap="round"/>
<path d="M219.952 406.707L215.056 404.23L210.16 401.749L198.064 416.533L185.963 431.312L188.776 433.146L191.589 434.984L206.743 434.322L221.891 433.664L222.976 426.286L224.08 418.909L222.031 412.808L219.952 406.707Z" fill="#F2B3C1" stroke="black" stroke-miterlimit="10" stroke-linecap="round"/>
<path d="M200.171 396.694C199.835 396.939 199.389 397.251 198.846 397.592C198.225 397.978 197.584 398.332 196.926 398.653C192.606 400.741 188.037 401.01 183.846 400.525C179.656 400.04 175.835 398.797 172.974 397.87C171.645 397.438 170.022 396.857 168.174 396.065C166.097 395.173 164.078 394.153 162.126 393.013C161.334 394.025 160.398 395.139 159.304 396.291C155.636 400.147 151.292 403.297 146.488 405.584L166.221 418.448L185.953 431.312L198.054 416.533L210.15 401.749L205.158 399.224L200.171 396.694Z" fill="#F6C34C" stroke="#070707" stroke-miterlimit="10" stroke-linecap="round"/>
<path d="M351.88 319.424C358.043 335.488 364.205 351.541 370.365 367.582C376.525 383.624 382.686 399.678 388.849 415.746C389.13 416.448 389.636 417.038 390.289 417.42C390.942 417.802 391.704 417.956 392.454 417.856C393.204 417.756 393.9 417.409 394.43 416.869C394.96 416.33 395.296 415.628 395.382 414.877L401.699 360.637L408.021 306.397C402.386 306.416 396.758 306.799 391.173 307.544C384.328 308.451 377.569 309.91 370.96 311.907C367.326 313.011 363.918 314.226 360.741 315.498C357.563 316.77 354.597 318.08 351.88 319.424Z" fill="#ECE7E1" stroke="black" stroke-miterlimit="10" stroke-linecap="round"/>
<path d="M311.857 337.107L325.821 341.71L339.784 346.309L328.821 356.106L317.853 365.898L314.857 351.502L311.857 337.107Z" fill="#040400" stroke="#040400" stroke-miterlimit="10"/>
<path d="M336.597 429.037L326.579 418.659L316.561 408.286C314.168 405.806 311.657 403.446 309.03 401.206C306.406 398.98 303.662 396.897 300.813 394.966C297.328 392.6 293.454 390.286 289.811 388.818C286.168 387.349 282.76 386.715 280.211 387.709C279.384 387.401 278.526 387.184 277.653 387.061C275.088 386.69 272.472 387.173 270.208 388.434C269.512 388.819 268.856 389.272 268.249 389.787C266.479 389.825 264.764 390.414 263.344 391.472C262.336 392.238 261.516 393.223 260.944 394.352C260.617 394.999 260.372 395.684 260.214 396.392C258.212 397.528 256.34 398.88 254.632 400.424C253.893 401.091 253.225 401.754 252.625 402.402C252.025 403.05 251.493 403.678 251.022 404.274C250.34 404.929 249.852 405.759 249.611 406.674C249.397 407.422 249.483 408.224 249.851 408.91C250.126 409.364 250.526 409.729 251.003 409.962C251.297 410.09 251.604 410.184 251.92 410.24C252.505 410.38 253.115 410.38 253.701 410.24C254.598 409.99 255.437 409.565 256.168 408.987C257.674 407.842 259.264 406.811 260.925 405.906C262.104 405.288 263.406 404.939 264.736 404.883H265.014H265.288C266.727 404.903 268.147 405.214 269.464 405.795C270.803 406.369 272.097 407.045 273.333 407.816C277.706 410.444 281.868 413.41 285.779 416.686C290.147 420.478 293.56 424.659 292.523 427.899C292.409 428.25 292.247 428.585 292.043 428.893C291.797 429.247 291.509 429.569 291.184 429.853C291.184 429.853 290.368 430.938 288.385 430.933C286.403 430.928 283.254 429.829 278.589 425.461C278.243 425.139 277.912 424.813 277.581 424.501C277.249 424.189 276.923 423.834 276.621 423.493C275.595 422.391 274.397 421.464 273.073 420.747C271.489 419.95 269.67 419.662 268.139 421.074C267.632 421.342 267.209 421.746 266.916 422.24C266.623 422.733 266.471 423.298 266.478 423.872C266.425 425.946 267.942 429.382 274.197 434.811C275.598 436.03 276.997 437.254 278.392 438.483C279.784 439.712 281.171 440.95 282.539 442.208L294.894 453.531L307.245 464.85L321.928 446.941L336.597 429.037Z" fill="#D87D61" stroke="black" stroke-miterlimit="10" stroke-linecap="round"/>
<path d="M394 417.238C393.8 417.396 393.58 417.529 393.347 417.632C392.965 417.808 392.553 417.907 392.133 417.925C391.483 417.952 390.839 417.785 390.285 417.445C388.317 404.005 386.352 390.552 384.39 377.086C382.429 363.621 380.462 350.166 378.491 336.723L380.152 336.469L381.808 336.21C383.856 349.723 385.894 363.229 387.923 376.726C389.952 390.224 391.978 403.728 394 417.238Z" fill="#F6991A" stroke="#070707" stroke-miterlimit="10" stroke-linecap="round"/>
<path d="M400.672 369.234C400.442 370.926 400.213 372.619 399.986 374.312L399.28 379.39C397.968 371.55 396.656 363.71 395.344 355.87C394.032 348.03 392.719 340.19 391.403 332.35L392.968 331.314L394.538 330.282C395.555 336.771 396.576 343.262 397.6 349.755C398.624 356.248 399.648 362.741 400.672 369.234Z" fill="#F6991A" stroke="#070707" stroke-miterlimit="10" stroke-linecap="round"/>
<path d="M377.719 387.925C376.682 385.045 375.647 382.154 374.613 379.251L371.507 370.573C370.307 364.371 369.109 358.168 367.912 351.963C366.715 345.758 365.519 339.554 364.322 333.349C364.61 333.498 364.917 333.651 365.234 333.8C365.551 333.949 365.877 334.093 366.194 334.242C366.463 334.357 366.731 334.462 366.991 334.563L367.763 334.851C369.415 343.699 371.069 352.544 372.727 361.386L377.719 387.925Z" fill="#F6991A" stroke="#070707" stroke-miterlimit="10" stroke-linecap="round"/>
<path d="M219.952 447.037C220.637 442.349 221.322 437.661 222.007 432.973C222.691 428.285 223.375 423.597 224.056 418.909C223.375 416.874 222.691 414.84 222.007 412.808L219.952 406.707L191.042 394.755L162.16 382.798L192.491 375.541L222.827 368.278C226.619 367.371 230.397 366.416 234.175 365.442C237.952 364.467 241.715 363.464 245.488 362.475C249.473 361.409 253.665 361.387 257.661 362.413C262.567 363.704 267.967 366.901 272.824 373.746L284.344 388.328L295.864 402.91L257.906 424.99L219.952 447.037Z" fill="#ECE7E1" stroke="black" stroke-miterlimit="10" stroke-linecap="round"/>
<path d="M202.869 399.469C204.25 399.166 205.542 398.545 206.641 397.654C208.633 396.118 210.827 393.334 211.638 388.261" stroke="black" stroke-miterlimit="10" stroke-linecap="round"/>
<path d="M272.8 373.76C267.942 366.91 262.538 363.718 257.637 362.422C253.641 361.4 249.449 361.423 245.464 362.49C241.691 363.478 237.923 364.477 234.146 365.456C230.368 366.435 226.595 367.376 222.803 368.293L220 368.96L217.197 369.632C217.809 375.746 219.867 381.626 223.202 386.787C226.364 391.687 230.822 395.617 236.08 398.139C239.829 399.895 243.895 400.874 248.032 401.019C250.803 401.119 253.575 400.892 256.293 400.342C257.4 402.752 258.507 405.163 259.614 407.576L262.941 414.814C263.304 415.724 263.712 416.615 264.165 417.483C264.681 418.482 265.264 419.444 265.912 420.363C268.477 424.184 272.427 426.857 276.928 427.818C281.341 428.798 285.962 428.001 289.792 425.6C291.003 424.83 292.111 423.909 293.09 422.859C294.046 421.826 294.873 420.68 295.552 419.446C297.198 416.447 297.895 413.02 297.554 409.616C297.215 406.203 295.902 402.959 293.771 400.27L283.288 387.027L272.8 373.76Z" fill="#040400" stroke="#040400" stroke-miterlimit="10"/>
<path d="M211.638 388.261C213.884 388.058 216.145 388.407 218.224 389.278C219.957 390.066 221.147 391.246 221.555 392.638C221.651 392.996 221.705 393.363 221.714 393.733C221.746 394.406 221.579 395.074 221.234 395.653C220.475 396.848 218.81 397.51 216.568 397.573C213.786 397.543 211.037 396.964 208.48 395.869C208.801 395.457 209.101 395.03 209.378 394.587C209.705 394.066 210.002 393.526 210.266 392.97C210.971 391.483 211.436 389.893 211.643 388.261H211.638Z" fill="#FC762B" stroke="#070707" stroke-miterlimit="10" stroke-linecap="round"/>
<path d="M231.861 380.082C231.861 380.628 231.671 381.157 231.324 381.58C230.977 382.002 230.495 382.291 229.959 382.397C229.423 382.503 228.867 382.421 228.385 382.163C227.904 381.905 227.526 381.488 227.317 380.984C227.108 380.479 227.081 379.917 227.24 379.394C227.398 378.871 227.734 378.42 228.188 378.117C228.642 377.813 229.188 377.677 229.732 377.73C230.275 377.784 230.783 378.025 231.17 378.411C231.389 378.63 231.564 378.891 231.682 379.177C231.801 379.464 231.862 379.771 231.861 380.082Z" fill="#ECE7E1" stroke="black" stroke-miterlimit="10" stroke-linecap="round"/>
<path d="M221.45 411.162C223.903 411.397 226.567 411.565 229.423 411.642C232.279 411.718 235.327 411.642 238.543 411.406C242.406 411.139 246.252 410.659 250.063 409.966C253.595 409.314 256.783 408.526 259.663 407.725L261.295 411.286L262.931 414.843C258.975 416.355 254.902 417.543 250.754 418.395C245.543 419.462 240.232 419.967 234.914 419.902C232.936 419.874 231.035 419.768 229.221 419.605C227.407 419.442 225.683 419.216 224.047 418.952L222.755 415.04L221.45 411.162Z" fill="#DBCAF4" stroke="black" stroke-miterlimit="10" stroke-linecap="round"/>
<path d="M311.973 339.704C312.275 339.133 312.573 338.538 312.861 337.909C313.149 337.28 313.432 336.622 313.701 335.931C314.465 333.967 315.057 331.94 315.472 329.874C315.816 328.152 316.037 326.409 316.134 324.656C316.904 324.706 317.664 324.854 318.395 325.098C319.344 325.404 320.198 325.951 320.872 326.686C322.341 328.338 322.696 330.93 322.144 333.406C321.592 335.883 320.133 338.206 317.977 339.334C316.887 339.889 315.672 340.157 314.449 340.112C313.61 340.082 312.778 339.945 311.973 339.704Z" fill="#D87D61" stroke="black" stroke-miterlimit="10" stroke-linecap="round"/>
<path d="M262.974 326.149L248.277 326.538L233.579 326.926L241.269 339.459L248.954 351.992L255.962 339.07L262.974 326.149Z" fill="#040400" stroke="#040400" stroke-miterlimit="10"/>
<path d="M247.441 431.12L258.707 422L269.977 412.88C272.704 410.765 275.525 408.787 278.44 406.947C281.357 405.11 284.371 403.431 287.469 401.917C291.251 400.069 295.417 398.336 299.233 397.4C303.049 396.464 306.515 396.325 308.896 397.674C310.586 397.298 312.338 397.296 314.03 397.665C315.722 398.035 317.313 398.768 318.693 399.814C319.326 400.295 319.912 400.837 320.44 401.432C321.099 401.542 321.743 401.727 322.36 401.984C323.45 402.437 324.43 403.119 325.235 403.983C326.039 404.848 326.648 405.875 327.021 406.995C327.254 407.681 327.399 408.394 327.453 409.117L331.216 413.25L334.979 417.387C335.839 418.156 336.402 419.202 336.568 420.344C336.649 420.802 336.634 421.272 336.524 421.724C336.414 422.176 336.212 422.6 335.929 422.97C335.559 423.349 335.107 423.638 334.608 423.816C334.109 423.994 333.576 424.056 333.049 423.997C332.393 423.947 331.754 423.763 331.171 423.457C330.588 423.151 330.074 422.728 329.661 422.216C328.816 421.322 327.87 420.53 326.843 419.854C325.207 418.768 323.374 418.012 321.448 417.627L321.174 417.574L320.905 417.531C319.547 417.315 318.164 417.301 316.801 417.488C315.437 417.678 314.103 418.05 312.837 418.592C308.134 420.57 303.594 422.913 299.257 425.6C294.381 428.691 290.401 432.32 290.968 435.68C291.031 436.044 291.144 436.398 291.304 436.731C291.493 437.123 291.732 437.49 292.014 437.821C292.014 437.821 292.667 439.011 294.63 439.261C296.593 439.51 299.862 438.901 305.109 435.243C305.493 434.974 305.872 434.701 306.246 434.418C306.621 434.134 306.99 433.851 307.355 433.558C308.529 432.617 309.847 431.87 311.257 431.346C312.942 430.784 314.781 430.76 316.101 432.378C316.564 432.716 316.925 433.175 317.145 433.705C317.364 434.235 317.433 434.816 317.344 435.382C317.094 437.442 315.107 440.629 308.142 445.112C306.577 446.114 305.019 447.125 303.467 448.146C301.912 449.163 300.366 450.19 298.83 451.242L284.992 460.726L271.149 470.173C267.197 463.664 263.245 457.155 259.293 450.646L247.441 431.12Z" fill="#D87D61" stroke="black" stroke-miterlimit="10" stroke-linecap="round"/>
<path d="M315.693 328.64C314.253 337.242 309.995 344.533 304.245 349.366C298.495 354.2 291.285 356.566 283.917 355.366C276.549 354.166 270.477 349.558 266.613 343.126C262.749 336.694 261.04 328.4 262.48 319.798C263.92 311.197 268.178 303.906 273.928 299.067C279.679 294.229 286.888 291.867 294.256 293.067C301.624 294.267 307.696 298.88 311.56 305.312C315.424 311.744 317.123 320.029 315.693 328.64Z" fill="#D87D61" stroke="black" stroke-miterlimit="10" stroke-linecap="round"/>
<path d="M296.488 322.4C296.415 322.827 296.177 323.208 295.825 323.461C295.607 323.617 295.352 323.717 295.086 323.752C294.819 323.787 294.548 323.755 294.296 323.66C294.044 323.565 293.82 323.41 293.643 323.207C293.466 323.005 293.341 322.762 293.28 322.5C293.219 322.238 293.223 321.965 293.293 321.705C293.363 321.446 293.495 321.207 293.679 321.01C293.863 320.814 294.092 320.666 294.347 320.579C294.601 320.493 294.874 320.47 295.139 320.514C295.352 320.549 295.555 320.625 295.738 320.739C295.921 320.853 296.08 321.002 296.205 321.177C296.33 321.352 296.42 321.55 296.468 321.76C296.517 321.97 296.524 322.188 296.488 322.4Z" fill="#040400"/>
<path d="M276.938 319.683C276.893 319.948 276.783 320.198 276.619 320.411C276.454 320.624 276.24 320.793 275.995 320.903C275.75 321.013 275.481 321.061 275.213 321.043C274.945 321.025 274.685 320.941 274.457 320.798C274.229 320.656 274.039 320.46 273.905 320.227C273.771 319.994 273.696 319.731 273.688 319.463C273.679 319.194 273.737 318.927 273.856 318.686C273.975 318.445 274.151 318.237 274.37 318.08C274.633 317.891 274.947 317.784 275.271 317.774C275.595 317.764 275.915 317.85 276.191 318.022C276.466 318.193 276.684 318.443 276.817 318.739C276.95 319.035 276.992 319.363 276.938 319.683Z" fill="#040400"/>
<path d="M281.455 327.2L280.173 325.558L278.896 323.917C278.879 323.897 278.867 323.872 278.863 323.846C278.859 323.82 278.862 323.793 278.872 323.768C278.882 323.743 278.898 323.721 278.919 323.704C278.94 323.687 278.966 323.676 278.992 323.672L280.912 323.528L282.832 323.379L283.624 318.603L284.421 313.803" stroke="black" stroke-miterlimit="10" stroke-linecap="round"/>
<path d="M288.4 332.25C287.91 333.101 287.194 333.8 286.331 334.27C285.424 334.765 284.408 335.026 283.374 335.029C282.244 335.035 281.132 334.74 280.153 334.174C279.213 333.638 278.449 332.839 277.955 331.875" stroke="black" stroke-miterlimit="10" stroke-linecap="round"/>
<path d="M292.778 312.594L297.386 314.605L301.994 316.621" stroke="black" stroke-miterlimit="10" stroke-linecap="round"/>
<path d="M327.443 409.078C327.443 409.078 325.523 407.446 320.56 407.547C315.597 407.648 307.6 409.467 295.519 416.389" stroke="black" stroke-miterlimit="10" stroke-linecap="round"/>
<path d="M280.278 311.715L275.32 312.915L270.366 314.11" stroke="black" stroke-miterlimit="10" stroke-linecap="round"/>
<path d="M291.218 410.47C291.218 410.47 295.72 408.157 301.619 405.862C307.519 403.568 314.829 401.302 320.44 401.394" stroke="black" stroke-miterlimit="10" stroke-linecap="round"/>
<path d="M303.021 331.17C302.858 332.156 302.359 333.055 301.607 333.715C300.856 334.374 299.899 334.752 298.9 334.785C297.901 334.817 296.921 334.502 296.128 333.894C295.335 333.285 294.778 332.42 294.551 331.447C294.324 330.473 294.442 329.451 294.885 328.555C295.327 327.658 296.067 326.943 296.978 326.531C297.889 326.119 298.914 326.036 299.88 326.295C300.845 326.554 301.691 327.141 302.272 327.954C302.938 328.884 303.207 330.041 303.021 331.17Z" fill="#FF6406" stroke="#070707" stroke-miterlimit="10" stroke-linecap="round"/>
<path d="M276.789 327.286C276.625 328.272 276.125 329.171 275.373 329.83C274.621 330.488 273.664 330.866 272.666 330.898C271.667 330.93 270.687 330.614 269.895 330.005C269.102 329.396 268.546 328.531 268.319 327.558C268.093 326.585 268.211 325.563 268.654 324.667C269.096 323.771 269.836 323.056 270.747 322.644C271.657 322.232 272.682 322.148 273.648 322.408C274.613 322.667 275.458 323.253 276.04 324.066C276.37 324.527 276.606 325.049 276.735 325.602C276.863 326.154 276.882 326.727 276.789 327.286Z" fill="#FF6406" stroke="#070707" stroke-miterlimit="10" stroke-linecap="round"/>
<path d="M265.907 309.282C269.578 309.966 273.331 310.089 277.039 309.646C283.36 308.926 291.194 306.392 297.247 299.154C298.415 303.002 299.953 306.728 301.84 310.28C304.941 316.117 309.664 322.491 316.149 324.656C316.92 324.711 317.679 324.872 318.405 325.136C319.131 325.363 319.803 325.736 320.381 326.231C320.958 326.726 321.429 327.333 321.765 328.016C321.765 328.016 325.418 320.062 324.544 310.736C323.671 301.41 318.271 290.667 300.165 285.118C294.503 283.64 288.559 283.616 282.885 285.051C273.655 287.451 263.258 294.795 258.587 314.427C259.093 314.2 259.625 314.039 260.171 313.947C261.367 313.711 262.605 313.831 263.733 314.293L264.837 311.802L265.907 309.282Z" fill="#040400" stroke="#040400" stroke-miterlimit="10"/>
<path d="M274.888 332.802C274.913 332.686 274.93 332.569 274.941 332.451C274.941 332.331 274.965 332.211 274.97 332.096C274.982 331.764 274.971 331.432 274.936 331.102C274.902 330.771 274.854 330.445 274.802 330.118C274.672 329.278 274.518 328.438 274.346 327.608C274.173 326.778 273.981 325.942 273.77 325.122C273.751 325.052 273.712 324.989 273.659 324.939C273.606 324.89 273.54 324.857 273.468 324.844C273.397 324.831 273.323 324.839 273.256 324.866C273.189 324.893 273.131 324.938 273.088 324.997C272.757 325.477 272.43 325.957 272.128 326.437C271.826 326.917 271.504 327.421 271.206 327.915C270.851 328.506 270.472 329.11 270.15 329.744C269.819 330.362 269.579 331.025 269.44 331.712C269.382 332.043 269.364 332.38 269.387 332.715C269.415 333.046 269.496 333.37 269.627 333.675C269.838 334.126 270.17 334.508 270.587 334.779C270.992 335.061 271.467 335.225 271.959 335.254C272.451 335.283 272.941 335.175 273.376 334.942C274.011 334.623 274.5 334.074 274.744 333.406C274.809 333.209 274.857 333.007 274.888 332.802Z" fill="#84A1E5" stroke="#070707" stroke-miterlimit="10" stroke-linecap="round"/>
<path d="M288.366 405.44C289.893 404.667 291.52 403.89 293.253 403.122C294.985 402.354 296.814 401.595 298.744 400.871C300.549 400.189 302.305 399.584 304 399.051C305.694 398.519 307.331 398.043 308.896 397.611" stroke="black" stroke-miterlimit="10" stroke-linecap="round"/>
<path d="M336.597 429.037L355.317 444.771L374.037 460.506" stroke="black" stroke-miterlimit="10" stroke-linecap="round"/>
<path d="M408.458 297.675C408.938 307.947 405.947 317.427 400.686 324.445C395.426 331.462 387.914 336.018 379.394 336.445C370.874 336.872 362.958 333.118 357.04 326.672C351.122 320.226 347.229 311.101 346.734 300.829C346.24 290.557 349.25 281.082 354.506 274.064C359.762 267.046 367.278 262.486 375.798 262.064C384.318 261.642 392.234 265.395 398.142 271.842C404.051 278.288 407.963 287.403 408.458 297.675Z" fill="#D87D61" stroke="black" stroke-miterlimit="10" stroke-linecap="round"/>
<path d="M380.08 295.894C380.107 296.278 380.018 296.66 379.824 296.993C379.631 297.325 379.343 297.592 378.996 297.758C378.65 297.925 378.261 297.983 377.881 297.927C377.501 297.87 377.147 297.7 376.864 297.44C376.485 297.094 376.258 296.613 376.23 296.101C376.205 295.716 376.296 295.333 376.491 295C376.686 294.668 376.977 294.402 377.326 294.238C377.674 294.073 378.064 294.017 378.445 294.077C378.826 294.137 379.18 294.31 379.461 294.574C379.833 294.916 380.055 295.39 380.08 295.894Z" fill="#040400"/>
<path d="M359.618 300.272C359.647 300.783 359.474 301.284 359.138 301.669C358.967 301.858 358.761 302.012 358.531 302.121C358.301 302.231 358.052 302.294 357.798 302.307C357.544 302.32 357.289 302.283 357.049 302.198C356.809 302.113 356.588 301.981 356.399 301.81C356.21 301.64 356.057 301.434 355.947 301.204C355.838 300.974 355.775 300.725 355.761 300.471C355.748 300.216 355.785 299.962 355.87 299.722C355.956 299.482 356.087 299.261 356.258 299.072C356.604 298.694 357.085 298.466 357.597 298.438C357.851 298.424 358.105 298.461 358.344 298.545C358.584 298.63 358.804 298.761 358.993 298.932C359.181 299.103 359.334 299.309 359.442 299.539C359.55 299.769 359.611 300.018 359.623 300.272H359.618Z" fill="#040400"/>
<path d="M367.686 307.04L365.531 305.859L363.376 304.64C363.349 304.624 363.326 304.602 363.31 304.575C363.294 304.548 363.286 304.518 363.285 304.486C363.283 304.455 363.291 304.423 363.306 304.395C363.321 304.367 363.344 304.344 363.371 304.328L365.392 303.267L367.413 302.206L366.04 296.658L364.667 291.114" stroke="black" stroke-miterlimit="10" stroke-linecap="round"/>
<path d="M377.272 310.443C377.042 311.579 376.502 312.629 375.712 313.477C374.883 314.37 373.843 315.042 372.688 315.43C371.424 315.859 370.069 315.943 368.762 315.675C367.507 315.428 366.354 314.817 365.445 313.918" stroke="black" stroke-miterlimit="10" stroke-linecap="round"/>
<path d="M373.648 285.627L379.499 284.662L385.35 283.698" stroke="black" stroke-miterlimit="10" stroke-linecap="round"/>
<path d="M360.88 287.869L355.178 289.789L349.475 291.709" stroke="black" stroke-miterlimit="10" stroke-linecap="round"/>
<path d="M408.021 306.368C408.17 305.408 408.294 304.362 408.386 303.258C408.477 302.154 408.525 300.992 408.52 299.768C408.517 297.642 408.357 295.52 408.04 293.418C407.781 291.683 407.421 289.964 406.96 288.272C407.957 288.019 408.984 287.899 410.013 287.917C411.414 287.915 412.783 288.33 413.949 289.107C416.123 290.638 417.16 293.547 417.112 296.528C417.064 299.509 415.936 302.566 413.752 304.395C412.847 305.147 411.789 305.692 410.651 305.994C409.793 306.227 408.91 306.352 408.021 306.368Z" fill="#D87D61" stroke="black" stroke-miterlimit="10" stroke-linecap="round"/>
<path d="M390.439 304.472C390.496 305.648 390.144 306.807 389.442 307.752C388.741 308.697 387.733 309.37 386.591 309.655C385.449 309.941 384.244 309.822 383.18 309.318C382.116 308.815 381.26 307.958 380.757 306.894C380.254 305.83 380.135 304.624 380.421 303.482C380.707 302.341 381.38 301.334 382.326 300.632C383.271 299.931 384.43 299.58 385.606 299.637C386.782 299.695 387.901 300.159 388.773 300.949C389.269 301.397 389.672 301.939 389.958 302.544C390.244 303.149 390.407 303.804 390.439 304.472Z" fill="#FF6406" stroke="#070707" stroke-miterlimit="10" stroke-linecap="round"/>
<path d="M361.802 311.278C361.859 312.455 361.507 313.616 360.805 314.562C360.103 315.508 359.095 316.182 357.952 316.468C356.809 316.754 355.602 316.635 354.537 316.131C353.472 315.627 352.614 314.77 352.111 313.705C351.607 312.639 351.488 311.432 351.775 310.289C352.061 309.147 352.735 308.138 353.682 307.437C354.629 306.735 355.789 306.383 356.966 306.441C358.143 306.499 359.263 306.964 360.136 307.755C360.633 308.203 361.035 308.745 361.321 309.35C361.607 309.955 361.77 310.61 361.802 311.278Z" fill="#FF6406" stroke="#070707" stroke-miterlimit="10" stroke-linecap="round"/>
<path d="M350.104 316.16C349.768 315.306 349.437 314.403 349.144 313.458C348.851 312.512 348.53 311.538 348.251 310.486C347.65 308.263 347.192 306.004 346.878 303.723C346.615 301.775 346.455 299.813 346.398 297.848C345.519 297.76 344.631 297.787 343.758 297.93C342.626 298.111 341.562 298.588 340.672 299.312C338.704 300.958 338.272 303.906 338.891 306.872C339.51 309.838 341.181 312.834 343.413 314.552C344.534 315.402 345.858 315.945 347.253 316.126C348.198 316.262 349.156 316.273 350.104 316.16Z" fill="#D87D61" stroke="black" stroke-miterlimit="10" stroke-linecap="round"/>
<path d="M362.181 272.902C362.173 275.844 361.146 278.692 359.274 280.962C357.402 283.231 354.801 284.781 351.914 285.347C349.028 285.914 346.034 285.462 343.443 284.068C340.852 282.675 338.825 280.426 337.706 277.706C336.587 274.985 336.446 271.96 337.308 269.148C338.169 266.335 339.979 263.907 342.429 262.279C344.879 260.651 347.818 259.923 350.745 260.219C353.672 260.515 356.405 261.817 358.48 263.902C359.659 265.085 360.593 266.489 361.228 268.033C361.863 269.578 362.187 271.233 362.181 272.902Z" fill="#040400" stroke="#040400" stroke-miterlimit="10"/>
<path d="M385.202 264.277C385.201 268.429 383.761 272.453 381.127 275.662C378.493 278.872 374.827 281.068 370.755 281.878C366.682 282.688 362.455 282.061 358.793 280.103C355.131 278.146 352.262 274.979 350.673 271.143C349.084 267.307 348.875 263.038 350.08 259.065C351.286 255.092 353.832 251.659 357.284 249.353C360.737 247.046 364.882 246.008 369.014 246.415C373.147 246.822 377.01 248.649 379.946 251.586C381.615 253.25 382.939 255.228 383.841 257.406C384.743 259.584 385.206 261.919 385.202 264.277Z" fill="#040400" stroke="#040400" stroke-miterlimit="10"/>
<path d="M414.059 264.277C414.065 268.43 412.631 272.456 410.001 275.671C407.37 278.885 403.707 281.087 399.635 281.904C395.563 282.72 391.334 282.099 387.669 280.147C384.003 278.194 381.128 275.032 379.533 271.197C377.937 267.363 377.721 263.094 378.92 259.118C380.119 255.142 382.66 251.704 386.109 249.392C389.559 247.079 393.703 246.033 397.837 246.433C401.97 246.833 405.838 248.654 408.779 251.586C410.453 253.248 411.781 255.225 412.688 257.404C413.594 259.582 414.06 261.918 414.059 264.277Z" fill="#040400" stroke="#040400" stroke-miterlimit="10"/>
<path d="M235.638 242.12C233.622 251.408 235.009 260.518 238.888 267.738C242.766 274.957 249.136 280.285 257.075 282.008C265.014 283.731 273.016 281.528 279.539 276.57C286.062 271.611 291.112 263.902 293.128 254.614C295.144 245.326 293.761 236.211 289.878 228.992C285.995 221.773 279.635 216.445 271.696 214.722C263.757 212.998 255.755 215.202 249.232 220.16C242.709 225.118 237.659 232.827 235.638 242.12Z" fill="#F2B3C1" stroke="black" stroke-miterlimit="10" stroke-linecap="round"/>
<path d="M393.832 279.934C394.143 282.931 394.936 285.859 396.179 288.603C398.157 292.726 401.742 296.446 408.179 294.8C408.179 294.8 408.059 293.758 407.848 292.424C407.639 291.023 407.342 289.636 406.96 288.272C406.96 288.272 407.44 288.162 408.146 288.07C409.048 287.951 409.959 287.92 410.867 287.979C411.197 286.471 411.415 284.94 411.52 283.4C411.806 279.735 411.587 276.047 410.867 272.442L402.352 276.186L393.832 279.934Z" fill="#040400" stroke="#040400" stroke-miterlimit="10"/>
<path d="M420.4 429.037L414.237 454.338L408.078 479.638C400.958 477.825 394.042 475.289 387.438 472.069C382.687 469.741 378.126 467.043 373.797 464C370.851 461.941 368.059 459.67 365.445 457.203C361.374 453.367 357.796 449.039 354.794 444.32C353.527 442.242 352.425 440.07 351.496 437.821C350.008 434.187 348.851 429.781 350.162 426.709C350.306 426.346 350.491 426.002 350.714 425.682C351.039 425.201 351.484 424.814 352.005 424.558C352.878 424.193 353.854 424.152 354.755 424.443C355.481 424.64 356.165 424.965 356.776 425.403C358.295 426.595 359.643 427.989 360.784 429.546C361.96 431.091 363.016 432.742 364.048 434.317C364.826 435.582 365.749 436.751 366.798 437.802C367.955 438.877 369.304 439.563 370.701 438.963C370.965 438.844 371.197 438.663 371.378 438.435C371.562 438.207 371.707 437.949 371.805 437.672C372.765 434.936 371.805 431.216 370.59 428.178C369.841 426.316 368.947 424.515 367.917 422.792C366.18 420.154 364.222 417.669 362.066 415.362C359.589 412.626 356.464 409.443 352.317 405.234C350.748 403.734 349.293 402.12 347.963 400.405C346.845 398.83 346.235 397.323 346.706 395.96C346.924 395.359 347.306 394.832 347.81 394.438C348.27 394.068 348.778 393.763 349.322 393.531C348.265 392.583 347.584 391.286 347.402 389.878C347.315 389.313 347.352 388.735 347.511 388.185C347.67 387.636 347.947 387.128 348.323 386.696C348.979 386.06 349.848 385.691 350.762 385.659C351.281 385.62 351.804 385.647 352.317 385.741C351.798 384.708 351.572 383.552 351.664 382.4C351.695 381.558 352.007 380.751 352.549 380.106C353.092 379.462 353.835 379.017 354.659 378.843C355.073 378.742 355.496 378.686 355.922 378.675C356.325 378.668 356.728 378.719 357.117 378.829C357.641 378.986 358.155 379.173 358.658 379.39C359.234 379.63 359.906 379.918 360.654 380.264C361.403 380.61 362.229 381.018 363.122 381.488C363.443 381.157 363.784 380.758 364.144 380.374C364.48 379.999 364.859 379.664 365.272 379.376C367.019 378.243 369.213 378.723 371.301 379.731C373.207 380.749 375.021 381.933 376.72 383.269C379.294 385.138 381.703 387.226 383.92 389.509C385.209 390.828 386.427 392.216 387.568 393.666C394.13 402.003 397.878 407.106 400.715 410.773C403.031 413.913 405.6 416.859 408.395 419.581C409.72 420.862 411.371 422.365 413.373 423.982C415.62 425.795 417.966 427.483 420.4 429.037Z" fill="#D87D61" stroke="black" stroke-miterlimit="10" stroke-linecap="round"/>
<path d="M349.322 393.536C351.242 394.784 353.248 396.186 355.331 397.77C357.415 399.354 359.555 401.13 361.73 403.05C364.533 405.571 367.194 408.246 369.703 411.061C372.026 413.677 374.023 416.197 375.741 418.535" stroke="black" stroke-miterlimit="10" stroke-linecap="round"/>
<path d="M352.312 385.76C354.467 387.09 356.776 388.64 359.181 390.416C361.586 392.192 364.091 394.227 366.621 396.517C369.546 399.162 372.31 401.982 374.896 404.96C377.296 407.706 379.293 410.341 380.992 412.746" stroke="black" stroke-miterlimit="10" stroke-linecap="round"/>
<path d="M363.122 381.502C365.406 383.307 367.821 385.342 370.322 387.67C372.822 389.998 375.352 392.562 377.896 395.422C379.653 397.395 381.256 399.344 382.749 401.245C384.242 403.146 385.581 405.003 386.814 406.794" stroke="black" stroke-miterlimit="10" stroke-linecap="round"/>
<path d="M476.301 444.771L448.35 436.904L420.405 429.037" stroke="black" stroke-miterlimit="10" stroke-linecap="round"/>
<path d="M234.721 250.112C234.721 249.205 234.774 248.24 234.861 247.232C234.947 246.224 235.077 245.144 235.264 244.03C235.587 242.093 236.054 240.182 236.661 238.314C237.162 236.769 237.755 235.256 238.437 233.782C237.565 233.402 236.646 233.137 235.705 232.995C234.43 232.78 233.119 232.947 231.937 233.475C229.72 234.541 228.337 237.037 227.929 239.763C227.521 242.49 228.088 245.446 229.782 247.443C230.496 248.262 231.379 248.917 232.369 249.363C233.121 249.706 233.91 249.957 234.721 250.112Z" fill="#F2B3C1" stroke="black" stroke-miterlimit="10" stroke-linecap="round"/>
<path d="M440.128 401.994L444.395 419.302L448.662 436.606" stroke="black" stroke-miterlimit="10" stroke-linecap="round"/>
<path d="M240.021 230.787C242.793 232.395 245.892 233.357 249.088 233.6C254.488 234.046 261.626 232.558 268.566 224.802C269.081 228.016 270.23 231.095 271.949 233.859C273.667 236.624 275.92 239.017 278.574 240.901C283.504 244.357 289.461 245.701 294.77 244.29C298.744 243.234 302.286 240.661 304.917 237.118C307.683 233.321 309.295 228.806 309.558 224.115C309.515 218.956 307.834 213.944 304.758 209.802C301.939 205.957 297.849 203.236 293.214 202.122C289.032 201.245 284.677 201.75 280.806 203.562C278.698 204.496 276.73 205.721 274.96 207.2C272.166 205.642 269.155 204.509 266.027 203.84C261.035 202.755 254.507 202.554 247.84 205.789C242.799 208.255 238.617 212.182 235.84 217.059C232.995 222.041 231.642 227.736 231.942 233.466C232.287 233.322 232.641 233.205 233.003 233.115C234.272 232.79 235.604 232.801 236.867 233.149C237.411 233.298 237.939 233.502 238.442 233.758C238.541 233.538 238.646 233.312 238.758 233.082C238.869 232.856 238.989 232.602 239.114 232.386C239.238 232.17 239.416 231.819 239.565 231.55C239.714 231.282 239.867 231.032 240.021 230.787Z" fill="#ECE7E1" stroke="black" stroke-miterlimit="10" stroke-linecap="round"/>
<path d="M287.656 268.064C288.103 267.334 288.549 266.566 288.986 265.75C289.423 264.934 289.855 264.08 290.272 263.182C291.173 261.251 291.946 259.263 292.586 257.23C293.129 255.496 293.578 253.733 293.93 251.95C294.77 252.002 295.599 252.163 296.397 252.43C297.429 252.768 298.357 253.367 299.09 254.168C300.688 255.978 300.645 258.733 299.613 261.344C298.581 263.955 296.56 266.427 294.203 267.68C293.015 268.281 291.694 268.57 290.363 268.52C289.446 268.482 288.536 268.329 287.656 268.064Z" fill="#F2B3C1" stroke="black" stroke-miterlimit="10" stroke-linecap="round"/>
<path d="M446.545 338.643C446.848 337.482 447.025 336.243 447.237 335.053C447.387 333.963 447.624 332.888 447.947 331.837C448.537 330.133 449.224 328.054 450.28 326.374C451.336 324.694 452.757 323.422 454.811 323.331C454.811 323.331 455.68 323.298 456.453 324.517C457.225 325.736 457.893 328.213 457.504 333.243C457.241 336.568 456.612 339.854 455.627 343.04C454.639 346.231 453.315 349.307 451.677 352.218L447.409 359.84L443.137 367.453C442.695 368.242 442.354 369.084 442.12 369.958C441.887 370.833 441.781 371.737 441.803 372.642C441.772 373.894 442.175 375.119 442.945 376.107C443.771 377.067 445.149 377.634 447.371 377.432C446.396 378.777 445.574 380.226 444.918 381.752C443.958 384.094 443.478 386.811 445.533 388.294C446.393 388.976 447.475 389.318 448.571 389.254C450.414 389.139 452.891 387.843 455.449 383.115C455.449 383.115 456.697 385.515 458.838 386.374C460.979 387.234 463.998 386.509 467.55 380.254C468.012 380.91 468.657 381.414 469.404 381.705C470.151 381.995 470.967 382.058 471.75 381.886C474.462 381.267 478.403 377.768 483.313 366.258C483.998 364.658 484.702 363.058 485.425 361.458C486.149 359.858 486.881 358.272 487.624 356.701C490.024 351.613 493.509 342.627 494.027 332.926C494.545 323.226 492.078 312.81 482.507 304.856C480.42 303.109 478.074 301.698 475.552 300.675C473.037 299.656 470.363 299.086 467.651 298.99C463.316 298.835 459.033 299.966 455.339 302.24C451.019 304.88 446.699 309.44 442.969 317.005C441.57 319.903 440.372 322.894 439.384 325.957C437.79 330.925 436.595 336.886 438.189 340.837C438.562 341.773 439.258 342.544 440.152 343.011C440.59 343.244 441.071 343.388 441.566 343.432C442.06 343.477 442.559 343.422 443.032 343.27L443.185 343.218L443.339 343.16C444.205 342.799 444.937 342.177 445.432 341.379C445.943 340.531 446.319 339.608 446.545 338.643Z" fill="#F2B3C1" stroke="black" stroke-miterlimit="10" stroke-linecap="round"/>
<path d="M463.451 346.789C462.101 350.024 460.597 353.363 458.939 356.806C457.273 360.243 455.44 363.771 453.424 367.366C452.425 369.149 451.421 370.878 450.41 372.555C449.397 374.23 448.384 375.862 447.371 377.437" stroke="black" stroke-miterlimit="10" stroke-linecap="round"/>
<path d="M471.669 351.003C471.669 351.003 468.87 357.2 465.429 364.309C461.987 371.418 457.96 379.453 455.44 383.115" stroke="black" stroke-miterlimit="10" stroke-linecap="round"/>
<path d="M479.387 354.949L473.469 367.602L467.55 380.254" stroke="black" stroke-miterlimit="10" stroke-linecap="round"/>
<path d="M363.343 218.653C363.823 228.147 360.943 236.893 355.946 243.392C350.949 249.891 343.783 254.091 335.671 254.494C327.559 254.898 320.018 251.413 314.397 245.451C308.776 239.49 305.056 231.051 304.586 221.566C304.115 212.082 306.986 203.326 311.983 196.822C316.979 190.318 324.146 186.123 332.258 185.72C340.37 185.317 347.906 188.802 353.531 194.763C359.157 200.725 362.872 209.154 363.343 218.653Z" fill="#F2B3C1" stroke="black" stroke-miterlimit="10" stroke-linecap="round"/>
<path d="M337.125 220.021C337.144 220.432 337.02 220.837 336.774 221.167C336.529 221.498 336.176 221.733 335.777 221.832C335.377 221.932 334.955 221.89 334.583 221.714C334.211 221.537 333.912 221.238 333.736 220.866C333.56 220.493 333.518 220.072 333.618 219.672C333.718 219.273 333.953 218.921 334.284 218.675C334.614 218.429 335.019 218.306 335.43 218.326C335.842 218.345 336.233 218.507 336.539 218.782C336.713 218.94 336.855 219.131 336.955 219.343C337.056 219.556 337.113 219.786 337.125 220.021Z" fill="#040400"/>
<path d="M317.997 225.973C318.005 226.208 317.968 226.443 317.885 226.664C317.803 226.885 317.677 227.087 317.517 227.259C317.32 227.477 317.072 227.643 316.795 227.742C316.519 227.842 316.222 227.871 315.931 227.828C315.641 227.786 315.365 227.672 315.129 227.497C314.893 227.322 314.704 227.092 314.578 226.826C314.452 226.56 314.394 226.268 314.408 225.975C314.423 225.681 314.509 225.396 314.66 225.144C314.811 224.892 315.022 224.681 315.274 224.53C315.526 224.379 315.812 224.293 316.105 224.278C316.34 224.266 316.574 224.3 316.795 224.379C317.016 224.458 317.22 224.579 317.394 224.737C317.568 224.894 317.709 225.084 317.809 225.296C317.909 225.509 317.966 225.738 317.977 225.973H317.997Z" fill="#040400"/>
<path d="M326.896 230.72L324.904 229.63L322.917 228.541C322.891 228.526 322.869 228.506 322.853 228.48C322.837 228.455 322.828 228.427 322.826 228.397C322.826 228.368 322.834 228.34 322.848 228.314C322.862 228.289 322.883 228.268 322.907 228.253L324.775 227.293L326.646 226.333L325.36 221.154L324.093 216.027" stroke="black" stroke-miterlimit="10" stroke-linecap="round"/>
<path d="M336.458 232.054C336.346 233.121 335.938 234.135 335.282 234.982C334.595 235.876 333.696 236.584 332.666 237.042C331.54 237.544 330.301 237.738 329.075 237.603C327.9 237.482 326.787 237.018 325.874 236.269" stroke="black" stroke-miterlimit="10" stroke-linecap="round"/>
<path d="M329.896 213.397L335.339 212.749L340.782 212.091" stroke="black" stroke-miterlimit="10" stroke-linecap="round"/>
<path d="M319.418 216.114L314.43 218.566L309.438 221.019" stroke="black" stroke-miterlimit="10" stroke-linecap="round"/>
<path d="M362.939 226.688C363.078 225.79 363.194 224.83 363.275 223.808C363.357 222.786 363.405 221.71 363.405 220.578C363.404 216.988 362.92 213.415 361.965 209.955C362.887 209.72 363.836 209.608 364.787 209.624C366.083 209.623 367.349 210.008 368.426 210.728C370.437 212.139 371.397 214.827 371.354 217.582C371.31 220.338 370.264 223.165 368.262 224.854C367.421 225.552 366.439 226.058 365.382 226.338C364.585 226.553 363.765 226.671 362.939 226.688Z" fill="#F2B3C1" stroke="black" stroke-miterlimit="10" stroke-linecap="round"/>
<path d="M349.125 225.406C349.179 226.495 348.854 227.568 348.206 228.444C347.557 229.319 346.625 229.943 345.569 230.208C344.512 230.473 343.396 230.364 342.411 229.899C341.425 229.433 340.632 228.641 340.166 227.656C339.7 226.671 339.589 225.555 339.854 224.498C340.118 223.441 340.741 222.509 341.616 221.86C342.491 221.21 343.564 220.885 344.652 220.938C345.74 220.991 346.777 221.42 347.584 222.152C348.043 222.566 348.415 223.067 348.679 223.625C348.944 224.184 349.095 224.789 349.125 225.406Z" fill="#FF6406" stroke="#070707" stroke-miterlimit="10" stroke-linecap="round"/>
<path d="M320.915 235.347C320.969 236.435 320.645 237.509 319.996 238.384C319.348 239.26 318.416 239.884 317.359 240.149C316.302 240.414 315.186 240.305 314.201 239.84C313.216 239.374 312.423 238.582 311.956 237.597C311.49 236.612 311.38 235.496 311.644 234.439C311.909 233.382 312.531 232.45 313.406 231.8C314.281 231.151 315.354 230.825 316.443 230.879C317.531 230.932 318.567 231.361 319.374 232.093C319.833 232.507 320.205 233.008 320.47 233.566C320.734 234.125 320.886 234.73 320.915 235.347Z" fill="#FF6406" stroke="#070707" stroke-miterlimit="10" stroke-linecap="round"/>
<path d="M307.777 235.731C307.457 234.941 307.147 234.109 306.846 233.235C306.549 232.362 306.261 231.445 305.997 230.49C304.947 226.679 304.357 222.757 304.24 218.806C303.403 218.723 302.559 218.749 301.729 218.883C300.655 219.047 299.641 219.487 298.787 220.16C296.91 221.677 296.502 224.403 297.093 227.149C297.683 229.894 299.272 232.659 301.413 234.258C302.49 235.04 303.749 235.535 305.07 235.698C305.968 235.821 306.877 235.832 307.777 235.731Z" fill="#F2B3C1" stroke="black" stroke-miterlimit="10" stroke-linecap="round"/>
<path d="M304.24 218.806C304.24 218.806 308.968 218.552 314.699 215.35C320.43 212.149 327.179 206 331.173 194.206C333.054 197.97 335.584 201.372 338.646 204.258C343.653 208.918 351.203 212.859 361.374 209.97C361.586 209.912 361.811 209.859 362.051 209.816C362.291 209.773 362.531 209.73 362.814 209.696C363.186 209.652 363.559 209.628 363.933 209.624C364.278 209.624 364.6 209.624 364.893 209.653C365.083 206.163 364.811 202.664 364.082 199.246C363.016 194.293 360.722 188.499 355.84 183.786C349.6 177.733 340.84 175.026 332.142 175.472C323.445 175.918 314.781 179.518 308.68 186.08C302.69 192.526 300.717 200.302 300.294 206.686C300.015 210.786 300.322 214.904 301.206 218.917C301.391 218.867 301.579 218.826 301.768 218.797C301.984 218.758 302.202 218.731 302.421 218.715C302.753 218.691 303.087 218.691 303.419 218.715C303.694 218.73 303.968 218.76 304.24 218.806Z" fill="#040400" stroke="#040400" stroke-miterlimit="10"/>
<path d="M361.994 159.502C361.994 164.253 360.346 168.857 357.333 172.529C354.319 176.202 350.125 178.715 345.465 179.642C340.806 180.569 335.969 179.852 331.779 177.612C327.59 175.373 324.306 171.75 322.488 167.361C320.67 162.972 320.43 158.088 321.809 153.542C323.188 148.995 326.101 145.068 330.051 142.429C334.001 139.789 338.744 138.601 343.472 139.067C348.2 139.533 352.62 141.623 355.979 144.982C357.889 146.887 359.403 149.15 360.436 151.642C361.468 154.134 361.997 156.805 361.994 159.502Z" fill="#040400" stroke="#040400" stroke-miterlimit="10"/>
<path d="M256.331 247.76C256.233 248.223 256.321 248.707 256.577 249.105C256.834 249.503 257.237 249.784 257.699 249.886C258.045 249.962 258.406 249.933 258.736 249.804C259.066 249.674 259.35 249.45 259.552 249.159C259.754 248.868 259.865 248.523 259.872 248.169C259.878 247.815 259.779 247.467 259.587 247.169C259.396 246.871 259.12 246.636 258.795 246.495C258.47 246.354 258.11 246.312 257.762 246.376C257.413 246.439 257.091 246.604 256.836 246.851C256.582 247.097 256.406 247.414 256.331 247.76Z" fill="#040400"/>
<path d="M278.128 253.942C278.028 254.405 278.116 254.889 278.373 255.286C278.629 255.684 279.033 255.964 279.496 256.064C279.725 256.115 279.962 256.12 280.192 256.079C280.423 256.037 280.644 255.951 280.841 255.824C281.038 255.698 281.208 255.533 281.342 255.34C281.475 255.147 281.569 254.93 281.618 254.701C281.67 254.471 281.676 254.233 281.635 254C281.595 253.768 281.509 253.546 281.382 253.347C281.256 253.148 281.091 252.976 280.897 252.842C280.704 252.707 280.486 252.611 280.255 252.561C280.025 252.511 279.787 252.507 279.555 252.55C279.323 252.592 279.102 252.68 278.904 252.809C278.706 252.937 278.536 253.103 278.403 253.298C278.269 253.492 278.176 253.712 278.128 253.942Z" fill="#040400"/>
<path d="M267.899 257.422L269.925 256.4L271.955 255.382C271.981 255.369 272.003 255.349 272.019 255.324C272.035 255.3 272.044 255.272 272.047 255.243C272.049 255.213 272.044 255.183 272.03 255.155C272.016 255.128 271.996 255.105 271.97 255.09L270.16 254.048L268.327 253.006L269.767 247.923L271.207 242.845" stroke="black" stroke-miterlimit="10" stroke-linecap="round"/>
<path d="M257.935 262.88C258.184 263.923 258.719 264.875 259.48 265.63C260.282 266.431 261.273 267.016 262.36 267.334C263.542 267.687 264.795 267.72 265.994 267.43C267.142 267.156 268.186 266.554 268.999 265.698" stroke="black" stroke-miterlimit="10" stroke-linecap="round"/>
<path d="M265.36 236.744L259.879 236.475L254.402 236.206" stroke="black" stroke-miterlimit="10" stroke-linecap="round"/>
<path d="M279.674 242.283L284.675 244.717L289.672 247.15" stroke="black" stroke-miterlimit="10" stroke-linecap="round"/>
<path d="M246.501 255.109C246.269 256.175 246.414 257.288 246.911 258.258C247.408 259.229 248.226 259.998 249.226 260.433C250.227 260.868 251.347 260.943 252.396 260.644C253.445 260.346 254.358 259.693 254.98 258.797C255.601 257.901 255.893 256.817 255.805 255.73C255.717 254.643 255.254 253.62 254.497 252.835C253.739 252.051 252.732 251.554 251.649 251.428C250.566 251.303 249.472 251.557 248.555 252.147C247.505 252.823 246.766 253.888 246.501 255.109Z" fill="#FF6406" stroke="#070707" stroke-miterlimit="10" stroke-linecap="round"/>
<path d="M274.423 263.226C274.192 264.289 274.338 265.399 274.834 266.368C275.331 267.336 276.147 268.102 277.145 268.536C278.143 268.969 279.261 269.044 280.307 268.746C281.354 268.448 282.265 267.797 282.885 266.902C283.505 266.008 283.796 264.927 283.709 263.842C283.621 262.758 283.16 261.737 282.404 260.954C281.649 260.171 280.645 259.675 279.564 259.549C278.483 259.423 277.392 259.676 276.477 260.264C275.956 260.598 275.507 261.032 275.154 261.54C274.802 262.048 274.553 262.621 274.423 263.226Z" fill="#FF6406" stroke="#070707" stroke-miterlimit="10" stroke-linecap="round"/>
<path d="M285.861 249.882L283.048 249.09L280.24 248.298C279.444 248.074 278.613 248.009 277.792 248.106C276.97 248.202 276.175 248.462 275.455 248.869C274.943 249.153 274.474 249.509 274.063 249.925C273.661 250.339 273.317 250.805 273.04 251.312L270.16 250.424L267.28 249.541C267.434 248.064 267.062 246.581 266.229 245.352C265.397 244.122 264.158 243.226 262.73 242.821L259.12 241.798L255.52 240.781C253.925 240.368 252.231 240.597 250.802 241.418C249.373 242.239 248.323 243.587 247.876 245.173C247.429 246.759 247.621 248.458 248.411 249.904C249.201 251.35 250.526 252.429 252.103 252.91L255.703 253.928L259.298 254.941C259.555 255.013 259.816 255.069 260.08 255.109C260.893 255.23 261.721 255.191 262.519 254.994C263.067 254.858 263.595 254.649 264.088 254.374C264.65 254.06 265.16 253.66 265.6 253.189C266.036 252.723 266.399 252.194 266.675 251.619L269.498 252.488L272.315 253.352C272.198 254.048 272.198 254.758 272.315 255.454C272.44 256.153 272.68 256.826 273.026 257.446C273.431 258.167 273.974 258.802 274.624 259.314C275.272 259.827 276.016 260.206 276.813 260.427L279.626 261.219L282.439 262.011C282.693 262.085 282.953 262.142 283.216 262.179C283.472 262.218 283.73 262.24 283.989 262.246C285.523 262.283 287.018 261.759 288.193 260.772C289.368 259.786 290.142 258.404 290.372 256.887C290.601 255.37 290.268 253.821 289.437 252.531C288.606 251.242 287.333 250.299 285.856 249.882H285.861ZM263.027 252.488C262.551 252.745 262.029 252.908 261.491 252.968C260.95 253.03 260.403 252.986 259.879 252.838L256.283 251.84L252.683 250.827C251.627 250.529 250.732 249.824 250.195 248.866C249.659 247.908 249.525 246.777 249.823 245.72C250.12 244.663 250.826 243.768 251.784 243.232C252.741 242.695 253.873 242.561 254.93 242.859L258.53 243.872L262.125 244.885C262.65 245.031 263.14 245.278 263.569 245.614C263.998 245.95 264.356 246.367 264.624 246.841C264.891 247.316 265.063 247.838 265.128 248.379C265.194 248.919 265.152 249.467 265.005 249.992C264.859 250.516 264.609 251.006 264.271 251.432C263.931 251.863 263.508 252.222 263.027 252.488ZM288.136 257.072C287.84 258.131 287.136 259.029 286.179 259.569C285.221 260.109 284.088 260.247 283.029 259.952L280.24 259.141L277.427 258.349C276.904 258.203 276.414 257.955 275.987 257.619C275.561 257.283 275.205 256.865 274.941 256.39C274.672 255.917 274.501 255.395 274.437 254.854C274.375 254.313 274.419 253.766 274.567 253.242C274.712 252.718 274.96 252.228 275.296 251.802C275.635 251.375 276.054 251.018 276.53 250.75C277.487 250.215 278.617 250.08 279.674 250.376L282.487 251.168L285.299 251.96C285.824 252.106 286.315 252.355 286.744 252.691C287.173 253.027 287.531 253.444 287.799 253.919C288.066 254.394 288.237 254.917 288.303 255.458C288.368 255.999 288.326 256.547 288.179 257.072H288.136Z" fill="#84A1E5" stroke="#070707" stroke-miterlimit="10" stroke-linecap="round"/>
<path d="M211.73 425.178C211.267 424.618 210.741 424.116 210.16 423.68C209.303 423.017 208.325 422.527 207.28 422.24C205.345 421.765 203.304 421.992 201.52 422.878C200.385 423.416 199.339 424.125 198.419 424.981L198.175 425.211L197.925 425.442L186.021 436.16L174.103 446.888L173.68 447.248L173.253 447.603C172.355 448.363 171.617 449.295 171.085 450.345C170.552 451.394 170.235 452.54 170.152 453.714C170.046 454.856 170.18 456.009 170.545 457.097C170.911 458.184 171.501 459.184 172.277 460.03C173.052 460.876 173.996 461.55 175.048 462.009C176.1 462.468 177.237 462.701 178.384 462.694C179.562 462.719 180.733 462.507 181.828 462.072C182.923 461.637 183.919 460.987 184.759 460.16L185.152 459.762L185.551 459.373L197.325 448.549L209.095 437.72C210.095 436.778 210.967 435.708 211.687 434.538C212.791 432.728 213.693 430.328 213.035 427.818C212.924 427.402 212.776 426.997 212.594 426.608C212.358 426.102 212.068 425.622 211.73 425.178Z" fill="#ECE7E1" stroke="black" stroke-miterlimit="10" stroke-linecap="round"/>
<path d="M262.053 329.782C261.981 329.139 261.923 328.477 261.885 327.786C261.846 327.094 261.827 326.379 261.832 325.64C261.84 323.531 262.033 321.427 262.408 319.352C262.718 317.62 263.149 315.912 263.699 314.24C262.967 314.001 262.207 313.859 261.438 313.818C260.445 313.756 259.453 313.953 258.558 314.389C256.581 315.387 255.299 317.662 254.91 320.149C254.521 322.635 255.025 325.342 256.614 327.19C257.425 328.108 258.455 328.803 259.609 329.211C260.397 329.503 261.218 329.694 262.053 329.782Z" fill="#D87D61" stroke="black" stroke-miterlimit="10" stroke-linecap="round"/>
<path d="M234.813 438.243L228.602 432.373L222.39 426.498C220.607 425.149 218.509 424.28 216.294 423.973C212.733 423.527 208.134 424.712 204.05 431.255L195.851 445.347L187.648 459.44C186.599 461.378 186.318 463.64 186.861 465.776C187.114 466.848 187.58 467.858 188.232 468.746C188.884 469.634 189.708 470.382 190.655 470.944C191.602 471.507 192.652 471.873 193.744 472.021C194.835 472.169 195.945 472.095 197.008 471.805C198.149 471.518 199.22 471.005 200.159 470.296C201.097 469.587 201.883 468.696 202.47 467.677L207.794 459.517L213.117 451.357L223.965 444.781L234.813 438.243Z" fill="#ECE7E1" stroke="black" stroke-miterlimit="10" stroke-linecap="round"/>
<path d="M169.216 382.822C169.216 383.954 168.824 385.05 168.107 385.925C167.389 386.799 166.391 387.398 165.282 387.619C164.173 387.841 163.021 387.671 162.023 387.138C161.025 386.606 160.242 385.744 159.808 384.7C159.374 383.655 159.315 382.492 159.642 381.409C159.969 380.326 160.661 379.39 161.601 378.76C162.54 378.13 163.669 377.846 164.795 377.954C165.921 378.063 166.974 378.559 167.776 379.357C168.234 379.81 168.597 380.35 168.844 380.945C169.091 381.54 169.218 382.178 169.216 382.822Z" fill="#040400" stroke="#040400" stroke-miterlimit="10"/>
<path d="M212.45 452.418L214.979 448.323L217.514 444.229" stroke="black" stroke-miterlimit="10" stroke-linecap="round"/>
<path d="M424.326 378.69C424.326 378.21 423.093 377.773 421.048 377.432C418.345 377.032 415.619 376.809 412.888 376.765C412.849 374.044 412.565 371.332 412.038 368.662C411.592 366.622 411.006 365.389 410.363 365.389C409.72 365.389 409.129 366.622 408.683 368.662C408.159 371.332 407.874 374.044 407.833 376.765C405.102 376.81 402.376 377.032 399.673 377.432C397.629 377.773 396.395 378.21 396.395 378.69C396.395 379.17 397.629 379.606 399.673 379.947C402.376 380.347 405.102 380.57 407.833 380.614C407.874 383.335 408.159 386.047 408.683 388.717C409.129 390.757 409.72 391.99 410.363 391.99C411.006 391.99 411.592 390.757 412.038 388.717C412.565 386.047 412.849 383.335 412.888 380.614C415.619 380.57 418.345 380.347 421.048 379.947C423.093 379.606 424.326 379.17 424.326 378.69Z" fill="url(#paint1_linear_484_2125)" stroke="black" stroke-miterlimit="10" stroke-linecap="round"/>
<path d="M162.16 244.438C162.16 243.853 160.653 243.315 158.157 242.902C154.86 242.413 151.534 242.142 148.202 242.091C148.15 238.771 147.803 235.462 147.165 232.203C146.618 229.712 145.902 228.205 145.12 228.205C144.338 228.205 143.618 229.712 143.07 232.203C142.432 235.462 142.085 238.771 142.034 242.091C138.701 242.142 135.375 242.413 132.078 242.902C129.582 243.315 128.075 243.862 128.075 244.438C128.075 245.014 129.582 245.557 132.078 245.974C135.365 246.458 138.679 246.728 142 246.781C142.051 250.101 142.398 253.41 143.037 256.669C143.584 259.16 144.299 260.667 145.086 260.667C145.874 260.667 146.584 259.16 147.131 256.669C147.77 253.41 148.117 250.101 148.168 246.781C151.5 246.729 154.826 246.46 158.123 245.974C160.629 245.557 162.16 245.019 162.16 244.438Z" fill="url(#paint2_linear_484_2125)" stroke="black" stroke-miterlimit="10" stroke-linecap="round"/>
<path d="M435.597 207.411C430.984 208.371 428.147 209.37 426.222 211.29C424.298 213.21 423.299 216.051 422.344 220.664C422.325 220.767 422.271 220.86 422.191 220.927C422.111 220.994 422.009 221.031 421.905 221.031C421.8 221.031 421.699 220.994 421.619 220.927C421.538 220.86 421.484 220.767 421.466 220.664C420.506 216.051 419.507 213.21 417.587 211.29C415.667 209.37 412.83 208.362 408.213 207.411C408.11 207.393 408.017 207.338 407.95 207.258C407.883 207.178 407.846 207.077 407.846 206.972C407.846 206.867 407.883 206.766 407.95 206.686C408.017 206.606 408.11 206.552 408.213 206.533C412.83 205.573 415.667 204.574 417.587 202.654C419.507 200.734 420.515 197.893 421.466 193.28C421.484 193.177 421.538 193.084 421.619 193.017C421.699 192.95 421.8 192.913 421.905 192.913C422.009 192.913 422.111 192.95 422.191 193.017C422.271 193.084 422.325 193.177 422.344 193.28C423.304 197.893 424.302 200.73 426.222 202.654C428.142 204.579 430.984 205.582 435.597 206.533C435.7 206.552 435.793 206.606 435.86 206.686C435.927 206.766 435.963 206.867 435.963 206.972C435.963 207.077 435.927 207.178 435.86 207.258C435.793 207.338 435.7 207.393 435.597 207.411Z" fill="url(#paint3_linear_484_2125)" stroke="black" stroke-miterlimit="10" stroke-linecap="round"/>
<path d="M134.017 271.242C131.358 271.813 129.697 272.432 128.555 273.574C127.413 274.717 126.793 276.378 126.222 279.037C126.206 279.116 126.163 279.187 126.1 279.238C126.038 279.289 125.96 279.316 125.879 279.316C125.798 279.316 125.72 279.289 125.658 279.238C125.595 279.187 125.552 279.116 125.536 279.037C124.965 276.378 124.345 274.717 123.203 273.574C122.061 272.432 120.4 271.813 117.741 271.242C117.662 271.225 117.591 271.182 117.54 271.12C117.489 271.057 117.461 270.979 117.461 270.898C117.461 270.818 117.489 270.74 117.54 270.677C117.591 270.614 117.662 270.571 117.741 270.555C120.4 269.984 122.061 269.365 123.203 268.222C124.345 267.08 124.965 265.419 125.536 262.76C125.552 262.681 125.595 262.61 125.658 262.559C125.72 262.508 125.798 262.48 125.879 262.48C125.96 262.48 126.038 262.508 126.1 262.559C126.163 262.61 126.206 262.681 126.222 262.76C126.793 265.419 127.413 267.08 128.555 268.222C129.697 269.365 131.358 269.984 134.017 270.555C134.096 270.571 134.167 270.614 134.218 270.677C134.269 270.74 134.297 270.818 134.297 270.898C134.297 270.979 134.269 271.057 134.218 271.12C134.167 271.182 134.096 271.225 134.017 271.242Z" fill="url(#paint4_linear_484_2125)" stroke="black" stroke-miterlimit="10" stroke-linecap="round"/>
<path d="M424.326 406.654C423.104 406.656 421.919 406.234 420.974 405.46C420.028 404.685 419.38 403.607 419.141 402.408C418.901 401.21 419.085 399.965 419.661 398.887C420.237 397.809 421.169 396.964 422.298 396.496C423.427 396.029 424.684 395.967 425.853 396.322C427.023 396.678 428.033 397.428 428.711 398.444C429.389 399.461 429.694 400.682 429.573 401.898C429.451 403.114 428.912 404.251 428.046 405.114C427.059 406.098 425.721 406.652 424.326 406.654ZM424.326 399.008C423.771 399.007 423.231 399.199 422.801 399.551C422.371 399.903 422.076 400.393 421.968 400.938C421.859 401.483 421.943 402.049 422.205 402.54C422.467 403.03 422.891 403.414 423.405 403.626C423.919 403.838 424.49 403.866 425.022 403.703C425.553 403.541 426.012 403.199 426.32 402.736C426.628 402.273 426.765 401.718 426.709 401.165C426.652 400.612 426.406 400.095 426.011 399.704C425.79 399.483 425.528 399.307 425.238 399.188C424.949 399.068 424.639 399.007 424.326 399.008Z" fill="url(#paint5_linear_484_2125)" stroke="black" stroke-miterlimit="10" stroke-linecap="round"/>
<path d="M210.947 392.082C211.317 392.235 211.706 392.389 212.123 392.533C212.541 392.677 212.973 392.821 213.429 392.955C214.082 393.142 214.71 393.296 215.306 393.435C215.901 393.574 216.472 393.651 217 393.718" fill="#ECE7E1"/>
<path d="M210.947 392.082C211.317 392.235 211.706 392.389 212.123 392.533C212.541 392.677 212.973 392.821 213.429 392.955C214.082 393.142 214.71 393.296 215.306 393.435C215.901 393.574 216.472 393.651 217 393.718" stroke="black" stroke-miterlimit="10" stroke-linecap="round"/>
<path d="M370 366.594C373.135 357.392 375.712 349.837 377.503 344.586L380.301 336.373L383.661 340.626C386.541 344.269 391.821 350.95 401.421 363.104L404.728 334.736L408.031 306.368C407.746 309.522 407.024 312.62 405.885 315.574C403.841 321.07 400.294 325.881 395.647 329.456C393.414 331.171 390.968 332.588 388.37 333.67C383.94 335.546 379.096 336.231 374.32 335.658C366.952 334.746 361.499 331.002 357.813 327.33C355.454 325 353.45 322.336 351.866 319.424C354.496 326.326 357.133 333.226 359.776 340.122C362.419 347.018 365.077 353.91 367.749 360.8C368.037 361.539 368.455 362.614 368.867 363.68C369.28 364.746 369.698 365.85 370 366.594Z" fill="#DBCAF4" stroke="black" stroke-miterlimit="10" stroke-linecap="round"/>
<path d="M430.192 431.797L423.847 460.506L417.501 489.214" fill="#DBCAF4"/>
<path d="M430.192 431.797L423.847 460.506L417.501 489.214" stroke="black" stroke-miterlimit="10" stroke-linecap="round"/>
<path d="M267.808 225.642C267.933 225.522 268.058 225.392 268.187 225.253C268.317 225.114 268.437 224.974 268.566 224.821C268.865 224.459 269.14 224.079 269.392 223.683C269.606 223.344 269.802 222.993 269.978 222.632" stroke="#070707" stroke-miterlimit="10" stroke-linecap="round"/>
<path d="M146.454 367.933C146.042 366.805 145.73 365.581 145.422 364.419C145.165 363.347 144.823 362.298 144.4 361.28C143.656 359.638 142.773 357.632 141.563 356.062C140.354 354.493 138.818 353.355 136.763 353.461C136.763 353.461 135.894 353.504 135.242 354.795C134.589 356.086 134.157 358.635 135.016 363.579C135.592 366.873 136.531 370.092 137.814 373.179C139.101 376.262 140.71 379.2 142.614 381.944L147.582 389.144L152.55 396.344C153.07 397.086 153.491 397.893 153.803 398.744C154.118 399.592 154.309 400.481 154.37 401.384C154.52 402.629 154.235 403.887 153.563 404.946C152.824 405.958 151.514 406.669 149.282 406.683C150.379 407.931 151.335 409.296 152.133 410.754C153.318 412.995 154.053 415.654 152.133 417.325C151.341 418.084 150.296 418.525 149.2 418.563C147.357 418.621 144.77 417.565 141.774 413.101C141.774 413.101 140.757 415.616 138.707 416.662C136.658 417.709 133.581 417.282 129.458 411.382C129.059 412.078 128.465 412.641 127.749 413C127.032 413.359 126.226 413.5 125.43 413.403C122.67 413.043 118.418 409.933 112.442 398.936C111.613 397.4 110.762 395.875 109.888 394.362C109.019 392.85 108.136 391.338 107.253 389.835C104.402 384.992 100.053 376.395 98.6367 366.795C97.2207 357.195 98.6799 346.582 107.445 337.76C109.357 335.83 111.56 334.21 113.973 332.96C116.379 331.707 118.986 330.886 121.677 330.536C125.98 329.965 130.356 330.682 134.253 332.595C138.808 334.813 143.555 338.946 147.962 346.126C149.629 348.879 151.105 351.743 152.378 354.699C154.432 359.499 156.184 365.317 154.97 369.411C154.687 370.378 154.067 371.21 153.222 371.758C152.809 372.03 152.346 372.218 151.86 372.309C151.374 372.4 150.874 372.394 150.39 372.291L150.232 372.253L150.074 372.205C149.179 371.928 148.393 371.377 147.827 370.63C147.226 369.812 146.762 368.901 146.454 367.933Z" fill="#F2B3C1" stroke="black" stroke-miterlimit="10" stroke-linecap="round"/>
<path d="M130.389 377.634C132.04 380.725 133.849 383.917 135.827 387.181C137.805 390.445 139.969 393.781 142.312 397.17C143.48 398.846 144.645 400.472 145.806 402.046C146.968 403.621 148.134 405.147 149.291 406.626" stroke="black" stroke-miterlimit="10" stroke-linecap="round"/>
<path d="M122.608 382.602C122.608 382.602 125.968 388.506 130.062 395.264C134.157 402.022 138.938 409.63 141.784 413.024" stroke="black" stroke-miterlimit="10" stroke-linecap="round"/>
<path d="M115.297 387.258L122.382 399.296L129.467 411.335" stroke="black" stroke-miterlimit="10" stroke-linecap="round"/>
<path d="M181.019 268.938C182.853 272.442 184.653 276.171 186.371 280.126C188.089 284.082 189.731 288.286 191.243 292.674C196.254 307.317 199.274 322.567 200.224 338.014C200.963 350.015 200.55 362.059 198.99 373.981" stroke="black" stroke-miterlimit="10" stroke-linecap="round"/>
<path d="M224.911 255.858C224.575 256.556 224.319 257.29 224.147 258.046C223.885 259.189 223.83 260.369 223.984 261.531C224.253 263.455 225.079 265.259 226.36 266.72C227.043 267.521 227.837 268.221 228.717 268.798C228.46 269.666 228.331 270.567 228.333 271.472C228.311 273.103 228.762 274.706 229.632 276.086C230.502 277.466 231.753 278.564 233.234 279.248C234.649 279.91 236.212 280.192 237.77 280.069C237.773 281.018 237.925 281.961 238.221 282.862C238.783 284.719 239.987 286.316 241.619 287.365C242.864 288.153 244.296 288.596 245.768 288.651C247.24 288.706 248.7 288.37 250 287.677C250.237 288.543 250.545 289.387 250.922 290.202C251.427 291.29 252.055 292.318 252.794 293.264C253.221 293.812 253.687 294.33 254.186 294.814C254.604 295.223 255.044 295.608 255.506 295.966" fill="#F6C34C"/>
<path d="M224.911 255.858C224.575 256.556 224.319 257.29 224.147 258.046C223.885 259.189 223.83 260.369 223.984 261.531C224.253 263.455 225.079 265.259 226.36 266.72C227.043 267.521 227.837 268.221 228.717 268.798C228.46 269.666 228.331 270.567 228.333 271.472C228.311 273.103 228.762 274.706 229.632 276.086C230.502 277.466 231.753 278.564 233.234 279.248C234.649 279.91 236.212 280.192 237.77 280.069C237.773 281.018 237.925 281.961 238.221 282.862C238.783 284.719 239.987 286.316 241.619 287.365C242.864 288.153 244.296 288.596 245.768 288.651C247.24 288.706 248.7 288.37 250 287.677C250.237 288.543 250.545 289.387 250.922 290.202C251.427 291.29 252.055 292.318 252.794 293.264C253.221 293.812 253.687 294.33 254.186 294.814C254.604 295.223 255.044 295.608 255.506 295.966" stroke="#070707" stroke-miterlimit="10" stroke-linecap="round"/>
<path d="M174.304 423.714L184.111 411.762L193.912 399.81" fill="#F6C34C"/>
<path d="M174.304 423.714L184.111 411.762L193.912 399.81" stroke="#070707" stroke-miterlimit="10" stroke-linecap="round"/>
<path d="M257.262 269.902C257.601 270.575 258.094 271.157 258.702 271.602C259.705 272.336 261.285 272.845 263.584 271.933" stroke="black" stroke-miterlimit="10" stroke-linecap="round"/>
<path d="M370.187 330.104C370.757 329.033 371.555 328.101 372.525 327.373C373.521 326.62 374.685 326.119 375.917 325.914C377.149 325.708 378.413 325.804 379.6 326.192C380.819 326.581 381.942 327.226 382.893 328.083" stroke="black" stroke-miterlimit="10" stroke-linecap="round"/>
<path d="M196.12 462.138C195.563 462.761 195.08 463.448 194.68 464.182C194.059 465.31 193.649 466.541 193.47 467.816C193.37 468.554 193.349 469.301 193.408 470.043C193.453 470.611 193.543 471.174 193.677 471.728" stroke="black" stroke-miterlimit="10" stroke-linecap="round"/>
<path d="M190.663 460.184C190.053 460.889 189.55 461.68 189.17 462.531C188.259 464.476 187.947 466.648 188.272 468.771" stroke="black" stroke-miterlimit="10" stroke-linecap="round"/>
<path d="M173.906 461.403C173.983 460.939 174.095 460.482 174.242 460.035C174.416 459.49 174.637 458.962 174.904 458.456C175.529 457.266 176.386 456.213 177.424 455.36C178.104 454.796 178.846 454.313 179.637 453.92" stroke="black" stroke-miterlimit="10" stroke-linecap="round"/>
<path d="M170.666 457.395C170.812 456.788 171.009 456.193 171.256 455.619C171.597 454.822 172.028 454.066 172.542 453.368C173.123 452.581 173.806 451.874 174.573 451.266C175.106 450.841 175.676 450.465 176.277 450.142" stroke="black" stroke-miterlimit="10" stroke-linecap="round"/>
<circle cx="120" cy="89" r="7" fill="#BDECE6"/>
<circle cx="488" cy="11" r="10" fill="#F6C34C"/>
<circle cx="130" cy="632" r="7" fill="#FC762B"/>
<circle cx="565" cy="535" r="7" fill="#F2B3C1"/>
<circle cx="56" cy="499" r="10" fill="#DBCAF4"/>
<circle cx="10" cy="232" r="10" fill="#F2B3C1"/>
<circle cx="395" cy="625" r="10" fill="#A5C3FF"/>
<defs>
<linearGradient id="paint0_linear_484_2125" x1="100" y1="112" x2="439.557" y2="619.239" gradientUnits="userSpaceOnUse">
<stop stop-color="#FFD0A5"/>
<stop offset="1" stop-color="#D0F4CA"/>
</linearGradient>
<linearGradient id="paint1_linear_484_2125" x1="410.363" y1="365.389" x2="410.363" y2="391.99" gradientUnits="userSpaceOnUse">
<stop offset="0.26" stop-color="#FEC2D9"/>
<stop offset="0.75" stop-color="#A4C2FF"/>
</linearGradient>
<linearGradient id="paint2_linear_484_2125" x1="145.096" y1="228.205" x2="145.096" y2="260.667" gradientUnits="userSpaceOnUse">
<stop offset="0.31" stop-color="#FEC2D9"/>
<stop offset="0.75" stop-color="#A4C2FF"/>
</linearGradient>
<linearGradient id="paint3_linear_484_2125" x1="421.907" y1="192.92" x2="421.907" y2="221.024" gradientUnits="userSpaceOnUse">
<stop offset="0.31" stop-color="#FEC2D9"/>
<stop offset="0.88" stop-color="#A4C2FF"/>
</linearGradient>
<linearGradient id="paint4_linear_484_2125" x1="125.877" y1="262.482" x2="125.877" y2="279.315" gradientUnits="userSpaceOnUse">
<stop offset="0.31" stop-color="#FEC2D9"/>
<stop offset="0.75" stop-color="#A4C2FF"/>
</linearGradient>
<linearGradient id="paint5_linear_484_2125" x1="424.326" y1="396.128" x2="424.326" y2="406.654" gradientUnits="userSpaceOnUse">
<stop offset="0.22" stop-color="#FEC2D9"/>
<stop offset="0.75" stop-color="#A4C2FF"/>
</linearGradient>
</defs>
</svg>
