<svg width="640" height="640" viewBox="0 0 640 640" fill="none" xmlns="http://www.w3.org/2000/svg">
<g clip-path="url(#clip0_484_2123)">
<path d="M518.822 133.177C463.919 78.2742 374.903 78.2742 320 133.177C265.097 78.2743 176.081 78.2743 121.177 133.178C66.2742 188.081 66.2742 277.097 121.177 332C66.2742 386.903 66.2742 475.919 121.177 530.822C176.081 585.726 265.097 585.726 320 530.822C374.903 585.726 463.919 585.726 518.822 530.823C573.726 475.919 573.726 386.903 518.822 332C573.726 277.097 573.726 188.081 518.822 133.177Z" fill="#D9D9D9"/>
<path d="M518.822 133.177C463.919 78.2742 374.903 78.2742 320 133.177C265.097 78.2743 176.081 78.2743 121.177 133.178C66.2742 188.081 66.2742 277.097 121.177 332C66.2742 386.903 66.2742 475.919 121.177 530.822C176.081 585.726 265.097 585.726 320 530.822C374.903 585.726 463.919 585.726 518.822 530.823C573.726 475.919 573.726 386.903 518.822 332C573.726 277.097 573.726 188.081 518.822 133.177Z" fill="url(#paint0_linear_484_2123)"/>
<path d="M490.32 367.53C490.32 366.753 490.32 365.976 490.32 365.198C490.32 364.421 490.214 363.648 490.122 362.898C489.841 360.748 489.406 358.62 488.82 356.532C488.259 354.443 487.592 352.392 486.911 350.331C484.878 344.231 482.685 338.189 480.333 332.202C477.981 326.216 475.443 320.308 472.72 314.479C470.629 318.655 468.635 322.878 466.74 327.147C464.845 331.416 463.036 335.721 461.312 340.064C459.67 344.231 457.876 348.537 456.482 352.944C455.088 357.351 454.085 361.845 454.026 366.394C453.985 368.583 454.227 370.768 454.748 372.894C455.261 375.019 456.132 377.042 457.324 378.874C459.123 381.538 461.624 383.652 464.55 384.983C467.464 386.346 470.693 386.894 473.893 386.57C477.086 386.198 480.122 384.982 482.688 383.046C485.277 381.135 487.322 378.583 488.622 375.64C489.169 374.369 489.582 373.045 489.855 371.689C490.129 370.319 490.285 368.927 490.32 367.53Z" fill="url(#paint1_linear_484_2123)" stroke="black" stroke-miterlimit="10" stroke-linecap="round"/>
<path d="M460.075 488.97C460.075 494.67 448.805 499.826 430.584 503.562C412.363 507.297 387.192 509.601 359.39 509.601C331.587 509.601 306.416 507.301 288.196 503.562C269.975 499.822 258.705 494.67 258.705 488.97C258.705 483.271 269.975 478.114 288.196 474.384C306.416 470.653 331.587 468.339 359.39 468.339C387.192 468.339 412.363 470.639 430.584 474.384C448.805 478.128 460.075 483.276 460.075 488.97Z" fill="#040400" stroke="#040400" stroke-miterlimit="10"/>
<path d="M339.863 196.544C339.886 187.297 336.261 178.414 329.775 171.823C324.26 166.185 316.959 162.637 309.119 161.784C301.278 160.932 293.385 162.828 286.788 167.15C281.372 170.711 277.053 175.707 274.313 181.58C273.395 181.347 272.464 181.171 271.525 181.051C270.567 180.929 269.602 180.868 268.636 180.867C265.444 180.878 262.287 181.542 259.361 182.817C256.434 184.092 253.798 185.952 251.616 188.282C247.13 193.094 244.613 199.416 244.565 205.995C244.518 212.574 246.942 218.931 251.359 223.808C253.46 226.119 256 227.989 258.831 229.307C261.663 230.625 264.729 231.366 267.85 231.485L288.357 231.398L308.868 231.311C317.356 230.443 325.213 226.431 330.893 220.064C336.687 213.602 339.882 205.223 339.863 196.544Z" fill="#EAF0FA" stroke="black" stroke-miterlimit="10" stroke-linecap="round"/>
<path d="M328.4 285.807H325.428C325.423 279.498 323.963 273.276 321.161 267.624C318.358 261.971 314.29 257.042 309.271 253.219C304.253 249.396 298.42 246.783 292.227 245.582C286.033 244.382 279.646 244.626 273.563 246.297C273.618 245.667 273.664 245.032 273.696 244.398C273.729 243.763 273.742 243.114 273.742 242.47C273.734 232.115 269.806 222.147 262.747 214.57C255.689 206.993 246.023 202.37 235.694 201.63C225.365 200.89 215.14 204.088 207.073 210.581C199.006 217.074 193.696 226.38 192.212 236.628C191.568 236.564 190.919 236.518 190.271 236.486C189.622 236.453 188.964 236.44 188.307 236.44C182.566 236.443 176.891 237.651 171.648 239.987C166.404 242.323 161.71 245.734 157.868 249.999C154.027 254.264 151.124 259.289 149.347 264.747C147.57 270.205 146.96 275.976 147.555 281.685C147.697 283.076 147.912 284.458 148.199 285.825C141.829 286.052 135.796 288.741 131.369 293.327C126.943 297.913 124.469 304.038 124.468 310.412C124.467 313.644 125.103 316.843 126.34 319.829C127.576 322.815 129.388 325.527 131.673 327.812C133.958 330.097 136.671 331.91 139.656 333.146C142.642 334.382 145.842 335.018 149.073 335.018H328.4C334.925 335.016 341.183 332.424 345.797 327.81C350.411 323.195 353.004 316.938 353.005 310.412C353.006 307.181 352.37 303.981 351.133 300.995C349.897 298.01 348.085 295.297 345.8 293.012C343.515 290.727 340.802 288.915 337.816 287.679C334.831 286.442 331.631 285.806 328.4 285.807Z" fill="#EAF0FA" stroke="black" stroke-miterlimit="10" stroke-linecap="round"/>
<path d="M490.458 235.041H487.44C487.437 228.61 485.95 222.267 483.094 216.505C480.237 210.744 476.09 205.719 470.973 201.823C465.857 197.927 459.91 195.265 453.597 194.043C447.283 192.822 440.772 193.075 434.572 194.782C434.632 194.138 434.678 193.494 434.71 192.845C434.742 192.197 434.756 191.539 434.756 190.881C434.763 180.319 430.767 170.148 423.574 162.415C416.38 154.681 406.523 149.962 395.988 149.207C385.453 148.451 375.024 151.716 366.801 158.344C358.577 164.972 353.171 174.47 351.671 184.924C351.013 184.864 350.355 184.818 349.693 184.786C349.031 184.754 348.364 184.736 347.692 184.736C336.618 184.736 325.998 189.135 318.167 196.965C310.337 204.796 305.938 215.416 305.938 226.49C305.937 229.371 306.233 232.244 306.821 235.064C300.329 235.293 294.179 238.033 289.667 242.707C285.155 247.381 282.634 253.624 282.634 260.12C282.635 266.77 285.278 273.147 289.98 277.85C294.682 282.552 301.059 285.194 307.709 285.195H490.458C497.108 285.195 503.486 282.553 508.188 277.851C512.891 273.148 515.532 266.771 515.532 260.12C515.533 256.827 514.885 253.566 513.625 250.523C512.365 247.481 510.518 244.716 508.19 242.387C505.861 240.058 503.097 238.211 500.054 236.95C497.012 235.69 493.751 235.041 490.458 235.041Z" fill="#EAF0FA" stroke="black" stroke-miterlimit="10" stroke-linecap="round"/>
<path d="M427.212 393.925C426.987 389.969 426.66 385.079 426.163 379.431C425.667 373.782 424.99 367.365 424.075 360.345C422.98 351.964 422.138 345.625 421.149 340.63C420.16 335.634 419.024 331.89 417.341 328.725C413.771 321.99 408.394 316.098 402.161 311.521C396.068 307.007 389.091 303.832 381.686 302.201C376.585 301.134 370.536 301.074 362.32 301.741C354.104 302.408 343.722 303.876 329.95 305.812L327.498 306.162L325.055 306.516C317.732 307.606 310.722 308.627 304.217 310.776C297.713 312.924 291.701 316.217 286.42 321.802C283.737 324.628 281.337 327.709 279.253 331.002C276.926 334.622 274.483 339.07 271.378 345.161C268.692 350.441 265.978 356.615 263.94 361.468C261.902 366.321 260.527 369.858 260.527 369.863L270.223 371.799L298.582 377.471L292.354 396.731L286.13 415.996L351.252 417.933L416.375 419.86C416.464 417.388 416.557 414.907 416.655 412.417C416.753 409.927 416.858 407.432 416.968 404.933C417.051 402.98 417.137 401.031 417.226 399.086C417.315 397.142 417.408 395.204 417.506 393.272L422.359 393.594L427.212 393.925Z" fill="#F6C34C" stroke="#070707" stroke-miterlimit="10" stroke-linecap="round"/>
<path d="M260.517 369.853L279.547 373.658L298.573 377.462L297.46 381.142L296.342 384.822L329.922 389.316L363.502 393.815V438.334L317.815 433.734L272.128 429.134C268.662 428.789 265.312 427.703 262.304 425.949C259.295 424.195 256.7 421.814 254.694 418.968C252.677 416.137 251.303 412.901 250.668 409.484C250.032 406.068 250.15 402.554 251.014 399.188C251.05 399.028 251.092 398.875 251.138 398.728C251.179 398.567 251.221 398.401 251.267 398.24L255.867 384.044L260.517 369.853Z" fill="#F2B3C1" stroke="black" stroke-miterlimit="10" stroke-linecap="round"/>
<path d="M258.82 450.648L280.325 454.788L301.825 458.928L312.718 416.033L323.606 373.133C322.148 370.942 320.406 368.953 318.427 367.218C313.284 362.558 306.546 360.056 299.608 360.23C295.466 360.276 291.384 361.227 287.648 363.018C283.274 365.161 279.472 368.314 276.558 372.218C274.019 375.594 272.1 379.394 270.89 383.442C267.624 394.399 265.527 405.618 263.783 416.888C262.04 428.158 260.66 439.479 258.82 450.648Z" fill="#F2B3C1" stroke="black" stroke-miterlimit="10" stroke-linecap="round"/>
<path d="M354.251 283.111L331.638 283.856L309.024 284.62C307.7 287.692 306.859 290.951 306.531 294.28C306.185 297.846 306.38 301.444 307.111 304.952C308.826 313.283 313.265 320.224 319.071 324.732C324.876 329.24 331.997 331.273 339.113 329.792C346.229 328.311 351.993 323.619 355.512 317.197C359.031 310.776 360.374 302.643 358.658 294.317C358.241 292.297 357.653 290.317 356.901 288.397C356.169 286.563 355.283 284.795 354.251 283.111Z" fill="#F2B3C1" stroke="black" stroke-miterlimit="10" stroke-linecap="round"/>
<path d="M259.464 447.846L282.883 451.559L306.306 455.28L302.594 478.082L298.881 500.88C282.423 498.304 265.944 495.775 249.445 493.294C232.946 490.813 216.469 488.282 200.014 485.7C199.997 485.696 199.982 485.689 199.97 485.679C199.957 485.668 199.947 485.655 199.94 485.64C199.931 485.615 199.931 485.587 199.94 485.562C200.262 484.382 200.69 483.233 201.219 482.13C201.878 480.721 202.729 479.409 203.749 478.234C208.924 472.36 216.859 472.254 225.222 472.378C233.584 472.502 242.384 472.774 249.289 467.659C251.68 465.857 253.673 463.58 255.14 460.97C256.98 457.805 258.558 453.573 259.464 447.846Z" fill="#DBCAF4" stroke="black" stroke-miterlimit="10" stroke-linecap="round"/>
<path d="M232.756 473.022C232.688 473.098 232.626 473.179 232.572 473.266C232.515 473.359 232.467 473.458 232.43 473.56C232.199 474.484 232.224 475.452 232.503 476.362C232.66 477.021 232.95 477.642 233.357 478.184C233.764 478.726 234.278 479.178 234.868 479.513C235.427 479.795 236.042 479.953 236.669 479.974C237.295 479.996 237.919 479.881 238.497 479.637C239.133 479.386 239.708 479.002 240.184 478.511C240.66 478.02 241.026 477.433 241.257 476.79C241.751 477.577 242.48 478.189 243.342 478.537C244.204 478.885 245.153 478.953 246.056 478.729C246.958 478.506 247.766 478.003 248.366 477.293C248.966 476.583 249.326 475.702 249.395 474.775C250.238 475.17 251.173 475.329 252.099 475.235C253.052 475.145 253.959 474.783 254.71 474.19C255.462 473.598 256.026 472.801 256.336 471.895C256.662 470.955 256.707 469.94 256.465 468.974C257.506 469.344 258.643 469.344 259.685 468.974C260.697 468.612 261.544 467.896 262.072 466.959C262.525 466.136 262.704 465.191 262.583 464.259C262.465 463.301 262.059 462.401 261.419 461.679C261.834 461.609 262.239 461.489 262.624 461.32C263.232 461.06 263.775 460.671 264.216 460.179C264.749 459.573 265.12 458.841 265.294 458.052C265.467 457.264 265.437 456.444 265.208 455.67C264.978 454.896 264.555 454.193 263.979 453.626C263.404 453.06 262.694 452.649 261.916 452.433C260.775 452.105 259.557 452.182 258.466 452.649C258.291 453.33 258.066 454.13 257.757 455.027C257.415 456.024 257.021 457.002 256.575 457.957C255.838 459.628 254.962 461.235 253.958 462.76C251.925 465.828 249.066 468.259 245.71 469.77C244.616 470.27 243.49 470.694 242.338 471.04C241.491 471.294 240.629 471.498 239.758 471.651C238.888 471.812 238.014 471.932 237.136 472.033C236.726 472.079 236.312 472.116 235.898 472.157C235.484 472.199 235.075 472.24 234.661 472.295C234.314 472.33 233.97 472.396 233.635 472.493C233.301 472.589 232.997 472.772 232.756 473.022Z" fill="#FC762B" stroke="#070707" stroke-miterlimit="10" stroke-linecap="round"/>
<path d="M200.147 485.64C200.063 485.628 199.978 485.647 199.908 485.695C199.874 485.72 199.846 485.752 199.825 485.789C199.803 485.825 199.789 485.865 199.784 485.907L199.48 487.567L199.176 489.228C199.113 489.604 199.128 489.989 199.221 490.358C199.313 490.728 199.482 491.075 199.715 491.376C200.189 491.994 200.882 492.406 201.651 492.526L232.554 497.237L263.457 501.947C263.763 501.996 264.075 501.982 264.376 501.907C264.676 501.832 264.958 501.697 265.205 501.51C265.453 501.323 265.659 501.088 265.813 500.819C265.967 500.551 266.065 500.254 266.102 499.946C266.113 499.848 266.153 499.755 266.218 499.68C266.283 499.605 266.369 499.552 266.465 499.527C266.562 499.502 266.664 499.506 266.758 499.539C266.852 499.571 266.934 499.632 266.994 499.711C267.162 500.227 267.395 500.719 267.689 501.174C268.109 501.834 268.703 502.366 269.405 502.711C269.517 502.764 269.632 502.812 269.75 502.853C269.861 502.893 269.975 502.927 270.09 502.954L274.998 503.704L279.906 504.454C280.156 504.492 280.41 504.479 280.654 504.417C280.898 504.355 281.128 504.244 281.328 504.091C281.527 503.938 281.695 503.748 281.82 503.531C281.946 503.314 282.027 503.074 282.059 502.826C282.071 502.727 282.113 502.634 282.178 502.56C282.244 502.485 282.33 502.431 282.426 502.406C282.522 502.381 282.624 502.385 282.717 502.418C282.811 502.451 282.893 502.511 282.952 502.591C284.207 504.271 286.072 505.391 288.145 505.71L291.848 506.17L295.528 506.63C295.859 506.681 296.198 506.666 296.523 506.586C296.849 506.506 297.156 506.362 297.426 506.164C297.696 505.965 297.924 505.715 298.097 505.428C298.27 505.141 298.385 504.822 298.435 504.491L298.743 502.467L299.052 500.438L249.62 493L200.147 485.64Z" fill="#84A1E5" stroke="#070707" stroke-miterlimit="10" stroke-linecap="round"/>
<path d="M274.414 496.708C274.962 492.515 276.456 488.502 278.784 484.973C282.611 479.26 289.737 473.859 302.902 475.111" stroke="#070707" stroke-miterlimit="10" stroke-linecap="round"/>
<path d="M334.117 306.456C334.267 306.785 334.282 307.16 334.159 307.5C334.06 307.749 333.892 307.963 333.674 308.118C333.456 308.272 333.198 308.36 332.931 308.371C332.664 308.381 332.4 308.314 332.171 308.178C331.941 308.041 331.756 307.841 331.638 307.602C331.544 307.284 331.567 306.943 331.704 306.641C331.84 306.338 332.081 306.096 332.382 305.957C332.683 305.818 333.024 305.792 333.343 305.883C333.661 305.975 333.936 306.178 334.117 306.456Z" fill="#020202"/>
<path d="M320.368 313.954C320.518 314.283 320.533 314.658 320.409 314.998C320.348 315.167 320.254 315.322 320.133 315.454C320.011 315.586 319.864 315.692 319.701 315.767C319.456 315.869 319.188 315.898 318.927 315.851C318.666 315.805 318.424 315.684 318.23 315.503C318.036 315.323 317.898 315.09 317.833 314.834C317.767 314.577 317.777 314.307 317.861 314.055C317.989 313.718 318.245 313.444 318.572 313.293C318.9 313.142 319.274 313.125 319.614 313.246C319.947 313.375 320.218 313.629 320.368 313.954Z" fill="#020202"/>
<path d="M326.27 317.367L324.6 316.82L322.949 316.291C322.928 316.284 322.909 316.271 322.894 316.255C322.879 316.238 322.869 316.218 322.864 316.196C322.86 316.174 322.861 316.152 322.868 316.13C322.874 316.109 322.886 316.09 322.903 316.075L324.163 315.067L325.428 314.065L323.735 310.385L322.042 306.705" stroke="black" stroke-miterlimit="10" stroke-linecap="round"/>
<path d="M330.47 321.521C330.437 320.746 330.615 319.977 330.985 319.295C331.367 318.592 331.946 318.015 332.649 317.633C333.353 317.252 334.152 317.083 334.95 317.147C335.79 317.221 336.59 317.541 337.25 318.067" stroke="black" stroke-miterlimit="10" stroke-linecap="round"/>
<path d="M327.227 302.385L331.247 301.208L335.272 300.035" stroke="black" stroke-miterlimit="10" stroke-linecap="round"/>
<path d="M318.68 306.346L315.46 309.106L312.24 311.866" stroke="black" stroke-miterlimit="10" stroke-linecap="round"/>
<path d="M359.123 305.886C359.252 305.003 359.362 304.046 359.427 302.974C359.491 301.902 359.505 300.789 359.454 299.588C359.329 296.585 358.798 293.613 357.876 290.752C358.902 290.361 360.002 290.204 361.096 290.292C361.644 290.343 362.177 290.499 362.665 290.752C364.436 291.695 365.462 293.972 365.637 296.433C365.811 298.894 365.131 301.612 363.493 303.448C362.843 304.163 362.062 304.747 361.193 305.168C360.533 305.486 359.838 305.727 359.123 305.886Z" fill="#F2B3C1" stroke="black" stroke-miterlimit="10" stroke-linecap="round"/>
<path d="M345.148 307.689C345.478 308.401 345.55 309.205 345.353 309.964C345.156 310.724 344.702 311.391 344.068 311.853C343.433 312.315 342.659 312.543 341.876 312.497C341.092 312.452 340.349 312.136 339.773 311.604C339.196 311.072 338.822 310.357 338.714 309.58C338.606 308.803 338.77 308.012 339.18 307.343C339.589 306.674 340.218 306.168 340.959 305.91C341.7 305.653 342.508 305.661 343.244 305.932C343.661 306.085 344.044 306.319 344.371 306.621C344.698 306.922 344.962 307.285 345.148 307.689Z" fill="#FF6406" stroke="#070707" stroke-miterlimit="10" stroke-linecap="round"/>
<path d="M325.129 321.296C325.459 322.008 325.531 322.812 325.334 323.571C325.137 324.331 324.682 324.998 324.048 325.46C323.414 325.922 322.639 326.15 321.856 326.104C321.073 326.059 320.33 325.743 319.753 325.211C319.177 324.679 318.803 323.964 318.694 323.187C318.586 322.41 318.751 321.619 319.161 320.95C319.57 320.281 320.199 319.775 320.94 319.517C321.681 319.26 322.489 319.267 323.225 319.539C323.642 319.692 324.025 319.926 324.352 320.228C324.679 320.529 324.943 320.892 325.129 321.296Z" fill="#FF6406" stroke="#070707" stroke-miterlimit="10" stroke-linecap="round"/>
<path d="M326.656 269.495C322.731 270.312 319.085 272.135 316.076 274.785C313.026 277.501 310.618 280.86 309.024 284.62L331.638 283.87L354.252 283.125C351.362 278.272 347.178 274.32 342.167 271.712C337.4 269.229 331.928 268.447 326.656 269.495Z" fill="#84A1E5" stroke="#070707" stroke-miterlimit="10" stroke-linecap="round"/>
<path d="M307.999 308.411C309.488 307.67 310.801 306.617 311.849 305.325C313.735 303.071 315.529 299.414 315.253 293.774C319.365 296.349 323.953 298.069 328.745 298.834C336.726 300.117 347.177 298.898 357.067 288.884C356.924 288.475 356.768 288.042 356.584 287.596C356.4 287.15 356.197 286.676 355.972 286.216C355.682 285.614 355.383 285.057 355.08 284.537C354.776 284.017 354.477 283.544 354.16 283.111L331.578 283.861L309.024 284.62C308.03 286.736 307.332 288.979 306.95 291.285C305.934 296.996 306.293 302.867 307.999 308.411Z" fill="#040400" stroke="#040400" stroke-miterlimit="10"/>
<path d="M309.024 284.62H300.56C298.619 284.62 296.397 284.413 294.355 284.68C292.313 284.947 290.45 285.678 289.226 287.564C288.601 288.466 288.238 289.523 288.177 290.618C288.116 291.713 288.36 292.804 288.881 293.769C289.949 295.7 291.733 297.132 293.849 297.758C294.033 297.813 294.194 297.859 294.392 297.9C294.59 297.942 294.82 297.988 295.132 298.047C297.943 298.549 300.767 298.839 302.883 299C304.999 299.161 306.416 299.197 306.416 299.197C306.334 297.466 306.369 295.731 306.522 294.004C306.775 291.06 307.424 287.403 309.024 284.62Z" fill="#84A1E5" stroke="#070707" stroke-miterlimit="10" stroke-linecap="round"/>
<path d="M301.821 458.919L325.092 463.629L348.359 468.339L358.405 420.453L368.452 372.567C364.027 369.113 357.725 366.587 351.266 365.46C344.808 364.333 338.198 364.577 333.147 366.67C327.593 369.013 322.879 372.984 319.627 378.06C317.88 380.704 316.526 383.587 315.607 386.62L308.707 422.767L301.821 458.919Z" fill="#F2B3C1" stroke="black" stroke-miterlimit="10" stroke-linecap="round"/>
<path d="M416.375 419.86C416.715 419.86 416.586 424.892 416.375 430.15C416.163 435.408 415.795 440.896 415.698 441.807C415.28 445.786 414.696 449.76 413.886 453.684C413.087 457.61 412.032 461.479 410.726 465.267C405.703 479.688 395.716 489.375 383.452 494.743C371.189 500.112 356.644 501.151 342.512 498.276C345.064 485.206 347.615 472.137 350.167 459.07C352.718 446.003 355.259 432.933 357.789 419.86H416.375Z" fill="#84A1E5" stroke="#070707" stroke-miterlimit="10" stroke-linecap="round"/>
<path d="M405.56 455.699V435.353H416.094C416.117 434.893 416.14 434.456 416.163 433.996C416.186 433.536 416.214 433.076 416.237 432.593H405.56V419.86H402.8V432.584H382.45V419.86H379.69V432.584H359.344V419.86H357.789C357.593 420.89 357.392 421.921 357.186 422.951C356.981 423.982 356.78 425.012 356.584 426.042V432.584H355.31C355.218 433.044 355.13 433.504 355.038 433.964C354.946 434.424 354.859 434.884 354.767 435.344H356.584V455.689H350.82L350.553 457.069L350.282 458.449H356.607V478.791H346.289L346.018 480.171L345.751 481.551H356.584V499.826C357.044 499.826 357.504 499.826 357.964 499.826C358.424 499.826 358.884 499.826 359.344 499.826V481.56H379.69V496.22C380.15 496.054 380.61 495.884 381.07 495.705C381.53 495.525 381.99 495.346 382.45 495.157V481.56H401.452C402.188 480.7 402.901 479.803 403.587 478.878C404.272 477.953 404.925 476.992 405.551 476.003V458.459H412.754C412.874 457.999 412.989 457.539 413.099 457.079C413.214 456.619 413.32 456.159 413.426 455.699H405.56ZM379.699 478.8H359.344V458.459H379.69V478.8H379.699ZM379.699 455.699H359.344V435.353H379.69V455.699H379.699ZM402.8 478.8H382.45V458.459H402.8V478.8ZM402.8 455.699H382.45V435.353H402.8V455.699Z" fill="#FC762B" stroke="#070707" stroke-miterlimit="10" stroke-linecap="round"/>
<path d="M365.08 388.506L391.3 390.88L417.52 393.267C416.632 397.794 414.507 407.481 410.247 416.727C405.988 425.973 399.58 434.801 390.164 437.575C387.711 438.245 385.181 438.594 382.638 438.614C379.621 438.715 375.913 438.614 370.973 438.508C367.776 438.43 365.705 438.242 361.731 437.814C357.757 437.386 351.864 436.728 341.031 435.721L334.619 435.114C332.484 434.911 330.345 434.709 328.211 434.525C325.06 434.253 321.716 433.678 318.376 433.297C315.037 432.915 311.688 432.722 308.532 433.223C306.109 433.634 303.774 434.46 301.632 435.666C299.49 436.857 297.521 438.337 295.781 440.063C295.24 440.606 294.738 441.187 294.281 441.802C293.828 442.421 293.408 443.063 293.021 443.725C292.416 444.789 291.582 445.705 290.578 446.407C289.766 446.989 288.774 447.268 287.777 447.193C287.49 447.161 287.207 447.094 286.935 446.995C286.462 446.824 286.033 446.549 285.679 446.19C285.317 445.786 285.039 445.314 284.861 444.802C284.682 444.289 284.607 443.747 284.64 443.205C284.69 441.829 285.097 440.489 285.822 439.318C286.701 437.897 287.469 436.558 288.122 435.367C288.775 434.175 289.341 433.067 289.796 432.174C290.605 430.679 291.263 429.107 291.761 427.482C292.022 426.696 291.998 425.842 291.692 425.072C291.529 424.679 291.302 424.317 291.02 424C290.759 423.712 290.464 423.458 290.141 423.241C289.427 422.748 288.592 422.46 287.726 422.408C285.468 422.28 283.361 423.42 281.521 425.076C279.733 426.767 278.185 428.696 276.921 430.808C276.274 431.855 275.725 432.959 275.279 434.106C274.829 435.254 274.465 436.433 274.189 437.634C273.891 439.058 273.336 440.416 272.551 441.641C271.991 442.574 271.117 443.277 270.085 443.624C269.497 443.778 268.885 443.819 268.282 443.743C268.023 443.713 267.767 443.658 267.519 443.578C266.867 443.344 266.287 442.946 265.835 442.423C265.555 442.111 265.318 441.763 265.131 441.388C264.557 442.353 263.664 443.087 262.606 443.463C261.605 443.827 260.506 443.807 259.519 443.407C258.722 443.071 258.046 442.5 257.583 441.77C257.099 441.011 256.839 440.131 256.833 439.231C256.306 439.264 255.778 439.219 255.264 439.097C254.909 439.014 254.568 438.885 254.248 438.711C252.972 437.955 252.047 436.724 251.676 435.288C251.169 433.49 251.115 431.593 251.52 429.768C251.145 429.39 250.81 428.974 250.522 428.526C250.097 427.873 249.786 427.153 249.602 426.397C249.289 425.04 249.379 423.623 249.859 422.316C250.116 421.599 250.469 420.92 250.908 420.297C252.724 417.497 254.76 414.847 256.998 412.371C262.342 406.454 268.805 401.656 276.015 398.254C281.919 395.477 288.225 393.652 294.7 392.849C298.041 392.432 301.408 392.267 304.774 392.357L334.159 393.106L363.543 393.856L364.316 391.184L365.08 388.506Z" fill="#F2B3C1" stroke="black" stroke-miterlimit="10" stroke-linecap="round"/>
<path d="M393.66 436.599L395.306 444.442L396.949 452.281" stroke="#070707" stroke-miterlimit="10" stroke-linecap="round"/>
<path d="M264.05 413.319C261.799 415.191 259.739 417.282 257.9 419.561C255.705 422.286 253.884 425.292 252.486 428.499C252.256 429.023 252.026 429.548 251.846 430.063C251.667 430.578 251.465 431.093 251.294 431.604" stroke="#070707" stroke-miterlimit="10" stroke-linecap="round"/>
<path d="M270.32 415.996C263.709 422.306 259.039 430.374 256.86 439.249" stroke="#070707" stroke-miterlimit="10" stroke-linecap="round"/>
<path d="M276.645 418.517C274.449 421.013 272.432 423.662 270.61 426.443C267.638 430.992 264.763 436.714 265.136 441.406" stroke="#070707" stroke-miterlimit="10" stroke-linecap="round"/>
<path d="M484.924 292.495C484.892 291.115 484.827 289.708 484.712 288.323C484.603 286.944 484.423 285.571 484.174 284.211C483.656 281.405 482.869 278.655 481.823 276C480.787 273.338 479.437 270.808 477.803 268.465C474.697 263.768 470.691 259.733 466.018 256.592C461.355 253.436 456.098 251.265 450.567 250.212C449.303 249.973 448.03 249.793 446.748 249.674C445.465 249.554 444.182 249.499 442.894 249.499C437.343 249.5 431.849 250.614 426.736 252.775C421.623 254.936 416.996 258.1 413.127 262.08C405.19 270.207 400.763 281.126 400.799 292.486C400.799 293.746 400.854 294.998 400.956 296.23C401.057 297.463 401.218 298.682 401.416 299.91H399.01C394.182 299.912 389.551 301.826 386.13 305.233C384.433 306.906 383.095 308.907 382.196 311.114C381.298 313.322 380.858 315.689 380.904 318.071C380.998 322.728 382.914 327.162 386.241 330.421C389.567 333.681 394.039 335.506 398.697 335.505H458.051C464.084 335.447 469.921 333.349 474.611 329.553C479.368 325.825 482.64 320.522 483.838 314.598C484.301 312.08 484.608 309.536 484.758 306.981C484.919 304.428 484.961 301.861 484.947 299.308C484.947 298.185 484.947 297.054 484.947 295.918C484.947 294.781 484.947 293.636 484.924 292.495Z" fill="#EAF0FA" stroke="black" stroke-miterlimit="10" stroke-linecap="round"/>
<path d="M290.256 343.298C290.224 341.872 290.164 340.446 290.045 339.029C289.925 337.612 289.75 336.209 289.493 334.829C288.962 331.959 288.158 329.146 287.092 326.429C286.03 323.708 284.649 321.121 282.979 318.724C279.801 313.925 275.707 309.799 270.932 306.585C266.166 303.36 260.793 301.14 255.14 300.062C253.846 299.82 252.544 299.637 251.235 299.515C249.925 299.392 248.613 299.331 247.297 299.331C241.621 299.334 236.003 300.475 230.775 302.688C225.548 304.9 220.817 308.138 216.863 312.211C208.746 320.519 204.218 331.683 204.255 343.298C204.255 344.59 204.31 345.864 204.416 347.129C204.522 348.394 204.683 349.636 204.876 350.869H202.424C197.482 350.866 192.741 352.823 189.24 356.311C187.505 358.021 186.136 360.066 185.217 362.323C184.298 364.579 183.848 366.999 183.895 369.435C183.994 374.195 185.954 378.728 189.354 382.061C192.755 385.394 197.326 387.262 202.088 387.264H262.781C268.953 387.204 274.924 385.057 279.722 381.174C284.586 377.363 287.93 371.941 289.152 365.884C289.629 363.31 289.946 360.709 290.1 358.096C290.266 355.488 290.307 352.866 290.293 350.253C290.293 349.103 290.293 347.953 290.293 346.789C290.293 345.625 290.284 344.461 290.256 343.298Z" fill="#EAF0FA" stroke="black" stroke-miterlimit="10" stroke-linecap="round"/>
<path d="M167.045 395.903C167.045 395.282 167.045 394.657 167.045 394.036C167.045 393.415 166.963 392.789 166.884 392.173C166.662 390.455 166.319 388.755 165.859 387.085C165.399 385.411 164.874 383.755 164.327 382.108C162.695 377.216 160.937 372.37 159.051 367.567C157.165 362.765 155.131 358.028 152.951 353.358C151.277 356.707 149.674 360.092 148.144 363.515C146.614 366.937 145.157 370.385 143.774 373.86C142.454 377.204 141.014 380.654 139.901 384.187C138.717 387.664 138.053 391.298 137.932 394.969C137.897 396.726 138.091 398.479 138.507 400.186C138.923 401.883 139.623 403.497 140.577 404.961C142.018 407.097 144.023 408.792 146.368 409.86C148.706 410.955 151.298 411.396 153.866 411.134C156.426 410.835 158.86 409.86 160.918 408.309C162.992 406.78 164.631 404.736 165.675 402.38C166.114 401.362 166.445 400.302 166.664 399.215C166.885 398.124 167.013 397.016 167.045 395.903Z" fill="url(#paint2_linear_484_2123)" stroke="black" stroke-miterlimit="10" stroke-linecap="round"/>
<path d="M249.979 276.377C249.979 276.092 249.979 275.802 249.979 275.517C249.979 275.231 249.937 274.942 249.905 274.661C249.807 273.869 249.654 273.085 249.445 272.315C249.238 271.542 248.985 270.783 248.737 270.015C247.989 267.761 247.179 265.53 246.308 263.322C245.437 261.114 244.502 258.932 243.502 256.776C242.729 258.31 241.992 259.869 241.289 261.454C240.587 263.04 239.911 264.628 239.261 266.22C238.654 267.756 237.991 269.348 237.476 270.972C236.928 272.574 236.618 274.248 236.556 275.94C236.539 276.748 236.629 277.556 236.823 278.341C237.011 279.123 237.333 279.867 237.775 280.54C238.439 281.524 239.362 282.306 240.443 282.798C241.519 283.302 242.711 283.504 243.893 283.383C245.072 283.246 246.193 282.796 247.141 282.081C248.097 281.377 248.852 280.435 249.33 279.348C249.533 278.879 249.687 278.391 249.79 277.89C249.894 277.392 249.957 276.886 249.979 276.377Z" fill="url(#paint3_linear_484_2123)" stroke="black" stroke-miterlimit="10" stroke-linecap="round"/>
<path d="M452.797 425.444C452.797 425.099 452.797 424.754 452.797 424.409C452.797 424.064 452.747 423.719 452.705 423.379C452.584 422.428 452.395 421.488 452.14 420.564C451.891 419.644 451.592 418.724 451.289 417.804C450.393 415.093 449.421 412.411 448.372 409.758C447.323 407.106 446.196 404.493 444.991 401.92C444.071 403.76 443.185 405.634 442.332 407.541C441.48 409.449 440.676 411.358 439.922 413.268C439.195 415.108 438.399 417.026 437.778 418.981C437.124 420.91 436.758 422.926 436.693 424.961C436.674 425.933 436.781 426.902 437.01 427.846C437.237 428.785 437.625 429.678 438.156 430.486C438.956 431.672 440.071 432.612 441.376 433.2C442.668 433.801 444.097 434.044 445.516 433.904C446.931 433.736 448.277 433.196 449.416 432.34C450.566 431.492 451.473 430.358 452.048 429.051C452.289 428.488 452.473 427.903 452.595 427.303C452.715 426.69 452.782 426.069 452.797 425.444Z" fill="url(#paint4_linear_484_2123)" stroke="black" stroke-miterlimit="10" stroke-linecap="round"/>
<path d="M302.52 455.354L325.856 459.553L349.196 463.753C347.798 471.331 346.401 478.904 345.006 486.473C343.61 494.041 342.213 501.613 340.815 509.187C324.421 506.265 308 503.393 291.554 500.572C275.107 497.75 258.676 494.877 242.26 491.951C242.247 491.95 242.234 491.945 242.223 491.938C242.212 491.931 242.202 491.921 242.196 491.91C242.186 491.884 242.186 491.857 242.196 491.832C242.543 490.659 242.994 489.52 243.543 488.428C244.234 487.032 245.115 485.739 246.161 484.587C251.46 478.823 259.381 478.901 267.744 479.2C276.107 479.499 284.897 479.954 291.903 474.986C294.347 473.229 296.396 470.981 297.92 468.385C299.815 465.262 301.476 461.062 302.52 455.354Z" fill="#DBCAF4" stroke="black" stroke-miterlimit="10" stroke-linecap="round"/>
<path d="M275.274 479.964C275.204 480.037 275.141 480.117 275.086 480.203C275.028 480.297 274.977 480.395 274.934 480.497C274.68 481.414 274.68 482.382 274.934 483.299C275.075 483.965 275.352 484.595 275.748 485.149C276.143 485.703 276.649 486.169 277.234 486.519C277.789 486.812 278.4 486.981 279.027 487.015C279.653 487.05 280.28 486.948 280.863 486.716C281.501 486.476 282.081 486.104 282.565 485.623C283.049 485.143 283.425 484.565 283.669 483.929C284.146 484.727 284.862 485.354 285.716 485.721C286.57 486.087 287.518 486.175 288.425 485.971C289.332 485.767 290.151 485.282 290.766 484.585C291.38 483.887 291.759 483.014 291.848 482.089C292.68 482.509 293.61 482.693 294.539 482.622C295.493 482.553 296.407 482.21 297.171 481.634C297.935 481.058 298.516 480.273 298.845 479.375C299.188 478.44 299.254 477.425 299.033 476.454C300.069 476.84 301.207 476.856 302.253 476.5C303.217 476.191 304.045 475.558 304.597 474.709C305.149 473.86 305.39 472.847 305.28 471.84C305.18 470.88 304.792 469.972 304.167 469.236C304.583 469.172 304.991 469.059 305.381 468.901C305.992 468.653 306.542 468.274 306.991 467.792C307.684 467.028 308.108 466.059 308.201 465.032C308.322 463.936 308.054 462.831 307.445 461.912C306.835 460.993 305.923 460.316 304.866 460C303.73 459.649 302.509 459.701 301.407 460.147C301.223 460.818 300.974 461.619 300.648 462.507C300.288 463.498 299.874 464.469 299.406 465.414C298.635 467.068 297.725 468.655 296.687 470.156C295.281 472.167 293.515 473.901 291.48 475.272C290.476 475.934 289.415 476.506 288.311 476.983C287.206 477.459 286.07 477.859 284.911 478.179C284.059 478.414 283.195 478.602 282.321 478.74C281.452 478.878 280.569 478.979 279.69 479.062L278.453 479.163C278.039 479.195 277.625 479.228 277.211 479.274C276.863 479.302 276.518 479.362 276.18 479.453C275.838 479.539 275.525 479.716 275.274 479.964Z" fill="#FC762B" stroke="#070707" stroke-miterlimit="10" stroke-linecap="round"/>
<path d="M242.407 491.878C242.366 491.869 242.324 491.869 242.282 491.878C242.241 491.887 242.202 491.904 242.168 491.928C242.099 491.978 242.051 492.052 242.035 492.135L241.699 493.791L241.359 495.443C241.287 495.818 241.295 496.204 241.38 496.576C241.466 496.948 241.627 497.298 241.855 497.605C242.317 498.233 243.002 498.659 243.769 498.796L274.589 504.15L305.386 509.509C305.688 509.558 305.996 509.547 306.294 509.477C306.591 509.407 306.872 509.279 307.12 509.1C307.369 508.918 307.579 508.688 307.737 508.423C307.895 508.158 307.998 507.864 308.04 507.559C308.054 507.46 308.097 507.368 308.165 507.295C308.232 507.222 308.32 507.171 308.417 507.15C308.513 507.121 308.616 507.124 308.71 507.159C308.803 507.194 308.883 507.258 308.937 507.343C309.094 507.863 309.318 508.361 309.604 508.824C310.012 509.49 310.594 510.033 311.288 510.393C311.399 510.447 311.512 510.497 311.628 510.54C311.739 510.585 311.853 510.622 311.969 510.65L316.858 511.501L321.748 512.352C321.996 512.397 322.25 512.391 322.496 512.335C322.742 512.279 322.973 512.174 323.177 512.026C323.381 511.878 323.553 511.691 323.683 511.475C323.813 511.259 323.898 511.019 323.933 510.77C323.945 510.667 323.988 510.57 324.056 510.492C324.125 510.415 324.216 510.361 324.317 510.337C324.418 510.313 324.523 510.321 324.619 510.36C324.715 510.399 324.797 510.466 324.853 510.554C325.454 511.402 326.217 512.122 327.098 512.674C327.978 513.228 328.958 513.605 329.982 513.783L333.662 514.307L337.342 514.832C338.008 514.946 338.693 514.793 339.245 514.404C339.798 514.015 340.174 513.423 340.291 512.757L340.645 510.733L340.995 508.714L291.706 500.296L242.407 491.878Z" fill="#84A1E5" stroke="#070707" stroke-miterlimit="10" stroke-linecap="round"/>
<path d="M316.426 504.5C317.056 500.32 318.629 496.339 321.026 492.857C324.973 487.227 332.208 481.978 345.346 483.506" stroke="#070707" stroke-miterlimit="10" stroke-linecap="round"/>
<path d="M417.52 393.281L391.3 390.88L365.08 388.493C365.969 384.54 366.859 380.587 367.748 376.634L370.411 364.78" stroke="#070707" stroke-miterlimit="10" stroke-linecap="round"/>
<path d="M208.036 448.099C208.036 447.754 208.036 447.409 208.036 447.064C208.036 446.719 207.99 446.374 207.949 446.034C207.825 445.083 207.634 444.143 207.378 443.219C207.13 442.299 206.835 441.379 206.532 440.459C205.612 437.754 204.66 435.068 203.615 432.418C202.571 429.768 201.444 427.142 200.239 424.557C199.319 426.397 198.427 428.283 197.58 430.173C196.734 432.064 195.933 433.977 195.174 435.905C194.443 437.745 193.647 439.663 193.031 441.613C192.376 443.542 192.008 445.557 191.941 447.593C191.921 448.565 192.029 449.535 192.263 450.478C192.49 451.418 192.876 452.312 193.403 453.123C194.206 454.306 195.32 455.244 196.623 455.832C197.914 456.438 199.345 456.682 200.763 456.536C202.18 456.373 203.527 455.833 204.664 454.972C205.814 454.125 206.722 452.993 207.3 451.687C207.542 451.123 207.725 450.536 207.847 449.935C207.961 449.329 208.024 448.715 208.036 448.099Z" fill="url(#paint5_linear_484_2123)" stroke="black" stroke-miterlimit="10" stroke-linecap="round"/>
<path d="M231.004 465.106C230.061 463.89 229.196 462.617 228.414 461.292C227.629 459.97 226.979 458.572 226.473 457.12C226.032 455.653 225.833 454.124 225.884 452.594C225.958 450.878 226.436 449.3 227.752 448.914C228.782 448.596 230.328 449.751 231.864 451.623C233.563 453.751 234.936 456.12 235.94 458.652C236.95 461.368 237.614 464.201 237.918 467.084C238.194 469.462 238.194 471.104 238.253 471.099C238.313 471.095 238.253 470.98 238.253 470.865C238.253 470.75 238.253 470.63 238.253 470.63C238.153 468.538 238.364 466.442 238.879 464.411C239.396 462.374 240.065 460.378 240.88 458.44C241.51 456.904 242.6 454.144 244.1 451.885C245.6 449.627 247.522 447.883 249.818 448.371C250.341 448.492 250.803 448.797 251.12 449.231C251.453 449.67 251.671 450.186 251.754 450.731C252.007 452.382 251.635 454.24 250.995 456.03C250.367 457.727 249.568 459.356 248.613 460.892C247.464 462.75 246.137 464.493 244.652 466.095C243.167 467.692 241.541 469.153 239.794 470.46C238.833 471.182 238.115 471.339 237.421 471.132C236.726 470.925 236.041 470.359 235.194 469.637C234.406 468.967 233.664 468.245 232.973 467.475C232.283 466.729 231.629 465.924 231.004 465.106Z" stroke="black" stroke-miterlimit="10" stroke-linecap="round"/>
<path d="M273.811 472.521C272.869 471.305 272.004 470.032 271.221 468.707C270.437 467.385 269.786 465.987 269.28 464.535C268.837 463.069 268.639 461.54 268.691 460.009C268.765 458.293 269.243 456.715 270.554 456.329C271.589 456.011 273.135 457.166 274.671 459.038C276.37 461.169 277.743 463.539 278.747 466.072C279.758 468.786 280.421 471.618 280.72 474.499C280.996 476.877 281.001 478.519 281.061 478.515C281.121 478.51 281.061 478.395 281.061 478.28C281.061 478.165 281.061 478.045 281.061 478.045C280.988 476.498 281.143 474.948 281.521 473.445C281.875 471.918 282.376 470.419 282.846 468.997C283.49 466.896 284.242 464.829 285.1 462.806C285.946 460.775 287.184 458.93 288.743 457.378C289.349 456.796 290.049 456.32 290.813 455.97C291.157 455.756 291.551 455.634 291.955 455.616C292.36 455.597 292.763 455.683 293.126 455.864C293.488 456.045 293.798 456.316 294.026 456.651C294.254 456.986 294.393 457.374 294.428 457.778C294.577 458.549 294.587 459.34 294.461 460.115C293.837 463.725 292.394 467.144 290.242 470.11C288.105 473.088 285.52 475.716 282.579 477.903C281.617 478.625 280.9 478.781 280.201 478.574C279.501 478.367 278.821 477.802 277.974 477.079C277.189 476.409 276.449 475.688 275.757 474.922C275.085 474.14 274.46 473.344 273.811 472.521Z" stroke="black" stroke-miterlimit="10" stroke-linecap="round"/>
<path d="M367.688 376.933L396.999 379.04L426.311 381.151" fill="#84A1E5"/>
<path d="M367.688 376.933L396.999 379.04L426.311 381.151" stroke="#070707" stroke-miterlimit="10" stroke-linecap="round"/>
</g>
<circle cx="120" cy="89" r="7" fill="#BDECE6"/>
<circle cx="488" cy="11" r="10" fill="#F6C34C"/>
<circle cx="130" cy="632" r="7" fill="#FC762B"/>
<circle cx="565" cy="535" r="7" fill="#F2B3C1"/>
<circle cx="56" cy="499" r="10" fill="#DBCAF4"/>
<circle cx="10" cy="232" r="10" fill="#F2B3C1"/>
<circle cx="395" cy="625" r="10" fill="#A5C3FF"/>
<defs>
<linearGradient id="paint0_linear_484_2123" x1="80" y1="92" x2="450.425" y2="645.351" gradientUnits="userSpaceOnUse">
<stop stop-color="#C7FDDC"/>
<stop offset="0.991385" stop-color="#ABC3FD"/>
</linearGradient>
<linearGradient id="paint1_linear_484_2123" x1="472.173" y1="386.634" x2="472.173" y2="314.479" gradientUnits="userSpaceOnUse">
<stop offset="0.18" stop-color="#A4C2FF"/>
<stop offset="0.44" stop-color="#B5DEED"/>
<stop offset="0.68" stop-color="#C6FCDB"/>
</linearGradient>
<linearGradient id="paint2_linear_484_2123" x1="152.491" y1="411.226" x2="152.491" y2="353.358" gradientUnits="userSpaceOnUse">
<stop offset="0.08" stop-color="#A4C2FF"/>
<stop offset="0.35" stop-color="#B5DEED"/>
<stop offset="0.6" stop-color="#C6FCDB"/>
<stop offset="0.95" stop-color="#FEC2D9"/>
</linearGradient>
<linearGradient id="paint3_linear_484_2123" x1="243.277" y1="283.433" x2="243.277" y2="256.785" gradientUnits="userSpaceOnUse">
<stop offset="0.18" stop-color="#A4C2FF"/>
<stop offset="0.44" stop-color="#B5DEED"/>
<stop offset="0.68" stop-color="#C6FCDB"/>
</linearGradient>
<linearGradient id="paint4_linear_484_2123" x1="444.747" y1="433.918" x2="444.747" y2="401.906" gradientUnits="userSpaceOnUse">
<stop offset="0.08" stop-color="#A4C2FF"/>
<stop offset="0.35" stop-color="#B5DEED"/>
<stop offset="0.6" stop-color="#C6FCDB"/>
<stop offset="0.95" stop-color="#FEC2D9"/>
</linearGradient>
<linearGradient id="paint5_linear_484_2123" x1="199.986" y1="456.577" x2="199.986" y2="424.566" gradientUnits="userSpaceOnUse">
<stop offset="0.18" stop-color="#A4C2FF"/>
<stop offset="0.44" stop-color="#B5DEED"/>
<stop offset="0.68" stop-color="#C6FCDB"/>
</linearGradient>
<clipPath id="clip0_484_2123">
<rect width="480" height="480" fill="white" transform="translate(80 91.9999)"/>
</clipPath>
</defs>
</svg>
