<svg width="640" height="640" viewBox="0 0 640 640" fill="none" xmlns="http://www.w3.org/2000/svg">
<g clip-path="url(#clip0_484_2121)">
<path fill-rule="evenodd" clip-rule="evenodd" d="M560 212C560 145.726 506.274 91.9999 440 91.9999L200 91.9999C133.726 91.9999 80 145.726 80 212C80 278.254 133.693 331.967 199.939 332C133.693 332.033 80 385.746 80 452C80 518.274 133.726 572 200 572H440C506.274 572 560 518.274 560 452C560 385.74 506.297 332.023 440.043 332C506.297 331.977 560 278.26 560 212Z" fill="#D9D9D9"/>
<path fill-rule="evenodd" clip-rule="evenodd" d="M560 212C560 145.726 506.274 91.9999 440 91.9999L200 91.9999C133.726 91.9999 80 145.726 80 212C80 278.254 133.693 331.967 199.939 332C133.693 332.033 80 385.746 80 452C80 518.274 133.726 572 200 572H440C506.274 572 560 518.274 560 452C560 385.74 506.297 332.023 440.043 332C506.297 331.977 560 278.26 560 212Z" fill="url(#paint0_linear_484_2121)"/>
<path d="M196.246 322.676L191.442 328.789L186.637 334.903L184.908 328.352L183.175 321.797L174.055 327.198L164.934 332.598L168.89 323.449L172.842 314.299L157.543 315.601L142.245 316.903L155.252 309.166L168.259 301.428L162.892 297.62L157.525 293.815L165.183 291.948L172.842 290.076L168.296 278.7L163.745 267.319L173.46 274.951L183.175 282.578L185.074 266.731L186.969 250.884L191.603 266.298L196.237 281.708L203.582 277.481L210.927 273.258L208.977 281.395L207.026 289.537L218.54 291.446L230.053 293.355L219.711 298.319L209.364 303.287L217.613 310.573L225.862 317.86L214.952 316.286L204.039 314.709L208.502 327.17L212.97 339.636L204.606 331.154L196.246 322.676Z" fill="#FC762B" stroke="#070707" stroke-miterlimit="10" stroke-linecap="round"/>
<path d="M413.304 522.656L407.223 523.3L401.136 523.944L403.894 519.385L406.646 514.822L398.605 512.646L390.564 510.471L397.9 507.688L405.235 504.909L398.416 498.998L391.597 493.087L400.8 494.187L410.003 495.286L409.214 490.185L408.431 485.083L413.678 488.368L418.925 491.657L422.867 482.871L426.809 474.085L427.81 483.726L428.815 493.363L436.183 488.703L443.551 484.044L440.001 492.14L436.455 500.236L442.859 502.053L449.268 503.874L443.602 507.232L437.93 510.59L443.154 518.111L448.374 525.628L439.908 522.527L431.438 519.427L431.835 528.052L432.231 536.681L427.15 529.68L422.069 522.679L417.468 532.012L412.871 541.341L413.087 531.999L413.304 522.656Z" fill="#FC762B" stroke="#070707" stroke-miterlimit="10" stroke-linecap="round"/>
<path d="M397.245 227.442L405.323 244.186L413.396 260.935L416.5 242.3L419.603 223.661L432.822 226.816L446.064 229.972L439.194 218.081L432.361 206.194L464.175 199.52L495.99 192.827L463.47 188.94L430.922 185.057L443.33 169.335L455.733 153.612L437.23 160.972L418.727 168.332L415.688 155.935L412.65 143.538L406.457 152.223L400.265 160.912L387.682 139.853L375.099 118.799L377.216 143.561L379.337 168.327L364.457 161.924L349.578 155.525L358.339 170.287L367.099 185.053L356.439 187.854L345.784 190.66L355.729 198.434L365.675 206.204L354.729 220.349L343.833 234.48L362.604 228.642L381.37 222.8V247.36L389.314 237.392L397.245 227.442Z" fill="#FC762B" stroke="#070707" stroke-miterlimit="10" stroke-linecap="round"/>
<path d="M339.651 323.628L310.281 321.093L280.91 318.559C279.296 322.032 277.323 326.379 275.133 331.531C272.942 336.683 270.522 342.571 268.069 349.089C262.358 364.128 257.533 379.488 253.619 395.089C250.299 408.084 247.786 419.524 244.042 431.783C240.59 443.058 236.388 454.09 231.464 464.806C224.847 479.177 217.093 493 208.276 506.142L228.314 508.667C234.991 509.511 241.67 510.348 248.353 511.179L269.89 513.861C276.737 514.721 283.086 515.521 288.43 516.216C293.138 466.996 296.831 430.513 299.542 406.327C302.253 382.14 303.973 370.276 304.748 370.336C305.522 370.396 305.246 382.37 304.001 406.639C302.756 430.909 300.533 467.484 297.412 516.736C307.929 516.432 322.684 513.934 337.434 511.441C352.184 508.948 366.943 506.446 377.451 506.142C369.949 493.894 363.731 480.909 358.892 467.392C355.395 457.556 352.772 447.432 351.054 437.137C349.21 425.973 348.716 416.437 348.062 404.169C347.407 391.901 346.563 376.974 343.986 355.041C343.202 348.339 342.399 342.258 341.68 336.963C340.961 331.669 340.214 327.17 339.651 323.628Z" fill="#DBCAF4" stroke="black" stroke-miterlimit="10" stroke-linecap="round"/>
<path d="M253.462 139.78C254.93 134.755 257.103 129.964 259.917 125.547C264.376 118.73 271.319 112.502 281.265 114.866C281.265 114.866 285.447 111.701 290.44 111.131C295.434 110.56 301.225 112.594 304.457 122.99C305.167 124.989 306.108 126.898 307.261 128.68C309.22 131.702 312.272 135.12 316.625 136.619C317.343 136.863 318.082 137.038 318.834 137.139C319.587 137.242 320.346 137.294 321.107 137.296C324.693 137.3 328.133 138.713 330.683 141.229C332.989 143.529 334.275 146.5 334.054 149.256C333.833 152.011 332.067 154.776 329.36 156.708C327.873 157.75 326.195 158.489 324.421 158.884C322.647 159.278 320.813 159.321 319.023 159.008C319.083 160.71 318.715 162.401 317.953 163.925C316.657 166.685 313.845 170.107 307.777 172.637L309.28 175.098L310.783 177.559C310.783 177.559 319.447 178.599 324.486 190.467C329.526 202.335 330.942 225.031 316.422 268.359L269.3 279.081L222.177 289.804C216.607 285.247 211.463 280.193 206.81 274.707C200.123 266.823 194.51 258.092 190.119 248.74C184.566 236.911 180.996 224.254 179.551 211.273C178.117 198.236 178.919 184.988 182.409 172.545C184.664 164.425 188.264 156.738 193.06 149.803C197.814 142.89 203.933 137.018 211.042 132.548C218.498 127.948 226.341 126.375 233.695 127.645C241.049 128.914 247.952 133.027 253.462 139.78Z" fill="url(#paint1_linear_484_2121)" stroke="black" stroke-miterlimit="10" stroke-linecap="round"/>
<path d="M270.439 170.719C272.457 170.502 274.494 170.541 276.502 170.834C279.694 171.318 282.772 172.371 285.59 173.944C288.504 175.586 291.012 177.826 292.275 180.623C292.458 181.022 292.6 181.438 292.7 181.865C292.799 182.288 292.836 182.724 292.81 183.158C292.785 183.596 292.68 184.026 292.501 184.427C292.321 184.824 292.057 185.177 291.727 185.462C290.699 186.318 289.214 185.945 287.231 185.352C285.249 184.758 282.773 183.944 279.771 183.926C278.727 183.922 277.686 184.013 276.659 184.197C275.908 184.333 275.167 184.517 274.441 184.749C273.819 184.014 273.256 183.231 272.758 182.408C270.656 178.896 269.841 174.764 270.453 170.719H270.439Z" fill="#DBCAF4" stroke="black" stroke-miterlimit="10" stroke-linecap="round"/>
<path d="M241.718 361.509C241.985 361.155 242.368 360.676 242.866 360.129C243.446 359.482 244.062 358.868 244.71 358.289C248.048 355.331 252.18 353.412 256.597 352.769C260.286 352.203 263.31 352.613 264.569 353.04C265.028 353.197 265.47 353.399 265.888 353.643C266.306 353.885 266.687 354.183 267.022 354.531C267.38 354.922 267.655 355.382 267.829 355.883C267.982 356.287 268.06 356.716 268.06 357.148C268.004 358.606 266.123 359.448 263.546 360.474C260.968 361.5 257.69 362.618 254.845 364.66C253.367 365.729 252.049 367.002 250.93 368.441C249.311 370.552 248.02 372.896 247.103 375.392C246.457 374.811 245.841 374.197 245.259 373.552C244.125 372.389 243.19 371.048 242.493 369.582C241.877 368.063 241.532 366.449 241.474 364.812C241.433 363.705 241.515 362.598 241.718 361.509Z" fill="#DBCAF4" stroke="black" stroke-miterlimit="10" stroke-linecap="round"/>
<path d="M288.37 517.495C287.803 521.479 282.809 524.45 275.188 526.033C267.566 527.615 257.326 527.813 246.264 526.244C235.203 524.676 225.423 521.644 218.549 518.006C211.674 514.367 207.704 510.126 208.276 506.142C208.848 502.159 213.837 499.187 221.458 497.605C229.08 496.022 239.32 495.824 250.377 497.393C261.434 498.962 271.222 501.993 278.097 505.632C284.972 509.27 288.937 513.511 288.37 517.495Z" fill="#84A1E5" stroke="#070707" stroke-miterlimit="10" stroke-linecap="round"/>
<path d="M226.811 200.403C226.811 200.403 225.981 211.834 230.998 227.4C236.014 242.967 246.873 262.673 270.245 279.229" stroke="black" stroke-miterlimit="10" stroke-linecap="round"/>
<path d="M313.937 247.53C308.509 247.029 303.045 247.061 297.624 247.627C292.199 248.189 286.914 249.693 282.007 252.07C278.44 253.925 275.163 256.288 272.278 259.085C269.332 261.845 266.612 264.858 263.905 267.765L264.219 267.108C264.38 266.776 264.542 266.436 264.56 266.404C264.731 266.045 265.095 265.318 265.8 263.952C266.506 262.586 267.557 260.58 269.092 257.659L255.076 250.511L241.054 243.367L230.514 264.136L219.974 284.905C217.374 289.506 216.276 294.801 216.834 300.053C217.372 305.235 219.551 310.112 223.054 313.977C224.456 315.474 226.044 316.786 227.78 317.882C229.94 319.271 232.288 320.348 234.751 321.079C235.831 321.375 236.929 321.601 238.039 321.756C240.614 322.146 243.229 322.215 245.822 321.963C250.751 321.447 256.597 318.582 262.6 313.71C268.604 308.839 274.754 301.953 280.292 293.401C280.393 297.596 280.496 301.79 280.601 305.982C280.705 310.174 280.808 314.367 280.91 318.559L310.281 321.093L339.651 323.628C340.949 319.466 342.243 315.305 343.534 311.143C344.825 306.982 346.119 302.821 347.416 298.659C356.439 309.874 365.347 319 373.366 325.679C381.384 332.359 388.512 336.6 393.971 338.026C399.44 339.493 405.224 339.281 410.57 337.419C414.247 336.141 417.537 333.95 420.131 331.053C422.724 328.156 424.535 324.648 425.394 320.859C425.865 318.793 426.062 316.674 425.979 314.557C425.871 312.369 425.438 310.209 424.693 308.149C423.992 306.125 423.093 304.156 422.212 302.081L412.562 279.403L402.912 256.725L388.318 263.377L373.73 270.029L376.035 275.291C377.174 277.927 378.318 280.563 378.341 280.563C378.53 281.023 377.358 279.67 375.39 277.508C373.421 275.346 370.641 272.361 367.611 269.486C361.926 264.163 355.413 259.798 348.324 256.56C343.332 254.284 338.167 252.404 332.878 250.939C331.721 250.603 329.365 249.945 326.105 249.283C322.088 248.455 318.025 247.87 313.937 247.53Z" fill="#F6C34C" stroke="#070707" stroke-miterlimit="10" stroke-linecap="round"/>
<path d="M306.915 247.53C306.915 247.53 309.031 255.207 311.276 263.589C313.522 271.97 315.887 281.069 316.422 283.907L325.183 267.572L333.943 251.238C332.099 250.607 330.033 249.973 327.732 249.398C325.245 248.787 322.725 248.314 320.185 247.981C317.804 247.67 315.41 247.481 313.01 247.415C310.811 247.36 308.759 247.42 306.915 247.53Z" fill="#F6991A" stroke="black" stroke-miterlimit="10" stroke-linecap="round"/>
<path d="M359.422 249.007C359.422 251.895 358.417 254.693 356.58 256.925C354.743 259.157 352.187 260.685 349.347 261.248C346.508 261.811 343.561 261.374 341.008 260.012C338.455 258.65 336.454 256.447 335.347 253.779C334.239 251.111 334.094 248.142 334.934 245.378C335.775 242.614 337.55 240.227 339.957 238.622C342.364 237.018 345.254 236.295 348.135 236.579C351.016 236.862 353.71 238.133 355.757 240.175C356.921 241.333 357.844 242.71 358.473 244.226C359.102 245.741 359.425 247.366 359.422 249.007Z" fill="#ECE7E1" stroke="black" stroke-miterlimit="10" stroke-linecap="round"/>
<path d="M338.406 237.898C337.652 243.076 335.078 247.818 331.144 251.279C327.456 254.416 322.845 255.985 318.096 255.244C313.347 254.504 309.428 251.564 306.896 247.47C304.278 242.95 303.293 237.671 304.106 232.514C304.919 227.357 307.481 222.634 311.364 219.134C315.053 215.997 319.664 214.429 324.417 215.169C329.171 215.91 333.086 218.849 335.617 222.943C338.293 227.441 339.281 232.741 338.406 237.898Z" fill="#F2B3C1" stroke="black" stroke-miterlimit="10" stroke-linecap="round"/>
<path d="M336.189 244.802C336.493 244.195 336.807 243.505 337.111 242.741C337.883 240.758 338.38 238.677 338.586 236.559C338.688 235.569 338.725 234.573 338.697 233.578C339.495 233.527 340.295 233.652 341.039 233.946C341.426 234.102 341.781 234.328 342.086 234.613C343.16 235.625 343.469 237.304 343.183 239.02C342.885 240.795 341.993 242.416 340.652 243.62C339.902 244.257 338.985 244.665 338.01 244.798C337.407 244.89 336.793 244.892 336.189 244.802Z" fill="#F2B3C1" stroke="black" stroke-miterlimit="10" stroke-linecap="round"/>
<path d="M304.042 239.448C303.959 238.832 303.89 238.155 303.849 237.424C303.809 236.642 303.809 235.859 303.849 235.078C303.947 232.976 304.325 230.897 304.974 228.896C304.323 228.57 303.608 228.391 302.88 228.371C302.508 228.365 302.139 228.437 301.797 228.583C300.515 229.139 299.68 230.8 299.491 232.649C299.302 234.498 299.727 236.541 300.971 237.87C301.425 238.349 301.971 238.733 302.576 238.997C303.045 239.206 303.537 239.358 304.042 239.448Z" fill="#F2B3C1" stroke="black" stroke-miterlimit="10" stroke-linecap="round"/>
<path d="M326.335 233.932C326.335 234.19 326.244 234.439 326.08 234.637C325.916 234.836 325.688 234.972 325.435 235.021C325.182 235.071 324.919 235.032 324.692 234.91C324.465 234.788 324.287 234.592 324.188 234.354C324.09 234.116 324.077 233.851 324.152 233.605C324.227 233.359 324.385 233.146 324.6 233.003C324.814 232.86 325.072 232.796 325.329 232.821C325.585 232.846 325.826 232.959 326.008 233.141C326.112 233.245 326.195 233.369 326.251 233.504C326.307 233.64 326.336 233.786 326.335 233.932Z" fill="#020202"/>
<path d="M314.739 233.164C314.738 233.422 314.648 233.671 314.484 233.869C314.32 234.068 314.092 234.203 313.839 234.253C313.586 234.303 313.323 234.263 313.096 234.142C312.868 234.02 312.69 233.823 312.592 233.586C312.494 233.348 312.481 233.083 312.556 232.837C312.631 232.591 312.789 232.378 313.004 232.235C313.218 232.092 313.476 232.028 313.733 232.053C313.989 232.078 314.229 232.191 314.412 232.373C314.516 232.477 314.598 232.6 314.654 232.736C314.711 232.872 314.739 233.017 314.739 233.164Z" fill="#020202"/>
<path d="M317.934 237.838L316.888 236.872L315.837 235.91C315.824 235.898 315.815 235.883 315.809 235.866C315.804 235.849 315.802 235.831 315.804 235.814C315.807 235.795 315.816 235.778 315.829 235.764C315.842 235.75 315.859 235.74 315.878 235.736L317.164 235.418L318.451 235.105L318.566 232.805L318.677 230.505" stroke="black" stroke-miterlimit="10" stroke-linecap="round"/>
<path d="M322.656 228.96C323.009 229.297 323.38 229.615 323.767 229.912C324.238 230.274 324.735 230.603 325.252 230.896C325.685 231.144 326.133 231.365 326.594 231.559C327.013 231.738 327.414 231.881 327.769 231.996" stroke="black" stroke-miterlimit="10" stroke-linecap="round"/>
<path d="M316.376 228.5C315.966 228.748 315.509 229.001 314.993 229.25C314.476 229.498 313.932 229.746 313.333 229.976C312.734 230.206 312.249 230.358 311.747 230.501C311.244 230.643 310.769 230.758 310.336 230.846" stroke="black" stroke-miterlimit="10" stroke-linecap="round"/>
<path d="M255.656 187.068C255.656 187.068 261.028 195.348 267.907 200.127C274.787 204.907 283.165 206.176 289.177 192.164C285.483 192.118 281.881 191.012 278.8 188.979C275.719 186.947 273.289 184.073 271.799 180.701C271.342 179.662 270.98 178.585 270.715 177.481C270.457 176.397 270.293 175.291 270.227 174.178C270.076 171.784 270.549 169.391 271.599 167.232C272.649 165.074 274.241 163.223 276.221 161.86C278.168 160.481 280.451 159.651 282.831 159.457C285.211 159.264 287.599 159.714 289.744 160.76L290.03 160.903L290.32 161.05C293.95 163.048 296.774 166.239 298.311 170.08C300.006 174.238 300.397 178.811 299.431 183.194L302.198 180.77L304.964 178.351L308.653 179.611L312.342 180.872L311.558 179.192L310.765 177.518" stroke="black" stroke-miterlimit="10" stroke-linecap="round"/>
<path d="M323.209 243.004H318.013C317.956 243.005 317.899 242.995 317.846 242.973C317.792 242.952 317.744 242.92 317.704 242.88C317.663 242.839 317.631 242.791 317.61 242.738C317.589 242.685 317.578 242.628 317.58 242.571C317.58 241.767 317.9 240.996 318.469 240.428C319.039 239.859 319.812 239.54 320.618 239.54C321.424 239.54 322.197 239.859 322.767 240.428C323.336 240.996 323.657 241.767 323.657 242.571C323.654 242.687 323.608 242.797 323.527 242.88C323.486 242.921 323.436 242.954 323.381 242.975C323.327 242.996 323.268 243.006 323.209 243.004Z" fill="#ECE7E1" stroke="black" stroke-miterlimit="10" stroke-linecap="round"/>
<path d="M314.725 242.622C314.531 242.019 314.301 241.428 314.038 240.851C313.817 240.359 313.6 239.931 313.379 239.374C313.158 238.827 312.965 238.268 312.803 237.7C312.697 237.35 312.637 237.194 312.508 237.189C312.378 237.185 312.24 237.438 312.088 237.921C311.936 238.404 311.738 239.121 311.369 240.037C311.115 240.667 310.774 241.306 310.497 241.964C310.199 242.601 310.042 243.294 310.036 243.997C310.049 244.308 310.123 244.612 310.255 244.894C310.387 245.175 310.575 245.427 310.806 245.635C311.267 246.061 311.87 246.301 312.498 246.306C312.888 246.313 313.273 246.223 313.619 246.045C313.965 245.867 314.261 245.606 314.481 245.285C314.699 244.965 314.846 244.601 314.909 244.219C314.973 243.837 314.953 243.446 314.85 243.073C314.85 242.994 314.808 242.921 314.785 242.843L314.725 242.622Z" fill="#84A1E5" stroke="#070707" stroke-miterlimit="10" stroke-linecap="round"/>
<path d="M265.021 265.654L260.235 274.698L255.449 283.746" stroke="black" stroke-miterlimit="10" stroke-linecap="round"/>
<path d="M379.244 280.563L383.795 291.819L388.346 303.071" stroke="black" stroke-miterlimit="10" stroke-linecap="round"/>
<path d="M316.422 283.907C317.04 287.355 317.44 290.837 317.621 294.335C317.845 298.631 317.732 302.937 317.284 307.215C316.999 309.924 316.597 312.473 316.122 314.846C315.648 317.22 315.094 319.423 314.513 321.438" stroke="black" stroke-miterlimit="10" stroke-linecap="round"/>
<path d="M364.983 242.59C366.399 242.949 367.911 242.981 368.898 242.006C369.884 241.03 370.341 239.043 369.658 235.377C368.639 229.906 365.972 224.876 362.014 220.956C360.825 219.775 359.544 218.69 358.182 217.713C356.689 216.635 355.084 215.719 353.396 214.981C352.753 214.706 352.09 214.478 351.413 214.3C350.74 214.116 350.058 213.964 349.376 213.84C348.591 213.674 347.89 213.239 347.393 212.612C347.165 212.357 346.992 212.059 346.885 211.735C346.778 211.411 346.739 211.068 346.772 210.728C346.804 210.388 346.907 210.059 347.073 209.761C347.24 209.463 347.466 209.202 347.739 208.996C348.32 208.51 349.042 208.222 349.8 208.177C350.474 208.145 351.15 208.154 351.824 208.205C353.199 208.277 354.555 208.559 355.844 209.042C356.353 208.605 356.913 208.232 357.514 207.933C358.361 207.506 359.293 207.27 360.243 207.243C360.84 207.228 361.436 207.306 362.009 207.473C362.662 207.673 363.303 207.906 363.932 208.173C364.627 208.452 365.306 208.77 365.965 209.125C366.839 209.595 367.679 210.125 368.478 210.712C368.927 210.562 369.391 210.46 369.861 210.408C370.477 210.333 371.101 210.364 371.706 210.5C372.32 210.636 372.907 210.878 373.439 211.213C373.913 211.515 374.353 211.868 374.749 212.267C375.579 213.09 376.395 213.932 377.188 214.783C377.981 215.634 378.765 216.494 379.521 217.359C383.227 221.6 386.617 226.107 389.665 230.841C392.718 235.577 395.442 240.517 397.817 245.626C398.84 247.825 399.781 249.867 400.634 251.725C401.487 253.584 402.252 255.267 402.939 256.749C398.287 258.832 393.316 261.119 388.346 263.4C383.376 265.682 378.41 267.968 373.757 270.052C372.157 267.444 370.368 264.725 368.372 261.942C366.376 259.159 364.172 256.302 361.737 253.423C360.572 252.043 359.41 250.719 358.251 249.453C357.092 248.186 355.943 246.975 354.802 245.819C353.422 244.425 352.434 242.692 351.939 240.796C351.589 239.241 351.801 237.907 352.479 237.088C352.867 236.628 353.386 236.296 353.968 236.136C354.551 235.97 355.169 235.97 355.752 236.136C356.448 236.351 357.104 236.679 357.693 237.107C358.612 237.771 359.436 238.557 360.142 239.443C360.766 240.205 361.501 240.868 362.323 241.412C363.138 241.949 364.037 242.347 364.983 242.59Z" fill="#F2B3C1" stroke="black" stroke-miterlimit="10" stroke-linecap="round"/>
<path d="M372.19 268.718L377.921 281.938L383.652 295.159L392.261 283.599L400.874 272.034L386.529 270.378L372.19 268.718Z" fill="#ECE7E1" stroke="black" stroke-miterlimit="10" stroke-linecap="round"/>
<path d="M355.844 209.019C356.19 209.134 356.596 209.281 357.057 209.479C357.518 209.677 358.016 209.875 358.56 210.132C358.56 210.132 359.233 210.45 360.252 211.052C361.562 211.815 362.815 212.671 364.001 213.614C366.357 215.599 368.488 217.836 370.355 220.284C372.075 222.474 373.269 224.291 373.531 224.696" stroke="black" stroke-miterlimit="10" stroke-linecap="round"/>
<path d="M367.98 210.334C368.284 210.61 368.639 210.937 369.027 211.305C369.414 211.673 369.843 212.082 370.295 212.538C370.562 212.8 371.092 213.334 371.798 214.079C372.503 214.824 373.384 215.785 374.348 216.908C374.952 217.612 375.606 218.403 376.298 219.272C376.99 220.142 377.718 221.112 378.465 222.124" stroke="black" stroke-miterlimit="10" stroke-linecap="round"/>
<path d="M279.656 231.126C278.222 231.416 276.714 231.37 275.778 230.349C274.842 229.328 274.478 227.322 275.345 223.693C276.634 218.281 279.547 213.39 283.695 209.672C284.94 208.549 286.274 207.527 287.683 206.618C289.231 205.615 290.88 204.778 292.603 204.12C293.259 203.881 293.93 203.687 294.613 203.54C295.296 203.388 295.996 203.273 296.679 203.158C297.47 203.03 298.192 202.632 298.721 202.031C299.201 201.51 299.454 200.82 299.427 200.113C299.36 199.454 299.047 198.843 298.551 198.402C297.994 197.888 297.286 197.565 296.531 197.482C295.86 197.417 295.186 197.392 294.512 197.408C293.134 197.414 291.766 197.63 290.454 198.048C289.971 197.586 289.43 197.187 288.845 196.861C288.018 196.392 287.1 196.108 286.152 196.028C285.557 195.986 284.958 196.036 284.377 196.176C283.715 196.341 283.062 196.542 282.422 196.778C281.714 197.022 281.02 197.305 280.343 197.625C279.446 198.052 278.58 198.541 277.751 199.087C277.315 198.916 276.863 198.792 276.4 198.715C275.79 198.613 275.167 198.613 274.556 198.715C273.937 198.824 273.342 199.037 272.795 199.345C272.296 199.619 271.832 199.951 271.412 200.334C270.545 201.111 269.687 201.912 268.848 202.721C268.009 203.531 267.193 204.354 266.395 205.178C262.475 209.23 258.857 213.563 255.569 218.141C252.28 222.719 249.313 227.519 246.688 232.506C245.554 234.65 244.512 236.646 243.572 238.459C242.631 240.271 241.778 241.913 241.036 243.362C243.378 244.589 245.736 245.816 248.109 247.042C250.482 248.269 252.872 249.496 255.278 250.722C257.593 251.903 259.898 253.07 262.195 254.223C264.491 255.376 266.782 256.518 269.069 257.65C270.787 254.65 272.828 251.846 275.156 249.287C277.461 246.707 279.946 244.296 282.445 241.927C283.902 240.547 287.328 237.861 289.919 234.908C292.511 231.954 294.272 228.725 292.409 226.241C292.044 225.763 291.543 225.405 290.971 225.215C290.396 225.023 289.78 224.996 289.191 225.137C288.483 225.315 287.81 225.609 287.199 226.007C286.251 226.627 285.39 227.371 284.64 228.219C283.976 228.942 283.209 229.562 282.362 230.059C281.525 230.561 280.611 230.922 279.656 231.126Z" fill="#F2B3C1" stroke="black" stroke-miterlimit="10" stroke-linecap="round"/>
<path d="M377.714 262.59C377.719 265.481 376.72 268.283 374.886 270.521C373.053 272.759 370.498 274.293 367.658 274.862C364.818 275.432 361.867 275.001 359.31 273.644C356.752 272.287 354.745 270.087 353.631 267.419C352.517 264.751 352.364 261.78 353.199 259.013C354.034 256.245 355.805 253.852 358.21 252.241C360.615 250.63 363.506 249.901 366.39 250.177C369.273 250.454 371.972 251.72 374.025 253.759C375.195 254.914 376.123 256.29 376.756 257.806C377.389 259.322 377.715 260.948 377.714 262.59Z" fill="#ECE7E1" stroke="black" stroke-miterlimit="10" stroke-linecap="round"/>
<path d="M290.454 198.052C290.104 198.149 289.689 198.278 289.223 198.434C288.757 198.591 288.241 198.784 287.687 199.014C287.687 199.014 286.996 199.299 285.949 199.842C284.602 200.538 283.308 201.332 282.076 202.215C279.626 204.079 277.388 206.207 275.404 208.559C273.56 210.661 272.292 212.418 272.011 212.809" stroke="black" stroke-miterlimit="10" stroke-linecap="round"/>
<path d="M278.268 198.761C277.95 199.023 277.581 199.331 277.175 199.681C276.769 200.03 276.322 200.417 275.847 200.849C275.566 201.098 275.013 201.604 274.27 202.312C273.528 203.02 272.601 203.94 271.582 205.017C270.941 205.688 270.245 206.443 269.512 207.275C268.779 208.108 268.004 209.023 267.207 210.035" stroke="black" stroke-miterlimit="10" stroke-linecap="round"/>
<path d="M514.193 400.503C511.426 394.868 506.871 391.202 502.717 388.87C499.834 387.258 496.75 386.033 493.546 385.226C497.98 382.015 501.262 377.465 502.906 372.25C504.404 367.653 504.409 362.701 502.918 358.101C501.428 353.501 498.519 349.489 494.606 346.637C490.978 343.966 486.701 342.308 482.217 341.835C484.741 337.777 485.931 333.034 485.62 328.269C485.368 323.914 483.778 319.743 481.066 316.321C478.355 312.899 474.653 310.392 470.464 309.142C466.5 307.94 462.283 307.837 458.264 308.843C459.343 305.683 459.771 302.338 459.523 299.009C459.303 295.683 458.344 292.447 456.715 289.537C452.367 281.947 443.855 277.002 434.74 275.314C425.624 273.626 415.905 275.185 409.141 280.604C405.799 283.32 403.265 286.896 401.814 290.945C400.352 294.988 399.763 299.295 400.085 303.581L396.479 304.86L392.878 306.134L395.506 308.227L398.139 310.325C397.438 310.92 396.871 311.657 396.475 312.487C395.871 313.807 395.728 315.605 397.563 317.51C399.005 316.653 400.54 315.961 402.137 315.444C404.209 314.775 406.377 314.449 408.555 314.478C410.899 314.521 413.226 314.884 415.471 315.555C418.408 316.475 421.396 318.177 422.682 321.328C422.715 321.401 422.742 321.475 422.77 321.544C422.798 321.613 422.821 321.691 422.844 321.76C423.526 323.734 422.922 325.868 421.982 327.667C421.225 329.099 420.248 330.405 419.086 331.535C417.08 333.375 413.618 333.923 409.482 333.122C405.346 332.322 400.532 330.178 395.82 326.632C395.598 327.765 395.482 328.917 395.474 330.072C395.471 330.93 395.534 331.787 395.663 332.635C395.815 333.61 396 334.516 396.17 335.266C396.341 336.016 396.507 336.614 396.631 336.982C396.756 337.35 396.844 337.649 396.94 337.934C397.037 338.219 397.129 338.472 397.208 338.684C396.47 338.527 395.585 338.32 394.593 338.04C393.602 337.759 392.496 337.414 391.32 336.972C389.282 336.209 387.311 335.278 385.427 334.189C383.717 333.21 382.223 332.198 380.789 331.222C378.483 329.654 376.256 327.943 374.601 326.622C372.946 325.302 371.862 324.378 371.862 324.378C371.862 324.378 370.115 325.56 367.514 327.4C364.914 329.24 361.493 331.659 358.085 334.134C356.702 335.128 355.471 336.043 354.355 336.871C353.239 337.699 352.262 338.426 351.436 339.042L342.284 335.362L333.132 331.682C332.54 331.361 331.89 331.162 331.22 331.097C330.549 331.032 329.873 331.103 329.231 331.305C328.647 331.475 328.108 331.768 327.649 332.165C327.189 332.562 326.822 333.053 326.57 333.605C326.208 334.498 326.169 335.488 326.46 336.407C326.769 337.41 327.387 338.29 328.226 338.923L336.124 344.167L344.027 349.406L343.981 349.503C343.964 349.533 343.948 349.563 343.935 349.595C340.361 349.011 338.282 350.404 337.092 351.941C336.367 352.893 335.86 353.992 335.607 355.161C331.094 354.452 328.926 355.952 327.889 357.631C327.257 358.699 326.929 359.919 326.939 361.159C324.283 362.397 323.357 364.687 323.089 366.679C322.931 367.905 322.977 369.148 323.223 370.359C324.452 374.466 325.484 378.624 326.317 382.834C327.15 387.045 327.765 391.285 328.161 395.553L329.083 405.158L330.005 414.763C330.065 415.683 330.139 416.562 330.222 417.459C330.305 418.356 330.397 419.262 330.494 420.168C331.721 431.13 334.685 441.788 340.052 450.827C345.419 459.866 353.175 467.254 363.982 471.674C371.95 474.858 380.504 476.32 389.079 475.961C397.706 475.631 406.21 473.815 414.217 470.593C420.158 468.192 425.83 465.175 431.139 461.591C436.449 458.011 441.454 454.002 446.105 449.603C447.106 448.683 452.169 442.883 456.798 437.234C461.427 431.585 465.609 426.074 464.848 425.688L482.07 434.428L499.272 443.14C507.203 437.662 512.533 430.26 515.074 422.62C517.614 414.979 517.411 407.021 514.193 400.503Z" fill="url(#paint2_linear_484_2121)" stroke="black" stroke-miterlimit="10" stroke-linecap="round"/>
<path d="M421.53 328.426C421.65 328.205 417.339 325.132 416.919 324.875C413.157 322.552 407.896 320.817 403.548 322.529C403.226 322.651 402.917 322.805 402.626 322.989C402.331 323.179 402.064 323.41 401.833 323.674C401.599 323.944 401.419 324.256 401.302 324.594C401.18 324.923 401.134 325.275 401.169 325.624C401.33 327.23 402.769 328.237 404.396 329.061C406.024 329.884 407.9 330.537 408.91 331.43C409.293 331.777 409.648 332.153 409.971 332.557C410.197 332.846 410.367 333.104 410.487 333.288C411.258 333.45 412.046 333.526 412.834 333.513C414.347 333.518 415.842 333.185 417.21 332.538C419.038 331.641 420.546 330.205 421.53 328.426Z" fill="#DBCAF4" stroke="black" stroke-miterlimit="10" stroke-linecap="round"/>
<path d="M412.359 306.99C412.36 307.221 412.314 307.451 412.226 307.665C412.137 307.879 412.007 308.073 411.843 308.237C411.679 308.401 411.484 308.53 411.27 308.619C411.055 308.707 410.825 308.752 410.593 308.751C410.361 308.753 410.131 308.708 409.916 308.62C409.702 308.531 409.507 308.401 409.344 308.236C409.013 307.906 408.828 307.459 408.828 306.992C408.828 306.525 409.013 306.078 409.344 305.748C409.59 305.501 409.905 305.333 410.247 305.265C410.589 305.197 410.944 305.231 411.267 305.364C411.59 305.497 411.866 305.722 412.06 306.012C412.254 306.301 412.359 306.641 412.359 306.99Z" fill="#040400"/>
<path d="M409.279 301.479L414.918 299.285L420.557 297.09" stroke="black" stroke-miterlimit="10" stroke-linecap="round"/>
<path d="M421.954 398.286C419.363 408.277 414.36 415.863 408.717 420.642C403.073 425.421 396.802 427.381 391.657 426.125C390.176 425.758 388.772 425.135 387.507 424.285C386.288 423.472 385.175 422.513 384.192 421.428C382.529 419.602 381.198 417.501 380.259 415.218C379.305 412.929 378.733 410.498 378.567 408.024L377.289 389.739L376.017 371.45C375.837 368.906 375.662 366.362 375.51 363.818C375.357 361.274 375.238 358.726 375.159 356.178C375.136 355.139 374.981 354.109 374.698 353.109C373.994 350.704 372.486 348.611 370.424 347.18C369.773 346.719 369.076 346.328 368.344 346.012C365.476 344.912 362.604 343.712 359.731 342.47C356.859 341.228 353.977 340.013 351.123 338.9" stroke="black" stroke-miterlimit="10" stroke-linecap="round"/>
<path d="M361.539 359.048L352.838 354.508L344.138 349.967C343.553 349.649 342.908 349.458 342.245 349.407C341.581 349.355 340.914 349.445 340.288 349.668C339.666 349.887 339.099 350.238 338.627 350.697C338.154 351.156 337.788 351.713 337.553 352.327C337.246 353.153 337.19 354.051 337.392 354.908C337.593 355.768 338.016 356.561 338.619 357.208C339.619 358.27 340.68 359.274 341.795 360.216C342.902 361.178 344.027 362.116 345.097 363.096C347.199 365.023 349.615 367.038 351.16 369.37C352.705 371.702 353.373 374.361 351.981 377.572C351.888 377.784 351.787 377.991 351.681 378.193C351.575 378.395 351.46 378.598 351.344 378.796C350.607 380.108 350.015 381.496 349.578 382.936C348.768 385.539 348.42 388.263 348.55 390.986C348.694 393.964 349.387 396.891 350.593 399.62C351.328 401.298 352.257 402.885 353.359 404.349" stroke="black" stroke-miterlimit="10" stroke-linecap="round"/>
<path d="M326.856 385.719C326.937 386.384 327.158 387.024 327.504 387.599C327.851 388.173 328.315 388.667 328.867 389.049C329.357 389.406 329.921 389.65 330.517 389.765C331.113 389.88 331.727 389.861 332.316 389.711C333.346 389.393 334.208 388.68 334.713 387.729C335.285 386.687 335.449 385.471 335.174 384.316C335.315 384.979 335.593 385.606 335.99 386.156C336.387 386.707 336.894 387.168 337.48 387.513C337.953 387.817 338.49 388.01 339.049 388.077C339.608 388.145 340.175 388.086 340.707 387.904C341.167 387.689 341.578 387.38 341.912 386.999C342.246 386.617 342.497 386.17 342.648 385.686C343.046 384.523 342.996 383.255 342.51 382.126C342.799 382.727 343.172 383.285 343.617 383.782C344.406 384.742 345.539 385.357 346.775 385.498C347.214 385.53 347.656 385.496 348.085 385.397C348.419 385.319 348.744 385.205 349.053 385.056" stroke="black" stroke-miterlimit="10" stroke-linecap="round"/>
<path d="M350.671 380.107L348.412 372.084L346.157 364.062" stroke="black" stroke-miterlimit="10" stroke-linecap="round"/>
<path d="M335.608 355.166C335.424 356.411 335.344 357.67 335.368 358.928C335.367 361.734 335.849 364.519 336.793 367.162L339.638 374.642L342.487 382.14" stroke="black" stroke-miterlimit="10" stroke-linecap="round"/>
<path d="M326.939 361.164C326.939 361.541 326.939 362.001 326.986 362.544C327.032 363.087 327.064 363.666 327.147 364.31C327.32 365.736 327.608 367.145 328.009 368.524C328.387 369.826 328.844 371.058 329.351 372.323C330.37 374.886 331.476 377.301 332.519 379.417C333.561 381.533 334.543 383.359 335.317 384.748" stroke="black" stroke-miterlimit="10" stroke-linecap="round"/>
<path d="M395.474 330.243C395.474 330.243 395.419 336.563 398.919 342.203C402.418 347.842 409.477 352.783 423.706 350.023" stroke="black" stroke-miterlimit="10" stroke-linecap="round"/>
<path d="M260.466 334.323C259.044 330.256 256.708 326.568 253.637 323.54C248.524 318.48 239.998 314.138 226.378 316.893C223.24 317.604 220.266 318.906 217.617 320.73C213.163 323.784 208.562 329.106 207.972 338.21C207.972 338.21 200.894 334.07 193.429 333.573C185.964 333.076 178.098 336.204 176.531 350.736C172.679 349.176 168.474 348.697 164.369 349.352C160.265 350.006 156.418 351.768 153.246 354.448C150.04 357.094 147.636 360.578 146.302 364.51C144.968 368.442 144.757 372.667 145.694 376.712C147.81 386.234 154.68 392.034 162.643 393.828C166.833 394.746 171.189 394.588 175.301 393.369C179.414 392.151 183.149 389.911 186.158 386.859C176.116 396.087 169.199 407.923 165.234 420.771C161.311 433.714 160.211 447.346 162.007 460.749C163.196 469.27 166.343 477.401 171.2 484.508C176.189 491.762 183.009 497.765 191.405 500.76C199.372 503.603 207.759 503.391 215.349 501.602C222.229 499.985 228.732 497.057 234.498 492.977C237.965 490.456 241.875 486.771 245.54 483.059C249.206 479.347 252.576 475.603 254.96 472.939C256.915 470.777 257.634 469.903 258.418 468.946C259.202 467.99 260.046 466.955 262.255 464.475C262.255 464.475 266.727 459.452 272.426 452.865C278.125 446.278 285.046 438.145 289.947 431.88C290.457 431.247 290.91 430.571 291.303 429.86C292.406 427.879 292.871 425.606 292.635 423.351C292.551 422.523 292.388 421.705 292.146 420.909C293.542 419.449 294.483 417.616 294.853 415.632C295.134 413.898 294.807 412.307 293.931 411.193C293.637 410.834 293.289 410.524 292.898 410.273C292.153 409.81 291.319 409.509 290.45 409.39C290.777 408.031 290.79 406.615 290.486 405.25C289.97 403.18 288.379 401.11 284.096 401C284.367 399.714 284.329 398.382 283.985 397.113C283.395 395.273 281.735 393.64 277.447 394.468L282.906 387.2L288.402 379.923C289.302 378.893 289.848 377.604 289.961 376.243C290.026 375.727 289.983 375.204 289.834 374.707C289.685 374.209 289.432 373.748 289.094 373.354C288.361 372.613 287.051 372.282 285.65 372.521C284.025 372.818 282.582 373.738 281.629 375.083L271.485 386.629L261.342 398.171C261.84 396.135 262.339 394.095 262.84 392.053C263.341 390.01 263.841 387.973 264.339 385.939C266.729 383.371 268.747 380.48 270.333 377.351C272.758 372.42 274.021 366.219 269.41 361.132C267.303 367.079 263.753 371.408 259.931 373.97C256.108 376.532 252.005 377.328 248.8 376.197C247.895 375.878 247.049 375.412 246.297 374.817C245.576 374.242 244.927 373.582 244.365 372.852C243.025 371.128 242.12 369.109 241.723 366.964C241.322 364.81 241.391 362.595 241.926 360.469C242.263 359.094 242.742 357.758 243.355 356.481C244.071 354.994 244.973 353.603 246.038 352.341C248.857 349.055 252.661 346.761 256.888 345.8C259.073 345.255 261.328 345.036 263.578 345.151L262.863 342.962C262.623 342.235 262.402 341.503 262.148 340.772L265.252 339.07L268.35 337.368L264.408 335.841L260.466 334.323Z" fill="url(#paint3_linear_484_2121)" stroke="black" stroke-miterlimit="10" stroke-linecap="round"/>
<path d="M222.569 380.907C221.788 383.12 220.678 385.204 219.277 387.09C216.761 390.684 213.116 393.339 208.919 394.635C204.721 395.931 200.21 395.795 196.099 394.247C192.127 392.8 188.667 390.226 186.144 386.841" stroke="black" stroke-miterlimit="10" stroke-linecap="round"/>
<path d="M261.346 398.203C249.086 413.277 233.22 427.022 220.416 436.995C207.612 446.968 197.879 453.178 197.879 453.178" stroke="black" stroke-miterlimit="10" stroke-linecap="round"/>
<path d="M264.343 385.972C262.524 387.466 260.545 388.754 258.441 389.813C256.881 390.591 255.249 391.218 253.568 391.685C249.679 392.728 245.655 393.181 241.63 393.028C238.509 392.931 236.522 392.568 236.494 392.738C236.466 392.908 237.679 393.221 241.386 393.976C245.093 394.73 251.308 395.885 261.295 397.656L262.817 391.818L264.343 385.972Z" fill="#040400" stroke="#040400" stroke-miterlimit="10"/>
<path d="M277.41 394.495C275.488 396.561 272.435 399.684 269.378 402.808C266.321 405.931 263.269 409.054 261.346 411.12" stroke="black" stroke-miterlimit="10" stroke-linecap="round"/>
<path d="M284.059 401.027L275.87 409.602L267.677 418.172" stroke="black" stroke-miterlimit="10" stroke-linecap="round"/>
<path d="M290.413 409.395L282.45 417.362L274.487 425.329" stroke="black" stroke-miterlimit="10" stroke-linecap="round"/>
<path d="M292.123 420.909L288.587 424.478L285.046 428.043" stroke="black" stroke-miterlimit="10" stroke-linecap="round"/>
<path d="M244 342.442C244 342.909 243.814 343.357 243.483 343.688C243.152 344.018 242.703 344.204 242.234 344.204C241.766 344.204 241.317 344.018 240.986 343.688C240.655 343.357 240.469 342.909 240.469 342.442C240.469 341.975 240.655 341.526 240.986 341.196C241.317 340.866 241.766 340.68 242.234 340.68C242.703 340.68 243.152 340.866 243.483 341.196C243.814 341.526 244 341.975 244 342.442Z" fill="#040400"/>
<path d="M245.955 335.741L239.906 335.529L233.857 335.317" stroke="black" stroke-miterlimit="10" stroke-linecap="round"/>
<path d="M301.875 159.247C301.874 159.653 301.732 160.047 301.473 160.36C301.214 160.674 300.855 160.888 300.455 160.967C300.055 161.046 299.641 160.984 299.282 160.792C298.923 160.6 298.642 160.29 298.486 159.914C298.33 159.539 298.31 159.121 298.429 158.732C298.547 158.344 298.797 158.008 299.136 157.782C299.474 157.556 299.881 157.455 300.286 157.495C300.692 157.534 301.071 157.713 301.359 158C301.523 158.164 301.653 158.358 301.742 158.572C301.83 158.786 301.876 159.015 301.875 159.247Z" fill="#040400"/>
<path d="M309.275 157.43L306.929 151.859L304.582 146.293" stroke="black" stroke-miterlimit="10" stroke-linecap="round"/>
<path d="M319.913 219.3C319.959 219.223 320.027 219.161 320.108 219.122C320.189 219.083 320.279 219.068 320.368 219.08C320.458 219.092 320.541 219.129 320.61 219.188C320.678 219.247 320.727 219.324 320.752 219.41C321.41 221.593 322.404 223.66 323.698 225.537C325.593 228.332 328.278 230.502 331.412 231.77C332.65 232.263 333.942 232.605 335.262 232.792C336.387 232.947 337.525 232.996 338.66 232.939C338.473 228.659 336.972 224.539 334.358 221.14C331.935 217.912 328.338 215.762 324.342 215.153C320.345 214.545 316.269 215.527 312.992 217.888C309.436 220.386 306.743 223.921 305.282 228.008C305.591 228.072 305.886 228.123 306.172 228.155C306.458 228.187 306.726 228.21 306.984 228.219C310.276 228.334 313.112 226.738 315.325 224.792C317.105 223.186 318.65 221.337 319.913 219.3Z" fill="#ECE7E1" stroke="black" stroke-miterlimit="10" stroke-linecap="round"/>
<path d="M333.505 239.448C333.506 240.265 333.223 241.058 332.704 241.691C332.185 242.323 331.462 242.757 330.659 242.917C329.855 243.078 329.021 242.955 328.298 242.57C327.575 242.186 327.008 241.563 326.694 240.807C326.379 240.052 326.337 239.212 326.575 238.43C326.812 237.647 327.314 236.971 327.995 236.516C328.677 236.062 329.495 235.857 330.31 235.937C331.126 236.017 331.888 236.377 332.468 236.955C332.796 237.282 333.057 237.67 333.235 238.098C333.413 238.526 333.505 238.985 333.505 239.448Z" fill="#FF6406" stroke="#070707" stroke-miterlimit="10" stroke-linecap="round"/>
<path d="M311.793 265.534C312.973 263.915 314.151 262.294 315.325 260.672L318.852 255.81C318.897 255.747 318.956 255.696 319.025 255.662C319.094 255.628 319.171 255.612 319.248 255.615C319.325 255.619 319.4 255.641 319.466 255.681C319.533 255.72 319.588 255.776 319.627 255.842L322.767 261.045L325.907 266.252" stroke="black" stroke-miterlimit="10" stroke-linecap="round"/>
<path d="M241.898 496.519C240.57 496.436 239.353 496.385 238.265 496.358C237.176 496.33 236.217 496.316 235.42 496.312C235.244 497.857 235.014 499.743 234.719 501.91C234.424 504.077 234.05 506.51 233.598 509.201C233.183 511.644 232.847 513.479 232.529 514.942C232.288 516.136 231.955 517.309 231.533 518.452C230.603 520.822 229.12 522.936 227.208 524.62C225.267 526.419 222.8 528.121 219.757 530.223C215.833 532.932 212.476 534.621 209.751 536.428C207.026 538.236 204.942 540.173 203.564 543.379C203.467 543.604 203.365 543.839 203.269 544.106C203.172 544.373 203.075 544.635 202.978 544.92L242.433 544.823L281.887 544.727C281.783 541.636 281.7 538.505 281.638 535.334C281.577 532.163 281.54 528.952 281.528 525.701C281.528 522.635 281.535 519.612 281.551 516.635C281.566 513.657 281.614 510.704 281.694 507.775C280.97 507.315 280.098 506.791 279.098 506.229C278.097 505.668 276.958 505.066 275.7 504.458C273.39 503.339 271.009 502.374 268.571 501.57C266.372 500.838 264.32 500.295 262.291 499.757C260.562 499.297 257.865 498.644 254.402 498.018C250.266 497.28 246.091 496.78 241.898 496.519Z" fill="#ECE7E1" stroke="black" stroke-miterlimit="10" stroke-linecap="round"/>
<path d="M202.978 544.92C202.602 546.057 202.329 547.226 202.162 548.411C201.954 549.917 201.9 551.44 202.001 552.956H281.883V548.816C281.883 547.436 281.883 546.056 281.883 544.704L261.678 544.754L202.978 544.92Z" fill="#DBCAF4" stroke="black" stroke-miterlimit="10" stroke-linecap="round"/>
<path d="M224.179 549.327H253.033H281.883" stroke="black" stroke-miterlimit="10" stroke-linecap="round"/>
<path d="M230.495 502.361C229.554 503.58 228.689 504.855 227.904 506.179C227.115 507.5 226.463 508.898 225.958 510.351C225.514 511.817 225.314 513.347 225.368 514.877C225.437 516.593 225.921 518.171 227.235 518.557C229.356 519.206 231.113 517.472 232.492 515.222C233.87 512.973 234.862 510.213 235.443 508.815C236.272 506.825 236.932 504.769 237.416 502.669C237.901 500.571 238.244 498.442 238.444 496.298C238.249 498.744 238.465 501.205 239.081 503.58C239.689 505.944 240.426 508.274 241.289 510.558C241.662 511.63 242.106 512.677 242.617 513.691C243.119 514.701 243.738 515.649 244.461 516.515C245.258 517.425 246.219 518.178 247.292 518.737C248.445 519.303 249.672 519.473 250.585 518.59C251.216 517.978 251.355 516.892 251.29 515.765C251.208 514.742 251.039 513.728 250.783 512.734C250.515 511.646 250.151 510.584 249.695 509.56C249.235 508.537 248.709 507.546 248.118 506.593C246.969 504.734 245.641 502.991 244.153 501.39C242.665 499.788 241.037 498.32 239.288 497.006C238.324 496.284 237.601 496.128 236.904 496.33C236.208 496.533 235.521 497.103 234.673 497.83C233.885 498.499 233.143 499.22 232.45 499.987C231.791 500.742 231.122 501.542 230.495 502.361Z" stroke="black" stroke-miterlimit="10" stroke-linecap="round"/>
<path d="M238.343 500.967C238.402 504.526 238.641 508.081 239.058 511.616C239.735 517.196 241.049 523.291 243.599 525.342" stroke="black" stroke-miterlimit="10" stroke-linecap="round"/>
<path d="M237.845 502.135C237.845 502.135 237.31 507.196 236.222 512.665C235.134 518.134 233.492 523.912 231.284 525.343" stroke="black" stroke-miterlimit="10" stroke-linecap="round"/>
<path d="M297.347 517.495C297.914 521.479 302.913 524.45 310.53 526.033C318.147 527.615 328.392 527.813 339.453 526.244C350.514 524.676 360.294 521.644 367.169 518.006C374.043 514.367 378.013 510.126 377.446 506.142C376.879 502.159 371.886 499.187 364.264 497.6C356.642 496.013 346.402 495.82 335.345 497.388C324.288 498.957 314.5 501.988 307.625 505.627C300.75 509.266 296.803 513.511 297.347 517.495Z" fill="#84A1E5" stroke="#070707" stroke-miterlimit="10" stroke-linecap="round"/>
<path d="M343.833 496.519C345.157 496.436 346.374 496.385 347.462 496.358C348.55 496.33 349.509 496.316 350.307 496.312C350.482 497.857 350.713 499.743 351.008 501.91C351.303 504.077 351.676 506.51 352.133 509.201C352.548 511.644 352.88 513.479 353.198 514.942C353.439 516.136 353.772 517.309 354.194 518.452C355.124 520.822 356.606 522.936 358.519 524.62C360.46 526.419 362.927 528.121 365.97 530.223C369.894 532.932 373.25 534.621 375.975 536.428C378.7 538.236 380.784 540.173 382.163 543.379C382.26 543.604 382.361 543.839 382.458 544.106C382.555 544.373 382.652 544.635 382.749 544.92L343.294 544.823L303.839 544.727C303.947 541.636 304.03 538.505 304.088 535.334C304.147 532.163 304.184 528.952 304.199 525.701C304.199 522.635 304.199 519.612 304.199 516.635C304.199 513.657 304.151 510.704 304.056 507.775C304.78 507.315 305.651 506.791 306.652 506.229C307.652 505.668 308.791 505.066 310.05 504.458C312.359 503.339 314.741 502.374 317.178 501.57C319.378 500.838 321.43 500.295 323.458 499.757C325.187 499.297 327.885 498.644 331.347 498.018C335.477 497.281 339.646 496.78 343.833 496.519Z" fill="#ECE7E1" stroke="black" stroke-miterlimit="10" stroke-linecap="round"/>
<path d="M382.739 544.92C383.116 546.057 383.389 547.226 383.555 548.411C383.763 549.917 383.817 551.44 383.717 552.956H303.835V548.816C303.835 547.436 303.835 546.056 303.835 544.704L324.039 544.754L382.739 544.92Z" fill="#DBCAF4" stroke="black" stroke-miterlimit="10" stroke-linecap="round"/>
<path d="M361.539 549.327H332.684H303.835" stroke="black" stroke-miterlimit="10" stroke-linecap="round"/>
<path d="M354.761 502.361C355.702 503.58 356.567 504.855 357.352 506.179C358.141 507.5 358.793 508.898 359.298 510.351C359.743 511.817 359.942 513.347 359.888 514.877C359.819 516.593 359.335 518.171 358.021 518.557C355.9 519.206 354.143 517.472 352.765 515.222C351.386 512.973 350.395 510.213 349.814 508.815C348.985 506.825 348.325 504.769 347.84 502.669C347.356 500.571 347.012 498.442 346.812 496.298C347.007 498.744 346.792 501.205 346.176 503.58C345.567 505.944 344.83 508.274 343.967 510.558C343.594 511.63 343.15 512.677 342.639 513.691C342.138 514.701 341.519 515.649 340.795 516.515C339.998 517.425 339.038 518.178 337.964 518.737C336.811 519.303 335.585 519.473 334.672 518.59C334.04 517.978 333.902 516.892 333.966 515.765C334.048 514.742 334.218 513.728 334.473 512.734C334.732 511.647 335.087 510.584 335.534 509.56C335.993 508.537 336.52 507.546 337.111 506.593C338.259 504.734 339.587 502.991 341.076 501.39C342.564 499.788 344.192 498.32 345.941 497.006C346.904 496.284 347.628 496.128 348.324 496.33C349.021 496.533 349.708 497.103 350.556 497.83C351.344 498.499 352.086 499.22 352.778 499.987C353.479 500.742 354.134 501.542 354.761 502.361Z" stroke="black" stroke-miterlimit="10" stroke-linecap="round"/>
<path d="M346.913 500.967C346.854 504.526 346.616 508.081 346.199 511.616C345.521 517.196 344.207 523.291 341.657 525.342" stroke="black" stroke-miterlimit="10" stroke-linecap="round"/>
<path d="M347.411 502.135C347.411 502.135 347.946 507.196 349.034 512.665C350.123 518.134 351.764 523.912 353.977 525.343" stroke="black" stroke-miterlimit="10" stroke-linecap="round"/>
</g>
<circle cx="120" cy="89" r="7" fill="#BDECE6"/>
<circle cx="488" cy="11" r="10" fill="#F6C34C"/>
<circle cx="130" cy="632" r="7" fill="#FC762B"/>
<circle cx="565" cy="535" r="7" fill="#F2B3C1"/>
<circle cx="56" cy="499" r="10" fill="#DBCAF4"/>
<circle cx="10" cy="232" r="10" fill="#F2B3C1"/>
<circle cx="395" cy="625" r="10" fill="#A5C3FF"/>
<defs>
<linearGradient id="paint0_linear_484_2121" x1="80" y1="91.9999" x2="450.425" y2="645.351" gradientUnits="userSpaceOnUse">
<stop stop-color="#A5C3FF"/>
<stop offset="1" stop-color="#DBCAF4"/>
</linearGradient>
<linearGradient id="paint1_linear_484_2121" x1="211.467" y1="283.594" x2="306.869" y2="117.966" gradientUnits="userSpaceOnUse">
<stop offset="0.14" stop-color="#A4C2FF"/>
<stop offset="0.45" stop-color="#B5DEED"/>
<stop offset="0.73" stop-color="#C6FCDB"/>
</linearGradient>
<linearGradient id="paint2_linear_484_2121" x1="329.941" y1="433.283" x2="494.035" y2="338.318" gradientUnits="userSpaceOnUse">
<stop offset="0.25" stop-color="#A4C2FF"/>
<stop offset="0.5" stop-color="#B5DEED"/>
<stop offset="0.73" stop-color="#C6FCDB"/>
</linearGradient>
<linearGradient id="paint3_linear_484_2121" x1="166.516" y1="487.089" x2="259.377" y2="325.868" gradientUnits="userSpaceOnUse">
<stop offset="0.22" stop-color="#A4C2FF"/>
<stop offset="0.48" stop-color="#B5DEED"/>
<stop offset="0.73" stop-color="#C6FCDB"/>
</linearGradient>
<clipPath id="clip0_484_2121">
<rect width="480" height="480" fill="white" transform="translate(80 91.9999)"/>
</clipPath>
</defs>
</svg>
