<svg width="640" height="640" viewBox="0 0 640 640" fill="none" xmlns="http://www.w3.org/2000/svg">
<path fill-rule="evenodd" clip-rule="evenodd" d="M239.479 170.521C239.479 126.05 275.53 89.9999 320 89.9999C364.47 89.9999 400.521 126.05 400.521 170.521V192.096L419.206 181.308C457.718 159.073 506.964 172.268 529.199 210.781C551.434 249.293 538.239 298.539 499.726 320.774L481.041 331.562L499.726 342.349C538.238 364.585 551.434 413.83 529.199 452.343C506.963 490.855 457.718 504.05 419.205 481.815L400.521 471.028V492.603C400.521 537.074 364.47 573.124 320 573.124C275.53 573.124 239.479 537.074 239.479 492.603V471.028L220.795 481.815C182.282 504.05 133.036 490.855 110.801 452.343C88.5661 413.83 101.761 364.585 140.274 342.349L158.959 331.562L140.274 320.774C101.761 298.539 88.5658 249.293 110.801 210.781C133.036 172.268 182.282 159.073 220.794 181.308L239.479 192.096V170.521Z" fill="url(#paint0_linear_484_2128)"/>
<path d="M318.214 121.297C331.619 121.297 344.476 126.622 353.956 136.1C363.436 145.579 368.763 158.434 368.765 171.84V305.6H267.662V171.84C267.664 158.434 272.991 145.579 282.471 136.1C291.951 126.622 304.808 121.297 318.214 121.297Z" fill="url(#paint1_linear_484_2128)" stroke="black" stroke-miterlimit="10" stroke-linecap="round"/>
<path d="M318.213 136.107C322.703 136.106 327.148 136.99 331.296 138.707C335.444 140.425 339.213 142.943 342.387 146.117C345.562 149.291 348.08 153.06 349.797 157.208C351.515 161.356 352.398 165.802 352.397 170.291V305.6H284.025V170.291C284.025 165.802 284.91 161.356 286.628 157.209C288.346 153.061 290.864 149.292 294.039 146.118C297.214 142.944 300.983 140.426 305.131 138.708C309.278 136.991 313.724 136.107 318.213 136.107Z" fill="url(#paint2_linear_484_2128)" stroke="black" stroke-miterlimit="10" stroke-linecap="round"/>
<path d="M318.214 153.589C320.413 153.588 322.591 154.021 324.623 154.862C326.655 155.704 328.501 156.937 330.056 158.492C331.612 160.047 332.845 161.894 333.687 163.926C334.528 165.958 334.961 168.136 334.96 170.335V305.6H301.467V170.335C301.468 165.894 303.233 161.635 306.373 158.495C309.514 155.355 313.773 153.59 318.214 153.589Z" fill="url(#paint3_linear_484_2128)" stroke="black" stroke-miterlimit="10" stroke-linecap="round"/>
<path d="M203.651 542.703C214.322 503.185 224.991 463.67 235.656 424.158C246.322 384.646 256.991 345.127 267.662 305.6H368.765L402.557 423.903L436.349 542.21L320 542.465L203.651 542.703Z" fill="url(#paint4_linear_484_2128)" stroke="black" stroke-miterlimit="10" stroke-linecap="round"/>
<path d="M375.695 277.532L359.521 279.772L343.346 282.016C340.374 282.426 337.36 281.639 334.967 279.828C332.575 278.017 330.999 275.33 330.586 272.358C330.383 270.884 330.473 269.385 330.85 267.946C331.227 266.508 331.883 265.157 332.782 263.972C333.681 262.787 334.805 261.791 336.089 261.04C337.373 260.29 338.793 259.8 340.266 259.598L356.441 257.358L372.611 255.114C375.583 254.704 378.597 255.491 380.989 257.302C383.382 259.113 384.958 261.8 385.371 264.772C385.78 267.745 384.993 270.758 383.182 273.151C381.372 275.544 378.685 277.119 375.713 277.532H375.695Z" fill="#040400" stroke="#040400" stroke-miterlimit="10"/>
<path d="M333.543 346.406L321.478 425.9L309.409 505.395H404.295L394.408 463.217L384.522 421.038C384.522 421.038 389.04 412.489 390.682 398.889C392.323 385.288 391.056 366.628 379.51 346.406" fill="#F6C34C"/>
<path d="M333.543 346.406L321.478 425.9L309.409 505.395H404.295L394.408 463.217L384.522 421.038C384.522 421.038 389.04 412.489 390.682 398.889C392.323 385.288 391.056 366.628 379.51 346.406" stroke="#070707" stroke-miterlimit="10" stroke-linecap="round"/>
<path d="M374.608 372.92C372.318 375.211 370.968 378.276 370.823 381.512C370.677 384.749 371.747 387.922 373.822 390.41C375.898 392.897 378.828 394.519 382.038 394.956C385.248 395.393 388.505 394.615 391.17 392.773C391.502 385.191 390.778 377.6 389.018 370.218C386.624 369.164 383.967 368.859 381.395 369.341C378.824 369.823 376.458 371.07 374.608 372.92Z" fill="#DBCAF4" stroke="black" stroke-miterlimit="10" stroke-linecap="round"/>
<path d="M342.695 360.675C346.138 360.675 349.439 359.307 351.873 356.873C354.308 354.439 355.675 351.137 355.675 347.695C355.675 347.264 355.653 346.834 355.609 346.406H333.543L332.192 355.32C332.59 355.872 333.032 356.392 333.512 356.873C334.717 358.081 336.148 359.039 337.724 359.691C339.3 360.343 340.99 360.678 342.695 360.675Z" fill="#DBCAF4" stroke="black" stroke-miterlimit="10" stroke-linecap="round"/>
<path d="M335.712 406.426C337.452 404.686 338.661 402.489 339.199 400.088C339.738 397.688 339.583 395.184 338.753 392.868C337.923 390.553 336.452 388.521 334.511 387.009C332.571 385.497 330.241 384.568 327.792 384.329L323.903 409.959C326.01 410.396 328.192 410.303 330.254 409.689C332.316 409.074 334.193 407.958 335.717 406.439L335.712 406.426Z" fill="#DBCAF4" stroke="black" stroke-miterlimit="10" stroke-linecap="round"/>
<path d="M353.977 428.36C350.974 428.36 348.064 429.401 345.742 431.306C343.421 433.212 341.832 435.863 341.246 438.808C340.661 441.753 341.114 444.81 342.53 447.459C343.946 450.107 346.236 452.183 349.01 453.332C351.785 454.481 354.872 454.633 357.745 453.761C360.619 452.889 363.101 451.048 364.77 448.551C366.438 446.054 367.189 443.056 366.895 440.067C366.6 437.079 365.279 434.285 363.155 432.161C361.951 430.955 360.52 429.998 358.945 429.345C357.37 428.693 355.682 428.358 353.977 428.36Z" fill="#DBCAF4" stroke="black" stroke-miterlimit="10" stroke-linecap="round"/>
<path d="M388.323 467.96C386.315 469.966 385.02 472.576 384.636 475.389C384.253 478.202 384.802 481.063 386.2 483.534C387.598 486.005 389.767 487.95 392.376 489.07C394.985 490.19 397.889 490.424 400.643 489.736L394.716 464.462C392.295 464.993 390.076 466.207 388.323 467.96Z" fill="#DBCAF4" stroke="black" stroke-miterlimit="10" stroke-linecap="round"/>
<path d="M348.692 492.569C346.656 490.521 343.994 489.212 341.129 488.847C338.264 488.482 335.359 489.083 332.874 490.555C330.39 492.027 328.467 494.286 327.41 496.974C326.353 499.661 326.223 502.625 327.04 505.395H351.957C352.303 504.21 352.479 502.982 352.481 501.747C352.485 500.044 352.152 498.356 351.502 496.781C350.852 495.206 349.897 493.774 348.692 492.569Z" fill="#DBCAF4" stroke="black" stroke-miterlimit="10" stroke-linecap="round"/>
<path d="M333.543 346.405H379.501L380.698 344.373L381.891 342.34H400.709C401.811 342.338 402.907 342.19 403.97 341.9C405.453 341.498 406.837 340.794 408.035 339.832C409.234 338.871 410.221 337.672 410.935 336.312C412.035 334.279 412.779 331.56 412.779 327.925C412.782 322.774 412.056 317.649 410.623 312.701C409.193 307.752 407.059 303.034 404.287 298.692C399.222 290.772 393.089 283.292 385.807 277.911C378.525 272.529 370.125 269.177 360.507 269.485C354.59 269.676 348.723 270.632 343.052 272.327C338.476 273.7 335.325 275.196 334.102 275.922C328.115 279.482 322.996 284.333 319.12 290.121C316.816 293.513 314.945 297.181 313.55 301.037C316.879 308.599 320.213 316.161 323.551 323.723C326.889 331.286 330.22 338.846 333.543 346.405Z" fill="#ECE7E1" stroke="black" stroke-miterlimit="10" stroke-linecap="round"/>
<path d="M364.264 255.471C363.389 251.557 361.155 248.08 357.959 245.659C354.98 243.459 351.359 242.535 347.777 243.375C344.196 244.215 341.371 246.666 339.677 249.975C337.892 253.565 337.441 257.673 338.405 261.565C338.476 261.873 338.555 262.172 338.643 262.471C338.731 262.77 338.828 263.065 338.924 263.351L337.899 264.403L336.874 265.45L338.634 266.022L340.394 266.598C341.887 269.171 344.086 271.263 346.73 272.626C349.235 273.915 352.114 274.279 354.861 273.656C358.434 272.815 361.268 270.36 362.962 267.056C364.756 263.471 365.217 259.365 364.264 255.471Z" fill="#F2B3C1" stroke="black" stroke-miterlimit="10" stroke-linecap="round"/>
<path d="M344.275 260.751C344.318 260.957 344.278 261.172 344.165 261.349C344.047 261.526 343.866 261.651 343.659 261.697C343.556 261.718 343.449 261.719 343.346 261.7C343.242 261.68 343.144 261.64 343.056 261.582C342.968 261.526 342.892 261.453 342.833 261.366C342.774 261.28 342.733 261.183 342.713 261.081C342.691 260.978 342.69 260.872 342.709 260.769C342.728 260.666 342.767 260.568 342.825 260.48C342.882 260.392 342.956 260.317 343.042 260.257C343.129 260.198 343.226 260.156 343.329 260.135C343.431 260.113 343.537 260.112 343.64 260.131C343.743 260.15 343.841 260.19 343.929 260.247C344.017 260.304 344.093 260.378 344.152 260.464C344.211 260.551 344.253 260.648 344.275 260.751Z" fill="#040400"/>
<path d="M347.61 264.759C347.58 265.062 347.504 265.359 347.386 265.639C347.163 266.179 346.783 266.639 346.295 266.959C345.909 267.208 345.467 267.359 345.01 267.399C344.75 267.432 344.487 267.432 344.227 267.399" stroke="black" stroke-miterlimit="10" stroke-linecap="round"/>
<path d="M341.05 257.063L343.492 256.861L345.938 256.654" stroke="black" stroke-miterlimit="10" stroke-linecap="round"/>
<path d="M352.305 260.531C352.372 260.843 352.377 261.166 352.318 261.48C352.26 261.794 352.14 262.093 351.966 262.361C351.791 262.63 351.565 262.861 351.301 263.042C351.037 263.223 350.74 263.351 350.426 263.417C350.113 263.483 349.789 263.487 349.475 263.428C349.16 263.369 348.859 263.249 348.591 263.074C348.188 262.811 347.871 262.434 347.682 261.99C347.492 261.547 347.438 261.058 347.527 260.584C347.615 260.111 347.842 259.674 348.179 259.329C348.516 258.984 348.947 258.747 349.418 258.647C350.051 258.515 350.711 258.639 351.253 258.991C351.522 259.164 351.754 259.39 351.934 259.655C352.115 259.919 352.241 260.217 352.305 260.531Z" fill="#FF6406" stroke="#070707" stroke-miterlimit="10" stroke-linecap="round"/>
<path d="M398.232 513.786H315.424C314.586 513.786 313.757 513.621 312.983 513.3C312.209 512.979 311.506 512.509 310.914 511.917C310.322 511.324 309.853 510.621 309.532 509.847C309.212 509.073 309.048 508.244 309.048 507.406C309.048 506.568 309.212 505.739 309.532 504.965C309.853 504.192 310.322 503.488 310.914 502.896C311.507 502.304 312.21 501.835 312.983 501.514C313.757 501.194 314.587 501.03 315.424 501.03H398.232C399.069 501.03 399.899 501.194 400.672 501.514C401.446 501.835 402.149 502.304 402.741 502.896C403.334 503.488 403.803 504.192 404.123 504.965C404.444 505.739 404.608 506.568 404.608 507.406C404.608 508.244 404.444 509.073 404.123 509.847C403.803 510.621 403.334 511.324 402.742 511.917C402.15 512.509 401.447 512.979 400.673 513.3C399.899 513.621 399.07 513.786 398.232 513.786Z" fill="#FC762B" stroke="#070707" stroke-miterlimit="10" stroke-linecap="round"/>
<path d="M340.847 248.061C343.219 251.335 345.507 253.46 347.606 254.828C349.302 255.969 351.224 256.732 353.242 257.063C355.345 257.389 358.139 257.297 360.405 257.125C362.671 256.953 364.414 256.685 364.414 256.685C364.414 256.685 364.343 256.337 364.242 255.871C364.141 255.405 364.013 254.828 363.894 254.371C363.806 254.036 363.688 253.64 363.534 253.191C363.38 252.743 363.182 252.25 362.935 251.717C363.184 251.564 363.454 251.447 363.736 251.37C364.262 251.22 364.82 251.22 365.346 251.37C365.808 251.498 366.232 251.735 366.583 252.061C366.784 252.241 366.958 252.448 367.102 252.677C365.782 247.427 361.672 244.044 356.925 242.825C352.177 241.606 346.77 242.548 342.805 245.949C342.394 246.299 342.008 246.677 341.648 247.08C341.322 247.436 341.058 247.775 340.847 248.061Z" fill="#040400" stroke="#040400" stroke-miterlimit="10"/>
<path d="M393.555 501.03L395.174 521.64L396.789 542.241H385.56C385.302 539.208 385.044 536.175 384.786 533.141C384.527 530.108 384.269 527.075 384.011 524.042C373.628 532.791 361.085 538.589 347.694 540.828C342.462 541.715 337.157 542.086 331.854 541.937C335.811 539.738 339.526 537.13 342.937 534.153C347.94 529.796 352.194 524.647 355.53 518.912C357.313 515.835 358.82 512.606 360.031 509.263C361.004 506.581 361.789 503.834 362.381 501.043H393.586L393.555 501.03Z" fill="#84A1E5" stroke="#070707" stroke-miterlimit="10" stroke-linecap="round"/>
<path d="M371.001 290.86C370.882 291.167 370.791 291.483 370.728 291.806C370.662 292.13 370.631 292.461 370.635 292.791C370.642 293.073 370.686 293.353 370.767 293.623C370.847 293.889 370.986 294.134 371.172 294.34C371.445 294.628 371.806 294.817 372.197 294.877C372.594 294.944 373.002 294.907 373.381 294.771C374.279 294.406 375.021 293.736 375.475 292.879C375.944 292.027 376.357 291.145 376.712 290.239L378.124 287.019C378.595 285.945 379.07 284.876 379.559 283.811C380.037 282.539 380.605 281.303 381.257 280.111C382.049 278.821 383.079 277.911 384.377 278.584C384.627 278.722 384.833 278.928 384.971 279.178C385.074 279.351 385.153 279.537 385.204 279.732C385.386 279.31 385.618 278.911 385.895 278.544C386.335 277.959 386.986 277.396 387.787 277.484C388.194 277.531 388.572 277.72 388.856 278.016C389.14 278.312 389.316 278.695 389.357 279.103C389.376 279.358 389.36 279.614 389.309 279.864C389.242 280.201 389.136 280.529 388.992 280.841C389.049 280.705 389.278 280.762 389.511 280.841C389.698 280.927 389.878 281.023 390.053 281.131C390.273 281.27 390.461 281.455 390.603 281.673C390.744 281.89 390.842 282.132 390.893 282.385C390.943 282.669 390.952 282.958 390.919 283.243C390.888 283.531 390.832 283.815 390.752 284.093C390.616 284.594 390.466 285.087 390.312 285.584C390.158 286.081 390.017 286.579 389.872 287.085C390.069 287.225 390.253 287.383 390.422 287.555C390.645 287.786 390.839 288.043 390.999 288.321C391.422 289.122 391.584 290.037 391.461 290.935C391.37 291.668 391.194 292.389 390.937 293.082C389.621 296.845 388.002 300.496 386.097 303.998C385.374 305.349 384.58 306.661 383.717 307.927C382.533 309.582 381.138 311.447 379.51 313.498C377.882 315.548 376.025 317.735 373.927 320.036L361.866 310.352L356.406 305.952C356.406 305.952 356.547 305.327 356.714 304.632C356.881 303.937 357.07 303.145 357.154 302.823C357.449 301.803 357.726 300.808 358.034 299.823C358.353 298.825 358.742 297.852 359.2 296.91C360.301 294.752 361.614 292.709 363.12 290.811C364.594 288.897 366.2 287.067 367.731 285.215C368.404 284.307 369.149 283.455 369.958 282.667C370.838 281.906 371.85 281.435 373.038 281.849C373.328 281.947 373.589 282.116 373.798 282.341C374.006 282.565 374.157 282.837 374.235 283.133C374.386 283.736 374.363 284.369 374.169 284.959C374.053 285.315 373.906 285.66 373.729 285.989C373.557 286.323 373.372 286.649 373.187 286.97C372.835 287.591 372.417 288.215 372.021 288.862C371.619 289.495 371.277 290.163 371.001 290.86Z" fill="#F2B3C1" stroke="black" stroke-miterlimit="10" stroke-linecap="round"/>
<path d="M373.944 320.067L364.519 312.415L355.09 304.759L346.73 311.883L338.37 319.002C338.678 318.743 336.61 316.384 334.318 313.991C332.025 311.597 329.596 309.151 329.174 308.759C318.777 298.679 305.854 293.768 292.526 293.209C279.199 292.651 265.528 296.452 253.648 303.8L255.531 292.901L257.419 282.003L244.962 281.167L232.51 280.331C229.765 293.473 227.987 301.697 226.716 307.307C225.444 312.917 224.687 315.909 223.988 318.584C223.961 318.681 223.886 318.967 223.785 319.394C223.684 319.821 223.552 320.388 223.416 321.044C222.624 324.859 221.937 328.159 221.796 331.102C221.656 334.046 222.06 336.615 223.451 338.978C224.487 340.711 225.85 342.226 227.464 343.44C229.066 344.664 230.875 345.591 232.805 346.177C235.008 346.801 237.336 346.842 239.559 346.295C241.759 345.825 243.893 344.975 246.12 344.271C247 343.985 247.558 343.809 249.068 343.299C250.577 342.789 253.058 341.953 257.824 340.329L260.82 339.308L263.073 338.547C263.659 342.868 264.237 347.187 264.806 351.505C265.375 355.823 265.953 360.141 266.54 364.459L293.86 364.384L321.184 364.305C321.715 361.327 322.248 358.347 322.785 355.364C323.322 352.381 323.86 349.395 324.4 346.405C325.964 347.9 327.782 349.104 329.768 349.961C330.945 350.464 332.186 350.803 333.455 350.968C336.975 351.408 340.306 350.379 343.241 348.808C346.176 347.237 348.723 345.147 350.721 343.528C351.552 342.855 352.252 342.208 352.802 341.719C353.352 341.231 353.748 340.809 353.972 340.58C357.616 336.901 361.378 333.056 364.849 329.487C368.321 325.919 371.48 322.632 373.944 320.067Z" fill="#84A1E5" stroke="#070707" stroke-miterlimit="10" stroke-linecap="round"/>
<path d="M385.203 279.745C384.763 281.145 384.323 282.601 383.765 284.101C383.206 285.602 382.612 287.151 381.93 288.739C381.534 289.654 381.133 290.542 380.729 291.401C380.324 292.259 379.91 293.091 379.501 293.896" stroke="black" stroke-miterlimit="10" stroke-linecap="round"/>
<path d="M388.992 280.854C388.552 282.174 388.072 283.534 387.531 284.942C386.99 286.35 386.387 287.806 385.723 289.293C385.224 290.408 384.719 291.48 384.209 292.51C383.699 293.535 383.184 294.525 382.669 295.471" stroke="black" stroke-miterlimit="10" stroke-linecap="round"/>
<path d="M389.885 287.12C389.885 287.12 389.137 289.082 388.218 291.313C387.298 293.544 386.211 296.047 385.529 297.121" stroke="black" stroke-miterlimit="10" stroke-linecap="round"/>
<path d="M337.631 317.722L338.797 319.275C339.188 319.79 339.576 320.309 339.967 320.828" stroke="black" stroke-miterlimit="10" stroke-linecap="round"/>
<path d="M311.31 334.011C312.34 335.09 313.409 336.18 314.518 337.28C315.626 338.38 316.772 339.49 317.954 340.611C319.045 341.645 320.128 342.639 321.201 343.607C322.275 344.575 323.335 345.504 324.387 346.406" stroke="black" stroke-miterlimit="10" stroke-linecap="round"/>
<path d="M245.64 308.609C246.52 308.125 247.4 307.624 248.28 307.105C249.16 306.585 250.058 306.046 250.973 305.485C251.413 305.213 251.853 304.935 252.293 304.663L253.56 303.84" stroke="black" stroke-miterlimit="10" stroke-linecap="round"/>
<path d="M371.48 501.03L372.976 521.627L374.477 542.227H364.506L363.419 533.221L362.333 524.214C359.485 526.315 356.515 528.247 353.44 530C344.767 534.924 335.333 538.367 325.527 540.186C321.313 540.97 317.049 541.454 312.767 541.633C314.827 540.309 316.802 538.857 318.68 537.286C320.93 535.4 323.03 533.34 324.959 531.126C329.375 526.055 332.864 520.246 335.268 513.966C336.925 509.675 338.105 505.214 338.788 500.665L355.152 500.837L371.48 501.03Z" fill="#84A1E5" stroke="#070707" stroke-miterlimit="10" stroke-linecap="round"/>
<path d="M284.36 287.806C283.276 284.227 283.308 280.402 284.453 276.841C285.623 273.225 287.973 270.096 291.642 268.794C295.087 267.571 298.783 268.094 301.973 269.933C305.405 271.977 307.998 275.174 309.291 278.953C309.396 279.248 309.493 279.547 309.581 279.833C309.669 280.119 309.748 280.427 309.819 280.713L311.244 281.039L312.67 281.365L311.491 282.799L310.32 284.26C310.448 286.882 309.838 289.487 308.56 291.779C307.35 293.977 305.493 295.748 303.241 296.853C300.689 298.04 297.8 298.288 295.083 297.552C293.457 297.142 291.903 296.484 290.476 295.603C287.614 293.771 285.458 291.022 284.36 287.806Z" fill="#F2B3C1" stroke="black" stroke-miterlimit="10" stroke-linecap="round"/>
<path d="M285.9 291.08C285.689 290.732 285.46 290.35 285.271 289.94C285.082 289.531 284.857 289.091 284.664 288.62C284.326 287.805 284.051 286.965 283.841 286.108C283.667 285.399 283.534 284.681 283.445 283.956C283.022 284.016 282.609 284.131 282.217 284.299C281.681 284.524 281.222 284.9 280.897 285.382C280.303 286.315 280.365 287.582 280.858 288.735C281.082 289.303 281.423 289.819 281.858 290.248C282.292 290.678 282.812 291.012 283.383 291.229C283.851 291.374 284.345 291.416 284.831 291.353C285.197 291.305 285.556 291.214 285.9 291.08Z" fill="#F2B3C1" stroke="black" stroke-miterlimit="10" stroke-linecap="round"/>
<path d="M303.94 281.453C304.016 281.648 304.167 281.806 304.358 281.893C304.501 281.957 304.66 281.976 304.815 281.95C304.97 281.924 305.113 281.852 305.228 281.745C305.342 281.637 305.422 281.498 305.457 281.345C305.493 281.192 305.482 281.032 305.427 280.885C305.351 280.689 305.201 280.531 305.009 280.445C304.813 280.366 304.594 280.366 304.397 280.445C304.299 280.486 304.209 280.545 304.133 280.621C304.058 280.696 303.998 280.786 303.957 280.885C303.882 281.066 303.876 281.268 303.94 281.453Z" fill="#040400"/>
<path d="M304.67 276.652L302.497 277.774L300.328 278.892" stroke="black" stroke-miterlimit="10" stroke-linecap="round"/>
<path d="M353.845 521.512C354.592 520.545 355.278 519.533 355.9 518.481C356.524 517.429 357.041 516.318 357.444 515.163C357.795 513.997 357.952 512.781 357.91 511.564C357.853 510.2 357.47 508.924 356.428 508.625C354.747 508.105 353.348 509.505 352.261 511.265C351.348 512.899 350.565 514.603 349.92 516.36C349.264 517.942 348.74 519.575 348.354 521.244C347.971 522.914 347.699 524.607 347.54 526.313C347.691 524.375 347.522 522.426 347.038 520.544C346.551 518.665 345.963 516.813 345.278 514.996C344.982 514.145 344.631 513.315 344.226 512.51C343.823 511.704 343.325 510.949 342.744 510.261C342.111 509.541 341.35 508.944 340.5 508.501C339.584 508.061 338.612 507.916 337.89 508.616C337.389 509.104 337.279 509.971 337.327 510.864C337.39 511.678 337.526 512.485 337.732 513.275C337.948 514.141 338.242 514.985 338.612 515.797C338.975 516.61 339.393 517.398 339.862 518.155C340.773 519.633 341.827 521.018 343.008 522.291C344.187 523.566 345.478 524.733 346.866 525.776C347.628 526.352 348.186 526.475 348.754 526.313C349.411 526.031 350.009 525.626 350.514 525.12C351.139 524.589 351.727 524.016 352.274 523.404C352.828 522.801 353.348 522.163 353.845 521.512Z" stroke="black" stroke-miterlimit="10" stroke-linecap="round"/>
<path d="M295.206 285.69C295.329 286.012 295.529 286.3 295.79 286.526C296.05 286.753 296.362 286.912 296.699 286.989C297.035 287.066 297.385 287.059 297.718 286.968C298.051 286.877 298.357 286.706 298.608 286.469C298.859 286.232 299.047 285.937 299.157 285.61C299.267 285.283 299.294 284.933 299.237 284.593C299.179 284.253 299.039 283.932 298.827 283.659C298.616 283.386 298.341 283.169 298.026 283.028C297.518 282.801 296.941 282.783 296.42 282.979C295.901 283.179 295.482 283.577 295.255 284.084C295.027 284.592 295.01 285.169 295.206 285.69Z" fill="#FF6406" stroke="#070707" stroke-miterlimit="10" stroke-linecap="round"/>
<path d="M242.595 518.753C243.343 517.786 244.031 516.774 244.654 515.722C245.279 514.671 245.795 513.56 246.194 512.404C246.547 511.238 246.706 510.022 246.665 508.805C246.608 507.441 246.225 506.165 245.182 505.866C243.501 505.347 242.102 506.746 241.015 508.506C240.103 510.141 239.319 511.845 238.67 513.601C238.018 515.184 237.496 516.817 237.108 518.485C236.723 520.154 236.451 521.848 236.294 523.554C236.445 521.618 236.274 519.67 235.788 517.79C235.302 515.91 234.714 514.058 234.028 512.241C233.731 511.39 233.38 510.558 232.977 509.751C232.572 508.946 232.075 508.191 231.494 507.503C230.86 506.782 230.097 506.185 229.245 505.743C228.335 505.303 227.362 505.157 226.636 505.857C226.135 506.345 226.025 507.212 226.077 508.105C226.14 508.92 226.276 509.727 226.482 510.517C226.696 511.383 226.99 512.227 227.362 513.038C227.725 513.851 228.143 514.639 228.612 515.396C229.522 516.875 230.576 518.26 231.758 519.532C232.937 520.809 234.228 521.977 235.617 523.021C236.378 523.593 236.937 523.717 237.504 523.554C238.163 523.275 238.761 522.87 239.264 522.361C239.889 521.832 240.477 521.26 241.024 520.65C241.579 520.043 242.12 519.405 242.595 518.753Z" stroke="black" stroke-miterlimit="10" stroke-linecap="round"/>
<path d="M302.84 286.781C303.051 286.89 303.27 286.981 303.496 287.054C303.722 287.131 303.96 287.168 304.2 287.164C304.484 287.142 304.762 287.07 305.022 286.953C305.283 286.837 305.558 286.76 305.841 286.724C306.159 286.686 306.48 286.766 306.743 286.947C307.007 287.128 307.196 287.399 307.275 287.709C307.363 288.018 307.351 288.347 307.241 288.649C307.131 288.951 306.929 289.21 306.664 289.39C305.685 289.967 304.553 290.23 303.421 290.143C302.228 290.059 301.128 289.584 300.728 288.528C300.614 288.254 300.595 287.95 300.675 287.664C300.754 287.378 300.928 287.128 301.168 286.953C301.404 286.772 301.685 286.661 301.98 286.631C302.275 286.6 302.573 286.652 302.84 286.781Z" fill="#ECE7E1" stroke="black" stroke-miterlimit="10" stroke-linecap="round"/>
<path d="M283.445 283.956C285.489 284.245 287.573 284.046 289.526 283.375C292.658 282.258 295.963 279.481 296.671 272.855C298.81 274.028 301.295 274.405 303.685 273.92C305.806 273.449 307.553 272.248 308.441 270.593C309.112 269.286 309.358 267.802 309.145 266.347C308.972 264.828 308.207 263.439 307.016 262.48C306.313 261.974 305.51 261.622 304.662 261.449C303.813 261.275 302.937 261.283 302.092 261.472C300.133 261.879 298.403 263.016 297.252 264.653C293.425 264.349 289.586 265.057 286.12 266.708C283.04 268.253 280.792 270.558 279.771 273.339C279.467 274.177 279.273 275.051 279.195 275.939C279.081 277.337 279.2 278.743 279.547 280.102L280.228 282.742L280.906 285.382C281.098 285.117 281.325 284.879 281.579 284.673C282.103 284.231 282.76 283.979 283.445 283.956Z" fill="#040400" stroke="#040400" stroke-miterlimit="10"/>
<path d="M265.88 361.181C261.638 385.692 257.398 410.201 253.159 434.709C248.921 459.217 244.682 483.727 240.443 508.238H286.78C287.466 496.108 288.151 483.976 288.835 471.841C289.518 459.706 290.203 447.572 290.889 435.44L292.209 471.841L293.529 508.238H341.877L331.831 434.586L321.786 360.934L293.842 361.058L265.88 361.181Z" fill="#D87D61" stroke="black" stroke-miterlimit="10" stroke-linecap="round"/>
<path d="M274.315 361.146H273.109L263.39 437.472L254.378 508.238H256.781L265.752 437.776L275.516 361.137L274.315 361.146Z" fill="#F2B3C1" stroke="black" stroke-miterlimit="10" stroke-linecap="round"/>
<path d="M284.118 361.101L276.796 437.912L270.091 508.237H272.48L279.168 438.141L286.516 361.088H285.315L284.118 361.101Z" fill="#F2B3C1" stroke="black" stroke-miterlimit="10" stroke-linecap="round"/>
<path d="M299.76 361.04H298.567H297.371L302.505 438.656L307.103 508.238H309.493L304.886 438.48L299.76 361.04Z" fill="#F2B3C1" stroke="black" stroke-miterlimit="10" stroke-linecap="round"/>
<path d="M319.305 438.251L312.124 360.978H309.73L316.92 438.48L323.401 508.246H325.795L319.305 438.251Z" fill="#F2B3C1" stroke="black" stroke-miterlimit="10" stroke-linecap="round"/>
<path d="M287.268 509.984C287.268 512.241 284.628 514.283 280.351 515.761C276.075 517.24 270.17 518.151 263.631 518.151C257.093 518.151 251.223 517.24 246.96 515.761C242.696 514.283 240.043 512.241 240.043 509.984C240.043 507.727 242.683 505.69 246.96 504.211C251.237 502.733 257.128 501.84 263.649 501.84C270.17 501.84 276.075 502.755 280.369 504.233C284.663 505.712 287.268 507.731 287.268 509.984Z" fill="#F2B3C1" stroke="black" stroke-miterlimit="10" stroke-linecap="round"/>
<path d="M342.471 509.984C342.471 512.241 339.717 514.283 335.255 515.761C330.793 517.24 324.638 518.151 317.831 518.151C311.024 518.151 304.869 517.24 300.407 515.761C295.945 514.283 293.191 512.241 293.191 509.984C293.191 507.727 295.95 505.69 300.407 504.211C304.864 502.733 311.029 501.818 317.831 501.818C324.633 501.818 330.798 502.733 335.255 504.211C339.712 505.69 342.471 507.731 342.471 509.984Z" fill="#F2B3C1" stroke="black" stroke-miterlimit="10" stroke-linecap="round"/>
<path d="M248.637 503.71L246.234 513.667C245.436 516.985 244.637 520.304 243.836 523.624C243.836 523.624 238.556 523.035 233.487 525.067C228.419 527.1 223.649 531.747 224.687 542.227H280.259C280.579 542.228 280.895 542.164 281.188 542.038C281.472 541.919 281.731 541.746 281.949 541.528C282.209 541.261 282.401 540.935 282.508 540.577C282.579 540.336 282.626 540.089 282.649 539.838C282.728 539.029 282.816 535.17 282.904 529.16C282.992 523.149 283.062 514.996 283.124 505.584C282.354 505.237 281.408 504.836 280.308 504.432C279.208 504.027 277.949 503.618 276.555 503.248C274.311 502.651 272.021 502.244 269.708 502.033C267.64 501.835 265.748 501.805 264.023 501.778C262.901 501.778 261.533 501.743 259.914 501.818C258.038 501.908 256.17 502.107 254.317 502.412C253.155 502.605 252.095 502.825 251.145 503.05C250.194 503.274 249.345 503.503 248.637 503.71Z" fill="#ECE7E1" stroke="black" stroke-miterlimit="10" stroke-linecap="round"/>
<path d="M299.434 504.647C299.352 507.384 299.267 510.121 299.179 512.858L298.928 521.064C298.826 524.29 298.726 527.507 298.629 530.713C298.532 533.919 298.433 537.137 298.33 540.366C298.318 540.533 298.318 540.701 298.33 540.868C298.341 541.16 298.419 541.446 298.559 541.704C298.676 541.878 298.848 542.008 299.047 542.074C299.395 542.195 299.762 542.247 300.13 542.228H354.69C354.849 539.222 354.294 536.221 353.07 533.472C351.051 529.072 346.602 524.562 336.905 524.267C336.318 520.852 335.731 517.436 335.145 514.019L333.385 503.776C332.426 503.525 331.343 503.266 330.146 503.019C328.95 502.773 327.643 502.54 326.23 502.346C324.818 502.152 323.265 501.976 321.492 501.866C319.718 501.756 317.76 501.712 315.648 501.783C314.456 501.818 312.841 501.875 310.888 502.082C308.59 502.323 306.311 502.72 304.068 503.27C303.104 503.508 302.224 503.75 301.428 503.987C300.631 504.225 300.002 504.449 299.434 504.647Z" fill="#ECE7E1" stroke="black" stroke-miterlimit="10" stroke-linecap="round"/>
<path d="M242.415 529.34L243.123 526.484L243.836 523.624" stroke="black" stroke-miterlimit="10" stroke-linecap="round"/>
<path d="M354.426 537.775L326.411 537.695L298.4 537.616C298.4 538.171 298.4 538.725 298.378 539.279V540.943C298.377 541.11 298.408 541.277 298.471 541.432C298.534 541.588 298.627 541.729 298.745 541.849C298.862 541.968 299.003 542.063 299.157 542.128C299.312 542.193 299.478 542.227 299.646 542.227H354.712C354.734 541.893 354.747 541.537 354.747 541.163C354.747 540.789 354.747 540.384 354.712 539.97C354.676 539.557 354.646 539.174 354.597 538.809C354.549 538.443 354.487 538.096 354.426 537.775Z" fill="#DBCAF4" stroke="black" stroke-miterlimit="10" stroke-linecap="round"/>
<path d="M224.595 537.801L253.635 537.779H282.675L282.622 538.989L282.574 540.199C282.541 540.402 282.48 540.599 282.393 540.784C282.236 541.11 282.005 541.394 281.72 541.616C281.451 541.84 281.135 542.003 280.796 542.091C280.6 542.141 280.399 542.166 280.198 542.166C271.367 542.192 261.902 542.197 252.438 542.197C242.974 542.197 233.518 542.197 224.683 542.227C224.643 541.911 224.612 541.576 224.586 541.229C224.56 540.881 224.542 540.52 224.533 540.146C224.524 539.772 224.533 539.315 224.533 538.923C224.533 538.531 224.568 538.157 224.595 537.801Z" fill="#DBCAF4" stroke="black" stroke-miterlimit="10" stroke-linecap="round"/>
<path d="M336.962 524.491L337.442 527.021L337.917 529.555" stroke="black" stroke-miterlimit="10" stroke-linecap="round"/>
<path d="M400.603 148.577C400.603 148.243 399.723 147.935 398.302 147.697C396.408 147.418 394.497 147.264 392.582 147.235C392.553 145.326 392.354 143.424 391.988 141.55C391.671 140.12 391.262 139.253 390.809 139.253C390.356 139.253 389.929 140.133 389.634 141.55C389.266 143.424 389.066 145.326 389.036 147.235C387.121 147.264 385.21 147.418 383.316 147.697C381.881 147.939 381.015 148.247 381.015 148.577C381.015 148.907 381.895 149.219 383.316 149.457C385.211 149.728 387.122 149.875 389.036 149.897C389.066 151.806 389.266 153.708 389.634 155.582C389.947 157.012 390.36 157.879 390.809 157.879C391.258 157.879 391.689 156.999 391.988 155.582C392.359 153.717 392.564 151.824 392.6 149.923C394.514 149.902 396.425 149.755 398.32 149.483C399.737 149.219 400.603 148.911 400.603 148.577Z" fill="url(#paint5_linear_484_2128)" stroke="black" stroke-miterlimit="10" stroke-linecap="round"/>
<path d="M250.449 212.267C250.449 211.92 249.569 211.603 248.069 211.356C246.107 211.066 244.129 210.905 242.146 210.872C242.118 208.898 241.912 206.931 241.53 204.994C241.205 203.511 240.778 202.614 240.311 202.614C239.845 202.614 239.431 203.494 239.097 204.994C238.715 206.931 238.509 208.898 238.481 210.872C236.498 210.904 234.52 211.066 232.559 211.356C231.071 211.603 230.178 211.92 230.178 212.267C230.178 212.615 231.058 212.936 232.559 213.182C234.52 213.473 236.498 213.633 238.481 213.662C238.509 215.637 238.715 217.606 239.097 219.545C239.423 221.023 239.845 221.921 240.311 221.921C240.778 221.921 241.191 221.041 241.53 219.545C241.912 217.606 242.118 215.637 242.146 213.662C244.128 213.639 246.107 213.484 248.069 213.2C249.551 212.936 250.449 212.615 250.449 212.267Z" fill="url(#paint6_linear_484_2128)" stroke="black" stroke-miterlimit="10" stroke-linecap="round"/>
<path d="M388.856 170.639C387.126 170.995 386.066 171.369 385.336 172.091C384.605 172.812 384.24 173.873 383.884 175.611C383.877 175.65 383.857 175.685 383.827 175.711C383.797 175.737 383.758 175.751 383.719 175.751C383.679 175.751 383.641 175.737 383.61 175.711C383.58 175.685 383.56 175.65 383.554 175.611C383.197 173.882 382.823 172.817 382.102 172.091C381.38 171.365 380.342 170.995 378.582 170.639C378.542 170.632 378.507 170.612 378.481 170.582C378.456 170.552 378.441 170.513 378.441 170.474C378.441 170.434 378.456 170.396 378.481 170.365C378.507 170.335 378.542 170.315 378.582 170.309C380.311 169.952 381.376 169.574 382.102 168.857C382.828 168.139 383.197 167.097 383.554 165.337C383.56 165.298 383.58 165.262 383.61 165.236C383.641 165.211 383.679 165.197 383.719 165.197C383.758 165.197 383.797 165.211 383.827 165.236C383.857 165.262 383.877 165.298 383.884 165.337C384.24 167.066 384.618 168.126 385.336 168.857C386.053 169.587 387.096 169.952 388.856 170.309C388.895 170.315 388.93 170.335 388.956 170.365C388.982 170.396 388.996 170.434 388.996 170.474C388.996 170.513 388.982 170.552 388.956 170.582C388.93 170.612 388.895 170.632 388.856 170.639Z" fill="url(#paint7_linear_484_2128)" stroke="black" stroke-miterlimit="10" stroke-linecap="round"/>
<path d="M400.603 168.43C399.748 168.431 398.919 168.135 398.257 167.593C397.596 167.051 397.142 166.297 396.975 165.458C396.807 164.619 396.936 163.748 397.339 162.994C397.741 162.239 398.393 161.648 399.183 161.32C399.973 160.992 400.852 160.949 401.671 161.197C402.489 161.445 403.197 161.969 403.672 162.68C404.147 163.391 404.361 164.245 404.278 165.096C404.194 165.947 403.817 166.743 403.213 167.347C402.87 167.691 402.464 167.963 402.016 168.149C401.568 168.334 401.088 168.43 400.603 168.43ZM400.603 163.066C400.384 163.066 400.166 163.109 399.963 163.192C399.76 163.276 399.575 163.399 399.42 163.555C399.265 163.71 399.141 163.895 399.058 164.098C398.974 164.301 398.931 164.519 398.931 164.738C398.93 164.957 398.973 165.175 399.057 165.377C399.141 165.58 399.264 165.763 399.42 165.917C399.575 166.074 399.759 166.198 399.962 166.282C400.166 166.367 400.383 166.41 400.603 166.41C401.046 166.408 401.47 166.231 401.783 165.918C402.096 165.605 402.273 165.181 402.275 164.738C402.275 164.518 402.232 164.3 402.147 164.097C402.063 163.894 401.939 163.71 401.783 163.555C401.629 163.399 401.445 163.275 401.242 163.191C401.04 163.108 400.823 163.065 400.603 163.066Z" fill="url(#paint8_linear_484_2128)" stroke="black" stroke-miterlimit="10" stroke-linecap="round"/>
<path d="M254.268 232.56C253.381 232.562 252.521 232.256 251.835 231.694C251.148 231.133 250.677 230.351 250.503 229.481C250.329 228.611 250.461 227.708 250.879 226.925C251.296 226.142 251.972 225.528 252.791 225.188C253.61 224.848 254.522 224.803 255.371 225.059C256.22 225.316 256.953 225.86 257.446 226.597C257.939 227.334 258.161 228.22 258.075 229.103C257.988 229.986 257.597 230.811 256.97 231.438C256.616 231.794 256.195 232.076 255.731 232.269C255.268 232.461 254.771 232.56 254.268 232.56ZM254.268 227.007C253.809 227.008 253.37 227.191 253.045 227.516C252.721 227.841 252.539 228.282 252.539 228.741C252.538 229.027 252.607 229.309 252.741 229.561C252.874 229.814 253.068 230.03 253.306 230.189C253.543 230.349 253.816 230.447 254.101 230.475C254.385 230.504 254.672 230.461 254.936 230.352C255.201 230.242 255.434 230.069 255.615 229.848C255.796 229.627 255.919 229.364 255.974 229.084C256.029 228.803 256.014 228.513 255.93 228.24C255.845 227.967 255.695 227.719 255.492 227.518C255.331 227.357 255.141 227.23 254.931 227.144C254.721 227.057 254.495 227.014 254.268 227.016V227.007Z" fill="url(#paint9_linear_484_2128)" stroke="black" stroke-miterlimit="10" stroke-linecap="round"/>
<path d="M384.522 421.038L378.542 433.429L372.558 445.824" stroke="black" stroke-miterlimit="10" stroke-linecap="round"/>
<path d="M257.427 281.963C257.537 281.14 257.696 280.106 257.938 278.909C258.18 277.713 258.505 276.353 258.95 274.883C259.567 272.711 260.302 270.574 261.15 268.481C262.109 266.16 263.379 263.98 264.925 262C266.016 260.61 267.187 259.4 268.005 258.313C268.823 257.226 269.277 256.254 268.933 255.352C268.826 255.071 268.656 254.818 268.436 254.613C268.247 254.441 268.037 254.293 267.811 254.173C267.661 254.097 267.503 254.038 267.341 253.997C267.024 253.919 266.697 253.894 266.373 253.922C265.271 254.068 264.217 254.465 263.293 255.083C262.79 255.395 262.31 255.744 261.858 256.126C260.712 257.15 259.66 258.275 258.717 259.488C257.986 260.399 257.559 260.988 257.397 260.891C257.357 260.869 257.348 260.821 257.361 260.689C257.375 260.557 257.397 260.355 257.427 260.011C257.427 259.954 257.427 260.011 257.427 259.8C257.427 259.589 257.427 259.158 257.498 258.119C257.539 257.178 257.586 256.238 257.639 255.299C257.687 254.357 257.749 253.416 257.815 252.474C257.867 251.753 257.907 251.203 257.964 250.754C258.006 250.366 258.1 249.985 258.246 249.623C258.435 249.191 258.686 248.788 258.989 248.426C259.311 248.059 259.658 247.715 260.028 247.397C261.215 246.352 262.479 245.398 263.807 244.541C264.687 243.938 265.167 243.52 265.268 242.781C265.32 242.327 265.238 241.868 265.031 241.461C264.841 241.061 264.546 240.72 264.177 240.475C263.57 240.097 262.835 240.123 261.977 240.383C261.012 240.731 260.08 241.164 259.192 241.677C257.906 242.325 256.678 243.083 255.522 243.943C254.254 244.913 253.217 246.153 252.486 247.573C252.1 248.322 251.796 249.112 251.58 249.927C251.423 250.52 251.312 251.125 251.245 251.735C251.002 251.436 250.714 251.177 250.392 250.965C249.771 250.54 249.028 250.328 248.275 250.362C247.647 250.396 247.039 250.599 246.515 250.947C245.984 251.3 245.556 251.788 245.275 252.36C244.963 252.114 244.616 251.917 244.245 251.775C243.554 251.488 242.788 251.436 242.064 251.626C241.34 251.816 240.698 252.237 240.237 252.826C239.754 253.431 239.459 254.163 239.387 254.934C239.134 254.932 238.881 254.951 238.631 254.991C238.303 255.047 237.985 255.148 237.685 255.29C236.752 255.796 236.029 256.616 235.643 257.605C235.271 258.475 235.029 259.396 234.926 260.337C234.521 263.666 234.118 266.997 233.716 270.329C233.314 273.662 232.911 276.992 232.506 280.322L244.962 281.158L257.427 281.963Z" fill="#F2B3C1" stroke="black" stroke-miterlimit="10" stroke-linecap="round"/>
<path d="M251.079 260.245L251.171 255.968L251.259 251.687" fill="#F2B3C1"/>
<path d="M251.079 260.245L251.171 255.968L251.259 251.687" stroke="black" stroke-miterlimit="10" stroke-linecap="round"/>
<path d="M364.739 259.07C364.739 258.661 364.699 258.225 364.651 257.75C364.603 257.275 364.537 256.808 364.444 256.307C364.285 255.434 364.06 254.575 363.771 253.737C363.533 253.044 363.254 252.365 362.935 251.704C363.326 251.526 363.739 251.4 364.163 251.33C364.738 251.224 365.332 251.292 365.87 251.524C366.877 251.986 367.52 253.103 367.727 254.331C367.844 254.934 367.836 255.554 367.702 256.153C367.568 256.752 367.311 257.317 366.948 257.811C366.631 258.184 366.238 258.485 365.795 258.691C365.46 258.861 365.105 258.988 364.739 259.07Z" fill="#F2B3C1" stroke="black" stroke-miterlimit="10" stroke-linecap="round"/>
<path d="M381.891 342.34C382.278 341.068 382.647 339.739 382.995 338.38C383.343 337.02 383.668 335.564 383.963 334.081C384.609 330.854 385.073 327.593 385.353 324.313C385.622 321.233 385.705 318.355 385.679 315.711" stroke="#070707" stroke-miterlimit="10" stroke-linecap="round"/>
<path d="M245.288 252.329L245.103 256.452C245.042 257.825 244.976 259.198 244.914 260.575" fill="#F2B3C1"/>
<path d="M245.288 252.329L245.103 256.452C245.042 257.825 244.976 259.198 244.914 260.575" stroke="black" stroke-miterlimit="10" stroke-linecap="round"/>
<path d="M239.401 254.903C239.357 255.875 239.308 256.843 239.26 257.816C239.212 258.788 239.163 259.756 239.119 260.724" fill="#F2B3C1"/>
<path d="M239.401 254.903C239.357 255.875 239.308 256.843 239.26 257.816C239.212 258.788 239.163 259.756 239.119 260.724" stroke="black" stroke-miterlimit="10" stroke-linecap="round"/>
<path d="M290.894 435.44V416.911V398.383" fill="#F6991A"/>
<path d="M290.894 435.44V416.911V398.383" stroke="#070707" stroke-miterlimit="10" stroke-linecap="round"/>
<path d="M273.536 502.566V519.814C273.452 521.47 273.741 523.124 274.381 524.654C275.424 526.942 277.716 528.944 282.706 527.817" stroke="black" stroke-miterlimit="10" stroke-linecap="round"/>
<path d="M308.235 502.566V519.814C308.319 521.47 308.031 523.123 307.394 524.654C306.347 526.942 304.055 528.944 299.065 527.817" stroke="black" stroke-miterlimit="10" stroke-linecap="round"/>
<path d="M275.318 537.766V539.975V542.183" stroke="black" stroke-miterlimit="10" stroke-linecap="round"/>
<path d="M270.583 537.766V539.975V542.183" stroke="black" stroke-miterlimit="10" stroke-linecap="round"/>
<path d="M310.236 537.766V539.975V542.183" stroke="black" stroke-miterlimit="10" stroke-linecap="round"/>
<path d="M305.498 537.766V539.975V542.183" stroke="black" stroke-miterlimit="10" stroke-linecap="round"/>
<path d="M350.224 308.904L359.728 316.93L369.232 324.96" fill="#FC762B"/>
<path d="M350.224 308.904L359.728 316.93L369.232 324.96" stroke="#070707" stroke-miterlimit="10" stroke-linecap="round"/>
<path d="M231.613 285.584L244.021 286.389L256.429 287.195" fill="#FC762B"/>
<path d="M231.613 285.584L244.021 286.389L256.429 287.195" stroke="#070707" stroke-miterlimit="10" stroke-linecap="round"/>
<circle cx="120" cy="89" r="7" fill="#BDECE6"/>
<circle cx="488" cy="11" r="10" fill="#F6C34C"/>
<circle cx="130" cy="632" r="7" fill="#FC762B"/>
<circle cx="565" cy="535" r="7" fill="#F2B3C1"/>
<circle cx="56" cy="499" r="10" fill="#DBCAF4"/>
<circle cx="10" cy="232" r="10" fill="#F2B3C1"/>
<circle cx="395" cy="625" r="10" fill="#A5C3FF"/>
<defs>
<linearGradient id="paint0_linear_484_2128" x1="100" y1="89.9999" x2="484.887" y2="613.634" gradientUnits="userSpaceOnUse">
<stop stop-color="#C7FDDC"/>
<stop offset="0.991385" stop-color="#ABC3FD"/>
</linearGradient>
<linearGradient id="paint1_linear_484_2128" x1="318.214" y1="305.613" x2="318.214" y2="121.297" gradientUnits="userSpaceOnUse">
<stop offset="0.1" stop-color="#A4C2FF"/>
<stop offset="0.39" stop-color="#B5DEED"/>
<stop offset="0.65" stop-color="#C6FCDB"/>
</linearGradient>
<linearGradient id="paint2_linear_484_2128" x1="318.213" y1="136.107" x2="318.213" y2="305.613" gradientUnits="userSpaceOnUse">
<stop stop-color="#FEC2D9"/>
<stop offset="0.47" stop-color="#DBCAF4"/>
<stop offset="0.81" stop-color="#C6FCDB"/>
</linearGradient>
<linearGradient id="paint3_linear_484_2128" x1="318.214" y1="153.589" x2="318.214" y2="305.613" gradientUnits="userSpaceOnUse">
<stop offset="0.13" stop-color="#DBCAF4"/>
<stop offset="0.56" stop-color="#C6FCDB"/>
<stop offset="1" stop-color="#FEC2D9"/>
</linearGradient>
<linearGradient id="paint4_linear_484_2128" x1="320" y1="542.703" x2="320" y2="305.613" gradientUnits="userSpaceOnUse">
<stop offset="0.02" stop-color="#A4C2FF"/>
<stop offset="0.88" stop-color="#FEC2D9"/>
</linearGradient>
<linearGradient id="paint5_linear_484_2128" x1="390.809" y1="139.249" x2="390.809" y2="157.905" gradientUnits="userSpaceOnUse">
<stop offset="0.16" stop-color="#FEC2D9"/>
<stop offset="0.8" stop-color="#A4C2FF"/>
</linearGradient>
<linearGradient id="paint6_linear_484_2128" x1="240.311" y1="202.614" x2="240.311" y2="221.921" gradientUnits="userSpaceOnUse">
<stop offset="0.16" stop-color="#FEC2D9"/>
<stop offset="0.8" stop-color="#A4C2FF"/>
</linearGradient>
<linearGradient id="paint7_linear_484_2128" x1="383.73" y1="165.213" x2="383.73" y2="175.734" gradientUnits="userSpaceOnUse">
<stop offset="0.26" stop-color="#FEC2D9"/>
<stop offset="0.8" stop-color="#A4C2FF"/>
</linearGradient>
<linearGradient id="paint8_linear_484_2128" x1="400.603" y1="161.047" x2="400.603" y2="168.43" gradientUnits="userSpaceOnUse">
<stop offset="0.16" stop-color="#FEC2D9"/>
<stop offset="0.8" stop-color="#A4C2FF"/>
</linearGradient>
<linearGradient id="paint9_linear_484_2128" x1="254.268" y1="224.926" x2="254.268" y2="232.569" gradientUnits="userSpaceOnUse">
<stop offset="0.16" stop-color="#FEC2D9"/>
<stop offset="0.8" stop-color="#A4C2FF"/>
</linearGradient>
</defs>
</svg>
