<svg width="640" height="640" viewBox="0 0 640 640" fill="none" xmlns="http://www.w3.org/2000/svg">
<circle cx="120" cy="89" r="7" fill="#BDECE6"/>
<circle cx="488" cy="11" r="10" fill="#F6C34C"/>
<circle cx="130" cy="632" r="7" fill="#FC762B"/>
<circle cx="565" cy="535" r="7" fill="#F2B3C1"/>
<circle cx="56" cy="499" r="10" fill="#DBCAF4"/>
<circle cx="10" cy="232" r="10" fill="#F2B3C1"/>
<circle cx="395" cy="625" r="10" fill="#A5C3FF"/>
<path d="M310 87.7735C316.188 84.2008 323.812 84.2008 330 87.7735L526.506 201.227C532.694 204.799 536.506 211.402 536.506 218.547V445.453C536.506 452.598 532.694 459.201 526.506 462.773L330 576.227C323.812 579.799 316.188 579.799 310 576.227L113.494 462.773C107.306 459.201 103.494 452.598 103.494 445.453V218.547C103.494 211.402 107.306 204.799 113.494 201.226L310 87.7735Z" fill="#D9D9D9"/>
<path d="M310 87.7735C316.188 84.2008 323.812 84.2008 330 87.7735L526.506 201.227C532.694 204.799 536.506 211.402 536.506 218.547V445.453C536.506 452.598 532.694 459.201 526.506 462.773L330 576.227C323.812 579.799 316.188 579.799 310 576.227L113.494 462.773C107.306 459.201 103.494 452.598 103.494 445.453V218.547C103.494 211.402 107.306 204.799 113.494 201.226L310 87.7735Z" fill="url(#paint0_linear_484_2126)"/>
<path d="M483.601 524.856L375.673 524.491L267.75 524.126C229.496 488.926 201.134 462.852 182.328 445.56L154.287 419.767C154.287 419.767 154.366 401.502 154.516 366.021C154.666 330.539 154.89 277.849 155.18 208.989H324.475C324.475 208.989 353.356 270.633 382.242 332.273L440.014 455.556C449.061 471.075 457.575 484.882 465.015 496.569C472.456 508.255 478.84 517.821 483.601 524.856Z" fill="url(#paint1_linear_484_2126)" stroke="black" stroke-miterlimit="10" stroke-linecap="round"/>
<path d="M325.368 514.93H239.828H154.287V484.46V453.994H239.828H325.368V484.46V514.93Z" fill="#F6991A" stroke="#070707" stroke-miterlimit="10" stroke-linecap="round"/>
<path d="M319.014 497.048H239.827H160.636V482.911V468.77H239.827H319.014V482.911V497.048Z" fill="#F6991A" stroke="#070707" stroke-miterlimit="10" stroke-linecap="round"/>
<path d="M160.636 474.226H239.827H319.014" fill="#D87D61"/>
<path d="M160.636 474.226H239.827H319.014" stroke="black" stroke-miterlimit="10" stroke-linecap="round"/>
<path d="M160.636 479.946H239.827H319.014" fill="#D87D61"/>
<path d="M160.636 479.946H239.827H319.014" stroke="black" stroke-miterlimit="10" stroke-linecap="round"/>
<path d="M160.636 485.67H239.827H319.014" fill="#D87D61"/>
<path d="M160.636 485.67H239.827H319.014" stroke="black" stroke-miterlimit="10" stroke-linecap="round"/>
<path d="M160.636 491.39H239.827H319.014" fill="#D87D61"/>
<path d="M160.636 491.39H239.827H319.014" stroke="black" stroke-miterlimit="10" stroke-linecap="round"/>
<path d="M159.946 527.382H157.116H154.287V521.156V514.93H157.116H159.946V521.156V527.382Z" fill="#F6991A" stroke="#070707" stroke-miterlimit="10" stroke-linecap="round"/>
<path d="M325.368 527.382H322.539H319.709V521.156V514.93H322.539H325.368V521.156V527.382Z" fill="#F6991A" stroke="#070707" stroke-miterlimit="10" stroke-linecap="round"/>
<path d="M239.827 127.84C217.959 127.84 198.164 138.29 183.833 155.186C169.502 172.082 160.636 195.42 160.636 221.186V411.341H319.036V221.19C319.036 195.411 310.175 172.073 295.844 155.19C281.513 138.308 261.695 127.84 239.827 127.84Z" fill="#040400"/>
<path d="M211.897 416.11C212.023 416.111 212.15 416.101 212.275 416.08C212.402 416.057 212.527 416.023 212.649 415.978C212.773 415.933 212.892 415.877 213.005 415.811C213.122 415.743 213.232 415.665 213.335 415.578C213.559 415.386 213.738 415.147 213.859 414.878C213.976 414.614 214.045 414.331 214.061 414.042C214.076 413.744 214.036 413.446 213.943 413.162C213.846 412.879 213.696 412.616 213.503 412.388C210.936 409.317 208.652 406.022 206.678 402.541C202.704 395.541 199.965 387.908 198.582 379.978C197.894 376.035 197.561 372.038 197.588 368.036C197.588 367.275 197.614 366.483 197.667 365.682C197.712 364.873 197.799 364.067 197.927 363.266C198.054 362.462 198.239 361.668 198.481 360.89C198.72 360.119 199.038 359.374 199.431 358.668C199.75 358.099 200.134 357.569 200.575 357.089C201.034 356.587 201.553 356.144 202.12 355.769C202.684 355.389 203.305 355.1 203.959 354.915C204.615 354.729 205.303 354.681 205.979 354.774C206.501 354.849 207.011 354.997 207.492 355.214C207.996 355.446 208.478 355.723 208.931 356.042C209.401 356.372 209.853 356.728 210.286 357.106C210.726 357.485 211.144 357.876 211.549 358.264C212.617 359.284 213.664 360.329 214.691 361.396C215.72 362.466 216.719 363.557 217.7 364.67C218.681 365.783 219.632 366.918 220.565 368.076C221.497 369.233 222.395 370.403 223.275 371.596C223.627 372.062 224.143 372.376 224.718 372.476C225 372.528 225.29 372.528 225.572 372.476C226.001 372.386 226.394 372.175 226.706 371.867C227.019 371.56 227.236 371.169 227.332 370.742C227.466 370.169 227.373 369.567 227.072 369.061C225.673 366.697 224.387 364.264 223.213 361.762C222.04 359.259 220.988 356.709 220.059 354.11C219.13 351.514 218.321 348.87 217.643 346.19C216.965 343.51 216.415 340.822 215.997 338.112C215.733 336.391 215.557 334.772 215.439 333.241C215.335 331.799 215.304 330.352 215.346 328.907C215.387 327.609 215.513 326.316 215.725 325.035C215.917 323.853 216.2 322.688 216.569 321.55C217.087 320.032 217.821 318.596 218.747 317.286C219.745 315.849 220.929 314.55 222.267 313.423C223.565 312.312 225.057 311.452 226.667 310.884C228.223 310.341 229.9 310.246 231.507 310.612C232.458 310.856 233.354 311.279 234.147 311.857C234.994 312.465 235.78 313.155 236.493 313.916C237.232 314.686 237.931 315.509 238.6 316.31C239.269 317.11 239.92 317.889 240.519 318.562C241.44 319.566 242.345 320.579 243.233 321.603C244.113 322.632 244.993 323.666 245.873 324.718C246.753 325.77 247.589 326.826 248.425 327.895C249.261 328.964 250.084 330.051 250.889 331.142C251.224 331.596 251.709 331.915 252.258 332.044C252.524 332.11 252.8 332.123 253.072 332.084C253.349 332.046 253.616 331.952 253.855 331.806C254.127 331.644 254.362 331.425 254.541 331.164C254.714 330.916 254.833 330.634 254.889 330.337C254.948 330.046 254.948 329.747 254.889 329.457C254.821 329.152 254.69 328.864 254.506 328.612C253.38 327.09 252.227 325.586 251.048 324.102C249.869 322.618 248.66 321.151 247.422 319.702C246.19 318.259 244.932 316.838 243.647 315.438C242.362 314.039 241.066 312.666 239.757 311.32C239.317 310.88 238.899 310.44 238.437 310.031C237.975 309.622 237.522 309.199 237.029 308.808C236.539 308.417 236.027 308.055 235.494 307.725C234.948 307.395 234.377 307.108 233.787 306.867C233.187 306.626 232.567 306.437 231.934 306.304C231.285 306.168 230.626 306.086 229.963 306.058C229.279 306.032 228.593 306.057 227.913 306.132C227.201 306.215 226.495 306.346 225.801 306.524C224.28 306.926 222.825 307.544 221.48 308.359C220.089 309.197 218.811 310.21 217.678 311.373C216.498 312.583 215.464 313.929 214.598 315.381C213.687 316.897 212.949 318.51 212.398 320.19C211.867 321.839 211.486 323.533 211.259 325.25C211.04 326.896 210.933 328.554 210.937 330.214C210.937 331.82 211.025 333.368 211.162 334.812C211.298 336.255 211.479 337.597 211.663 338.794C211.895 340.322 212.169 341.844 212.486 343.361C212.803 344.877 213.156 346.388 213.547 347.893C213.937 349.398 214.368 350.891 214.84 352.372C215.312 353.853 215.82 355.32 216.363 356.772L215.923 356.332C215.777 356.187 215.632 356.042 215.483 355.892L215.043 355.452C214.897 355.307 214.748 355.166 214.603 355.012C214.075 354.506 213.525 353.996 212.935 353.498C212.345 352.992 211.723 352.523 211.074 352.095C210.412 351.659 209.711 351.286 208.979 350.982C208.222 350.667 207.428 350.448 206.617 350.33C205.452 350.164 204.267 350.219 203.123 350.493C202.033 350.768 200.994 351.214 200.043 351.813C199.101 352.397 198.241 353.105 197.487 353.916C196.757 354.687 196.124 355.544 195.603 356.468C195.101 357.374 194.685 358.326 194.363 359.311C194.048 360.268 193.807 361.248 193.641 362.241C193.476 363.207 193.361 364.181 193.298 365.158C193.232 366.113 193.21 367.055 193.201 367.957C193.171 372.233 193.526 376.504 194.261 380.717C195.742 389.178 198.671 397.32 202.921 404.785C205.032 408.496 207.474 412.01 210.216 415.283C210.323 415.411 210.444 415.526 210.577 415.626C210.837 415.822 211.138 415.957 211.457 416.022C211.6 416.065 211.748 416.095 211.897 416.11Z" fill="url(#paint2_linear_484_2126)" stroke="black" stroke-miterlimit="10" stroke-linecap="round"/>
<path d="M322.253 295.04C322.398 294.952 322.535 294.85 322.662 294.736C322.79 294.623 322.908 294.497 323.014 294.362C323.121 294.224 323.217 294.077 323.3 293.922C323.384 293.763 323.455 293.597 323.511 293.425C323.631 293.052 323.667 292.657 323.617 292.268C323.567 291.885 323.446 291.515 323.26 291.177C323.069 290.842 322.82 290.545 322.525 290.297C322.223 290.038 321.873 289.841 321.496 289.716C316.441 288.025 311.549 285.882 306.879 283.314C297.484 278.155 289.049 271.415 281.944 263.391C278.41 259.401 275.243 255.101 272.48 250.543C271.952 249.663 271.424 248.761 270.922 247.819C270.421 246.878 269.945 245.896 269.527 244.893C269.111 243.893 268.766 242.863 268.498 241.813C268.232 240.77 268.073 239.703 268.023 238.628C267.991 237.761 268.056 236.893 268.216 236.04C268.383 235.145 268.66 234.273 269.039 233.444C269.409 232.619 269.91 231.858 270.522 231.192C271.138 230.521 271.888 229.986 272.722 229.621C273.37 229.345 274.055 229.163 274.755 229.08C275.485 228.995 276.221 228.975 276.955 229.018C277.719 229.063 278.479 229.15 279.234 229.278C279.995 229.401 280.747 229.55 281.473 229.718C283.401 230.125 285.319 230.578 287.229 231.077C289.138 231.576 291.045 232.113 292.949 232.688C294.835 233.274 296.709 233.893 298.572 234.544C300.429 235.204 302.277 235.904 304.103 236.648C304.642 236.864 305.232 236.922 305.803 236.815C306.374 236.709 306.903 236.441 307.328 236.045C307.615 235.775 307.848 235.452 308.014 235.094C308.18 234.736 308.274 234.349 308.291 233.955C308.328 233.187 308.072 232.434 307.574 231.847C307.32 231.545 307.009 231.295 306.659 231.112C303.432 229.408 300.276 227.548 297.19 225.533C294.104 223.518 291.126 221.358 288.254 219.052C285.379 216.755 282.623 214.328 279.986 211.77C277.349 209.212 274.847 206.541 272.48 203.758C270.978 201.998 269.633 200.287 268.445 198.627C267.317 197.069 266.272 195.454 265.312 193.787C264.454 192.287 263.692 190.734 263.033 189.136C262.427 187.664 261.934 186.147 261.559 184.6C261.082 182.512 260.907 180.366 261.04 178.229C261.174 175.904 261.618 173.607 262.36 171.4C263.061 169.232 264.156 167.213 265.589 165.442C266.968 163.743 268.798 162.466 270.869 161.76C272.118 161.373 273.429 161.223 274.733 161.32C276.118 161.419 277.49 161.653 278.829 162.019C280.202 162.376 281.57 162.824 282.886 163.264C284.201 163.704 285.469 164.144 286.639 164.474C288.378 164.97 290.112 165.489 291.84 166.032C293.568 166.575 295.286 167.138 296.997 167.722C298.707 168.308 300.411 168.915 302.109 169.543C303.808 170.171 305.496 170.824 307.174 171.501C307.525 171.639 307.897 171.717 308.274 171.73C308.641 171.739 309.007 171.686 309.356 171.572C309.7 171.455 310.021 171.278 310.302 171.048C310.592 170.806 310.829 170.506 310.997 170.168C311.192 169.793 311.305 169.38 311.327 168.958C311.35 168.557 311.288 168.155 311.147 167.779C311.005 167.403 310.789 167.059 310.513 166.767C310.225 166.469 309.877 166.235 309.493 166.08C307.146 165.139 304.788 164.238 302.417 163.379C300.047 162.519 297.654 161.701 295.237 160.924C292.828 160.149 290.408 159.416 287.977 158.724C285.545 158.031 283.104 157.387 280.655 156.792C279.876 156.598 279.08 156.409 278.27 156.246C277.461 156.084 276.647 155.938 275.824 155.842C274.993 155.737 274.157 155.686 273.32 155.688C272.471 155.69 271.623 155.762 270.786 155.903C269.936 156.05 269.102 156.27 268.291 156.563C267.462 156.863 266.658 157.229 265.889 157.659C265.093 158.107 264.333 158.614 263.614 159.177C262.863 159.764 262.155 160.405 261.497 161.095C260.051 162.611 258.83 164.327 257.872 166.19C256.885 168.113 256.146 170.154 255.672 172.262C255.178 174.463 254.941 176.713 254.968 178.968C254.998 181.321 255.293 183.664 255.848 185.951C256.397 188.193 257.147 190.381 258.087 192.489C258.99 194.505 260.027 196.459 261.189 198.337C262.311 200.163 263.495 201.857 264.657 203.397C265.818 204.937 266.962 206.332 268.005 207.559C269.34 209.126 270.714 210.66 272.128 212.162C273.542 213.663 274.998 215.13 276.497 216.562C277.993 217.993 279.526 219.385 281.095 220.737C282.664 222.089 284.266 223.402 285.9 224.675L285.103 224.49L284.307 224.306L283.506 224.13C283.242 224.072 282.974 224.011 282.705 223.958C281.759 223.756 280.769 223.558 279.762 223.404C278.742 223.246 277.713 223.151 276.682 223.118C275.628 223.085 274.573 223.151 273.531 223.316C272.452 223.489 271.398 223.796 270.394 224.231C268.957 224.86 267.652 225.756 266.549 226.871C265.494 227.94 264.617 229.169 263.948 230.514C263.292 231.837 262.81 233.239 262.514 234.685C262.231 236.068 262.114 237.481 262.166 238.892C262.227 240.271 262.42 241.641 262.743 242.984C263.057 244.288 263.467 245.568 263.97 246.812C264.46 248.019 265.01 249.202 265.62 250.354C266.219 251.484 266.843 252.554 267.468 253.596C270.423 258.459 273.81 263.047 277.588 267.302C285.16 275.853 294.149 283.035 304.16 288.532C309.147 291.265 314.37 293.541 319.767 295.335C319.984 295.413 320.21 295.461 320.44 295.48C320.653 295.504 320.869 295.504 321.082 295.48C321.291 295.454 321.496 295.405 321.694 295.335C321.89 295.256 322.077 295.157 322.253 295.04Z" fill="url(#paint3_linear_484_2126)" stroke="black" stroke-miterlimit="10" stroke-linecap="round"/>
<path d="M239.828 119.405C216.204 119.405 194.82 130.696 179.341 148.96C163.862 167.224 154.287 192.406 154.287 220.24V419.767H325.368V220.24C325.368 192.392 315.794 167.18 300.288 148.929C284.782 130.678 263.447 119.405 239.828 119.405ZM317.738 204.4H248.658L273.8 181.714L298.88 159.014C303.742 165.46 307.77 172.494 310.87 179.949C314.145 187.79 316.452 196.001 317.738 204.4ZM294.348 153.488L268.876 176.513L243.4 199.56V127.932C253.109 128.456 262.598 131.026 271.244 135.474C279.994 139.996 287.828 146.104 294.348 153.488ZM236.268 127.932V198.935L210.942 176.055L185.62 153.175C192.125 145.884 199.92 139.856 208.614 135.395C217.204 131 226.62 128.458 236.255 127.932H236.268ZM231.652 204.4H161.917C163.21 195.92 165.542 187.631 168.86 179.72C172.003 172.204 176.093 165.12 181.03 158.64L206.344 181.52L231.652 204.4ZM319.014 411.332H160.636V221.19C160.636 219.562 160.672 217.949 160.742 216.35C160.812 214.752 160.916 213.156 161.054 211.563H318.596C318.737 213.147 318.838 214.744 318.909 216.35C318.979 217.956 319.014 219.571 319.014 221.19V411.341V411.332Z" fill="#F6991A" stroke="#070707" stroke-miterlimit="10" stroke-linecap="round"/>
<path d="M294.177 346.96C294.177 346.454 292.883 345.996 290.736 345.64C287.903 345.22 285.046 344.986 282.182 344.94C282.143 342.089 281.849 339.247 281.302 336.448C280.831 334.306 280.215 333.012 279.542 333.012C278.869 333.012 278.253 334.306 277.782 336.448C277.236 339.247 276.941 342.089 276.902 344.94C274.033 344.986 271.17 345.219 268.331 345.64C266.184 345.996 264.895 346.454 264.895 346.96C264.895 347.466 266.184 347.919 268.331 348.28C271.163 348.697 274.018 348.927 276.88 348.971C276.919 351.822 277.214 354.664 277.76 357.463C278.231 359.606 278.847 360.899 279.52 360.899C280.193 360.899 280.809 359.606 281.28 357.463C281.827 354.664 282.121 351.822 282.16 348.971C285.031 348.929 287.895 348.698 290.736 348.28C292.883 347.915 294.177 347.457 294.177 346.96Z" fill="url(#paint4_linear_484_2126)" stroke="black" stroke-miterlimit="10" stroke-linecap="round"/>
<path d="M279.744 373.008C277.465 373.496 276.035 374.029 275.054 375.01C274.073 375.991 273.54 377.421 273.052 379.705C273.038 379.773 273 379.834 272.946 379.878C272.892 379.922 272.825 379.945 272.755 379.945C272.685 379.945 272.618 379.922 272.564 379.878C272.51 379.834 272.472 379.773 272.458 379.705C271.97 377.421 271.437 375.991 270.456 375.01C269.475 374.029 268.049 373.496 265.766 373.008C265.696 372.996 265.634 372.96 265.589 372.906C265.545 372.852 265.522 372.783 265.524 372.713C265.522 372.643 265.546 372.575 265.59 372.521C265.635 372.467 265.697 372.431 265.766 372.418C268.049 371.93 269.475 371.398 270.456 370.416C271.437 369.435 271.97 368.005 272.458 365.722C272.472 365.654 272.51 365.592 272.564 365.549C272.618 365.505 272.685 365.481 272.755 365.481C272.825 365.481 272.892 365.505 272.946 365.549C273 365.592 273.038 365.654 273.052 365.722C273.54 368.005 274.073 369.435 275.054 370.416C276.035 371.398 277.465 371.93 279.744 372.418C279.813 372.431 279.875 372.467 279.919 372.521C279.964 372.575 279.987 372.643 279.986 372.713C279.988 372.783 279.965 372.852 279.921 372.906C279.876 372.96 279.813 372.996 279.744 373.008Z" fill="url(#paint5_linear_484_2126)" stroke="black" stroke-miterlimit="10" stroke-linecap="round"/>
<path d="M235.745 230.637C233.487 231.121 232.071 231.649 231.103 232.622C230.135 233.594 229.602 235.006 229.118 237.264C229.106 237.331 229.07 237.392 229.017 237.436C228.963 237.479 228.896 237.502 228.828 237.501C228.759 237.503 228.691 237.479 228.637 237.436C228.583 237.393 228.546 237.332 228.533 237.264C228.049 235.006 227.525 233.59 226.553 232.622C225.581 231.654 224.168 231.121 221.911 230.637C221.843 230.625 221.783 230.589 221.739 230.536C221.695 230.482 221.672 230.416 221.673 230.347C221.672 230.278 221.695 230.21 221.739 230.156C221.782 230.102 221.843 230.065 221.911 230.052C224.168 229.568 225.581 229.044 226.553 228.072C227.525 227.1 228.049 225.687 228.533 223.43C228.546 223.362 228.583 223.301 228.637 223.258C228.691 223.214 228.759 223.191 228.828 223.192C228.896 223.191 228.963 223.215 229.017 223.258C229.07 223.302 229.106 223.362 229.118 223.43C229.602 225.687 230.13 227.1 231.103 228.072C232.075 229.044 233.487 229.568 235.745 230.052C235.813 230.065 235.874 230.102 235.917 230.156C235.96 230.21 235.984 230.278 235.982 230.347C235.983 230.416 235.96 230.482 235.917 230.536C235.873 230.589 235.812 230.625 235.745 230.637Z" fill="url(#paint6_linear_484_2126)" stroke="black" stroke-miterlimit="10" stroke-linecap="round"/>
<path d="M302.668 342.054C301.622 342.053 300.608 341.689 299.8 341.024C298.992 340.359 298.439 339.434 298.236 338.408C298.033 337.381 298.193 336.316 298.687 335.393C299.182 334.471 299.981 333.749 300.948 333.35C301.916 332.95 302.992 332.899 303.993 333.204C304.994 333.509 305.858 334.152 306.438 335.023C307.018 335.894 307.278 336.939 307.174 337.981C307.07 339.022 306.608 339.995 305.867 340.734C305.447 341.154 304.949 341.487 304.4 341.713C303.851 341.94 303.262 342.056 302.668 342.054ZM302.668 335.48C302.194 335.48 301.735 335.645 301.368 335.945C301.001 336.246 300.75 336.665 300.657 337.13C300.565 337.595 300.636 338.078 300.859 338.496C301.083 338.915 301.444 339.243 301.882 339.424C302.32 339.606 302.808 339.631 303.262 339.493C303.715 339.356 304.108 339.066 304.372 338.672C304.636 338.278 304.755 337.805 304.709 337.333C304.663 336.861 304.455 336.419 304.12 336.083C303.735 335.698 303.213 335.481 302.668 335.48Z" fill="url(#paint7_linear_484_2126)" stroke="black" stroke-miterlimit="10" stroke-linecap="round"/>
<path d="M182.742 303.576C181.707 303.578 180.703 303.222 179.901 302.567C179.1 301.912 178.55 301 178.345 299.985C178.141 298.97 178.295 297.916 178.78 297.002C179.266 296.088 180.054 295.37 181.009 294.972C181.964 294.573 183.028 294.518 184.02 294.816C185.011 295.114 185.868 295.746 186.446 296.605C187.023 297.464 187.285 298.497 187.187 299.527C187.088 300.558 186.635 301.522 185.906 302.256C185.492 302.674 184.999 303.006 184.456 303.232C183.913 303.459 183.33 303.576 182.742 303.576ZM182.742 297.073C182.273 297.073 181.818 297.236 181.455 297.533C181.093 297.831 180.844 298.245 180.753 298.706C180.661 299.166 180.732 299.644 180.953 300.058C181.175 300.471 181.533 300.796 181.966 300.975C182.4 301.155 182.882 301.179 183.331 301.042C183.78 300.906 184.168 300.618 184.429 300.228C184.69 299.838 184.807 299.369 184.761 298.902C184.715 298.435 184.508 297.999 184.176 297.667C183.795 297.287 183.28 297.074 182.742 297.073Z" fill="url(#paint8_linear_484_2126)" stroke="black" stroke-miterlimit="10" stroke-linecap="round"/>
<path d="M189.544 266.84L187.261 265.806L184.981 264.768L182.698 263.73L180.419 262.696L182.24 261.578L184.062 260.465L185.883 259.352L187.705 258.238L185.25 255.744L182.795 253.249L180.339 250.754L177.88 248.259L181.004 248.765L184.123 249.271L187.243 249.777L190.367 250.283L189.034 246.662L187.705 243.036L186.372 239.415L185.039 235.79L188.11 238.13L191.177 240.467L194.243 242.803L197.31 245.144L197.975 243.085L198.639 241.026L199.303 238.966L199.968 236.912L201.226 239.23L202.48 241.549L203.739 243.868L204.997 246.191L208.024 243.758L211.047 241.325L214.07 238.892L217.097 236.458L215.671 240.242L214.246 244.031L212.825 247.819L211.399 251.608L214.879 251.423L218.36 251.238L221.836 251.053L225.316 250.868L222.562 253.13L219.803 255.392L217.044 257.649L214.29 259.91L216.23 261.93L218.171 263.95L220.115 265.969L222.056 267.984L219.42 268.042L216.785 268.103L214.149 268.16L211.513 268.218L211.98 272.103L212.446 275.988L212.913 279.873L213.379 283.758L210.941 280.832L208.504 277.906L206.066 274.976L203.633 272.05L202.177 275.337L200.725 278.624L199.268 281.906L197.816 285.193L197.301 281.528L196.791 277.862L196.281 274.202L195.766 270.536L192.409 273.036L189.047 275.535L185.685 278.03L182.328 280.529L184.132 277.106L185.936 273.682L187.74 270.264L189.544 266.84Z" fill="url(#paint9_linear_484_2126)" stroke="black" stroke-miterlimit="10" stroke-linecap="round"/>
<path d="M392.054 431.519L353.295 431.44L314.535 431.374C305.449 439.034 295.122 446.875 285.605 455.433C276.088 463.991 267.372 473.275 261.515 483.8C257.936 490.286 256.573 497.764 257.634 505.096C258.626 512.444 262.216 519.195 267.754 524.126C272.348 528.156 277.778 530.4 283.515 531.606C289.253 532.812 295.303 532.926 301.142 532.737C323.102 532.033 340.944 531.782 358.782 531.712C376.619 531.641 394.47 531.747 416.444 531.747H418.969C419.087 531.74 419.199 531.689 419.28 531.603C419.362 531.517 419.408 531.403 419.409 531.285V477.82H386.317C386.506 477.644 386.783 477.38 387.113 477.05C387.443 476.72 387.835 476.311 388.244 475.84C393.062 470.318 394.8 463.353 395.31 457.642C395.642 454.081 395.543 450.492 395.016 446.954L394.831 445.973C394.646 445.014 394.276 443.109 393.542 439.276C393.542 439.175 393.159 437.288 392.798 435.396C392.437 433.504 392.072 431.62 392.054 431.519Z" fill="#DBCAF4" stroke="black" stroke-miterlimit="10" stroke-linecap="round"/>
<path d="M404.581 512.528H403.112V488.02H419.44V484.68H403.116V477.82H399.79V484.68H374.463V460.172H395.002C395.09 459.596 395.161 459.032 395.222 458.478C395.284 457.924 395.332 457.378 395.372 456.846H374.463V432.285C374.463 432.144 374.446 432.003 374.41 431.867C374.371 431.735 374.318 431.608 374.252 431.488H371.352C371.285 431.609 371.233 431.738 371.198 431.871C371.159 432.007 371.14 432.148 371.141 432.289V456.868H346.633V432.285C346.633 432.136 346.611 431.987 346.567 431.845C346.526 431.706 346.469 431.573 346.396 431.449H343.549C343.472 431.575 343.413 431.711 343.373 431.854C343.329 431.996 343.307 432.144 343.307 432.294V456.872H318.799V431.396H315.472V456.868H291.061V450.677L289.394 452.12L287.735 453.568V456.876H284.043C283.456 457.428 282.87 457.979 282.283 458.531C281.694 459.085 281.108 459.64 280.523 460.203H287.752V484.68H263.24V480.896C262.945 481.376 262.65 481.855 262.36 482.339C262.07 482.823 261.792 483.307 261.524 483.8C261.14 484.481 260.786 485.174 260.464 485.881C260.134 486.585 259.834 487.298 259.557 488.02H259.914V512.528H259.632C260.092 513.689 260.621 514.822 261.216 515.92C261.82 517.028 262.491 518.098 263.227 519.123V515.841H287.735V532.266C288.289 532.332 288.839 532.394 289.394 532.446C289.948 532.499 290.507 532.543 291.061 532.583V515.863H315.472V532.323L317.144 532.279L318.799 532.24V515.854H343.32V531.813H344.988H346.646V515.854H371.154V531.694H374.476V515.854H399.798V531.694H403.125V515.854H419.44V512.528H404.581ZM287.735 512.528H263.24V488.02H287.748V512.528H287.735ZM315.455 512.528H291.061V488.02H315.472V512.528H315.455ZM315.455 484.698H291.061V460.19H315.472V484.68L315.455 484.698ZM343.32 512.528H318.812V488.02H343.32V512.528ZM343.32 484.68H318.812V460.172H343.32V484.68ZM371.154 512.51H346.646V488.002H371.154V512.51ZM371.154 484.68H346.646V460.172H371.154V484.68ZM399.798 512.51H374.463V488.002H399.785V512.51H399.798Z" fill="#84A1E5" stroke="#070707" stroke-miterlimit="10" stroke-linecap="round"/>
<path d="M485.686 532.825C485.788 531.134 485.555 529.44 485 527.84C484.643 526.794 484.168 525.793 483.583 524.856L482.624 523.4L481.647 521.957L468.689 501.853L455.731 481.745C455.388 481.214 454.995 480.717 454.556 480.262C454.114 479.812 453.621 479.415 453.087 479.079C451.849 478.317 450.438 477.884 448.986 477.82L467.197 506.297L485.409 534.778C485.475 534.457 485.532 534.136 485.581 533.806C485.629 533.476 485.66 533.159 485.686 532.825Z" fill="#C6FCDB" stroke="black" stroke-miterlimit="10" stroke-linecap="round"/>
<path d="M448.986 477.834H448.792H419.44V527.254H426.709L433.982 527.232C433.982 527.232 437.238 528.574 441.801 530.62C446.364 532.666 452.242 535.408 457.474 538.21C457.997 538.492 458.591 538.796 459.388 539.2C460.184 539.605 461.183 540.08 462.516 540.771C465.35 542.192 467.083 543.006 468.298 543.504C469.168 543.881 470.077 544.165 471.008 544.348C472.587 544.694 474.22 544.716 475.808 544.414C477.396 544.111 478.906 543.49 480.248 542.588C482.903 540.764 484.75 537.985 485.405 534.831L467.193 506.35L448.986 477.834Z" fill="#ECE7E1" stroke="black" stroke-miterlimit="10" stroke-linecap="round"/>
<path d="M400.687 372.863C399.561 370.545 398.34 368.306 397.026 366.144C395.733 364.01 394.327 361.947 392.815 359.962C387.012 352.341 379.448 347.127 371.013 343.937C362.579 340.747 353.277 339.594 343.993 340.092C314.72 341.68 301.656 357.986 295.923 373.914C290.19 389.842 291.774 405.374 291.774 405.374L282.697 395.536L273.624 385.68L259.935 397.468L246.243 409.255L259.517 428.853L272.788 448.468C274.366 450.802 276.18 452.968 278.2 454.932C280.217 456.895 282.445 458.629 284.844 460.102C286.853 461.327 288.975 462.358 291.18 463.182C293.674 464.115 296.269 464.757 298.911 465.096C301.096 465.41 303.305 465.528 305.511 465.448C308.771 465.326 311.974 464.554 314.931 463.177C320.013 460.744 324.048 456.392 326.771 450.857C329.495 445.322 330.921 438.625 330.78 431.497H392.054C392.054 431.497 392.793 435.356 393.537 439.215L395.015 446.932C395.015 446.814 396.428 445.744 397.937 444.653C399.446 443.562 401.017 442.453 401.316 442.202C403.964 439.936 406.032 437.07 407.349 433.842C408.681 430.621 409.526 427.219 409.857 423.749C410.694 415.159 410.328 406.493 408.77 398.004C407.235 389.294 404.516 380.835 400.687 372.863Z" fill="#ECE7E1" stroke="black" stroke-miterlimit="10" stroke-linecap="round"/>
<path d="M350.25 344.148C355.442 339.775 358.557 332.994 359.631 326.39C360.744 319.526 359.556 312.433 355.231 307.294C355.05 307.078 354.865 306.854 354.672 306.665C354.478 306.476 354.289 306.26 354.091 306.066C350.8 302.859 346.4 301.156 341.868 300.896C337.315 300.605 332.793 301.83 329.011 304.381C326.789 305.992 324.964 308.088 323.674 310.51C322.37 312.927 321.337 315.479 320.594 318.122C320.428 318.676 320.293 319.239 320.189 319.808C320.079 320.371 319.995 320.943 319.907 321.524C319.877 321.717 319.837 322.426 319.753 323.108C319.67 323.79 319.542 324.428 319.34 324.52L318.24 324.96L317.162 325.4L316.084 325.84L315.006 326.28C315.547 326.72 316.035 327.134 316.462 327.477C316.889 327.82 317.25 328.11 317.54 328.357C317.831 328.603 318.095 328.77 318.367 328.99C318.64 329.204 318.888 329.447 319.107 329.716C319.306 329.983 319.441 330.291 319.503 330.618C319.573 330.935 319.604 331.27 319.657 331.6C321.773 345.046 338.489 353.49 349.704 344.637C349.893 344.443 350.074 344.32 350.25 344.148Z" fill="#F2B3C1" stroke="black" stroke-miterlimit="10" stroke-linecap="round"/>
<path d="M327.88 321.669C327.844 321.835 327.775 321.992 327.678 322.131C327.488 322.398 327.203 322.584 326.881 322.65C326.715 322.682 326.544 322.681 326.378 322.645C326.213 322.61 326.056 322.541 325.918 322.443C325.65 322.254 325.465 321.969 325.403 321.647C325.366 321.482 325.366 321.31 325.403 321.145C325.439 320.987 325.507 320.837 325.601 320.705C325.693 320.57 325.811 320.455 325.949 320.366C326.082 320.279 326.232 320.217 326.389 320.186C326.554 320.151 326.725 320.151 326.89 320.186C327.048 320.224 327.197 320.291 327.33 320.384C327.463 320.477 327.577 320.595 327.665 320.732C327.752 320.866 327.815 321.015 327.849 321.172C327.892 321.334 327.902 321.503 327.88 321.669Z" fill="#040400"/>
<path d="M329.702 329.087C329.652 329.246 329.594 329.402 329.526 329.554C329.393 329.846 329.235 330.127 329.055 330.394C328.816 330.742 328.532 331.057 328.21 331.331C327.526 331.918 326.678 332.28 325.782 332.37C325.451 332.403 325.118 332.403 324.787 332.37C324.53 332.338 324.276 332.289 324.026 332.224C323.877 332.182 323.73 332.132 323.586 332.075" stroke="black" stroke-miterlimit="10" stroke-linecap="round"/>
<path d="M325.522 315.949L327.352 316.582L329.187 317.216L331.022 317.85L332.857 318.483" stroke="black" stroke-miterlimit="10" stroke-linecap="round"/>
<path d="M341.243 328.894C341.112 329.514 340.83 330.092 340.422 330.578C340.015 331.063 339.493 331.44 338.905 331.676C338.316 331.912 337.679 331.999 337.049 331.929C336.419 331.86 335.815 331.636 335.293 331.277C334.77 330.919 334.343 330.437 334.051 329.874C333.759 329.312 333.61 328.686 333.617 328.052C333.625 327.418 333.789 326.796 334.094 326.24C334.4 325.685 334.838 325.213 335.369 324.868C335.786 324.598 336.25 324.41 336.737 324.313C337.362 324.192 338.007 324.227 338.614 324.416C339.222 324.604 339.773 324.94 340.22 325.394C340.666 325.848 340.993 326.405 341.171 327.015C341.35 327.626 341.374 328.271 341.243 328.894Z" fill="#FF6406" stroke="#070707" stroke-miterlimit="10" stroke-linecap="round"/>
<path d="M357.743 333.905C358.02 332.928 358.293 331.886 358.54 330.786C358.786 329.686 359.019 328.524 359.217 327.31C359.376 326.337 359.503 325.396 359.609 324.489C359.714 323.583 359.789 322.703 359.846 321.849C360.14 321.845 360.434 321.857 360.726 321.884C361.112 321.923 361.495 321.99 361.87 322.087C362.186 322.182 362.492 322.304 362.786 322.452C363.315 322.703 363.797 323.044 364.211 323.46C365.041 324.372 365.5 325.561 365.5 326.795C365.534 327.957 365.332 329.114 364.906 330.196C364.717 330.693 364.476 331.169 364.189 331.617C363.772 332.257 363.225 332.801 362.583 333.214C361.671 333.789 360.616 334.094 359.538 334.094C358.934 334.114 358.33 334.05 357.743 333.905Z" fill="#F2B3C1" stroke="black" stroke-miterlimit="10" stroke-linecap="round"/>
<path d="M321.082 316.015C321.492 316.354 321.082 316.015 320.449 315.526C319.815 315.038 319.014 314.343 318.632 313.978C317.611 312.879 316.943 311.499 316.712 310.018C316.482 308.536 316.7 307.019 317.338 305.662C318.067 304.283 319.236 303.187 320.66 302.551C321.413 302.195 322.213 301.949 323.036 301.82C322.787 300.986 322.657 300.121 322.649 299.251C322.602 297.687 323.047 296.148 323.92 294.851C324.674 293.78 325.712 292.94 326.917 292.426C327.783 292.064 328.688 291.804 329.614 291.652C331.695 291.256 333.614 291.758 335.457 292.563C337.301 293.368 339.07 294.481 340.852 295.3C343.147 296.33 345.539 297.127 347.993 297.68C350.404 298.256 352.859 298.679 355.38 299.132C357.52 299.486 359.608 300.107 361.593 300.98C363.584 301.847 365.332 303.187 366.688 304.883C368.007 306.581 368.848 308.599 369.126 310.73C369.386 312.857 369.278 315.012 368.805 317.102C368.594 318.109 368.333 319.104 368.022 320.085C367.708 321.067 367.356 322.034 366.966 322.984C366.82 323.336 366.424 323.97 366.086 324.604C365.747 325.237 365.426 325.884 365.461 326.258C365.433 325.986 365.384 325.717 365.316 325.453C365.211 325.086 365.063 324.733 364.876 324.401C364.641 323.988 364.344 323.614 363.996 323.292C363.767 323.083 363.519 322.894 363.256 322.729C362.651 322.335 361.974 322.066 361.263 321.937C360.799 321.852 360.326 321.823 359.855 321.849C359.855 321.849 359.714 323.609 359.442 325.765C359.215 327.901 358.812 330.014 358.236 332.084C358.236 332.084 356.744 331.736 355.477 329.677C354.21 327.618 353.163 323.851 354.056 317.018C349.084 318.51 344.376 318.43 340.623 317.273C336.87 316.116 334.023 313.868 332.817 311.03C332.425 310.096 332.196 309.102 332.14 308.09C332.043 306.071 332.401 304.057 333.187 302.194C332.404 302.472 331.642 302.806 330.908 303.193C330.028 303.661 329.192 304.206 328.408 304.821C327.945 305.181 327.504 305.569 327.088 305.983C326.29 306.763 325.563 307.613 324.915 308.522C324.435 309.195 323.994 309.896 323.595 310.62C323.23 311.294 322.913 311.94 322.596 312.6C322.279 313.26 321.883 314.145 321.588 314.8C321.294 315.456 321.082 316.015 321.082 316.015Z" fill="#D87D61" stroke="black" stroke-miterlimit="10" stroke-linecap="round"/>
<path d="M291.774 405.374L296.513 410.118L301.256 414.865" stroke="black" stroke-miterlimit="10" stroke-linecap="round"/>
<path d="M389.362 396.68C389.833 399.289 390.268 402.017 390.642 404.846C391.016 407.676 391.329 410.619 391.571 413.646C391.826 416.836 391.984 419.93 392.055 422.886C392.125 425.843 392.125 428.738 392.055 431.488" stroke="black" stroke-miterlimit="10" stroke-linecap="round"/>
<path d="M331 397.534C330.965 403.201 330.928 408.865 330.89 414.526C330.852 420.188 330.814 425.852 330.775 431.519" stroke="black" stroke-miterlimit="10" stroke-linecap="round"/>
<path d="M273.624 385.68C271.987 383.247 270.443 380.84 269.066 378.336C267.667 375.819 266.49 373.185 265.546 370.465C264.292 366.822 263.108 363.139 261.858 359.465C260.609 355.791 259.306 352.17 257.806 348.614C256.895 346.45 255.883 343.801 254.594 341.346C253.305 338.89 251.743 336.629 249.723 335.225C249.411 334.997 249.071 334.81 248.711 334.666C248.349 334.526 247.957 334.479 247.572 334.53C247.331 334.572 247.1 334.652 246.885 334.768C246.709 334.862 246.545 334.977 246.397 335.111L245.6 333.883L244.804 332.66C242.261 328.907 240.457 328.304 239.282 328.643C238.904 328.785 238.559 329.001 238.266 329.278C237.973 329.556 237.738 329.889 237.575 330.258C237.333 329.789 237.028 329.355 236.668 328.968C236.033 328.267 235.189 327.787 234.262 327.6C233.919 327.53 233.569 327.497 233.219 327.503C232.725 327.497 232.243 327.651 231.846 327.943C231.274 328.383 230.966 329.237 231.001 330.271C231.07 331.521 231.458 332.733 232.128 333.791C231.522 333.797 230.924 333.923 230.368 334.16C229.905 334.358 229.506 334.679 229.215 335.089C228.55 336.057 228.674 337.394 229.039 338.732C229.404 340.07 230.002 341.407 230.302 342.366C230.794 343.95 231.243 345.548 231.705 347.145C232.167 348.742 232.634 350.326 233.166 351.901C233.662 353.368 234.121 354.835 234.543 356.301C234.983 357.784 235.344 359.284 235.678 360.789C235.984 361.905 236.214 363.039 236.365 364.186C236.466 365.387 236.299 366.544 235.428 367.319C235.174 367.546 234.874 367.714 234.548 367.812C234.348 367.874 234.143 367.916 233.936 367.939C232.849 368.049 231.798 367.596 230.645 366.619C229.182 365.254 227.867 363.74 226.72 362.1C226.042 361.19 225.118 359.65 224.01 358.444C222.901 357.238 221.612 356.372 220.208 356.812C219.249 357.111 218.888 357.903 218.778 358.809C218.725 359.694 218.788 360.581 218.967 361.449C219.2 362.807 219.582 364.135 220.107 365.409C220.608 366.672 221.198 367.904 221.774 369.167C222.527 370.83 228.533 380.95 234.402 390.608C240.272 400.266 246.018 409.462 246.247 409.264L259.94 397.476L273.624 385.68Z" fill="#F2B3C1" stroke="black" stroke-miterlimit="10" stroke-linecap="round"/>
<path d="M232.11 333.8C233.047 335.687 233.993 337.711 234.921 339.867C235.85 342.023 236.756 344.32 237.623 346.749C238.437 349.015 239.145 351.21 239.766 353.349C240.386 355.487 240.923 357.498 241.381 359.438" stroke="black" stroke-miterlimit="10" stroke-linecap="round"/>
<path d="M237.557 330.284C238.776 332.691 239.999 335.278 241.187 338.041C242.375 340.804 243.528 343.761 244.615 346.885C245.266 348.768 245.86 350.616 246.397 352.416C246.934 354.216 247.413 355.967 247.844 357.67" stroke="black" stroke-miterlimit="10" stroke-linecap="round"/>
<path d="M246.379 335.137C247.295 337.507 248.194 339.941 249.077 342.437C249.96 344.933 250.818 347.489 251.651 350.106C251.985 351.144 252.306 352.178 252.623 353.208C252.94 354.238 253.243 355.258 253.538 356.288" stroke="black" stroke-miterlimit="10" stroke-linecap="round"/>
<path d="M434.567 527.36L436.411 521.741L438.25 516.118C438.428 515.545 438.72 515.014 439.108 514.557C439.496 514.1 439.972 513.725 440.507 513.456C441.501 512.939 442.658 512.834 443.728 513.164C444.798 513.493 445.696 514.23 446.227 515.216C446.745 516.154 446.909 517.247 446.689 518.296C446.683 518.303 446.68 518.311 446.68 518.32C446.68 518.329 446.683 518.338 446.689 518.344C446.697 518.35 446.706 518.353 446.716 518.353C446.725 518.353 446.735 518.35 446.742 518.344C447.265 517.372 448.114 516.615 449.14 516.206C450.117 515.802 451.206 515.757 452.212 516.079C453.219 516.401 454.08 517.07 454.64 517.966C455.203 518.842 455.46 519.881 455.371 520.918C455.369 520.935 455.373 520.951 455.381 520.964C455.39 520.978 455.404 520.988 455.419 520.993C455.434 520.998 455.451 520.997 455.466 520.992C455.481 520.986 455.494 520.976 455.503 520.962C456.035 520.156 456.844 519.572 457.777 519.321C458.602 519.124 459.467 519.173 460.264 519.461C461.062 519.75 461.758 520.265 462.265 520.945C462.695 521.525 462.975 522.202 463.079 522.916C463.137 523.3 463.137 523.69 463.079 524.073C463.02 524.459 462.913 524.835 462.763 525.195L460.123 531.698L457.461 538.202C455.041 536.987 452.582 535.779 450.086 534.576C447.59 533.373 445.058 532.176 442.492 530.986C441.16 530.364 439.84 529.755 438.532 529.16C437.224 528.564 435.902 527.964 434.567 527.36Z" fill="#F6991A" stroke="#070707" stroke-miterlimit="10" stroke-linecap="round"/>
<path d="M446.782 518.34L444.472 524.386L442.157 530.436" fill="#ECE7E1"/>
<path d="M446.782 518.34L444.472 524.386L442.157 530.436" stroke="black" stroke-miterlimit="10" stroke-linecap="round"/>
<path d="M455.405 521.086L452.805 527.615L450.205 534.145" fill="#ECE7E1"/>
<path d="M455.405 521.086L452.805 527.615L450.205 534.145" stroke="black" stroke-miterlimit="10" stroke-linecap="round"/>
<path d="M419.44 487.179H435.808C436.475 487.267 437.152 487.193 437.784 486.963C438.416 486.733 438.983 486.355 439.438 485.859C440.359 484.897 440.862 483.609 440.837 482.278C440.768 481.024 440.218 479.845 439.302 478.986C438.846 478.54 438.294 478.205 437.688 478.007C437.082 477.809 436.439 477.752 435.808 477.842" stroke="black" stroke-miterlimit="10" stroke-linecap="round"/>
<path d="M363.899 462.13C363.899 462.13 363.019 467.85 359.182 475.246C354.143 484.941 346.331 492.916 336.742 498.153" stroke="black" stroke-miterlimit="10" stroke-linecap="round"/>
<path d="M386.317 477.82H372.034H357.752" stroke="black" stroke-miterlimit="10" stroke-linecap="round"/>
<path d="M280.176 392.799L266.285 405.568L252.39 418.341" stroke="black" stroke-miterlimit="10" stroke-linecap="round"/>
<path d="M453.175 484.148L454.781 483.527L456.387 482.907" fill="#F2B3C1"/>
<path d="M453.175 484.148L454.781 483.527L456.387 482.907" stroke="black" stroke-miterlimit="10" stroke-linecap="round"/>
<path d="M455.96 488.394L457.28 487.808L458.6 487.219" fill="#F2B3C1"/>
<path d="M455.96 488.394L457.28 487.808L458.6 487.219" stroke="black" stroke-miterlimit="10" stroke-linecap="round"/>
<path d="M220.428 453.994H187.358H154.287V450.312V446.633H187.358H220.428V450.312V453.994Z" fill="#DBCAF4" stroke="black" stroke-miterlimit="10" stroke-linecap="round"/>
<path d="M212.706 446.633H189.113H165.521V442.95V439.272H189.113H212.706V442.95V446.633Z" fill="#F6C34C" stroke="#070707" stroke-miterlimit="10" stroke-linecap="round"/>
<defs>
<linearGradient id="paint0_linear_484_2126" x1="70" y1="82" x2="455.86" y2="658.408" gradientUnits="userSpaceOnUse">
<stop offset="0.201528" stop-color="#DBCAF4"/>
<stop offset="1" stop-color="#B6E0EE"/>
</linearGradient>
<linearGradient id="paint1_linear_484_2126" x1="154.287" y1="366.923" x2="483.601" y2="366.923" gradientUnits="userSpaceOnUse">
<stop offset="0.11" stop-color="#FEC2D9"/>
<stop offset="0.38" stop-color="#DBCAF4"/>
<stop offset="0.65" stop-color="#A4C2FF"/>
<stop offset="0.97" stop-color="#C6FCDB"/>
</linearGradient>
<linearGradient id="paint2_linear_484_2126" x1="193.188" y1="361.084" x2="254.968" y2="361.084" gradientUnits="userSpaceOnUse">
<stop offset="0.18" stop-color="#FEC2D9"/>
<stop offset="0.51" stop-color="#E3DEDA"/>
<stop offset="0.82" stop-color="#C6FCDB"/>
</linearGradient>
<linearGradient id="paint3_linear_484_2126" x1="323.027" y1="173.86" x2="268.647" y2="268.046" gradientUnits="userSpaceOnUse">
<stop offset="0.22" stop-color="#FEC2D9"/>
<stop offset="0.68" stop-color="#F6991A"/>
<stop offset="1" stop-color="#FC762B"/>
</linearGradient>
<linearGradient id="paint4_linear_484_2126" x1="279.533" y1="360.899" x2="279.533" y2="333.008" gradientUnits="userSpaceOnUse">
<stop offset="0.11" stop-color="#FEC2D9"/>
<stop offset="0.57" stop-color="#A4C2FF"/>
<stop offset="0.97" stop-color="#C6FCDB"/>
</linearGradient>
<linearGradient id="paint5_linear_484_2126" x1="265.524" y1="372.713" x2="279.986" y2="372.713" gradientUnits="userSpaceOnUse">
<stop offset="0.18" stop-color="#FEC2D9"/>
<stop offset="0.86" stop-color="#F6991A"/>
</linearGradient>
<linearGradient id="paint6_linear_484_2126" x1="225.708" y1="235.75" x2="231.947" y2="224.944" gradientUnits="userSpaceOnUse">
<stop offset="0.11" stop-color="#FEC2D9"/>
<stop offset="0.38" stop-color="#DBCAF4"/>
<stop offset="0.65" stop-color="#A4C2FF"/>
<stop offset="0.97" stop-color="#C6FCDB"/>
</linearGradient>
<linearGradient id="paint7_linear_484_2126" x1="298.145" y1="337.531" x2="307.192" y2="337.531" gradientUnits="userSpaceOnUse">
<stop offset="0.37" stop-color="#A4C2FF"/>
<stop offset="0.62" stop-color="#B5DEED"/>
<stop offset="0.86" stop-color="#C6FCDB"/>
</linearGradient>
<linearGradient id="paint8_linear_484_2126" x1="178.267" y1="299.101" x2="187.217" y2="299.101" gradientUnits="userSpaceOnUse">
<stop offset="0.37" stop-color="#A4C2FF"/>
<stop offset="0.62" stop-color="#B5DEED"/>
<stop offset="0.86" stop-color="#C6FCDB"/>
</linearGradient>
<linearGradient id="paint9_linear_484_2126" x1="177.88" y1="260.491" x2="225.316" y2="260.491" gradientUnits="userSpaceOnUse">
<stop offset="0.14" stop-color="#A4C2FF"/>
<stop offset="0.89" stop-color="#FEC2D9"/>
</linearGradient>
</defs>
</svg>
