<svg width="640" height="640" viewBox="0 0 640 640" fill="none" xmlns="http://www.w3.org/2000/svg">
<circle cx="320" cy="292" r="220" fill="url(#paint0_linear_484_2129)"/>
<path d="M471.206 477.014H175.649V296.143C175.649 256.949 191.219 219.361 218.932 191.646C246.646 163.932 284.234 148.361 323.428 148.36C342.835 148.36 362.052 152.183 379.981 159.609C397.911 167.036 414.202 177.922 427.924 191.645C441.647 205.368 452.532 221.659 459.959 239.589C467.385 257.519 471.207 276.736 471.206 296.143V477.014Z" fill="url(#paint1_linear_484_2129)" stroke="black" stroke-miterlimit="10" stroke-linecap="round"/>
<path d="M183.908 482.478L229.013 403.12L274.117 323.74C276.525 319.938 279.25 316.347 282.261 313.004C285.302 309.635 288.636 306.543 292.223 303.764C299.773 297.907 309.823 292.324 321.474 291.188C333.125 290.053 346.374 293.45 360.317 305.55C363.54 308.353 366.537 311.406 369.28 314.68C372.003 317.933 374.481 321.383 376.694 325.002L419.814 403.762L462.934 482.522H183.908V482.478Z" fill="#DBCAF4" stroke="black" stroke-miterlimit="10" stroke-linecap="round"/>
<path d="M183.908 482.478C203.761 465.216 223.617 447.959 243.475 430.708C263.334 413.457 283.18 396.194 303.012 378.92C318.148 365.72 336.672 344.464 357.075 327.603C377.477 310.742 399.755 298.29 422.423 302.73C436.415 305.471 446.293 313.07 452.783 320.272C456.908 324.789 460.33 329.9 462.934 335.435L462.965 379.875L462.996 424.315L463 453.381L462.969 482.478H183.908Z" fill="#84A1E5" stroke="#070707" stroke-miterlimit="10" stroke-linecap="round"/>
<path d="M463 482.478C443.156 465.219 423.304 447.962 403.446 430.708C383.587 413.454 363.742 396.192 343.909 378.92C328.8 365.72 310.254 344.442 289.846 327.581C269.439 310.72 247.167 298.268 224.498 302.708C210.506 305.449 200.628 313.048 194.138 320.25C190.01 324.764 186.587 329.876 183.987 335.413L183.956 379.853L183.921 424.293L183.956 453.394L183.987 482.492H463V482.478Z" fill="#84A1E5" stroke="#070707" stroke-miterlimit="10" stroke-linecap="round"/>
<path d="M252.328 285.944C253.018 286.965 253.825 287.902 254.731 288.738C255.372 289.329 256.064 289.863 256.799 290.335C257.806 290.978 258.891 291.489 260.028 291.857C261.473 292.349 263.016 292.485 264.525 292.253C265.13 292.15 265.693 291.873 266.144 291.457C266.576 291.061 266.871 290.539 266.989 289.965C267.09 289.438 267.03 288.892 266.817 288.399C266.611 287.904 266.28 287.471 265.858 287.14C265.393 286.807 264.859 286.581 264.296 286.48C263.737 286.357 263.161 286.278 262.62 286.102C261.442 285.719 260.341 285.134 259.364 284.373C258.384 283.614 257.541 282.693 256.873 281.649L256.433 280.95L255.993 280.246L254.167 283.097L252.328 285.944Z" fill="#040400" stroke="#040400" stroke-miterlimit="10"/>
<path d="M227.133 291.184C226.93 292.098 226.808 293.029 226.768 293.965C226.647 296.891 227.363 299.791 228.832 302.325C229.355 303.228 229.967 304.077 230.658 304.859C231.399 305.816 232.465 306.467 233.654 306.69C234.071 306.788 234.506 306.786 234.922 306.683C235.338 306.581 235.724 306.381 236.048 306.1C236.266 305.852 236.428 305.561 236.525 305.245C236.621 304.93 236.649 304.597 236.606 304.27C236.536 303.593 236.315 302.94 235.96 302.36C235.788 302.093 235.589 301.845 235.366 301.621C235.146 301.396 234.926 301.181 234.688 300.952C234.405 300.656 234.143 300.34 233.905 300.006C233.666 299.672 233.453 299.32 233.267 298.954C232.473 297.346 232.184 295.534 232.44 293.758C232.565 292.75 232.827 291.764 233.218 290.828L230.178 291.004L227.133 291.184Z" fill="#040400" stroke="#040400" stroke-miterlimit="10"/>
<path d="M244.575 353.862H242.767C242.767 350.592 242.122 347.354 240.871 344.332C239.619 341.311 237.785 338.566 235.472 336.254C233.159 333.942 230.414 332.108 227.393 330.857C224.371 329.605 221.133 328.962 217.863 328.962C215.633 328.955 213.413 329.252 211.263 329.842C211.298 329.46 211.324 329.072 211.342 328.685C211.359 328.298 211.368 327.911 211.368 327.515C211.367 321.219 208.981 315.157 204.691 310.549C200.4 305.942 194.524 303.13 188.244 302.68C181.964 302.23 175.747 304.175 170.844 308.124C165.94 312.073 162.714 317.733 161.815 323.964C161.428 323.929 161.032 323.898 160.636 323.88C160.24 323.863 159.844 323.85 159.444 323.85C152.839 323.851 146.505 326.475 141.835 331.145C137.165 335.815 134.541 342.149 134.54 348.754C134.541 349.621 134.586 350.487 134.676 351.35C134.763 352.195 134.894 353.035 135.068 353.866C131.194 354.006 127.525 355.643 124.835 358.433C122.144 361.224 120.642 364.95 120.645 368.826C120.645 372.794 122.221 376.599 125.026 379.405C127.832 382.21 131.637 383.786 135.605 383.786H244.575C248.543 383.786 252.348 382.21 255.153 379.405C257.959 376.599 259.535 372.794 259.535 368.826C259.535 364.859 257.959 361.054 255.153 358.248C252.348 355.443 248.543 353.866 244.575 353.866V353.862Z" fill="#EAF0FA" stroke="black" stroke-miterlimit="10" stroke-linecap="round"/>
<path d="M462.947 500.078H323.428H183.908V461.182V422.282H323.428H462.947V461.182V500.078Z" fill="#EAF0FA" stroke="black" stroke-miterlimit="10" stroke-linecap="round"/>
<path d="M438.505 170.184C438.483 169.172 438.439 168.156 438.351 167.148C438.272 166.145 438.141 165.146 437.96 164.156C437.583 162.111 437.01 160.107 436.248 158.172C435.494 156.233 434.512 154.392 433.322 152.685C431.059 149.267 428.143 146.329 424.742 144.039C421.345 141.743 417.515 140.162 413.487 139.393C412.569 139.22 411.642 139.089 410.706 139.001C409.771 138.913 408.835 138.871 407.899 138.874C403.857 138.876 399.856 139.688 396.133 141.263C392.41 142.838 389.041 145.144 386.225 148.043C380.445 153.963 377.22 161.915 377.244 170.188C377.244 171.109 377.282 172.019 377.359 172.916C377.438 173.796 377.548 174.703 377.697 175.556H375.937C372.418 175.555 369.041 176.949 366.548 179.433C365.311 180.65 364.335 182.108 363.681 183.715C363.026 185.323 362.707 187.047 362.742 188.783C362.812 192.174 364.208 195.402 366.63 197.776C369.052 200.149 372.308 201.48 375.7 201.481H418.925C423.322 201.439 427.574 199.91 430.99 197.143C434.455 194.429 436.838 190.567 437.709 186.253C438.049 184.419 438.275 182.566 438.387 180.704C438.505 178.848 438.536 176.978 438.523 175.116V172.652C438.532 171.847 438.523 171.016 438.505 170.184Z" fill="#EAF0FA" stroke="black" stroke-miterlimit="10" stroke-linecap="round"/>
<path d="M518.704 346.593C518.669 345.115 518.603 343.636 518.48 342.193C518.357 340.75 518.176 339.272 517.912 337.837C517.361 334.862 516.525 331.946 515.418 329.13C514.318 326.309 512.888 323.628 511.158 321.144C507.866 316.155 503.621 311.865 498.667 308.52C493.723 305.179 488.151 302.878 482.29 301.757C480.947 301.505 479.596 301.317 478.238 301.194C476.882 301.066 475.518 301.005 474.154 301.005C468.27 301.007 462.445 302.19 457.025 304.483C451.606 306.776 446.701 310.132 442.602 314.354C434.189 322.969 429.497 334.543 429.534 346.584C429.534 347.922 429.591 349.242 429.706 350.544C429.82 351.847 429.984 353.139 430.198 354.421H427.646C422.524 354.419 417.61 356.448 413.98 360.062C412.179 361.838 410.758 363.963 409.806 366.307C408.854 368.65 408.389 371.164 408.44 373.693C408.542 378.629 410.574 383.328 414.1 386.783C417.626 390.238 422.366 392.173 427.303 392.173H490.223C496.622 392.111 502.811 389.886 507.784 385.859C512.716 381.899 516.355 376.368 517.565 370.019C518.059 367.352 518.386 364.657 518.546 361.949C518.718 359.239 518.762 356.52 518.748 353.814C518.748 352.626 518.748 351.424 518.748 350.223C518.748 349.022 518.731 347.803 518.704 346.593Z" fill="#EAF0FA" stroke="black" stroke-miterlimit="10" stroke-linecap="round"/>
<path d="M183.908 559.126H175.649H167.391V451.744V344.367H175.649H183.908V451.744V559.126Z" fill="#F6991A" stroke="black" stroke-miterlimit="10" stroke-linecap="round"/>
<path d="M185.118 334.92C185.117 337.109 184.357 339.231 182.967 340.923C181.578 342.615 179.644 343.772 177.497 344.199C175.349 344.625 173.12 344.294 171.19 343.261C169.259 342.228 167.746 340.558 166.909 338.535C166.072 336.512 165.962 334.261 166.597 332.166C167.233 330.071 168.576 328.262 170.397 327.045C172.217 325.829 174.403 325.282 176.582 325.497C178.761 325.711 180.798 326.675 182.346 328.223C183.227 329.102 183.925 330.146 184.401 331.295C184.876 332.444 185.12 333.676 185.118 334.92Z" fill="#F6991A" stroke="black" stroke-miterlimit="10" stroke-linecap="round"/>
<path d="M479.465 559.126H471.206H462.947V451.744V344.367H471.206H479.465V451.744V559.126Z" fill="#F6991A" stroke="black" stroke-miterlimit="10" stroke-linecap="round"/>
<path d="M480.675 334.92C480.674 337.109 479.914 339.231 478.524 340.923C477.134 342.615 475.201 343.772 473.054 344.199C470.906 344.625 468.677 344.294 466.746 343.261C464.816 342.228 463.303 340.558 462.466 338.535C461.628 336.512 461.518 334.261 462.154 332.166C462.79 330.071 464.133 328.262 465.953 327.045C467.774 325.829 469.96 325.282 472.139 325.497C474.318 325.711 476.355 326.675 477.903 328.223C478.783 329.102 479.482 330.146 479.957 331.295C480.433 332.444 480.677 333.676 480.675 334.92Z" fill="#F6991A" stroke="black" stroke-miterlimit="10" stroke-linecap="round"/>
<path d="M316.59 424.931C317.473 410.668 319.432 396.492 322.45 382.524C324.936 371.004 328.128 359.648 332.007 348.52C326.987 348.041 321.94 347.579 316.915 347.425C311.909 347.223 306.895 347.471 301.933 348.168C299.242 348.509 296.638 349.354 294.26 350.659C291.906 352.02 289.947 353.97 288.575 356.317C287.236 358.642 286.182 361.119 285.438 363.696C284.632 366.296 284.012 368.976 283.378 371.475C282.701 374.155 282.098 376.852 281.539 379.558C280.98 382.264 280.461 384.983 279.955 387.698C278.691 394.445 277.688 401.227 276.946 408.044C276.204 414.861 275.7 421.698 275.436 428.556C275.093 437.503 275.15 446.45 275.608 455.396C276.066 464.343 276.902 473.253 278.116 482.126C279.031 488.814 280.161 495.472 281.504 502.098C282.848 508.724 284.386 515.299 286.12 521.823C286.853 524.542 288.408 526.969 290.572 528.771C292.723 530.587 295.394 531.676 298.202 531.882C303.539 532.251 308.898 532.374 314.271 532.374C319.643 532.374 325.024 532.238 330.401 532.102C325.462 516.999 321.767 501.518 319.353 485.814C316.253 465.677 315.327 445.265 316.59 424.931Z" fill="#EAF0FA" stroke="black" stroke-miterlimit="10" stroke-linecap="round"/>
<path d="M463 465.93H462.969H462.938V466.04L462.969 465.987L463 465.93Z" fill="#84A1E5" stroke="#070707" stroke-miterlimit="10" stroke-linecap="round"/>
<path d="M403.16 477.014L422.146 489.334L441.132 501.654L452.035 483.82L462.952 466.04V465.895L444.472 453.887L425.992 441.884L414.6 459.44L403.16 477.014Z" fill="#F2B3C1" stroke="black" stroke-miterlimit="10" stroke-linecap="round"/>
<path d="M389.37 418.08L377.93 435.627L366.49 453.17L384.851 465.103L403.16 477.014L414.6 459.44L426.04 441.88L407.692 429.96L389.37 418.08Z" fill="#FC762B" stroke="#070707" stroke-miterlimit="10" stroke-linecap="round"/>
<path d="M426.014 441.88L444.494 453.883L462.974 465.89V413.918L456.259 409.812L449.545 405.712L437.867 423.677L426.014 441.88Z" fill="#FC762B" stroke="#070707" stroke-miterlimit="10" stroke-linecap="round"/>
<path d="M462.952 413.918V392.798C462.902 392.252 462.731 391.724 462.45 391.253C462.177 390.725 461.847 390.215 461.632 389.836C461.5 389.599 461.355 389.361 461.192 389.124C461.029 388.886 460.897 388.657 460.752 388.428L455.164 397.026L449.51 405.72L456.224 409.821L462.952 413.918Z" fill="#F2B3C1" stroke="black" stroke-miterlimit="10" stroke-linecap="round"/>
<path d="M412.294 382.95L393.102 371.216L373.909 359.485L362.856 376.562L351.808 393.638L370.6 405.848L389.37 418.08L400.832 400.528L412.294 382.95Z" fill="#FC762B" stroke="#070707" stroke-miterlimit="10" stroke-linecap="round"/>
<path d="M342.383 490.016L360.779 501.975L379.176 513.93L391.104 495.582L403.16 477.014L384.803 465.081L366.455 453.148C362.445 459.308 358.434 465.453 354.421 471.584L342.383 490.016Z" fill="#F2B3C1" stroke="black" stroke-miterlimit="10" stroke-linecap="round"/>
<path d="M351.807 393.638L340.42 411.238L329.037 428.838L347.746 441L366.455 453.161L377.895 435.618L389.335 418.071L370.6 405.848L351.807 393.638Z" fill="#F2B3C1" stroke="black" stroke-miterlimit="10" stroke-linecap="round"/>
<path d="M426.013 441.88L437.845 423.677L449.523 405.712L430.911 394.32L412.294 382.942L400.854 400.498L389.37 418.08L407.692 429.96L426.013 441.88Z" fill="#F2B3C1" stroke="black" stroke-miterlimit="10" stroke-linecap="round"/>
<path d="M449.522 405.712L455.176 397.017L460.764 388.42C460.018 387.291 459.198 386.214 458.309 385.194C457.429 384.174 456.479 383.201 455.506 382.273C451.089 378.163 446.124 374.685 440.753 371.937C435.383 369.192 429.839 366.802 424.156 364.783C422.179 367.81 420.202 370.839 418.225 373.869L412.294 382.95L430.91 394.32L449.522 405.712Z" fill="#FC762B" stroke="#070707" stroke-miterlimit="10" stroke-linecap="round"/>
<path d="M316.871 420.918C316.818 421.582 316.77 422.238 316.722 422.916C316.673 423.593 316.629 424.236 316.59 424.931C316.334 429.037 316.17 433.081 316.097 437.062C316.024 441.042 316.031 444.952 316.119 448.792C318.269 445.466 320.422 442.138 322.578 438.808C324.734 435.479 326.887 432.151 329.037 428.825L322.952 424.865L316.871 420.918Z" fill="#F2B3C1" stroke="black" stroke-miterlimit="10" stroke-linecap="round"/>
<path d="M342.383 490.016L333.987 502.877C331.189 507.168 328.389 511.463 325.588 515.76C326.365 518.693 327.159 521.533 327.968 524.278C328.778 527.024 329.592 529.639 330.41 532.124C333.446 532.044 336.478 531.965 339.505 531.904C342.532 531.842 345.555 531.798 348.573 531.794H367.581L373.345 522.923L379.175 513.956L360.779 502.001L342.383 490.016Z" fill="#FC762B" stroke="#070707" stroke-miterlimit="10" stroke-linecap="round"/>
<path d="M367.582 531.767H387.087H406.597L392.886 522.844L379.176 513.93L373.346 522.897L367.582 531.767Z" fill="#F2B3C1" stroke="black" stroke-miterlimit="10" stroke-linecap="round"/>
<path d="M403.16 477.014L391.091 495.582L379.162 513.93L392.872 522.844L406.583 531.754H422.762L431.949 516.728L441.145 501.68L422.159 489.36L403.16 477.014Z" fill="#FC762B" stroke="#070707" stroke-miterlimit="10" stroke-linecap="round"/>
<path d="M441.146 501.68L452.049 508.768L462.952 515.852V466.04L452.049 483.869L441.146 501.68Z" fill="#FC762B" stroke="#070707" stroke-miterlimit="10" stroke-linecap="round"/>
<path d="M422.775 531.75H462.952V515.87L452.049 508.786L441.145 501.68L431.963 516.706L422.775 531.75Z" fill="#F2B3C1" stroke="black" stroke-miterlimit="10" stroke-linecap="round"/>
<path d="M366.455 453.148L347.746 440.986L329.038 428.825C326.884 432.157 324.731 435.485 322.578 438.808C320.425 442.132 318.272 445.46 316.119 448.792C316.216 453.192 316.41 457.498 316.7 461.71C316.99 465.923 317.36 470.029 317.809 474.03C321.915 476.697 326.01 479.36 330.094 482.021L342.383 490.007L354.421 471.575C358.434 465.436 362.445 459.293 366.455 453.148Z" fill="#FC762B" stroke="#070707" stroke-miterlimit="10" stroke-linecap="round"/>
<path d="M378.08 353.013C374.991 352.523 371.897 352.083 368.796 351.693C365.696 351.303 362.597 350.964 359.499 350.676L366.697 355.076L373.896 359.476L375.99 356.238L378.08 353.013Z" fill="#FC762B" stroke="#070707" stroke-miterlimit="10" stroke-linecap="round"/>
<path d="M373.909 359.485L366.711 355.085L359.512 350.685C357.273 350.47 355.038 350.285 352.802 350.118C350.567 349.95 348.336 349.81 346.11 349.678C343.782 349.554 341.437 349.374 339.07 349.172C336.703 348.969 334.358 348.732 331.99 348.507C330.596 352.511 329.21 356.779 327.868 361.294C326.526 365.808 325.228 370.573 324.018 375.576L337.904 384.6L351.79 393.625L362.839 376.548L373.909 359.485Z" fill="#F2B3C1" stroke="black" stroke-miterlimit="10" stroke-linecap="round"/>
<path d="M317.8 474.039C318.68 481.81 319.811 489.197 321.135 496.158C322.459 503.119 323.977 509.657 325.579 515.738C328.377 511.452 331.177 507.165 333.979 502.877L342.374 490.016L330.085 482.03C326.001 479.366 321.906 476.703 317.8 474.039Z" fill="#F2B3C1" stroke="black" stroke-miterlimit="10" stroke-linecap="round"/>
<path d="M249.006 360.554C251.657 356.532 255.505 353.445 260.006 351.728C266.408 349.312 275.732 349.136 288.571 356.317C288.571 356.317 285.786 361.36 282.728 373.816C279.67 386.272 276.339 406.134 275.248 435.781L257.802 431.768L240.36 427.76C238.553 427.346 236.794 426.746 235.111 425.969C233.43 425.194 231.845 424.226 230.39 423.083C228.12 421.314 226.203 419.133 224.74 416.654C223.337 414.274 222.471 411.616 222.201 408.866C222.059 407.392 222.099 405.905 222.32 404.44C222.645 402.339 223.306 400.303 224.278 398.412C224.667 397.656 225.096 396.922 225.563 396.212L236.171 380.104L246.775 363.995C247.148 363.429 247.519 362.859 247.888 362.284L249.006 360.554Z" fill="#F6991A" stroke="black" stroke-miterlimit="10" stroke-linecap="round"/>
<path d="M412.295 382.95L418.226 373.869C420.203 370.836 422.18 367.807 424.157 364.783L423.559 364.563L422.965 364.343C415.72 361.722 408.345 359.478 400.868 357.62C393.388 355.745 385.754 354.223 378.094 353.013L376.004 356.247L373.909 359.485L393.102 371.216L412.295 382.95Z" fill="#F2B3C1" stroke="black" stroke-miterlimit="10" stroke-linecap="round"/>
<path d="M351.808 393.638L337.922 384.614L324.035 375.589C322.407 382.317 320.933 389.48 319.71 397.044C318.487 404.607 317.51 412.576 316.872 420.918L322.953 424.878L329.038 428.838L340.421 411.238L351.808 393.638Z" fill="#FC762B" stroke="#070707" stroke-miterlimit="10" stroke-linecap="round"/>
<path d="M194.754 434.875C193.372 434.875 192.004 434.604 190.727 434.075C189.45 433.547 188.29 432.772 187.313 431.795C186.336 430.818 185.562 429.658 185.033 428.381C184.505 427.104 184.233 425.736 184.233 424.354V374.375C184.233 371.584 185.342 368.908 187.314 366.934C189.287 364.961 191.963 363.851 194.754 363.85C197.545 363.851 200.221 364.96 202.195 366.934C204.168 368.907 205.277 371.584 205.279 374.375V424.354C205.277 427.145 204.168 429.821 202.194 431.794C200.221 433.767 197.544 434.875 194.754 434.875Z" fill="#84A1E5" stroke="#070707" stroke-miterlimit="10" stroke-linecap="round"/>
<path d="M244.117 431.584C242.911 432.69 241.499 433.547 239.962 434.107C238.424 434.666 236.791 434.917 235.157 434.845C233.522 434.774 231.918 434.38 230.435 433.687C228.953 432.995 227.621 432.017 226.517 430.809L210.932 413.799L195.352 396.788C194.246 395.583 193.388 394.171 192.828 392.634C192.268 391.096 192.017 389.463 192.088 387.829C192.16 386.194 192.553 384.59 193.245 383.107C193.937 381.624 194.915 380.293 196.122 379.188C198.556 376.962 201.775 375.792 205.071 375.938C208.367 376.083 211.471 377.531 213.7 379.963L229.285 396.973L244.865 413.984C245.971 415.189 246.829 416.601 247.389 418.139C247.949 419.676 248.201 421.309 248.129 422.943C248.058 424.578 247.665 426.182 246.972 427.665C246.28 429.148 245.303 430.479 244.095 431.584H244.117Z" fill="#DBCAF4" stroke="black" stroke-miterlimit="10" stroke-linecap="round"/>
<path d="M250.806 374.7C250.59 374.322 250.366 373.939 250.093 373.548C249.82 373.156 249.561 372.756 249.261 372.355C248.407 371.21 247.455 370.141 246.415 369.161C245.55 368.345 244.63 367.591 243.66 366.904C243.965 366.48 244.323 366.097 244.725 365.764C245.242 365.331 245.862 365.038 246.525 364.915C248.003 364.664 249.605 365.39 250.832 366.587C252.06 367.784 252.865 369.464 252.742 371.114C252.668 371.94 252.385 372.734 251.919 373.42C251.603 373.892 251.229 374.322 250.806 374.7Z" fill="#D87D61" stroke="black" stroke-miterlimit="10" stroke-linecap="round"/>
<path d="M245.394 368.246C249.471 371.761 252.168 376.608 253.006 381.925C253.701 386.844 252.504 391.728 249.248 395.416C245.992 399.103 241.289 400.92 236.325 400.819C230.958 400.585 225.832 398.518 221.805 394.962C217.777 391.406 215.09 386.576 214.193 381.278C213.498 376.364 214.695 371.475 217.951 367.788C221.207 364.101 225.911 362.306 230.874 362.389C236.255 362.558 241.401 364.634 245.394 368.246Z" fill="#D87D61" stroke="black" stroke-miterlimit="10" stroke-linecap="round"/>
<path d="M252.421 423.901C252.526 423.562 252.575 423.021 251.91 421.956C251.246 420.892 249.877 419.378 247.149 417.086C245.829 415.981 244.575 415.018 243.594 414.292C242.613 413.566 241.909 413.082 241.698 412.936C240.593 412.184 239.304 411.427 238.147 410.543C236.975 409.728 236.018 408.641 235.357 407.375C235.055 406.753 234.929 406.061 234.992 405.373C235.055 404.689 235.368 404.053 235.872 403.586C235.521 403.444 235.204 403.23 234.94 402.958C234.677 402.686 234.473 402.362 234.341 402.007C234.211 401.676 234.152 401.32 234.17 400.965C234.188 400.61 234.281 400.262 234.443 399.945C234.605 399.628 234.833 399.35 235.111 399.128C235.39 398.906 235.712 398.746 236.057 398.658C236.406 398.562 236.771 398.536 237.13 398.583C237.489 398.63 237.834 398.748 238.147 398.931C237.962 398.821 238.046 398.416 238.2 398.012C238.317 397.7 238.472 397.405 238.662 397.132C238.93 396.878 239.248 396.683 239.596 396.559C239.944 396.435 240.313 396.384 240.681 396.41C241.422 396.44 242.159 396.54 242.881 396.709C243.807 396.894 244.712 397.175 245.579 397.55C246.449 397.924 247.289 398.366 248.091 398.87L248.478 399.098C248.685 399.217 248.962 399.362 249.292 399.538L249.358 399.569H249.402C249.288 399.512 249.543 399.164 249.842 398.821C250.061 398.559 250.306 398.321 250.573 398.108C250.987 397.925 251.444 397.861 251.893 397.924C252.346 397.981 252.79 398.098 253.213 398.271C254.272 398.709 255.283 399.255 256.231 399.899C257.186 400.537 258.105 401.219 259.021 401.91C261.661 403.872 264.261 406.226 267.099 407.995C269.937 409.764 273.021 410.961 276.634 410.6C276.458 412.774 276.317 414.745 276.194 416.47C276.071 418.194 275.987 419.677 275.917 420.87C275.688 424.799 275.503 428.842 275.375 431.9C275.248 434.958 275.177 437.044 275.177 437.044C275.177 437.044 273.259 436.925 271.033 436.776C268.806 436.626 266.267 436.459 265.031 436.336C259.995 435.817 255.058 434.582 250.37 432.67C245.354 430.611 240.849 427.742 238.789 424.139C238.477 423.585 238.318 422.958 238.327 422.322C238.321 422.006 238.38 421.692 238.501 421.401C238.623 421.109 238.803 420.846 239.031 420.628C240.131 419.633 241.865 420.135 243.541 421.024C244.975 421.859 246.359 422.777 247.686 423.774C248.307 424.208 248.976 424.568 249.679 424.847C250.436 425.12 251.211 425.186 251.791 424.715C251.967 424.583 252.118 424.422 252.24 424.24C252.313 424.135 252.374 424.021 252.421 423.901Z" fill="#D87D61" stroke="black" stroke-miterlimit="10" stroke-linecap="round"/>
<path d="M237.927 398.804C239.154 399.512 240.404 400.247 241.671 401.004C242.938 401.76 244.228 402.583 245.526 403.428C247.23 404.531 248.865 405.637 250.432 406.746C252.002 407.85 253.512 408.946 254.946 410.037" stroke="black" stroke-miterlimit="10" stroke-linecap="round"/>
<path d="M235.89 403.586C236.99 404.106 238.129 404.673 239.304 405.307C240.479 405.94 241.689 406.627 242.916 407.375C244.707 408.47 246.357 409.575 247.871 410.692C249.384 411.81 250.775 412.892 252.029 413.966" stroke="black" stroke-miterlimit="10" stroke-linecap="round"/>
<path d="M248.416 399.002C249.054 399.371 249.736 399.776 250.4 400.216C251.065 400.656 251.778 401.144 252.486 401.668C253.577 402.478 254.567 403.292 255.469 404.097C256.371 404.902 257.172 405.685 257.894 406.442" stroke="black" stroke-miterlimit="10" stroke-linecap="round"/>
<path d="M235.304 377.38C235.499 377.55 235.629 377.783 235.672 378.038C235.715 378.293 235.668 378.555 235.539 378.78C235.41 379.004 235.207 379.177 234.965 379.268C234.723 379.36 234.456 379.364 234.211 379.281C233.966 379.198 233.757 379.033 233.621 378.813C233.484 378.593 233.428 378.333 233.462 378.076C233.496 377.819 233.618 377.583 233.807 377.406C233.996 377.229 234.241 377.124 234.499 377.107C234.793 377.089 235.082 377.187 235.304 377.38Z" fill="#040400"/>
<path d="M226.72 387.636C226.91 387.806 227.036 388.037 227.076 388.289C227.116 388.541 227.067 388.799 226.938 389.019C226.81 389.239 226.608 389.408 226.369 389.497C226.13 389.586 225.867 389.589 225.626 389.506C225.384 389.423 225.179 389.258 225.045 389.041C224.911 388.824 224.857 388.567 224.891 388.314C224.925 388.061 225.045 387.828 225.232 387.654C225.419 387.48 225.66 387.376 225.914 387.359C226.06 387.35 226.206 387.37 226.345 387.417C226.483 387.465 226.61 387.539 226.72 387.636Z" fill="#040400"/>
<path d="M232.664 387.742L231.261 387.892L229.857 388.037C229.839 388.039 229.821 388.037 229.804 388.029C229.788 388.021 229.774 388.008 229.765 387.993C229.755 387.978 229.75 387.96 229.75 387.942C229.75 387.924 229.755 387.907 229.765 387.892L230.376 386.73L230.984 385.568L228.524 383.395L226.064 381.226" stroke="black" stroke-miterlimit="10" stroke-linecap="round"/>
<path d="M227.6 375.682L230.6 374.067L233.597 372.452" stroke="black" stroke-miterlimit="10" stroke-linecap="round"/>
<path d="M219.75 388.433L221.132 385.322L222.518 382.207" stroke="black" stroke-miterlimit="10" stroke-linecap="round"/>
<path d="M236.945 390.752L239.005 388.037L241.064 385.322" stroke="black" stroke-miterlimit="10" stroke-linecap="round"/>
<path d="M242.688 376.782C243.195 377.229 243.532 377.84 243.64 378.508C243.749 379.176 243.622 379.861 243.282 380.447C242.941 381.032 242.409 381.481 241.774 381.718C241.14 381.954 240.443 381.963 239.803 381.744C239.162 381.524 238.618 381.089 238.262 380.513C237.907 379.937 237.762 379.255 237.853 378.584C237.943 377.913 238.264 377.295 238.759 376.833C239.255 376.372 239.896 376.097 240.571 376.056C240.954 376.031 241.339 376.083 241.702 376.207C242.065 376.332 242.4 376.527 242.688 376.782Z" fill="#FF6406" stroke="#070707" stroke-miterlimit="10" stroke-linecap="round"/>
<path d="M231.472 391.772C231.978 392.22 232.314 392.829 232.422 393.496C232.53 394.163 232.403 394.847 232.063 395.432C231.723 396.016 231.191 396.464 230.558 396.7C229.925 396.936 229.229 396.945 228.59 396.726C227.951 396.507 227.407 396.072 227.052 395.497C226.697 394.922 226.552 394.242 226.642 393.572C226.733 392.902 227.052 392.285 227.547 391.824C228.042 391.363 228.681 391.089 229.355 391.046C229.739 391.022 230.123 391.074 230.486 391.199C230.849 391.323 231.184 391.518 231.472 391.772Z" fill="#FF6406" stroke="#070707" stroke-miterlimit="10" stroke-linecap="round"/>
<path d="M202.67 380.104C202.673 381.409 202.988 382.694 203.589 383.852C203.875 384.392 204.273 384.864 204.755 385.238C206.339 386.448 208.561 386.303 210.739 385.542C212.844 384.774 214.793 383.63 216.49 382.167C217.814 381.006 218.919 379.617 219.755 378.066C220.338 376.999 220.8 375.87 221.132 374.7C221.809 375.149 222.609 375.375 223.42 375.347C224.634 375.242 225.998 374.278 226.579 370.85C227.269 371.146 228.043 371.182 228.757 370.952C229.901 370.56 231.164 369.284 231.63 365.742C232.821 366.631 234.142 367.332 235.546 367.819C237.856 368.606 240.862 368.897 243.66 366.904C244.233 366.108 245.025 365.496 245.939 365.144C247.382 364.633 249.428 364.871 251.844 367.845C251.499 366.805 251.091 365.786 250.621 364.796C250.078 363.651 249.452 362.548 248.746 361.496C246.581 358.292 243.753 355.591 240.452 353.576C238.259 352.222 235.908 351.14 233.452 350.355C231.775 349.999 230.063 349.833 228.348 349.862C224.936 349.912 221.588 350.799 218.6 352.446C215.611 354.094 213.074 356.45 211.21 359.309C209.948 361.152 208.948 363.162 208.24 365.28C207.781 366.404 207.26 367.501 206.678 368.567C205.714 370.327 204.394 372.294 202.956 373.182C202.129 373.614 201.453 374.288 201.02 375.114C200.616 375.87 200.488 376.743 200.659 377.582C200.819 378.272 201.178 378.9 201.693 379.386C201.984 379.669 202.313 379.911 202.67 380.104Z" fill="#040400" stroke="#040400" stroke-miterlimit="10"/>
<path d="M270.918 384.719L275.151 387.654L279.388 390.593" stroke="black" stroke-miterlimit="10" stroke-linecap="round"/>
<path d="M504.334 207.223H502.517C503.311 202.868 502.862 198.377 501.223 194.265C499.614 190.208 496.863 186.705 493.303 184.18C489.045 181.223 483.888 179.843 478.722 180.278C476.13 180.439 473.579 180.992 471.154 181.919C471.189 181.532 471.215 181.144 471.233 180.757C471.233 180.366 471.264 179.974 471.264 179.578C471.284 176.355 470.626 173.163 469.333 170.211C468.039 167.258 466.14 164.611 463.757 162.44C458.851 158.031 452.471 155.621 445.876 155.686C439.852 155.685 434.03 157.855 429.476 161.799C424.923 165.743 421.944 171.196 421.086 177.158C420.694 177.118 420.298 177.092 419.898 177.074C419.498 177.057 419.102 177.044 418.701 177.044C412.058 177.044 405.688 179.682 400.99 184.379C396.293 189.075 393.653 195.446 393.652 202.088C393.653 202.96 393.698 203.831 393.788 204.698C393.875 205.549 394.007 206.395 394.184 207.232C390.241 207.367 386.508 209.046 383.792 211.908C381.075 214.769 379.592 218.584 379.662 222.529C379.731 226.474 381.349 230.233 384.165 232.997C386.981 235.76 390.771 237.306 394.717 237.302H504.334C506.331 237.336 508.315 236.972 510.169 236.231C512.024 235.491 513.713 234.388 515.137 232.988C516.562 231.588 517.693 229.918 518.465 228.076C519.237 226.235 519.635 224.257 519.635 222.26C519.635 220.263 519.237 218.286 518.465 216.444C517.693 214.602 516.562 212.932 515.137 211.532C513.713 210.132 512.024 209.03 510.169 208.289C508.315 207.548 506.331 207.185 504.334 207.219V207.223Z" fill="#EAF0FA" stroke="black" stroke-miterlimit="10" stroke-linecap="round"/>
<path d="M260.925 262.879C262.452 261.139 263.292 258.902 263.288 256.587C263.288 254.746 262.758 252.945 261.76 251.398C260.762 249.851 259.339 248.625 257.662 247.867C255.985 247.109 254.124 246.851 252.304 247.124C250.484 247.397 248.781 248.189 247.4 249.406C246.228 247.865 244.708 246.623 242.964 245.78C241.097 244.876 239.047 244.409 236.972 244.416C233.839 244.391 230.798 245.471 228.383 247.466C227.26 248.383 226.332 249.515 225.652 250.796C224.972 252.076 224.554 253.48 224.423 254.924C222.906 254.054 221.186 253.599 219.438 253.604C217.632 253.601 215.86 254.086 214.307 255.008C212.755 255.929 211.48 257.252 210.617 258.838C209.754 260.424 209.335 262.213 209.405 264.017C209.474 265.821 210.029 267.573 211.012 269.087C208.737 269.672 206.754 271.066 205.434 273.009C204.115 274.952 203.549 277.309 203.844 279.639C204.139 281.969 205.274 284.111 207.035 285.664C208.797 287.217 211.065 288.074 213.414 288.073C213.745 288.073 214.075 288.056 214.404 288.02C214.73 287.99 215.051 287.937 215.368 287.875C215.894 289.693 216.924 291.325 218.339 292.583C219.753 293.84 221.495 294.672 223.362 294.981C225.229 295.291 227.146 295.066 228.891 294.333C230.636 293.599 232.138 292.387 233.223 290.836C234.802 292.797 237.04 294.118 239.519 294.554C242.341 295.058 245.247 294.76 247.908 293.696C250.569 292.633 252.879 290.845 254.576 288.535C256.072 286.508 256.779 284.006 256.565 281.495C256.833 281.544 257.102 281.579 257.379 281.605C257.656 281.632 257.933 281.64 258.215 281.64C260.515 281.642 262.739 280.814 264.479 279.309C266.218 277.804 267.358 275.723 267.687 273.446C268.017 271.17 267.516 268.851 266.274 266.914C265.033 264.977 263.136 263.552 260.93 262.901L260.925 262.879Z" fill="#EAF0FA" stroke="black" stroke-miterlimit="10" stroke-linecap="round"/>
<path d="M221.119 279.735C220.995 279.303 220.817 278.889 220.586 278.503C220.269 277.961 219.868 277.472 219.398 277.056C218.985 276.687 218.521 276.378 218.021 276.14C217.674 275.977 217.314 275.846 216.943 275.749C217.213 275.495 217.437 275.197 217.607 274.869C217.792 274.5 217.918 274.106 217.981 273.698C218.112 272.936 217.994 272.152 217.643 271.463C217.51 271.165 217.305 270.905 217.046 270.707C216.787 270.509 216.482 270.379 216.16 270.329C215.838 270.28 215.508 270.311 215.202 270.422C214.895 270.532 214.621 270.718 214.404 270.962C213.861 271.51 213.511 272.221 213.405 272.986C213.332 273.438 213.341 273.9 213.432 274.35C213.513 274.751 213.673 275.133 213.903 275.472C213.018 275.549 212.15 275.755 211.324 276.083C209.619 276.745 208.166 277.927 207.171 279.462C206.267 280.829 205.928 282.493 206.225 284.104C204.907 284.942 203.868 286.154 203.241 287.585C202.983 288.137 202.842 288.737 202.827 289.347C202.813 289.957 202.926 290.563 203.158 291.127C203.678 292.087 204.555 292.803 205.6 293.12C206.166 293.331 206.758 293.467 207.36 293.525C208.652 293.591 209.927 293.203 210.963 292.429C212.476 291.319 213.901 290.092 215.223 288.76C216.848 287.314 218.359 285.744 219.741 284.065C220.872 282.56 221.488 281.121 221.119 279.735Z" fill="#040400" stroke="#040400" stroke-miterlimit="10"/>
<path d="M326.037 266.24C326.183 267.464 326.467 268.667 326.886 269.826C327.184 270.647 327.552 271.441 327.986 272.198C328.588 273.23 329.316 274.182 330.156 275.032C331.214 276.133 332.52 276.964 333.966 277.456C334.551 277.641 335.178 277.653 335.77 277.491C336.334 277.339 336.836 277.012 337.204 276.558C337.535 276.135 337.734 275.624 337.776 275.089C337.819 274.553 337.723 274.015 337.499 273.527C337.244 273.011 336.875 272.56 336.421 272.207C335.981 271.837 335.502 271.503 335.101 271.098C333.35 269.318 332.27 266.985 332.048 264.498L331.973 263.671L331.902 262.839L328.968 264.529L326.037 266.24Z" fill="#040400" stroke="#040400" stroke-miterlimit="10"/>
<path d="M301.261 259.297C300.657 260.014 300.119 260.784 299.655 261.598C298.209 264.139 297.513 267.038 297.648 269.958C297.693 270.997 297.84 272.029 298.088 273.038C298.303 274.23 298.95 275.3 299.906 276.044C300.231 276.323 300.618 276.521 301.035 276.621C301.452 276.722 301.887 276.721 302.304 276.62C302.608 276.499 302.883 276.314 303.111 276.078C303.339 275.842 303.513 275.56 303.624 275.252C303.867 274.632 303.969 273.966 303.923 273.302C303.898 272.985 303.836 272.672 303.738 272.37C303.646 272.07 303.536 271.776 303.448 271.468C303.334 271.073 303.245 270.672 303.184 270.266C303.127 269.86 303.099 269.449 303.1 269.039C303.129 267.237 303.705 265.486 304.75 264.018C305.327 263.182 306.013 262.427 306.792 261.774L304.046 260.56L301.261 259.297Z" fill="#040400" stroke="#040400" stroke-miterlimit="10"/>
<path d="M344.288 249.718C345.997 249.044 347.476 247.892 348.548 246.4C349.62 244.908 350.239 243.138 350.332 241.303C350.425 239.468 349.987 237.645 349.071 236.052C348.155 234.459 346.8 233.164 345.168 232.321C343.11 231.249 340.732 230.964 338.48 231.52C338.149 229.606 337.371 227.797 336.209 226.24C334.966 224.58 333.36 223.226 331.515 222.28C328.746 220.814 325.548 220.372 322.486 221.035C321.068 221.333 319.724 221.911 318.532 222.734C317.34 223.558 316.324 224.611 315.543 225.831C315.078 225.111 314.524 224.453 313.893 223.873C312.755 222.831 311.392 222.066 309.91 221.636C308.429 221.207 306.868 221.125 305.349 221.396C303.831 221.668 302.395 222.286 301.154 223.202C299.913 224.118 298.9 225.309 298.193 226.68C297.303 228.393 296.93 230.329 297.12 232.25C294.746 231.694 292.249 232.058 290.133 233.268C288.016 234.479 286.436 236.446 285.711 238.774C284.987 241.102 285.17 243.618 286.226 245.816C287.281 248.014 289.13 249.73 291.4 250.62C291.702 250.742 292.01 250.846 292.324 250.933C291.951 252.79 292.112 254.715 292.788 256.484C293.464 258.253 294.628 259.795 296.144 260.93C297.661 262.065 299.468 262.747 301.356 262.898C303.244 263.048 305.136 262.66 306.813 261.779C307.312 264.247 308.691 266.451 310.694 267.978C312.967 269.724 315.683 270.797 318.535 271.077C321.387 271.357 324.26 270.832 326.829 269.562C329.094 268.452 330.876 266.552 331.84 264.221C332.056 264.384 332.28 264.542 332.513 264.687C332.747 264.832 332.989 264.978 333.235 265.105C335.278 266.17 337.637 266.461 339.878 265.926C342.119 265.391 344.092 264.066 345.434 262.193C346.777 260.321 347.398 258.027 347.185 255.733C346.972 253.439 345.939 251.299 344.275 249.705L344.288 249.718Z" fill="#EAF0FA" stroke="black" stroke-miterlimit="10" stroke-linecap="round"/>
<path d="M301.19 246.366C301.28 245.924 301.311 245.473 301.283 245.024C301.25 244.397 301.12 243.779 300.896 243.193C300.698 242.676 300.427 242.19 300.09 241.75C299.86 241.444 299.601 241.161 299.316 240.905C299.673 240.8 300.011 240.637 300.315 240.421C300.653 240.176 300.95 239.879 301.195 239.541C301.662 238.924 301.917 238.172 301.921 237.398C301.94 237.073 301.878 236.749 301.739 236.454C301.601 236.16 301.391 235.904 301.128 235.712C300.865 235.52 300.558 235.397 300.236 235.354C299.913 235.311 299.585 235.35 299.281 235.467C298.546 235.696 297.906 236.159 297.459 236.787C297.186 237.155 296.982 237.569 296.856 238.01C296.741 238.402 296.707 238.814 296.755 239.22C296.353 239.055 295.94 238.919 295.519 238.811C295.084 238.704 294.643 238.626 294.199 238.578C292.379 238.379 290.543 238.761 288.954 239.669C287.525 240.467 286.459 241.786 285.98 243.352C284.425 243.492 282.946 244.089 281.729 245.068C281.246 245.439 280.844 245.907 280.551 246.442C280.258 246.977 280.079 247.566 280.026 248.174C280.036 249.264 280.475 250.306 281.25 251.074C281.661 251.526 282.13 251.922 282.644 252.253C283.761 252.904 285.069 253.147 286.345 252.939C288.2 252.648 290.03 252.214 291.818 251.641C293.923 251.104 295.982 250.403 297.978 249.547C299.668 248.764 300.878 247.765 301.19 246.366Z" fill="#040400" stroke="#040400" stroke-miterlimit="10"/>
<path d="M405.259 295.109C405.067 296.326 405.015 297.562 405.105 298.792C405.167 299.661 405.306 300.524 405.519 301.37C405.818 302.527 406.261 303.642 406.839 304.688C407.557 306.035 408.589 307.19 409.848 308.054C410.36 308.393 410.959 308.576 411.573 308.582C412.159 308.586 412.731 308.408 413.21 308.071C413.645 307.756 413.974 307.318 414.156 306.813C414.344 306.31 414.4 305.768 414.319 305.238C414.208 304.676 413.972 304.146 413.628 303.689C413.307 303.214 412.942 302.76 412.669 302.268C411.468 300.078 411.062 297.541 411.52 295.087L411.674 294.268L411.828 293.454L408.546 294.282L405.259 295.109Z" fill="#040400" stroke="#040400" stroke-miterlimit="10"/>
<path d="M383.303 281.68C382.528 282.201 381.8 282.79 381.13 283.44C380.175 284.382 379.347 285.444 378.666 286.599C377.339 288.858 376.605 291.416 376.532 294.035C376.415 295.239 376.747 296.444 377.464 297.419C377.701 297.776 378.019 298.072 378.392 298.283C378.765 298.493 379.183 298.612 379.612 298.629C379.94 298.597 380.258 298.495 380.544 298.33C380.83 298.165 381.078 297.942 381.27 297.674C381.675 297.145 381.957 296.531 382.093 295.879C382.153 295.567 382.177 295.25 382.164 294.933C382.164 294.616 382.133 294.304 382.133 293.982C382.127 293.572 382.152 293.161 382.208 292.755C382.26 292.348 382.344 291.947 382.458 291.554C382.971 289.82 384.001 288.285 385.411 287.154C386.191 286.502 387.057 285.961 387.985 285.548L385.644 283.594L383.303 281.68Z" fill="#040400" stroke="#040400" stroke-miterlimit="10"/>
<path d="M427.312 284.166C429.727 283.923 431.96 282.77 433.558 280.942C435.155 279.114 435.998 276.746 435.914 274.32C435.831 271.893 434.828 269.589 433.109 267.875C431.39 266.161 429.083 265.164 426.656 265.088C426.858 263.161 426.6 261.215 425.904 259.407C425.16 257.467 423.983 255.723 422.463 254.308C420.192 252.146 417.232 250.854 414.103 250.66C412.657 250.561 411.206 250.751 409.834 251.22C408.463 251.69 407.199 252.428 406.117 253.392C405.869 252.572 405.514 251.788 405.061 251.06C404.252 249.751 403.152 248.645 401.847 247.829C400.541 247.013 399.066 246.509 397.534 246.355C396.002 246.201 394.456 246.401 393.014 246.941C391.573 247.481 390.275 248.345 389.221 249.468C387.895 250.874 387.008 252.638 386.669 254.541C384.61 253.416 382.212 253.08 379.923 253.597C377.635 254.113 375.613 255.445 374.236 257.345C372.859 259.244 372.222 261.581 372.444 263.916C372.665 266.252 373.731 268.427 375.44 270.033C375.679 270.26 375.931 270.475 376.193 270.676C376.457 270.874 376.721 271.054 376.998 271.226C376.138 272.912 375.773 274.807 375.944 276.693C376.116 278.578 376.818 280.376 377.968 281.879C379.118 283.383 380.671 284.53 382.445 285.188C384.22 285.847 386.145 285.99 387.998 285.6C387.807 288.11 388.534 290.604 390.044 292.618C391.758 294.915 394.081 296.686 396.75 297.73C399.419 298.775 402.327 299.051 405.145 298.528C407.626 298.071 409.857 296.726 411.419 294.744C411.582 294.964 411.758 295.184 411.938 295.382C412.119 295.58 412.317 295.786 412.523 295.98C414.202 297.55 416.389 298.463 418.685 298.553C420.982 298.642 423.234 297.903 425.03 296.47C426.826 295.036 428.046 293.004 428.467 290.745C428.889 288.486 428.483 286.151 427.325 284.166H427.312Z" fill="#EAF0FA" stroke="black" stroke-miterlimit="10" stroke-linecap="round"/>
<path d="M386.744 269.237C386.947 268.836 387.095 268.41 387.184 267.97C387.324 267.357 387.367 266.726 387.312 266.1C387.232 265.162 386.931 264.257 386.432 263.46C386.805 263.457 387.176 263.39 387.527 263.262C387.914 263.122 388.277 262.921 388.601 262.668C389.218 262.202 389.667 261.549 389.881 260.806C389.99 260.499 390.019 260.168 389.966 259.846C389.914 259.524 389.781 259.221 389.58 258.964C389.38 258.706 389.117 258.504 388.818 258.374C388.518 258.245 388.191 258.193 387.866 258.224C387.093 258.253 386.35 258.532 385.75 259.02C385.387 259.299 385.079 259.642 384.839 260.032C384.614 260.377 384.464 260.765 384.399 261.172C384.056 260.903 383.694 260.659 383.316 260.441C382.926 260.215 382.518 260.02 382.098 259.856C380.402 259.169 378.532 259.037 376.756 259.478C375.164 259.858 373.78 260.838 372.893 262.214C371.358 261.927 369.772 262.1 368.334 262.712C367.768 262.938 367.255 263.28 366.828 263.716C366.4 264.151 366.068 264.671 365.853 265.242C365.565 266.292 365.704 267.413 366.24 268.361C366.514 268.908 366.859 269.417 367.265 269.875C368.161 270.805 369.353 271.393 370.636 271.538C372.501 271.764 374.381 271.844 376.259 271.776C378.432 271.836 380.607 271.724 382.762 271.441C384.628 271.12 386.066 270.495 386.744 269.237Z" fill="#040400" stroke="#040400" stroke-miterlimit="10"/>
<path d="M265.792 197.724C265.792 197.284 264.705 196.914 262.906 196.615C260.529 196.264 258.132 196.068 255.729 196.03C255.693 193.636 255.443 191.25 254.981 188.902C254.585 187.111 254.071 186.02 253.507 186.02C252.944 186.02 252.425 187.111 252.029 188.902C251.568 191.25 251.317 193.636 251.281 196.03C248.879 196.068 246.482 196.264 244.105 196.615C242.305 196.914 241.223 197.301 241.223 197.724C241.223 198.146 242.305 198.533 244.105 198.828C246.482 199.177 248.879 199.368 251.281 199.4C251.317 201.794 251.567 204.179 252.029 206.528C252.425 208.323 252.94 209.41 253.507 209.41C254.075 209.41 254.585 208.323 254.981 206.528C255.443 204.179 255.694 201.794 255.729 199.4C258.132 199.364 260.529 199.168 262.906 198.815C264.705 198.52 265.792 198.146 265.792 197.724Z" fill="url(#paint2_linear_484_2129)" stroke="black" stroke-miterlimit="10" stroke-linecap="round"/>
<path d="M243.278 215.742C241.359 216.151 240.162 216.595 239.34 217.418C238.517 218.241 238.068 219.442 237.659 221.378C237.647 221.436 237.616 221.488 237.57 221.525C237.524 221.562 237.467 221.581 237.408 221.58C237.349 221.582 237.292 221.563 237.247 221.525C237.201 221.488 237.171 221.436 237.162 221.378C236.752 219.464 236.282 218.267 235.481 217.418C234.68 216.569 233.461 216.151 231.521 215.742C231.463 215.729 231.412 215.698 231.375 215.652C231.338 215.606 231.318 215.549 231.318 215.491C231.318 215.458 231.324 215.426 231.335 215.396C231.347 215.366 231.365 215.338 231.387 215.315C231.41 215.292 231.437 215.273 231.466 215.26C231.496 215.247 231.528 215.241 231.56 215.24C233.479 214.831 234.676 214.382 235.52 213.559C236.365 212.736 236.792 211.535 237.201 209.621C237.212 209.564 237.242 209.512 237.287 209.475C237.332 209.438 237.389 209.418 237.448 209.419C237.506 209.418 237.563 209.438 237.609 209.475C237.655 209.512 237.686 209.564 237.698 209.621C238.108 211.535 238.556 212.736 239.379 213.559C240.202 214.382 241.399 214.831 243.317 215.24C243.374 215.25 243.426 215.281 243.462 215.326C243.498 215.372 243.517 215.428 243.515 215.486C243.516 215.551 243.492 215.614 243.448 215.662C243.404 215.71 243.343 215.738 243.278 215.742Z" fill="url(#paint3_linear_484_2129)" stroke="black" stroke-miterlimit="10" stroke-linecap="round"/>
<path d="M454.764 276.572C453.9 276.572 453.064 276.273 452.397 275.726C451.729 275.178 451.272 274.416 451.103 273.57C450.935 272.724 451.064 271.845 451.471 271.083C451.877 270.322 452.535 269.725 453.332 269.394C454.129 269.063 455.017 269.019 455.843 269.269C456.669 269.519 457.383 270.047 457.863 270.765C458.343 271.482 458.56 272.343 458.476 273.203C458.392 274.062 458.013 274.865 457.404 275.476C457.058 275.824 456.647 276.1 456.193 276.289C455.74 276.477 455.254 276.573 454.764 276.572ZM454.764 271.151C454.316 271.153 453.888 271.332 453.571 271.648C453.255 271.965 453.076 272.393 453.074 272.84C453.074 273.288 453.252 273.718 453.569 274.035C453.886 274.352 454.315 274.53 454.764 274.53C455.212 274.53 455.641 274.352 455.958 274.035C456.275 273.718 456.453 273.288 456.453 272.84C456.451 272.393 456.272 271.965 455.956 271.648C455.639 271.332 455.211 271.153 454.764 271.151Z" fill="url(#paint4_linear_484_2129)" stroke="black" stroke-miterlimit="10" stroke-linecap="round"/>
<path d="M272.92 193.614C272.04 193.616 271.187 193.312 270.506 192.756C269.825 192.199 269.358 191.423 269.185 190.56C269.012 189.697 269.143 188.801 269.557 188.025C269.971 187.248 270.641 186.639 271.453 186.302C272.266 185.964 273.171 185.919 274.013 186.174C274.855 186.428 275.583 186.967 276.072 187.699C276.561 188.43 276.781 189.309 276.695 190.184C276.609 191.06 276.222 191.879 275.6 192.501C275.248 192.853 274.831 193.133 274.371 193.324C273.911 193.515 273.418 193.614 272.92 193.614ZM272.92 188.096C272.522 188.095 272.136 188.232 271.828 188.484C271.519 188.736 271.308 189.087 271.229 189.477C271.151 189.868 271.21 190.273 271.397 190.624C271.584 190.976 271.887 191.252 272.254 191.405C272.622 191.558 273.031 191.579 273.412 191.464C273.793 191.349 274.123 191.106 274.345 190.775C274.566 190.445 274.667 190.047 274.628 189.651C274.59 189.255 274.416 188.884 274.135 188.602C273.813 188.279 273.376 188.097 272.92 188.096Z" fill="url(#paint5_linear_484_2129)" stroke="black" stroke-miterlimit="10" stroke-linecap="round"/>
<path d="M454.481 258.774C452.598 259.178 451.423 259.618 450.614 260.424C449.804 261.229 449.364 262.412 448.964 264.296C448.953 264.352 448.922 264.403 448.877 264.439C448.832 264.476 448.775 264.495 448.717 264.494C448.66 264.495 448.604 264.475 448.56 264.439C448.516 264.403 448.486 264.352 448.475 264.296C448.071 262.412 447.635 261.216 446.825 260.424C446.016 259.632 444.837 259.178 442.958 258.774C442.902 258.763 442.851 258.733 442.814 258.689C442.778 258.644 442.758 258.589 442.758 258.532C442.758 258.474 442.778 258.419 442.814 258.375C442.851 258.33 442.902 258.3 442.958 258.29C444.837 257.885 446.016 257.445 446.825 256.64C447.635 255.834 448.071 254.651 448.475 252.768C448.486 252.711 448.516 252.661 448.56 252.624C448.604 252.588 448.66 252.569 448.717 252.57C448.775 252.569 448.832 252.588 448.877 252.624C448.922 252.66 448.953 252.711 448.964 252.768C449.364 254.651 449.804 255.848 450.614 256.64C451.423 257.432 452.598 257.885 454.481 258.29C454.538 258.3 454.588 258.33 454.625 258.375C454.662 258.419 454.682 258.474 454.682 258.532C454.682 258.589 454.662 258.644 454.625 258.689C454.588 258.733 454.538 258.763 454.481 258.774Z" fill="url(#paint6_linear_484_2129)" stroke="black" stroke-miterlimit="10" stroke-linecap="round"/>
<circle cx="120" cy="89" r="7" fill="#BDECE6"/>
<circle cx="488" cy="11" r="10" fill="#F6C34C"/>
<circle cx="130" cy="632" r="7" fill="#FC762B"/>
<circle cx="565" cy="535" r="7" fill="#F2B3C1"/>
<circle cx="56" cy="499" r="10" fill="#DBCAF4"/>
<circle cx="10" cy="232" r="10" fill="#F2B3C1"/>
<circle cx="395" cy="625" r="10" fill="#A5C3FF"/>
<defs>
<linearGradient id="paint0_linear_484_2129" x1="100" y1="72" x2="439.557" y2="579.239" gradientUnits="userSpaceOnUse">
<stop stop-color="#FFA756"/>
<stop offset="1" stop-color="#FFDAAF"/>
</linearGradient>
<linearGradient id="paint1_linear_484_2129" x1="238.741" y1="513.441" x2="427.906" y2="185.795" gradientUnits="userSpaceOnUse">
<stop offset="0.38" stop-color="#A4C2FF"/>
<stop offset="0.56" stop-color="#B5DEED"/>
<stop offset="0.73" stop-color="#C6FCDB"/>
</linearGradient>
<linearGradient id="paint2_linear_484_2129" x1="241.223" y1="197.724" x2="265.792" y2="197.724" gradientUnits="userSpaceOnUse">
<stop offset="0.16" stop-color="#FEC2D9"/>
<stop offset="0.8" stop-color="#A4C2FF"/>
</linearGradient>
<linearGradient id="paint3_linear_484_2129" x1="231.34" y1="215.491" x2="243.476" y2="215.491" gradientUnits="userSpaceOnUse">
<stop offset="0.16" stop-color="#FEC2D9"/>
<stop offset="0.8" stop-color="#A4C2FF"/>
</linearGradient>
<linearGradient id="paint4_linear_484_2129" x1="451.037" y1="272.84" x2="458.49" y2="272.84" gradientUnits="userSpaceOnUse">
<stop offset="0.16" stop-color="#FEC2D9"/>
<stop offset="0.8" stop-color="#A4C2FF"/>
</linearGradient>
<linearGradient id="paint5_linear_484_2129" x1="269.123" y1="189.817" x2="276.713" y2="189.817" gradientUnits="userSpaceOnUse">
<stop offset="0.16" stop-color="#FEC2D9"/>
<stop offset="0.8" stop-color="#A4C2FF"/>
</linearGradient>
<linearGradient id="paint6_linear_484_2129" x1="442.76" y1="258.532" x2="454.679" y2="258.532" gradientUnits="userSpaceOnUse">
<stop offset="0.16" stop-color="#FEC2D9"/>
<stop offset="0.8" stop-color="#A4C2FF"/>
</linearGradient>
</defs>
</svg>
