<svg width="1440" height="1944" viewBox="0 0 1440 1944" fill="none" xmlns="http://www.w3.org/2000/svg">
<rect width="1440" height="1944" fill="#F3F5FB"/>
<rect width="1440" height="660" fill="#F3F5FB"/>
<circle cx="144.5" cy="578.5" r="29.5" stroke="#DBCAF4" stroke-width="10"/>
<circle cx="62" cy="240" r="18.5" stroke="#F2B3C1" stroke-width="7"/>
<path fill-rule="evenodd" clip-rule="evenodd" d="M623.712 117.502C618.793 114.661 612.502 116.347 609.662 121.267L597.804 141.804L569.843 125.661C569.023 125.188 567.975 125.468 567.501 126.288C564.661 131.208 566.347 137.499 571.266 140.339L591.804 152.197L575.662 180.156C575.188 180.976 575.469 182.025 576.289 182.498C581.209 185.338 587.5 183.653 590.34 178.733L602.197 158.197L630.156 174.339C630.976 174.812 632.024 174.531 632.498 173.711C635.338 168.792 633.653 162.501 628.733 159.661L608.197 147.804L624.34 119.843C624.813 119.024 624.532 117.975 623.712 117.502Z" fill="#BDECE6"/>
<rect width="1440" height="554" transform="translate(0 660)" fill="#F3F5FB"/>
<circle cx="190" cy="689" r="7" fill="#BDECE6"/>
<circle cx="635" cy="1135" r="7" fill="#F2B3C1"/>
<circle cx="80" cy="832" r="10" fill="#F2B3C1"/>
<circle cx="1295.5" cy="694.5" r="29.5" stroke="#DBCAF4" stroke-width="10"/>
<circle cx="1088" cy="1094" r="18.5" stroke="#F2B3C1" stroke-width="7"/>
<circle cx="738" cy="1422" r="7" fill="#BDECE6"/>
<circle cx="1156" cy="1303" r="10" fill="#F6C34C"/>
<circle cx="1183" cy="1868" r="7" fill="#F2B3C1"/>
<circle cx="724" cy="1832" r="10" fill="#DBCAF4"/>
<path fill-rule="evenodd" clip-rule="evenodd" d="M557.353 1688.14C552.433 1685.3 546.143 1686.99 543.302 1691.91L531.445 1712.45L503.484 1696.3C502.664 1695.83 501.615 1696.11 501.142 1696.93C498.302 1701.85 499.987 1708.14 504.907 1710.98L525.445 1722.84L509.302 1750.8C508.829 1751.62 509.11 1752.67 509.93 1753.14C514.85 1755.98 521.14 1754.29 523.98 1749.37L535.837 1728.84L563.797 1744.98C564.617 1745.45 565.665 1745.17 566.138 1744.35C568.979 1739.43 567.293 1733.14 562.374 1730.3L541.837 1718.45L557.98 1690.49C558.454 1689.67 558.173 1688.62 557.353 1688.14Z" fill="#BDECE6"/>
</svg>
