<svg width="640" height="640" viewBox="0 0 640 640" fill="none" xmlns="http://www.w3.org/2000/svg">
<path d="M100 292C100 170.497 198.497 71.9999 320 71.9999C441.503 71.9999 540 170.497 540 292V572C540 583.046 531.046 592 520 592H120C108.954 592 100 583.046 100 572V292Z" fill="url(#paint0_linear_484_2122)"/>
<path d="M489.457 289.712C489.425 293.227 488.939 296.723 488.01 300.113C487.072 303.53 485.92 306.883 484.56 310.154C483.24 313.459 481.784 316.728 480.455 319.988C479.113 323.174 477.972 326.441 477.04 329.77C476.162 333.203 475.492 336.687 475.034 340.202C474.532 343.744 474.132 347.326 473.63 350.854C473.174 354.338 472.503 357.789 471.62 361.19C470.76 364.505 469.473 367.693 467.792 370.676C466.025 373.654 463.881 376.39 461.412 378.816C458.895 381.287 456.228 383.6 453.426 385.742C450.614 387.942 447.706 390.058 444.912 392.245C439.274 396.434 434.281 401.427 430.092 407.064C427.892 409.867 425.785 412.784 423.589 415.574C421.45 418.378 419.137 421.046 416.664 423.56C414.239 426.03 411.503 428.173 408.524 429.936C405.542 431.619 402.353 432.906 399.037 433.764C395.637 434.647 392.185 435.318 388.702 435.774C385.182 436.276 381.596 436.676 378.049 437.178C374.536 437.638 371.054 438.308 367.621 439.184C364.293 440.119 361.026 441.261 357.84 442.603C354.58 443.923 351.31 445.375 348.006 446.708C344.736 448.07 341.382 449.222 337.965 450.158C331.166 452.094 323.961 452.094 317.162 450.158C313.745 449.222 310.392 448.07 307.121 446.708C303.817 445.388 300.548 443.932 297.287 442.603C294.101 441.263 290.834 440.122 287.506 439.189C284.073 438.312 280.591 437.642 277.078 437.182C273.532 436.681 269.95 436.28 266.426 435.779C262.942 435.323 259.49 434.651 256.09 433.768C252.775 432.91 249.586 431.623 246.604 429.94C243.624 428.176 240.888 426.032 238.464 423.56C235.998 421.045 233.692 418.378 231.56 415.574C229.36 412.767 227.239 409.854 225.057 407.064C222.933 404.274 220.639 401.617 218.188 399.109C215.682 396.66 213.026 394.367 210.238 392.245C207.43 390.045 204.518 387.938 201.724 385.742C198.914 383.602 196.241 381.289 193.72 378.816C191.251 376.39 189.106 373.654 187.34 370.676C185.659 367.693 184.373 364.504 183.512 361.19C182.629 357.789 181.958 354.338 181.501 350.854C181 347.334 180.599 343.744 180.098 340.202C179.64 336.687 178.97 333.203 178.091 329.77C177.16 326.441 176.019 323.174 174.677 319.988C173.357 316.728 171.905 313.459 170.572 310.154C169.212 306.883 168.06 303.53 167.122 300.113C165.192 293.315 165.192 286.113 167.122 279.315C168.06 275.899 169.212 272.545 170.572 269.274C171.892 265.969 173.348 262.7 174.677 259.44C176.019 256.254 177.16 252.988 178.091 249.659C178.963 246.224 179.628 242.741 180.08 239.226C180.582 235.684 180.982 232.103 181.484 228.574C181.94 225.091 182.612 221.639 183.494 218.238C184.354 214.924 185.641 211.735 187.322 208.752C189.094 205.773 191.245 203.037 193.72 200.612C196.235 198.14 198.903 195.827 201.706 193.686C204.518 191.486 207.426 189.37 210.22 187.183C213.008 185.059 215.663 182.767 218.171 180.319C220.62 177.81 222.914 175.153 225.039 172.364C227.239 169.561 229.347 166.644 231.542 163.85C233.683 161.046 235.996 158.379 238.468 155.864C240.894 153.394 243.63 151.249 246.608 149.484C249.59 147.802 252.779 146.516 256.094 145.66C259.495 144.777 262.947 144.106 266.43 143.649C269.95 143.148 273.536 142.747 277.082 142.246C280.597 141.785 284.08 141.115 287.515 140.24C290.841 139.305 294.107 138.165 297.292 136.825C300.552 135.505 303.821 134.053 307.126 132.72C310.396 131.357 313.75 130.203 317.166 129.266C323.967 127.336 331.17 127.336 337.97 129.266C341.385 130.203 344.737 131.357 348.006 132.72C351.31 134.04 354.58 135.496 357.84 136.825C361.026 138.166 364.293 139.306 367.621 140.24C371.054 141.116 374.536 141.786 378.049 142.246C381.596 142.747 385.177 143.126 388.702 143.649C392.186 144.106 395.64 144.778 399.042 145.66C402.355 146.519 405.542 147.804 408.524 149.484C411.502 151.249 414.238 153.394 416.664 155.864C419.137 158.38 421.45 161.048 423.589 163.854C425.789 166.661 427.91 169.574 430.092 172.364C432.217 175.154 434.51 177.811 436.961 180.319C439.468 182.768 442.123 185.061 444.912 187.183C447.719 189.383 450.632 191.491 453.426 193.686C456.229 195.827 458.896 198.14 461.412 200.612C463.881 203.038 466.025 205.775 467.792 208.752C469.473 211.735 470.76 214.924 471.62 218.238C472.503 221.639 473.174 225.091 473.63 228.574C474.132 232.094 474.532 235.684 475.034 239.226C475.492 242.741 476.162 246.225 477.04 249.659C477.972 252.988 479.113 256.254 480.455 259.44C481.775 262.7 483.227 265.969 484.56 269.274C485.92 272.545 487.072 275.899 488.01 279.315C488.938 282.704 489.425 286.198 489.457 289.712Z" fill="#040400"/>
<path d="M489.457 289.712C489.425 293.227 488.939 296.723 488.01 300.113C487.072 303.53 485.92 306.883 484.56 310.154C483.24 313.459 481.784 316.728 480.455 319.988C479.113 323.174 477.972 326.441 477.04 329.77C476.162 333.203 475.492 336.687 475.034 340.202C474.532 343.744 474.132 347.326 473.63 350.854C473.174 354.338 472.502 357.789 471.62 361.19C470.76 364.505 469.473 367.693 467.792 370.676C466.025 373.654 463.881 376.39 461.412 378.816C458.895 381.287 456.228 383.6 453.426 385.742C450.614 387.942 447.706 390.058 444.912 392.245C439.274 396.434 434.281 401.427 430.092 407.064C427.892 409.867 425.785 412.784 423.589 415.574C421.45 418.378 419.137 421.046 416.664 423.56C414.239 426.03 411.503 428.173 408.524 429.936C405.542 431.619 402.353 432.906 399.037 433.764C395.637 434.647 392.185 435.318 388.702 435.774C385.182 436.276 381.596 436.676 378.049 437.178C374.536 437.638 371.054 438.308 367.621 439.184C364.293 440.119 361.026 441.261 357.84 442.603C354.58 443.923 351.31 445.375 348.006 446.708C344.736 448.07 341.382 449.222 337.965 450.158C331.166 452.094 323.961 452.094 317.162 450.158C313.745 449.222 310.392 448.07 307.121 446.708C303.817 445.388 300.548 443.932 297.287 442.603C294.101 441.263 290.834 440.122 287.506 439.189C284.073 438.312 280.591 437.642 277.078 437.182C273.532 436.681 269.95 436.28 266.426 435.779C262.942 435.323 259.49 434.651 256.09 433.768C252.775 432.91 249.586 431.623 246.604 429.94C243.624 428.176 240.888 426.032 238.464 423.56C235.998 421.045 233.692 418.378 231.56 415.574C229.36 412.767 227.239 409.854 225.057 407.064C222.933 404.274 220.639 401.617 218.188 399.109C215.682 396.66 213.026 394.367 210.238 392.245C207.43 390.045 204.518 387.938 201.724 385.742C198.914 383.602 196.241 381.289 193.72 378.816C191.251 376.39 189.106 373.654 187.34 370.676C185.659 367.693 184.373 364.504 183.512 361.19C182.629 357.789 181.958 354.338 181.501 350.854C181 347.334 180.599 343.744 180.098 340.202C179.64 336.687 178.97 333.203 178.091 329.77C177.16 326.441 176.019 323.174 174.677 319.988C173.357 316.728 171.905 313.459 170.572 310.154C169.212 306.883 168.06 303.53 167.122 300.113C165.192 293.315 165.192 286.113 167.122 279.315C168.06 275.899 169.212 272.545 170.572 269.274C171.892 265.97 173.348 262.7 174.677 259.44C176.019 256.254 177.16 252.988 178.091 249.659C178.963 246.224 179.628 242.741 180.08 239.226C180.582 235.684 180.982 232.103 181.484 228.574C181.94 225.091 182.612 221.639 183.494 218.238C184.354 214.924 185.641 211.735 187.322 208.752C189.094 205.773 191.245 203.037 193.72 200.612C196.235 198.14 198.903 195.827 201.706 193.686C204.518 191.486 207.426 189.37 210.22 187.183C213.008 185.059 215.663 182.767 218.171 180.319C220.62 177.81 222.914 175.153 225.039 172.364C227.239 169.561 229.347 166.644 231.542 163.85C233.683 161.046 235.996 158.379 238.468 155.864C240.894 153.394 243.63 151.249 246.608 149.484C249.59 147.802 252.779 146.516 256.094 145.66C259.495 144.777 262.947 144.106 266.43 143.65C269.95 143.148 273.536 142.747 277.082 142.246C280.597 141.785 284.08 141.115 287.515 140.24C290.841 139.305 294.107 138.165 297.292 136.825C300.552 135.505 303.821 134.053 307.126 132.72C310.396 131.357 313.75 130.203 317.166 129.266C323.967 127.336 331.17 127.336 337.97 129.266C341.385 130.203 344.737 131.357 348.006 132.72C351.31 134.04 354.58 135.496 357.84 136.825C361.026 138.166 364.293 139.306 367.621 140.24C371.054 141.116 374.536 141.786 378.049 142.246C381.596 142.747 385.177 143.126 388.702 143.65C392.186 144.106 395.64 144.778 399.042 145.66C402.355 146.519 405.542 147.804 408.524 149.484C411.502 151.249 414.238 153.394 416.664 155.864C419.137 158.38 421.45 161.048 423.589 163.854C425.789 166.661 427.91 169.574 430.092 172.364C432.217 175.154 434.51 177.811 436.961 180.319C439.468 182.768 442.123 185.061 444.912 187.183C447.719 189.383 450.632 191.491 453.426 193.686C456.229 195.827 458.896 198.14 461.412 200.612C463.881 203.038 466.025 205.775 467.792 208.752C469.473 211.735 470.76 214.924 471.62 218.238C472.502 221.639 473.174 225.091 473.63 228.574C474.132 232.094 474.532 235.684 475.034 239.226C475.492 242.741 476.162 246.225 477.04 249.659C477.972 252.988 479.113 256.254 480.455 259.44C481.775 262.7 483.227 265.97 484.56 269.274C485.92 272.545 487.072 275.899 488.01 279.315C488.938 282.704 489.425 286.198 489.457 289.712Z" stroke="#040400" stroke-miterlimit="10"/>
<path d="M429.586 205.122C428.187 204.887 426.789 204.639 425.393 204.378C423.994 204.119 422.604 203.837 421.213 203.542C419.823 203.247 418.441 202.939 417.06 202.614C415.678 202.288 414.305 201.945 412.937 201.589C412.25 201.413 411.56 201.222 410.864 201.017C410.174 200.805 409.483 200.577 408.801 200.304C408.118 200.036 407.453 199.728 406.808 199.38C406.151 199.023 405.524 198.614 404.933 198.157C404.339 197.687 403.785 197.167 403.279 196.603C402.763 196.026 402.295 195.408 401.88 194.755C401.45 194.077 401.074 193.366 400.753 192.63C400.419 191.862 400.14 191.071 399.917 190.263C399.434 188.487 399.207 186.651 399.244 184.811C399.283 182.911 399.564 181.022 400.08 179.193C400.614 177.286 401.37 175.449 402.333 173.719C403.334 171.909 404.539 170.219 405.923 168.681C407.283 167.176 408.776 165.798 410.385 164.563C411.924 163.379 413.541 162.3 415.225 161.333C416.853 160.387 418.472 159.573 420.016 158.869C421.561 158.165 423.026 157.549 424.342 157.047C426.028 156.387 427.732 155.774 429.454 155.208C431.176 154.642 432.914 154.116 434.668 153.629C436.428 153.148 438.188 152.708 439.948 152.309C441.708 151.91 443.496 151.564 445.312 151.27L444.617 151.081L443.926 150.892L443.231 150.694L442.544 150.496C441.722 150.254 440.877 149.994 440.032 149.691C439.174 149.388 438.336 149.031 437.524 148.621C436.694 148.207 435.906 147.715 435.17 147.152C434.406 146.568 433.719 145.891 433.124 145.137C432.275 144.054 431.637 142.821 431.245 141.502C430.876 140.236 430.711 138.918 430.757 137.599C430.8 136.303 431.013 135.017 431.39 133.776C431.745 132.588 432.243 131.447 432.873 130.379C433.498 129.339 434.22 128.361 435.029 127.457C435.817 126.579 436.668 125.76 437.577 125.007C438.46 124.277 439.379 123.593 440.331 122.956C441.264 122.331 442.201 121.755 443.112 121.196C447.356 118.705 451.813 116.597 456.431 114.895C465.727 111.48 475.537 109.669 485.44 109.541C490.363 109.471 495.282 109.838 500.14 110.636L500.33 110.667L500.523 110.698L500.712 110.733L500.902 110.764C501.553 110.876 502.143 111.218 502.565 111.727C502.774 111.971 502.935 112.251 503.04 112.555C503.144 112.866 503.185 113.195 503.159 113.523C503.13 113.889 503.025 114.246 502.851 114.57C502.678 114.88 502.442 115.151 502.16 115.366C501.884 115.575 501.568 115.725 501.232 115.806C500.88 115.897 500.512 115.914 500.154 115.855H500.127C495.498 115.042 490.804 114.649 486.104 114.68C476.666 114.735 467.309 116.423 458.446 119.669C454.039 121.288 449.786 123.3 445.739 125.68C444.969 126.12 444.181 126.617 443.398 127.136C442.615 127.655 441.84 128.214 441.101 128.817C440.36 129.414 439.664 130.065 439.02 130.766C438.38 131.461 437.811 132.219 437.322 133.028C436.936 133.687 436.625 134.386 436.393 135.113C436.152 135.874 436.004 136.662 435.953 137.459C435.895 138.252 435.965 139.05 436.16 139.821C436.356 140.597 436.711 141.324 437.203 141.955C437.59 142.437 438.043 142.862 438.549 143.218C439.079 143.593 439.641 143.918 440.23 144.191C440.84 144.476 441.466 144.727 442.104 144.943C442.742 145.167 443.385 145.361 444.014 145.546C445.671 146.033 447.343 146.483 449.03 146.897C450.717 147.31 452.409 147.687 454.108 148.027C455.806 148.371 457.518 148.674 459.229 148.938C460.941 149.202 462.661 149.435 464.386 149.625C464.73 149.662 465.063 149.767 465.367 149.933C465.661 150.094 465.922 150.309 466.137 150.566C466.581 151.093 466.805 151.771 466.762 152.458C466.74 152.803 466.652 153.141 466.502 153.453C466.355 153.754 466.153 154.025 465.908 154.253C465.664 154.484 465.377 154.665 465.064 154.786C464.741 154.913 464.398 154.975 464.052 154.971C460.84 154.935 457.614 155.059 454.402 155.331C451.19 155.604 447.978 156.035 444.802 156.616C441.625 157.197 438.47 157.936 435.368 158.794C432.266 159.652 429.208 160.695 426.22 161.874C424.324 162.618 422.577 163.375 420.962 164.162C419.435 164.896 417.947 165.709 416.505 166.6C415.213 167.397 413.975 168.278 412.8 169.24C411.715 170.127 410.699 171.094 409.76 172.135C408.668 173.348 407.711 174.676 406.904 176.095C406.139 177.445 405.533 178.879 405.096 180.367C404.679 181.778 404.447 183.236 404.405 184.706C404.361 186.113 404.527 187.519 404.898 188.877C405.044 189.417 405.229 189.945 405.452 190.457C405.662 190.947 405.907 191.42 406.187 191.873C406.448 192.302 406.742 192.71 407.067 193.092C407.382 193.452 407.73 193.782 408.106 194.078C408.518 194.399 408.96 194.68 409.426 194.918C409.907 195.169 410.404 195.389 410.913 195.578C411.432 195.776 411.973 195.952 412.532 196.115C413.091 196.278 413.658 196.432 414.235 196.581C416.317 197.121 418.413 197.627 420.522 198.099C422.631 198.572 424.749 199.003 426.876 199.393C429.003 199.789 431.134 200.147 433.269 200.467C435.403 200.783 437.546 201.065 439.684 201.303C440.05 201.343 440.402 201.462 440.718 201.65C441.021 201.831 441.284 202.07 441.493 202.354C441.701 202.642 441.851 202.968 441.933 203.313C442.01 203.678 442.01 204.054 441.933 204.418C441.863 204.734 441.732 205.033 441.546 205.298C441.363 205.558 441.135 205.784 440.872 205.962C440.604 206.143 440.306 206.274 439.992 206.349C439.674 206.431 439.342 206.453 439.016 206.415C438.229 206.327 437.442 206.234 436.653 206.134C435.87 206.037 435.082 205.931 434.299 205.821C433.516 205.711 432.728 205.597 431.94 205.478C431.153 205.359 430.37 205.254 429.586 205.122Z" fill="#FC762B" stroke="#070707" stroke-miterlimit="10" stroke-linecap="round"/>
<path d="M230.055 474.468C229.918 474.467 229.781 474.455 229.646 474.433C229.512 474.406 229.38 474.371 229.25 474.327C229.118 474.278 228.99 474.217 228.867 474.147C228.466 473.918 228.148 473.568 227.956 473.148C227.828 472.871 227.755 472.573 227.741 472.268C227.707 471.629 227.914 471.001 228.322 470.508C231.068 467.222 233.512 463.695 235.626 459.97C239.879 452.48 242.81 444.313 244.289 435.827C245.025 431.614 245.38 427.344 245.35 423.067C245.35 422.253 245.323 421.404 245.27 420.546C245.218 419.688 245.13 418.821 244.989 417.963C244.853 417.103 244.656 416.253 244.399 415.42C244.139 414.596 243.797 413.8 243.378 413.044C243.038 412.435 242.628 411.868 242.155 411.354C241.666 410.81 241.11 410.33 240.501 409.924C239.899 409.516 239.234 409.207 238.534 409.009C237.831 408.81 237.093 408.759 236.369 408.86C235.811 408.944 235.267 409.107 234.754 409.344C234.216 409.59 233.7 409.885 233.214 410.224C232.711 410.578 232.226 410.958 231.762 411.363C231.296 411.768 230.843 412.186 230.412 412.6C229.268 413.691 228.146 414.8 227.05 415.952C225.954 417.105 224.876 418.267 223.829 419.472C222.782 420.678 221.761 421.875 220.749 423.111C219.737 424.348 218.787 425.606 217.85 426.882C217.661 427.138 217.425 427.354 217.154 427.52C216.892 427.678 216.603 427.787 216.301 427.841C215.681 427.949 215.043 427.815 214.519 427.467C214.255 427.291 214.027 427.067 213.846 426.807C213.675 426.553 213.552 426.27 213.485 425.971C213.344 425.357 213.445 424.713 213.766 424.172C215.262 421.646 216.64 419.037 217.894 416.366C219.148 413.695 220.274 410.958 221.268 408.178C222.263 405.397 223.13 402.568 223.856 399.708C224.582 396.848 225.176 393.966 225.616 391.066C225.897 389.222 226.095 387.489 226.21 385.852C226.325 384.309 226.359 382.761 226.311 381.214C226.266 379.826 226.132 378.441 225.91 377.07C225.702 375.805 225.399 374.558 225.004 373.338C224.447 371.716 223.662 370.181 222.672 368.78C221.604 367.239 220.334 365.848 218.897 364.644C217.502 363.456 215.9 362.535 214.171 361.929C212.51 361.346 210.717 361.245 209.001 361.639C207.985 361.896 207.026 362.344 206.176 362.959C205.271 363.609 204.431 364.346 203.668 365.159C202.876 365.982 202.133 366.866 201.416 367.724C200.698 368.582 200.021 369.414 199.361 370.131C198.378 371.204 197.41 372.29 196.457 373.387C195.503 374.484 194.565 375.594 193.641 376.718C192.712 377.84 191.806 378.975 190.908 380.119C190.011 381.263 189.148 382.424 188.268 383.595C187.909 384.077 187.392 384.418 186.808 384.558C186.52 384.627 186.221 384.642 185.928 384.602C185.63 384.561 185.344 384.459 185.087 384.303C184.796 384.13 184.545 383.896 184.352 383.617C184.168 383.353 184.04 383.053 183.978 382.737C183.912 382.42 183.912 382.094 183.978 381.778C184.047 381.451 184.187 381.143 184.388 380.876C185.59 379.248 186.824 377.634 188.088 376.036C189.352 374.437 190.644 372.868 191.964 371.328C193.284 369.785 194.632 368.264 196.008 366.765C197.384 365.266 198.781 363.799 200.201 362.365C200.641 361.925 201.121 361.441 201.605 360.988C202.089 360.534 202.586 360.108 203.11 359.668C203.632 359.246 204.182 358.86 204.755 358.51C205.338 358.153 205.948 357.844 206.581 357.586C207.224 357.329 207.888 357.128 208.566 356.988C209.258 356.842 209.962 356.753 210.669 356.724C211.403 356.694 212.139 356.72 212.869 356.803C213.631 356.896 214.385 357.043 215.126 357.243C216.753 357.671 218.31 358.331 219.75 359.201C221.251 360.088 222.632 361.163 223.86 362.4C225.125 363.696 226.234 365.136 227.164 366.69C228.139 368.311 228.926 370.038 229.51 371.838C230.079 373.603 230.489 375.416 230.733 377.254C230.967 379.013 231.082 380.786 231.076 382.561C231.076 384.286 230.984 385.94 230.838 387.484C230.693 389.029 230.495 390.468 230.302 391.744C230.049 393.374 229.756 395.004 229.422 396.632C229.087 398.26 228.707 399.873 228.282 401.472C227.863 403.082 227.402 404.681 226.9 406.268C226.399 407.855 225.856 409.429 225.272 410.989L225.739 410.527L226.205 410.087L226.676 409.647L227.151 409.207C227.714 408.67 228.308 408.12 228.938 407.588C229.571 407.048 230.237 406.547 230.931 406.088C231.639 405.621 232.388 405.222 233.17 404.895C233.981 404.559 234.831 404.325 235.7 404.2C236.946 404.023 238.213 404.082 239.436 404.376C240.609 404.663 241.728 405.134 242.754 405.771C243.759 406.398 244.679 407.154 245.49 408.019C246.268 408.846 246.944 409.763 247.501 410.752C248.04 411.721 248.482 412.74 248.821 413.796C249.157 414.82 249.416 415.867 249.596 416.929C249.77 417.962 249.892 419.003 249.961 420.049C250.031 421.078 250.058 422.082 250.066 423.05C250.098 427.621 249.718 432.186 248.931 436.69C247.35 445.745 244.215 454.459 239.665 462.447C237.405 466.419 234.791 470.179 231.855 473.68C231.743 473.817 231.614 473.94 231.472 474.046C231.335 474.149 231.188 474.237 231.032 474.31C230.878 474.381 230.718 474.435 230.552 474.472C230.387 474.488 230.22 474.486 230.055 474.468Z" fill="url(#paint1_linear_484_2122)" stroke="black" stroke-miterlimit="10" stroke-linecap="round"/>
<path d="M295.105 426.939L290.436 435.449L285.772 443.958L281.104 452.468L276.436 460.977L283.185 459.57L289.935 458.161L296.684 456.753L303.434 455.345L301.353 448.244L299.267 441.142L297.186 434.041L295.105 426.939Z" fill="#F6C34C" stroke="#070707" stroke-miterlimit="10" stroke-linecap="round"/>
<path d="M298.752 215.88C298.745 219.204 297.504 222.407 295.269 224.868C293.034 227.329 289.965 228.872 286.657 229.198C283.349 229.524 280.038 228.61 277.365 226.633C274.693 224.656 272.85 221.757 272.194 218.499C271.538 215.24 272.115 211.853 273.814 208.996C275.513 206.139 278.213 204.015 281.39 203.036C284.566 202.056 287.993 202.291 291.006 203.695C294.019 205.1 296.403 207.573 297.696 210.635C298.396 212.295 298.755 214.079 298.752 215.88Z" fill="#DBCAF4" stroke="black" stroke-miterlimit="10" stroke-linecap="round"/>
<path d="M494.706 202.86L484.842 208.453L474.977 214.045L465.112 219.638L455.247 225.226C456.312 227.302 457.378 229.376 458.446 231.447C459.514 233.518 460.58 235.59 461.645 237.664L464.844 243.886L468.047 250.108C470.267 246.168 472.488 242.23 474.708 238.294L481.374 226.484L488.04 214.67L494.706 202.86Z" fill="url(#paint2_linear_484_2122)" stroke="black" stroke-miterlimit="10" stroke-linecap="round"/>
<path d="M305.955 185.331L314.02 177.235L322.081 169.134L330.146 161.038L338.207 152.96C340.389 156.176 341.909 159.794 342.678 163.603C343.376 167.073 343.399 170.645 342.744 174.124C342.148 177.357 340.909 180.438 339.1 183.183C337.411 185.766 335.131 187.908 332.448 189.431C330.515 190.485 328.412 191.189 326.235 191.513C323.967 191.85 321.662 191.839 319.397 191.482C317 191.11 314.666 190.411 312.458 189.405C310.12 188.34 307.934 186.97 305.955 185.331Z" fill="url(#paint3_linear_484_2122)" stroke="black" stroke-miterlimit="10" stroke-linecap="round"/>
<path d="M253.758 169.891L248.628 162.328L243.502 154.76L238.371 147.196L233.241 139.632C232.121 137.983 231.337 136.13 230.934 134.178C230.531 132.226 230.517 130.213 230.893 128.256C231.268 126.298 232.026 124.434 233.123 122.77C234.22 121.105 235.634 119.674 237.284 118.556C238.933 117.436 240.787 116.652 242.739 116.25C244.691 115.847 246.703 115.833 248.661 116.208C250.618 116.584 252.483 117.342 254.147 118.438C255.811 119.535 257.243 120.949 258.36 122.6L263.491 130.164L268.621 137.727L273.752 145.291L278.878 152.854C279.998 154.503 280.781 156.357 281.184 158.31C281.586 160.262 281.6 162.275 281.223 164.233C280.848 166.187 280.091 168.048 278.996 169.709C277.9 171.37 276.487 172.799 274.838 173.913C273.189 175.033 271.335 175.817 269.383 176.22C267.43 176.623 265.418 176.637 263.46 176.261C261.502 175.886 259.637 175.128 257.973 174.031C256.308 172.934 254.876 171.52 253.758 169.869V169.891Z" fill="url(#paint4_linear_484_2122)" stroke="black" stroke-miterlimit="10" stroke-linecap="round"/>
<path d="M274.746 403.588L271.842 403.896L268.934 404.204L266.025 404.512L263.121 404.82L264.437 402.638L265.752 400.456L267.072 398.269L268.388 396.086L264.542 395.044L260.701 394.001L256.86 392.958L253.019 391.92L256.521 390.586L260.028 389.253L263.53 387.92L267.037 386.587L263.777 383.758L260.521 380.924L257.26 378.095L254.004 375.266L258.4 375.789L262.796 376.317L267.196 376.845L271.591 377.369L271.217 374.927L270.843 372.485L270.465 370.038L270.091 367.596L272.599 369.172L275.107 370.742L277.61 372.318L280.118 373.893L282.002 369.682L283.889 365.476L285.772 361.269L287.656 357.063L288.135 361.678L288.615 366.294L289.094 370.91L289.574 375.53L293.094 373.294L296.614 371.064L300.134 368.833L303.654 366.602L301.96 370.478L300.262 374.355L298.568 378.231L296.874 382.112L299.936 382.983L302.998 383.854L306.056 384.726L309.119 385.597L306.413 387.207L303.702 388.813L300.996 390.424L298.286 392.03L300.781 395.633L303.276 399.237L305.77 402.836L308.265 406.44L304.222 404.952L300.174 403.465L296.13 401.982L292.082 400.495L292.271 404.627L292.46 408.763L292.65 412.894L292.839 417.026L290.41 413.673L287.981 410.32L285.552 406.968L283.128 403.61L280.928 408.081L278.728 412.551L276.532 417.022L274.332 421.488L274.438 417.013L274.539 412.538L274.645 408.063L274.746 403.588Z" fill="url(#paint5_linear_484_2122)" stroke="black" stroke-miterlimit="10" stroke-linecap="round"/>
<path d="M485.792 174.097L484.01 173.763L482.232 173.424L480.45 173.09L478.673 172.755L479.843 171.695L481.014 170.635L482.184 169.574L483.354 168.514L481.264 167.207L479.17 165.905L477.076 164.602L474.986 163.3L477.3 163.133L479.614 162.97L481.933 162.803L484.248 162.64L482.822 160.378L481.396 158.117L479.966 155.855L478.541 153.598L481.053 154.693L483.57 155.789L486.082 156.889L488.595 157.985L488.81 156.467L489.022 154.953L489.237 153.435L489.448 151.917L490.658 153.299L491.864 154.68L493.07 156.062L494.275 157.443L496.145 155.283L498.011 153.123L499.881 150.962L501.746 148.806L501.21 151.627L500.668 154.451L500.127 157.276L499.59 160.101L502.076 159.406L504.562 158.706L507.048 158.015L509.534 157.316L507.836 159.313L506.142 161.311L504.444 163.309L502.745 165.306L504.408 166.371L506.067 167.431L507.726 168.496L509.389 169.561L507.493 170.032L505.601 170.503L503.709 170.973L501.812 171.444L502.653 174.023L503.489 176.605L504.325 179.188L505.161 181.767L503.027 180.165L500.893 178.563L498.759 176.957L496.625 175.356L496 177.842L495.375 180.323L494.746 182.809L494.121 185.295L493.281 182.875L492.44 180.451L491.596 178.031L490.755 175.607L488.652 177.864L486.553 180.125L484.45 182.383L482.351 184.64L483.209 182.004L484.072 179.369L484.93 176.733L485.792 174.097Z" fill="url(#paint6_linear_484_2122)" stroke="black" stroke-miterlimit="10" stroke-linecap="round"/>
<path d="M477.802 262.828L477.472 262.942L477.084 263.079L476.644 263.246L476.156 263.439L474.788 263.998C474.37 264.179 473.978 264.355 473.608 264.535C473.239 264.715 472.887 264.909 472.544 265.12C472.195 265.335 471.86 265.57 471.54 265.824C471.18 266.106 470.911 266.321 470.696 266.484C470.48 266.647 470.33 266.766 470.207 266.849C470.116 266.916 470.019 266.975 469.917 267.025C469.831 267.064 469.743 267.098 469.653 267.127C469.162 267.293 468.641 267.356 468.125 267.311C467.608 267.265 467.106 267.113 466.652 266.863C465.641 266.303 464.745 265.557 464.012 264.663C463.215 263.721 462.49 262.721 461.843 261.671C461.214 260.667 460.681 259.73 460.272 259.031C459.193 257.205 457.989 255.457 456.668 253.799C455.419 252.24 454.027 250.801 452.51 249.5C450.999 248.214 449.352 247.096 447.6 246.165C445.719 245.171 443.74 244.374 441.695 243.789C439.609 243.179 437.477 242.737 435.32 242.469C433.142 242.202 430.946 242.12 428.755 242.223C426.565 242.327 424.39 242.641 422.26 243.16C420.146 243.678 418.095 244.428 416.144 245.395C413.071 246.95 410.318 249.071 408.031 251.647C405.793 254.169 403.935 257.003 402.513 260.06C401.117 263.041 400.064 266.17 399.372 269.388C398.72 272.339 398.381 275.351 398.36 278.373C398.36 285.413 400.322 292.255 403.675 298.573C407.158 304.991 411.751 310.741 417.24 315.557C422.623 320.363 428.744 324.272 435.368 327.134C441.757 329.853 448.286 331.309 454.336 331.142C457.412 331.003 460.475 330.66 463.506 330.117C466.837 329.558 470.282 328.841 473.402 328.137C476.521 327.433 479.306 326.733 481.322 326.214C483.337 325.695 484.56 325.334 484.56 325.334C484.56 325.334 484.503 324.749 484.402 323.768C484.3 322.787 484.155 321.405 483.992 319.808C483.83 318.211 483.64 316.424 483.451 314.611C483.262 312.799 483.073 310.964 482.897 309.301C482.708 307.541 482.54 305.943 482.378 304.461C482.215 302.978 482.061 301.552 481.902 300.109C481.744 298.666 481.581 297.201 481.401 295.586C481.22 293.971 481.027 292.211 480.802 290.196C480.621 288.571 480.421 286.773 480.204 284.801C479.984 282.835 479.764 280.696 479.5 278.404C479.236 276.111 478.976 273.656 478.695 271.056C478.413 268.455 478.114 265.719 477.802 262.828Z" fill="#D87D61" stroke="black" stroke-miterlimit="10" stroke-linecap="round"/>
<path d="M407.661 274.51C407.164 272.156 406.781 269.758 406.464 267.175C406.148 264.592 405.923 261.82 405.743 258.714C405.562 255.607 405.422 252.162 405.303 248.237C405.184 244.313 405.078 239.904 404.96 234.87C404.901 232.418 404.86 230.08 404.836 227.857C404.806 225.657 404.792 223.54 404.792 221.578C404.792 219.615 404.792 217.789 404.792 216.113C404.792 214.437 404.823 212.91 404.845 211.55C404.52 210.441 404.226 209.38 403.965 208.365C403.697 207.348 403.459 206.38 403.244 205.461C403.028 204.541 402.839 203.67 402.672 202.86C402.504 202.051 402.355 201.285 402.232 200.585C402.122 200 402.025 199.446 401.937 198.918C401.849 198.39 401.765 197.884 401.69 197.395C401.616 196.907 401.558 196.436 401.501 195.97C401.444 195.503 401.404 195.046 401.369 194.593C401.325 194.003 401.286 193.409 401.255 192.833C401.224 192.256 401.202 191.649 401.189 191.073C401.176 190.496 401.189 189.889 401.189 189.313C401.189 188.736 401.189 188.129 401.215 187.553C401.215 187.113 401.215 186.483 401.246 185.793C401.267 185.054 401.351 184.318 401.497 183.593C401.607 182.945 401.886 182.338 402.306 181.833C402.524 181.612 402.797 181.455 403.097 181.377C403.397 181.3 403.712 181.305 404.009 181.393C404.371 181.471 404.703 181.653 404.964 181.916C405.239 182.191 405.462 182.513 405.624 182.867C405.794 183.229 405.922 183.61 406.007 184.002C406.083 184.358 406.122 184.72 406.121 185.084C406.187 186.321 406.297 187.385 406.434 188.301C406.546 189.087 406.708 189.866 406.918 190.633C407.068 191.176 407.267 191.704 407.512 192.212C407.68 192.564 407.893 192.892 408.145 193.189L408.22 193.264L408.304 193.334L408.396 193.4L408.497 193.462C408.679 193.563 408.873 193.639 409.074 193.691C409.274 193.738 409.479 193.762 409.685 193.761C409.891 193.76 410.097 193.735 410.297 193.686C410.5 193.633 410.696 193.558 410.882 193.462L410.957 193.422L411.032 193.378L411.106 193.334L411.181 193.29C411.629 193.004 412.021 192.639 412.338 192.212C412.648 191.791 412.903 191.331 413.095 190.844C413.291 190.356 413.449 189.855 413.57 189.343C413.694 188.842 413.79 188.336 413.883 187.865C413.975 187.394 414.054 186.822 414.107 186.365C414.16 185.907 414.186 185.485 414.204 185.15C414.222 184.816 414.204 184.521 414.204 184.319C414.204 184.116 414.204 183.993 414.204 183.971C414.169 183.091 414.137 182.135 414.107 181.102C414.076 180.068 414.05 178.946 414.024 177.745C413.997 176.544 413.966 175.259 413.94 173.895C413.914 172.531 413.883 171.079 413.856 169.548C413.788 169.036 413.776 168.518 413.821 168.003C413.86 167.534 413.958 167.071 414.112 166.626C414.252 166.22 414.455 165.838 414.714 165.495C414.955 165.177 415.253 164.906 415.594 164.699L415.841 164.571C415.941 164.525 416.044 164.484 416.149 164.448C416.269 164.409 416.391 164.377 416.514 164.351C416.659 164.322 416.806 164.303 416.954 164.294C416.954 164.294 416.954 164.211 416.954 164.079C416.972 163.897 417.002 163.716 417.042 163.537C417.094 163.3 417.168 163.067 417.262 162.842C417.367 162.597 417.504 162.368 417.671 162.16C417.692 162.132 417.716 162.105 417.742 162.081L417.887 161.94C417.948 161.887 418.019 161.826 418.102 161.764C418.193 161.702 418.287 161.644 418.384 161.593C418.691 161.437 419.03 161.353 419.374 161.346C419.69 161.338 420.006 161.377 420.311 161.461C420.559 161.528 420.8 161.616 421.033 161.725C421.222 161.813 421.354 161.887 421.398 161.914C421.442 161.94 421.424 161.87 421.473 161.804C421.521 161.738 421.592 161.641 421.675 161.54C421.759 161.439 421.851 161.324 421.952 161.214C422.046 161.111 422.147 161.015 422.256 160.928C422.43 160.794 422.627 160.693 422.837 160.629C423.024 160.571 423.218 160.535 423.413 160.523C423.56 160.513 423.707 160.513 423.853 160.523L424.051 160.55C424.563 160.657 425.02 160.942 425.34 161.355C425.678 161.795 425.936 162.291 426.102 162.82C426.28 163.379 426.427 163.948 426.542 164.523C426.66 165.082 426.762 165.61 426.885 166.037C427.052 165.891 427.238 165.77 427.439 165.676C427.858 165.466 428.339 165.419 428.79 165.544C429.318 165.693 429.903 166.116 430.471 167.053C431.038 167.99 431.575 169.438 432.015 171.633C432.077 171.937 432.134 172.223 432.187 172.474C432.24 172.725 432.288 172.953 432.332 173.138C432.376 173.323 432.407 173.473 432.429 173.578C432.451 173.684 432.464 173.732 432.464 173.732C432.578 174.929 432.68 176.179 432.763 177.472C432.847 178.766 432.908 180.112 432.948 181.485C432.988 182.858 433.001 184.297 432.988 185.766C432.974 187.236 432.93 188.741 432.851 190.289C432.772 191.838 432.666 193.4 432.534 194.887C432.402 196.375 432.24 197.818 432.059 199.217C431.879 200.616 431.681 201.958 431.465 203.261C431.25 204.563 431.025 205.808 430.783 207.005C431.804 211.713 432.823 216.423 433.841 221.133L436.921 235.262L440.001 249.39C441.016 254.037 442.034 258.707 443.055 263.4L458.516 285.884L469.714 302.164L476.526 312.064L478.822 315.404C478.822 315.404 479.095 315.844 479.518 316.64C479.94 317.436 480.521 318.519 481.132 319.821C481.744 321.123 482.391 322.619 482.954 324.19C483.526 325.75 483.967 327.354 484.274 328.986V329.065V329.167C484.274 329.202 484.274 329.237 484.296 329.281C484.318 329.325 484.296 329.365 484.296 329.409C484.54 330.979 484.607 332.571 484.494 334.156C484.388 335.642 484.148 337.114 483.777 338.556C483.445 339.842 483.012 341.1 482.483 342.318C482.055 343.314 481.541 344.271 480.948 345.178C479.816 346.83 478.372 348.244 476.697 349.341C474.966 350.471 473.083 351.351 471.105 351.954C469.102 352.574 467.036 352.962 464.945 353.112C462.976 353.266 460.997 353.193 459.044 352.896C456.146 352.428 453.399 351.286 451.023 349.561C448.502 347.801 446.073 345.328 443.565 342.173C440.706 338.462 438.061 334.589 435.645 330.575C432.807 325.985 429.714 320.67 426.194 314.598C423.554 310.018 421.226 306.014 419.194 302.38C417.161 298.745 415.48 295.52 413.975 292.44C412.554 289.542 411.293 286.567 410.2 283.53C409.152 280.584 408.304 277.57 407.661 274.51Z" fill="#F2B3C1" stroke="black" stroke-miterlimit="10" stroke-linecap="round"/>
<path d="M364.88 328.124L374.776 343.379L384.68 358.633L394.576 373.893L404.471 389.147C404.471 389.147 407.828 387.687 413.161 385.236C418.494 382.785 425.802 379.349 433.7 375.397C441.598 371.446 450.09 366.976 457.786 362.47C465.482 357.965 472.381 353.419 477.102 349.31C477.621 348.87 478.233 348.307 478.893 347.647C479.616 346.92 480.296 346.152 480.93 345.345C481.666 344.406 482.327 343.41 482.906 342.367C483.556 341.193 484.088 339.958 484.494 338.679C484.918 337.354 485.2 335.986 485.334 334.601C485.454 333.335 485.465 332.062 485.365 330.795C485.271 329.613 485.106 328.437 484.872 327.275C484.657 326.157 484.397 325.075 484.151 324.08C483.311 320.67 482.082 317.368 480.49 314.237C479.12 311.551 477.513 308.992 475.69 306.59C474.25 304.695 472.687 302.896 471.012 301.205C469.613 299.788 468.443 298.758 467.717 298.125C466.137 296.75 464.478 295.469 462.749 294.288C461.152 293.197 459.638 292.286 458.274 291.538C456.91 290.79 455.687 290.218 454.684 289.751C453.681 289.285 452.88 288.986 452.361 288.788L451.679 288.541C451.239 288.387 450.618 288.172 449.862 287.934C449.105 287.697 448.22 287.433 447.257 287.173C446.293 286.913 445.264 286.671 444.212 286.469C441.001 285.898 437.731 285.736 434.479 285.985C430.591 286.26 426.734 286.869 422.951 287.807C418.688 288.851 414.506 290.201 410.438 291.846C401.939 295.268 393.946 299.83 386.678 305.407C383.504 307.847 380.475 310.469 377.605 313.261C374.899 315.901 372.505 318.51 370.393 321.018C368.281 323.526 366.424 325.928 364.88 328.124Z" fill="#ECE7E1" stroke="black" stroke-miterlimit="10" stroke-linecap="round"/>
<path d="M493.8 301.447C496.265 299.843 498.454 297.85 500.281 295.546C502.186 293.182 503.71 290.535 504.8 287.701C505.881 284.95 506.415 282.015 506.371 279.059C506.317 276.133 505.499 273.271 503.999 270.757C502.53 268.328 500.518 266.274 498.121 264.755C495.697 263.229 492.989 262.21 490.161 261.759C487.168 261.277 484.113 261.338 481.141 261.939C477.945 262.581 474.884 263.772 472.095 265.459C471.879 265.587 471.655 265.719 471.461 265.851L470.845 266.26C470.638 266.401 470.44 266.537 470.238 266.7L469.648 267.14L468.61 266.625L467.572 266.106L466.52 265.6L465.482 265.081V268.029C465.482 268.521 465.482 269.01 465.482 269.503V270.977C465.482 271.06 465.332 271.227 465.099 271.443C464.866 271.659 464.558 271.914 464.219 272.169C463.88 272.424 463.568 272.684 463.299 272.895C463.109 273.031 462.927 273.178 462.754 273.335C462.346 273.766 461.959 274.215 461.592 274.681C461.224 275.146 460.881 275.629 460.562 276.129C460.242 276.628 459.948 277.144 459.682 277.673C459.415 278.203 459.177 278.746 458.97 279.301C458.447 280.706 458.134 282.179 458.041 283.675C457.95 285.166 458.049 286.662 458.336 288.128C458.615 289.604 459.058 291.044 459.656 292.422C460.252 293.797 460.99 295.107 461.856 296.329C463.598 298.772 465.85 300.808 468.456 302.296C471.005 303.744 473.806 304.694 476.71 305.094C479.639 305.506 482.617 305.405 485.51 304.795C488.453 304.19 491.262 303.055 493.8 301.447Z" fill="#F2B3C1" stroke="black" stroke-miterlimit="10" stroke-linecap="round"/>
<path d="M476.143 273.925C475.996 274.007 475.835 274.06 475.668 274.079C475.506 274.1 475.341 274.088 475.184 274.043C475.024 274.001 474.874 273.927 474.743 273.826C474.613 273.724 474.504 273.598 474.422 273.454C474.34 273.31 474.286 273.151 474.265 272.987C474.244 272.822 474.255 272.655 474.299 272.495C474.34 272.336 474.412 272.186 474.51 272.055C474.614 271.921 474.743 271.809 474.889 271.725C475.035 271.641 475.197 271.588 475.364 271.566C475.526 271.549 475.69 271.561 475.848 271.601C476.007 271.644 476.157 271.717 476.288 271.817C476.422 271.92 476.534 272.048 476.618 272.195C476.702 272.341 476.756 272.503 476.776 272.671C476.796 272.833 476.784 272.997 476.741 273.155C476.699 273.314 476.626 273.464 476.526 273.595C476.423 273.73 476.292 273.843 476.143 273.925Z" fill="#040400"/>
<path d="M465.072 276.925C465.138 276.925 465.319 276.899 465.574 276.895C465.895 276.891 466.217 276.917 466.533 276.974C466.95 277.042 467.355 277.167 467.739 277.343C468.196 277.555 468.614 277.842 468.975 278.193C469.255 278.47 469.498 278.782 469.697 279.121C469.864 279.399 470.001 279.694 470.106 280.001C470.186 280.247 470.248 280.498 470.291 280.753C470.317 280.908 470.335 281.064 470.344 281.22" stroke="black" stroke-miterlimit="10" stroke-linecap="round"/>
<path d="M480.125 267.276L480.873 269.067L481.621 270.858L482.364 272.649L483.112 274.439" stroke="black" stroke-miterlimit="10" stroke-linecap="round"/>
<path d="M479.034 287.529C478.587 287.786 478.093 287.949 477.582 288.009C477.088 288.069 476.588 288.033 476.108 287.903C475.63 287.77 475.182 287.548 474.788 287.248C474.379 286.936 474.036 286.546 473.78 286.099C473.527 285.661 473.364 285.176 473.3 284.674C473.236 284.172 473.272 283.662 473.406 283.173C473.535 282.695 473.757 282.247 474.057 281.853C474.371 281.444 474.763 281.102 475.21 280.846C475.656 280.589 476.15 280.426 476.662 280.366C477.414 280.277 478.176 280.41 478.854 280.75C479.531 281.089 480.094 281.62 480.472 282.276C480.729 282.724 480.892 283.219 480.952 283.732C481.013 284.225 480.975 284.724 480.842 285.202C480.713 285.68 480.491 286.128 480.191 286.522C479.876 286.931 479.483 287.274 479.034 287.529Z" fill="#FF6406" stroke="#070707" stroke-miterlimit="10" stroke-linecap="round"/>
<path d="M488.608 303.911C488.912 303.801 489.224 303.686 489.545 303.559C489.866 303.431 490.192 303.295 490.526 303.149C490.861 303.004 491.204 302.846 491.547 302.679C491.89 302.511 492.247 302.331 492.603 302.137C493.266 301.777 493.894 301.406 494.486 301.024C495.079 300.643 495.632 300.26 496.145 299.876C496.66 299.493 497.135 299.106 497.575 298.732C498.015 298.358 498.424 297.984 498.794 297.632C498.989 297.846 499.173 298.071 499.344 298.305C499.575 298.618 499.779 298.949 499.956 299.295C500.152 299.689 500.3 300.106 500.396 300.536C500.502 301.002 500.529 301.482 500.475 301.957C500.351 302.843 499.974 303.675 499.388 304.351C498.767 305.082 498.006 305.681 497.148 306.111C496.272 306.567 495.319 306.858 494.337 306.969C493.389 307.082 492.428 306.966 491.534 306.63C491.156 306.479 490.797 306.284 490.465 306.049C490.165 305.836 489.886 305.595 489.633 305.327C489.409 305.092 489.202 304.84 489.013 304.575C488.866 304.361 488.731 304.139 488.608 303.911Z" fill="#F2B3C1" stroke="black" stroke-miterlimit="10" stroke-linecap="round"/>
<path d="M364.88 328.124C359.45 322.075 354.503 316.502 350.039 311.404C345.574 306.306 341.575 301.645 338.04 297.421C334.52 293.208 331.44 289.43 328.8 286.086C326.16 282.742 323.97 279.802 322.231 277.264C321.509 276.221 320.686 274.994 319.723 273.669C318.759 272.345 317.664 270.915 316.392 269.472C315.045 267.938 313.584 266.506 312.023 265.191C310.277 263.728 308.396 262.436 306.404 261.332C305.625 260.892 304.521 260.337 303.324 259.726C302.127 259.114 300.772 258.459 299.536 257.86C298.299 257.262 297.164 256.712 296.337 256.316L294.986 255.669L273.448 244.92L251.936 234.149L230.425 223.36L208.913 212.589L201.609 226.198L194.301 239.807L186.997 253.416L179.688 267.025L204.768 277.792L229.848 288.555L254.928 299.321L279.986 310.088C285.684 321.119 291.039 331.424 295.967 340.84C300.895 350.256 305.388 358.779 309.365 366.25C313.343 373.721 316.797 380.145 319.639 385.346C322.482 390.547 324.668 394.52 326.204 397.16C326.411 397.516 326.688 397.983 327.044 398.537C327.401 399.091 327.836 399.729 328.364 400.42C328.892 401.111 329.5 401.859 330.208 402.62C330.966 403.448 331.772 404.23 332.624 404.961C334.606 406.664 336.803 408.1 339.158 409.233C341.211 410.224 343.357 411.011 345.564 411.583C347.334 412.044 349.133 412.382 350.95 412.595C352.472 412.775 353.678 412.833 354.412 412.863C355.732 412.912 356.951 412.894 358.108 412.824C359.266 412.753 360.357 412.639 361.373 412.494C362.39 412.349 363.34 412.173 364.224 411.988C365.109 411.803 365.923 411.618 366.68 411.438C368.176 411.09 369.557 410.694 370.851 410.276C372.144 409.858 373.346 409.396 374.476 408.956C375.607 408.516 376.676 408.015 377.675 407.539C378.674 407.064 379.638 406.585 380.566 406.123C382.238 405.282 383.782 404.437 385.221 403.593C386.66 402.748 387.993 401.903 389.238 401.071C390.484 400.24 391.641 399.426 392.732 398.629C393.823 397.833 394.848 397.063 395.812 396.324C396.776 395.585 397.598 394.955 398.417 394.304C399.235 393.653 400.01 393.015 400.731 392.412C401.453 391.809 402.122 391.229 402.742 390.687C403.362 390.146 403.93 389.64 404.445 389.174L394.549 373.919C391.252 368.815 387.962 363.72 384.68 358.633C381.398 353.547 378.099 348.462 374.784 343.379C371.47 338.292 368.168 333.207 364.88 328.124Z" fill="#84A1E5" stroke="#070707" stroke-miterlimit="10" stroke-linecap="round"/>
<path d="M288.377 265.925C288.003 268.99 287.876 272.08 287.999 275.165C288.144 278.593 288.701 281.991 289.658 285.285C290.555 288.407 291.844 291.402 293.494 294.2C295.054 296.844 296.98 299.254 299.214 301.359C301.355 303.379 303.812 305.037 306.488 306.265C307.708 306.817 308.972 307.266 310.267 307.607C311.485 307.922 312.725 308.145 313.976 308.271C315.162 308.389 316.354 308.424 317.545 308.377C318.671 308.334 319.793 308.224 320.906 308.047C321.015 310.509 321.361 312.955 321.94 315.351C322.439 317.44 323.095 319.489 323.903 321.48C324.564 323.087 325.318 324.655 326.16 326.175C326.877 327.495 327.528 328.489 327.995 329.175C329.596 331.523 331.431 333.702 333.473 335.679C335.531 337.675 337.777 339.468 340.178 341.033C342.608 342.623 345.181 343.98 347.865 345.086C350.585 346.209 353.405 347.074 356.287 347.669C358.595 348.142 360.935 348.445 363.287 348.575C365.45 348.694 367.618 348.665 369.777 348.487C371.756 348.323 373.724 348.039 375.669 347.638C376.223 347.523 376.76 347.396 377.292 347.268L374.771 343.379L374.569 343.071C372.537 343.49 370.479 343.764 368.409 343.893C361.999 344.312 355.578 343.259 349.638 340.813C347.23 339.823 344.921 338.609 342.739 337.188C340.583 335.781 338.567 334.169 336.72 332.374C334.893 330.609 333.25 328.661 331.818 326.562C331.378 325.928 330.789 324.991 330.124 323.785C329.35 322.371 328.663 320.91 328.065 319.412C327.327 317.555 326.739 315.642 326.305 313.692C325.811 311.481 325.545 309.225 325.509 306.96L325.57 306.938H325.632H325.694L325.755 306.916C326.635 306.634 327.44 306.339 328.18 306.036C328.919 305.732 329.592 305.437 330.186 305.156C330.78 304.874 331.29 304.606 331.713 304.377C332.135 304.148 332.465 303.937 332.694 303.814C334.534 302.699 336.249 301.391 337.811 299.911C338.251 299.511 338.643 299.097 339.043 298.67L338.04 297.421C337.349 296.602 336.685 295.806 336.034 295.018C335.594 295.524 335.114 296.017 334.621 296.483C333.303 297.739 331.851 298.847 330.292 299.788C330.129 299.885 329.909 300.017 329.632 300.171C329.354 300.325 329.029 300.501 328.65 300.69C328.272 300.879 327.85 301.086 327.379 301.293C326.908 301.499 326.398 301.733 325.843 301.926C325.9 301.543 325.966 301.152 326.041 300.765C326.116 300.377 326.195 299.981 326.283 299.585C326.371 299.189 326.472 298.793 326.578 298.397C326.684 298.001 326.802 297.597 326.93 297.196C327.194 296.347 327.493 295.515 327.81 294.693C328.127 293.87 328.51 293.069 328.91 292.281C329.31 291.494 329.746 290.724 330.23 289.967C330.472 289.58 330.718 289.201 330.974 288.823C330.221 287.881 329.495 286.966 328.8 286.086L327.973 285.021C327.374 285.835 326.807 286.667 326.279 287.521C325.751 288.374 325.245 289.281 324.783 290.161C324.321 291.041 323.903 291.987 323.52 292.928C323.137 293.87 322.794 294.825 322.49 295.797C322.288 296.439 322.108 297.082 321.949 297.715C321.791 298.349 321.646 298.983 321.509 299.607C321.373 300.232 321.285 300.857 321.197 301.473C321.109 302.089 321.043 302.696 320.986 303.299C320.019 303.486 319.042 303.613 318.06 303.677C317.021 303.754 315.978 303.754 314.94 303.677C313.843 303.597 312.756 303.423 311.688 303.158C310.554 302.879 309.447 302.495 308.384 302.01C306.099 300.962 304.006 299.537 302.193 297.795C300.286 295.965 298.649 293.873 297.331 291.582C295.921 289.141 294.821 286.534 294.058 283.82C293.241 280.935 292.764 277.964 292.636 274.967C292.52 272.092 292.638 269.213 292.988 266.357C293.34 263.497 293.855 260.66 294.533 257.86C294.703 257.145 294.88 256.432 295.065 255.722L294.951 255.665L290.832 253.605C290.546 254.679 290.265 255.761 290.01 256.853C289.294 259.844 288.749 262.873 288.377 265.925Z" fill="#C6FCDB" stroke="black" stroke-miterlimit="10" stroke-linecap="round"/>
<path d="M259.28 293.382C260.063 291.644 260.737 289.86 261.3 288.04C261.876 286.171 262.298 284.258 262.562 282.32C262.839 280.264 262.895 278.184 262.73 276.116C262.575 274.151 262.199 272.21 261.608 270.33C261.049 268.517 260.267 266.78 259.28 265.16C258.32 263.601 257.152 262.179 255.808 260.936C254.598 259.825 253.26 258.862 251.822 258.067C250.295 257.226 248.683 256.551 247.013 256.052C245.159 255.498 243.262 255.103 241.341 254.873C239.163 254.611 236.97 254.494 234.776 254.525C232.843 254.543 230.959 254.642 229.122 254.824C227.288 255.005 225.501 255.264 223.776 255.612C222.087 255.945 220.417 256.368 218.774 256.879C217.201 257.369 215.659 257.949 214.154 258.617C214.268 258.292 214.378 257.962 214.484 257.627C214.585 257.297 214.686 256.958 214.774 256.62C214.862 256.281 214.946 255.942 215.016 255.594C215.086 255.247 215.152 254.904 215.21 254.552C215.392 253.388 215.449 252.208 215.381 251.032C215.318 249.927 215.129 248.833 214.818 247.771C214.52 246.758 214.096 245.787 213.555 244.88C213.033 244.002 212.389 243.202 211.641 242.504C210.671 241.6 209.546 240.879 208.319 240.375C207.02 239.845 205.644 239.524 204.245 239.424C202.653 239.311 201.053 239.391 199.48 239.662C197.641 239.975 195.834 240.452 194.081 241.088L193.482 241.312L189.998 247.802L190.521 247.555C192.193 246.787 193.9 246.092 195.643 245.47C196.606 245.123 197.587 244.829 198.582 244.59C199.716 244.309 200.874 244.131 202.04 244.058C203.205 243.973 204.376 244.068 205.512 244.339C206.615 244.601 207.634 245.138 208.473 245.901C209.01 246.4 209.457 246.988 209.793 247.639C210.121 248.286 210.365 248.972 210.519 249.681C210.669 250.381 210.75 251.094 210.761 251.81C210.774 252.482 210.73 253.153 210.629 253.817C210.498 254.625 210.31 255.424 210.066 256.206C209.812 257.003 209.519 257.788 209.186 258.555C208.856 259.33 208.495 260.096 208.117 260.857C207.738 261.618 207.347 262.375 206.96 263.123L205.829 265.296L204.702 267.47L203.572 269.67L202.441 271.844L204.43 270.409L206.414 268.97L208.398 267.536L210.383 266.097C211.964 264.961 213.647 263.975 215.412 263.154C217.285 262.279 219.226 261.56 221.216 261.002C223.348 260.408 225.52 259.967 227.714 259.682C230.071 259.371 232.444 259.207 234.82 259.189C236.716 259.164 238.612 259.258 240.496 259.471C242.134 259.651 243.753 259.969 245.336 260.421C246.74 260.819 248.097 261.367 249.384 262.054C250.569 262.69 251.67 263.47 252.662 264.377C253.723 265.363 254.639 266.495 255.382 267.738C256.16 269.049 256.776 270.45 257.216 271.91C257.684 273.449 257.979 275.035 258.096 276.639C258.225 278.322 258.177 280.013 257.956 281.686C257.718 283.427 257.333 285.145 256.807 286.821C256.289 288.47 255.673 290.086 254.964 291.661C254.264 293.219 253.498 294.715 252.72 296.123C252.376 296.745 252.03 297.349 251.681 297.935L254.876 299.304L255.984 299.784C256.279 299.278 256.57 298.767 256.864 298.244C257.705 296.721 258.532 295.08 259.28 293.382Z" fill="#C6FCDB" stroke="black" stroke-miterlimit="10" stroke-linecap="round"/>
<path d="M376.32 391.44C373.556 387.554 370.227 384.103 366.442 381.201C362.823 378.41 358.666 376.398 354.232 375.292C351.971 374.752 349.647 374.522 347.324 374.61C345.064 374.703 342.828 375.109 340.68 375.816C338.491 376.541 336.411 377.557 334.494 378.838C332.472 380.195 330.626 381.797 328.998 383.608C327.081 385.74 325.453 388.116 324.158 390.674C323.894 391.189 323.648 391.717 323.414 392.25C324.51 394.208 325.447 395.844 326.213 397.142C326.266 397.239 326.332 397.345 326.398 397.459C326.889 395.84 327.522 394.268 328.29 392.76C329.402 390.572 330.798 388.541 332.443 386.719C333.785 385.217 335.307 383.887 336.975 382.759C338.552 381.7 340.262 380.857 342.062 380.251C343.826 379.661 345.664 379.322 347.522 379.243C349.42 379.162 351.32 379.345 353.167 379.789C357.1 380.784 360.775 382.607 363.947 385.135C367.321 387.809 370.285 390.962 372.747 394.494C375.297 398.099 377.413 401.992 379.052 406.092C379.136 406.294 379.206 406.497 379.286 406.699L380.544 406.074C381.56 405.564 382.528 405.049 383.457 404.534C383.408 404.407 383.364 404.279 383.312 404.152C381.503 399.648 379.155 395.379 376.32 391.44Z" fill="#C6FCDB" stroke="black" stroke-miterlimit="10" stroke-linecap="round"/>
<path d="M326.675 352.064C326.153 351.459 325.465 351.021 324.695 350.805C323.926 350.589 323.11 350.604 322.35 350.85C321.833 351.014 321.355 351.282 320.946 351.637C320.341 352.159 319.904 352.847 319.687 353.615C319.471 354.384 319.486 355.199 319.73 355.959C319.974 356.719 320.436 357.391 321.059 357.89C321.683 358.389 322.439 358.693 323.234 358.765C323.775 358.812 324.319 358.751 324.836 358.585C325.353 358.42 325.832 358.152 326.244 357.797C327.057 357.095 327.56 356.1 327.643 355.028C327.725 353.957 327.38 352.896 326.684 352.077L326.675 352.064Z" fill="#C6FCDB" stroke="black" stroke-miterlimit="10" stroke-linecap="round"/>
<path d="M364.88 328.124L355.411 317.265L345.938 306.401L336.456 295.542L326.987 284.678C326.067 283.628 325.092 282.628 324.066 281.682C321.604 279.377 318.927 277.314 316.071 275.522C312.394 273.177 308.359 271.448 304.125 270.405C299.27 269.229 294.197 269.289 289.372 270.581L262.426 279.174L235.48 287.767L208.539 296.356L181.594 304.949L186.557 320.397L191.52 335.828L196.483 351.277L201.446 366.721L223.09 358.105L244.734 349.486L266.377 340.866L288.021 332.247L298.04 349.292L308.054 366.333L318.073 383.379L328.087 400.425C329.464 402.169 331.048 403.74 332.804 405.102C336.97 408.426 341.833 410.768 347.029 411.953C353.365 413.405 361.307 413.427 370.873 410.223C380.438 407.02 391.619 400.592 404.449 389.147L394.554 373.893L384.68 358.633L374.784 343.379L364.88 328.124Z" fill="#84A1E5" stroke="#070707" stroke-miterlimit="10" stroke-linecap="round"/>
<path d="M377.284 347.268C378.538 346.965 379.739 346.626 380.874 346.261C382.115 345.865 383.276 345.438 384.363 345.002C385.45 344.567 386.449 344.122 387.368 343.682C388.288 343.242 389.128 342.802 389.846 342.411C390.563 342.019 391.223 341.623 391.764 341.289C392.031 341.128 392.261 340.914 392.442 340.66C392.79 340.165 392.933 339.555 392.842 338.957C392.794 338.645 392.685 338.346 392.521 338.077C392.357 337.812 392.142 337.583 391.887 337.403C391.643 337.229 391.366 337.105 391.073 337.038C390.785 336.97 390.486 336.959 390.193 337.003C389.881 337.048 389.581 337.158 389.313 337.324C387.933 338.167 386.505 338.928 385.036 339.603C382.724 340.672 380.33 341.555 377.878 342.243C376.822 342.538 375.713 342.811 374.551 343.049L374.754 343.357L377.284 347.268Z" fill="#C6FCDB" stroke="black" stroke-miterlimit="10" stroke-linecap="round"/>
<path d="M287.999 275.174C288.144 278.602 288.701 282 289.658 285.294C290.555 288.413 291.845 291.405 293.494 294.2C295.054 296.844 296.98 299.254 299.214 301.359C301.355 303.38 303.812 305.037 306.488 306.265C307.708 306.817 308.972 307.266 310.267 307.607C311.485 307.923 312.725 308.145 313.976 308.271C315.162 308.389 316.354 308.424 317.545 308.377C318.671 308.334 319.793 308.224 320.906 308.047C321.015 310.509 321.361 312.955 321.94 315.351C322.439 317.44 323.095 319.489 323.903 321.48C324.564 323.087 325.318 324.655 326.16 326.175C326.877 327.495 327.528 328.489 327.995 329.175C329.596 331.523 331.431 333.702 333.473 335.679C335.531 337.675 337.777 339.468 340.178 341.033C342.608 342.623 345.181 343.98 347.865 345.086C350.585 346.209 353.405 347.074 356.287 347.669C358.595 348.142 360.935 348.445 363.287 348.575C365.45 348.694 367.618 348.665 369.777 348.487C371.756 348.323 373.724 348.039 375.669 347.638C376.223 347.523 376.76 347.396 377.292 347.268L374.771 343.379L374.569 343.071C372.537 343.49 370.479 343.764 368.409 343.893C361.999 344.312 355.578 343.259 349.638 340.813C347.23 339.823 344.921 338.609 342.739 337.188C340.583 335.781 338.567 334.169 336.72 332.374C334.893 330.609 333.25 328.661 331.818 326.562C331.378 325.928 330.789 324.991 330.124 323.785C329.35 322.371 328.663 320.91 328.065 319.412C327.327 317.555 326.739 315.642 326.305 313.692C325.811 311.481 325.545 309.225 325.509 306.96L325.57 306.938H325.632H325.694L325.755 306.916C326.635 306.634 327.44 306.34 328.18 306.036C328.919 305.732 329.592 305.438 330.186 305.156C330.78 304.874 331.29 304.606 331.713 304.377C332.135 304.148 332.465 303.937 332.694 303.814C334.534 302.699 336.249 301.391 337.811 299.911C338.251 299.471 338.691 299.057 339.092 298.591L336.452 295.568L336.012 295.062C335.572 295.564 335.096 296.048 334.612 296.51C333.294 297.766 331.842 298.874 330.283 299.814C330.12 299.911 329.9 300.043 329.623 300.197C329.346 300.351 329.02 300.527 328.642 300.716C328.263 300.905 327.841 301.112 327.37 301.319C326.899 301.526 326.389 301.759 325.834 301.953C325.892 301.57 325.958 301.178 326.032 300.791C326.107 300.404 326.186 300.008 326.274 299.612C326.362 299.216 326.464 298.82 326.569 298.424C326.675 298.028 326.794 297.623 326.921 297.223C327.185 296.373 327.484 295.542 327.801 294.719C328.118 293.896 328.501 293.095 328.901 292.308C329.302 291.52 329.737 290.75 330.221 289.993C330.41 289.69 330.608 289.391 330.806 289.091L327.656 285.483C327.172 286.157 326.706 286.843 326.27 287.547C325.733 288.427 325.235 289.307 324.774 290.187C324.334 291.093 323.894 292.013 323.511 292.955C323.128 293.896 322.785 294.851 322.482 295.823C322.279 296.466 322.099 297.108 321.94 297.742C321.782 298.375 321.637 299.009 321.5 299.634C321.364 300.259 321.276 300.884 321.188 301.5C321.1 302.116 321.034 302.723 320.977 303.325C320.01 303.513 319.033 303.639 318.051 303.704C317.012 303.781 315.97 303.781 314.931 303.704C313.835 303.623 312.747 303.45 311.68 303.185C310.545 302.905 309.439 302.521 308.375 302.036C306.09 300.988 303.997 299.563 302.184 297.821C300.277 295.991 298.64 293.899 297.322 291.608C295.912 289.168 294.812 286.56 294.049 283.847C293.232 280.961 292.755 277.99 292.628 274.994C292.555 273.296 292.568 271.595 292.667 269.899C291.551 270.065 290.444 270.294 289.354 270.585L287.968 271.025C287.937 272.389 287.937 273.784 287.999 275.174Z" fill="#C6FCDB" stroke="black" stroke-miterlimit="10" stroke-linecap="round"/>
<path d="M383.329 404.174C381.516 399.661 379.163 395.385 376.32 391.44C373.556 387.554 370.227 384.103 366.442 381.201C362.823 378.41 358.666 376.398 354.232 375.292C351.971 374.752 349.647 374.522 347.324 374.61C345.064 374.703 342.828 375.109 340.68 375.816C338.491 376.541 336.411 377.557 334.494 378.838C332.471 380.195 330.626 381.797 328.998 383.608C327.081 385.74 325.453 388.116 324.158 390.674C323.876 391.229 323.612 391.792 323.362 392.364L326.384 397.503C326.877 395.869 327.515 394.281 328.29 392.76C329.402 390.572 330.798 388.541 332.443 386.719C333.785 385.217 335.307 383.887 336.975 382.759C338.552 381.7 340.262 380.857 342.062 380.251C343.826 379.661 345.664 379.322 347.522 379.243C349.42 379.162 351.32 379.345 353.167 379.789C357.1 380.784 360.775 382.607 363.947 385.135C367.321 387.809 370.285 390.962 372.747 394.494C375.297 398.099 377.413 401.992 379.052 406.092C379.136 406.294 379.211 406.501 379.29 406.704C380.645 406.035 382.036 405.304 383.448 404.504C383.417 404.411 383.36 404.292 383.329 404.174Z" fill="#C6FCDB" stroke="black" stroke-miterlimit="10" stroke-linecap="round"/>
<path d="M233.232 347.061C232.448 346.035 231.578 345.077 230.632 344.197C229.683 343.316 228.663 342.514 227.582 341.799C226.499 341.079 225.357 340.45 224.168 339.92C225.755 339.125 227.297 338.244 228.788 337.28C230.308 336.3 231.776 335.243 233.188 334.112C234.59 332.986 235.931 331.786 237.205 330.517C238.453 329.278 239.628 327.967 240.725 326.593C242.269 324.672 243.628 322.61 244.782 320.433C245.853 318.41 246.702 316.279 247.316 314.075C247.895 311.981 248.219 309.826 248.28 307.655C248.43 303.229 247.321 298.852 245.081 295.031C243.841 292.884 242.366 290.881 240.681 289.061C239.968 288.282 239.203 287.534 238.415 286.808L235.467 287.749L232.59 288.665C234.071 289.786 235.453 291.033 236.721 292.391C238.142 293.907 239.392 295.574 240.448 297.363C242.124 300.149 243.035 303.327 243.088 306.577C243.124 308.221 242.966 309.863 242.617 311.47C242.187 313.423 241.524 315.316 240.642 317.111C239.541 319.334 238.198 321.429 236.638 323.359C235.409 324.896 234.072 326.345 232.638 327.693C231.19 329.071 229.654 330.354 228.04 331.534C226.426 332.705 224.737 333.769 222.984 334.719C221.293 335.637 219.538 336.43 217.731 337.091C217.389 337.215 217.07 337.393 216.785 337.619C216.51 337.837 216.274 338.098 216.085 338.393C215.895 338.687 215.754 339.009 215.667 339.348C215.531 339.871 215.525 340.419 215.65 340.945C215.775 341.47 216.027 341.957 216.384 342.362C216.619 342.626 216.893 342.85 217.198 343.027C217.513 343.206 217.855 343.334 218.21 343.405C219.538 343.672 220.831 344.09 222.065 344.65C223.297 345.206 224.465 345.893 225.55 346.701C226.627 347.5 227.614 348.415 228.493 349.429C229.365 350.428 230.114 351.529 230.724 352.707C231.061 353.357 231.355 354.029 231.604 354.717L236.4 352.808C236.09 351.962 235.729 351.136 235.318 350.335C234.719 349.185 234.021 348.09 233.232 347.061Z" fill="#C6FCDB" stroke="black" stroke-miterlimit="10" stroke-linecap="round"/>
<path d="M326.244 357.797C327.057 357.095 327.56 356.1 327.643 355.028C327.725 353.956 327.38 352.896 326.684 352.077C326.162 351.472 325.474 351.034 324.704 350.818C323.935 350.602 323.119 350.617 322.358 350.863C321.842 351.027 321.364 351.295 320.955 351.651C320.35 352.172 319.912 352.86 319.696 353.628C319.48 354.397 319.495 355.212 319.739 355.972C319.983 356.732 320.445 357.404 321.068 357.903C321.691 358.402 322.448 358.707 323.243 358.779C323.783 358.825 324.328 358.764 324.844 358.598C325.36 358.428 325.836 358.155 326.244 357.797Z" fill="#C6FCDB" stroke="black" stroke-miterlimit="10" stroke-linecap="round"/>
<path d="M181.616 304.927L185.8 317.898L189.967 330.869L194.138 343.845L198.305 356.816L187.12 360.402L175.962 363.988L164.803 367.57L153.64 371.156C153.031 371.351 152.378 371.363 151.763 371.19C151.147 371.017 150.596 370.667 150.178 370.183C149.895 369.852 149.681 369.468 149.548 369.053L143.696 350.841L137.84 332.625L131.988 314.413L126.136 296.197C125.935 295.574 125.895 294.911 126.021 294.268C126.146 293.625 126.432 293.025 126.853 292.523C127.138 292.185 127.48 291.901 127.865 291.683C129.268 290.869 130.769 290.236 132.331 289.8C134.231 289.261 136.22 289.111 138.179 289.36C140.555 289.703 142.806 290.638 144.726 292.079C146.926 293.703 149.174 296.136 151.291 299.665C151.713 300.372 152.169 301.057 152.659 301.719C153.149 302.378 153.671 303.011 154.226 303.616C154.78 304.218 155.368 304.79 155.986 305.327C156.606 305.865 157.258 306.365 157.939 306.823C158.69 307.334 159.476 307.788 160.293 308.183C161.134 308.595 162.014 308.922 162.92 309.16C163.842 309.404 164.791 309.526 165.745 309.525C166.746 309.529 167.741 309.381 168.697 309.085L171.931 308.047L175.161 307.008L178.395 305.97L181.616 304.927Z" fill="#DBCAF4" stroke="black" stroke-miterlimit="10" stroke-linecap="round"/>
<path d="M186.711 339.018C185.823 339.305 185.022 339.808 184.379 340.484C183.757 341.138 183.304 341.934 183.059 342.802C182.706 342.524 182.322 342.288 181.915 342.098C181.506 341.911 181.076 341.774 180.634 341.689C180.185 341.601 179.727 341.57 179.27 341.597C178.324 341.652 177.407 341.946 176.604 342.45C176.219 342.7 175.866 342.996 175.552 343.33C175.242 343.656 174.973 344.018 174.752 344.408C174.529 344.797 174.353 345.21 174.228 345.64C173.524 345.08 172.693 344.7 171.808 344.536C171.361 344.447 170.903 344.417 170.448 344.448C169.229 344.511 168.064 344.975 167.135 345.768C166.589 346.236 166.141 346.808 165.815 347.449C165.478 348.099 165.274 348.809 165.213 349.539C165.153 350.268 165.238 351.003 165.463 351.699L166.603 355.25L167.747 358.796L168.886 362.347L170.026 365.898L172.226 365.19L174.426 364.481L176.626 363.773L178.826 363.064L179.266 362.919L179.706 362.774L180.146 362.633L180.586 362.488L182.346 361.92L184.106 361.357L185.866 360.79L187.626 360.226L188.066 360.086L188.506 359.94L188.946 359.8L189.386 359.654L191.586 358.946L193.786 358.238L195.986 357.525L198.186 356.816L197.042 353.266L195.902 349.719L194.763 346.168L193.72 342.622C193.494 341.91 193.126 341.251 192.638 340.686C192.169 340.143 191.599 339.694 190.961 339.366C190.31 339.031 189.598 338.828 188.868 338.769C188.138 338.709 187.404 338.794 186.706 339.018H186.711Z" fill="#ECE7E1" stroke="black" stroke-miterlimit="10" stroke-linecap="round"/>
<path d="M183.054 342.807L184.388 346.951L185.721 351.101L187.05 355.245L188.383 359.395" stroke="black" stroke-miterlimit="10" stroke-linecap="round"/>
<path d="M174.215 345.645L175.548 349.789L176.881 353.939L178.21 358.088L179.543 362.233" stroke="black" stroke-miterlimit="10" stroke-linecap="round"/>
<path d="M146.812 308.623L148.286 306.92L149.764 305.217L151.242 303.515L152.716 301.812" stroke="black" stroke-miterlimit="10" stroke-linecap="round"/>
<path d="M154.226 315.007L155.51 313.186L156.795 311.364L158.08 309.543L159.365 307.721" stroke="black" stroke-miterlimit="10" stroke-linecap="round"/>
<path d="M162.44 303.462C163.228 303.462 164.02 303.413 164.816 303.352C165.613 303.29 166.405 303.211 167.192 303.092C167.98 302.973 168.768 302.833 169.538 302.652C170.308 302.469 171.067 302.243 171.812 301.975C172.467 301.723 173.098 301.415 173.7 301.055C174.462 300.614 175.182 300.104 175.852 299.533C176.491 299.005 177.029 298.365 177.44 297.645C177.618 297.345 177.727 297.01 177.761 296.663C177.794 296.317 177.751 295.967 177.634 295.639C177.433 295.146 177.115 294.71 176.708 294.367C176.301 294.024 175.817 293.786 175.297 293.672C174.071 293.394 172.803 293.355 171.562 293.557C170.214 293.742 168.882 294.023 167.575 294.398C166.33 294.741 165.239 295.093 164.495 295.309C163.426 295.612 162.37 295.969 161.332 296.365C160.293 296.761 159.268 297.205 158.252 297.685C157.235 298.164 156.254 298.683 155.286 299.229C154.318 299.775 153.368 300.36 152.439 300.989C153.495 300.291 154.483 299.494 155.387 298.609C156.286 297.731 157.121 296.792 157.886 295.797C158.665 294.807 159.387 293.769 160.086 292.717C160.786 291.665 161.446 290.587 162.106 289.518C162.414 289.03 162.709 288.524 162.986 288.009C163.263 287.494 163.536 286.971 163.778 286.434C164.02 285.899 164.234 285.353 164.42 284.797C164.602 284.242 164.749 283.676 164.86 283.103C164.961 282.533 165.014 281.957 165.019 281.378C165.032 280.71 164.97 280.043 164.834 279.389C164.717 278.775 164.464 278.195 164.095 277.691C163.918 277.45 163.693 277.248 163.435 277.096C163.177 276.945 162.891 276.848 162.594 276.811C162.117 276.77 161.638 276.871 161.217 277.101C160.725 277.361 160.268 277.684 159.858 278.061C159.433 278.45 159.032 278.864 158.656 279.301C158.296 279.715 157.983 280.115 157.737 280.428C157.38 280.868 157.05 281.361 156.738 281.849C156.426 282.337 156.14 282.839 155.858 283.354C155.576 283.869 155.339 284.392 155.11 284.92C154.881 285.448 154.67 285.994 154.472 286.535C154.094 287.591 153.764 288.669 153.491 289.765C153.218 290.86 152.994 291.965 152.822 293.087C152.65 294.209 152.536 295.335 152.466 296.461C152.395 297.588 152.382 298.714 152.413 299.836C152.409 300.342 152.503 300.844 152.69 301.315C152.837 301.67 153.083 301.976 153.398 302.195C153.744 302.421 154.124 302.588 154.525 302.687C154.965 302.815 155.475 302.916 156.047 303.031C156.619 303.145 157.099 303.215 157.627 303.281C158.155 303.347 158.687 303.396 159.22 303.427C159.752 303.457 160.284 303.479 160.821 303.488C161.358 303.497 161.908 303.475 162.44 303.462Z" stroke="black" stroke-miterlimit="10" stroke-linecap="round"/>
<path d="M208.878 212.575L202.379 224.552L195.876 236.525L189.373 248.497L182.87 260.474L172.569 254.877L162.269 249.285L151.968 243.688L141.668 238.095C141.285 237.889 140.947 237.607 140.674 237.268C140.146 236.605 139.897 235.762 139.978 234.919C140.023 234.485 140.153 234.065 140.361 233.682L149.491 216.87L158.621 200.062L167.76 183.249L176.89 166.437C177.101 166.048 177.378 165.698 177.708 165.403C178.029 165.115 178.394 164.881 178.791 164.712C179.6 164.368 180.504 164.317 181.347 164.567C182.9 165.022 184.39 165.669 185.782 166.494C187.48 167.5 188.958 168.836 190.13 170.423C191.521 172.375 192.4 174.644 192.686 177.023C193.047 179.751 192.827 183.043 191.736 187.011C191.516 187.803 191.335 188.609 191.194 189.418C191.054 190.228 190.961 191.042 190.904 191.86C190.85 192.678 190.843 193.497 190.882 194.315C190.921 195.136 191.01 195.953 191.15 196.762C191.301 197.656 191.516 198.538 191.793 199.402C192.077 200.291 192.447 201.15 192.897 201.967C193.36 202.801 193.926 203.572 194.582 204.264C195.278 204.986 196.079 205.599 196.958 206.081L199.942 207.7L202.925 209.319L205.904 210.939L208.878 212.575Z" fill="#DBCAF4" stroke="black" stroke-miterlimit="10" stroke-linecap="round"/>
<path d="M187.745 239.812C187.329 239.582 186.886 239.409 186.425 239.297C185.541 239.077 184.616 239.077 183.732 239.297C183.296 239.405 182.875 239.566 182.478 239.776C182.438 239.327 182.343 238.883 182.196 238.456C181.902 237.594 181.4 236.818 180.736 236.195C180.389 235.873 180.003 235.597 179.587 235.372C178.777 234.932 177.87 234.699 176.947 234.694C176.502 234.697 176.059 234.751 175.627 234.857C175.193 234.965 174.774 235.124 174.378 235.332C174.334 234.883 174.238 234.44 174.092 234.012C173.944 233.588 173.746 233.183 173.502 232.807C173.251 232.425 172.956 232.075 172.622 231.764C172.276 231.445 171.892 231.17 171.478 230.946C170.179 230.241 168.653 230.081 167.236 230.5C165.819 230.919 164.626 231.883 163.919 233.181L162.159 236.459L160.377 239.732L158.617 243.01L156.857 246.284L158.89 247.393L160.922 248.497L162.955 249.602L164.992 250.706L165.406 250.93L165.82 251.155L166.26 251.384L166.673 251.608L168.297 252.488L169.92 253.368L171.544 254.248L173.168 255.128L173.577 255.352L173.99 255.577L174.4 255.797L174.809 256.021L176.85 257.13L178.888 258.234L180.925 259.343L182.966 260.452L184.726 257.174L186.486 253.9L188.268 250.622L190.028 247.344C190.386 246.692 190.608 245.973 190.68 245.232C190.823 243.786 190.395 242.341 189.487 241.206C189.008 240.627 188.415 240.153 187.745 239.812Z" fill="#ECE7E1" stroke="black" stroke-miterlimit="10" stroke-linecap="round"/>
<path d="M182.482 239.781L180.406 243.609L178.324 247.437L176.243 251.265L174.166 255.093" stroke="black" stroke-miterlimit="10" stroke-linecap="round"/>
<path d="M174.32 235.35L172.244 239.178L170.167 243.006L168.086 246.834L166.009 250.662" stroke="black" stroke-miterlimit="10" stroke-linecap="round"/>
<path d="M182.166 189.96L184.418 189.854L186.671 189.744L188.92 189.638L191.172 189.528" stroke="black" stroke-miterlimit="10" stroke-linecap="round"/>
<path d="M182.672 199.732L184.872 199.402L187.072 199.076L189.272 198.746L191.472 198.416" stroke="black" stroke-miterlimit="10" stroke-linecap="round"/>
<path d="M196.694 197.703C197.249 198.258 197.821 198.808 198.415 199.34C199.009 199.873 199.616 200.392 200.241 200.88C200.866 201.369 201.517 201.839 202.186 202.266C202.851 202.697 203.54 203.091 204.249 203.445C204.882 203.746 205.54 203.99 206.216 204.176C207.061 204.423 207.927 204.591 208.803 204.677C209.626 204.779 210.46 204.727 211.263 204.523C211.602 204.446 211.92 204.295 212.194 204.08C212.468 203.866 212.691 203.593 212.847 203.283C213.066 202.797 213.163 202.266 213.13 201.735C213.097 201.203 212.935 200.688 212.658 200.233C212.012 199.154 211.165 198.208 210.163 197.448C209.095 196.605 207.97 195.836 206.797 195.147C205.692 194.487 204.68 193.937 204.007 193.541C203.048 192.982 202.062 192.463 201.059 191.988C200.056 191.513 199.026 191.073 197.979 190.668C196.932 190.263 195.885 189.915 194.816 189.594C193.746 189.273 192.677 188.987 191.595 188.714C192.827 188.997 194.084 189.162 195.348 189.207C196.604 189.25 197.861 189.204 199.11 189.071C200.364 188.947 201.614 188.754 202.854 188.525C204.095 188.296 205.336 188.041 206.564 187.781C207.131 187.663 207.699 187.531 208.266 187.377C208.834 187.223 209.397 187.055 209.952 186.862C210.505 186.666 211.048 186.443 211.58 186.193C212.109 185.943 212.62 185.658 213.111 185.339C213.592 185.02 214.045 184.661 214.466 184.266C214.961 183.814 215.404 183.307 215.786 182.757C216.149 182.248 216.393 181.665 216.503 181.049C216.55 180.757 216.538 180.459 216.467 180.171C216.396 179.884 216.267 179.614 216.09 179.377C215.787 179.002 215.382 178.724 214.924 178.577C214.396 178.399 213.847 178.293 213.291 178.26C212.717 178.225 212.141 178.225 211.566 178.26C211.016 178.286 210.515 178.335 210.114 178.374C209.538 178.431 208.966 178.519 208.398 178.629C207.831 178.739 207.272 178.885 206.713 179.043C206.154 179.201 205.609 179.391 205.063 179.589C204.518 179.787 203.985 180.029 203.457 180.244C202.428 180.699 201.422 181.206 200.443 181.762C199.462 182.317 198.507 182.924 197.579 183.575C196.65 184.226 195.757 184.917 194.895 185.647C194.032 186.378 193.205 187.143 192.418 187.94C192.049 188.288 191.75 188.703 191.538 189.163C191.386 189.513 191.337 189.899 191.397 190.276C191.478 190.684 191.626 191.075 191.837 191.433C192.052 191.838 192.33 192.274 192.642 192.753C192.954 193.233 193.232 193.633 193.548 194.073C193.865 194.513 194.2 194.918 194.543 195.327C194.886 195.737 195.242 196.137 195.608 196.529C195.973 196.92 196.32 197.325 196.694 197.703Z" stroke="black" stroke-miterlimit="10" stroke-linecap="round"/>
<path d="M450.68 310.515C450.68 310.515 451.45 310.559 452.761 310.691C454.072 310.823 455.929 311.048 458.107 311.413C460.285 311.778 462.789 312.293 465.389 312.979C468.083 313.683 470.72 314.589 473.278 315.69C476.535 317.093 479.344 319.362 481.401 322.25C483.335 324.983 484.546 328.162 484.921 331.49C485.313 334.797 484.849 338.15 483.574 341.227C482.208 344.476 479.958 347.276 477.08 349.31C474.451 351.176 471.543 352.615 468.465 353.574C465.4 354.521 462.239 355.12 459.04 355.36C455.803 355.608 452.553 355.64 449.312 355.457C446.073 355.298 442.861 354.986 439.764 354.656L430.277 353.64L420.791 352.623L411.304 351.611L401.84 350.595C400.054 350.406 398.184 350.291 396.278 350.19C394.373 350.089 392.433 349.996 390.501 349.851C388.57 349.706 386.656 349.499 384.781 349.169C382.954 348.861 381.159 348.38 379.422 347.735C376.346 346.535 373.63 344.565 371.533 342.015C369.395 339.396 367.697 336.448 366.504 333.285C365.252 330.041 364.3 326.689 363.661 323.271C363.056 320.104 362.615 316.908 362.341 313.696L361.021 301.002L359.728 288.308L358.408 275.614L357.114 262.92C356.81 262.533 356.507 262.124 356.208 261.706C355.908 261.288 355.6 260.848 355.301 260.386C355.002 259.924 354.707 259.466 354.421 258.987C354.135 258.507 353.836 258.006 353.541 257.495C353.022 256.562 352.55 255.637 352.124 254.719C351.684 253.804 351.315 252.893 350.972 252C350.628 251.106 350.325 250.24 350.052 249.36C349.779 248.48 349.546 247.648 349.344 246.821C349.031 245.576 348.714 244.335 348.38 243.098C348.046 241.862 347.707 240.626 347.35 239.394C346.994 238.162 346.624 236.934 346.242 235.711C345.859 234.488 345.463 233.269 345.049 232.054C344.864 231.518 344.706 231.016 344.574 230.554C344.442 230.092 344.332 229.674 344.248 229.296C344.175 228.969 344.121 228.638 344.086 228.306C344.057 228.073 344.057 227.838 344.086 227.606C344.124 227.358 344.188 227.115 344.275 226.88C344.343 226.698 344.429 226.522 344.53 226.356C344.595 226.246 344.669 226.14 344.75 226.04L344.847 225.93C344.954 225.83 345.068 225.738 345.19 225.657C345.303 225.586 345.421 225.523 345.542 225.468C345.648 225.422 345.757 225.383 345.868 225.349C345.961 225.32 346.057 225.296 346.154 225.278C346.321 225.196 346.501 225.139 346.686 225.111C347.149 225.038 347.624 225.093 348.059 225.27C348.798 225.584 349.44 226.09 349.92 226.735C350.785 227.872 351.461 229.14 351.922 230.492C351.922 230.492 352.142 231.086 352.525 231.914C352.976 232.898 353.512 233.842 354.126 234.734C354.791 235.671 355.565 236.494 356.401 236.815C357.237 237.136 358.135 236.987 359.041 235.992C359.255 235.757 359.446 235.5 359.609 235.227C359.771 234.955 359.908 234.669 360.018 234.373C360.131 234.075 360.217 233.767 360.278 233.454C360.336 233.14 360.369 232.822 360.379 232.503L360.502 228.288L360.621 224.077L360.744 219.866L360.863 215.651C360.863 215.576 360.863 215.488 360.863 215.392C360.863 215.295 360.863 215.194 360.863 215.084C360.863 214.974 360.863 214.855 360.863 214.727C360.863 214.6 360.863 214.468 360.863 214.331C360.885 213.838 360.907 213.381 360.942 212.958C360.967 212.57 361.015 212.184 361.087 211.801C361.144 211.471 361.242 211.149 361.378 210.842C361.501 210.557 361.673 210.296 361.888 210.072C361.976 209.977 362.071 209.891 362.174 209.812C362.335 209.69 362.509 209.585 362.693 209.5C362.946 209.379 363.211 209.287 363.485 209.227C363.847 209.149 364.215 209.109 364.585 209.108C364.483 208.353 364.469 207.588 364.546 206.829C364.613 206.162 364.772 205.508 365.016 204.884C365.221 204.347 365.519 203.849 365.896 203.415C366.234 203.027 366.659 202.725 367.137 202.535C367.251 202.492 367.367 202.457 367.485 202.429C367.629 202.392 367.776 202.367 367.925 202.354C368.118 202.339 368.312 202.339 368.506 202.354C368.741 202.376 368.975 202.415 369.205 202.473C369.304 202.176 369.453 201.898 369.645 201.65C369.84 201.413 370.07 201.207 370.327 201.039C370.848 200.699 371.468 200.544 372.087 200.599C372.404 200.629 372.712 200.715 372.998 200.854C373.57 201.118 374.035 201.568 374.318 202.13C374.462 202.416 374.555 202.724 374.595 203.041V204.026V205.012V205.993V206.979C374.769 206.931 374.948 206.904 375.128 206.9C375.547 206.88 375.966 206.957 376.351 207.124C376.906 207.388 377.367 207.816 377.671 208.352C378.174 209.248 378.474 210.244 378.551 211.269C378.63 211.951 378.709 212.633 378.784 213.31C378.859 213.988 378.938 214.674 379.017 215.356C379.096 216.038 379.18 216.72 379.268 217.398C379.356 218.076 379.448 218.758 379.545 219.435L380.72 226.352L381.728 233.247L382.74 240.142L383.747 247.036C383.906 248.123 384.082 249.201 384.28 250.279C384.478 251.357 384.689 252.431 384.922 253.5C385.155 254.569 385.41 255.638 385.679 256.699C385.947 257.759 386.238 258.815 386.559 259.867L390.079 271.892L393.599 283.917L397.119 295.942L400.639 307.968L413.152 308.606L425.67 309.244L438.184 309.882L450.68 310.515Z" fill="#F2B3C1" stroke="black" stroke-miterlimit="10" stroke-linecap="round"/>
<path d="M374.758 207.001C374.802 208.365 374.85 209.729 374.894 211.097C374.938 212.466 374.987 213.825 375.031 215.194C375.075 216.562 375.123 217.922 375.167 219.29C375.211 220.658 375.26 222.018 375.308 223.386" stroke="black" stroke-miterlimit="10" stroke-linecap="round"/>
<path d="M369.311 202.482C369.399 204.262 369.488 206.044 369.579 207.828C369.67 209.611 369.76 211.393 369.848 213.174L370.112 218.52C370.205 220.303 370.295 222.085 370.38 223.866" stroke="black" stroke-miterlimit="10" stroke-linecap="round"/>
<path d="M364.726 209.548C364.788 210.815 364.848 212.08 364.906 213.341C364.965 214.602 365.025 215.867 365.087 217.134C365.148 218.397 365.21 219.664 365.267 220.927C365.324 222.189 365.39 223.457 365.448 224.719" stroke="black" stroke-miterlimit="10" stroke-linecap="round"/>
<path d="M493.263 262.52C491.214 264.194 489.409 266.146 487.9 268.319C486.473 270.36 485.348 272.596 484.56 274.959C483.814 277.212 483.43 279.568 483.42 281.942C483.409 284.256 483.808 286.555 484.6 288.731C485.202 290.377 486.03 291.932 487.059 293.351C487.954 294.584 488.977 295.718 490.113 296.734C491.036 297.564 492.022 298.321 493.061 299C493.941 299.577 494.706 299.986 495.208 300.25L495.767 299.81L496.273 299.427L496.713 299.084L497.091 298.789L497.725 298.292L498.328 297.812L498.768 297.456L498.944 297.315L499.058 297.478L499.318 297.861C499.414 298.006 499.516 298.16 499.608 298.301L499.806 298.604C500.015 298.942 500.175 299.308 500.281 299.691C500.377 300.038 500.44 300.393 500.47 300.752C500.484 301.024 500.484 301.297 500.47 301.57C500.47 301.781 500.47 301.917 500.444 301.944C500.357 302.634 500.118 303.297 499.744 303.884C499.415 304.401 499.01 304.865 498.543 305.262C498.176 305.578 497.782 305.861 497.364 306.106C497.157 306.228 496.944 306.338 496.726 306.436C496.328 306.61 495.914 306.743 495.49 306.832C495.119 306.909 494.742 306.955 494.363 306.969C494.048 306.981 493.732 306.972 493.417 306.942C493.14 306.916 492.902 306.876 492.722 306.841C492.542 306.806 492.41 306.766 492.225 306.713C492.017 306.651 491.813 306.577 491.613 306.493C491.376 306.394 491.144 306.282 490.918 306.159C490.663 306.015 490.417 305.855 490.183 305.68C489.986 305.532 489.798 305.374 489.62 305.204C489.465 305.053 489.318 304.895 489.18 304.729C489.048 304.575 488.929 304.425 488.828 304.289C488.727 304.153 488.643 304.016 488.573 303.902C488.159 304.047 487.693 304.197 487.218 304.342C486.742 304.487 486.197 304.623 485.629 304.747C485.062 304.87 484.463 304.984 483.825 305.077C483.187 305.169 482.505 305.239 481.823 305.283C481.018 305.336 480.252 305.345 479.522 305.323C478.792 305.301 478.101 305.253 477.454 305.178C476.807 305.103 476.2 305.011 475.646 304.905C475.091 304.8 474.581 304.689 474.123 304.571C474.575 305.116 475.041 305.703 475.522 306.331C475.998 306.96 476.482 307.629 476.966 308.342C477.45 309.054 477.942 309.807 478.422 310.603C478.902 311.4 479.381 312.244 479.848 313.129C480.459 314.295 480.996 315.434 481.471 316.547C481.946 317.661 482.351 318.747 482.725 319.768C483.099 320.789 483.39 321.801 483.649 322.738C483.909 323.675 484.129 324.569 484.305 325.378C485.374 325.11 486.624 324.749 487.996 324.265C489.526 323.742 491.023 323.128 492.48 322.426C494.157 321.605 495.774 320.667 497.32 319.619C499.071 318.436 500.722 317.112 502.257 315.659C502.89 315.06 503.929 314.079 505.13 312.742C506.557 311.163 507.854 309.471 509.006 307.682C510.429 305.479 511.585 303.116 512.452 300.642C513.444 297.796 513.98 294.811 514.04 291.798C514.04 291.481 514.04 290.917 514.014 290.178C513.987 289.439 513.904 288.493 513.754 287.411C513.374 284.715 512.648 282.08 511.594 279.57C511.347 278.989 510.934 278.061 510.318 276.93C509.575 275.565 508.739 274.254 507.814 273.005C506.636 271.426 505.31 269.963 503.854 268.636C502.16 267.081 500.282 265.739 498.262 264.641C497.76 264.368 497.276 264.121 496.805 263.897C496.334 263.673 495.886 263.484 495.485 263.308C495.085 263.132 494.658 262.982 494.288 262.868C493.919 262.753 493.571 262.599 493.263 262.52Z" fill="#D87D61" stroke="black" stroke-miterlimit="10" stroke-linecap="round"/>
<path d="M416.958 164.184C417.275 165.091 417.582 166.046 417.878 167.049C418.168 168.048 418.45 169.09 418.71 170.177C418.969 171.264 419.207 172.377 419.418 173.565C419.629 174.753 419.814 175.946 419.964 177.2C420.016 177.66 420.065 178.118 420.109 178.572C420.153 179.012 420.192 179.452 420.223 179.892C420.254 180.332 420.285 180.772 420.307 181.212C420.329 181.652 420.346 182.066 420.36 182.484" stroke="black" stroke-miterlimit="10" stroke-linecap="round"/>
<path d="M421.416 161.804C421.741 162.851 422.054 163.951 422.348 165.091C422.643 166.23 422.925 167.423 423.184 168.65C423.444 169.878 423.677 171.158 423.88 172.474C424.082 173.789 424.262 175.145 424.403 176.544C424.452 177.05 424.5 177.547 424.54 178.04C424.579 178.533 424.61 179.025 424.641 179.505C424.672 179.985 424.694 180.469 424.716 180.939C424.738 181.41 424.751 181.877 424.76 182.334" stroke="black" stroke-miterlimit="10" stroke-linecap="round"/>
<path d="M427.092 166.521C427.262 167.38 427.422 168.26 427.571 169.161C427.725 170.041 427.862 170.973 428.011 171.911C428.161 172.848 428.253 173.807 428.354 174.784C428.456 175.761 428.544 176.759 428.618 177.776C428.645 178.15 428.667 178.524 428.689 178.898C428.711 179.272 428.733 179.637 428.75 180.002C428.768 180.367 428.781 180.733 428.794 181.093C428.808 181.454 428.794 181.811 428.825 182.167" stroke="black" stroke-miterlimit="10" stroke-linecap="round"/>
<path d="M402.834 315.091L402.28 313.309L401.726 311.527L401.171 309.75L400.617 307.968" stroke="black" stroke-miterlimit="10" stroke-linecap="round"/>
<path d="M127.874 291.683C127.491 291.902 127.15 292.186 126.866 292.523C126.306 293.188 125.987 294.022 125.96 294.891C125.946 295.338 126.009 295.784 126.145 296.211L131.997 314.427L137.84 332.625L143.688 350.841L149.54 369.053C149.672 369.468 149.886 369.852 150.169 370.183C150.586 370.669 151.137 371.02 151.753 371.193C152.369 371.366 153.023 371.353 153.632 371.156L154.243 370.962L154.855 370.764L155.466 370.566L156.078 370.368L149.663 350.392L143.256 330.412L136.837 310.431L130.422 290.451C130.18 290.548 129.946 290.645 129.718 290.746C129.489 290.847 129.278 290.948 129.062 291.054C128.846 291.159 128.622 291.261 128.446 291.366L127.874 291.683Z" fill="#F6991A" stroke="black" stroke-miterlimit="10" stroke-linecap="round"/>
<path d="M181.338 164.567C180.495 164.317 179.591 164.368 178.782 164.712C178.385 164.881 178.02 165.115 177.7 165.403C177.369 165.698 177.092 166.048 176.881 166.437L167.76 183.249L158.63 200.062L149.5 216.87L140.361 233.682C140.153 234.065 140.023 234.485 139.978 234.919C139.897 235.762 140.146 236.605 140.674 237.268C140.947 237.607 141.285 237.889 141.668 238.095L142.236 238.403L142.803 238.711L143.371 239.019L143.938 239.332C147.274 233.172 150.607 227.022 153.94 220.883L163.941 202.433L173.92 183.984C177.255 177.824 180.589 171.675 183.921 165.535C183.692 165.429 183.481 165.333 183.239 165.24L182.57 164.981L181.932 164.756L181.338 164.567Z" fill="#F6991A" stroke="black" stroke-miterlimit="10" stroke-linecap="round"/>
<circle cx="120" cy="89" r="7" fill="#BDECE6"/>
<circle cx="488" cy="11" r="10" fill="#F6C34C"/>
<circle cx="130" cy="632" r="7" fill="#FC762B"/>
<circle cx="565" cy="535" r="7" fill="#F2B3C1"/>
<circle cx="56" cy="499" r="10" fill="#DBCAF4"/>
<circle cx="10" cy="232" r="10" fill="#F2B3C1"/>
<circle cx="395" cy="625" r="10" fill="#A5C3FF"/>
<defs>
<linearGradient id="paint0_linear_484_2122" x1="100" y1="71.9999" x2="522.403" y2="605.921" gradientUnits="userSpaceOnUse">
<stop stop-color="#FFD0A5"/>
<stop offset="1" stop-color="#D0F4CA"/>
</linearGradient>
<linearGradient id="paint1_linear_484_2122" x1="183.965" y1="415.587" x2="250.075" y2="415.587" gradientUnits="userSpaceOnUse">
<stop offset="0.2" stop-color="#FEC2D9"/>
<stop offset="0.54" stop-color="#E3DEDA"/>
<stop offset="0.86" stop-color="#C6FCDB"/>
</linearGradient>
<linearGradient id="paint2_linear_484_2122" x1="457.861" y1="244.225" x2="484.982" y2="197.246" gradientUnits="userSpaceOnUse">
<stop offset="0.35" stop-color="#FEC2D9"/>
<stop offset="0.67" stop-color="#E3DEDA"/>
<stop offset="0.97" stop-color="#C6FCDB"/>
</linearGradient>
<linearGradient id="paint3_linear_484_2122" x1="313.809" y1="193.185" x2="346.132" y2="160.867" gradientUnits="userSpaceOnUse">
<stop offset="0.22" stop-color="#A4C2FF"/>
<stop offset="0.46" stop-color="#B5DEED"/>
<stop offset="0.68" stop-color="#C6FCDB"/>
</linearGradient>
<linearGradient id="paint4_linear_484_2122" x1="239.357" y1="117.311" x2="272.762" y2="175.176" gradientUnits="userSpaceOnUse">
<stop offset="0.15" stop-color="#FEC2D9"/>
<stop offset="0.23" stop-color="#FDBCBD"/>
<stop offset="0.41" stop-color="#FAAC74"/>
<stop offset="0.6" stop-color="#F6991A"/>
<stop offset="1" stop-color="#F6C34C"/>
</linearGradient>
<linearGradient id="paint5_linear_484_2122" x1="270.522" y1="365.726" x2="298.317" y2="413.862" gradientUnits="userSpaceOnUse">
<stop offset="0.12" stop-color="#FEC2D9"/>
<stop offset="0.71" stop-color="#A4C2FF"/>
</linearGradient>
<linearGradient id="paint6_linear_484_2122" x1="484.063" y1="150.408" x2="502.921" y2="183.065" gradientUnits="userSpaceOnUse">
<stop offset="0.12" stop-color="#FEC2D9"/>
<stop offset="0.71" stop-color="#A4C2FF"/>
</linearGradient>
</defs>
</svg>
