<svg width="640" height="640" viewBox="0 0 640 640" fill="none" xmlns="http://www.w3.org/2000/svg">
<rect x="100" y="71.9999" width="440" height="520" rx="220" fill="url(#paint0_linear_484_2124)"/>
<path d="M487 275.028L476.352 292.606L465.691 310.184L471.31 318.808L476.933 327.432C477.813 325.611 478.746 323.472 479.709 320.982C480.673 318.491 481.645 315.728 482.547 312.666C483.688 308.794 484.598 304.858 485.271 300.878C485.847 297.481 486.151 294.652 486.38 292.518C486.622 290.226 486.82 287.59 486.965 284.664C487.11 281.738 487.128 278.5 487 275.028Z" fill="url(#paint1_linear_484_2124)" stroke="black" stroke-miterlimit="10" stroke-linecap="round"/>
<path d="M440.857 506.671H377.44V475.035C377.445 473.612 378.014 472.248 379.023 471.244C380.032 470.24 381.398 469.678 382.821 469.68H440.857V506.68V506.671Z" fill="#F6991A" stroke="black" stroke-miterlimit="10" stroke-linecap="round"/>
<path d="M414.748 488.16C414.749 489.232 414.378 490.271 413.699 491.101C413.019 491.93 412.073 492.498 411.021 492.708C409.97 492.918 408.878 492.757 407.932 492.252C406.986 491.747 406.245 490.93 405.834 489.939C405.424 488.949 405.369 487.846 405.681 486.82C405.992 485.794 406.649 484.908 407.541 484.312C408.432 483.717 409.503 483.449 410.57 483.554C411.637 483.66 412.635 484.132 413.392 484.891C413.822 485.319 414.163 485.829 414.396 486.39C414.628 486.951 414.748 487.552 414.748 488.16Z" fill="#F6991A" stroke="black" stroke-miterlimit="10" stroke-linecap="round"/>
<path d="M314.52 506.671H251.266V469.68H309.574C310.222 469.68 310.862 469.808 311.46 470.055C312.058 470.303 312.601 470.666 313.059 471.123C313.517 471.581 313.88 472.124 314.127 472.722C314.375 473.32 314.502 473.961 314.502 474.608V506.68L314.52 506.671Z" fill="#F6991A" stroke="black" stroke-miterlimit="10" stroke-linecap="round"/>
<path d="M286.633 488.16C286.634 489.232 286.263 490.271 285.584 491.101C284.904 491.93 283.958 492.498 282.907 492.708C281.855 492.918 280.763 492.757 279.818 492.252C278.872 491.747 278.13 490.93 277.72 489.939C277.309 488.949 277.255 487.846 277.566 486.82C277.877 485.794 278.535 484.908 279.426 484.312C280.318 483.717 281.388 483.449 282.455 483.554C283.522 483.66 284.52 484.132 285.278 484.891C285.708 485.319 286.048 485.829 286.281 486.39C286.514 486.951 286.633 487.552 286.633 488.16Z" fill="#F6991A" stroke="black" stroke-miterlimit="10" stroke-linecap="round"/>
<path d="M241.92 270.598C241.912 270.579 241.901 270.561 241.889 270.545C241.86 270.501 241.821 270.465 241.775 270.439C241.155 270.208 240.521 270.014 239.878 269.858C238.998 269.621 238.118 269.418 237.986 269.361C238.042 268.833 238.086 268.301 238.118 267.764C238.149 267.227 238.167 266.682 238.167 266.136C238.167 259.312 235.879 253.134 232.183 248.659C228.487 244.184 223.383 241.421 217.742 241.421C212.101 241.421 206.993 244.189 203.297 248.659C199.601 253.13 197.313 259.312 197.313 266.136C197.313 272.96 199.601 279.142 203.297 283.613C206.993 288.083 212.097 290.855 217.742 290.855C222.176 290.812 226.438 289.139 229.719 286.156C233.257 282.949 235.802 278.796 237.054 274.188C237.423 273.924 238.558 273.238 239.636 272.556C240.714 271.874 241.726 271.196 241.858 270.95C241.904 270.872 241.929 270.784 241.933 270.694C241.934 270.662 241.93 270.629 241.92 270.598Z" fill="#F2B3C1" stroke="black" stroke-miterlimit="10" stroke-linecap="round"/>
<path d="M240.78 255.721H233.595C234.541 264.081 233.415 271.592 231.118 277.43C228.821 283.269 225.363 287.423 221.631 289.046C218.412 290.442 214.922 291.101 211.415 290.978C207.908 290.858 204.477 289.926 201.391 288.255C193.278 283.828 189.199 275.538 188.631 266.787C188.064 258.035 190.963 248.83 196.837 242.565C199.158 240.098 201.934 238.103 205.013 236.691C208.086 235.269 211.41 234.469 214.794 234.337C220.958 234.139 226.974 236.242 231.672 240.237C236.39 244.205 239.605 249.67 240.78 255.721Z" fill="#040400" stroke="#040400" stroke-miterlimit="10"/>
<path d="M161.602 218.752C159.561 221.031 159.556 224.741 161.198 228.872C162.839 233.004 166.126 237.628 170.666 241.689C175.207 245.751 180.144 248.523 184.456 249.68C188.768 250.837 192.455 250.432 194.492 248.153C196.53 245.874 196.534 242.165 194.893 238.011C193.252 233.857 189.965 229.255 185.424 225.194C180.883 221.133 175.946 218.383 171.634 217.217C167.322 216.051 163.64 216.473 161.602 218.752Z" fill="#040400" stroke="#040400" stroke-miterlimit="10"/>
<path d="M447.752 506.565H444.254H440.756V413.967V321.365H444.254H447.752V413.967V506.565Z" fill="#F6991A" stroke="black" stroke-miterlimit="10" stroke-linecap="round"/>
<path d="M251.266 506.565H247.768H244.27V413.967V321.365H247.768H251.266V413.967V506.565Z" fill="#F6991A" stroke="black" stroke-miterlimit="10" stroke-linecap="round"/>
<path d="M449.996 294.071C449.996 333.253 438.349 368.726 419.522 394.391C400.694 420.056 374.686 435.949 345.958 435.949C317.23 435.949 291.222 420.065 272.394 394.391C253.567 368.717 241.92 333.231 241.92 294.071C241.92 254.911 253.567 219.416 272.394 193.751C291.222 168.086 317.23 152.193 345.958 152.193C374.686 152.193 400.698 168.073 419.522 193.751C438.345 219.43 449.996 254.889 449.996 294.071Z" fill="#F6991A" stroke="black" stroke-miterlimit="10" stroke-linecap="round"/>
<path d="M442.828 294.071C442.828 330.556 431.987 363.591 414.457 387.492C396.928 411.393 372.71 426.19 345.958 426.19C319.206 426.19 294.988 411.402 277.459 387.492C259.929 363.583 249.088 330.556 249.088 294.071C249.088 257.587 259.929 224.551 277.459 200.651C294.988 176.75 319.206 161.957 345.958 161.957C372.71 161.957 396.928 176.745 414.457 200.651C431.987 224.556 442.828 257.6 442.828 294.071Z" fill="url(#paint2_linear_484_2124)" stroke="black" stroke-miterlimit="10" stroke-linecap="round"/>
<path d="M389.487 227.645C391.524 229.924 391.529 233.633 389.888 237.787C388.246 241.94 384.96 246.543 380.419 250.604C375.878 254.665 370.941 257.415 366.629 258.581C362.317 259.747 358.63 259.333 356.593 257.054C354.556 254.775 354.551 251.066 356.192 246.912C357.834 242.759 361.12 238.156 365.661 234.095C370.202 230.034 375.139 227.284 379.451 226.113C383.763 224.943 387.45 225.365 389.487 227.645Z" fill="#040400" stroke="#040400" stroke-miterlimit="10"/>
<path d="M296.59 407.539C300.897 410.588 304.906 413.21 308.074 415.199C311.242 417.188 313.578 418.552 314.537 419.08C318.154 421.073 324.31 423.427 332.019 424.844C340.872 426.489 349.946 426.545 358.819 425.011C364.418 424.016 369.882 422.369 375.099 420.105C378.522 418.605 381.847 416.888 385.052 414.966C387.963 413.304 390.781 411.486 393.495 409.519C395.496 408.015 397.383 406.367 399.141 404.586C399.114 404.375 398.133 403.521 397.156 402.668C396.179 401.814 395.198 400.965 395.167 400.749H296.607L296.581 404.142L296.59 407.539Z" fill="#84A1E5" stroke="#070707" stroke-miterlimit="10" stroke-linecap="round"/>
<path d="M311.88 417.527C311.488 417.298 311.084 417.051 310.674 416.792C310.265 416.532 309.847 416.264 309.425 415.973L308.646 415.432L307.907 414.887V400.758H311.88C311.88 403.557 311.88 406.352 311.88 409.145C311.88 411.937 311.88 414.731 311.88 417.527Z" fill="#DBCAF4" stroke="black" stroke-miterlimit="10" stroke-linecap="round"/>
<path d="M381.928 416.77L381.048 417.245C380.753 417.403 380.454 417.562 380.168 417.716C379.882 417.87 379.49 418.068 379.156 418.235L378.162 418.728V409.743V400.758H381.897C381.897 403.428 381.897 406.097 381.897 408.766C381.897 411.436 381.907 414.103 381.928 416.77Z" fill="#DBCAF4" stroke="black" stroke-miterlimit="10" stroke-linecap="round"/>
<path d="M359.629 424.875C359.145 424.985 358.648 425.081 358.128 425.169C357.609 425.257 357.077 425.328 356.522 425.385L356.153 425.425L355.788 425.455V400.758H359.633V424.875H359.629Z" fill="#DBCAF4" stroke="black" stroke-miterlimit="10" stroke-linecap="round"/>
<path d="M335.97 425.438C335.442 425.398 334.892 425.341 334.329 425.262C333.766 425.183 333.185 425.077 332.569 424.945L332.19 424.857L331.821 424.765V400.758H335.869C335.869 404.865 335.883 408.972 335.913 413.078L335.97 425.438Z" fill="#DBCAF4" stroke="black" stroke-miterlimit="10" stroke-linecap="round"/>
<path d="M424.661 334.767C423.469 333.183 421.968 331.221 420.177 328.977C418.387 326.733 416.301 324.207 413.951 321.497C410.225 317.198 407.127 313.621 403.994 310.422C400.887 307.195 397.501 304.251 393.874 301.622C391.678 300.011 389.401 298.512 387.054 297.129C383.593 295.106 379.956 293.402 376.186 292.039C371.262 290.254 366.137 289.082 360.927 288.549C356.819 288.165 352.692 288.028 348.567 288.14C344.021 288.142 339.48 288.436 334.971 289.02C328.371 289.91 321.899 291.579 315.691 293.992C311.356 295.696 307.174 297.766 303.19 300.179C295.765 304.627 288.99 310.082 283.06 316.388C280.121 319.508 277.401 322.828 274.92 326.323C273.014 329.024 271.252 331.823 269.64 334.71L283.28 348.165L296.92 361.62L296.775 381.191C296.725 387.712 296.678 394.234 296.634 400.758H395.194C395.505 394.701 395.816 388.641 396.127 382.577C396.438 376.514 396.749 370.452 397.06 364.392L410.88 349.582C415.468 344.645 420.061 339.707 424.661 334.767Z" fill="#ECE7E1" stroke="black" stroke-miterlimit="10" stroke-linecap="round"/>
<path d="M475.833 506.565V510.063V513.561H344.163H212.493V510.063V506.565H344.163H475.833Z" fill="#F6991A" stroke="black" stroke-miterlimit="10" stroke-linecap="round"/>
<path d="M355.11 274.219C355.11 280.819 352.822 286.798 349.126 291.123C345.43 295.449 340.326 298.124 334.685 298.124C329.044 298.124 323.936 295.44 320.24 291.123C316.544 286.807 314.26 280.819 314.26 274.219C314.26 267.619 316.544 261.639 320.24 257.314C323.936 252.989 329.04 250.313 334.685 250.313C340.33 250.313 345.43 252.989 349.126 257.314C352.822 261.639 355.11 267.619 355.11 274.219Z" fill="#F2B3C1" stroke="black" stroke-miterlimit="10" stroke-linecap="round"/>
<path d="M338.254 275.393C338.253 275.724 338.122 276.04 337.888 276.273C337.773 276.389 337.636 276.481 337.485 276.544C337.334 276.607 337.172 276.639 337.008 276.639C336.845 276.639 336.683 276.607 336.532 276.544C336.381 276.481 336.244 276.389 336.128 276.273C336.012 276.158 335.919 276.021 335.856 275.87C335.793 275.719 335.76 275.557 335.76 275.393C335.76 275.23 335.793 275.068 335.856 274.916C335.919 274.765 336.012 274.628 336.128 274.513C336.302 274.34 336.523 274.223 336.764 274.175C337.005 274.128 337.254 274.153 337.48 274.247C337.707 274.341 337.9 274.5 338.036 274.704C338.172 274.908 338.245 275.148 338.245 275.393H338.254Z" fill="#020202"/>
<path d="M323.32 275.79C323.32 276.078 323.221 276.357 323.038 276.58C322.855 276.803 322.601 276.955 322.319 277.012C322.036 277.068 321.743 277.025 321.489 276.889C321.234 276.753 321.035 276.534 320.925 276.268C320.814 276.002 320.8 275.706 320.883 275.43C320.966 275.154 321.143 274.916 321.382 274.756C321.622 274.595 321.909 274.523 322.196 274.551C322.483 274.579 322.751 274.706 322.955 274.91C323.071 275.025 323.163 275.162 323.226 275.313C323.289 275.464 323.321 275.626 323.32 275.79Z" fill="#020202"/>
<path d="M327.619 280.85L326.457 279.785L325.3 278.72C325.285 278.707 325.273 278.689 325.267 278.67C325.261 278.651 325.26 278.63 325.265 278.61C325.269 278.59 325.278 278.571 325.292 278.555C325.306 278.54 325.324 278.528 325.344 278.522L326.765 278.174L328.191 277.827V270.488" stroke="black" stroke-miterlimit="10" stroke-linecap="round"/>
<path d="M333.625 285.495C333.357 286.147 332.918 286.714 332.353 287.136C331.793 287.551 331.129 287.804 330.435 287.866C329.681 287.933 328.924 287.769 328.266 287.395C327.598 287.022 327.056 286.458 326.708 285.776" stroke="black" stroke-miterlimit="10" stroke-linecap="round"/>
<path d="M333.568 267.5L337.259 268.433L340.955 269.361" stroke="black" stroke-miterlimit="10" stroke-linecap="round"/>
<path d="M174.248 409.576C174.248 412.627 174.248 415.676 174.248 418.724C174.248 421.771 174.233 424.824 174.204 427.88C172.427 430.231 170.86 432.734 169.522 435.36C167.75 438.865 166.42 442.576 165.562 446.408C163.909 453.968 164.092 461.814 166.095 469.288C167.266 473.774 169.008 478.09 171.278 482.132L171.344 497.84L171.414 513.544H282.061L272.799 461.566L263.537 409.576H174.248Z" fill="#84A1E5" stroke="#070707" stroke-miterlimit="10" stroke-linecap="round"/>
<path d="M325.414 267.645L322.031 269.506L318.652 271.367" stroke="black" stroke-miterlimit="10" stroke-linecap="round"/>
<path d="M310.305 264.613H322.07L324.895 260.495L327.72 256.376C327.814 257.717 327.903 259.056 327.988 260.394C328.081 261.714 328.169 263.073 328.261 264.411L336.727 264.512L345.197 264.613C345.295 266.054 345.749 267.447 346.517 268.67C347.757 270.584 350.177 272.274 354.877 271.372C355.01 272.411 355.079 273.457 355.083 274.504C355.104 278.408 354.231 282.263 352.531 285.777C351.722 287.461 350.743 289.057 349.61 290.542C350.843 289.712 352 288.774 353.068 287.74C354.431 286.421 355.63 284.944 356.641 283.34C357.298 282.232 357.869 281.076 358.348 279.881C359.493 277.136 360.211 274.232 360.478 271.27C360.478 271.006 360.517 270.729 360.531 270.518C360.544 270.307 360.557 270.157 360.557 270.157C360.583 269.682 360.61 269.18 360.627 268.661C360.645 268.142 360.658 267.592 360.663 267.029C360.699 264.048 360.133 261.09 358.999 258.332C357.865 255.575 356.186 253.075 354.063 250.982C349.953 246.868 344.281 244.162 338.055 243.357L337.893 243.335H337.725C335.916 243.167 334.093 243.186 332.287 243.392C329.823 243.677 327.417 244.341 325.155 245.359C320.147 247.674 316.025 251.553 313.411 256.412C311.975 258.976 310.928 261.74 310.305 264.613Z" fill="#040400" stroke="#040400" stroke-miterlimit="10"/>
<path d="M388.163 175.122L385.29 187.961L382.417 200.796L391.217 192.621L400.017 184.446L394.077 179.782L388.163 175.122Z" fill="#040400"/>
<path d="M269.93 212.192C273.178 215.553 276.423 218.914 279.668 222.272L289.405 232.357L276.319 228.837L263.234 225.317C263.674 224.318 264.149 223.302 264.637 222.268C265.126 221.234 265.645 220.191 266.182 219.131C266.804 217.907 267.427 216.719 268.052 215.567C268.676 214.392 269.306 213.274 269.93 212.192Z" fill="#040400"/>
<path d="M424.661 334.767L410.88 349.582L397.082 364.392L406.863 374.411L416.648 384.43C419.077 380.795 421.532 376.783 423.913 372.378C426.438 367.713 428.714 362.918 430.733 358.012C431.516 356.107 432.242 354.224 432.933 352.376C433.624 350.528 434.253 348.715 434.803 346.937L429.712 340.852L424.661 334.767Z" fill="#F2B3C1" stroke="black" stroke-miterlimit="10" stroke-linecap="round"/>
<path d="M423.741 215.316L412.213 243.036L400.685 270.751L410.158 274.223L419.631 277.695L411.993 294.243L404.355 310.787" stroke="black" stroke-miterlimit="10" stroke-linecap="round"/>
<path d="M251.032 267.61L255.56 281.861L260.088 296.109L268.738 295.092L277.388 294.071L278.04 307.72L278.686 321.365" stroke="black" stroke-miterlimit="10" stroke-linecap="round"/>
<path d="M213.487 285.364C202.054 285.32 190.728 287.581 180.188 292.012C168.814 296.821 158.082 304.486 150.748 315.772C146.141 322.887 143.36 330.697 141.6 337.574C140.292 342.904 139.351 348.317 138.784 353.775C138.502 356.186 138.344 358.408 138.234 360.375C138.124 362.342 138.102 364.093 138.102 365.532H165.853L170.05 387.532L174.248 409.532H263.537L263.775 399.852C263.854 396.625 263.935 393.398 264.017 390.172C263.115 389.05 262.208 387.897 261.298 386.727C260.387 385.556 259.48 384.351 258.565 383.127C257.21 381.309 255.906 379.508 254.654 377.724C253.401 375.941 252.194 374.181 251.032 372.444L271.022 354.602L291.011 336.8C289.818 334.93 288.331 332.646 286.558 330.046C284.785 327.445 282.734 324.533 280.398 321.4C278.594 318.967 276.588 316.349 274.726 313.99C272.865 311.632 271.149 309.546 269.922 308.165C265.385 303.074 259.612 298.986 253.342 295.748C247.119 292.599 240.571 290.135 233.815 288.4C231.914 287.898 229.142 287.163 225.693 286.543C221.664 285.812 217.581 285.417 213.487 285.364Z" fill="#ECE7E1" stroke="black" stroke-miterlimit="10" stroke-linecap="round"/>
<path d="M251.032 372.497L244.683 365.118L238.334 357.74" stroke="black" stroke-miterlimit="10" stroke-linecap="round"/>
<path d="M138.102 365.545L136.866 383.585L135.634 401.625C135.581 401.964 135.515 402.413 135.444 402.945C135.374 403.478 135.308 404.12 135.246 404.82C135.018 407.526 134.732 410.98 135.088 414.244C135.444 417.509 136.452 420.668 138.815 422.78C139.615 423.478 140.503 424.07 141.455 424.54C142.025 424.827 142.613 425.078 143.215 425.293C144.819 425.837 146.506 426.095 148.2 426.054H174.072L174.16 417.813L174.248 409.576L170.05 387.576L165.853 365.576H138.102V365.545Z" fill="#F2B3C1" stroke="black" stroke-miterlimit="10" stroke-linecap="round"/>
<path d="M251.032 372.497C255.111 378.582 259.766 384.94 264.875 391.311C269.983 397.682 275.554 404.071 281.463 410.231C281.903 410.671 282.629 411.551 283.641 412.607C284.876 413.921 286.179 415.169 287.544 416.347C289.718 418.262 292.02 420.026 294.434 421.627C297.452 423.59 300.994 425.389 304.466 425.917C308.686 426.564 312.549 425.292 317.028 422.34C321.507 419.388 326.602 414.759 333.286 408.678C335.112 407.015 336.898 405.321 339.934 402.148C342.97 398.976 347.265 394.325 354.111 386.748L354.921 385.868L355.717 384.988C357.71 382.788 360.786 379.378 364.632 375.225C368.477 371.071 373.084 366.165 378.14 360.942C378.14 360.942 379.05 360.001 381.334 357.088C383.618 354.175 387.27 349.278 392.774 341.371C392.909 341.181 393.026 340.977 393.122 340.764C393.29 340.403 393.395 340.016 393.434 339.62C393.484 339.022 393.396 338.42 393.179 337.86C392.962 337.271 392.567 336.765 392.048 336.412C391.536 336.093 390.939 335.94 390.336 335.972C389.643 336.007 388.973 336.232 388.4 336.624C387.551 337.2 386.779 337.883 386.104 338.656C385.009 339.907 383.981 341.214 383.024 342.572C383.002 342.608 382.958 342.665 382.9 342.74L382.689 343.012C382.315 343.503 381.912 343.972 381.484 344.416C381.112 344.811 380.663 345.124 380.164 345.336C379.346 345.621 378.453 345.61 377.642 345.305C377.198 345.155 376.775 344.948 376.384 344.689C375.925 344.371 375.529 343.969 375.218 343.505C375.012 343.209 374.848 342.887 374.73 342.546C374.659 342.33 374.606 342.106 374.558 341.89C374.51 341.675 374.479 341.45 374.452 341.222C374.085 338.067 374.032 334.883 374.294 331.718C374.708 326.188 376.046 320.767 378.254 315.68C378.47 315.182 378.694 314.694 378.945 314.21C379.196 313.726 379.438 313.251 379.693 312.771C380.075 312.065 380.334 311.299 380.458 310.505C380.555 309.997 380.519 309.473 380.354 308.983C380.189 308.493 379.901 308.053 379.517 307.707C379.238 307.451 378.91 307.253 378.554 307.126C378.197 306.999 377.818 306.945 377.44 306.968C376.704 307.016 376.006 307.313 375.46 307.808C375.032 308.211 374.669 308.679 374.386 309.194C374.103 309.714 373.851 310.251 373.63 310.8C374.085 309.597 374.471 308.369 374.787 307.122C375.102 305.882 375.202 304.598 375.082 303.324C375.054 303.077 374.995 302.835 374.906 302.603C374.818 302.373 374.688 302.161 374.523 301.978C374.28 301.73 373.987 301.535 373.665 301.406C373.342 301.277 372.996 301.217 372.648 301.23C371.952 301.235 371.273 301.453 370.704 301.855C370.427 302.059 370.176 302.296 369.956 302.559C369.732 302.821 369.527 303.099 369.344 303.39C369.181 303.641 368.82 304.196 368.517 304.763C368.213 305.331 367.98 305.903 368.077 306.193C367.933 305.778 367.702 305.399 367.399 305.08C366.911 304.587 366.132 304.231 364.966 304.763C364.463 304.975 364.025 305.315 363.694 305.749C362.92 306.607 361.864 308.195 360.746 311.117C360.502 310.855 360.192 310.662 359.849 310.56C359.506 310.457 359.141 310.447 358.793 310.532C357.57 310.822 355.858 312.292 353.891 316.925C353.451 317.893 353.011 318.936 352.602 320.049C352.193 321.162 351.801 322.346 351.445 323.604C350.919 325.483 350.512 327.394 350.226 329.324C349.974 331.023 349.814 332.734 349.746 334.45C349.692 336.086 349.395 337.705 348.866 339.255C348.337 340.803 347.57 342.26 346.592 343.571V343.598C344.743 346.083 342.704 348.42 340.493 350.589C338.293 352.758 335.838 354.932 332.758 357.629C329.801 360.199 327.038 362.557 324.57 364.669C322.101 366.781 319.844 368.673 317.899 370.301C313.429 364.728 308.956 359.146 304.479 353.555L291.011 336.8L271.022 354.646L251.032 372.497Z" fill="#F2B3C1" stroke="black" stroke-miterlimit="10" stroke-linecap="round"/>
<path d="M360.742 311.117C360.742 311.117 359.945 313.431 358.982 316.912C357.809 321.103 356.907 325.365 356.28 329.672" stroke="black" stroke-miterlimit="10" stroke-linecap="round"/>
<path d="M368.072 306.193C368.072 306.193 366.779 309.542 365.393 314.148C364.007 318.755 362.533 324.62 362.163 329.663" stroke="black" stroke-miterlimit="10" stroke-linecap="round"/>
<path d="M374.074 309.555C374.074 309.555 372.613 313.013 371.13 317.352C369.647 321.69 368.151 326.9 368.072 330.407" stroke="black" stroke-miterlimit="10" stroke-linecap="round"/>
<path d="M317.846 370.302L314.973 372.744L312.104 375.19" stroke="black" stroke-miterlimit="10" stroke-linecap="round"/>
<path d="M193.564 513.596L193.48 508.809L193.397 504.022C193.322 499.979 192.945 495.948 192.27 491.962C191.581 487.884 190.602 483.861 189.34 479.923C185.851 469.007 185.406 457.884 186.467 446.747C187.527 435.611 190.092 424.466 192.627 413.505C192.798 412.77 192.935 412.15 193.067 411.534C193.199 410.918 193.344 410.298 193.507 409.576H197.528C197.366 410.302 197.185 411.138 197.009 411.978C196.833 412.819 196.648 413.659 196.477 414.39C194.008 425.09 191.509 435.976 190.44 446.8C189.371 457.624 189.776 468.338 193.08 478.735C194.405 482.856 195.434 487.065 196.16 491.332C196.867 495.509 197.259 499.734 197.335 503.969L197.418 508.756L197.502 513.544L195.522 513.579L193.564 513.596Z" fill="#DBCAF4" stroke="black" stroke-miterlimit="10" stroke-linecap="round"/>
<path d="M231.435 513.596L231.36 508.809L231.276 504.022C231.201 499.979 230.825 495.948 230.15 491.962C229.461 487.884 228.482 483.861 227.22 479.923C223.73 469.007 223.29 457.884 224.351 446.747C225.411 435.611 227.972 424.466 230.511 413.505C230.678 412.775 230.814 412.154 230.951 411.534C231.087 410.914 231.228 410.298 231.391 409.576H235.417C235.25 410.302 235.074 411.138 234.893 411.978C234.713 412.819 234.532 413.659 234.365 414.394C231.906 425.09 229.402 435.954 228.346 446.782C227.29 457.611 227.682 468.32 230.986 478.718C232.313 482.838 233.342 487.047 234.066 491.315C234.772 495.492 235.166 499.716 235.245 503.952L235.329 508.739L235.412 513.526L233.432 513.561L231.435 513.596Z" fill="#DBCAF4" stroke="black" stroke-miterlimit="10" stroke-linecap="round"/>
<path d="M251.868 513.596L251.785 508.809L251.701 504.022C251.626 499.979 251.25 495.948 250.575 491.962C249.884 487.884 248.904 483.861 247.64 479.923C244.151 469.007 243.711 457.884 244.771 446.747C245.832 435.611 248.392 424.466 250.931 413.505C251.098 412.77 251.257 412.154 251.411 411.538C251.565 410.922 251.723 410.306 251.89 409.58H255.85C255.683 410.306 255.507 411.142 255.327 411.983C255.146 412.823 254.966 413.659 254.799 414.39C252.339 425.09 249.836 435.976 248.78 446.782C247.724 457.589 248.115 468.32 251.42 478.718C252.747 482.837 253.776 487.047 254.5 491.315C255.205 495.492 255.6 499.716 255.679 503.952L255.762 508.739L255.846 513.526L253.866 513.561L251.868 513.596Z" fill="#DBCAF4" stroke="black" stroke-miterlimit="10" stroke-linecap="round"/>
<path d="M210.341 442.474C208.947 445.731 207.891 449.122 207.191 452.594C205.39 461.442 206.049 470.614 209.096 479.113C210.021 481.703 211.157 484.212 212.493 486.615V513.455" stroke="black" stroke-miterlimit="10" stroke-linecap="round"/>
<path d="M164.933 359.363L165.562 363.345L166.192 367.323" stroke="black" stroke-miterlimit="10" stroke-linecap="round"/>
<path d="M459.795 334.27L461.916 347.039L464.032 359.807L469.95 352.772L475.868 345.732L467.834 340.003L459.795 334.27Z" fill="url(#paint3_linear_484_2124)" stroke="black" stroke-miterlimit="10" stroke-linecap="round"/>
<path d="M428 364.353L410.713 375.485L393.43 386.617L394.706 396.834L395.982 407.046C397.552 405.788 399.352 404.261 401.301 402.461C403.25 400.662 405.345 398.589 407.501 396.231C410.22 393.25 412.761 390.11 415.108 386.828C417.115 384.025 418.628 381.619 419.777 379.788C421 377.83 422.346 375.56 423.737 372.986C425.127 370.412 426.579 367.525 428 364.353Z" fill="#040400"/>
<path d="M430.121 143.015L426.601 160.927L423.081 178.844L437.091 167.131L451.1 155.414C450.726 153.845 450.133 152.336 449.34 150.93C447.897 148.326 445.777 146.16 443.206 144.659C440.634 143.158 437.705 142.379 434.728 142.403C433.172 142.397 431.622 142.603 430.121 143.015Z" fill="url(#paint4_linear_484_2124)" stroke="black" stroke-miterlimit="10" stroke-linecap="round"/>
<path d="M230.894 175.716L243.161 189.356L255.432 203.04L253.395 184.203L251.358 165.363C249.288 164.136 246.935 163.469 244.529 163.427C242.142 163.387 239.787 163.982 237.705 165.151C235.189 166.589 233.211 168.809 232.073 171.474C231.47 172.821 231.072 174.251 230.894 175.716Z" fill="url(#paint5_linear_484_2124)" stroke="black" stroke-miterlimit="10" stroke-linecap="round"/>
<path d="M262.455 172.297L267.629 178.488L272.808 184.679L274.889 179.504L276.97 174.326L269.71 173.314L262.455 172.297Z" fill="url(#paint6_linear_484_2124)" stroke="black" stroke-miterlimit="10" stroke-linecap="round"/>
<path d="M297.36 438.092L301.051 444.129L304.743 450.17C305.583 449.631 306.306 448.928 306.867 448.103C307.429 447.278 307.818 446.349 308.012 445.37C308.212 444.476 308.228 443.55 308.061 442.65C307.894 441.749 307.546 440.891 307.039 440.129C306.532 439.366 305.876 438.713 305.11 438.211C304.344 437.708 303.484 437.365 302.583 437.203C300.792 436.847 298.932 437.163 297.36 438.092Z" fill="#FF6406" stroke="#070707" stroke-miterlimit="10" stroke-linecap="round"/>
<path d="M299.248 436.931C298.405 435.584 297.155 434.541 295.679 433.952C294.263 433.303 292.648 433.235 291.182 433.763C290.919 433.867 290.669 434 290.434 434.159C290.137 434.358 289.879 434.61 289.673 434.902C288.899 436.02 289.026 437.573 289.642 439.008C290.226 440.415 291.253 441.592 292.568 442.36C292.599 442.375 292.624 442.399 292.64 442.43C292.656 442.46 292.662 442.494 292.656 442.528C292.651 442.561 292.635 442.592 292.612 442.616C292.588 442.641 292.558 442.657 292.524 442.664C291.75 442.82 291.042 443.21 290.496 443.782C289.937 444.348 289.564 445.071 289.427 445.854C289.289 446.744 289.443 447.655 289.867 448.45C290.281 449.256 290.93 449.917 291.728 450.346C292.459 450.727 293.276 450.912 294.1 450.883C294.927 450.865 295.738 450.651 296.467 450.258C296.493 450.238 296.526 450.228 296.559 450.228C296.592 450.228 296.625 450.238 296.652 450.258C296.678 450.28 296.696 450.308 296.705 450.341C296.714 450.373 296.712 450.408 296.7 450.439C296.417 451.191 296.202 451.967 296.058 452.758C295.922 453.552 295.916 454.364 296.04 455.16C296.223 456.39 296.866 457.506 297.84 458.28C298.347 458.674 298.949 458.927 299.586 459.015C300.222 459.102 300.87 459.02 301.465 458.777C301.774 458.663 302.069 458.516 302.345 458.337C302.623 458.151 302.881 457.937 303.115 457.699C304.315 456.409 305.148 454.821 305.526 453.101C305.97 451.38 305.924 449.57 305.394 447.874C305.043 446.858 304.426 445.956 303.608 445.26C303.203 444.97 302.759 444.741 302.288 444.578C301.837 444.431 301.431 444.174 301.104 443.83C300.834 443.471 300.673 443.042 300.642 442.594C300.59 442.127 300.581 441.564 300.466 440.79C300.395 440.314 300.298 439.842 300.176 439.377C299.977 438.524 299.664 437.701 299.248 436.931Z" fill="#ECE7E1" stroke="black" stroke-miterlimit="10" stroke-linecap="round"/>
<path d="M306.882 439.914C307.569 439.692 308.279 439.544 308.998 439.474C310.087 439.358 311.187 439.434 312.25 439.698C312.726 439.826 313.192 439.994 313.64 440.2C314.712 440.682 315.702 441.328 316.575 442.114C318.973 444.292 319.936 447.552 320.293 450.36C320.519 452.203 320.537 454.065 320.346 455.912" stroke="black" stroke-miterlimit="10" stroke-linecap="round"/>
<path d="M354.041 283.01C354.199 282.381 354.353 281.69 354.481 280.986C354.608 280.282 354.736 279.508 354.828 278.707C354.983 277.385 355.058 276.055 355.053 274.725C355.053 273.493 354.969 272.371 354.864 271.372C355.533 271.35 356.203 271.371 356.87 271.434C357.539 271.498 358.179 271.736 358.727 272.124C360.346 273.299 360.733 275.279 360.35 277.198C359.968 279.116 358.815 280.968 357.363 281.906C356.785 282.28 356.155 282.566 355.493 282.755C355.019 282.889 354.532 282.974 354.041 283.01Z" fill="#F2B3C1" stroke="black" stroke-miterlimit="10" stroke-linecap="round"/>
<path d="M344.22 281.14C344.221 281.897 343.96 282.632 343.48 283.218C343 283.805 342.332 284.206 341.589 284.355C340.846 284.504 340.075 284.39 339.406 284.034C338.738 283.677 338.214 283.1 337.923 282.4C337.633 281.701 337.594 280.922 337.813 280.197C338.033 279.472 338.497 278.845 339.126 278.424C339.756 278.003 340.512 277.813 341.266 277.887C342.02 277.961 342.725 278.294 343.261 278.83C343.566 279.132 343.807 279.492 343.972 279.889C344.137 280.285 344.221 280.711 344.22 281.14Z" fill="#FF6406" stroke="#070707" stroke-miterlimit="10" stroke-linecap="round"/>
<path d="M324.143 281.488C324.144 282.245 323.883 282.98 323.403 283.566C322.923 284.152 322.255 284.554 321.512 284.703C320.769 284.851 319.998 284.738 319.329 284.381C318.661 284.025 318.137 283.448 317.846 282.748C317.555 282.048 317.517 281.27 317.736 280.545C317.955 279.82 318.42 279.193 319.049 278.772C319.679 278.351 320.435 278.161 321.189 278.235C321.943 278.309 322.648 278.642 323.184 279.178C323.488 279.48 323.729 279.84 323.894 280.237C324.058 280.633 324.143 281.058 324.143 281.488Z" fill="#FF6406" stroke="#070707" stroke-miterlimit="10" stroke-linecap="round"/>
<path d="M296.212 450.395C296.752 450.1 297.267 449.762 297.752 449.383C298.423 448.856 299.03 448.252 299.56 447.583C299.996 447.033 300.381 446.444 300.708 445.823C300.952 445.345 301.161 444.849 301.333 444.34" fill="#F2B3C1"/>
<path d="M296.212 450.395C296.752 450.1 297.267 449.762 297.752 449.383C298.423 448.856 299.03 448.252 299.56 447.583C299.996 447.033 300.381 446.444 300.708 445.823C300.952 445.345 301.161 444.849 301.333 444.34" stroke="black" stroke-miterlimit="10" stroke-linecap="round"/>
<path d="M292.014 442.8C292.827 442.55 293.656 442.356 294.496 442.219C295.537 442.049 296.591 441.971 297.646 441.986C298.201 441.986 298.724 442.03 299.221 442.079C299.719 442.127 300.185 442.197 300.616 442.277" fill="#F2B3C1"/>
<path d="M292.014 442.8C292.827 442.55 293.656 442.356 294.496 442.219C295.537 442.049 296.591 441.971 297.646 441.986C298.201 441.986 298.724 442.03 299.221 442.079C299.719 442.127 300.185 442.197 300.616 442.277" stroke="black" stroke-miterlimit="10" stroke-linecap="round"/>
<path d="M353.306 414.306L349.24 420.955L345.175 427.603C344.25 427.01 343.455 426.237 342.837 425.33C342.218 424.423 341.789 423.4 341.576 422.323C341.356 421.339 341.337 420.32 341.521 419.328C341.705 418.336 342.087 417.392 342.645 416.552C343.203 415.712 343.926 414.993 344.769 414.439C345.612 413.886 346.558 413.508 347.551 413.329C349.524 412.936 351.573 413.284 353.306 414.306Z" fill="#FF6406" stroke="#070707" stroke-miterlimit="10" stroke-linecap="round"/>
<path d="M351.216 413.03C352.143 411.544 353.522 410.394 355.15 409.748C356.786 409.074 358.59 408.907 360.1 409.536C360.387 409.657 360.662 409.805 360.922 409.976C361.249 410.197 361.533 410.476 361.758 410.799C362.612 412.027 362.471 413.743 361.794 415.318C361.151 416.868 360.018 418.165 358.568 419.01C358.536 419.028 358.51 419.055 358.494 419.088C358.478 419.121 358.472 419.159 358.478 419.195C358.484 419.232 358.501 419.266 358.526 419.292C358.552 419.319 358.585 419.337 358.621 419.344C359.474 419.515 360.253 419.945 360.852 420.576C361.468 421.198 361.88 421.993 362.031 422.855C362.177 423.837 362.003 424.84 361.534 425.715C361.073 426.601 360.357 427.329 359.479 427.805C358.675 428.222 357.776 428.426 356.87 428.395C355.959 428.371 355.066 428.136 354.261 427.708C354.228 427.692 354.192 427.686 354.156 427.69C354.12 427.695 354.086 427.71 354.059 427.735C354.031 427.759 354.012 427.791 354.004 427.826C353.995 427.862 353.997 427.899 354.01 427.933C354.318 428.76 354.554 429.612 354.714 430.48C354.87 431.342 354.888 432.223 354.767 433.09C354.566 434.443 353.858 435.67 352.787 436.522C352.229 436.956 351.566 437.235 350.865 437.332C350.165 437.428 349.451 437.339 348.796 437.072C348.452 436.942 348.124 436.772 347.819 436.566C347.513 436.363 347.23 436.129 346.974 435.866C345.658 434.444 344.746 432.695 344.334 430.802C343.847 428.907 343.897 426.914 344.48 425.046C344.676 424.491 344.942 423.963 345.272 423.476C345.604 422.986 345.999 422.542 346.446 422.156C346.888 421.839 347.372 421.587 347.885 421.408C348.388 421.247 348.841 420.962 349.205 420.58C349.505 420.187 349.683 419.714 349.716 419.221C349.777 418.706 349.786 418.086 349.909 417.236C349.989 416.712 350.096 416.192 350.23 415.679C350.444 414.757 350.775 413.867 351.216 413.03Z" fill="#ECE7E1" stroke="black" stroke-miterlimit="10" stroke-linecap="round"/>
<path d="M342.812 416.312C342.055 416.063 341.273 415.895 340.48 415.811C339.281 415.683 338.069 415.767 336.898 416.057C336.714 416.106 336.485 416.176 336.221 416.268C335.921 416.37 335.627 416.489 335.341 416.625C333.273 417.619 331.667 419.907 330.58 421.949C329.924 423.181 329.37 424.464 328.921 425.786C328.041 428.615 326.959 432.685 325.841 437.789C324.724 442.893 323.597 449.026 322.541 455.987" stroke="black" stroke-miterlimit="10" stroke-linecap="round"/>
<path d="M354.56 427.853C353.965 427.529 353.399 427.155 352.866 426.736C351.505 425.669 350.394 424.317 349.61 422.776C349.34 422.251 349.109 421.707 348.919 421.148" fill="#F2B3C1"/>
<path d="M354.56 427.853C353.965 427.529 353.399 427.155 352.866 426.736C351.505 425.669 350.394 424.317 349.61 422.776C349.34 422.251 349.109 421.707 348.919 421.148" stroke="black" stroke-miterlimit="10" stroke-linecap="round"/>
<path d="M359.184 419.493C357.176 418.876 355.082 418.579 352.98 418.613C352.369 418.613 351.792 418.657 351.247 418.715C350.701 418.772 350.186 418.847 349.711 418.935" fill="#F2B3C1"/>
<path d="M359.184 419.493C357.176 418.876 355.082 418.579 352.98 418.613C352.369 418.613 351.792 418.657 351.247 418.715C350.701 418.772 350.186 418.847 349.711 418.935" stroke="black" stroke-miterlimit="10" stroke-linecap="round"/>
<path d="M329.515 475.483C331.634 474.335 333.427 472.671 334.729 470.643C336.018 468.629 336.705 466.289 336.709 463.898C336.695 462.089 336.3 460.303 335.55 458.657C334.801 457.01 333.713 455.54 332.358 454.341C329.451 451.792 325.717 450.386 321.85 450.386C317.984 450.386 314.25 451.792 311.343 454.341C309.988 455.54 308.9 457.01 308.151 458.657C307.401 460.303 307.006 462.089 306.992 463.898C306.996 466.289 307.683 468.629 308.972 470.643C310.275 472.67 312.068 474.334 314.186 475.483C312.454 476.56 311.006 478.035 309.962 479.787C308.918 481.533 308.364 483.529 308.36 485.564V506.345H335.332V485.564C335.328 483.534 334.778 481.543 333.739 479.8C332.697 478.044 331.248 476.563 329.515 475.483Z" fill="#DBCAF4" stroke="black" stroke-miterlimit="10" stroke-linecap="round"/>
<path d="M337.33 444.116C337.33 445.051 337.006 445.956 336.413 446.679C335.821 447.401 334.996 447.896 334.079 448.079C333.163 448.261 332.211 448.12 331.387 447.68C330.563 447.24 329.917 446.527 329.559 445.664C329.201 444.801 329.154 443.84 329.425 442.946C329.696 442.051 330.269 441.279 331.046 440.759C331.823 440.24 332.756 440.006 333.686 440.097C334.616 440.189 335.485 440.6 336.146 441.261C336.522 441.635 336.82 442.08 337.023 442.57C337.226 443.06 337.33 443.586 337.33 444.116Z" fill="#F6C34C" stroke="#070707" stroke-miterlimit="10" stroke-linecap="round"/>
<path d="M314.96 426.775C314.96 427.71 314.636 428.615 314.044 429.338C313.451 430.061 312.626 430.555 311.71 430.738C310.793 430.92 309.842 430.779 309.018 430.339C308.193 429.899 307.547 429.186 307.189 428.323C306.832 427.46 306.784 426.499 307.055 425.605C307.326 424.71 307.899 423.938 308.676 423.418C309.453 422.899 310.386 422.665 311.316 422.757C312.246 422.848 313.115 423.259 313.776 423.92C314.152 424.294 314.45 424.739 314.653 425.23C314.856 425.72 314.96 426.245 314.96 426.775Z" fill="#F6C34C" stroke="#070707" stroke-miterlimit="10" stroke-linecap="round"/>
<path d="M403.167 506.433H387.406H371.645V483.038V459.643H387.406H403.167V483.038V506.433Z" fill="#ECE7E1" stroke="black" stroke-miterlimit="10" stroke-linecap="round"/>
<path d="M371.645 459.643H403.167C402.182 463.447 399.908 466.792 396.734 469.108C393.848 471.263 390.308 472.359 386.71 472.213C383.111 472.067 379.672 470.688 376.969 468.307C374.351 466.031 372.493 463.007 371.645 459.643Z" fill="#DBCAF4" stroke="black" stroke-miterlimit="10" stroke-linecap="round"/>
<path d="M386.834 465.394V460.928V456.458" stroke="black" stroke-miterlimit="10" stroke-linecap="round"/>
<path d="M377.018 506.433H363.593H350.169V494.338V482.242H363.593H377.018V494.338V506.433Z" fill="#ECE7E1" stroke="black" stroke-miterlimit="10" stroke-linecap="round"/>
<path d="M350.6 482.242H376.309C375.096 484.666 373.243 486.713 370.95 488.16C368.706 489.59 366.1 490.349 363.439 490.349C360.778 490.349 358.173 489.59 355.928 488.16C353.649 486.706 351.807 484.661 350.6 482.242Z" fill="#DBCAF4" stroke="black" stroke-miterlimit="10" stroke-linecap="round"/>
<path d="M362.959 484.961V481.159V477.353" stroke="black" stroke-miterlimit="10" stroke-linecap="round"/>
<circle cx="120" cy="89" r="7" fill="#BDECE6"/>
<circle cx="488" cy="11" r="10" fill="#F6C34C"/>
<circle cx="130" cy="632" r="7" fill="#FC762B"/>
<circle cx="565" cy="535" r="7" fill="#F2B3C1"/>
<circle cx="56" cy="499" r="10" fill="#DBCAF4"/>
<circle cx="10" cy="232" r="10" fill="#F2B3C1"/>
<circle cx="395" cy="625" r="10" fill="#A5C3FF"/>
<defs>
<linearGradient id="paint0_linear_484_2124" x1="100" y1="71.9999" x2="522.403" y2="605.921" gradientUnits="userSpaceOnUse">
<stop stop-color="#FFA756"/>
<stop offset="1" stop-color="#FFDAAF"/>
</linearGradient>
<linearGradient id="paint1_linear_484_2124" x1="466.351" y1="316.85" x2="497.595" y2="285.61" gradientUnits="userSpaceOnUse">
<stop offset="0.05" stop-color="#A4C2FF"/>
<stop offset="0.4" stop-color="#B5DEED"/>
<stop offset="0.73" stop-color="#C6FCDB"/>
</linearGradient>
<linearGradient id="paint2_linear_484_2124" x1="264.039" y1="212.152" x2="427.877" y2="375.99" gradientUnits="userSpaceOnUse">
<stop stop-color="#FEC2D9"/>
<stop offset="0.5" stop-color="#DBCAF4"/>
<stop offset="0.97" stop-color="#C6FCDB"/>
</linearGradient>
<linearGradient id="paint3_linear_484_2124" x1="460.358" y1="336.162" x2="473.963" y2="359.724" gradientUnits="userSpaceOnUse">
<stop stop-color="#C6FCDB"/>
<stop offset="0.64" stop-color="#FEC2D9"/>
</linearGradient>
<linearGradient id="paint4_linear_484_2124" x1="443.224" y1="144.682" x2="423.398" y2="179.029" gradientUnits="userSpaceOnUse">
<stop offset="0.13" stop-color="#FEC2D9"/>
<stop offset="0.75" stop-color="#DBCAF4"/>
</linearGradient>
<linearGradient id="paint5_linear_484_2124" x1="243.161" y1="163.427" x2="243.161" y2="203.04" gradientUnits="userSpaceOnUse">
<stop offset="0.2" stop-color="#FEC2D9"/>
<stop offset="0.6" stop-color="#E3DEDA"/>
<stop offset="0.97" stop-color="#C6FCDB"/>
</linearGradient>
<linearGradient id="paint6_linear_484_2124" x1="262.455" y1="178.488" x2="276.97" y2="178.488" gradientUnits="userSpaceOnUse">
<stop offset="0.05" stop-color="#A4C2FF"/>
<stop offset="0.4" stop-color="#B5DEED"/>
<stop offset="0.73" stop-color="#C6FCDB"/>
</linearGradient>
</defs>
</svg>
