<svg width="117" height="229" viewBox="0 0 117 229" fill="none" xmlns="http://www.w3.org/2000/svg">
<path fill-rule="evenodd" clip-rule="evenodd" d="M88.2422 38.4663C80.9164 11.1262 52.8141 -5.09868 25.474 2.22708L-73.5334 28.756C-100.874 36.0818 -117.098 64.1841 -109.773 91.5242C-102.447 118.864 -74.3446 135.089 -47.0045 127.763L-47.0041 127.763C-74.3443 135.089 -90.5691 163.191 -83.2433 190.532C-75.9176 217.872 -47.8153 234.097 -20.4752 226.771L78.5322 200.242C105.872 192.916 122.097 164.814 114.771 137.474C107.446 110.133 79.3434 93.9086 52.0033 101.234L52.0029 101.234C79.3431 93.9087 95.5679 65.8064 88.2422 38.4663Z" fill="#D9D9D9"/>
<path fill-rule="evenodd" clip-rule="evenodd" d="M88.2422 38.4663C80.9164 11.1262 52.8141 -5.09868 25.474 2.22708L-73.5334 28.756C-100.874 36.0818 -117.098 64.1841 -109.773 91.5242C-102.447 118.864 -74.3446 135.089 -47.0045 127.763L-47.0041 127.763C-74.3443 135.089 -90.5691 163.191 -83.2433 190.532C-75.9176 217.872 -47.8153 234.097 -20.4752 226.771L78.5322 200.242C105.872 192.916 122.097 164.814 114.771 137.474C107.446 110.133 79.3434 93.9086 52.0033 101.234L52.0029 101.234C79.3431 93.9087 95.5679 65.8064 88.2422 38.4663Z" fill="url(#paint0_linear_585_3387)"/>
<defs>
<linearGradient id="paint0_linear_585_3387" x1="-123.037" y1="42.0205" x2="90.9408" y2="229.35" gradientUnits="userSpaceOnUse">
<stop stop-color="#A5C3FF"/>
<stop offset="1" stop-color="#DBCAF4"/>
</linearGradient>
</defs>
</svg>
