<svg width="170" height="231" viewBox="0 0 170 231" fill="none" xmlns="http://www.w3.org/2000/svg">
<path d="M6.31342 23.624C19.3101 1.03318 48.0948 -6.70702 70.6057 6.33581L145.332 49.632C171.595 64.8487 180.593 98.5499 165.43 124.906C162.676 129.694 164.31 135.816 169.081 138.581L176.46 142.856C198.97 155.898 206.683 184.785 193.687 207.376C180.69 229.967 151.905 237.707 129.394 224.664L54.6681 181.368C28.4053 166.151 19.407 132.45 34.5699 106.094C37.3244 101.306 35.6898 95.1838 30.9187 92.4194L23.5405 88.1445C1.02953 75.1017 -6.6833 46.2149 6.31342 23.624Z" fill="url(#paint0_linear_585_3386)"/>
<defs>
<linearGradient id="paint0_linear_585_3386" x1="200" y1="0" x2="13.3902" y2="241.353" gradientUnits="userSpaceOnUse">
<stop offset="0.23344" stop-color="#DDC6FF"/>
<stop offset="1" stop-color="#FFC06A"/>
</linearGradient>
</defs>
</svg>
