<svg viewBox="0 0 620 560" fill="none" xmlns="http://www.w3.org/2000/svg">
<path fill-rule="evenodd" clip-rule="evenodd" d="M229.479 130.521C229.479 86.0503 265.53 50 310 50C354.47 50 390.521 86.0503 390.521 130.521V152.096L409.206 141.308C447.718 119.073 496.964 132.268 519.199 170.781C541.434 209.293 528.239 258.539 489.726 280.774L471.041 291.562L489.726 302.35C528.239 324.585 541.434 373.83 519.199 412.343C496.964 450.855 447.718 464.051 409.206 441.815L390.521 431.028V452.603C390.521 497.074 354.47 533.124 310 533.124C265.53 533.124 229.479 497.074 229.479 452.603V431.028L210.795 441.815C172.282 464.051 123.037 450.855 100.801 412.343C78.5662 373.83 91.7616 324.585 130.274 302.35L148.959 291.562L130.274 280.774C91.7613 258.539 78.566 209.293 100.801 170.781C123.036 132.268 172.282 119.073 210.794 141.308L229.479 152.096V130.521Z" fill="url(#paint0_linear_585_3280)"/>
<path d="M308.214 81.2971C321.619 81.2971 334.476 86.6219 343.956 96.1002C353.436 105.579 358.763 118.434 358.765 131.84V265.6H257.662V131.84C257.664 118.434 262.991 105.579 272.471 96.1002C281.951 86.6219 294.808 81.2971 308.214 81.2971Z" fill="url(#paint1_linear_585_3280)" stroke="black" stroke-miterlimit="10" stroke-linecap="round"/>
<path d="M308.213 96.1077C312.703 96.1065 317.148 96.9899 321.296 98.7074C325.444 100.425 329.213 102.943 332.387 106.117C335.562 109.292 338.08 113.061 339.797 117.208C341.515 121.356 342.398 125.802 342.397 130.291V265.6H274.025V130.291C274.025 125.802 274.91 121.356 276.628 117.209C278.346 113.061 280.864 109.293 284.039 106.118C287.214 102.944 290.983 100.426 295.131 98.7085C299.278 96.9908 303.724 96.1071 308.213 96.1077Z" fill="url(#paint2_linear_585_3280)" stroke="black" stroke-miterlimit="10" stroke-linecap="round"/>
<path d="M308.213 113.589C310.413 113.588 312.59 114.021 314.622 114.862C316.654 115.704 318.501 116.937 320.056 118.492C321.611 120.048 322.845 121.894 323.686 123.926C324.527 125.958 324.96 128.136 324.96 130.335V265.6H291.467V130.335C291.468 125.894 293.233 121.635 296.373 118.495C299.513 115.355 303.772 113.59 308.213 113.589Z" fill="url(#paint3_linear_585_3280)" stroke="black" stroke-miterlimit="10" stroke-linecap="round"/>
<path d="M193.65 502.703C204.322 463.185 214.99 423.67 225.656 384.158C236.322 344.646 246.99 305.127 257.662 265.6H358.765L392.557 383.903L426.349 502.21L310 502.465L193.65 502.703Z" fill="url(#paint4_linear_585_3280)" stroke="black" stroke-miterlimit="10" stroke-linecap="round"/>
<path d="M365.695 237.532L349.521 239.772L333.346 242.016C330.374 242.426 327.36 241.639 324.967 239.828C322.575 238.017 320.999 235.33 320.586 232.358C320.383 230.885 320.473 229.386 320.85 227.947C321.227 226.508 321.883 225.157 322.782 223.972C323.681 222.787 324.805 221.791 326.089 221.04C327.373 220.29 328.793 219.8 330.266 219.598L346.441 217.358L362.611 215.114C365.583 214.705 368.597 215.492 370.989 217.303C373.382 219.114 374.958 221.8 375.371 224.772C375.78 227.745 374.993 230.759 373.182 233.151C371.372 235.544 368.685 237.12 365.713 237.532H365.695Z" fill="#040400" stroke="#040400" stroke-miterlimit="10"/>
<path d="M323.544 306.406L311.479 385.9L299.41 465.395H394.296L384.409 423.217L374.523 381.038C374.523 381.038 379.041 372.489 380.683 358.889C382.324 345.288 381.057 326.628 369.511 306.406" fill="#F6C34C"/>
<path d="M323.544 306.406L311.479 385.9L299.41 465.395H394.296L384.409 423.217L374.523 381.038C374.523 381.038 379.041 372.489 380.683 358.889C382.324 345.288 381.057 326.628 369.511 306.406" stroke="#070707" stroke-miterlimit="10" stroke-linecap="round"/>
<path d="M364.609 332.92C362.319 335.211 360.969 338.276 360.824 341.512C360.678 344.749 361.748 347.922 363.823 350.41C365.899 352.897 368.829 354.519 372.039 354.956C375.249 355.394 378.506 354.615 381.171 352.773C381.503 345.191 380.779 337.6 379.019 330.218C376.625 329.165 373.968 328.859 371.396 329.341C368.825 329.823 366.459 331.07 364.609 332.92Z" fill="#DBCAF4" stroke="black" stroke-miterlimit="10" stroke-linecap="round"/>
<path d="M332.696 320.675C336.139 320.675 339.44 319.307 341.874 316.873C344.309 314.439 345.676 311.137 345.676 307.695C345.676 307.264 345.654 306.834 345.61 306.406H323.544L322.193 315.32C322.591 315.872 323.033 316.392 323.513 316.873C324.718 318.081 326.149 319.039 327.725 319.691C329.301 320.343 330.99 320.678 332.696 320.675Z" fill="#DBCAF4" stroke="black" stroke-miterlimit="10" stroke-linecap="round"/>
<path d="M325.712 366.426C327.451 364.686 328.661 362.489 329.199 360.088C329.737 357.688 329.582 355.184 328.752 352.868C327.922 350.553 326.451 348.521 324.511 347.009C322.57 345.497 320.24 344.568 317.792 344.329L313.902 369.959C316.009 370.396 318.191 370.303 320.253 369.689C322.315 369.074 324.192 367.958 325.716 366.439L325.712 366.426Z" fill="#DBCAF4" stroke="black" stroke-miterlimit="10" stroke-linecap="round"/>
<path d="M343.978 388.36C340.975 388.36 338.065 389.401 335.743 391.306C333.422 393.212 331.833 395.863 331.247 398.808C330.662 401.753 331.115 404.81 332.531 407.459C333.947 410.107 336.237 412.183 339.011 413.332C341.785 414.481 344.873 414.633 347.746 413.761C350.62 412.889 353.102 411.048 354.771 408.551C356.439 406.054 357.19 403.056 356.896 400.067C356.601 397.079 355.28 394.285 353.156 392.161C351.952 390.955 350.521 389.998 348.946 389.345C347.371 388.693 345.683 388.358 343.978 388.36Z" fill="#DBCAF4" stroke="black" stroke-miterlimit="10" stroke-linecap="round"/>
<path d="M378.324 427.96C376.315 429.966 375.02 432.576 374.637 435.389C374.253 438.202 374.802 441.063 376.2 443.534C377.598 446.005 379.768 447.95 382.377 449.07C384.985 450.19 387.889 450.424 390.644 449.736L384.717 424.462C382.295 424.993 380.076 426.207 378.324 427.96Z" fill="#DBCAF4" stroke="black" stroke-miterlimit="10" stroke-linecap="round"/>
<path d="M338.692 452.569C336.656 450.522 333.994 449.212 331.129 448.847C328.264 448.482 325.359 449.083 322.874 450.555C320.39 452.027 318.467 454.286 317.41 456.974C316.353 459.662 316.223 462.625 317.04 465.395H341.957C342.303 464.21 342.479 462.982 342.481 461.748C342.485 460.044 342.152 458.356 341.502 456.781C340.852 455.206 339.897 453.774 338.692 452.569Z" fill="#DBCAF4" stroke="black" stroke-miterlimit="10" stroke-linecap="round"/>
<path d="M323.542 306.406H369.5L370.697 304.373L371.89 302.34H390.708C391.81 302.338 392.906 302.19 393.969 301.9C395.452 301.498 396.836 300.794 398.034 299.833C399.233 298.871 400.22 297.673 400.934 296.312C402.034 294.279 402.778 291.56 402.778 287.926C402.781 282.775 402.055 277.649 400.622 272.702C399.192 267.752 397.058 263.034 394.286 258.692C389.221 250.772 383.088 243.292 375.806 237.911C368.524 232.53 360.124 229.177 350.506 229.485C344.589 229.677 338.722 230.632 333.051 232.327C328.475 233.7 325.324 235.196 324.101 235.922C318.114 239.482 312.995 244.333 309.119 250.121C306.815 253.514 304.944 257.181 303.549 261.037C306.878 268.599 310.212 276.162 313.55 283.724C316.888 291.286 320.219 298.846 323.542 306.406Z" fill="#ECE7E1" stroke="black" stroke-miterlimit="10" stroke-linecap="round"/>
<path d="M354.263 215.471C353.388 211.557 351.154 208.081 347.958 205.659C344.979 203.459 341.358 202.535 337.776 203.375C334.195 204.216 331.37 206.666 329.676 209.975C327.891 213.565 327.44 217.673 328.404 221.565C328.475 221.873 328.554 222.172 328.642 222.471C328.73 222.77 328.827 223.065 328.923 223.351L327.898 224.403L326.873 225.45L328.633 226.022L330.393 226.598C331.886 229.172 334.085 231.263 336.729 232.626C339.234 233.915 342.113 234.279 344.86 233.656C348.433 232.816 351.267 230.36 352.961 227.056C354.755 223.471 355.216 219.365 354.263 215.471Z" fill="#F2B3C1" stroke="black" stroke-miterlimit="10" stroke-linecap="round"/>
<path d="M334.275 220.751C334.318 220.957 334.278 221.172 334.165 221.349C334.047 221.526 333.866 221.651 333.659 221.697C333.556 221.719 333.449 221.72 333.346 221.7C333.242 221.68 333.144 221.64 333.056 221.583C332.968 221.526 332.892 221.453 332.833 221.367C332.774 221.28 332.733 221.183 332.713 221.081C332.691 220.978 332.69 220.873 332.709 220.769C332.728 220.666 332.767 220.568 332.825 220.48C332.882 220.392 332.956 220.317 333.042 220.257C333.129 220.198 333.226 220.157 333.329 220.135C333.431 220.113 333.537 220.112 333.64 220.131C333.743 220.15 333.841 220.19 333.929 220.247C334.017 220.304 334.093 220.378 334.152 220.465C334.211 220.551 334.253 220.648 334.275 220.751Z" fill="#040400"/>
<path d="M337.61 224.759C337.58 225.062 337.504 225.359 337.386 225.639C337.163 226.179 336.783 226.639 336.295 226.959C335.909 227.208 335.467 227.359 335.01 227.399C334.75 227.433 334.487 227.433 334.227 227.399" stroke="black" stroke-miterlimit="10" stroke-linecap="round"/>
<path d="M331.049 217.063L333.491 216.861L335.937 216.654" stroke="black" stroke-miterlimit="10" stroke-linecap="round"/>
<path d="M342.306 220.531C342.373 220.843 342.377 221.166 342.319 221.48C342.261 221.794 342.141 222.094 341.967 222.361C341.792 222.63 341.566 222.861 341.302 223.042C341.038 223.224 340.741 223.351 340.427 223.417C340.114 223.483 339.79 223.487 339.476 223.428C339.161 223.369 338.86 223.249 338.592 223.074C338.189 222.811 337.872 222.434 337.683 221.991C337.493 221.548 337.439 221.058 337.528 220.585C337.616 220.111 337.843 219.674 338.18 219.329C338.517 218.985 338.948 218.747 339.419 218.648C340.052 218.516 340.712 218.639 341.254 218.991C341.523 219.165 341.755 219.39 341.935 219.655C342.116 219.919 342.242 220.217 342.306 220.531Z" fill="#FF6406" stroke="#070707" stroke-miterlimit="10" stroke-linecap="round"/>
<path d="M388.232 473.786H305.424C304.587 473.786 303.757 473.621 302.984 473.3C302.21 472.979 301.507 472.509 300.915 471.917C300.323 471.324 299.853 470.621 299.533 469.847C299.213 469.073 299.048 468.244 299.049 467.406C299.048 466.568 299.213 465.739 299.533 464.965C299.853 464.192 300.323 463.488 300.915 462.896C301.507 462.304 302.21 461.835 302.984 461.514C303.758 461.194 304.587 461.03 305.424 461.03H388.232C389.07 461.03 389.899 461.194 390.673 461.514C391.447 461.835 392.15 462.304 392.742 462.896C393.334 463.488 393.804 464.192 394.124 464.965C394.444 465.739 394.609 466.568 394.608 467.406C394.609 468.244 394.444 469.073 394.124 469.847C393.804 470.621 393.334 471.324 392.742 471.917C392.15 472.509 391.447 472.979 390.673 473.3C389.899 473.621 389.07 473.786 388.232 473.786Z" fill="#FC762B" stroke="#070707" stroke-miterlimit="10" stroke-linecap="round"/>
<path d="M330.848 208.061C333.219 211.335 335.507 213.46 337.606 214.828C339.303 215.969 341.225 216.732 343.242 217.063C345.346 217.389 348.14 217.297 350.406 217.125C352.672 216.953 354.414 216.685 354.414 216.685C354.414 216.685 354.344 216.337 354.242 215.871C354.141 215.405 354.014 214.828 353.895 214.371C353.807 214.036 353.688 213.64 353.534 213.191C353.38 212.743 353.182 212.25 352.936 211.717C353.185 211.564 353.454 211.447 353.736 211.37C354.263 211.22 354.82 211.22 355.347 211.37C355.808 211.498 356.232 211.735 356.583 212.061C356.784 212.241 356.959 212.448 357.102 212.677C355.782 207.427 351.673 204.044 346.925 202.825C342.178 201.606 336.77 202.548 332.806 205.949C332.395 206.299 332.008 206.677 331.648 207.08C331.323 207.436 331.059 207.775 330.848 208.061Z" fill="#040400" stroke="#040400" stroke-miterlimit="10"/>
<path d="M383.555 461.03L385.174 481.64L386.789 502.241H375.56C375.302 499.208 375.044 496.175 374.786 493.141C374.527 490.108 374.269 487.075 374.011 484.042C363.628 492.791 351.085 498.589 337.694 500.828C332.462 501.715 327.157 502.086 321.854 501.937C325.811 499.738 329.526 497.13 332.937 494.153C337.94 489.796 342.194 484.647 345.53 478.912C347.313 475.835 348.82 472.606 350.031 469.263C351.004 466.581 351.789 463.834 352.381 461.043H383.586L383.555 461.03Z" fill="#84A1E5" stroke="#070707" stroke-miterlimit="10" stroke-linecap="round"/>
<path d="M361.001 250.86C360.883 251.167 360.791 251.483 360.728 251.806C360.662 252.13 360.631 252.461 360.636 252.792C360.642 253.073 360.687 253.353 360.768 253.623C360.848 253.889 360.986 254.134 361.173 254.34C361.446 254.628 361.806 254.817 362.198 254.877C362.595 254.944 363.002 254.907 363.381 254.772C364.28 254.406 365.021 253.736 365.476 252.88C365.944 252.027 366.357 251.145 366.712 250.24L368.125 247.019C368.595 245.945 369.071 244.876 369.559 243.811C370.038 242.539 370.605 241.303 371.257 240.111C372.049 238.822 373.079 237.911 374.377 238.584C374.627 238.722 374.833 238.928 374.971 239.178C375.075 239.351 375.153 239.537 375.204 239.732C375.386 239.31 375.618 238.912 375.895 238.544C376.335 237.959 376.986 237.396 377.787 237.484C378.195 237.531 378.573 237.72 378.856 238.016C379.14 238.312 379.317 238.695 379.358 239.103C379.377 239.358 379.361 239.614 379.309 239.864C379.243 240.201 379.136 240.529 378.993 240.841C379.05 240.705 379.279 240.762 379.512 240.841C379.698 240.927 379.879 241.024 380.053 241.132C380.273 241.27 380.461 241.455 380.603 241.673C380.744 241.89 380.843 242.132 380.893 242.386C380.944 242.669 380.953 242.958 380.92 243.244C380.888 243.531 380.832 243.815 380.753 244.093C380.616 244.594 380.467 245.087 380.313 245.584C380.159 246.082 380.018 246.579 379.873 247.085C380.069 247.225 380.253 247.383 380.423 247.556C380.645 247.786 380.839 248.043 380.999 248.321C381.423 249.123 381.584 250.037 381.461 250.935C381.371 251.668 381.195 252.389 380.937 253.082C379.621 256.845 378.003 260.496 376.097 263.998C375.375 265.35 374.58 266.661 373.717 267.928C372.533 269.582 371.139 271.448 369.511 273.498C367.883 275.548 366.026 277.735 363.927 280.036L351.867 270.352L346.406 265.952C346.406 265.952 346.547 265.327 346.714 264.632C346.881 263.937 347.071 263.145 347.154 262.824C347.449 261.803 347.726 260.808 348.034 259.823C348.353 258.825 348.743 257.852 349.2 256.91C350.301 254.752 351.615 252.709 353.121 250.812C354.595 248.898 356.201 247.067 357.732 245.215C358.405 244.307 359.149 243.455 359.958 242.667C360.838 241.906 361.85 241.435 363.038 241.849C363.328 241.948 363.589 242.117 363.798 242.341C364.007 242.565 364.157 242.837 364.235 243.134C364.387 243.736 364.364 244.369 364.169 244.96C364.054 245.315 363.906 245.66 363.729 245.989C363.557 246.324 363.373 246.649 363.188 246.97C362.836 247.591 362.418 248.216 362.022 248.862C361.62 249.495 361.278 250.164 361.001 250.86Z" fill="#F2B3C1" stroke="black" stroke-miterlimit="10" stroke-linecap="round"/>
<path d="M363.943 280.067L354.519 272.416L345.09 264.76L336.73 271.883L328.37 279.002C328.678 278.743 326.609 276.384 324.317 273.991C322.025 271.597 319.596 269.151 319.173 268.759C308.776 258.679 295.854 253.768 282.526 253.21C269.198 252.651 255.528 256.452 243.648 263.8L245.531 252.902L247.418 242.003L234.962 241.167L222.51 240.331C219.764 253.474 217.987 261.697 216.715 267.307C215.444 272.917 214.687 275.909 213.987 278.584C213.961 278.681 213.886 278.967 213.785 279.394C213.683 279.821 213.552 280.388 213.415 281.044C212.623 284.859 211.937 288.159 211.796 291.102C211.655 294.046 212.06 296.616 213.45 298.978C214.487 300.711 215.849 302.226 217.463 303.44C219.066 304.664 220.875 305.591 222.805 306.177C225.008 306.802 227.335 306.842 229.559 306.296C231.759 305.825 233.893 304.976 236.119 304.272C236.999 303.986 237.558 303.81 239.067 303.299C240.576 302.789 243.058 301.953 247.823 300.329L250.82 299.308L253.072 298.547C253.659 302.868 254.237 307.187 254.806 311.505C255.375 315.823 255.953 320.141 256.54 324.459L283.859 324.384L311.183 324.305C311.714 321.327 312.248 318.347 312.785 315.364C313.321 312.381 313.86 309.395 314.4 306.406C315.964 307.9 317.781 309.104 319.768 309.961C320.945 310.464 322.185 310.803 323.455 310.968C326.975 311.408 330.306 310.379 333.24 308.808C336.175 307.237 338.723 305.147 340.72 303.528C341.552 302.855 342.251 302.208 342.801 301.72C343.352 301.231 343.748 300.809 343.972 300.58C347.615 296.902 351.377 293.056 354.849 289.488C358.32 285.919 361.479 282.632 363.943 280.067Z" fill="#84A1E5" stroke="#070707" stroke-miterlimit="10" stroke-linecap="round"/>
<path d="M375.204 239.746C374.764 241.145 374.324 242.601 373.766 244.102C373.207 245.602 372.613 247.151 371.931 248.739C371.535 249.654 371.134 250.542 370.73 251.401C370.325 252.259 369.911 253.091 369.502 253.896" stroke="black" stroke-miterlimit="10" stroke-linecap="round"/>
<path d="M378.991 240.854C378.551 242.174 378.071 243.534 377.53 244.942C376.989 246.35 376.386 247.806 375.722 249.294C375.223 250.408 374.718 251.48 374.208 252.51C373.698 253.535 373.183 254.525 372.668 255.471" stroke="black" stroke-miterlimit="10" stroke-linecap="round"/>
<path d="M379.885 247.12C379.885 247.12 379.137 249.083 378.218 251.313C377.298 253.544 376.211 256.048 375.529 257.121" stroke="black" stroke-miterlimit="10" stroke-linecap="round"/>
<path d="M327.631 277.722L328.797 279.275C329.188 279.79 329.576 280.309 329.967 280.828" stroke="black" stroke-miterlimit="10" stroke-linecap="round"/>
<path d="M301.311 294.011C302.34 295.09 303.409 296.18 304.518 297.28C305.627 298.38 306.772 299.49 307.955 300.611C309.046 301.645 310.128 302.639 311.202 303.607C312.275 304.575 313.336 305.504 314.387 306.406" stroke="black" stroke-miterlimit="10" stroke-linecap="round"/>
<path d="M235.641 268.61C236.521 268.126 237.401 267.624 238.281 267.105C239.161 266.586 240.058 266.046 240.973 265.486C241.413 265.213 241.853 264.936 242.293 264.663L243.561 263.84" stroke="black" stroke-miterlimit="10" stroke-linecap="round"/>
<path d="M361.479 461.03L362.975 481.627L364.476 502.228H354.505L353.418 493.221L352.332 484.214C349.484 486.316 346.514 488.248 343.439 490C334.766 494.924 325.332 498.367 315.526 500.186C311.312 500.971 307.048 501.454 302.766 501.634C304.826 500.309 306.801 498.857 308.679 497.286C310.929 495.4 313.029 493.34 314.958 491.126C319.374 486.055 322.863 480.246 325.267 473.966C326.924 469.675 328.104 465.215 328.787 460.665L345.151 460.837L361.479 461.03Z" fill="#84A1E5" stroke="#070707" stroke-miterlimit="10" stroke-linecap="round"/>
<path d="M274.361 247.806C273.276 244.227 273.308 240.402 274.453 236.842C275.624 233.225 277.973 230.096 281.643 228.794C285.088 227.571 288.784 228.094 291.974 229.934C295.405 231.978 297.999 235.175 299.291 238.954C299.397 239.248 299.494 239.548 299.582 239.834C299.67 240.12 299.749 240.428 299.819 240.714L301.245 241.039L302.67 241.365L301.491 242.799L300.321 244.26C300.448 246.882 299.838 249.487 298.561 251.78C297.351 253.977 295.493 255.748 293.241 256.853C290.689 258.04 287.8 258.288 285.084 257.552C283.457 257.142 281.904 256.484 280.477 255.603C277.614 253.771 275.458 251.023 274.361 247.806Z" fill="#F2B3C1" stroke="black" stroke-miterlimit="10" stroke-linecap="round"/>
<path d="M275.901 251.08C275.69 250.732 275.461 250.35 275.272 249.94C275.082 249.531 274.858 249.091 274.664 248.62C274.327 247.805 274.052 246.965 273.842 246.108C273.668 245.399 273.535 244.681 273.446 243.956C273.023 244.016 272.61 244.131 272.218 244.299C271.682 244.524 271.223 244.9 270.898 245.382C270.304 246.315 270.366 247.582 270.858 248.735C271.083 249.303 271.424 249.819 271.859 250.248C272.293 250.678 272.813 251.012 273.384 251.229C273.852 251.374 274.346 251.416 274.832 251.353C275.198 251.305 275.557 251.214 275.901 251.08Z" fill="#F2B3C1" stroke="black" stroke-miterlimit="10" stroke-linecap="round"/>
<path d="M293.94 241.453C294.017 241.648 294.167 241.806 294.358 241.893C294.502 241.957 294.661 241.976 294.816 241.95C294.97 241.924 295.114 241.852 295.228 241.745C295.342 241.637 295.422 241.498 295.458 241.345C295.493 241.192 295.483 241.032 295.428 240.885C295.351 240.689 295.201 240.531 295.01 240.445C294.813 240.366 294.594 240.366 294.398 240.445C294.299 240.486 294.209 240.545 294.134 240.621C294.058 240.696 293.998 240.786 293.958 240.885C293.883 241.066 293.876 241.268 293.94 241.453Z" fill="#040400"/>
<path d="M294.671 236.652L292.497 237.774L290.328 238.892" stroke="black" stroke-miterlimit="10" stroke-linecap="round"/>
<path d="M343.844 481.512C344.591 480.545 345.278 479.533 345.899 478.481C346.524 477.429 347.041 476.318 347.444 475.163C347.794 473.997 347.952 472.781 347.91 471.564C347.853 470.2 347.47 468.924 346.427 468.625C344.746 468.106 343.347 469.505 342.26 471.265C341.347 472.899 340.565 474.603 339.92 476.36C339.263 477.942 338.739 479.575 338.353 481.244C337.97 482.914 337.698 484.607 337.539 486.313C337.691 484.375 337.521 482.426 337.038 480.544C336.55 478.665 335.963 476.813 335.278 474.996C334.981 474.145 334.63 473.315 334.226 472.51C333.823 471.704 333.325 470.95 332.743 470.262C332.111 469.541 331.35 468.944 330.499 468.502C329.584 468.062 328.612 467.916 327.89 468.616C327.388 469.104 327.278 469.971 327.327 470.864C327.39 471.679 327.525 472.485 327.732 473.276C327.947 474.141 328.242 474.985 328.612 475.797C328.975 476.61 329.392 477.398 329.861 478.155C330.773 479.633 331.827 481.018 333.007 482.291C334.186 483.566 335.478 484.733 336.866 485.776C337.627 486.352 338.186 486.476 338.754 486.313C339.411 486.031 340.008 485.626 340.514 485.12C341.139 484.589 341.727 484.016 342.274 483.404C342.828 482.802 343.347 482.164 343.844 481.512Z" stroke="black" stroke-miterlimit="10" stroke-linecap="round"/>
<path d="M285.206 245.69C285.329 246.013 285.529 246.3 285.79 246.526C286.05 246.753 286.362 246.912 286.699 246.989C287.035 247.066 287.385 247.059 287.718 246.968C288.051 246.878 288.357 246.706 288.608 246.469C288.859 246.232 289.047 245.937 289.157 245.61C289.267 245.283 289.294 244.934 289.237 244.593C289.179 244.253 289.039 243.932 288.827 243.659C288.616 243.386 288.341 243.169 288.026 243.028C287.518 242.801 286.941 242.784 286.42 242.98C285.901 243.18 285.482 243.577 285.255 244.085C285.027 244.592 285.01 245.169 285.206 245.69Z" fill="#FF6406" stroke="#070707" stroke-miterlimit="10" stroke-linecap="round"/>
<path d="M232.596 478.754C233.344 477.787 234.032 476.774 234.655 475.722C235.28 474.671 235.796 473.56 236.195 472.404C236.548 471.238 236.707 470.023 236.666 468.805C236.609 467.441 236.226 466.165 235.183 465.866C233.502 465.347 232.103 466.746 231.016 468.506C230.104 470.141 229.32 471.845 228.671 473.601C228.019 475.184 227.496 476.818 227.109 478.485C226.724 480.155 226.452 481.848 226.295 483.554C226.446 481.618 226.275 479.67 225.789 477.79C225.302 475.91 224.715 474.058 224.029 472.242C223.732 471.39 223.381 470.558 222.978 469.751C222.573 468.946 222.075 468.192 221.495 467.503C220.861 466.782 220.098 466.185 219.246 465.743C218.336 465.303 217.363 465.158 216.637 465.857C216.136 466.346 216.026 467.212 216.078 468.106C216.141 468.92 216.277 469.727 216.483 470.517C216.697 471.383 216.991 472.227 217.363 473.038C217.726 473.851 218.144 474.639 218.613 475.396C219.523 476.875 220.577 478.26 221.759 479.532C222.938 480.809 224.229 481.977 225.618 483.022C226.379 483.594 226.938 483.717 227.505 483.554C228.164 483.275 228.762 482.87 229.265 482.362C229.89 481.832 230.478 481.26 231.025 480.65C231.58 480.043 232.121 479.405 232.596 478.754Z" stroke="black" stroke-miterlimit="10" stroke-linecap="round"/>
<path d="M292.841 246.781C293.052 246.89 293.271 246.981 293.497 247.054C293.723 247.131 293.961 247.168 294.201 247.164C294.485 247.142 294.763 247.07 295.023 246.953C295.284 246.837 295.559 246.76 295.842 246.724C296.16 246.686 296.481 246.766 296.744 246.947C297.008 247.128 297.197 247.399 297.276 247.709C297.364 248.018 297.352 248.347 297.242 248.649C297.132 248.951 296.93 249.21 296.665 249.39C295.686 249.967 294.554 250.23 293.422 250.143C292.229 250.059 291.129 249.584 290.729 248.528C290.615 248.254 290.596 247.95 290.676 247.664C290.755 247.378 290.929 247.128 291.169 246.953C291.405 246.772 291.686 246.661 291.981 246.631C292.276 246.6 292.574 246.652 292.841 246.781Z" fill="#ECE7E1" stroke="black" stroke-miterlimit="10" stroke-linecap="round"/>
<path d="M273.444 243.956C275.489 244.245 277.573 244.046 279.525 243.376C282.658 242.258 285.962 239.482 286.671 232.855C288.809 234.028 291.294 234.405 293.684 233.92C295.805 233.449 297.552 232.248 298.441 230.594C299.111 229.286 299.357 227.802 299.145 226.348C298.971 224.828 298.206 223.439 297.015 222.48C296.312 221.974 295.51 221.622 294.661 221.449C293.813 221.275 292.937 221.283 292.092 221.472C290.133 221.879 288.402 223.017 287.252 224.654C283.425 224.349 279.585 225.057 276.12 226.708C273.04 228.253 270.791 230.558 269.77 233.339C269.467 234.177 269.273 235.052 269.194 235.94C269.08 237.337 269.199 238.744 269.546 240.102L270.228 242.742L270.906 245.382C271.098 245.117 271.324 244.879 271.579 244.674C272.102 244.231 272.76 243.979 273.444 243.956Z" fill="#040400" stroke="#040400" stroke-miterlimit="10"/>
<path d="M255.88 321.181C251.638 345.692 247.398 370.201 243.159 394.709C238.921 419.217 234.682 443.727 230.443 468.238H276.78C277.466 456.108 278.151 443.976 278.835 431.841C279.518 419.706 280.203 407.572 280.889 395.44L282.209 431.841L283.529 468.238H331.877L321.831 394.586L311.786 320.934L283.842 321.058L255.88 321.181Z" fill="#D87D61" stroke="black" stroke-miterlimit="10" stroke-linecap="round"/>
<path d="M264.315 321.146H263.11L253.39 397.472L244.379 468.238H246.781L255.753 397.776L265.517 321.137L264.315 321.146Z" fill="#F2B3C1" stroke="black" stroke-miterlimit="10" stroke-linecap="round"/>
<path d="M274.117 321.102L266.795 397.912L260.09 468.238H262.479L269.167 398.141L276.515 321.088H275.314L274.117 321.102Z" fill="#F2B3C1" stroke="black" stroke-miterlimit="10" stroke-linecap="round"/>
<path d="M289.76 321.04H288.568H287.371L292.506 398.656L297.104 468.238H299.493L294.886 398.48L289.76 321.04Z" fill="#F2B3C1" stroke="black" stroke-miterlimit="10" stroke-linecap="round"/>
<path d="M309.305 398.251L302.124 320.979H299.73L306.92 398.48L313.401 468.247H315.795L309.305 398.251Z" fill="#F2B3C1" stroke="black" stroke-miterlimit="10" stroke-linecap="round"/>
<path d="M277.268 469.984C277.268 472.242 274.628 474.283 270.351 475.762C266.075 477.24 260.17 478.151 253.631 478.151C247.093 478.151 241.223 477.24 236.96 475.762C232.696 474.283 230.043 472.242 230.043 469.984C230.043 467.727 232.683 465.69 236.96 464.212C241.237 462.733 247.128 461.84 253.649 461.84C260.17 461.84 266.075 462.755 270.369 464.234C274.663 465.712 277.268 467.732 277.268 469.984Z" fill="#F2B3C1" stroke="black" stroke-miterlimit="10" stroke-linecap="round"/>
<path d="M332.471 469.984C332.471 472.241 329.717 474.283 325.255 475.761C320.794 477.24 314.638 478.151 307.831 478.151C301.025 478.151 294.869 477.24 290.407 475.761C285.946 474.283 283.191 472.241 283.191 469.984C283.191 467.727 285.95 465.69 290.407 464.211C294.865 462.733 301.029 461.818 307.831 461.818C314.634 461.818 320.798 462.733 325.255 464.211C329.713 465.69 332.471 467.731 332.471 469.984Z" fill="#F2B3C1" stroke="black" stroke-miterlimit="10" stroke-linecap="round"/>
<path d="M238.636 463.71L236.233 473.667C235.435 476.985 234.636 480.304 233.835 483.624C233.835 483.624 228.555 483.035 223.486 485.067C218.418 487.1 213.648 491.747 214.686 502.227H270.258C270.578 502.228 270.894 502.164 271.187 502.038C271.471 501.919 271.73 501.746 271.948 501.528C272.208 501.261 272.4 500.935 272.507 500.577C272.578 500.336 272.625 500.089 272.648 499.838C272.727 499.029 272.815 495.17 272.903 489.16C272.991 483.149 273.061 474.996 273.123 465.584C272.353 465.237 271.407 464.836 270.307 464.432C269.207 464.027 267.948 463.618 266.554 463.248C264.31 462.651 262.02 462.244 259.707 462.033C257.639 461.835 255.747 461.805 254.022 461.778C252.9 461.778 251.532 461.743 249.913 461.818C248.037 461.908 246.169 462.107 244.316 462.412C243.154 462.605 242.094 462.825 241.144 463.05C240.193 463.274 239.344 463.503 238.636 463.71Z" fill="#ECE7E1" stroke="black" stroke-miterlimit="10" stroke-linecap="round"/>
<path d="M289.435 464.647C289.353 467.384 289.268 470.121 289.18 472.858L288.929 481.064C288.827 484.29 288.727 487.507 288.63 490.713C288.533 493.919 288.434 497.137 288.331 500.366C288.319 500.533 288.319 500.701 288.331 500.868C288.342 501.161 288.42 501.447 288.56 501.704C288.677 501.878 288.849 502.008 289.048 502.074C289.396 502.195 289.763 502.247 290.131 502.228H344.691C344.85 499.222 344.295 496.221 343.071 493.472C341.052 489.072 336.603 484.562 326.906 484.267C326.319 480.852 325.732 477.437 325.146 474.019L323.386 463.776C322.427 463.525 321.344 463.266 320.147 463.019C318.951 462.773 317.644 462.54 316.231 462.346C314.819 462.152 313.266 461.976 311.493 461.866C309.719 461.756 307.761 461.712 305.649 461.783C304.457 461.818 302.842 461.875 300.889 462.082C298.591 462.323 296.312 462.72 294.069 463.27C293.105 463.508 292.225 463.75 291.429 463.987C290.632 464.225 290.003 464.449 289.435 464.647Z" fill="#ECE7E1" stroke="black" stroke-miterlimit="10" stroke-linecap="round"/>
<path d="M232.414 489.34L233.122 486.485L233.835 483.625" stroke="black" stroke-miterlimit="10" stroke-linecap="round"/>
<path d="M344.426 497.775L316.411 497.696L288.401 497.616C288.401 498.171 288.401 498.725 288.379 499.28V500.943C288.377 501.111 288.409 501.277 288.472 501.433C288.534 501.588 288.627 501.73 288.745 501.849C288.863 501.968 289.003 502.063 289.158 502.128C289.312 502.193 289.478 502.227 289.646 502.228H344.712C344.734 501.893 344.747 501.537 344.747 501.163C344.747 500.789 344.747 500.384 344.712 499.97C344.677 499.557 344.646 499.174 344.598 498.809C344.549 498.444 344.488 498.096 344.426 497.775Z" fill="#DBCAF4" stroke="black" stroke-miterlimit="10" stroke-linecap="round"/>
<path d="M214.595 497.801L243.635 497.779H272.675L272.622 498.989L272.574 500.199C272.541 500.402 272.48 500.599 272.393 500.785C272.236 501.11 272.005 501.394 271.72 501.616C271.451 501.841 271.135 502.003 270.796 502.091C270.6 502.141 270.399 502.166 270.198 502.166C261.367 502.193 251.902 502.197 242.438 502.197C232.974 502.197 223.518 502.197 214.683 502.228C214.643 501.911 214.612 501.577 214.586 501.229C214.56 500.881 214.542 500.52 214.533 500.146C214.524 499.772 214.533 499.315 214.533 498.923C214.533 498.532 214.568 498.158 214.595 497.801Z" fill="#DBCAF4" stroke="black" stroke-miterlimit="10" stroke-linecap="round"/>
<path d="M326.963 484.491L327.443 487.021L327.918 489.556" stroke="black" stroke-miterlimit="10" stroke-linecap="round"/>
<path d="M390.604 108.577C390.604 108.243 389.724 107.935 388.303 107.697C386.409 107.418 384.498 107.264 382.583 107.235C382.554 105.326 382.355 103.424 381.989 101.55C381.672 100.12 381.263 99.2537 380.81 99.2537C380.357 99.2537 379.93 100.134 379.635 101.55C379.267 103.424 379.067 105.326 379.037 107.235C377.122 107.264 375.211 107.418 373.317 107.697C371.882 107.939 371.016 108.247 371.016 108.577C371.016 108.907 371.896 109.22 373.317 109.457C375.212 109.729 377.123 109.876 379.037 109.897C379.067 111.806 379.267 113.709 379.635 115.582C379.948 117.012 380.361 117.879 380.81 117.879C381.259 117.879 381.69 116.999 381.989 115.582C382.36 113.718 382.564 111.824 382.601 109.924C384.515 109.902 386.426 109.755 388.321 109.484C389.738 109.22 390.604 108.912 390.604 108.577Z" fill="url(#paint5_linear_585_3280)" stroke="black" stroke-miterlimit="10" stroke-linecap="round"/>
<path d="M240.449 172.267C240.449 171.92 239.569 171.603 238.068 171.356C236.107 171.066 234.128 170.905 232.146 170.872C232.118 168.898 231.911 166.931 231.53 164.994C231.204 163.511 230.777 162.614 230.311 162.614C229.845 162.614 229.431 163.494 229.097 164.994C228.715 166.931 228.509 168.898 228.481 170.872C226.498 170.904 224.52 171.066 222.558 171.356C221.071 171.603 220.178 171.92 220.178 172.267C220.178 172.615 221.058 172.936 222.558 173.182C224.519 173.473 226.498 173.633 228.481 173.662C228.509 175.637 228.715 177.606 229.097 179.545C229.422 181.023 229.845 181.921 230.311 181.921C230.777 181.921 231.191 181.041 231.53 179.545C231.911 177.606 232.118 175.637 232.146 173.662C234.128 173.639 236.106 173.484 238.068 173.2C239.551 172.936 240.449 172.615 240.449 172.267Z" fill="url(#paint6_linear_585_3280)" stroke="black" stroke-miterlimit="10" stroke-linecap="round"/>
<path d="M378.856 130.639C377.126 130.995 376.066 131.369 375.336 132.091C374.605 132.812 374.24 133.873 373.884 135.611C373.877 135.65 373.857 135.685 373.827 135.711C373.797 135.737 373.758 135.751 373.719 135.751C373.679 135.751 373.641 135.737 373.61 135.711C373.58 135.685 373.56 135.65 373.554 135.611C373.197 133.882 372.823 132.817 372.102 132.091C371.38 131.365 370.342 130.995 368.582 130.639C368.542 130.632 368.507 130.612 368.481 130.582C368.456 130.552 368.441 130.513 368.441 130.474C368.441 130.434 368.456 130.396 368.481 130.365C368.507 130.335 368.542 130.315 368.582 130.309C370.311 129.952 371.376 129.574 372.102 128.857C372.828 128.139 373.197 127.097 373.554 125.337C373.56 125.298 373.58 125.262 373.61 125.236C373.641 125.211 373.679 125.197 373.719 125.197C373.758 125.197 373.797 125.211 373.827 125.236C373.857 125.262 373.877 125.298 373.884 125.337C374.24 127.066 374.618 128.126 375.336 128.857C376.053 129.587 377.096 129.952 378.856 130.309C378.895 130.315 378.93 130.335 378.956 130.365C378.982 130.396 378.996 130.434 378.996 130.474C378.996 130.513 378.982 130.552 378.956 130.582C378.93 130.612 378.895 130.632 378.856 130.639Z" fill="url(#paint7_linear_585_3280)" stroke="black" stroke-miterlimit="10" stroke-linecap="round"/>
<path d="M390.604 128.43C389.749 128.431 388.92 128.135 388.258 127.593C387.597 127.051 387.143 126.297 386.976 125.458C386.808 124.619 386.937 123.749 387.34 122.994C387.742 122.239 388.394 121.648 389.184 121.32C389.974 120.992 390.853 120.949 391.672 121.197C392.49 121.445 393.198 121.969 393.673 122.68C394.148 123.391 394.362 124.245 394.279 125.096C394.195 125.947 393.818 126.743 393.214 127.348C392.871 127.691 392.465 127.963 392.017 128.149C391.569 128.335 391.089 128.43 390.604 128.43ZM390.604 123.066C390.385 123.066 390.167 123.109 389.964 123.193C389.761 123.276 389.576 123.4 389.421 123.555C389.265 123.71 389.142 123.895 389.059 124.098C388.975 124.301 388.932 124.519 388.932 124.738C388.931 124.958 388.974 125.175 389.058 125.377C389.142 125.58 389.265 125.764 389.421 125.918C389.576 126.074 389.76 126.198 389.963 126.282C390.167 126.367 390.384 126.41 390.604 126.41C391.047 126.408 391.471 126.231 391.784 125.918C392.097 125.605 392.274 125.181 392.276 124.738C392.276 124.518 392.233 124.301 392.148 124.097C392.064 123.894 391.94 123.71 391.784 123.555C391.63 123.399 391.446 123.276 391.243 123.192C391.041 123.108 390.824 123.065 390.604 123.066Z" fill="url(#paint8_linear_585_3280)" stroke="black" stroke-miterlimit="10" stroke-linecap="round"/>
<path d="M244.268 192.56C243.381 192.562 242.521 192.256 241.834 191.694C241.147 191.133 240.677 190.351 240.502 189.481C240.328 188.611 240.461 187.708 240.878 186.925C241.295 186.142 241.971 185.529 242.79 185.188C243.609 184.848 244.521 184.803 245.37 185.06C246.219 185.316 246.953 185.86 247.446 186.597C247.939 187.335 248.161 188.22 248.074 189.103C247.987 189.986 247.597 190.811 246.97 191.438C246.616 191.794 246.195 192.076 245.731 192.269C245.267 192.462 244.77 192.56 244.268 192.56ZM244.268 187.007C243.809 187.008 243.369 187.192 243.045 187.517C242.721 187.842 242.539 188.282 242.539 188.741C242.537 189.027 242.606 189.309 242.74 189.561C242.874 189.814 243.068 190.03 243.305 190.189C243.543 190.349 243.816 190.447 244.1 190.475C244.385 190.504 244.672 190.461 244.936 190.352C245.2 190.243 245.433 190.07 245.614 189.848C245.795 189.627 245.919 189.364 245.974 189.084C246.029 188.803 246.013 188.513 245.929 188.24C245.845 187.967 245.695 187.719 245.491 187.518C245.331 187.357 245.14 187.23 244.93 187.144C244.72 187.058 244.495 187.014 244.268 187.016V187.007Z" fill="url(#paint9_linear_585_3280)" stroke="black" stroke-miterlimit="10" stroke-linecap="round"/>
<path d="M374.522 381.038L368.543 393.429L362.559 405.824" stroke="black" stroke-miterlimit="10" stroke-linecap="round"/>
<path d="M247.427 241.963C247.537 241.14 247.696 240.106 247.938 238.91C248.18 237.713 248.505 236.353 248.95 234.884C249.567 232.711 250.302 230.574 251.15 228.482C252.109 226.16 253.379 223.98 254.925 222C256.016 220.61 257.187 219.4 258.005 218.313C258.823 217.226 259.277 216.254 258.933 215.352C258.826 215.071 258.656 214.818 258.436 214.613C258.247 214.441 258.037 214.293 257.811 214.173C257.661 214.097 257.503 214.038 257.341 213.997C257.024 213.919 256.697 213.894 256.373 213.922C255.271 214.068 254.217 214.465 253.293 215.084C252.79 215.396 252.31 215.744 251.858 216.126C250.712 217.15 249.66 218.275 248.717 219.488C247.986 220.399 247.559 220.988 247.397 220.892C247.357 220.87 247.348 220.821 247.361 220.689C247.375 220.557 247.397 220.355 247.427 220.012C247.427 219.954 247.427 220.012 247.427 219.8C247.427 219.589 247.427 219.158 247.498 218.12C247.539 217.178 247.586 216.238 247.639 215.299C247.687 214.358 247.749 213.416 247.815 212.474C247.867 211.753 247.907 211.203 247.964 210.754C248.006 210.366 248.1 209.985 248.246 209.623C248.435 209.191 248.686 208.788 248.989 208.426C249.311 208.059 249.658 207.715 250.028 207.397C251.215 206.352 252.479 205.398 253.807 204.541C254.687 203.938 255.167 203.52 255.268 202.781C255.32 202.327 255.238 201.868 255.031 201.461C254.841 201.061 254.546 200.72 254.177 200.476C253.57 200.097 252.835 200.124 251.977 200.383C251.012 200.731 250.08 201.164 249.192 201.677C247.906 202.325 246.678 203.083 245.522 203.943C244.254 204.913 243.217 206.153 242.486 207.573C242.1 208.322 241.796 209.112 241.58 209.927C241.423 210.52 241.312 211.125 241.245 211.735C241.002 211.436 240.714 211.177 240.392 210.965C239.771 210.54 239.028 210.328 238.275 210.362C237.647 210.397 237.039 210.599 236.515 210.948C235.984 211.301 235.556 211.788 235.275 212.36C234.963 212.114 234.616 211.917 234.245 211.775C233.554 211.488 232.788 211.436 232.064 211.626C231.34 211.816 230.698 212.238 230.237 212.826C229.754 213.431 229.459 214.164 229.387 214.934C229.134 214.932 228.881 214.951 228.631 214.991C228.303 215.047 227.985 215.148 227.685 215.29C226.752 215.796 226.029 216.616 225.643 217.605C225.271 218.475 225.029 219.396 224.926 220.337C224.521 223.666 224.118 226.997 223.716 230.33C223.314 233.662 222.911 236.993 222.506 240.322L234.962 241.158L247.427 241.963Z" fill="#F2B3C1" stroke="black" stroke-miterlimit="10" stroke-linecap="round"/>
<path d="M241.078 220.245L241.171 215.968L241.259 211.687" fill="#F2B3C1"/>
<path d="M241.078 220.245L241.171 215.968L241.259 211.687" stroke="black" stroke-miterlimit="10" stroke-linecap="round"/>
<path d="M354.74 219.07C354.74 218.661 354.7 218.225 354.652 217.75C354.603 217.275 354.537 216.809 354.445 216.307C354.286 215.435 354.061 214.576 353.772 213.737C353.533 213.044 353.254 212.365 352.936 211.705C353.327 211.526 353.739 211.401 354.163 211.331C354.739 211.225 355.333 211.292 355.87 211.524C356.878 211.986 357.52 213.104 357.727 214.331C357.845 214.934 357.836 215.554 357.702 216.153C357.568 216.752 357.311 217.317 356.948 217.812C356.632 218.185 356.239 218.485 355.796 218.692C355.461 218.861 355.106 218.988 354.74 219.07Z" fill="#F2B3C1" stroke="black" stroke-miterlimit="10" stroke-linecap="round"/>
<path d="M371.891 302.34C372.278 301.068 372.647 299.74 372.995 298.38C373.343 297.02 373.668 295.564 373.963 294.081C374.609 290.854 375.073 287.593 375.353 284.313C375.622 281.233 375.705 278.356 375.679 275.711" stroke="#070707" stroke-miterlimit="10" stroke-linecap="round"/>
<path d="M235.288 212.329L235.103 216.452C235.042 217.825 234.976 219.198 234.914 220.575" fill="#F2B3C1"/>
<path d="M235.288 212.329L235.103 216.452C235.042 217.825 234.976 219.198 234.914 220.575" stroke="black" stroke-miterlimit="10" stroke-linecap="round"/>
<path d="M229.401 214.903C229.357 215.876 229.308 216.844 229.26 217.816C229.212 218.789 229.163 219.757 229.119 220.725" fill="#F2B3C1"/>
<path d="M229.401 214.903C229.357 215.876 229.308 216.844 229.26 217.816C229.212 218.789 229.163 219.757 229.119 220.725" stroke="black" stroke-miterlimit="10" stroke-linecap="round"/>
<path d="M280.895 395.44V376.911V358.383" fill="#F6991A"/>
<path d="M280.895 395.44V376.911V358.383" stroke="#070707" stroke-miterlimit="10" stroke-linecap="round"/>
<path d="M263.536 462.566V479.814C263.452 481.47 263.74 483.124 264.38 484.654C265.423 486.942 267.716 488.944 272.705 487.817" stroke="black" stroke-miterlimit="10" stroke-linecap="round"/>
<path d="M298.234 462.566V479.814C298.318 481.47 298.031 483.123 297.394 484.654C296.346 486.942 294.054 488.944 289.064 487.817" stroke="black" stroke-miterlimit="10" stroke-linecap="round"/>
<path d="M265.318 497.766V499.975V502.184" stroke="black" stroke-miterlimit="10" stroke-linecap="round"/>
<path d="M260.584 497.766V499.975V502.184" stroke="black" stroke-miterlimit="10" stroke-linecap="round"/>
<path d="M300.236 497.766V499.975V502.184" stroke="black" stroke-miterlimit="10" stroke-linecap="round"/>
<path d="M295.498 497.766V499.975V502.184" stroke="black" stroke-miterlimit="10" stroke-linecap="round"/>
<path d="M340.223 268.904L349.727 276.93L359.231 284.96" fill="#FC762B"/>
<path d="M340.223 268.904L349.727 276.93L359.231 284.96" stroke="#070707" stroke-miterlimit="10" stroke-linecap="round"/>
<path d="M221.613 245.584L234.021 246.39L246.429 247.195" fill="#FC762B"/>
<path d="M221.613 245.584L234.021 246.39L246.429 247.195" stroke="#070707" stroke-miterlimit="10" stroke-linecap="round"/>
<circle cx="488" cy="10" r="10" fill="#F6C34C"/>
<circle cx="565" cy="535" r="7" fill="#F2B3C1"/>
<circle cx="106" cy="499" r="10" fill="#DBCAF4"/>
<circle cx="10" cy="232" r="10" fill="#F2B3C1"/>
<defs>
<linearGradient id="paint0_linear_585_3280" x1="90" y1="50" x2="474.887" y2="573.634" gradientUnits="userSpaceOnUse">
<stop stop-color="#C7FDDC"/>
<stop offset="0.991385" stop-color="#ABC3FD"/>
</linearGradient>
<linearGradient id="paint1_linear_585_3280" x1="308.214" y1="265.613" x2="308.214" y2="81.2971" gradientUnits="userSpaceOnUse">
<stop offset="0.1" stop-color="#A4C2FF"/>
<stop offset="0.39" stop-color="#B5DEED"/>
<stop offset="0.65" stop-color="#C6FCDB"/>
</linearGradient>
<linearGradient id="paint2_linear_585_3280" x1="308.213" y1="96.1077" x2="308.213" y2="265.613" gradientUnits="userSpaceOnUse">
<stop stop-color="#FEC2D9"/>
<stop offset="0.47" stop-color="#DBCAF4"/>
<stop offset="0.81" stop-color="#C6FCDB"/>
</linearGradient>
<linearGradient id="paint3_linear_585_3280" x1="308.213" y1="113.589" x2="308.213" y2="265.613" gradientUnits="userSpaceOnUse">
<stop offset="0.13" stop-color="#DBCAF4"/>
<stop offset="0.56" stop-color="#C6FCDB"/>
<stop offset="1" stop-color="#FEC2D9"/>
</linearGradient>
<linearGradient id="paint4_linear_585_3280" x1="310" y1="502.703" x2="310" y2="265.613" gradientUnits="userSpaceOnUse">
<stop offset="0.02" stop-color="#A4C2FF"/>
<stop offset="0.88" stop-color="#FEC2D9"/>
</linearGradient>
<linearGradient id="paint5_linear_585_3280" x1="380.81" y1="99.2493" x2="380.81" y2="117.905" gradientUnits="userSpaceOnUse">
<stop offset="0.16" stop-color="#FEC2D9"/>
<stop offset="0.8" stop-color="#A4C2FF"/>
</linearGradient>
<linearGradient id="paint6_linear_585_3280" x1="230.311" y1="162.614" x2="230.311" y2="181.921" gradientUnits="userSpaceOnUse">
<stop offset="0.16" stop-color="#FEC2D9"/>
<stop offset="0.8" stop-color="#A4C2FF"/>
</linearGradient>
<linearGradient id="paint7_linear_585_3280" x1="373.73" y1="125.213" x2="373.73" y2="135.734" gradientUnits="userSpaceOnUse">
<stop offset="0.26" stop-color="#FEC2D9"/>
<stop offset="0.8" stop-color="#A4C2FF"/>
</linearGradient>
<linearGradient id="paint8_linear_585_3280" x1="390.604" y1="121.047" x2="390.604" y2="128.43" gradientUnits="userSpaceOnUse">
<stop offset="0.16" stop-color="#FEC2D9"/>
<stop offset="0.8" stop-color="#A4C2FF"/>
</linearGradient>
<linearGradient id="paint9_linear_585_3280" x1="244.268" y1="184.926" x2="244.268" y2="192.569" gradientUnits="userSpaceOnUse">
<stop offset="0.16" stop-color="#FEC2D9"/>
<stop offset="0.8" stop-color="#A4C2FF"/>
</linearGradient>
</defs>
</svg>
