<svg width="25" height="24" viewBox="0 0 25 24" fill="none" xmlns="http://www.w3.org/2000/svg">
<path fill-rule="evenodd" clip-rule="evenodd" d="M12.5 22C18.0228 22 22.5 17.5228 22.5 12C22.5 6.47715 18.0228 2 12.5 2C6.97715 2 2.5 6.47715 2.5 12C2.5 17.5228 6.97715 22 12.5 22ZM13.4 6.5C13.4 6.00294 12.9971 5.6 12.5 5.6C12.0029 5.6 11.6 6.00294 11.6 6.5V12C11.6 12.2387 11.6948 12.4676 11.8636 12.6364L14.8636 15.6364C15.2151 15.9879 15.7849 15.9879 16.1364 15.6364C16.4879 15.2849 16.4879 14.7151 16.1364 14.3636L13.4 11.6272V6.5Z" fill="#243B8B"/>
</svg>
