<svg width="22" height="22" viewBox="0 0 22 22" fill="none" xmlns="http://www.w3.org/2000/svg">
<path fill-rule="evenodd" clip-rule="evenodd" d="M22 11C22 17.0751 17.0751 22 11 22C4.92487 22 0 17.0751 0 11C0 4.92487 4.92487 0 11 0C17.0751 0 22 4.92487 22 11ZM9.9538 7.42384C9.9062 7.58274 9.88997 7.7507 9.90615 7.91683L10.3316 12.5349C10.3459 12.7164 10.4225 12.8854 10.5463 13.0085C10.6701 13.1317 10.832 13.2 11.0001 13.2C11.1681 13.2 11.3301 13.1317 11.4539 13.0085C11.5777 12.8854 11.6543 12.7164 11.6686 12.5349L12.094 7.91683C12.1102 7.7507 12.094 7.58274 12.0464 7.42384C11.9988 7.26495 11.9208 7.11867 11.8177 6.9945C11.7145 6.87034 11.5885 6.77105 11.4476 6.70308C11.3067 6.63512 11.1543 6.6 11.0001 6.6C10.8459 6.6 10.6934 6.63512 10.5526 6.70308C10.4117 6.77105 10.2856 6.87034 10.1825 6.9945C10.0793 7.11867 10.0014 7.26495 9.9538 7.42384ZM11.0001 14.3C10.3926 14.3 9.90008 14.7925 9.90008 15.4C9.90008 16.0075 10.3926 16.5 11.0001 16.5C11.6076 16.5 12.1001 16.0075 12.1001 15.4C12.1001 14.7925 11.6076 14.3 11.0001 14.3Z" fill="#E12828"/>
</svg>
