<svg width="140" height="25" viewBox="0 0 140 25" fill="none" xmlns="http://www.w3.org/2000/svg">
<path d="M9.23689 21.7041L15.5348 9.02194V19.185C15.5348 20.3828 15.0408 20.9879 14.0653 20.9879H13.7072V21.5807H19.1283V20.9879H18.7084C17.6835 20.9879 17.1772 20.3828 17.1772 19.185V7.45365C17.1772 6.25581 17.6835 5.65072 18.7084 5.65072H19.1283V5.05798H16.3992L9.75554 18.5305L2.72908 5.05798H0V5.65072H0.419859C1.44481 5.65072 1.95111 6.25581 1.95111 7.45365V19.185C1.95111 20.3828 1.44481 20.9879 0.419859 20.9879H0V21.5807H4.80368V20.9879H4.44556C3.47001 20.9879 2.97606 20.3828 2.97606 19.185V9.88636L9.23689 21.7041Z" fill="#1D2436"/>
<path d="M22.4743 14.7147C22.5854 13.6157 22.8695 12.7389 23.3511 12.0844C23.9685 11.2324 24.8206 10.8002 25.8949 10.8002C26.7964 10.8002 27.5126 11.1706 28.0313 11.9239C28.5499 12.6772 28.8216 13.6157 28.8339 14.7147H22.4743ZM22.4249 15.431H30.5504C30.5504 13.7515 30.1552 12.4302 29.3526 11.4547C28.5499 10.4791 27.4015 9.9975 25.8949 9.9975C24.376 9.9975 23.1411 10.5532 22.1656 11.6522C21.19 12.7513 20.7084 14.159 20.7084 15.8632C20.7084 17.4809 21.19 18.8516 22.1656 20C23.1411 21.1485 24.4995 21.7165 26.2407 21.7165C27.7719 21.7165 28.9327 21.3213 29.7107 20.5187V18.8516H29.4143C29.2538 20.1976 28.2412 20.8644 26.3889 20.8644C25.2651 20.8644 24.3266 20.3828 23.5733 19.4196C22.8077 18.4688 22.4249 17.2462 22.4249 15.752V15.431Z" fill="#1D2436"/>
<path d="M35.3042 11.5287V10.121H34.909C34.0076 10.7755 33.0691 11.1089 32.0812 11.1089V11.7016H32.6245C33.316 11.7016 33.6618 12.1462 33.6618 13.0353V19.5555C33.6618 20.5063 33.279 20.9879 32.501 20.9879H32.0812V21.5807H36.7614V20.9879H36.4032C35.6747 20.9879 35.3042 20.5063 35.3042 19.5555V13.4181C35.5388 11.6769 36.5514 10.8125 38.3297 10.8125C39.0335 10.8125 39.5892 11.0718 40.0091 11.5905C40.429 12.1215 40.6389 13.0106 40.6389 14.2702V19.5555C40.6389 20.5063 40.2561 20.9879 39.4781 20.9879H39.0582V21.5807H43.7384V20.9879H43.3803C42.6517 20.9879 42.2813 20.5063 42.2813 19.5555V14.159C42.2813 12.6895 41.9725 11.6275 41.3675 10.9731C40.7624 10.3186 39.8856 9.9975 38.7372 9.9975C37.3541 9.9975 36.218 10.5038 35.3042 11.5287Z" fill="#1D2436"/>
<path d="M48.4799 10.8372H51.1349V10.121H48.4799V6.9103H47.9612C47.8007 9.04664 46.8128 10.158 45.0099 10.2445V10.8372H46.8375V19.0739C46.8375 19.9506 47.0845 20.6175 47.5661 21.0497C48.0477 21.4942 48.7639 21.7165 49.7271 21.7165C50.2704 21.7165 50.7273 21.6177 51.0855 21.4078C51.4436 21.1978 51.7029 20.9756 51.8881 20.7286L51.7646 20.3211C51.3324 20.6792 50.8261 20.8644 50.2581 20.8644C49.653 20.8644 49.2084 20.7039 48.9244 20.3705C48.6281 20.0371 48.4799 19.5184 48.4799 18.8145V10.8372Z" fill="#1D2436"/>
<path d="M59.2722 20.4816C59.5192 21.2966 60.2107 21.7041 61.3345 21.7041C62.0013 21.7041 62.5323 21.4819 62.9275 21.0373L62.6681 20.5928C62.4088 20.9385 62.1248 21.1114 61.8037 21.1114C61.1369 21.1114 60.8035 20.6298 60.8035 19.6789V13.4428C60.8035 12.4426 60.4824 11.6275 59.8403 10.9731C59.1981 10.3186 58.2102 9.9975 56.8766 9.9975C55.901 9.9975 54.9131 10.2939 53.9252 10.8866V12.7019H54.271C54.5426 11.43 55.4317 10.8002 56.9259 10.8002C57.7039 10.8002 58.272 11.0224 58.6301 11.467C58.9882 11.9116 59.1611 12.4055 59.1611 12.9612V13.2082C59.0005 13.6033 58.5807 13.9491 57.8892 14.2455L56.1974 14.9864C54.061 15.9002 52.999 17.1104 52.999 18.6046C52.999 19.5184 53.2954 20.2717 53.8881 20.8521C54.4685 21.4448 55.2712 21.7412 56.2715 21.7412C57.6669 21.7412 58.6671 21.3213 59.2722 20.4816ZM59.1611 14.3319V18.9874C59.0376 20.284 58.2226 20.9385 56.716 20.9385C56.0986 20.9385 55.617 20.7039 55.2589 20.2346C54.9007 19.7777 54.7155 19.185 54.7155 18.4688C54.7155 17.1721 55.2959 16.2583 56.4443 15.7026L58.6054 14.7024C58.8277 14.6036 59.0129 14.4801 59.1611 14.3319Z" fill="#1D2436"/>
<path d="M65.4091 19.5555C65.4091 20.5063 65.0263 20.9879 64.2483 20.9879H63.8284V21.5807H68.5086V20.9879H68.1505C67.4219 20.9879 67.0515 20.5063 67.0515 19.5555V3.57613H66.6563C65.7548 4.23061 64.8163 4.56403 63.8284 4.56403V5.15677H64.3718C65.0633 5.15677 65.4091 5.60133 65.4091 6.49044V19.5555Z" fill="#1D2436"/>
<path d="M74 8C74 3.58172 77.5817 0 82 0H132C136.418 0 140 3.58172 140 8V17C140 21.4183 136.418 25 132 25H82C77.5817 25 74 21.4183 74 17V8Z" fill="#1D2436"/>
<path d="M82.3197 11.1864V4.08582H81.9632C81.15 4.67018 80.3033 4.96787 79.4121 4.96787V5.49711H79.9023C80.5261 5.49711 80.838 5.89403 80.838 6.68788V18.3531C80.838 19.2021 80.4927 19.6321 79.7909 19.6321H79.4121V20.1613H83.6342V19.6321H83.3111C82.6539 19.6321 82.3197 19.2021 82.3197 18.3531V12.8733C82.5313 11.3187 83.4448 10.5469 85.049 10.5469C85.684 10.5469 86.1853 10.7784 86.564 11.2415C86.9428 11.7156 87.1322 12.5095 87.1322 13.6341V18.3531C87.1322 19.2021 86.7868 19.6321 86.085 19.6321H85.7062V20.1613H89.9283V19.6321H89.6053C88.948 19.6321 88.6138 19.2021 88.6138 18.3531V13.5348C88.6138 12.2228 88.3353 11.2746 87.7894 10.6902C87.2436 10.1059 86.4526 9.81918 85.4166 9.81918C84.1689 9.81918 83.144 10.2712 82.3197 11.1864Z" fill="white"/>
<path d="M92.8688 14.031C92.9691 13.0497 93.2253 12.2669 93.6598 11.6825C94.2168 10.9218 94.9855 10.5359 95.9546 10.5359C96.7679 10.5359 97.414 10.8666 97.8819 11.5392C98.3497 12.2118 98.5948 13.0497 98.606 14.031H92.8688ZM92.8243 14.6705H100.154C100.154 13.171 99.798 11.9912 99.0738 11.1202C98.3497 10.2492 97.3137 9.81918 95.9546 9.81918C94.5844 9.81918 93.4704 10.3153 92.5903 11.2966C91.7103 12.2779 91.2758 13.5348 91.2758 15.0564C91.2758 16.5008 91.7103 17.7246 92.5903 18.75C93.4704 19.7754 94.6958 20.2826 96.2666 20.2826C97.6479 20.2826 98.6951 19.9298 99.3969 19.2131V17.7246H99.1295C98.9847 18.9264 98.0712 19.5218 96.4002 19.5218C95.3865 19.5218 94.5398 19.0918 93.8603 18.2318C93.1696 17.3828 92.8243 16.2913 92.8243 14.9572V14.6705Z" fill="white"/>
<path d="M107.15 19.18C107.373 19.9077 107.997 20.2716 109.01 20.2716C109.612 20.2716 110.091 20.0731 110.447 19.6762L110.213 19.2792C109.98 19.588 109.723 19.7423 109.434 19.7423C108.832 19.7423 108.531 19.3123 108.531 18.4633V12.8954C108.531 12.0023 108.242 11.2746 107.662 10.6902C107.083 10.1059 106.192 9.81918 104.989 9.81918C104.109 9.81918 103.217 10.0838 102.326 10.613V12.2338H102.638C102.883 11.0982 103.685 10.5359 105.033 10.5359C105.735 10.5359 106.248 10.7343 106.571 11.1312C106.894 11.5282 107.05 11.9692 107.05 12.4654V12.6859C106.905 13.0387 106.526 13.3474 105.902 13.612L104.376 14.2736C102.449 15.0895 101.491 16.17 101.491 17.5041C101.491 18.32 101.758 18.9926 102.293 19.5108C102.816 20.04 103.541 20.3046 104.443 20.3046C105.702 20.3046 106.604 19.9298 107.15 19.18ZM107.05 13.6892V17.8459C106.938 19.0036 106.203 19.588 104.844 19.588C104.287 19.588 103.852 19.3785 103.529 18.9595C103.206 18.5515 103.039 18.0223 103.039 17.3828C103.039 16.2251 103.563 15.4092 104.599 14.9131L106.548 14.02C106.749 13.9318 106.916 13.8215 107.05 13.6892Z" fill="white"/>
<path d="M112.686 18.3531C112.686 19.2021 112.341 19.6321 111.639 19.6321H111.26V20.1613H115.482V19.6321H115.159C114.502 19.6321 114.168 19.2021 114.168 18.3531V4.08582H113.811C112.998 4.67018 112.151 4.96787 111.26 4.96787V5.49711H111.75C112.374 5.49711 112.686 5.89403 112.686 6.68788V18.3531Z" fill="white"/>
<path d="M119.771 10.5689H122.166V9.92944H119.771V7.06276H119.303C119.158 8.9702 118.267 9.96252 116.64 10.0397V10.5689H118.289V17.9231C118.289 18.7059 118.512 19.3013 118.946 19.6872C119.381 20.0841 120.027 20.2826 120.896 20.2826C121.386 20.2826 121.798 20.1944 122.121 20.0069C122.444 19.8195 122.678 19.621 122.845 19.4005L122.734 19.0367C122.344 19.3564 121.887 19.5218 121.375 19.5218C120.829 19.5218 120.428 19.3785 120.172 19.0808C119.904 18.7831 119.771 18.32 119.771 17.6915V10.5689Z" fill="white"/>
<path d="M126.8 11.1864V4.08582H126.443C125.63 4.67018 124.783 4.96787 123.892 4.96787V5.49711H124.382C125.006 5.49711 125.318 5.89403 125.318 6.68788V18.3531C125.318 19.2021 124.973 19.6321 124.271 19.6321H123.892V20.1613H128.114V19.6321H127.791C127.134 19.6321 126.8 19.2021 126.8 18.3531V12.8733C127.011 11.3187 127.925 10.5469 129.529 10.5469C130.164 10.5469 130.665 10.7784 131.044 11.2415C131.423 11.7156 131.612 12.5095 131.612 13.6341V18.3531C131.612 19.2021 131.267 19.6321 130.565 19.6321H130.186V20.1613H134.408V19.6321H134.085C133.428 19.6321 133.094 19.2021 133.094 18.3531V13.5348C133.094 12.2228 132.815 11.2746 132.269 10.6902C131.724 10.1059 130.933 9.81918 129.897 9.81918C128.649 9.81918 127.624 10.2712 126.8 11.1864Z" fill="white"/>
</svg>
